<?xml version="1.0" encoding="UTF-8"?>
<svg width="141px" height="40px" viewBox="0 0 141 40" version="1.1" xmlns="http://www.w3.org/2000/svg" xmlns:xlink="http://www.w3.org/1999/xlink">
    <!-- Generator: Sketch 64 (93537) - https://sketch.com -->
    <title>app-store</title>
    <desc>Created with Sketch.</desc>
    <g id="Welcome" stroke="none" stroke-width="1" fill="none" fill-rule="evenodd">
        <g id="HOME---Dónde-Comprar---App-Éxito---Desktop-HD" transform="translate(-527.000000, -602.000000)" fill-rule="nonzero">
            <g id="app-store" transform="translate(527.000000, 602.000000)">
                <path d="M141.000001,35.9716535 C141.000001,37.033232 140.573287,38.0509913 139.812556,38.7977847 C139.051825,39.544578 138.021313,39.958243 136.951014,39.9464567 L3.95054054,39.9464567 C2.89621324,39.9663634 1.87918654,39.5595231 1.13382911,38.8196902 C0.388471679,38.0798572 -0.0209186688,37.0708528 -0.000832483028,36.0251969 L-0.000832483028,3.91811024 C-0.0218532552,2.872469 0.387341845,1.86323977 1.13300185,1.12370095 C1.87866186,0.384162124 2.89624451,-0.0216738601 3.95054054,-8.45677695e-16 L136.941486,-8.45677695e-16 C138.003937,-0.0246568604 139.03133,0.377642021 139.79024,1.11549387 C140.54915,1.85334573 140.975138,2.86409931 140.971419,3.91811024 L140.971419,36.0251969 L141.000001,35.9716535 Z" id="Path" fill="#000000"></path>
                <path d="M30.8739189,19.7448819 C30.8421622,16.3590551 33.6716892,14.7055118 33.7987162,14.6330709 C32.6639579,13.0191744 30.827491,12.03142 28.8446622,11.9685039 C26.7582432,11.7574803 24.7353378,13.2283465 23.6778378,13.2283465 C22.6203378,13.2283465 20.9594595,11.9968504 19.1937838,12.0314961 C16.8816418,12.1124411 14.7807243,13.3872558 13.6554054,15.392126 C11.2387162,19.5275591 13.0202703,25.5748031 15.3289865,28.9102362 C16.4817568,30.5417323 17.8250676,32.3748031 19.5875676,32.3023622 C21.3500676,32.2299213 21.9502703,31.2125984 24.0335135,31.2125984 C26.1167568,31.2125984 26.6979054,32.3023622 28.4794595,32.2614173 C30.3277027,32.2299213 31.49,30.6204724 32.6078378,28.9732283 C33.4376684,27.812019 34.0745254,26.5264306 34.4941892,25.1653543 C32.3012375,24.2413231 30.8764026,22.1079801 30.8739189,19.7448819" id="Path" fill="#FFFFFF"></path>
                <path d="M27.4822973,9.78267717 C28.4907527,8.58327916 28.986506,7.04040987 28.8637162,5.48346457 C27.5235811,5.54330709 25.85,6.40314961 24.8845946,7.52755906 C24.0303378,8.51968504 23.265,10.1417323 23.4618919,11.6692913 C24.9703378,11.7795276 26.5137162,10.9133858 27.4822973,9.77952756" id="Path" fill="#FFFFFF"></path>
                <path d="M55.7997973,25.9275591 L53.3926351,25.9275591 L52.0810811,21.8141732 L47.4922297,21.8141732 L46.2219595,25.9275591 L43.8783108,25.9275591 L48.4354054,11.9370079 L51.2363514,11.9370079 L55.7997973,25.9275591 Z M51.6714189,20.0913386 L50.4932432,16.4377953 C50.3662162,16.0661417 50.1280405,15.1884514 49.7787162,13.8047244 L49.7374324,13.8047244 C49.5977027,14.4 49.3754054,15.2755906 49.0673649,16.4377953 L47.8955405,20.0913386 L51.6714189,20.0913386 Z" id="Shape" fill="#FFFFFF"></path>
                <path d="M67.4767568,20.7559055 C67.4767568,22.4713911 67.0099324,23.8278215 66.0762838,24.8251969 C65.2766464,25.6892523 64.139997,26.1691089 62.9577703,26.1417323 C61.6176351,26.1417323 60.6543468,25.6650919 60.0679054,24.711811 L60.0202703,24.711811 L60.0202703,30.0346457 L57.7591892,30.0346457 L57.7591892,19.1590551 C57.7591892,18.0787402 57.7306081,16.9732283 57.6734459,15.8362205 L59.6614189,15.8362205 L59.7884459,17.4362205 L59.8297297,17.4362205 C60.5834234,16.2330709 61.7277252,15.6304462 63.2626351,15.6283465 C64.4304705,15.6144281 65.5392878,16.1363858 66.2668243,17.0425197 C67.0670946,17.9832021 67.4672297,19.2209974 67.4672297,20.7559055 M65.1648649,20.8377953 C65.1992103,19.9796382 64.9663692,19.1317965 64.497973,18.4094488 C64.1101466,17.8693923 63.5128405,17.5141707 62.8498225,17.4292837 C62.1868045,17.3443968 61.5181246,17.5375326 61.0047297,17.9622047 C60.551187,18.3303086 60.2366584,18.8398583 60.1123649,19.407874 C60.0511606,19.6308672 60.0170448,19.8603156 60.0107432,20.0913386 L60.0107432,21.7732283 C59.9913354,22.4551727 60.2330122,23.1191106 60.6871622,23.6314961 C61.1328741,24.1334915 61.7820058,24.4108931 62.4560135,24.3874016 C63.2505078,24.4287099 64.0103388,24.060842 64.4662162,23.4141732 C64.9737588,22.6523537 65.222962,21.7497873 65.1775676,20.8377953" id="Shape" fill="#FFFFFF"></path>
                <path d="M79.1759459,20.7559055 C79.1759459,22.4713911 78.7080631,23.8278215 77.7722973,24.8251969 C76.9729053,25.6895965 75.8360906,26.1695229 74.6537838,26.1417323 C73.3157658,26.1417323 72.353536,25.6650919 71.7670946,24.711811 L71.7258108,24.711811 L71.7258108,30.0346457 L69.4679054,30.0346457 L69.4679054,19.1590551 C69.4679054,18.0787402 69.4361486,16.9732283 69.3821622,15.8362205 L71.3701351,15.8362205 L71.4971622,17.4362205 L71.5384459,17.4362205 C72.2900225,16.2330709 73.4343243,15.6304462 74.9713514,15.6283465 C76.1383934,15.613971 77.2464358,16.1361159 77.9723649,17.0425197 C78.7747523,17.9832021 79.1759459,19.2209974 79.1759459,20.7559055 M76.8735811,20.8377953 C76.9122114,19.9804795 76.6826023,19.1322896 76.2162162,18.4094488 C75.7724501,17.7697749 75.0331328,17.3954511 74.250473,17.4141732 C73.6931505,17.4091413 73.1520235,17.5999378 72.722973,17.9527559 C72.2704184,18.321181 71.957,18.8307458 71.8337838,19.3984252 C71.7717715,19.6213452 71.7365941,19.8507642 71.7289865,20.0818898 L71.7289865,21.7637795 C71.7086232,22.4458757 71.9504226,23.1101504 72.4054054,23.6220472 C72.8508458,24.1244135 73.5001637,24.4018947 74.1742568,24.3779528 C74.9610129,24.4115534 75.7106429,24.0445659 76.1622297,23.4047244 C76.6685524,22.642357 76.9176444,21.7401936 76.8735811,20.8283465" id="Shape" fill="#FFFFFF"></path>
                <path d="M92.2565541,22.0031496 C92.2938026,23.107816 91.8342086,24.1717833 91.0021622,24.9070866 C90.0854505,25.7301837 88.8056532,26.1417323 87.1627703,26.1417323 C85.6447973,26.1417323 84.4306306,25.847769 83.5202703,25.2598425 L84.0442568,23.392126 C85.0288179,23.9846757 86.1604138,24.2933373 87.312027,24.2834646 C88.0221226,24.3264407 88.7254196,24.1250822 89.3031757,23.7133858 C89.7700311,23.3443196 90.0327805,22.7775602 90.0113514,22.1858268 C90.0243795,21.6486201 89.8129042,21.1299713 89.427027,20.7527559 C88.859583,20.2617935 88.1956498,19.8928715 87.4771622,19.6692913 C85.0086036,18.751706 83.7743243,17.4141732 83.7743243,15.6566929 C83.7430721,14.5636592 84.2224088,13.5175428 85.0731757,12.8220472 C85.9369595,12.0850394 87.0876126,11.7165354 88.5251351,11.7165354 C89.630613,11.6784709 90.7289425,11.9064919 91.7262162,12.3811024 L91.1418919,14.2173228 C90.3090509,13.7846323 89.3793771,13.5679362 88.4393919,13.5874016 C87.7694788,13.548959 87.1089017,13.7576212 86.5847973,14.1732283 C86.2222608,14.4925866 86.0172017,14.9521929 86.0227027,15.4330709 C86.0085558,15.9618819 86.2433087,16.4671138 86.6578378,16.8 C87.2786832,17.267112 87.9713999,17.6318973 88.7093243,17.880315 C89.7227571,18.2352316 90.6399661,18.8172541 91.3895946,19.5811024 C91.9704039,20.2576087 92.2761139,21.1245374 92.247027,22.0125984" id="Path" fill="#FFFFFF"></path>
                <path d="M99.7162162,17.5181102 L97.2264865,17.5181102 L97.2264865,22.415748 C97.2264865,23.6755906 97.6679054,24.2834646 98.5475676,24.2834646 C98.8849292,24.2897148 99.2218318,24.2558781 99.5510811,24.1826772 L99.6114189,25.8834646 C99.0452763,26.0678963 98.4508355,26.1521193 97.8552703,26.1322835 C97.0724405,26.1755593 96.3091052,25.8803139 95.7625,25.3228346 C95.2607432,24.7832021 95.0098649,23.8771654 95.0098649,22.6047244 L95.0098649,17.5181102 L93.5236486,17.5181102 L93.5236486,15.8362205 L95.0098649,15.8362205 L95.0098649,13.9905512 L97.2328378,13.3259843 L97.2328378,15.8456693 L99.7162162,15.8456693 L99.7162162,17.5181102 Z" id="Path" fill="#FFFFFF"></path>
                <path d="M110.964459,20.7874016 C110.964459,22.3391076 110.518806,23.6125984 109.6275,24.607874 C108.676092,25.6410227 107.311876,26.2027615 105.902432,26.1417323 C104.405631,26.1417323 103.215811,25.6514436 102.332973,24.6708661 C101.430718,23.6453831 100.956077,22.3176136 101.005541,20.9574803 C101.005541,19.3931759 101.461779,18.112336 102.374257,17.1149606 C103.286734,16.1175853 104.517838,15.6220472 106.067568,15.6283465 C107.427586,15.5735493 108.743587,16.1122021 109.668784,17.1023622 C110.535743,18.0472441 110.964459,19.288189 110.964459,20.7968504 M108.620811,20.8692913 C108.645291,20.0311578 108.435354,19.2026626 108.014257,18.4755906 C107.627663,17.7202446 106.838908,17.2513666 105.985,17.2692913 C105.118965,17.2454049 104.315109,17.7137326 103.914459,18.4755906 C103.489878,19.2173239 103.279984,20.0609049 103.307905,20.9133858 C103.283425,21.7515194 103.493362,22.5800145 103.914459,23.3070866 C104.314291,24.060624 105.107498,24.5270392 105.965946,24.5133858 C106.821811,24.5191439 107.606959,24.0431344 107.992027,23.2850394 C108.427429,22.5545734 108.647478,21.717613 108.627162,20.8692913" id="Shape" fill="#FFFFFF"></path>
                <path d="M118.309797,17.807874 C118.074816,17.7679916 117.836844,17.7479722 117.598446,17.7480315 C116.871765,17.7159524 116.178266,18.0515547 115.756554,18.6393701 C115.362006,19.2287095 115.16426,19.9261582 115.191284,20.6330709 L115.191284,25.9244094 L112.933378,25.9244094 L112.952432,19.0141732 C112.952432,17.8530184 112.92491,16.7937008 112.869865,15.8362205 L114.838784,15.8362205 L114.921351,17.7700787 L114.981689,17.7700787 C115.195967,17.140222 115.588421,16.5848004 116.11223,16.1700787 C116.584527,15.8198886 117.158013,15.6299276 117.747703,15.6283363 C117.935841,15.6279091 118.123742,15.6415965 118.309797,15.6692913 L118.309797,17.807874 Z" id="Path" fill="#FFFFFF"></path>
                <path d="M128.417973,20.4031496 C128.42266,20.7440743 128.395015,21.0846809 128.335405,21.4204724 L121.555338,21.4204724 C121.525368,22.2888416 121.886075,23.1255055 122.539797,23.703937 C123.171166,24.1965256 123.960355,24.4469928 124.76277,24.4094488 C125.696915,24.4219792 126.625236,24.2617646 127.500203,23.9370079 L127.852703,25.511811 C126.771633,25.952334 125.610513,26.1667825 124.442027,26.1417323 C122.854189,26.1417323 121.625203,25.6787402 120.726486,24.7590551 C119.82777,23.8393701 119.376824,22.6047244 119.376824,21.0551181 C119.33093,19.6793868 119.781344,18.3325366 120.647095,17.2566929 C121.504664,16.1855545 122.82584,15.5842061 124.203851,15.6377953 C125.668896,15.6377953 126.779324,16.1774278 127.535135,17.2566929 C128.157023,18.1978608 128.469859,19.3069037 128.430676,20.4314961 M126.274392,19.8488189 C126.305134,19.2450095 126.152469,18.6459445 125.836149,18.1291339 C125.45862,17.5078341 124.765838,17.1442915 124.035541,17.184252 C123.320521,17.1732919 122.646805,17.5156483 122.238108,18.0976378 C121.852379,18.6032507 121.619943,19.2074293 121.568041,19.8393701 L126.274392,19.8488189 Z" id="Shape" fill="#FFFFFF"></path>
            </g>
        </g>
    </g>
</svg>