<?xml version="1.0" encoding="UTF-8"?>
<svg width="141px" height="40px" viewBox="0 0 141 40" version="1.1" xmlns="http://www.w3.org/2000/svg" xmlns:xlink="http://www.w3.org/1999/xlink">
    <!-- Generator: Sketch 64 (93537) - https://sketch.com -->
    <title>google-play</title>
    <desc>Created with Sketch.</desc>
    <defs>
        <linearGradient x1="80.7561437%" y1="50%" x2="-157.308129%" y2="50%" id="linearGradient-1">
            <stop stop-color="#E7C729" offset="0%"></stop>
            <stop stop-color="#E4AA2A" offset="37%"></stop>
            <stop stop-color="#E2922B" offset="76%"></stop>
            <stop stop-color="#E1892B" offset="100%"></stop>
        </linearGradient>
        <linearGradient x1="86.2380251%" y1="31.1741028%" x2="-50.1473839%" y2="134.651667%" id="linearGradient-2">
            <stop stop-color="#D23640" offset="0%"></stop>
            <stop stop-color="#B1245F" offset="100%"></stop>
        </linearGradient>
        <linearGradient x1="-50.7553427%" y1="-35.059624%" x2="60.6116433%" y2="49.3528268%" id="linearGradient-3">
            <stop stop-color="#248E64" offset="0%"></stop>
            <stop stop-color="#439C61" offset="38%"></stop>
            <stop stop-color="#5BA85E" offset="77%"></stop>
            <stop stop-color="#64AC5D" offset="100%"></stop>
        </linearGradient>
    </defs>
    <g id="Welcome" stroke="none" stroke-width="1" fill="none" fill-rule="evenodd">
        <g id="HOME---Dónde-Comprar---App-Éxito---Desktop-HD" transform="translate(-678.000000, -602.000000)" fill-rule="nonzero">
            <g id="google-play" transform="translate(678.000000, 602.000000)">
                <path d="M141.000001,35.9716535 C141.000001,37.033232 140.573287,38.0509913 139.812556,38.7977847 C139.051825,39.544578 138.021313,39.958243 136.951014,39.9464567 L3.95054054,39.9464567 C2.89621324,39.9663634 1.87918654,39.5595231 1.13382911,38.8196902 C0.388471679,38.0798572 -0.0209186688,37.0708528 -0.000832483028,36.0251969 L-0.000832483028,3.91811024 C-0.0218532552,2.872469 0.387341845,1.86323977 1.13300185,1.12370095 C1.87866186,0.384162124 2.89624451,-0.0216738601 3.95054054,-8.45677695e-16 L136.941486,-8.45677695e-16 C138.003937,-0.0246568604 139.03133,0.377642021 139.79024,1.11549387 C140.54915,1.85334573 140.975138,2.86409931 140.971419,3.91811024 L140.971419,36.0251969 L141.000001,35.9716535 Z" id="Path" fill="#000000"></path>
                <path d="M70.2364189,16.3433071 C67.6743356,16.3519975 65.603635,18.4174351 65.6094592,20.9584943 C65.6153081,23.4995535 67.6954754,25.5556129 70.257572,25.552729 C72.8196686,25.5498391 74.8951202,23.4890973 74.8951351,20.9480315 C74.9134068,19.7185725 74.4279257,18.5343734 73.5497808,17.6664057 C72.6716358,16.7984379 71.4759846,16.320988 70.2364189,16.3433071 L70.2364189,16.3433071 Z M70.2364189,23.7385827 C68.8295946,23.7385827 67.6164865,22.5858268 67.6164865,20.9480315 C67.6164865,19.3102362 68.8295946,18.1574803 70.2364189,18.1574803 C71.6432432,18.1574803 72.8563514,19.2913386 72.8563514,20.9480315 C72.8563514,22.6047244 71.6432432,23.7385827 70.2364189,23.7385827 Z M60.0742568,16.3433071 C57.5125949,16.3537338 55.4434888,18.4199334 55.4504726,20.9605782 C55.4574918,23.5012231 57.5379551,25.5561742 60.0996361,25.5527172 C62.6613172,25.5492515 64.7361271,23.4886859 64.7361486,20.9480315 C64.7544694,19.7174587 64.2681246,18.5322656 63.3885873,17.6641053 C62.50905,16.7959449 61.3117377,16.3192591 60.0710811,16.3433071 L60.0742568,16.3433071 Z M60.0742568,23.7385827 C58.6674324,23.7385827 57.4543243,22.5858268 57.4543243,20.9480315 C57.4543243,19.3102362 58.6674324,18.1574803 60.0742568,18.1574803 C61.4810811,18.1574803 62.6941892,19.2913386 62.6941892,20.9480315 C62.6941892,22.6047244 61.4779054,23.7385827 60.0710811,23.7385827 L60.0742568,23.7385827 Z M47.9844595,17.7543307 L47.9844595,19.7070866 L52.6971622,19.7070866 C52.6287741,20.6225632 52.2505288,21.4882714 51.6237838,22.1637795 C50.6691756,23.1294465 49.3468774,23.6489887 47.9844595,23.5937008 C45.090562,23.5937008 42.7445946,21.2669916 42.7445946,18.3968504 C42.7445946,15.5267092 45.090562,13.2 47.9844595,13.2 C49.3075556,13.1821143 50.5844092,13.6823256 51.5380405,14.592126 L52.9226351,13.2283465 C51.6095234,11.9393568 49.8286011,11.2287492 47.9812838,11.2566929 C44.0085135,11.2566929 40.6772297,14.4661417 40.6772297,18.4062992 C40.6772297,22.3464567 44.0180405,25.5559055 47.9812838,25.5559055 C50.1280405,25.5559055 51.7444595,24.8598425 53.0115541,23.5527559 C54.2786486,22.2456693 54.7168919,20.4472441 54.7168919,18.9826772 C54.7220915,18.5738191 54.6859194,18.1654751 54.6089189,17.7637795 L47.9844595,17.7543307 Z M97.4297297,19.2692913 C97.045473,18.2425197 95.8672973,16.3401575 93.4569595,16.3401575 C91.0466216,16.3401575 89.0777027,18.207874 89.0777027,20.9480315 C89.0508538,22.1703819 89.5262129,23.3510341 90.3946059,24.2188321 C91.2629988,25.0866301 92.4497969,25.5669962 93.6824324,25.5496063 C95.2353633,25.559174 96.6889856,24.7933505 97.5504054,23.511811 L95.9625676,22.4629921 C95.4807144,23.2585172 94.611784,23.7432782 93.6760811,23.7385827 C92.7083774,23.7743276 91.8164053,23.2215774 91.424527,22.3433071 L97.632973,19.7952756 L97.4297297,19.2692913 Z M91.1006081,20.8031496 C91.055522,20.1262607 91.287534,19.4599356 91.7441665,18.9548869 C92.2007991,18.4498383 92.8434727,18.148736 93.5268243,18.119685 C94.3366216,18.119685 95.0225676,18.519685 95.2512162,19.096063 L91.1006081,20.8031496 Z M86.0608108,25.2724409 L88.1027703,25.2724409 L88.1027703,11.7291339 L86.0608108,11.7291339 L86.0608108,25.2724409 Z M82.710473,17.3732283 L82.6406081,17.3732283 C82.0146558,16.6963726 81.1242854,16.3208706 80.1985135,16.3433071 C77.8770946,16.3433071 75.7525676,18.3653543 75.7525676,20.9637795 C75.7525676,23.5622047 77.8802703,25.5496063 80.1985135,25.5496063 C81.1276041,25.5722516 82.0200688,25.1901112 82.6406081,24.503937 L82.710473,24.503937 L82.710473,25.1685039 C82.710473,26.9291339 81.7577703,27.8708661 80.2334459,27.8708661 C79.1904335,27.8460224 78.2664307,27.1973083 77.8961486,26.2299213 L76.1177703,26.9637795 C76.8058269,28.6203605 78.4397453,29.6961268 80.2461486,29.6818898 C82.6374324,29.6818898 84.6571622,28.2897638 84.6571622,24.888189 L84.6571622,16.623622 L82.7231757,16.623622 L82.710473,17.3732283 Z M80.3731757,23.7385827 C78.9663514,23.7385827 77.7881757,22.5700787 77.7881757,20.9637795 C77.7881757,19.3574803 78.9663514,18.1574803 80.3731757,18.1574803 C81.78,18.1574803 82.8533784,19.3417323 82.8533784,20.9637795 C82.8533784,22.5858268 81.7641216,23.7385827 80.3731757,23.7385827 L80.3731757,23.7385827 Z M106.982162,11.7417323 L102.101149,11.7417323 L102.101149,25.2850394 L104.136757,25.2850394 L104.136757,20.1574803 L106.994865,20.1574803 C109.243243,20.1574803 111.466216,18.5228346 111.466216,15.9433071 C111.466216,13.3637795 109.243243,11.7417323 106.982162,11.7417323 Z M107.02027,18.2677165 L104.124054,18.2677165 L104.124054,13.6251969 L107.02027,13.6251969 C108.312878,13.6251969 109.360743,14.6644603 109.360743,15.9464567 C109.360743,17.2284531 108.312878,18.2677165 107.02027,18.2677165 L107.02027,18.2677165 Z M119.605473,16.3244094 C118.131959,16.3244094 116.604459,16.9543307 115.9725,18.3968504 L117.779459,19.1464567 C118.166892,18.3968504 118.884595,18.1543307 119.640405,18.1543307 C120.69473,18.1543307 121.764932,18.784252 121.780811,19.8929134 L121.780811,20.0314961 C121.127344,19.6884036 120.398841,19.5099361 119.659459,19.511811 C117.709595,19.511811 115.727973,20.5732283 115.727973,22.5574803 C115.727973,24.3685039 117.315811,25.5338583 119.113243,25.5338583 C120.158062,25.5980022 121.154642,25.0905112 121.710946,24.2110236 L121.780811,24.2110236 L121.780811,25.2566929 L123.74662,25.2566929 L123.74662,20.0629921 C123.759257,17.6598425 121.945946,16.3181102 119.618176,16.3181102 L119.605473,16.3244094 Z M119.360946,23.7417323 C118.694054,23.7417323 117.773108,23.4267717 117.773108,22.592126 C117.773108,21.5464567 118.93223,21.1464567 119.932568,21.1464567 C120.581644,21.129523 121.22335,21.2861847 121.790338,21.6 C121.635067,22.8102635 120.603689,23.7216083 119.373649,23.7354331 L119.360946,23.7417323 Z M130.910878,16.6204724 L128.573581,22.488189 L128.503716,22.488189 L126.083851,16.6204724 L123.889459,16.6204724 L127.522432,24.8094488 L125.451892,29.3700787 L127.573243,29.3700787 L133.171959,16.6110236 L130.910878,16.6204724 Z M112.580878,25.2724409 L114.616486,25.2724409 L114.616486,11.7291339 L112.580878,11.7291339 L112.580878,25.2724409 Z" id="Shape" fill="#FFFFFF"></path>
                <path d="M11.0894595,6.57637795 C10.7498041,6.977638 10.5781849,7.49277803 10.6099324,8.01574803 L10.6099324,30.6740157 C10.5741968,31.2013269 10.7460971,31.7218269 11.0894595,32.1259843 L11.1656757,32.2015748 L23.9636486,19.5086614 L23.9636486,19.1937008 L11.1656757,6.5007874 L11.0894595,6.57637795 Z" id="Path" fill="#4AB0D2"></path>
                <path d="M28.2285811,23.7259843 L23.9636486,19.496063 L23.9636486,19.1811024 L28.2317568,14.9637795 L28.327027,15.0173228 L33.379527,17.8519685 C34.8244595,18.6677165 34.8244595,19.9968504 33.379527,20.8125984 L28.327027,23.6472441 L28.2285811,23.7259843 Z" id="Path" fill="url(#linearGradient-1)"></path>
                <path d="M28.327027,23.6724409 L23.9636486,19.3448819 L11.0894595,32.1259843 C11.5658108,32.6267717 12.3597297,32.6866142 13.2362162,32.1889764 L28.327027,23.6850394" id="Path" fill="url(#linearGradient-2)"></path>
                <path d="M28.327027,15.0173228 L13.2362162,6.51338583 C12.3502027,6.01574803 11.5658108,6.07559055 11.0894595,6.57637795 L23.9636486,19.3448819 L28.327027,15.0173228 Z" id="Path" fill="url(#linearGradient-3)"></path>
            </g>
        </g>
    </g>
</svg>