<?xml version="1.0" encoding="UTF-8"?>
<svg width="273px" height="104px" viewBox="0 0 273 104" version="1.1" xmlns="http://www.w3.org/2000/svg" xmlns:xlink="http://www.w3.org/1999/xlink">
    <!-- Generator: Sketch 64 (93537) - https://sketch.com -->
    <title>head-app</title>
    <desc>Created with Sketch.</desc>
    <g id="Welcome" stroke="none" stroke-width="1" fill="none" fill-rule="evenodd">
        <g id="HOME---Dónde-Comprar---App-Éxito---Desktop-HD" transform="translate(-1036.000000, -226.000000)" fill-rule="nonzero">
            <g id="head-app" transform="translate(1036.000000, 226.000000)">
                <path d="M44.8148571,69.6571429 L32.1714286,69.6571429 L32.1714286,66.5028571 C28.8104489,69.5046487 24.4266605,71.1038848 19.9222857,70.9714286 C14.7396394,71.051168 9.76844298,68.9192895 6.25371429,65.1097143 C2.41601178,61.0158575 0.388480209,55.5491019 0.628571429,49.9428571 C0.441561678,44.3843776 2.46416249,38.9781736 6.25371429,34.9074286 C9.74081001,31.0436346 14.7178701,28.8613852 19.9222857,28.9142857 C24.4124497,28.7529995 28.7944704,30.3139769 32.1714286,33.2777143 L32.1714286,30.1234286 L44.7885714,30.1234286 L44.8148571,69.6571429 Z M29.3325714,57.2502857 C31.243062,55.3082341 32.2698015,52.6653306 32.1714286,49.9428571 C32.2597226,47.2170615 31.2237288,44.5748021 29.3062857,42.6354286 C27.544091,40.7546506 25.075535,39.696698 22.4982857,39.7177143 C19.90385,39.6310783 17.3999408,40.6767722 15.6377143,42.5828571 C13.8339544,44.5987605 12.8905163,47.2403872 13.0091429,49.9428571 C12.8765587,52.6632263 13.8209211,55.326328 15.6377143,57.3554286 C17.410718,59.2431175 19.909844,60.2772386 22.4982857,60.1942857 C25.0866941,60.2062217 27.5631032,59.1394608 29.3325714,57.2502857 L29.3325714,57.2502857 Z" id="Shape" fill="#FFFFFF"></path>
                <path d="M92.6285714,34.8548571 C96.3834646,38.9595284 98.3588824,44.3848385 98.1222857,49.9428571 C98.3622233,55.4856397 96.3854106,60.8958639 92.6285714,64.9782857 C89.1069693,68.8710643 84.077224,71.0554109 78.8285714,70.9714286 C74.3329841,71.1467205 69.9407666,69.5948664 66.5531429,66.6342857 L66.5531429,83.168 L53.9622857,83.168 L53.9622857,30.1234286 L66.5531429,30.1234286 L66.5531429,33.2777143 C69.9367865,30.3076328 74.3294402,28.7462184 78.8285714,28.9142857 C84.0703524,28.810009 89.1015182,30.9758061 92.6285714,34.8548571 Z M83.0868571,57.3028571 C84.9036504,55.2737566 85.8480127,52.6106548 85.7154286,49.8902857 C85.8340551,47.1878157 84.890617,44.5461891 83.0868571,42.5302857 C81.3246306,40.6242007 78.8207214,39.5785068 76.2262857,39.6651429 C73.6490364,39.6441266 71.1804804,40.7020792 69.4182857,42.5828571 C67.4873147,44.5349213 66.4502168,47.1990259 66.5531429,49.9428571 C66.4470385,52.6872228 67.4846116,55.3525481 69.4182857,57.3028571 C71.1906206,59.1659444 73.6549182,60.2125573 76.2262857,60.1942857 C78.8228849,60.2637479 81.3232845,59.2099396 83.0868571,57.3028571 Z" id="Shape" fill="#FFFFFF"></path>
                <path d="M143.202286,34.8548571 C147.014485,38.9344522 149.047708,44.3626848 148.853714,49.9428571 C149.047708,55.5230295 147.014485,60.9512621 143.202286,65.0308571 C139.711803,68.8682954 134.747095,71.0301913 129.56,70.9714286 C125.056266,71.1481323 120.655341,69.5965243 117.258286,66.6342857 L117.258286,83.168 L104.667429,83.168 L104.667429,30.1234286 L117.258286,30.1234286 L117.258286,33.2777143 C120.651368,30.3059771 125.052727,28.7448112 129.56,28.9142857 C134.748465,28.8487422 139.715833,31.0117968 143.202286,34.8548571 Z M133.792,57.3028571 C135.608793,55.2737566 136.553156,52.6106548 136.420571,49.8902857 C136.539198,47.1878157 135.59576,44.5461891 133.792,42.5302857 C132.039954,40.6254029 129.544383,39.5791824 126.957714,39.6651429 C124.380465,39.6441266 121.911909,40.7020792 120.149714,42.5828571 C118.211813,44.5322397 117.165458,47.1956882 117.258286,49.9428571 C117.159106,52.6911145 118.206419,55.3570006 120.149714,57.3028571 C121.922049,59.1659444 124.386347,60.2125573 126.957714,60.1942857 C129.54654,60.2630226 132.038573,59.2087008 133.792,57.3028571 Z" id="Shape" fill="#FFFFFF"></path>
                <rect id="Rectangle" fill="#FFEB00" x="168.594286" y="0" width="103.434286" height="103.434286" rx="6.56"></rect>
                <path d="M220.324571,85.3497143 C215.486553,85.2485992 211.636642,81.2625021 211.703703,76.4238916 C211.770764,71.5852812 215.729665,67.7074102 220.568627,67.7404131 C225.40759,67.773416 229.313229,71.704925 229.314286,76.544 C229.300521,78.9071855 228.343048,81.1669008 226.654807,82.820587 C224.966566,84.4742732 222.687536,85.3848171 220.324571,85.3497143 L220.324571,85.3497143 Z" id="Path" fill="#E32213"></path>
                <path d="M227.290286,64.7154286 C227.290286,64.7154286 227.290286,65.2937143 226.764571,65.2937143 L213.884571,65.2937143 C213.385143,65.2937143 213.332571,64.7154286 213.332571,64.7154286 L210.704,18.5314286 C210.704,18.5314286 210.704,18.0845714 211.229714,18.0845714 L229.419429,18.0845714 C229.892571,18.0845714 229.892571,18.6102857 229.892571,18.6102857 L227.290286,64.7154286 Z" id="Path" fill="#1D1D1B"></path>
            </g>
        </g>
    </g>
</svg>