<?xml version="1.0" encoding="UTF-8"?>
<svg width="213px" height="49px" viewBox="0 0 213 49" version="1.1" xmlns="http://www.w3.org/2000/svg" xmlns:xlink="http://www.w3.org/1999/xlink">
    <!-- Generator: Sketch 64 (93537) - https://sketch.com -->
    <title>exito-express-logo</title>
    <desc>Created with Sketch.</desc>
    <g id="Welcome" stroke="none" stroke-width="1" fill="none" fill-rule="evenodd">
        <g id="HOME---Dónde-Comprar---Nuestros-Formatos---Desktop-HD" transform="translate(-135.000000, -1974.000000)" fill-rule="nonzero">
            <g id="exito-express-logo" transform="translate(135.000000, 1974.000000)">
                <path d="M67.9592967,43.7404311 C68.0156447,41.5453561 66.7394563,39.5348172 64.7315663,38.6553847 C62.7236763,37.7759521 60.3842549,38.2028957 58.8147117,39.7352087 C57.2451686,41.2675216 56.7583117,43.5998158 57.5833554,45.634037 C58.4083991,47.6682582 60.3809132,48.9989887 62.5722296,48.9997147 C65.5058729,49.0297776 67.9128819,46.6798639 67.9592967,43.7404311" id="Path" fill="#E2241C"></path>
                <path d="M10.1722721,16.2589494 C10.6402695,15.6948211 11.2261192,15.2414241 11.888118,14.9310329 C12.7445551,14.5378011 13.6802347,14.3505957 14.621049,14.3842438 C15.3702193,14.3703665 16.1161529,14.4866372 16.8260275,14.7279398 C17.383017,14.9043173 17.885627,15.2217057 18.2856611,15.64967 C19.069555,16.5733358 19.6042685,17.6842413 19.8384628,18.8757259 L9.0387268,18.8757259 C9.09877222,18.5514037 9.17653011,18.2306555 9.27164706,17.9149393 C9.46209902,17.3093298 9.76800641,16.7468543 10.1722721,16.2589494 M28.4099284,18.047731 C27.9178289,16.1086899 27.052647,14.2855243 25.8633336,12.6813862 C24.6529271,11.085754 23.0934495,9.79208783 21.3058605,8.90072984 C19.2953453,7.90964739 17.0765963,7.4219276 14.8384413,7.47907809 C12.7679884,7.44952081 10.7130908,7.84280648 8.79804253,8.63514655 C7.05678798,9.38068713 5.47502543,10.4575289 4.13963734,11.8065235 C2.81957139,13.1702998 1.78700226,14.7883631 1.10390995,16.563589 C0.373910019,18.448446 0,20.4538311 0.00142072586,22.476723 C-0.0254870969,24.5273269 0.330036682,26.5648243 1.04956189,28.4835922 C1.69777222,30.2494039 2.70228935,31.8610965 3.99988518,33.2172239 C5.30939074,34.5746055 6.8998217,35.6253463 8.65829038,36.2948656 C10.6246276,37.0308897 12.709562,37.3937368 14.8073852,37.36501 C17.7849029,37.4595374 20.7278401,36.7010389 23.2934467,35.1778535 C24.5111812,34.3952457 25.5659719,33.3817883 26.3990501,32.1939471 C27.3157534,30.857212 28.030069,29.3909265 28.5186245,27.8430678 L28.7127247,27.2572223 C28.7127247,27.2572223 28.8214208,26.991639 28.5108605,26.991639 L20.9642441,26.991639 C20.5760437,26.991639 20.5372236,27.2181659 20.5372236,27.2181659 L20.4673475,27.4681267 C20.3422002,27.8294065 20.1498539,28.1634226 19.9005749,28.4523471 C19.5380184,28.8399279 19.1315104,29.1833684 18.6893896,29.4756239 C17.6164667,30.1680507 16.3610792,30.5191948 15.0868895,30.4832782 C14.201085,30.4981766 13.3183699,30.3743185 12.4704186,30.1161483 C11.7763245,29.907032 11.1389563,29.5409861 10.6070565,29.0460039 C10.0796148,28.5159156 9.67874177,27.8722166 9.43469124,27.163487 C9.19097484,26.4299566 9.03714561,25.6692438 8.97661473,24.8982177 L28.6117926,24.8982177 C28.8030202,24.8940788 28.9570592,24.7391021 28.961173,24.5467104 L28.961173,24.2967497 C28.961173,23.8124507 29.0077697,23.335963 29.0077697,22.8672866 C29.0096269,21.2409494 28.8034819,19.6211301 28.3944004,18.047731" id="Shape" fill="#1E120C"></path>
                <path d="M56.3044995,36.2336779 L45.9862904,21.5833833 L55.3084159,8.47522499 C55.3084159,8.47522499 55.4224713,8.31330068 55.0955125,8.31330068 L45.674539,8.31330068 C45.355184,8.31330068 45.3019582,8.47522499 45.3019582,8.47522499 L41.0590984,14.7440089 L36.7782202,8.50606771 C36.6769148,8.37295411 36.518064,8.29816419 36.3524135,8.30559 L26.6577071,8.30559 C26.3763705,8.30559 26.5208407,8.49835703 26.5208407,8.49835703 L27.1747581,9.41592812 L35.8125514,21.7530183 L25.7452641,36.2645206 C25.7452641,36.2645206 25.5551719,36.5423729 25.897338,36.5423729 L35.3487262,36.5423729 C35.571413,36.5490055 35.777143,36.4220165 35.8733809,36.2182566 L40.9526467,28.6540781 L46.0395162,36.2105459 C46.1530146,36.4024583 46.3516582,36.5261992 46.5717746,36.5423729 L56.1600293,36.5423729 C56.5021954,36.5423729 56.2968958,36.2336779 56.2968958,36.2336779" id="Path" fill="#1E120C"></path>
                <path d="M68.5358797,8.30508475 L57.5136665,8.30508475 C57.1288126,8.30508475 57.1903893,8.56725509 57.1903893,8.56725509 L58.7836841,36.1953827 C58.7836841,36.1953827 58.7836841,36.5423729 59.1069613,36.5423729 L66.9117966,36.5423729 C67.0029675,36.5423729 67.0902972,36.5055945 67.1540364,36.4402897 C67.2177756,36.3749849 67.2525401,36.2866936 67.250468,36.1953827 L68.7898833,8.61352044 C68.7898833,8.61352044 68.7898833,8.30508475 68.5050914,8.30508475" id="Path" fill="#1E120C"></path>
                <path d="M89.2096689,14.4030089 C89.2952022,14.3970859 89.3748605,14.3571268 89.4310115,14.2919767 C89.4871626,14.2268266 89.5151751,14.1418588 89.5088485,14.055881 L89.5088485,8.33212822 C89.5088485,8.33212822 89.5088485,8.05442593 89.1943263,8.05442593 L83.9932032,8.05442593 L83.9932032,0.325045469 C83.9952706,0.239836462 83.9630484,0.157395369 83.9038385,0.096403857 C83.8446286,0.0354123451 83.7634438,0.00103410537 83.678681,0.00105946152 L75.3246646,0.00105946152 C75.2378144,-0.0063812804 75.1522099,0.0256493557 75.0913221,0.0883693049 C75.0304342,0.151089254 75.0006525,0.23791667 75.0101424,0.325045469 L75.0101424,8.03899803 L70.7832709,8.03899803 C70.392036,8.03899803 70.4534062,8.30127241 70.4534062,8.30127241 L70.4534062,14.0713089 C70.4355965,14.1538398 70.4583976,14.239945 70.5146641,14.3026413 C70.5709306,14.3653375 70.6537777,14.3969533 70.7372433,14.387581 L75.0101424,14.387581 L75.0101424,29.506928 C74.9490094,30.7569339 75.2134358,32.0013348 75.7772697,33.1170578 C76.2665168,34.0480778 77.0158006,34.8149369 77.9328974,35.3232482 C78.8649138,35.8340018 79.8810761,36.1711226 80.9323652,36.3183481 C82.0688051,36.4731683 83.2146173,36.5479187 84.3614243,36.5423729 C85.1285516,36.5423729 85.8956789,36.5423729 86.6628062,36.5423729 C87.4025214,36.5139072 88.1401048,36.444374 88.8721329,36.333776 L89.2019976,36.2720644 C89.2019976,36.2720644 89.4858347,36.2720644 89.4858347,35.9249365 L89.4858347,29.3140792 C89.4950152,29.2371805 89.462547,29.1612253 89.4007395,29.1150102 C89.338932,29.0687951 89.2572477,29.0593953 89.1866551,29.0903746 L88.595967,29.2060838 C88.2611516,29.2705948 87.9231271,29.3169455 87.583359,29.344935 C87.1958399,29.382759 86.8066615,29.4007814 86.4173255,29.3989327 C85.9405323,29.4075627 85.464336,29.3609723 84.99814,29.2600815 C84.7775056,29.2203091 84.5696377,29.1277034 84.3921094,28.9900932 C84.2438635,28.8168778 84.1456915,28.6061012 84.1082723,28.3806909 C84.0006688,27.931388 83.954217,27.4694763 83.9701894,27.0076074 L83.9701894,14.4030089 L89.2096689,14.4030089 Z" id="Path" fill="#1E120C"></path>
                <path d="M108.083606,29.7278511 C107.201643,30.1714528 106.225339,30.3875578 105.241267,30.3570029 C104.264289,30.3905527 103.294704,30.1741853 102.421911,29.7278511 C101.693981,29.3100829 101.080411,28.7147204 100.63683,27.9957416 C100.158144,27.2253209 99.8231478,26.3722914 99.6485233,25.4791341 C99.4344024,24.4816426 99.3316059,23.462902 99.3420717,22.442117 C99.3319935,21.42135 99.4347856,20.4026533 99.6485233,19.4050999 C99.8110503,18.5035306 100.146856,17.6431617 100.63683,16.8729578 C101.104248,16.1603301 101.728418,15.5674057 102.460218,15.1408483 C104.244772,14.2600343 106.329696,14.2600343 108.114251,15.1408483 C108.850609,15.5543099 109.476467,16.1435059 109.937639,16.8574232 C110.413175,17.6367006 110.735751,18.5017742 110.887639,19.4050999 C111.285926,21.4096447 111.285926,23.4745893 110.887639,25.4791341 C110.711202,26.3742326 110.370776,27.227852 109.884009,27.9957416 C109.442786,28.7221255 108.822197,29.3191733 108.083606,29.7278511 M119.108205,16.3370136 C118.450079,14.5494225 117.417646,12.9276701 116.081995,11.5834217 C114.723793,10.2534314 113.112897,9.21749402 111.347316,8.53863728 C107.399512,7.11988927 103.090682,7.11988927 99.1428781,8.53863728 C97.3897855,9.21983053 95.7918667,10.2558042 94.4465061,11.5834217 C93.1000469,12.9263689 92.0548206,14.5476943 91.3819892,16.3370136 C90.6673623,18.2924784 90.3141565,20.3646801 90.3400535,22.4498843 C90.3121576,24.5377781 90.6654112,26.6128944 91.3819892,28.5705223 C92.7351474,32.1598029 95.5584486,34.9768278 99.1198942,36.2912256 C101.077239,37.0306787 103.152603,37.3967205 105.241267,37.3708812 C107.330241,37.403018 109.407407,37.0476457 111.3703,36.3222948 C113.139869,35.666182 114.753162,34.6392897 116.104979,33.3085796 C117.431417,31.9748077 118.462964,30.3703337 119.131189,28.6015915 C119.851566,26.6450032 120.204944,24.569159 120.173125,22.4809535 C120.202913,20.3954379 119.849584,18.3225172 119.131189,16.3680828" id="Shape" fill="#1E120C"></path>
                <path d="M16.0371595,0.222500584 L11.7031172,5.51231455 C11.7031172,5.51231455 11.436648,5.81144093 11.7736531,5.81144093 L16.8600789,5.81144093 C17.0913265,5.82756449 17.3195362,5.75116053 17.4949024,5.59890376 L24.7601053,0.222500584 C24.7601053,0.222500584 25.0265745,0.00209166923 24.7052441,0.00209166923 L16.5544231,0.00209166923 C16.3563877,-0.0144595804 16.1629331,0.0679724821 16.0371595,0.222500584" id="Path" fill="#1E120C"></path>
                <path d="M127.634241,10.7894697 C127.634063,11.9975599 126.906153,13.1062128 125.743455,13.6692594 C125.179499,13.9643251 124.541625,14.1191734 123.892728,14.1185909 C123.243445,14.1219406 122.604806,13.9669066 122.042001,13.6692594 C121.190318,13.2464272 120.562846,12.5227979 120.304327,11.6652954 C120.045807,10.8077929 120.178567,9.89047191 120.671982,9.12493651 C121.004486,8.61426541 121.476876,8.19269856 122.042001,7.9023148 C122.606851,7.61171615 123.245547,7.46429384 123.892728,7.47513372 C124.53956,7.46707228 125.177484,7.61431673 125.743455,7.9023148 C126.31207,8.18836958 126.785573,8.61092949 127.113474,9.12493651 C127.436518,9.62917746 127.605374,10.2042836 127.602194,10.7894697 M126.905167,10.7894697 C126.916322,10.0685965 126.592882,9.37749273 126.015856,8.8892504 C125.455426,8.3694908 124.688712,8.08223792 123.892728,8.09380977 C123.095015,8.08530302 122.327066,8.37193719 121.761588,8.8892504 C121.203616,9.38841122 120.888859,10.0737406 120.888859,10.7894697 C120.888859,11.5051988 121.203616,12.1905281 121.761588,12.689689 C122.331502,13.1982142 123.098635,13.4765903 123.892728,13.463034 C124.684875,13.4787542 125.450398,13.1999141 126.015856,12.689689 C126.603049,12.2056187 126.938138,11.5145276 126.937216,10.7894697 M122.242296,9.00709346 L124.020917,9.00709346 C124.409055,8.97549161 124.796419,9.07499049 125.110522,9.28697071 C125.339789,9.47249813 125.466266,9.74289274 125.45503,10.0234898 C125.456722,10.2503702 125.358463,10.4682228 125.182629,10.6274355 C124.966381,10.8298184 124.685865,10.9639143 124.381448,11.0104254 C124.499238,11.048831 124.609996,11.1034658 124.709932,11.1724596 C124.83358,11.2801181 124.938911,11.4042597 125.022393,11.5407192 C125.022393,11.5407192 125.230699,11.9016135 125.679361,12.5718459 L124.501625,12.5718459 C124.287691,12.1459118 124.035796,11.7369767 123.748515,11.3492242 C123.648835,11.2380076 123.504212,11.1688731 123.347925,11.1577292 L123.275819,11.1577292 L123.227748,12.5644807 L122.242296,12.5644807 L122.242296,9.00709346 Z M123.227748,10.5243228 L123.652374,10.5243228 C123.863125,10.5426838 124.074529,10.4960416 124.253259,10.3917494 C124.372338,10.3217176 124.440022,10.1972743 124.429519,10.067681 C124.434557,9.94511373 124.367141,9.82961441 124.253259,9.76570813 C124.086168,9.66156764 123.885759,9.61226543 123.684421,9.6257695 L123.227748,9.6257695 L123.227748,10.5243228 Z" id="Shape" fill="#1E120C"></path>
                <path d="M125.581482,32.0123786 C125.753001,32.694715 126.051323,33.3382323 126.460701,33.9089634 C126.86934,34.4748048 127.389801,34.9495823 127.989433,35.3035111 C128.665651,35.6852976 129.432167,35.8753327 130.207283,35.8533613 C131.32878,35.9110705 132.430177,35.5379176 133.288511,34.8094428 C134.079022,34.0609617 134.630449,33.092895 134.872689,32.0283162 L136.686574,32.0283162 C136.406982,33.5320682 135.664339,34.9092556 134.563774,35.9649251 C133.334851,36.9650282 131.776666,37.4629104 130.199362,37.3594728 C129.151868,37.3857205 128.112042,37.1732272 127.15774,36.737903 C126.33957,36.3569189 125.624925,35.7828351 125.074545,35.0644458 C124.521765,34.308344 124.115963,33.453974 123.87849,32.5462911 C123.617938,31.5556311 123.487454,30.5349104 123.490319,29.5101616 C123.492567,28.5303232 123.623064,27.5550463 123.87849,26.6095024 C124.122362,25.699281 124.527543,24.8408207 125.074545,24.07541 C125.625302,23.3239606 126.340879,22.7104019 127.16566,22.2824201 C128.108346,21.8065371 129.152892,21.5711861 130.207283,21.5970996 C131.279247,21.5586869 132.342247,21.8061142 133.288511,22.3142955 C134.10951,22.7805741 134.813879,23.4292457 135.347943,24.2108804 C135.876404,25.0252036 136.252239,25.9299677 136.456868,26.8804431 C136.686441,27.8913138 136.78232,28.9282584 136.74202,29.9643857 L125.312172,29.9643857 C125.315082,30.6557891 125.405581,31.3439995 125.581482,32.0123786 Z M134.571695,26.4341878 C134.365904,25.8059764 134.049291,25.2202065 133.63703,24.7049487 C133.230488,24.2165297 132.732626,23.8131214 132.171665,23.5175909 C131.561302,23.2142512 130.887985,23.0612914 130.207283,23.0713357 C129.518796,23.0596277 128.837388,23.2125755 128.219139,23.5175909 C127.655479,23.8089607 127.156851,24.2129898 126.753774,24.7049487 C126.335888,25.2157305 126.008954,25.7953725 125.787425,26.4182501 C125.543756,27.0560086 125.383985,27.7230721 125.312172,28.4024923 L134.936056,28.4024923 C134.913683,27.7290921 134.790858,27.0628967 134.571695,26.426219 L134.571695,26.4341878 Z" id="Shape" fill="#DF282B"></path>
                <polygon id="Path" fill="#DF282B" points="137.162275 22.4237288 139.348272 22.4237288 143.423215 28.102336 147.406757 22.4237288 149.600371 22.4237288 144.443855 29.5916762 150.011673 37.3728814 147.802826 37.3728814 143.316581 31.0889808 138.906503 37.3728814 136.750973 37.3728814 142.288324 29.607605"></polygon>
                <path d="M152.415466,21.9992844 L152.415466,24.8213119 L152.469247,24.8213119 C152.861503,23.8222529 153.564097,22.9858085 154.466806,22.4431989 C155.422504,21.8701549 156.511583,21.5769009 157.616805,21.5950052 C158.604611,21.5710592 159.583916,21.7883542 160.474852,22.2291687 C161.264759,22.621407 161.958228,23.1932678 162.503144,23.9017749 C163.061472,24.6464582 163.471422,25.4977991 163.709362,26.4067206 C164.231769,28.381427 164.231769,30.4644944 163.709362,32.4392008 C163.47613,33.3668787 163.066073,34.237305 162.503144,34.9996358 C161.964829,35.7228817 161.270301,36.3064736 160.474852,36.7039502 C159.581438,37.1356508 158.603041,37.3473168 157.616805,37.3222596 C157.098441,37.3175576 156.58252,37.2483567 156.08022,37.1161564 C155.570744,36.9880821 155.08173,36.7851934 154.628148,36.5137011 C154.173374,36.2352404 153.765901,35.8817665 153.421929,35.4673314 C153.084768,35.0491344 152.824406,34.5709634 152.653637,34.0563176 L152.599856,34.0563176 L152.599856,42.3559322 L150.840467,42.3559322 L150.840467,21.9992844 L152.415466,21.9992844 Z M162.0729,27.1439357 C161.908086,26.4206519 161.624877,25.7316834 161.235461,25.1066855 C160.855621,24.5177118 160.354579,24.0224028 159.768023,23.6560365 C159.116379,23.2637807 158.370868,23.0687337 157.616805,23.0932164 C156.777114,23.0663461 155.943,23.2428135 155.181318,23.6084743 C154.567624,23.9354056 154.040257,24.4115141 153.644734,24.9957069 C153.245653,25.6077915 152.966392,26.2944673 152.822661,27.017103 C152.662867,27.7990294 152.58304,28.5960983 152.584471,29.395216 C152.586245,30.169738 152.676502,30.9413455 152.853393,31.6940587 C153.016028,32.4196159 153.3078,33.1077157 153.71388,33.7233818 C154.113854,34.3220701 154.638951,34.8205098 155.250465,35.1819578 C155.979237,35.5763285 156.794247,35.7701739 157.616805,35.7447779 C158.370463,35.765467 159.114983,35.5706794 159.768023,35.1819578 C160.354926,34.8126897 160.855911,34.31473 161.235461,33.7233818 C161.624879,33.1012474 161.908121,32.4148793 162.0729,31.6940587 C162.431372,30.1864931 162.431372,28.611866 162.0729,27.1043005 L162.0729,27.1439357 Z" id="Shape" fill="#DF282B"></path>
                <path d="M168.277322,21.8155541 L168.277322,25.2696054 L168.341695,25.2696054 C169.15705,22.9170943 171.509713,21.4085215 174.046693,21.611451 L174.046693,23.4091277 C173.269857,23.365402 172.492085,23.4776168 171.761475,23.7388326 C171.104918,23.9870268 170.505798,24.3606767 169.999282,24.837849 C169.496379,25.3213307 169.101822,25.9013919 168.84058,26.5413243 C168.561297,27.2253263 168.421887,27.956029 168.430207,28.6922562 L168.430207,36.5423729 L166.587549,36.5423729 L166.587549,21.8155541 L168.277322,21.8155541 Z" id="Path" fill="#DF282B"></path>
                <path d="M176.130118,32.0095186 C176.308931,32.6890162 176.60665,33.3310492 177.009326,33.9055383 C177.421894,34.4676475 177.941558,34.9415617 178.53804,35.2996703 C179.206642,35.6795714 179.964321,35.8721467 180.7321,35.8573232 C181.884458,35.9382876 183.022309,35.5606315 183.900419,34.8057493 C184.693603,34.059624 185.245527,33.090963 185.484578,32.0254516 L187.29844,32.0254516 C187.021542,33.5279605 186.281661,34.9047711 185.183588,35.9608873 C183.929836,36.9776882 182.338166,37.4761727 180.7321,37.3550194 C179.682079,37.3810877 178.639728,37.1686923 177.682594,36.7336348 C176.876583,36.347418 176.173419,35.7739978 175.631108,35.0606763 C175.078335,34.3047998 174.672537,33.4506844 174.435068,32.543272 C174.170651,31.5536726 174.040102,30.5327347 174.046949,29.5080473 C174.04526,28.5282384 174.175825,27.5527336 174.435068,26.6082526 C174.678936,25.6983025 175.084112,24.840098 175.631108,24.0749155 C176.180641,23.3255993 176.89317,22.7125059 177.714277,22.2824599 C178.659769,21.8066791 179.706868,21.5714328 180.763784,21.5973436 C182.803425,21.5208576 184.736835,22.5127331 185.872697,24.2183119 C186.419864,25.0375586 186.806954,25.9540864 187.013292,26.9189449 C187.242862,27.9295144 187.33874,28.96615 187.29844,30.0019684 L175.860811,30.0019684 C175.870845,30.6795449 175.961254,31.3534951 176.130118,32.0095186 L176.130118,32.0095186 Z M185.128142,26.4329903 C184.919112,25.8063814 184.602801,25.2213381 184.193488,24.7042665 C183.786255,24.2134989 183.285285,23.8098701 182.72022,23.5172626 C182.099697,23.222835 181.417664,23.0834554 180.7321,23.1109727 C180.040986,23.0983068 179.356795,23.251226 178.73606,23.557095 C178.189912,23.8441943 177.703307,24.2335599 177.302396,24.7042665 C176.887325,25.2168343 176.56068,25.7957976 176.336059,26.4170574 C176.096043,27.0557627 175.936388,27.7221506 175.860811,28.4007081 L185.484578,28.4007081 C185.468605,27.7275149 185.348348,27.0609448 185.128142,26.4250238 L185.128142,26.4329903 Z" id="Shape" fill="#DF282B"></path>
                <path d="M197.12765,24.919791 C196.927292,24.5296933 196.646468,24.1907773 196.305399,23.927449 C195.954642,23.6527029 195.556642,23.4505897 195.132931,23.3320437 C194.673353,23.2041546 194.200093,23.137468 193.724446,23.1335753 C193.32792,23.1330179 192.932419,23.1755882 192.544364,23.2605951 C192.160879,23.3426484 191.793023,23.4901769 191.455643,23.6972256 C191.129607,23.8907273 190.852854,24.1629714 190.648619,24.4910993 C190.437687,24.8572267 190.331988,25.2787995 190.344082,25.7057259 C190.33247,26.0718357 190.43682,26.4317422 190.641006,26.729823 C190.845506,27.0174103 191.104684,27.257935 191.402349,27.4363705 C191.707061,27.6313738 192.031285,27.7910954 192.369255,27.9126947 C192.719473,28.0397145 193.039237,28.1349793 193.343774,28.2143667 L195.665871,28.7621395 C196.173768,28.8465377 196.671498,28.9875984 197.15049,29.1828925 C197.62044,29.3773858 198.059394,29.6450521 198.452387,29.9767662 C198.835701,30.3138974 199.151358,30.726677 199.381226,31.1913929 C199.912102,32.4029245 199.849731,33.8071151 199.21373,34.9622927 C198.870304,35.5229124 198.409591,35.9951674 197.866153,36.3436329 C197.301106,36.71828 196.677555,36.9869551 196.023702,37.1375065 C195.360709,37.287319 194.684517,37.3644791 194.006143,37.3677299 C192.545051,37.4267609 191.106668,36.9770876 189.91773,36.0895933 C188.801184,35.0974831 188.151418,33.6497729 188.136187,32.120225 L189.879663,32.120225 C189.879574,33.2070539 190.352924,34.2350911 191.166333,34.9146603 C192.005114,35.543636 193.019117,35.8672512 194.051823,35.8355537 C194.494321,35.8335485 194.935531,35.7856808 195.368947,35.6926565 C195.809123,35.5956881 196.232668,35.4297376 196.625163,35.2004548 C197.000747,34.9833746 197.325713,34.6824747 197.576842,34.3192551 C197.83768,33.9347741 197.971311,33.4721615 197.957514,33.0014248 C197.969405,32.6123351 197.877134,32.2274813 197.691044,31.8900017 C197.511193,31.5894387 197.269301,31.3344996 196.982995,31.1437605 C196.670058,30.9305813 196.332348,30.7598468 195.978022,30.6356813 C195.59735,30.5007228 195.216678,30.3816417 194.828393,30.2863769 L192.582431,29.770359 C192.046088,29.6274735 191.519572,29.4471215 191.006451,29.230525 C190.552126,29.0482601 190.126221,28.7967801 189.742621,28.4842837 C189.38634,28.1859293 189.097751,27.8091022 188.89753,27.3807994 C188.43455,26.236513 188.50193,24.9337882 189.080252,23.8480616 C189.392212,23.3148262 189.823197,22.8681502 190.336469,22.5461088 C190.873639,22.2143641 191.456531,21.9707093 192.064718,21.8236838 C192.688959,21.6732145 193.327377,21.5959937 193.968076,21.5934604 C194.647733,21.5877479 195.324646,21.6839982 195.978022,21.879255 C196.572427,22.0635914 197.126098,22.3684421 197.607296,22.7763322 C198.081679,23.1845205 198.463825,23.6968439 198.72647,24.2767534 C199.023516,24.9385579 199.184313,25.6579071 199.198503,26.3884573 L197.455027,26.3884573 C197.450482,25.8797955 197.338717,25.3783992 197.12765,24.919791 Z" id="Path" fill="#DF282B"></path>
                <path d="M210.411807,24.941445 C210.211605,24.551599 209.930999,24.2129018 209.590194,23.9497434 C209.239709,23.6751746 208.842018,23.4731919 208.418635,23.3547224 C207.956952,23.2262504 207.481462,23.1596011 207.003635,23.1563821 C206.607417,23.155825 206.212223,23.1983678 205.824468,23.2833199 C205.440881,23.3638896 205.073088,23.5114119 204.736592,23.7196686 C204.410809,23.9130454 204.13427,24.1851138 203.930194,24.5130299 C203.715722,24.8772847 203.609811,25.2997586 203.625893,25.7268727 C203.615373,26.0914069 203.716645,26.4499347 203.914979,26.7503088 C204.121924,27.0352149 204.380373,27.2750938 204.675732,27.4564004 C204.978458,27.6452707 205.299832,27.7995457 205.63428,27.9165499 C205.984226,28.0434878 206.303743,28.1386911 206.608044,28.2180272 L208.92834,28.7654466 C209.435843,28.8497903 209.933187,28.9907599 210.411807,29.185928 C210.881393,29.3802958 211.320007,29.6477894 211.712695,29.9792894 C212.095499,30.314405 212.408723,30.727441 212.633206,31.1931322 C212.887065,31.7219313 213.01246,32.3076738 212.998367,32.898859 C213.019394,33.6250345 212.83698,34.3418538 212.473447,34.9615984 C212.128267,35.5201448 211.668326,35.9916707 211.126915,36.3420471 C210.562307,36.7164524 209.93924,36.9849541 209.285893,37.1354084 C208.623415,37.2851242 207.947747,37.3622345 207.269899,37.3654832 C205.814313,37.4360092 204.377448,37.0007041 203.184656,36.1278395 C202.069385,35.1352663 201.417988,33.6899095 201.396887,32.161033 L203.146619,32.161033 C203.14653,33.2471604 203.619512,34.2745341 204.432291,34.9536648 C205.279541,35.578823 206.301342,35.8940393 207.338366,35.8501631 C207.780521,35.8481592 208.221389,35.8003223 208.654469,35.707358 C209.094303,35.6104523 209.51752,35.4446089 209.909711,35.215474 C210.285003,34.9985339 210.609717,34.6978282 210.860652,34.334843 C211.119097,33.949888 211.249982,33.4874744 211.23342,33.0178632 C211.247315,32.6202425 211.152318,32.2267202 210.959549,31.8833565 C210.779838,31.5829875 210.538134,31.3282129 210.252049,31.1375969 C209.939356,30.9245553 209.601907,30.753931 209.247856,30.6298456 C208.867479,30.4949742 208.487103,30.37597 208.099119,30.2807667 L205.854898,29.7650818 C205.316833,29.6210499 204.788273,29.4408445 204.272533,29.2255961 C203.821742,29.0416131 203.398926,28.7904112 203.017291,28.4798365 C202.661286,28.1816746 202.372921,27.8050907 202.172855,27.3770643 C201.710234,26.2335164 201.777562,24.9316323 202.355436,23.8466064 C202.667153,23.3137151 203.097804,22.8673275 203.610678,22.5454939 C204.147431,22.2139632 204.729872,21.9704657 205.337587,21.8235351 C205.961344,21.6731629 206.599267,21.5959919 207.239468,21.5934603 C207.918599,21.5877515 208.594987,21.6839396 209.247856,21.8790704 C209.8418,22.0632878 210.395042,22.3679418 210.875867,22.7755686 C211.349882,23.1834936 211.731731,23.6954863 211.994173,24.2750215 C212.290988,24.9363989 212.451661,25.6552839 212.46584,26.3853626 L210.723716,26.3853626 C210.720622,25.8862538 210.614229,25.3937257 210.411807,24.941445 Z" id="Path" fill="#DF282B"></path>
            </g>
        </g>
    </g>
</svg>