<?xml version="1.0" encoding="UTF-8"?>
<svg width="196px" height="50px" viewBox="0 0 196 50" version="1.1" xmlns="http://www.w3.org/2000/svg" xmlns:xlink="http://www.w3.org/1999/xlink">
    <!-- Generator: Sketch 64 (93537) - https://sketch.com -->
    <title>exito-vecino-logo</title>
    <desc>Created with Sketch.</desc>
    <g id="Welcome" stroke="none" stroke-width="1" fill="none" fill-rule="evenodd">
        <g id="HOME---Dónde-Comprar---Nuestros-Formatos---Desktop-HD" transform="translate(-143.000000, -1671.000000)" fill-rule="nonzero">
            <g id="exito-vecino-logo" transform="translate(143.000000, 1671.000000)">
                <path d="M68.0998984,44.6330929 C68.156363,42.3932205 66.8775342,40.3416502 64.8654901,39.4442701 C62.853446,38.5468899 60.5091846,38.9825467 58.9363941,40.5461313 C57.3636037,42.109716 56.8757395,44.4896079 57.7024902,46.5653439 C58.5292409,48.6410798 60.5058359,49.998968 62.7016859,49.9997089 C65.6413987,50.0303853 68.0533876,47.6325142 68.0998984,44.6330929" id="Path" fill="#E2241C"></path>
                <path d="M10.1958648,16.5747452 C10.6698811,16.0055276 11.259456,15.5489149 11.9235209,15.2367138 C12.7802367,14.8397201 13.7152825,14.6516033 14.6550851,14.6871652 C15.4074239,14.6717543 16.1570101,14.7848064 16.8730219,15.0216731 C17.4267601,15.2105923 17.9265525,15.5360899 18.3282997,15.9694453 C19.1245711,16.909327 19.673638,18.0413994 19.9236577,19.2587724 L9.0285297,19.2587724 C9.08419618,18.9323379 9.16221072,18.6103108 9.26199673,18.2950712 C9.44723532,17.6655167 9.75422806,17.0804888 10.1647359,16.5747452 M28.4607687,18.4225028 C27.9609954,16.4454124 27.0944043,14.5851188 25.9081958,12.9429458 C24.7021304,11.3058218 23.1339062,9.98474244 21.3322421,9.0881411 C19.313311,8.07954699 17.0879347,7.57981033 14.8418587,7.63064265 C12.766767,7.6116937 10.7086938,8.01507912 8.78728044,8.81734904 C7.03396093,9.56605925 5.44594093,10.6684913 4.11793988,12.0588893 C2.78561498,13.44349 1.74704692,15.0947631 1.06730404,16.909253 C0.344486398,18.8296495 -0.0172479917,20.8725337 0.00113794585,22.9303942 C-0.0226983167,25.0195513 0.328119307,27.0954627 1.0361751,29.0550735 C1.6915194,30.859245 2.70054508,32.5071552 4.00120636,33.8974727 C5.31341841,35.2800179 6.90785333,36.3488286 8.67054693,37.0275104 C10.6425793,37.7849055 12.7357521,38.1576951 14.8418587,38.1266076 C17.8290902,38.2293239 20.7820466,37.4496038 23.3478408,35.8806263 C24.5729074,35.0951402 25.6314473,34.0659787 26.4607345,32.8541268 C27.3968928,31.4952858 28.1214694,29.9960771 28.6086311,28.4099512 L28.7954048,27.8205802 C28.7954048,27.8205802 28.904356,27.5418237 28.5852844,27.5418237 L21.0131705,27.5418237 C20.631841,27.5418237 20.6007121,27.7727934 20.6007121,27.7727934 L20.5228897,28.0196921 C20.408659,28.3932115 20.2145955,28.7360141 19.9547866,29.0232156 C19.5967586,29.4295559 19.1856028,29.783336 18.7329758,30.0745259 C17.664101,30.7896786 16.4061931,31.1511416 15.1298014,31.1099074 C14.2337465,31.1242253 13.3410034,30.9952396 12.4838417,30.7276127 C11.7977754,30.5119209 11.1675763,30.1418192 10.6394522,29.6444444 C10.1044329,29.1058062 9.70633705,28.4413592 9.47989929,27.7090776 C9.22753358,26.9649609 9.065486,26.1919219 8.99740077,25.4073451 L28.6864535,25.4073451 C29.0133073,25.4073451 29.0133073,25.0489438 29.0133073,25.0489438 L29.0133073,24.7861163 C29.0133073,24.292319 29.0677898,23.8144506 29.0677898,23.3286178 C29.0691622,21.6730383 28.8625359,20.024148 28.4529865,18.4225028" id="Shape" fill="#1E120C"></path>
                <path d="M56.4474122,36.9730667 L46.0994998,22.0359723 L55.442317,8.67120362 C55.442317,8.67120362 55.5565324,8.49038616 55.229115,8.49038616 L45.7796968,8.49038616 C45.4751225,8.49038616 45.4065933,8.67120362 45.4065933,8.67120362 L41.1501672,15.0391228 L36.8861268,8.67906525 C36.7725452,8.54636393 36.608378,8.47166968 36.4368796,8.47457627 L26.7209589,8.47457627 C26.4392277,8.47457627 26.5839005,8.67906525 26.5839005,8.67906525 L27.2387353,9.63032232 L35.9038746,22.2089281 L25.7996216,37.0123748 C25.7996216,37.0123748 25.6092627,37.2875318 25.9442944,37.2875318 L35.4165557,37.2875318 C35.6401209,37.2978255 35.849863,37.1758236 35.9571751,36.9730667 L41.0283375,29.2529474 L46.1071142,36.9730667 C46.2393294,37.1563103 46.4422214,37.2710942 46.6629623,37.2875318 L56.2570533,37.2875318 C56.6225425,37.2875318 56.4169548,36.9730667 56.4169548,36.9730667" id="Path" fill="#1E120C"></path>
                <path d="M68.6785235,8.47457627 L57.6088549,8.47457627 C57.2475532,8.47457627 57.3090514,8.73401623 57.3090514,8.73401623 L58.8849417,36.9422155 C58.8849417,36.9422155 58.8849417,37.2881356 59.2154943,37.2881356 L67.0026987,37.2881356 C67.0951339,37.2881356 67.1835812,37.2496377 67.2474746,37.1813233 C67.3113679,37.113009 67.3451402,37.0209283 67.3409385,36.9264918 L68.9322034,8.79691077 C68.9322034,8.79691077 68.9322034,8.47457627 68.6400871,8.47457627" id="Path" fill="#1E120C"></path>
                <path d="M89.4080146,14.7002299 C89.4926047,14.6944291 89.5710997,14.6531472 89.6249438,14.5861431 C89.678788,14.519139 89.7032021,14.4323599 89.6924148,14.3463199 L89.6924148,8.52646552 C89.699955,8.44366344 89.6705052,8.36181194 89.6122924,8.30377701 C89.5540796,8.24574208 89.4733447,8.21774541 89.3926416,8.22760813 L84.1811997,8.22760813 L84.1811997,0.339346073 C84.1856557,0.248333688 84.1522666,0.1596415 84.0892902,0.095205324 C84.0263139,0.030769148 83.939631,-0.00339397899 83.8506805,0.00116534646 L75.4800902,0.00116534646 C75.3915588,-0.00685230297 75.3042761,0.0268097413 75.2429439,0.092624801 C75.1816117,0.158439861 75.1529035,0.249246682 75.164944,0.339346073 L75.164944,8.20401413 L70.9296867,8.20401413 C70.5376755,8.20401413 70.5991675,8.4556835 70.5991675,8.4556835 L70.5991675,14.3541845 C70.5813225,14.4383279 70.6041688,14.5261154 70.6605469,14.5900366 C70.7169251,14.6539579 70.7999366,14.6861914 70.8835677,14.6766359 L75.164944,14.6766359 L75.164944,30.1071147 C75.1110609,31.3834452 75.3755817,32.6528057 75.9335933,33.795644 C76.4318131,34.7321532 77.1776774,35.5062091 78.0858112,36.0292097 C79.0205209,36.5687319 80.0493142,36.91605 81.1142892,37.0516165 C82.2497402,37.2168913 83.3956097,37.2957544 84.5424649,37.2875566 C85.3111141,37.2875566 86.0797634,37.2875566 86.8484126,37.2875566 C87.5895521,37.2581902 88.3285627,37.187302 89.0621224,37.0752105 L89.3772686,37.0201579 C89.3772686,37.0201579 89.6616689,37.0201579 89.6616689,36.6583831 L89.6616689,29.8869039 C89.6616689,29.5487232 89.3772686,29.6588286 89.3772686,29.6588286 L88.7930952,29.7689339 C88.4531526,29.8407067 88.1091486,29.890614 87.7631052,29.9183626 C87.4018401,29.9183626 86.994456,29.9734153 86.6178178,29.9734153 C86.1349486,29.9834294 85.6525804,29.9359219 85.1804437,29.8318513 C84.9568626,29.7872946 84.7463962,29.6903893 84.5655243,29.5487232 C84.4222808,29.3666225 84.3270151,29.1500137 84.2888106,28.9195498 C84.1839164,28.4636318 84.1374075,27.9956935 84.1504537,27.5275035 L84.1504537,14.7002299 L89.4080146,14.7002299 Z" id="Path" fill="#1E120C"></path>
                <path d="M108.356738,30.3149106 C107.480244,30.777406 106.503978,31.0009767 105.520453,30.964437 C104.541123,31.0091622 103.567802,30.7850543 102.699499,30.3149106 C101.971194,29.9004944 101.352586,29.3075155 100.898074,28.588121 C100.428038,27.7883958 100.091185,26.9128473 99.9015418,25.9979365 C99.4824006,23.9612332 99.4824006,21.8562182 99.9015418,19.8195149 C100.082853,18.899533 100.420228,18.0199461 100.898074,17.2214094 C101.365814,16.5024451 101.984114,15.9014447 102.707164,15.4629356 C103.568527,14.9798305 104.541483,14.7497175 105.520453,14.7975671 C106.507113,14.7561507 107.486493,14.9886403 108.356738,15.4708566 C109.089285,15.8985057 109.714246,16.4981627 110.181159,17.2214094 C110.666035,18.0154442 111.001528,18.8969054 111.170026,19.8195149 C111.568743,21.8583834 111.568743,23.9590681 111.170026,25.9979365 C110.994122,26.9170952 110.656341,27.7950541 110.173494,28.588121 C109.719132,29.3174236 109.09433,29.9167329 108.356738,30.3307527 M119.402919,16.6748567 C118.736635,14.8487918 117.689821,13.1965047 116.336665,11.8350931 C114.99383,10.467339 113.387607,9.40672367 111.622299,8.72211915 C109.660072,7.97310106 107.581467,7.6025944 105.48979,7.62901379 C103.397697,7.59712987 101.318129,7.96780802 99.3572816,8.72211915 C97.5970445,9.41251459 95.9944255,10.472474 94.6505812,11.8350931 C93.2989728,13.1978215 92.2523982,14.8497306 91.5843269,16.6748567 C90.8627206,18.6731325 90.5040989,20.7918312 90.5264691,22.9245678 C90.5034071,25.0496287 90.8620961,27.1606678 91.5843269,29.1505158 C92.9110056,32.8424925 95.7470578,35.7411561 99.3342847,37.0715691 C101.298336,37.8103167 103.376978,38.1700904 105.466793,38.1329903 C107.555489,38.1636684 109.632567,37.8068484 111.599302,37.0794902 C115.187296,35.7418658 118.028009,32.8470278 119.372257,29.1584368 C120.091874,27.1680764 120.447961,25.057053 120.422449,22.9324889 C120.44727,20.8002462 120.09125,18.681563 119.372257,16.6827778" id="Shape" fill="#1E120C"></path>
                <path d="M16.0746535,0.227961695 L11.7254722,5.6257216 C11.7254722,5.6257216 11.4507044,5.93095207 11.8196783,5.93095207 L16.9146578,5.93095207 C17.1396126,5.94294018 17.3608214,5.86845065 17.5348479,5.72211017 L24.8201191,0.227961695 C24.8201191,0.227961695 25.0713353,0.00305503193 24.757315,0.00305503193 L16.592787,0.00305503193 C16.395591,-0.0171883826 16.2014413,0.0640765614 16.0746535,0.219929314" id="Path" fill="#1E120C"></path>
                <path d="M127.89828,11.0330034 C127.88828,12.2551782 127.166838,13.3753882 126.015573,13.9563137 C124.857113,14.556935 123.448898,14.556935 122.290438,13.9563137 C121.727661,13.6634202 121.256267,13.23866 120.922678,12.7238641 C120.59308,12.2138198 120.420475,11.6287476 120.423848,11.0330034 C120.418528,10.4299202 120.591114,9.83711484 120.922678,9.31959783 C121.986002,7.69230105 124.240044,7.1468365 126.015573,8.08714823 C126.588946,8.36918683 127.065734,8.7962943 127.391378,9.31959783 C127.725377,9.83650372 127.900731,10.4292566 127.89828,11.0330034 M127.182191,11.0330034 C127.198014,10.2922675 126.872818,9.58079165 126.289125,9.07911986 C125.726633,8.55472 124.959636,8.26707291 124.165074,8.28253659 C123.365645,8.26644709 122.593409,8.55388119 122.024932,9.07911986 C121.458001,9.59045657 121.140917,10.296913 121.147956,11.0330034 C121.149926,11.7630151 121.465933,12.4616562 122.024932,12.971857 C122.600627,13.4858203 123.368748,13.7690258 124.165074,13.7609253 C124.956651,13.7691098 125.719795,13.4856075 126.289125,12.971857 C126.865214,12.4714608 127.189342,11.7677766 127.182191,11.0330034 M122.467442,9.19935885 L124.285759,9.19935885 C124.672847,9.16897251 125.058638,9.27040245 125.371921,9.48492644 C125.607125,9.67082416 125.735229,9.94908911 125.717884,10.2364201 C125.719541,10.4650144 125.627412,10.6855227 125.460423,10.8526449 C125.243695,11.0610644 124.962186,11.2004227 124.655858,11.2509365 C124.93713,11.3460207 125.169784,11.5365006 125.307556,11.784497 C125.307556,11.784497 125.532834,12.145214 125.943162,12.8365881 L124.792634,12.8365881 C124.561292,12.4033646 124.292196,11.9886453 123.98807,11.5966236 C123.890719,11.4789076 123.744563,11.4051896 123.585787,11.3937203 L123.473148,11.3937203 L123.473148,12.8140433 L122.483534,12.8140433 L122.467442,9.19935885 Z M123.481194,10.7699806 L123.907613,10.7699806 C124.12225,10.7955691 124.339534,10.7475017 124.519082,10.6347117 C124.62912,10.5665945 124.693161,10.4498092 124.688041,10.3265993 C124.695242,10.1946804 124.631954,10.0680085 124.519082,9.98842719 C124.349538,9.88689874 124.14823,9.84187774 123.947841,9.86067327 L123.481194,9.86067327 L123.481194,10.7699806 Z" id="Shape" fill="#1E120C"></path>
                <polygon id="Path" fill="#DF282B" points="126.468096 22.0338983 130.872383 35.4250847 130.924726 35.4250847 135.269192 22.0338983 137.033898 22.0338983 131.799601 37.2881356 129.975075 37.2881356 124.576271 22.0338983"></polygon>
                <path d="M139.160314,32.6912141 C139.331654,33.3862397 139.627599,34.0425466 140.033058,34.6266641 C140.442622,35.1973564 140.964238,35.6738231 141.564325,36.0253926 C142.241664,36.4150027 143.009452,36.6089321 143.785854,36.5865104 C144.917606,36.6542205 146.031348,36.2727323 146.895993,35.5211998 C147.690891,34.7598731 148.243811,33.7709364 148.482799,32.683082 L150.299692,32.683082 C150.025431,34.217958 149.283827,35.6243262 148.181306,36.7003604 C146.950177,37.7147569 145.394257,38.2221843 143.81759,38.1234854 C142.767397,38.1517378 141.724946,37.93192 140.770922,37.4810461 C139.948288,37.0824692 139.232264,36.4853009 138.684273,35.7407676 C138.110741,34.9815663 137.682693,34.1178913 137.422762,33.195407 C137.161748,32.1872211 137.031041,31.1482666 137.033946,30.1051928 C137.036249,29.1079535 137.166968,28.1153854 137.422762,27.153225 C137.665551,26.2237897 138.071526,25.3474725 138.6208,24.5672036 C139.171252,23.8023044 139.884971,23.1764609 140.70745,22.7374716 C141.656464,22.2492231 142.708509,22.008977 143.769985,22.0381073 C145.813035,21.9600307 147.749675,22.9725336 148.887434,24.7135822 C149.427822,25.5502173 149.812488,26.4821301 150.022,27.4622464 C150.250704,28.4941178 150.349361,29.5517902 150.31556,30.6093856 L138.882623,30.6093856 C138.88837,31.3126136 138.981688,32.0122123 139.160314,32.6912141 Z M148.14957,26.9987143 C147.943177,26.3676403 147.625881,25.7805938 147.213354,25.2665679 C146.806138,24.7681402 146.30745,24.3564652 145.745559,24.0548787 C145.136988,23.7453984 144.465138,23.5892726 143.785854,23.5994787 C143.096132,23.5865929 142.413381,23.7427235 141.794412,24.0548787 C141.231253,24.3544779 140.732209,24.7664466 140.326617,25.2665679 C139.910852,25.7897952 139.583662,26.3807989 139.358665,27.0149786 C139.121967,27.6681352 138.962157,28.3479088 138.882623,29.0398821 L148.530403,29.0398821 C148.505086,28.346294 148.376664,27.6607259 148.14957,27.0068464 L148.14957,26.9987143 Z" id="Shape" fill="#DF282B"></path>
                <path d="M159.636852,24.6040739 C158.897604,23.9154845 157.939838,23.5657954 156.966589,23.6291367 C156.216319,23.6110411 155.47456,23.804203 154.813878,24.1897256 C154.205888,24.5521641 153.680497,25.0573973 153.276226,25.6683804 C152.855628,26.2969916 152.540767,27.0010813 152.346135,27.7482464 C151.926293,29.2998858 151.926293,30.949426 152.346135,32.5010653 C152.540767,33.2482305 152.855628,33.9523202 153.276226,34.5809314 C153.685164,35.1839799 154.213,35.6807738 154.821378,36.0352127 C155.482061,36.4207354 156.22382,36.6138972 156.97409,36.5958016 C157.489023,36.5955875 157.998839,36.4851452 158.474238,36.2708226 C158.938947,36.0552508 159.36344,35.74964 159.726861,35.3690057 C160.096557,34.9698823 160.400922,34.5055895 160.626949,33.9959691 C160.866016,33.4489573 161.013325,32.8602377 161.061992,32.257331 L162.779661,32.257331 C162.636912,33.8918748 161.970905,35.4208773 160.896976,36.5795527 C159.827399,37.6332664 158.41887,38.1904382 156.97409,38.1313278 C155.991401,38.1537207 155.016834,37.9342651 154.12381,37.4894941 C153.320005,37.088905 152.607936,36.500732 152.038605,35.767105 C151.463539,35.0140281 151.028036,34.147832 150.755978,33.2160193 C150.177386,31.1861329 150.177386,29.014432 150.755978,26.9845456 C151.026456,26.0520054 151.462118,25.185494 152.038605,24.4334599 C152.611238,23.6973893 153.322086,23.1019163 154.12381,22.6866974 C155.016229,22.2391297 155.990822,22.0168901 156.97409,22.0367393 C158.347708,21.9932072 159.69497,22.4510257 160.799466,23.3366555 C161.901033,24.3079541 162.578072,25.7334005 162.66715,27.2689023 L160.949481,27.2689023 C160.772067,26.2568014 160.314199,25.3272614 159.636852,24.6040739 Z" id="Path" fill="#DF282B"></path>
                <path d="M166.101695,16.9491525 L166.101695,19.8256099 L164.440678,19.8256099 L164.440678,16.9491525 L166.101695,16.9491525 Z M166.101695,22.5923386 L166.101695,37.2881356 L164.440678,37.2881356 L164.440678,22.5923386 L166.101695,22.5923386 Z" id="Shape" fill="#DF282B"></path>
                <path d="M170.355528,22.4406001 L170.355528,24.9983356 L170.408931,24.9983356 C170.751017,24.0915283 171.373586,23.3283377 172.178868,22.8286157 C173.021581,22.2959947 173.992184,22.0214844 174.978724,22.0367472 C175.832064,22.0119833 176.682609,22.1488365 177.488677,22.4406001 C178.113461,22.6741253 178.672066,23.0661121 179.113662,23.5808909 C179.52577,24.0872907 179.818345,24.6865223 179.968114,25.3309204 C180.142923,26.1095488 180.227442,26.9070742 180.219872,27.706526 L180.219872,37.2881356 L178.472823,37.2881356 L178.472823,28.0232735 C178.477858,27.4274964 178.421593,26.8328642 178.304984,26.2494879 C178.209827,25.7375232 178.012309,25.2519559 177.725177,24.8241245 C177.431839,24.4125816 177.039987,24.0877437 176.588451,23.8818009 C176.032513,23.6336882 175.431027,23.5147695 174.826143,23.5333787 C174.183324,23.5199816 173.545436,23.6524029 172.957029,23.9213943 C172.427853,24.1705059 171.954856,24.5319785 171.568545,24.9824982 C171.182669,25.4497505 170.882708,25.9865592 170.683576,26.5662353 C170.46514,27.2184797 170.349224,27.9029533 170.34027,28.5934188 L170.34027,37.2881356 L168.59322,37.2881356 L168.59322,22.4406001 L170.355528,22.4406001 Z" id="Path" fill="#DF282B"></path>
                <path d="M191.372281,22.6842346 C192.174142,23.0976938 192.884491,23.6937226 193.454982,24.4317564 C194.033535,25.1820844 194.468986,26.0495945 194.736068,26.9839509 C195.313966,29.0147197 195.313966,31.1873644 194.736068,33.2181332 C194.467345,34.1517367 194.032062,35.018913 193.454982,35.7703277 C192.887724,36.5058524 192.176156,37.0945735 191.372281,37.4934654 C189.559013,38.3496358 187.499326,38.3496358 185.686058,37.4934654 C184.880519,37.0937242 184.166666,36.5052299 183.595865,35.7703277 C183.02149,35.0169235 182.58651,34.1503509 182.314779,33.2181332 C181.736881,31.1873644 181.736881,29.0147197 182.314779,26.9839509 C182.584932,26.0510053 183.020071,25.1841174 183.595865,24.4317564 C184.167811,23.6953659 184.877806,23.099634 185.678566,22.6842346 C187.489721,21.8171195 189.553635,21.8171195 191.36479,22.6842346 L191.372281,22.6842346 Z M186.382789,24.1635321 C185.77553,24.5261281 185.250769,25.031581 184.846984,25.6428296 C184.426891,26.271714 184.112408,26.9761097 183.91801,27.7235997 C183.498672,29.2759135 183.498672,30.9261706 183.91801,32.4784844 C184.112408,33.2259744 184.426891,33.9303701 184.846984,34.5592545 C185.253283,35.161645 185.777854,35.6585868 186.382789,36.014168 C187.733243,36.7624461 189.332588,36.7624461 190.683042,36.014168 C191.275437,35.6447554 191.786699,35.1399931 192.181388,34.5348705 C192.601481,33.9059861 192.915964,33.2015903 193.110363,32.4541004 C193.519858,30.900272 193.519858,29.2530441 193.110363,27.6992157 C192.915964,26.9517257 192.601481,26.24733 192.181388,25.6184456 C191.786699,25.0133229 191.275437,24.5085607 190.683042,24.1391481 C189.332588,23.39087 187.733243,23.39087 186.382789,24.1391481 L186.382789,24.1635321 Z" id="Shape" fill="#DF282B"></path>
            </g>
        </g>
    </g>
</svg>