<?xml version="1.0" encoding="UTF-8"?>
<svg width="191px" height="49px" viewBox="0 0 191 49" version="1.1" xmlns="http://www.w3.org/2000/svg" xmlns:xlink="http://www.w3.org/1999/xlink">
    <!-- Generator: Sketch 64 (93537) - https://sketch.com -->
    <title>exito-super-logo</title>
    <desc>Created with Sketch.</desc>
    <g id="Welcome" stroke="none" stroke-width="1" fill="none" fill-rule="evenodd">
        <g id="HOME---Dónde-Comprar---Nuestros-Formatos---Desktop-HD" transform="translate(-146.000000, -1372.000000)" fill-rule="nonzero">
            <g id="exito-super-logo" transform="translate(146.000000, 1372.000000)">
                <path d="M127.056514,10.8262885 C127.057761,11.405929 126.905403,11.974991 126.615766,12.4724658 C125.99645,13.4889478 124.914357,14.1098706 123.746946,14.1186433 C123.159977,14.1188676 122.582962,13.9629016 122.072132,13.6659443 C121.310765,13.2443644 120.751122,12.5204143 120.523923,11.6631898 C120.296723,10.8059653 120.421863,9.8905373 120.870113,9.13072586 C121.154374,8.62328379 121.570594,8.20717177 122.072132,7.92901642 C122.579389,7.62313503 123.15881,7.46651869 123.746946,7.47631766 C124.61497,7.44732604 125.457294,7.7813568 126.081144,8.40196325 C126.704993,9.0225697 127.056965,9.87662619 127.056514,10.7686723 M126.423443,10.7686723 C126.429881,10.0494479 126.138576,9.36126848 125.622097,8.87556837 C125.134504,8.34212972 124.451247,8.04349358 123.738933,8.05247972 C123.019638,8.04362309 122.329003,8.34167917 121.831728,8.87556837 C121.323395,9.36719525 121.03372,10.0515247 121.030382,10.7686723 C121.03434,11.488078 121.323735,12.1747188 121.831728,12.6700071 C122.342256,13.1777387 123.028408,13.4560927 123.738933,13.4437104 C124.442318,13.4559049 125.120936,13.1770926 125.622097,12.6700071 C126.137311,12.1799368 126.428131,11.4899153 126.423443,10.7686723 M122.224388,8.9825699 L123.827081,8.9825699 C124.179105,8.94907101 124.53062,9.05180946 124.812737,9.27065093 C125.018707,9.45006516 125.131331,9.71795355 125.117248,9.99496894 C125.118849,10.2260307 125.035911,10.4492846 124.884858,10.6205163 C124.687552,10.8176474 124.435569,10.9470577 124.163646,10.9909062 C124.26874,11.0273354 124.366496,11.083118 124.452131,11.1555239 C124.56561,11.2573893 124.66294,11.3767982 124.740616,11.5094521 C124.740616,11.5094521 124.932939,11.879842 125.309571,12.5547747 L124.275835,12.5547747 C124.083419,12.1250245 123.852717,11.7144752 123.586677,11.3283726 C123.490078,11.2168799 123.346184,11.1614558 123.202031,11.1802166 L123.105869,11.1802166 L123.105869,12.5794673 L122.208361,12.5794673 L122.224388,8.9825699 Z M123.121896,10.5052839 L123.490515,10.5052839 C123.682741,10.5225369 123.875541,10.4794868 124.043444,10.3818206 C124.141324,10.3024011 124.197609,10.1806903 124.1957,10.0525852 C124.196339,9.92937139 124.139795,9.8132147 124.043444,9.73981146 C123.891725,9.64515423 123.715903,9.59928928 123.538596,9.60811728 L123.121896,9.60811728 L123.121896,10.5052839 Z" id="Shape" fill="#1E120C"></path>
                <path d="M68.9002768,43.7394219 C68.9563071,41.5421089 67.6774313,39.530182 65.666803,38.6525218 C63.6561747,37.7748617 61.3153813,38.2067655 59.748406,39.7445353 C58.1814308,41.2823051 57.7012494,43.6187986 58.5343287,45.6520605 C59.367408,47.6853224 61.3473552,49.0092445 63.5403721,48.9994283 C64.9512038,49.020146 66.3122154,48.4770397 67.3227619,47.4900804 C68.3333084,46.5031212 68.9102305,45.1535274 68.926087,43.7394219" id="Path" fill="#E2241C"></path>
                <path d="M9.89157558,15.6650253 C10.3585708,15.0877901 10.9352677,14.6221109 11.5837534,14.2986022 C12.4162746,13.9066976 13.3221044,13.722205 14.2320116,13.7592246 C14.9611636,13.7356819 15.6885482,13.848261 16.3810773,14.0918408 C16.9089395,14.2864217 17.3849012,14.6132801 17.7686631,15.0447411 C18.5239661,16.0027063 19.049445,17.140933 19.300084,18.361913 L8.79166003,18.361913 C8.84872226,18.0314077 8.92215196,17.7043303 9.01164314,17.3820438 C9.18471342,16.7561808 9.47222588,16.1727147 9.85773203,15.6650253 M27.6255986,17.5168882 C27.1429769,15.5184748 26.3011756,13.6380832 25.1465582,11.9792787 C23.9745247,10.3439448 22.4631173,9.01803514 20.7299742,8.10475003 C18.7596067,7.09087575 16.5898508,6.59158915 14.4012293,6.64843066 C12.3936184,6.62279293 10.4019237,7.02951145 8.54629425,7.84405088 C6.82922164,8.58901614 5.27208953,9.69605378 3.96895339,11.0982954 C2.6830948,12.505982 1.68371488,14.1798226 1.03302495,16.0156207 C0.340953354,17.9443405 -0.00902173977,19.9925398 0.000796514593,22.0566492 C-0.0187721203,24.1660332 0.322378638,26.2616575 1.00764229,28.2415117 C1.6358777,30.0579907 2.61918697,31.7124464 3.89280539,33.0959096 C5.17454902,34.5017315 6.73545585,35.5858669 8.46168537,36.2692474 C10.3704115,37.0298026 12.3968147,37.4018571 14.4350729,37.3659818 C17.3129387,37.4552904 20.1556824,36.6760354 22.6336742,35.1185753 C23.8139747,34.3148051 24.8320951,33.2697297 25.6288288,32.0441233 C26.5323463,30.6674689 27.2314716,29.15152 27.7017466,27.5493105 L27.8878862,26.9380159 C27.8878862,26.9380159 27.9978777,26.6773168 27.6763639,26.6773168 L20.4084604,26.6773168 C20.0446422,26.6773168 19.9938769,26.9110471 19.9938769,26.9110471 L19.9261898,27.1537669 C19.8140428,27.5279163 19.6263516,27.871533 19.376232,28.160605 C19.0237899,28.5679373 18.622728,28.9245526 18.1832467,29.2213809 C17.1480239,29.9363851 15.9314537,30.2971825 14.6973604,30.2551878 C13.8377884,30.2730051 12.9810132,30.1455608 12.1590938,29.8776235 C11.4895705,29.6594054 10.8759806,29.2811605 10.3653854,28.7718996 C9.84544045,28.2349479 9.45632058,27.5715979 9.23162625,26.83913 C8.98656002,26.0904103 8.83577675,25.3105396 8.78319914,24.5198066 L27.8540426,24.5198066 C28.1586346,24.5198066 28.1755564,24.151232 28.1755564,24.151232 L28.1755564,23.8815432 C28.1755564,23.3961034 28.2347826,22.9106636 28.2347826,22.4432031 C28.2306243,20.7689302 28.0288077,19.1018241 27.6340595,17.4809297" id="Shape" fill="#1E120C"></path>
                <path d="M57.2436987,36.2312518 L46.6137179,21.1257757 L56.2454962,7.65524517 C56.2454962,7.65524517 56.3680824,7.47753369 56.0265921,7.47753369 L46.298496,7.47753369 C46.1425475,7.45920305 45.9888647,7.52700921 45.8957126,7.65524517 L41.5176315,14.1150576 L37.1395505,7.69078747 C37.0284795,7.55202533 36.8603475,7.47327905 36.6842301,7.47753369 L26.7372299,7.47753369 C26.4482766,7.47753369 26.5971313,7.67301632 26.5971313,7.67301632 L27.2625996,8.63265833 L36.1676165,21.2946016 L25.8003206,36.2579085 C25.8003206,36.2579085 25.607685,36.5423729 25.931663,36.5423729 L35.6772714,36.5423729 C35.9029021,36.5468779 36.1122672,36.4235144 36.2201535,36.2223662 L41.4738507,28.4297177 L46.6837672,36.2134807 C46.8113655,36.4040785 47.0177232,36.5251423 47.2441615,36.5423729 L57.0860877,36.5423729 C57.4450904,36.5423729 57.2436987,36.2312518 57.2436987,36.2312518" id="Path" fill="#1E120C"></path>
                <path d="M69.4726217,7.47457627 L58.4607408,7.47457627 C58.0736044,7.47457627 58.1338256,7.74133488 58.1338256,7.74133488 L59.7167835,36.1955867 C59.7213137,36.385138 59.8689094,36.5376905 60.0523017,36.5423729 L67.7950305,36.5423729 C68.1133426,36.5423729 68.1133426,36.1778028 68.1133426,36.1778028 L69.7565217,7.7946866 C69.7565217,7.7946866 69.7565217,7.47457627 69.4726217,7.47457627" id="Path" fill="#1E120C"></path>
                <path d="M90.2059014,14.41648 C90.2903102,14.4120176 90.3694816,14.3739665 90.4259369,14.310727 C90.4823923,14.2474876 90.511489,14.1642605 90.5068034,14.0794196 L90.5068034,8.3321078 C90.5068034,8.3321078 90.5068034,8.064188 90.1973042,8.064188 L84.9788033,8.064188 L84.9788033,0.33772669 C84.9788033,0.33772669 84.9788033,0.000666297495 84.6779013,0.000666297495 L76.2870334,0.000666297495 C76.2024931,-0.00514904441 76.1197927,0.0273287742 76.0615608,0.0892130866 C76.003329,0.151097399 75.9756624,0.23590901 75.9861313,0.320441542 L75.9861313,8.09875829 L71.773503,8.09875829 C71.3608373,8.09875829 71.4210177,8.34939294 71.4210177,8.34939294 L71.4210177,14.1399176 C71.4075431,14.2212194 71.4320433,14.3042311 71.4874458,14.3649891 C71.5428483,14.4257472 71.6229862,14.4574886 71.7047254,14.4510503 L76.0033257,14.4510503 L76.0033257,29.5323422 C75.9549805,30.7847526 76.227323,32.0286654 76.7942682,33.1449382 C77.292194,34.070308 78.0442161,34.8322989 78.9607628,35.3401521 C79.8839487,35.851218 80.8971439,36.1770342 81.9439915,36.2994778 C83.0821582,36.4710439 84.2320281,36.5519596 85.3828718,36.5414699 C86.1308283,36.5414699 86.9131735,36.5414699 87.6869216,36.5414699 C88.4270209,36.5082354 89.1646775,36.4332148 89.8964022,36.316763 L90.2230958,36.316763 C90.3099375,36.3080622 90.3897061,36.2647937 90.4446175,36.1966041 C90.4995288,36.1284145 90.5250174,36.0409731 90.5154006,35.9537748 L90.5154006,29.3162779 C90.5154006,28.9619323 90.2144986,29.0742858 90.2144986,29.0742858 L89.629889,29.1952818 C89.2893085,29.2653912 88.944775,29.3144577 88.5982249,29.3422056 C88.2371424,29.3422056 87.8416712,29.3422056 87.4376028,29.3422056 C86.9670181,29.3552895 86.496565,29.3117678 86.036259,29.212567 C85.8084719,29.1828148 85.595336,29.0832288 85.4258578,28.927362 C85.2689712,28.7640718 85.1667724,28.5555737 85.133553,28.3310244 C85.0247084,27.8785274 84.9755691,27.4135991 84.9874006,26.9482126 L84.9874006,14.41648 L90.2059014,14.41648 Z" id="Path" fill="#1E120C"></path>
                <path d="M108.3012,29.594458 C107.416476,30.0592156 106.433784,30.2844474 105.443633,30.2494088 C104.461072,30.2922777 103.484844,30.0664874 102.611886,29.594458 C101.882496,29.1558986 101.265401,28.5403486 100.812996,27.8000722 C100.332112,26.9963084 99.9939138,26.1088989 99.8145686,25.180269 C99.6105084,24.1530851 99.506694,23.1070122 99.5047118,22.0580377 C99.5089283,21.0032519 99.612714,19.9514584 99.8145686,18.9178626 C99.9829235,17.9914623 100.321989,17.1078727 100.812996,16.3160032 C101.270939,15.5773406 101.890382,14.9623912 102.620493,14.5216174 C104.408649,13.6310627 106.487223,13.6310627 108.275379,14.5216174 C109.022138,14.9519444 109.65497,15.5684428 110.117305,16.3160032 C110.601082,17.1117479 110.939577,17.993854 111.115732,18.9178626 C111.314751,19.9517485 111.415654,21.0035447 111.416987,22.0580377 C111.417832,23.106708 111.316901,24.1527778 111.115732,25.180269 C110.930199,26.1083889 110.589315,26.9951995 110.108698,27.8000722 C109.657674,28.5446773 109.036668,29.1611783 108.3012,29.594458 M119.34415,15.7687156 C118.684075,13.9350443 117.653797,12.2705832 116.323047,10.8879863 C114.962997,9.50792048 113.341952,8.43845867 111.563303,7.74781114 C107.602709,6.27615335 103.275949,6.27615335 99.3153549,7.74781114 C97.5527204,8.4453667 95.9470398,9.51435761 94.5986469,10.8879863 C93.2649356,12.2680845 92.2342141,13.9332618 91.5775438,15.7687156 C90.8547209,17.7758008 90.495743,19.9053518 90.5188666,22.0490658 C90.4912945,24.1931553 90.8504161,26.3235585 91.5775438,28.329416 C92.2388402,30.1571808 93.2691199,31.815525 94.5986469,33.1922015 C95.9456484,34.565509 97.555962,35.6264591 99.3239621,36.3054608 C103.289508,37.7286882 107.597757,37.7286882 111.563303,36.3054608 C113.343699,35.6312235 114.966172,34.5699945 116.323047,33.1922015 C117.649876,31.8132451 118.679754,30.1555473 119.34415,28.329416 C120.078216,26.3252995 120.440397,24.1940762 120.411434,22.0490658 C120.436053,19.9044236 120.074016,17.7740415 119.34415,15.7687156" id="Shape" fill="#1E120C"></path>
                <path d="M16.0443396,0.214246639 L11.7289655,5.51320876 C11.7289655,5.51320876 11.455952,5.81348328 11.7994206,5.81348328 L16.9250281,5.81348328 C17.1419073,5.81622869 17.3532082,5.74455867 17.5238964,5.6103564 L24.8159979,0.214246639 C24.8159979,0.214246639 25.0802045,0.00228815363 24.7367359,0.00228815363 L16.5639458,0.00228815363 C16.366864,-0.0147488018 16.1735999,0.0640877316 16.0443396,0.214246639" id="Path" fill="#1E120C"></path>
                <path d="M133.611997,24.1758037 C133.415132,23.7791544 133.136472,23.4323308 132.795811,23.1599667 C132.444686,22.879958 132.040754,22.6795911 131.610193,22.5718506 C131.151103,22.4413969 130.677205,22.3754617 130.201198,22.3758119 C129.802543,22.3766832 129.405106,22.421489 129.01558,22.5094746 C128.63315,22.5941264 128.265279,22.7383337 127.924468,22.9371955 C127.600368,23.1340589 127.324094,23.4053628 127.116873,23.7302612 C126.907951,24.0965073 126.803667,24.5167869 126.816173,24.9421369 C126.803698,25.3047853 126.906319,25.6616582 127.108282,25.9579739 C127.304357,26.2428956 127.552477,26.4851021 127.838554,26.6708419 C128.145031,26.8636641 128.470488,27.0219869 128.809386,27.143117 C129.161634,27.2678689 129.488109,27.3658883 129.780218,27.4460859 L132.108496,27.9896478 C132.618033,28.0684322 133.116887,28.2089979 133.594814,28.4084578 C134.06785,28.5994386 134.50864,28.8671281 134.900712,29.2015235 C135.286602,29.5354712 135.602393,29.947919 135.828587,30.4133992 C136.0814,30.9383431 136.205348,31.5199041 136.189427,32.1064608 C136.212044,32.8309263 136.029873,33.5464344 135.66535,34.1648674 C135.320494,34.7236853 134.859658,35.1955652 134.316495,35.5460492 C133.749444,35.9111511 133.1238,36.1676948 132.469336,36.3034715 C131.806801,36.4586951 131.129577,36.5364076 130.45035,36.5351536 C128.991019,36.604535 127.550427,36.172265 126.352236,35.3054562 C125.230601,34.3109724 124.578901,32.8616238 124.565217,31.3312168 L126.283504,31.3312168 C126.286243,32.4142388 126.763593,33.4372225 127.580811,34.1114023 C128.432469,34.7358043 129.459919,35.0492305 130.501898,35.0024873 C130.946477,35.0022408 131.389847,34.9544638 131.824979,34.8599137 C132.268864,34.7689035 132.695452,34.6033618 133.08792,34.3698169 C133.463774,34.1472117 133.789024,33.8432997 134.041569,33.4787319 C134.300113,33.0956249 134.432678,32.6362707 134.419592,32.1688368 C134.429877,31.7793674 134.337811,31.3943333 134.153257,31.0549805 C133.975479,30.7562754 133.734582,30.5033748 133.44876,30.3153799 C133.13297,30.1021588 132.792304,29.9314819 132.434971,29.8074614 C132.056948,29.6737986 131.670333,29.5579575 131.283719,29.4599382 L129.032763,28.9431088 C128.494329,28.8037664 127.966069,28.6251037 127.451939,28.4084578 C126.998435,28.2271262 126.572949,27.977954 126.188998,27.6688572 C125.826417,27.3755694 125.532671,27.0008299 125.329855,26.5728226 C124.850098,25.4206663 124.916836,24.102201 125.510275,23.0084823 C125.822449,22.4766613 126.25623,22.0328735 126.773216,21.7164089 C127.304064,21.3799667 127.884535,21.1361354 128.491503,20.99463 C129.116923,20.8437198 129.756685,20.7660071 130.398801,20.7629479 C131.079273,20.7572044 131.756795,20.8563047 132.409196,21.057006 C133.006056,21.2358804 133.56149,21.5390827 134.041569,21.9480911 C134.519271,22.3542078 134.903743,22.8656021 135.167047,23.445114 C135.50883,24.1206159 135.702458,24.8661109 135.734081,25.6282724 L134.015795,25.6282724 C133.982868,25.1197412 133.845172,24.6244479 133.611997,24.1758037 L133.611997,24.1758037 Z" id="Path" fill="#DF282B"></path>
                <path d="M147.93224,36.1508483 L147.93224,33.5557926 L147.84587,33.5557926 C147.41535,34.4843709 146.709665,35.2575818 145.824815,35.7702402 C144.9309,36.2894831 143.912866,36.5555928 142.879602,36.5401067 C142.088842,36.5611856 141.301046,36.4350629 140.556252,36.1681487 C139.9525,35.9454226 139.41475,35.5734805 138.992957,35.0868755 C138.581543,34.5808171 138.286639,33.9901073 138.129258,33.3568384 C137.936029,32.61134 137.843079,31.8433343 137.852875,31.0731893 L137.852875,21.739639 L139.580272,21.739639 L139.580272,31.1250904 C139.544943,32.1848745 139.864131,33.226105 140.487156,34.083454 C141.877964,35.2001791 143.790954,35.4029212 145.384328,34.6024651 C145.920731,34.2742257 146.377917,33.8311122 146.723062,33.3049372 C147.088832,32.7353366 147.351934,32.1058553 147.500391,31.4451473 C147.670245,30.7457856 147.754356,30.0282968 147.750863,29.3085515 L147.750863,21.739639 L149.478261,21.739639 L149.478261,36.1508483 L147.93224,36.1508483 Z M142.041814,19.7154955 L144.969753,15.779661 L147.146274,15.779661 L143.466917,19.7154955 L142.041814,19.7154955 Z" id="Shape" fill="#DF282B"></path>
                <path d="M154.485241,22.0142891 L154.485241,24.7196504 L154.549704,24.7196504 C154.961111,23.7498379 155.710025,22.9360502 156.676976,22.4081075 C157.690883,21.8592352 158.846695,21.5780248 160.019832,21.5947868 C161.073052,21.5728766 162.117102,21.7810758 163.068001,22.202637 C163.908989,22.594562 164.645208,23.1561523 165.222899,23.8464009 C165.813424,24.5635079 166.248187,25.380602 166.502946,26.2521178 C167.05554,28.1441516 167.05554,30.1389413 166.502946,32.0309751 C166.251104,32.9035163 165.81607,33.7211179 165.222899,34.436692 C164.652433,35.1312838 163.914266,35.6914278 163.068001,36.0718946 C161.586776,36.6846833 159.929483,36.8261174 158.353008,36.4742743 C157.81063,36.3482321 157.289883,36.1522781 156.805902,35.892108 C156.332912,35.6302938 155.907166,35.3009403 155.544273,34.9161232 C155.172538,34.5189985 154.885065,34.0600179 154.697048,33.5634425 L154.641794,33.5634425 L154.641794,41.5254237 L152.8,41.5254237 L152.8,22.0142891 L154.485241,22.0142891 Z M164.762451,26.9455807 C164.579983,26.2527318 164.268302,25.5949773 163.841554,25.0021723 C163.436859,24.4330274 162.902373,23.9536707 162.276029,23.598124 C161.578753,23.2276246 160.785903,23.0411331 159.982996,23.058764 C159.089447,23.0329887 158.202216,23.2061734 157.395276,23.5638789 C156.728517,23.8689239 156.155244,24.3253205 155.728452,24.8908758 C155.29786,25.4735628 155.000131,26.1320282 154.8536,26.8257229 C154.684765,27.5890341 154.601439,28.3665519 154.604958,29.1458271 C154.605388,29.8866976 154.698095,30.6250301 154.881227,31.3460735 C155.056829,32.0410743 155.369034,32.699934 155.802124,33.2894818 C156.256093,33.8754854 156.852423,34.3536082 157.542619,34.6849689 C158.316206,35.0642411 159.182537,35.2501023 160.056668,35.2243289 C160.860053,35.2459562 161.654048,35.0591952 162.349701,34.6849689 C162.97771,34.3350841 163.512812,33.8581017 163.915226,33.2894818 C164.341974,32.6966769 164.653655,32.0389223 164.836123,31.3460735 C165.21669,29.9005768 165.21669,28.3910774 164.836123,26.9455807 L164.762451,26.9455807 Z" id="Shape" fill="#DF282B"></path>
                <path d="M170.62595,31.5010131 C170.799692,32.1496922 171.103214,32.7605958 171.51998,33.3004418 C171.934574,33.8323321 172.457498,34.2797239 173.05771,34.6160619 C173.733129,34.9775803 174.499911,35.1566396 175.274903,35.133822 C176.409914,35.2008919 177.528177,34.8480149 178.395066,34.149229 C179.177975,33.4374463 179.722222,32.5221388 179.959618,31.5179889 L181.747677,31.5179889 C181.472487,32.9409488 180.730932,34.2450348 179.628827,35.2441644 C178.383872,36.1801053 176.813843,36.6375793 175.230202,36.5258329 C174.183371,36.5511983 173.1441,36.3509607 172.190502,35.9401698 C171.361758,35.5699887 170.640602,35.0135189 170.089532,34.3189864 C169.562212,33.6102618 169.182856,32.8121509 168.971996,31.9678461 C168.702764,31.0361207 168.570389,30.0735525 168.578623,29.1074334 C168.571956,28.1721067 168.704387,27.2405687 168.971996,26.3403874 C169.208084,25.4766427 169.611291,24.6621082 170.161055,23.9383198 C170.718315,23.2299398 171.436387,22.6497405 172.262024,22.2407456 C173.204726,21.7937006 174.248254,21.5722455 175.301724,21.5956674 C176.369648,21.5662024 177.427025,21.8032675 178.368245,22.2831849 C179.192781,22.724837 179.899371,23.3404933 180.433453,24.0826137 C180.975554,24.8569138 181.360623,25.7204959 181.568871,26.628975 C181.802455,27.585554 181.898691,28.5677325 181.85496,29.5488027 L170.348801,29.5488027 C170.353726,30.208057 170.446854,30.8640461 170.62595,31.5010131 L170.62595,31.5010131 Z M179.637767,26.2300451 C179.424015,25.6533572 179.106384,25.1162985 178.699036,24.6428132 C178.293628,24.1770869 177.791465,23.7956866 177.223888,23.5224141 C175.978192,22.9396655 174.517972,22.9396655 173.272277,23.5224141 C172.703135,23.7933746 172.200505,24.1751307 171.797129,24.6428132 C171.383937,25.1262331 171.057695,25.6711332 170.831577,26.2555087 C170.592137,26.8631026 170.430062,27.4956933 170.348801,28.1398161 L179.995379,28.1398161 C179.97935,27.4896467 179.858753,26.8456215 179.637767,26.2300451 L179.637767,26.2300451 Z" id="Shape" fill="#DF282B"></path>
                <path d="M185.872267,21.8160587 L185.872267,25.271692 L185.928704,25.271692 C186.651669,22.914861 188.74479,21.4044732 191,21.612265 L191,23.3843846 C190.311887,23.3338855 189.621904,23.4456649 188.976319,23.7122267 C188.374079,23.948818 187.824447,24.3233235 187.363824,24.8109409 C186.919102,25.2958674 186.568085,25.8745154 186.331828,26.5121758 C186.084914,27.2003045 185.961705,27.934506 185.969016,28.6741617 L185.969016,36.5423729 L184.356522,36.5423729 L184.356522,21.8160587 L185.872267,21.8160587 Z" id="Path" fill="#DF282B"></path>
            </g>
        </g>
    </g>
</svg>