<?xml version="1.0" encoding="UTF-8"?>
<svg width="136px" height="56px" viewBox="0 0 136 56" version="1.1" xmlns="http://www.w3.org/2000/svg" xmlns:xlink="http://www.w3.org/1999/xlink">
    <!-- Generator: Sketch 64 (93537) - https://sketch.com -->
    <title>exito-wow-logo</title>
    <desc>Created with Sketch.</desc>
    <g id="Welcome" stroke="none" stroke-width="1" fill="none" fill-rule="evenodd">
        <g id="HOME---Dónde-Comprar---Nuestros-Formatos---Desktop-HD" transform="translate(-174.000000, -699.000000)" fill-rule="nonzero">
            <g id="exito-wow-logo" transform="translate(174.000000, 699.000000)">
                <path d="M68.8274745,43.1843997 C68.8838548,40.9752838 67.6069356,38.9518843 65.597896,38.0668263 C63.5888565,37.1817684 61.2480957,37.611443 59.6776539,39.1535576 C58.1072121,40.6956721 57.6200764,43.042885 58.4455925,45.0901183 C59.2711086,47.1373516 61.244752,48.4765941 63.437323,48.4773249 C66.372646,48.50758 68.7810331,46.1426349 68.8274745,43.1843997" id="Path" fill="#E2241C"></path>
                <path d="M10.1780961,16.3629512 C10.6463615,15.7952145 11.2325466,15.3389172 11.8949244,15.0265406 C12.7518519,14.6307934 13.6880672,14.4423906 14.6294202,14.4762538 C15.3790194,14.4622878 16.12538,14.5793023 16.8356611,14.8221484 C17.3929695,14.9996541 17.8958672,15.3190727 18.2961304,15.7497745 C19.0804731,16.6793487 19.6154928,17.7973601 19.8498212,18.9964662 L9.04390184,18.9964662 C9.10398164,18.6700694 9.18178405,18.3472695 9.27695546,18.0295338 C9.46751646,17.4200505 9.77359899,16.853977 10.1780961,16.3629512 M28.4261942,18.1631749 C27.933813,16.2117305 27.0681358,14.3769029 25.8781414,12.7625038 C24.6670419,11.156665 23.1066715,9.85472379 21.3180589,8.95766415 C19.3063927,7.96024215 17.0863734,7.46940262 14.8469369,7.52691867 C12.7752986,7.49717233 10.7192245,7.89297369 8.80307977,8.69038203 C7.06082828,9.44069152 5.47816011,10.5244214 4.14200745,11.882045 C2.82118571,13.2545448 1.78802539,14.8829581 1.10454199,16.6695395 C0.374124098,18.5664531 0,20.5846658 0.00142153928,22.6204973 C-0.0255016893,24.6842181 0.330225642,26.7347485 1.05016281,28.66579 C1.69874427,30.4428969 2.70383652,32.0648988 4.00217528,33.4297008 C5.31243058,34.795765 6.90377213,35.853227 8.6632476,36.5270289 C10.6307106,37.2677611 12.7168388,37.6329291 14.8158631,37.6040186 C17.7950855,37.6991506 20.7397076,36.9358004 23.3067831,35.4028717 C24.5252149,34.6152579 25.5806095,33.5953179 26.4141647,32.3998785 C27.3313928,31.0545929 28.0461174,29.5789282 28.5349526,28.0211684 L28.7291639,27.4315755 C28.7291639,27.4315755 28.8379223,27.1642934 28.5271841,27.1642934 L20.976247,27.1642934 C20.5878243,27.1642934 20.548982,27.3922693 20.548982,27.3922693 L20.4790659,27.643829 C20.353847,28.0074198 20.1613905,28.3435724 19.9119688,28.6343451 C19.5492047,29.024405 19.142464,29.3700424 18.70009,29.6641674 C17.6265528,30.3610233 16.3704466,30.7144135 15.0955274,30.6782672 C14.2092157,30.6932608 13.3259952,30.5686105 12.4775584,30.308789 C11.7830669,30.098335 11.1453338,29.7299476 10.6131295,29.2317992 C10.0853858,28.6983202 9.68428324,28.0505037 9.44009299,27.3372407 C9.19623705,26.5990181 9.04231974,25.8334394 8.98175421,25.0574814 L28.628174,25.0574814 C28.8195111,25.053316 28.9736383,24.8973479 28.9777545,24.7037256 L28.9777545,24.452166 C28.9777545,23.9647692 29.0243778,23.4852336 29.0243778,23.0135593 C29.0262361,21.376819 28.8199731,19.7466384 28.4106573,18.1631749" id="Shape" fill="#1E120C"></path>
                <path d="M56.3352899,36.4654498 L45.7321431,21.7214433 L55.3116995,8.52943751 C55.3116995,8.52943751 55.4289045,8.36647744 55.0929168,8.36647744 L45.4117827,8.36647744 C45.0836087,8.36647744 45.028913,8.52943751 45.028913,8.52943751 L40.6688865,14.8383203 L36.2697917,8.56047753 C36.1656887,8.42651245 36.0024512,8.35124413 35.8322263,8.35871744 L25.8698002,8.35871744 C25.5806945,8.35871744 25.7291541,8.55271752 25.7291541,8.55271752 L26.4011296,9.47615793 L35.2774559,21.8921634 L24.9321601,36.4964899 C24.9321601,36.4964899 24.7368184,36.7761194 25.0884334,36.7761194 L34.8008222,36.7761194 C35.0296584,36.7827945 35.2410696,36.6549931 35.3399652,36.4499298 L40.5594951,28.8373665 L45.7868387,36.4421698 C45.9034714,36.6353099 46.1076005,36.7598423 46.3337955,36.7761194 L56.1868302,36.7761194 C56.5384453,36.7761194 56.3274763,36.4654498 56.3274763,36.4654498" id="Path" fill="#1E120C"></path>
                <path d="M68.5751193,8.35820896 L57.5465954,8.35820896 C57.1615212,8.35820896 57.2231331,8.62205629 57.2231331,8.62205629 L58.8173401,36.4269097 C58.8173401,36.4269097 58.8173401,36.7761194 59.1408024,36.7761194 L66.9501064,36.7761194 C67.0413295,36.7761194 67.1287092,36.7391058 67.1924848,36.6733833 C67.2562605,36.6076607 67.2910449,36.5188047 67.2889717,36.4269097 L68.8292683,8.66861759 C68.8292683,8.66861759 68.8292683,8.35820896 68.5443134,8.35820896" id="Path" fill="#1E120C"></path>
                <path d="M90.0900134,14.495139 C90.1755956,14.4891781 90.2552996,14.4489635 90.3114827,14.3833966 C90.3676659,14.3178298 90.3956945,14.2323185 90.3893643,14.1457907 L90.3893643,8.38542542 C90.3893643,8.38542542 90.3893643,8.10594678 90.074662,8.10594678 L84.870561,8.10594678 L84.870561,0.327124651 C84.8726296,0.241370597 84.840389,0.158402162 84.7811452,0.0970205128 C84.7219014,0.0356388633 84.6406701,0.00104072012 84.5558587,0.00106623846 L76.1970593,0.00106623846 C76.1101594,-0.00642209882 76.024506,0.0258134241 75.9635832,0.088934567 C75.9026605,0.15205571 75.8728617,0.239438525 75.8823571,0.327124651 L75.8823571,8.09042019 L71.6530655,8.09042019 C71.2616066,8.09042019 71.3230119,8.35437224 71.3230119,8.35437224 L71.3230119,14.1613173 C71.3051921,14.2443761 71.3280062,14.331032 71.3843049,14.3941294 C71.4406037,14.4572267 71.5234982,14.4890447 71.6070116,14.4796124 L75.8823571,14.4796124 L75.8823571,29.6956717 C75.821189,30.9536733 76.0857669,32.2060342 76.6499236,33.328894 C77.1394508,34.2658693 77.8891636,35.0376337 78.8067855,35.5491965 C79.7393355,36.0632172 80.7560796,36.4024944 81.8079706,36.5506616 C82.9450611,36.7064722 84.0915293,36.7817007 85.2389929,36.7761194 C86.0065595,36.7761194 86.774126,36.7761194 87.5416925,36.7761194 C88.2818312,36.7474716 89.0198369,36.6774937 89.7522841,36.5661882 L90.0823377,36.5040819 C90.0823377,36.5040819 90.3663373,36.5040819 90.3663373,36.1547336 L90.3663373,29.5015893 C90.3755231,29.4241987 90.3430363,29.3477577 90.2811933,29.301247 C90.2193504,29.2547362 90.1376194,29.2452763 90.0669864,29.2764537 L89.4759601,29.3929031 C89.140953,29.4578267 88.8027349,29.5044739 88.4627723,29.5326425 C88.0750314,29.5707084 87.6856301,29.5888461 87.2960712,29.5869855 C86.8190051,29.5956708 86.3425361,29.5487823 85.8760732,29.4472462 C85.6553125,29.4072194 85.4473255,29.3140213 85.2696956,29.1755309 C85.1213648,29.0012075 85.0231366,28.7890827 84.985696,28.5622305 C84.8780309,28.1100536 84.8315525,27.6451872 84.847534,27.1803639 L84.847534,14.495139 L90.0900134,14.495139 Z" id="Path" fill="#1E120C"></path>
                <path d="M108.145488,29.9180079 C107.26302,30.3644472 106.286157,30.5819345 105.301521,30.5511842 C104.323984,30.5849485 103.353844,30.3671972 102.480552,29.9180079 C101.752205,29.4975674 101.138284,28.8983967 100.694449,28.1748188 C100.215489,27.3994701 99.8803006,26.5409841 99.7055762,25.6421136 C99.4913327,24.6382416 99.3884773,23.6129845 99.3989491,22.58567 C99.3888652,21.5583736 99.4917161,20.5331607 99.7055762,19.5292264 C99.8681962,18.6218901 100.204194,17.7560177 100.694449,16.9808872 C101.162134,16.2637011 101.786661,15.666984 102.51888,15.2376981 C104.304457,14.3512499 106.390574,14.3512499 108.176151,15.2376981 C108.91293,15.6538044 109.539147,16.2467692 110.000582,16.9652532 C110.476391,17.7495153 110.799152,18.6201224 110.951126,19.5292264 C111.349642,21.5465934 111.349642,23.6247465 110.951126,25.6421136 C110.774588,26.5429377 110.433968,27.4020174 109.946923,28.1748188 C109.505446,28.9058491 108.884503,29.506716 108.145488,29.9180079 M119.176399,16.4415148 C118.517896,14.6424892 117.484873,13.0103631 116.148456,11.657516 C114.789477,10.3190184 113.177659,9.27645453 111.411067,8.59325543 C107.461003,7.16543227 103.149706,7.16543227 99.1996414,8.59325543 C97.4455451,9.27880599 95.8467115,10.3214064 94.5005805,11.657516 C93.1533505,13.0090535 92.1075258,14.6407499 91.4343092,16.4415148 C90.719273,18.4094879 90.3658651,20.4949446 90.3917769,22.593487 C90.363865,24.6947362 90.7173209,26.7831261 91.4343092,28.7532762 C92.7882421,32.3655159 95.6131598,35.2005602 99.1766444,36.5233656 C101.13511,37.2675487 103.211662,37.6359319 105.301521,37.6099274 C107.391692,37.6422697 109.470047,37.2846243 111.434064,36.5546336 C113.204647,35.8943239 114.818863,34.860863 116.171453,33.5216409 C117.498652,32.1793374 118.530788,30.5646003 119.199396,28.7845441 C119.920186,26.8154403 120.273766,24.7263178 120.241929,22.6247549 C120.271734,20.5258991 119.918203,18.4397188 119.199396,16.4727827" id="Shape" fill="#1E120C"></path>
                <path d="M16.0463414,0.223923829 L11.7098177,5.54757455 C11.7098177,5.54757455 11.443196,5.84861433 11.780394,5.84861433 L16.869732,5.84861433 C17.101112,5.86484102 17.3294523,5.78794834 17.504919,5.63471765 L24.7742815,0.223923829 C24.7742815,0.223923829 25.0409032,0.00210504878 24.7193888,0.00210504878 L16.5639012,0.00210504878 C16.3657524,-0.0145520724 16.1721871,0.0684072741 16.0463414,0.223923829" id="Path" fill="#1E120C"></path>
                <path d="M127.707317,10.8584855 C127.707138,12.0743033 126.978812,13.1900479 125.815448,13.756696 C125.25117,14.0536492 124.61293,14.2094879 123.963662,14.2089017 C123.314007,14.2122728 122.675002,14.0562471 122.111875,13.756696 C121.259704,13.3311592 120.631873,12.6029011 120.373206,11.7399135 C120.114539,10.8769259 120.247375,9.95373719 120.741072,9.18330498 C121.073766,8.66936732 121.546427,8.24510389 122.111875,7.95286266 C122.677049,7.66040517 123.31611,7.51203985 123.963662,7.52294908 C124.610864,7.51483607 125.249154,7.66302238 125.815448,7.95286266 C126.384389,8.24074721 126.858163,8.66601006 127.186252,9.18330498 C127.509481,9.69077135 127.678433,10.2695562 127.675252,10.8584855 M126.977825,10.8584855 C126.988986,10.1330012 126.665362,9.43747669 126.088006,8.94611128 C125.527254,8.42302699 124.760102,8.13393667 123.963662,8.14558254 C123.165492,8.13702137 122.397104,8.42548903 121.831301,8.94611128 C121.27301,9.44846503 120.958073,10.1381782 120.958073,10.8584855 C120.958073,11.5787928 121.27301,12.2685059 121.831301,12.7708597 C122.401542,13.2826377 123.169114,13.5627945 123.963662,13.5491515 C124.756262,13.5649722 125.522224,13.2843485 126.088006,12.7708597 C126.675534,12.283693 127.010815,11.5881813 127.009893,10.8584855 M122.312285,9.06470813 L124.091924,9.06470813 C124.480284,9.03290414 124.86787,9.13303947 125.182153,9.34637564 C125.411551,9.5330898 125.538101,9.80521402 125.526858,10.087606 C125.528551,10.3159376 125.430236,10.5351837 125.254301,10.6954148 C125.03793,10.8990923 124.757252,11.0340459 124.452662,11.0808546 C124.570519,11.1195058 124.681341,11.1744901 124.781334,11.2439252 C124.905052,11.3522724 125.010444,11.477208 125.093973,11.6145404 C125.093973,11.6145404 125.302399,11.9777433 125.751317,12.6522628 L124.572907,12.6522628 C124.358851,12.2236042 124.106811,11.8120534 123.819367,11.4218205 C123.719629,11.3098925 123.574923,11.2403158 123.418547,11.2291006 L123.346399,11.2291006 L123.298301,12.6448505 L122.312285,12.6448505 L122.312285,9.06470813 Z M123.298301,10.5916426 L123.72317,10.5916426 C123.934041,10.610121 124.145567,10.5631805 124.324399,10.4582211 C124.443546,10.3877414 124.511269,10.2625021 124.50076,10.1320798 C124.505801,10.0087285 124.438346,9.89249041 124.324399,9.82817535 C124.157212,9.72336872 123.956688,9.67375114 123.755235,9.68734159 L123.298301,9.68734159 L123.298301,10.5916426 Z" id="Shape" fill="#1E120C"></path>
                <path d="M128.296805,40.9603325 C127.850782,40.9940385 127.414659,41.1111184 127.01024,41.305719 C126.994008,42.4853766 126.849314,43.6595535 126.578817,44.8066817 C125.608116,49.0690645 123.497225,51.9813003 121.602046,51.9813003 C120.392521,51.9813003 119.922578,51.1963311 120.392521,49.1004633 C120.683162,47.9210959 121.069697,46.7684406 121.548118,45.6544484 L122.380148,43.6056788 C123.150546,41.7374521 123.058098,40.9603325 121.039655,40.9603325 C120.555258,40.9329232 120.070966,41.0160591 119.622123,41.203673 C119.630241,42.0022311 119.442208,42.7901769 119.07514,43.4957831 L118.566678,44.8302307 C118.12171,45.9740047 117.733453,47.1398469 117.403377,48.3233437 C116.347931,50.5369569 115.022847,51.9813003 113.743986,51.9813003 C112.619205,51.9813003 112.072222,51.2905274 112.565277,49.1004633 C112.846998,47.9609853 113.215333,46.8455773 113.666946,45.7643441 L114.522088,43.6056788 C115.292486,41.7374521 115.200038,40.9603325 113.189299,40.9603325 C112.704902,40.9329232 112.22061,41.0160591 111.771767,41.203673 C111.757177,41.9994099 111.570408,42.7820595 111.224784,43.4957831 L110.708618,44.8302307 C110.438978,45.536703 110.184747,46.2196263 109.93822,46.8711507 C109.303931,47.3116033 108.588376,47.6160581 107.835033,47.7660156 C108.043552,47.2164402 108.213468,46.6524578 108.343496,46.0783318 C109.036854,43.0405009 107.750289,40.9838816 104.684105,40.9838816 C100.208092,40.9838816 96.6565573,44.3984977 95.5548881,49.2260583 C94.78449,52.5386284 96.4408458,54.3283582 99.2142788,54.3283582 C102.781222,54.3283582 105.677918,52.1618432 107.28805,48.9905676 C108.075499,48.8856714 108.840682,48.6496533 109.553021,48.291945 C109.437461,48.6687302 109.345013,49.0769142 109.260269,49.3909019 C108.566911,52.4601315 109.398941,54.3283582 112.018294,54.3283582 C113.851842,54.3283582 115.554421,53.0410087 116.956546,51.3611746 C117.041289,53.1744535 118.035103,54.3283582 119.899466,54.3283582 C121.994949,54.3283582 123.620489,52.9389627 125.292253,50.9608403 C127.110767,48.5981903 128.441949,45.8854705 129.205875,42.9855531 C129.58337,41.305719 129.290618,40.9838816 128.350733,40.9838816 M105.385167,44.3435498 C104.502441,44.5491237 103.818844,45.2609918 103.636364,46.1646784 C103.402147,46.9088857 103.602154,47.7240468 104.15253,48.2683959 C102.742702,51.4710703 101.217314,52.9782112 99.8074853,52.9782112 C98.7058161,52.9782112 98.2666892,52.0440978 98.6750001,50.3642637 C98.900054,49.4301909 99.1857297,48.5123747 99.530142,47.6168715 C101.17109,43.6370775 102.842854,42.2790808 104.15253,42.2790808 C105.115528,42.2790808 105.554655,43.0012525 105.385167,44.3278505" id="Shape" fill="#E2241C"></path>
                <path d="M95.1822877,41.0021197 C94.7316859,41.0364502 94.291214,41.1530135 93.8827395,41.3460227 C93.8614657,42.5202765 93.7144964,43.6888937 93.4443378,44.8319478 C92.4579337,49.0760226 90.3128964,51.9757495 88.3792314,51.9757495 C87.1579692,51.9757495 86.6804244,51.194152 87.1579692,49.1072865 C87.4488589,47.9326609 87.83908,46.7848036 88.3244311,45.6760732 L89.1699203,43.6361035 C89.9527806,41.7759013 89.866666,41.0021197 87.8155719,41.0021197 C87.3233388,40.9748281 86.8312126,41.057607 86.3751089,41.244415 C86.3833579,42.0395431 86.1922831,42.8241044 85.819278,43.5266799 L85.2947616,44.8553957 C84.8485312,45.9965282 84.4257866,47.2470843 84.1204711,48.3335049 C83.0479524,50.53761 81.7014327,51.9757495 80.4018845,51.9757495 C79.2589084,51.9757495 78.6952489,51.2801277 79.2041082,49.1072865 C79.4881469,47.9739683 79.8571312,46.8635754 80.3079412,45.7854968 L81.1847448,43.6361035 C81.6309752,42.526235 81.7875473,41.8071652 81.4196029,41.4085505 C81.2943453,41.0959114 80.9342295,40.9552239 80.2766268,40.9552239 L79.0553647,40.9552239 C76.2057531,40.9552239 74.2955738,42.2292279 73.8884865,43.9800065 C73.7237742,44.4203997 73.8059088,44.915007 74.1041591,45.2787683 C74.4024095,45.6425297 74.8718276,45.8206242 75.3367781,45.746417 C76.017942,45.7941353 76.6515232,45.395623 76.9024988,44.761604 C76.9111402,44.7072323 76.9111402,44.6518402 76.9024988,44.5974685 C76.8029638,44.6368959 76.6963854,44.6555171 76.5893546,44.6521804 C76.1431242,44.6521804 75.9552378,44.3317254 76.0726668,43.8705828 C76.35436,42.8556031 77.2308352,42.1170761 78.280333,42.0103806 C78.164472,42.54457 78.0020627,43.0676258 77.7949596,43.5735757 L77.2782717,44.9022916 C76.6737011,46.3718385 76.1714763,47.8813056 75.7751799,49.4199255 C75.0706056,52.475972 75.9160947,54.3283582 78.5699913,54.3283582 C80.4331989,54.3283582 82.1711489,53.0543542 83.5959547,51.3817354 C83.6820693,53.1872258 84.6919592,54.3283582 86.5786526,54.3283582 C88.7080327,54.3283582 90.359868,52.9527465 92.058675,50.9831206 C93.9027244,48.629273 95.2526397,45.9284807 96.0277769,43.0420894 C96.4192071,41.3694706 96.1217201,41.0490156 95.1588019,41.0490156" id="Path" fill="#E2241C"></path>
                <path d="M132.553981,48.0328492 C132.169762,48.9159082 131.941123,49.8551168 131.877573,50.8114143 C131.600629,50.9122235 131.309215,50.970807 131.013728,50.9850746 C130.459563,50.9850746 130.158032,50.6693286 130.198779,49.8483889 C130.256013,49.2203811 130.34851,48.5958581 130.475862,47.9775936 L132.187254,39.2945776 C132.288681,38.8227835 132.362146,38.3457531 132.40729,37.8658268 C132.445855,37.5855256 132.445855,37.3015073 132.40729,37.0212061 C132.932767,36.8524428 133.483621,36.7697408 134.037187,36.7765029 C135.438898,36.7765029 136.074558,37.2343347 135.993063,38.2762966 C135.94693,38.6659745 135.848297,39.0481205 135.699682,39.4129823 L132.553981,48.0328492 Z" id="Path" fill="#E2241C"></path>
                <path d="M132.682927,53.4925373 C132.682927,54.4157596 131.940375,55.1641791 131.02439,55.1641791 C130.108406,55.1641791 129.365854,54.4157596 129.365854,53.4925373 C129.365854,52.569315 130.108406,51.8208955 131.02439,51.8208955 C131.940375,51.8208955 132.682927,52.569315 132.682927,53.4925373" id="Path" fill="#E2241C"></path>
            </g>
        </g>
    </g>
</svg>