<?xml version="1.0" encoding="UTF-8"?>
<svg width="127px" height="48px" viewBox="0 0 127 48" version="1.1" xmlns="http://www.w3.org/2000/svg" xmlns:xlink="http://www.w3.org/1999/xlink">
    <!-- Generator: Sketch 64 (93537) - https://sketch.com -->
    <title>exito-hipermercado-logo</title>
    <desc>Created with Sketch.</desc>
    <g id="Welcome" stroke="none" stroke-width="1" fill="none" fill-rule="evenodd">
        <g id="HOME---Dónde-Comprar---Nuestros-Formatos---Desktop-HD" transform="translate(-178.000000, -1072.000000)" fill-rule="nonzero">
            <g id="exito-hipermercado-logo" transform="translate(178.000000, 1072.000000)">
                <path d="M68.4462681,42.7589376 C68.5023361,40.5715864 67.2324893,38.5681219 65.2345769,37.6917837 C63.2366646,36.8154456 60.9088683,37.2408869 59.3471245,38.7678082 C57.7853807,40.2947295 57.3009431,42.6188171 58.121887,44.6458806 C58.9428309,46.6729442 60.9055431,47.9989922 63.0859704,47.9997157 C66.0050359,48.0296729 68.4000839,45.6880277 68.4462681,42.7589376" id="Path" fill="#E2241C"></path>
                <path d="M10.1217239,16.2017398 C10.5873958,15.6395966 11.1703343,15.1877949 11.8290434,14.8784958 C12.6812247,14.4866477 13.6122547,14.300101 14.548394,14.3336307 C15.2938415,14.3198022 16.0360684,14.4356638 16.7424154,14.6761173 C17.2966372,14.8518742 17.7967495,15.1681459 18.1947958,15.5946043 C18.9747944,16.5150201 19.5068508,17.6220166 19.7398814,18.8093089 L8.99381147,18.8093089 C9.05355852,18.4861278 9.13093002,18.1665082 9.22557431,17.8519029 C9.41507987,17.2484244 9.71946714,16.687928 10.1217239,16.2017398 M28.2687535,17.9842273 C27.7790994,16.0520091 26.9182168,14.2352585 25.7348132,12.6367648 C24.5304215,11.0467471 22.9786933,9.75763291 21.1999872,8.8694113 C19.1994627,7.88181612 16.9917392,7.39581244 14.7647059,7.45276184 C12.7045416,7.42330856 10.6598552,7.8152104 8.75432322,8.6047625 C7.02172132,9.34767978 5.44781889,10.4207325 4.11906661,11.7649805 C2.80556035,13.1239581 1.77812227,14.736328 1.0984244,16.5053076 C0.372051982,18.3835323 0,20.3818613 0.00141366597,22.3976353 C-0.0253604462,24.4410239 0.328396661,26.471352 1.0443464,28.3833684 C1.68933564,30.1429669 2.68886111,31.7489885 3.98000892,33.1003441 C5.28300726,34.4529496 6.86553505,35.4999932 8.61526552,36.1671567 C10.5718316,36.900591 12.6464055,37.2621613 14.7338042,37.2335357 C17.696526,37.3277304 20.6248391,36.5719009 23.1776967,35.054075 C24.38938,34.2742209 25.4389292,33.2643295 26.2678677,32.0806679 C27.1800157,30.7486363 27.8907818,29.2875102 28.3769095,27.7450978 L28.5700452,27.1613137 C28.5700452,27.1613137 28.6782012,26.8966649 28.3691841,26.8966649 L20.8600684,26.8966649 C20.473797,26.8966649 20.4351699,27.1223948 20.4351699,27.1223948 L20.365641,27.371476 C20.2411156,27.7314846 20.0497251,28.0643254 19.8016848,28.3522333 C19.4409299,28.7384503 19.036442,29.0806824 18.5965181,29.3719096 C17.5289268,30.0619 16.2797776,30.4118085 15.0119196,30.3760182 C14.1305168,30.3908642 13.2521881,30.2674419 12.4084505,30.0101802 C11.7178055,29.8017997 11.0836045,29.4370418 10.5543479,28.9438012 C10.0295271,28.4155781 9.63064607,27.7741441 9.38780829,27.0679082 C9.14530296,26.3369588 8.99223814,25.5789228 8.93200805,24.8106096 L28.4696146,24.8106096 C28.6598919,24.8064853 28.8131655,24.6520539 28.8172589,24.4603392 L28.8172589,24.2112579 C28.8172589,23.7286631 28.863624,23.253852 28.863624,22.7868247 C28.865472,21.16621 28.6603514,19.5520902 28.2533027,17.9842273" id="Shape" fill="#1E120C"></path>
                <path d="M56.0232725,36.1061843 L45.478852,21.507439 L55.0053513,8.44540365 C55.0053513,8.44540365 55.1219071,8.28404909 54.7877803,8.28404909 L45.1602659,8.28404909 C44.8339095,8.28404909 44.7795168,8.44540365 44.7795168,8.44540365 L40.4436386,14.69213 L36.0689086,8.47613785 C35.9653822,8.34349263 35.8030488,8.26896587 35.6337667,8.27636554 L25.7265182,8.27636554 C25.4390138,8.27636554 25.5866512,8.4684543 25.5866512,8.4684543 L26.2549048,9.38279677 L35.0820689,21.6764771 L24.7940713,36.1369185 C24.7940713,36.1369185 24.5998115,36.4137931 24.9494791,36.4137931 L34.6080751,36.4137931 C34.8356439,36.4204024 35.0458842,36.2938602 35.144232,36.0908172 L40.3348532,28.5532545 L45.5332447,36.0831337 C45.6492314,36.2743709 45.8522299,36.3976763 46.0771721,36.4137931 L55.875635,36.4137931 C56.2253026,36.4137931 56.0155021,36.1061843 56.0155021,36.1061843" id="Path" fill="#1E120C"></path>
                <path d="M68.1953106,8.27586207 L57.227869,8.27586207 C56.8449276,8.27586207 56.9061982,8.53710993 56.9061982,8.53710993 L58.4915756,36.0680239 C58.4915756,36.0680239 58.4915756,36.4137931 58.8132464,36.4137931 L66.5792979,36.4137931 C66.6700158,36.4137931 66.7569115,36.3771442 66.8203339,36.3120691 C66.8837564,36.2469941 66.9183481,36.1590135 66.9162864,36.0680239 L68.4480519,8.58321249 C68.4480519,8.58321249 68.4480519,8.27586207 68.1646753,8.27586207" id="Path" fill="#1E120C"></path>
                <path d="M89.5910427,14.3523298 C89.676151,14.3464276 89.7554134,14.3066092 89.8112855,14.2416883 C89.8671575,14.1767674 89.8950308,14.0920986 89.8887357,14.0064233 L89.8887357,8.30281039 C89.8887357,8.30281039 89.8887357,8.02608524 89.5757764,8.02608524 L84.4004987,8.02608524 L84.4004987,0.323901748 C84.4025558,0.238992561 84.3704938,0.15684155 84.3115781,0.0960646457 C84.2526624,0.0352877415 84.171881,0.00103046672 84.0875394,0.00105573364 L75.7750359,0.00105573364 C75.6886173,-0.00635882691 75.6034382,0.0255591047 75.5428529,0.0880583643 C75.4822676,0.150557624 75.4526339,0.237079525 75.4620766,0.323901748 L75.4620766,8.01071162 L71.2562094,8.01071162 C70.8669186,8.01071162 70.9279838,8.27206315 70.9279838,8.27206315 L70.9279838,14.0217969 C70.9102626,14.1040374 70.9329504,14.1898396 70.9889373,14.2523153 C71.0449242,14.314791 71.1273597,14.3462955 71.2104105,14.3369561 L75.4620766,14.3369561 L75.4620766,29.4031035 C75.4012474,30.648711 75.6643599,31.8887333 76.2253919,33.0005305 C76.7122079,33.9282746 77.4577683,34.6924353 78.3703079,35.1989581 C79.2976929,35.7079145 80.3088056,36.0438491 81.3548707,36.1905566 C82.4856633,36.3448321 83.6257818,36.4193194 84.76689,36.4137931 C85.5302053,36.4137931 86.2935206,36.4137931 87.0568359,36.4137931 C87.7928753,36.3854276 88.5267935,36.3161391 89.255184,36.2059302 L89.5834095,36.1444357 C89.5834095,36.1444357 89.8658362,36.1444357 89.8658362,35.7985293 L89.8658362,29.2109332 C89.8749711,29.1343051 89.8426642,29.0586172 89.7811638,29.0125647 C89.7196634,28.9665122 89.638385,28.9571455 89.5681432,28.9880157 L88.9803905,29.1033179 C88.6472388,29.1676018 88.310894,29.2137894 87.9728143,29.2416805 C87.5872209,29.2793713 87.1999763,29.2973303 86.812575,29.2954881 C86.3381512,29.3040878 85.8643211,29.2576613 85.4004417,29.1571256 C85.1809038,29.1174931 84.9740688,29.0252132 84.7974227,28.8880872 C84.6499134,28.7154813 84.5522293,28.5054464 84.514996,28.2808292 C84.4079272,27.8331072 84.3617063,27.3728208 84.3775992,26.9125771 L84.3775992,14.3523298 L89.5910427,14.3523298 Z" id="Path" fill="#1E120C"></path>
                <path d="M107.546516,29.6232492 C106.668935,30.0652901 105.697483,30.2806346 104.718301,30.2501873 C103.746178,30.283619 102.781411,30.068013 101.912955,29.6232492 C101.188643,29.206951 100.578122,28.6136834 100.136745,27.8972344 C99.6604375,27.1295246 99.3271057,26.2794965 99.153349,25.3894819 C98.940292,24.3955003 98.8380063,23.3803443 98.8484201,22.3631511 C98.8383921,21.3459758 98.9406734,20.3308635 99.153349,19.3368202 C99.3150683,18.4384232 99.6492056,17.5810816 100.136745,16.8135878 C100.601839,16.1034675 101.222908,15.5126295 101.951071,15.087573 C103.726758,14.2098583 105.801322,14.2098583 107.577009,15.087573 C108.309708,15.4995797 108.932456,16.0867025 109.391335,16.7981078 C109.864509,17.5746433 110.185482,18.4366729 110.336615,19.3368202 C110.732923,21.3343117 110.732923,23.3919904 110.336615,25.3894819 C110.161054,26.281431 109.822321,27.1320468 109.337973,27.8972344 C108.898942,28.6210624 108.281437,29.2160095 107.546516,29.6232492 M118.516331,16.2795294 C117.861476,14.4982282 116.834173,12.8821821 115.505159,11.5426637 C114.153707,10.2173531 112.550816,9.18506089 110.794008,8.50859282 C106.865822,7.09483688 102.578403,7.09483688 98.6502164,8.50859282 C96.9058352,9.18738919 95.3158569,10.2197177 93.9771816,11.5426637 C92.6374133,12.8808855 91.597381,14.4965061 90.927893,16.2795294 C90.2168172,18.2281136 89.8653666,20.293024 89.8911349,22.370891 C89.8633776,24.4514383 90.2148758,26.519253 90.927893,28.4699927 C92.2743271,32.0466439 95.0835987,34.8537566 98.6273467,36.1635295 C100.574965,36.9003807 102.640016,37.2651345 104.718301,37.2393862 C106.796895,37.2714099 108.863739,36.9172881 110.816878,36.1944894 C112.577654,35.5406852 114.18293,34.5174062 115.528029,33.1913784 C116.847876,31.8622996 117.874296,30.2634712 118.539201,28.5009526 C119.255999,26.5512488 119.60762,24.4827088 119.575959,22.4018509 C119.605599,20.3236735 119.254027,18.2580467 118.539201,16.3104893" id="Shape" fill="#1E120C"></path>
                <path d="M15.9574675,0.221717683 L11.6449619,5.49291865 C11.6449619,5.49291865 11.3798169,5.79099251 11.7151474,5.79099251 L16.7762976,5.79099251 C17.0063962,5.80705933 17.2334718,5.73092422 17.4079666,5.57920319 L24.6370672,0.221717683 C24.6370672,0.221717683 24.9022122,0.00208430938 24.5824785,0.00208430938 L16.4721607,0.00208430938 C16.2751094,-0.0144087023 16.0826161,0.0677333108 15.9574675,0.221717683" id="Path" fill="#1E120C"></path>
                <path d="M127,10.7515053 C126.999822,11.9553447 126.27553,13.0600967 125.11861,13.6211621 C124.557456,13.9151896 123.922752,14.069493 123.277079,14.0689126 C122.631023,14.0722504 121.995557,13.9177619 121.435549,13.6211621 C120.588098,13.1998177 119.963744,12.4787346 119.706509,11.6242493 C119.449275,10.769764 119.581375,9.85567081 120.072338,9.09282907 C120.403189,8.58395483 120.873232,8.16387134 121.435549,7.87450933 C121.997592,7.5849332 122.633114,7.43802961 123.277079,7.44883135 C123.920697,7.44079828 124.555451,7.58752463 125.11861,7.87450933 C125.684399,8.15955758 126.155549,8.58063065 126.48182,9.09282907 C126.803259,9.59529577 126.971276,10.1683783 126.968112,10.7515053 M126.274549,10.7515053 C126.285648,10.0331686 125.963816,9.34449662 125.389657,8.85797225 C124.832011,8.3400415 124.069108,8.05379936 123.277079,8.06533049 C122.48333,8.05685367 121.719198,8.34247929 121.156529,8.85797225 C120.60133,9.3553767 120.288137,10.0382946 120.288137,10.7515053 C120.288137,11.464716 120.60133,12.147634 121.156529,12.6450384 C121.723612,13.1517743 122.486933,13.4291709 123.277079,13.4156623 C124.06529,13.4313272 124.827009,13.1534682 125.389657,12.6450384 C125.973932,12.1626714 126.307356,11.474012 126.306438,10.7515053 M121.634848,8.97540066 L123.404631,8.97540066 C123.79084,8.94391001 124.17628,9.04305878 124.488822,9.25429313 C124.716949,9.43916774 124.842798,9.70861092 124.831618,9.98822068 C124.833301,10.2143027 124.73553,10.4313888 124.56057,10.5900413 C124.345397,10.7917121 124.066275,10.9253361 123.763371,10.9716836 C123.880575,11.009954 123.990783,11.0643966 124.090222,11.1331477 C124.213255,11.2404273 124.318064,11.3641321 124.40113,11.5001114 C124.40113,11.5001114 124.608402,11.8597359 125.054834,12.52761 L123.882951,12.52761 C123.67008,12.1031746 123.419436,11.6956784 123.133583,11.3092903 C123.034398,11.198465 122.890494,11.1295738 122.734983,11.1184691 L122.663236,11.1184691 L122.615404,12.5202707 L121.634848,12.5202707 L121.634848,8.97540066 Z M122.615404,10.4872914 L123.037919,10.4872914 C123.247623,10.5055878 123.457977,10.4591097 123.635819,10.3551845 C123.754305,10.2853991 123.821653,10.1613937 123.811203,10.0322563 C123.816216,9.91012037 123.749135,9.79502745 123.635819,9.73134603 C123.469558,9.62757198 123.270144,9.57844325 123.069807,9.5918998 L122.615404,9.5918998 L122.615404,10.4872914 Z" id="Shape" fill="#1E120C"></path>
            </g>
        </g>
    </g>
</svg>