<?xml version="1.0" encoding="UTF-8"?>
<svg width="140px" height="140px" viewBox="0 0 140 140" version="1.1" xmlns="http://www.w3.org/2000/svg" xmlns:xlink="http://www.w3.org/1999/xlink">
    <!-- Generator: Sketch 64 (93537) - https://sketch.com -->
    <title>head-formatos</title>
    <desc>Created with Sketch.</desc>
    <g id="Welcome" stroke="none" stroke-width="1" fill="none" fill-rule="evenodd">
        <g id="HOME---Dónde-Comprar---Nuestros-Formatos---Desktop-HD" transform="translate(-1179.000000, -211.000000)" fill="#FFEB00" fill-rule="nonzero">
            <g id="head-formatos" transform="translate(1179.000000, 211.000000)">
                <path d="M127.884369,114.441071 L127.884369,68.1596374 C135.019379,64.8869323 140,57.5938415 140,49.1343688 C140,48.9891052 139.994659,48.8459779 139.991455,48.7017822 C140.042725,47.846222 139.820557,46.9831849 139.337769,46.2461852 C139.335632,46.2429811 139.333496,46.2397767 139.33136,46.2365723 L129.947967,31.7999268 C129.928742,31.7700195 129.909515,31.7390443 129.890289,31.709137 L122.5,20.3411865 L122.5,12.1156312 C122.5,5.43457031 117.06543,0 110.384369,0 L29.6156312,0 C22.9345703,0 17.5,5.43457031 17.5,12.1156312 L17.5,20.3411865 L0.66864,46.2365723 C0.666503906,46.2408447 0.664367813,46.2451172 0.662231445,46.2483216 C0.191192695,46.9671631 -0.0267028672,47.8024291 0.00961302344,48.6312865 C0.0053405625,48.7989808 0,48.9656068 0,49.1343688 C0,57.5938415 4.98062141,64.8869323 12.1156312,68.1596374 L12.1156312,114.441071 C5.37582391,114.79248 0,120.3862 0,127.211456 C0,134.263153 5.73684699,140 12.7885436,140 L127.211456,140 C134.263153,140 140,134.263153 140,127.211456 C140,120.3862 134.624176,114.79248 127.884369,114.441071 L127.884369,114.441071 Z M122.737122,61.4743041 C122.476501,61.5469362 122.214813,61.6110228 121.952057,61.6654968 C121.946716,61.6665651 121.940308,61.6676331 121.934967,61.6697692 C121.414795,61.7776491 120.889282,61.8492126 120.361633,61.8876647 C120.316772,61.8908691 120.269775,61.8940736 120.224915,61.897278 C119.973908,61.9122314 119.7229,61.9229127 119.470825,61.9229127 C119.272156,61.9229127 119.074554,61.9165039 118.878021,61.907959 C118.815003,61.9047546 118.753052,61.8994141 118.690033,61.8951416 C118.555451,61.8865967 118.421936,61.8769837 118.288422,61.8630983 C118.216858,61.8566895 118.145294,61.8481445 118.07373,61.8406677 C117.948761,61.8257142 117.823792,61.8096924 117.69989,61.7915345 C117.628326,61.7808532 117.557831,61.7701722 117.487335,61.7584229 C117.358093,61.7370605 117.228851,61.7135619 117.100677,61.6879271 C117.039795,61.676178 116.977844,61.6644287 116.91803,61.6516113 C116.737518,61.6131592 116.560211,61.5715026 116.382904,61.5245055 C116.375427,61.5223695 116.367951,61.5213014 116.360474,61.519165 C116.17569,61.4700319 115.993042,61.416626 115.812531,61.3589479 C115.755921,61.3407897 115.701447,61.3215638 115.645905,61.3023376 C115.519867,61.2617493 115.395966,61.2190247 115.272064,61.1730957 C115.207977,61.148529 115.14389,61.1239623 115.079803,61.0993958 C114.965515,61.0545348 114.851227,61.0086061 114.738007,60.9605407 C114.67392,60.9338379 114.610901,60.9071351 114.547882,60.8782959 C114.429321,60.8270264 114.312897,60.7714844 114.19754,60.7159424 C114.143066,60.6892396 114.088592,60.6646729 114.035187,60.63797 C113.879242,60.5589294 113.724365,60.4788209 113.572693,60.3944398 C113.560944,60.3880309 113.549194,60.3816224 113.537445,60.3752136 C113.372955,60.2833558 113.21167,60.1872253 113.052521,60.0889587 C113.005524,60.0590514 112.958527,60.0280762 112.91153,59.9981689 C112.800446,59.9266052 112.689362,59.8550416 112.580414,59.7792054 C112.524872,59.7418213 112.470398,59.7033691 112.415924,59.6638489 C112.315521,59.5933532 112.216187,59.5207214 112.116852,59.4459534 C112.063446,59.4053649 112.008972,59.3647767 111.955566,59.3231201 C111.855163,59.2440795 111.754761,59.162903 111.656494,59.0817259 C111.610565,59.0432741 111.563568,59.0048216 111.517639,58.9663698 C111.389465,58.8563538 111.263428,58.7442018 111.139526,58.6299134 C111.126709,58.617096 111.111755,58.6053467 111.098938,58.5925293 C110.961151,58.4643555 110.827637,58.3319092 110.696258,58.1983948 C110.658874,58.1599427 110.622559,58.1204225 110.585174,58.0819701 C110.492249,57.9837037 110.400391,57.8854369 110.310669,57.7850342 C110.265808,57.735901 110.222015,57.6846315 110.178223,57.63443 C110.098114,57.5415039 110.018005,57.4464417 109.938965,57.3513795 C109.895172,57.2979736 109.852448,57.2456361 109.809723,57.1911621 C109.730682,57.0918275 109.65271,56.9892884 109.576874,56.8867493 C109.53949,56.8376159 109.502106,56.7884827 109.46579,56.7382812 C109.370728,56.605835 109.277801,56.4712526 109.187012,56.3356019 C109.173126,56.3142396 109.158173,56.2939453 109.143219,56.272583 C109.039612,56.114502 108.939209,55.9532165 108.84201,55.7897949 C108.81424,55.7438659 108.788605,55.6968688 108.761902,55.6498718 C108.693542,55.5323792 108.626251,55.4138184 108.562164,55.2931214 C108.529053,55.233307 108.498077,55.1713561 108.467102,55.1104736 C108.409424,55.0004577 108.353882,54.890442 108.300476,54.7782897 C108.269501,54.7142028 108.239593,54.6490479 108.209686,54.5849609 C108.156281,54.4696045 108.105011,54.35318 108.05481,54.2356872 C108.029175,54.1748047 108.002472,54.1149902 107.977905,54.0541077 C107.919159,53.907776 107.862549,53.760376 107.808075,53.6129759 C107.796326,53.5798646 107.783508,53.547821 107.771759,53.5147096 C107.707672,53.3341979 107.64679,53.1504821 107.590179,52.9667663 C107.574158,52.9122923 107.559204,52.8578187 107.543182,52.8033447 C107.514343,52.702942 107.486572,52.601471 107.459869,52.501068 L131.486053,52.501068 C130.328216,56.8547057 126.978607,60.2886963 122.737122,61.4743041 L122.737122,61.4743041 Z M98.3712767,52.9656982 C98.3146667,53.1504821 98.2537842,53.3331299 98.1896973,53.5147096 C98.1779479,53.547821 98.1651305,53.5787962 98.1533815,53.6119079 C98.0989075,53.760376 98.0422975,53.907776 97.9835511,54.0530397 C97.9589844,54.1149902 97.9322816,54.1748047 97.9066468,54.2356872 C97.8564453,54.352112 97.8051758,54.4685364 97.7528382,54.5838929 C97.722931,54.6490479 97.6919557,54.7131348 97.6609802,54.7772217 C97.6075745,54.8893737 97.5520325,55.0004577 97.4954225,55.1104736 C97.4633789,55.1713561 97.4324036,55.2322389 97.399292,55.2931214 C97.3352051,55.4138184 97.2679137,55.5313112 97.1995544,55.6498718 C97.1728516,55.6958008 97.1472168,55.7438659 97.1194459,55.7897949 C97.0222474,55.9521484 96.9218444,56.1134339 96.8182373,56.271515 C96.8032838,56.2928773 96.7883301,56.3142396 96.7744446,56.3356019 C96.6836549,56.4712526 96.5907288,56.605835 96.4956666,56.7372132 C96.4593506,56.7874147 96.4219665,56.8365479 96.3845827,56.8867493 C96.3087464,56.9892884 96.2307741,57.0907591 96.1517334,57.1911621 C96.1090088,57.2445677 96.0662842,57.2979736 96.0224915,57.3503112 C95.9434509,57.4464417 95.8644105,57.5404359 95.7832337,57.63443 C95.7394408,57.6846315 95.6956481,57.7348327 95.6507874,57.7850342 C95.5610657,57.8854369 95.4692077,57.9837037 95.3762819,58.080902 C95.3388978,58.1204225 95.3025817,58.1599427 95.2651979,58.1973268 C95.1338196,58.3319092 95.0003053,58.4643555 94.8625182,58.5925293 C94.8497009,58.6042786 94.8347474,58.617096 94.82193,58.6288451 C94.6980286,58.7442018 94.5719909,58.8552858 94.4438171,58.9653014 C94.397888,59.0048216 94.3508913,59.0422057 94.3049622,59.0806579 C94.2066956,59.162903 94.1062927,59.2430114 94.00589,59.3220521 C93.9524841,59.3637084 93.8980104,59.4053649 93.8446045,59.4459534 C93.7463379,59.5196533 93.6470032,59.5922852 93.5466003,59.6638489 C93.4910583,59.7023011 93.4365846,59.7407532 93.3810423,59.7792054 C93.2720947,59.8539733 93.1610107,59.9266052 93.0499268,59.9981689 C93.0029297,60.0280762 92.9570007,60.0590514 92.9089355,60.0878906 C92.7497864,60.1872253 92.588501,60.2833558 92.4240111,60.3752136 C92.412262,60.3816224 92.4005127,60.3869629 92.3887634,60.3933717 C92.2370911,60.4777526 92.0822142,60.5589294 91.9262695,60.6369017 C91.8728639,60.6636048 91.81839,60.6892396 91.763916,60.7148743 C91.6485596,60.7714844 91.5321351,60.8259583 91.4135742,60.8782959 C91.3505554,60.906067 91.2875365,60.9327698 91.2234498,60.9605407 C91.1102295,61.0075378 90.9970091,61.0534668 90.881653,61.0983275 C90.8175658,61.1239623 90.7534791,61.148529 90.689392,61.1720277 C90.5654909,61.2179564 90.4415892,61.260681 90.3166198,61.3023376 C90.2600098,61.3204955 90.2055358,61.3407897 90.1489258,61.3578796 C89.9684144,61.4155579 89.7857666,61.4689636 89.6009827,61.518097 C89.5935059,61.5202331 89.586029,61.5223695 89.5785521,61.5245055 C89.4012451,61.5704346 89.2228698,61.6120911 89.0444948,61.6516113 C88.983612,61.6644287 88.9216614,61.67511 88.8607787,61.6868591 C88.7326048,61.7124938 88.603363,61.7370605 88.4741211,61.7584229 C88.4036256,61.7701722 88.3331299,61.7808532 88.2615661,61.7904662 C88.1376647,61.8086243 88.0126953,61.8246459 87.8877259,61.8395996 C87.8161621,61.8481445 87.7456666,61.8556214 87.6730345,61.8630983 C87.5405885,61.8759154 87.4060059,61.8855286 87.2714232,61.8940736 C87.2084046,61.898346 87.1464538,61.9036865 87.0834349,61.9068909 C86.8869017,61.9165039 86.6893005,61.9218444 86.4906312,61.9218444 C86.2908936,61.9218444 86.0932923,61.9165039 85.8967591,61.9068909 C85.8337402,61.9036865 85.7717897,61.898346 85.7098389,61.8940736 C85.5752565,61.8855286 85.4406738,61.8759154 85.3071595,61.8630983 C85.2355957,61.8556214 85.1640319,61.8481445 85.0935364,61.8395996 C84.9674987,61.8246459 84.8425293,61.8086243 84.7186279,61.7904662 C84.6481322,61.7797852 84.5776367,61.7701722 84.5071413,61.7584229 C84.3768311,61.7370605 84.2486572,61.7124938 84.1194154,61.6868591 C84.0585326,61.67511 83.9976501,61.6644287 83.9367676,61.6516113 C83.7573242,61.6131592 83.5789489,61.5704346 83.40271,61.5245055 C83.3952331,61.5223695 83.3877565,61.5202331 83.3792116,61.518097 C83.1954955,61.4689636 83.012848,61.4155579 82.8312682,61.3578796 C82.7757262,61.3407897 82.7201843,61.3204955 82.6646423,61.3023376 C82.5396729,61.260681 82.4147034,61.2179564 82.2918701,61.1720277 C82.2267152,61.148529 82.1626282,61.1239623 82.0985413,61.0983275 C81.9842529,61.0534668 81.8699645,61.0075378 81.7567445,60.9605407 C81.6937256,60.9327698 81.6296387,60.906067 81.5666198,60.8782959 C81.4491273,60.8259583 81.3327025,60.7714844 81.216278,60.7148743 C81.1618041,60.6892396 81.1073304,60.6636048 81.0539245,60.6369017 C80.8979798,60.5589294 80.7441712,60.4777526 80.5914307,60.3933717 C80.5807494,60.3869629 80.5679323,60.3816224 80.5561829,60.3752136 C80.3927611,60.2833558 80.2314759,60.1872253 80.0712585,60.0878906 C80.0242614,60.0590514 79.9783327,60.0280762 79.9313353,59.9981689 C79.8191833,59.9266052 79.7091673,59.8539733 79.5991517,59.7792054 C79.5436097,59.7407532 79.4891357,59.7023011 79.4346618,59.6638489 C79.3342591,59.5922852 79.2349245,59.5196533 79.1366576,59.4459534 C79.0821839,59.4053649 79.028778,59.3637084 78.9753724,59.3220521 C78.8739014,59.2430114 78.7745667,59.162903 78.6763001,59.0806579 C78.629303,59.0422057 78.582306,59.0048216 78.537445,58.9653014 C78.4092712,58.8563538 78.2832337,58.7442018 78.1593323,58.6288451 C78.1454466,58.617096 78.1315612,58.6042786 78.1176758,58.5925293 C77.980957,58.4632874 77.8463744,58.3319092 77.7149964,58.1973268 C77.6776123,58.1588744 77.6412963,58.1193542 77.6049805,58.080902 C77.5120544,57.9837037 77.4191283,57.8854369 77.3294069,57.7850342 C77.2856139,57.7348327 77.2418213,57.6846315 77.1980286,57.63443 C77.1168519,57.5404359 77.0367432,57.4464417 76.9587708,57.3503112 C76.9149779,57.2979736 76.8722533,57.2445677 76.8295287,57.1911621 C76.7494202,57.0907591 76.6725159,56.9892884 76.5956116,56.8867493 C76.5592956,56.8365479 76.5219115,56.7874147 76.4855957,56.7372132 C76.3894655,56.605835 76.2965394,56.4712526 76.2068177,56.3356019 C76.1918639,56.3142396 76.1769105,56.2928773 76.1630248,56.271515 C76.0594177,56.1134339 75.959015,55.9521484 75.8618164,55.7897949 C75.8340455,55.7438659 75.8084108,55.6958008 75.7817077,55.6498718 C75.7122803,55.5313112 75.6460573,55.4127503 75.580902,55.2931214 C75.5488587,55.2322389 75.5168151,55.1713561 75.4858398,55.1104736 C75.4292298,55.0004577 75.3736878,54.8893737 75.3192139,54.7772217 C75.2882386,54.7131348 75.2583314,54.6490479 75.2284241,54.5838929 C75.1750182,54.4696045 75.1237487,54.352112 75.0746155,54.2356872 C75.0489808,54.1748047 75.022278,54.1149902 74.9977112,54.0530397 C74.9378968,53.907776 74.8812865,53.760376 74.8278809,53.6119079 C74.8161315,53.5798646 74.8022461,53.547821 74.7904968,53.5147096 C74.7264098,53.3331299 74.6665954,53.1504821 74.6099854,52.9656982 C74.5928955,52.9112243 74.5790101,52.8567506 74.5629883,52.8022767 C74.5330811,52.702942 74.5063782,52.601471 74.4796752,52.5 L98.5015869,52.5 C98.4748841,52.601471 98.447113,52.7018737 98.4182741,52.8022767 C98.4022523,52.8567506 98.3872985,52.9112243 98.3712767,52.9656982 Z M65.3900146,52.9656982 C65.3334046,53.1504821 65.2735902,53.3331299 65.2095032,53.5147096 C65.1977539,53.547821 65.1838685,53.5787962 65.1721191,53.6119079 C65.1187135,53.760376 65.0621032,53.907776 65.0022887,54.0530397 C64.977722,54.1149902 64.9510192,54.1748047 64.9253845,54.2356872 C64.8762513,54.352112 64.8249818,54.4685364 64.7715759,54.5838929 C64.7416686,54.6490479 64.7117614,54.7131348 64.6807861,54.7772217 C64.6263122,54.8893737 64.5707702,55.0004577 64.5141602,55.1104736 C64.4831849,55.1713561 64.4511413,55.2322389 64.419098,55.2931214 C64.3539427,55.4138184 64.2877197,55.5313112 64.2182923,55.6498718 C64.1915892,55.6958008 64.1659545,55.7438659 64.1381836,55.7897949 C64.040985,55.9521484 63.9416504,56.1134339 63.8369752,56.271515 C63.8230895,56.2928773 63.8081361,56.3142396 63.7931823,56.3356019 C63.7034606,56.4712526 63.6105345,56.605835 63.5144043,56.7372132 C63.4791566,56.7874147 63.4407044,56.8365479 63.4043884,56.8867493 C63.3274841,56.9892884 63.2505798,57.0907591 63.1704713,57.1911621 C63.1277467,57.2445677 63.0850221,57.2979736 63.0412292,57.3503112 C62.9632568,57.4464417 62.8831481,57.5404359 62.8019714,57.63443 C62.7581787,57.6846315 62.7143861,57.7348327 62.6705931,57.7850342 C62.5808717,57.8854369 62.4879456,57.9837037 62.3950195,58.080902 C62.3587037,58.1204225 62.3223877,58.1599427 62.2850036,58.1973268 C62.1536256,58.3319092 62.019043,58.4643555 61.8823242,58.5925293 C61.8684388,58.6042786 61.8545534,58.617096 61.8406677,58.6288451 C61.7167663,58.7442018 61.5907288,58.8552858 61.462555,58.9653014 C61.417694,59.0048216 61.370697,59.0422057 61.3236999,59.0806579 C61.2254333,59.162903 61.1260986,59.2430114 61.0246276,59.3220521 C60.971222,59.3637084 60.9178161,59.4053649 60.8633424,59.4459534 C60.7650755,59.5196533 60.6657409,59.5922852 60.5653382,59.6638489 C60.5108643,59.7023011 60.4563903,59.7407532 60.4008483,59.7792054 C60.2908327,59.8539733 60.1808167,59.9266052 60.0686647,59.9981689 C60.0216673,60.0280762 59.9757386,60.0590514 59.9287415,60.0878906 C59.7685241,60.1872253 59.6072389,60.2833558 59.4438171,60.3752136 C59.4320677,60.3816224 59.4192506,60.3869629 59.4085693,60.3933717 C59.2558288,60.4777526 59.1020202,60.5589294 58.9460755,60.6369017 C58.8926696,60.6636048 58.8381959,60.6892396 58.783722,60.7148743 C58.6672975,60.7714844 58.5508727,60.8259583 58.4333802,60.8782959 C58.3703613,60.906067 58.3062744,60.9327698 58.2432555,60.9605407 C58.1300355,61.0075378 58.0157471,61.0534668 57.9014587,61.0983275 C57.8373718,61.1239623 57.7732848,61.148529 57.7081299,61.1720277 C57.5852966,61.2179564 57.4603271,61.260681 57.3353577,61.3023376 C57.2798157,61.3204955 57.2242737,61.3407897 57.1687318,61.3578796 C56.987152,61.4155579 56.8045045,61.4689636 56.6207884,61.518097 C56.6122435,61.5202331 56.6047669,61.5223695 56.59729,61.5245055 C56.4210511,61.5704346 56.2426758,61.6120911 56.0632324,61.6516113 C56.0023499,61.6644287 55.9414674,61.67511 55.8805846,61.6868591 C55.7513428,61.7124938 55.6231689,61.7370605 55.4928587,61.7584229 C55.4223633,61.7701722 55.3518678,61.7808532 55.2813721,61.7904662 C55.1574707,61.8086243 55.0325013,61.8246459 54.9064636,61.8395996 C54.8359681,61.8481445 54.7644043,61.8556214 54.6928405,61.8630983 C54.5593262,61.8759154 54.4247435,61.8855286 54.2901611,61.8940736 C54.2282103,61.898346 54.1662598,61.9036865 54.1032409,61.9068909 C53.9067077,61.9165039 53.7091064,61.9218444 53.5093688,61.9218444 C53.3106995,61.9218444 53.1130983,61.9165039 52.9165651,61.9068909 C52.8535462,61.9036865 52.7915954,61.898346 52.7285768,61.8940736 C52.5939941,61.8855286 52.4604798,61.8759154 52.3269655,61.8630983 C52.2554017,61.8556214 52.1838379,61.8481445 52.1122741,61.8395996 C51.9873047,61.8246459 51.8623353,61.8086243 51.7384339,61.7904662 C51.6668701,61.7797852 51.5963744,61.7701722 51.5258789,61.7584229 C51.396637,61.7370605 51.2673952,61.7124938 51.1392213,61.6868591 C51.0783386,61.67511 51.016388,61.6644287 50.9555052,61.6516113 C50.7760619,61.6131592 50.5976868,61.5704346 50.4214479,61.5245055 C50.413971,61.5223695 50.4064941,61.5202331 50.3990173,61.518097 C50.2142334,61.4689636 50.0315856,61.4155579 49.8510742,61.3578796 C49.7944642,61.3407897 49.7399902,61.3204955 49.6833802,61.3023376 C49.5584108,61.260681 49.4345091,61.2179564 49.310608,61.1720277 C49.2465209,61.148529 49.1824342,61.1239623 49.118347,61.0983275 C49.0029909,61.0534668 48.8897705,61.0075378 48.7765502,60.9605407 C48.7124635,60.9327698 48.6494446,60.906067 48.5864258,60.8782959 C48.4678649,60.8259583 48.3514404,60.7714844 48.236084,60.7148743 C48.18161,60.6892396 48.1271361,60.6636048 48.0737305,60.6369017 C47.9177858,60.5589294 47.7629089,60.4777526 47.6112366,60.3933717 C47.5994873,60.3869629 47.587738,60.3816224 47.5759889,60.3752136 C47.411499,60.2833558 47.2502136,60.1872253 47.0910645,60.0878906 C47.0429993,60.0590514 46.9970703,60.0280762 46.9500732,59.9981689 C46.8389893,59.9266052 46.7279053,59.8539733 46.6189577,59.7792054 C46.5634154,59.7407532 46.5089417,59.7023011 46.4533997,59.6638489 C46.3529968,59.5922852 46.2536621,59.5196533 46.1553955,59.4459534 C46.1019896,59.4053649 46.0475159,59.3637084 45.99411,59.3220521 C45.8937073,59.2430114 45.7933044,59.162903 45.6950378,59.0806579 C45.6491087,59.0422057 45.602112,59.0048216 45.5561829,58.9653014 C45.4280091,58.8563538 45.3019714,58.7442018 45.17807,58.6288451 C45.1652526,58.617096 45.1502991,58.6042786 45.1374818,58.5925293 C44.9996947,58.4632874 44.8661804,58.3319092 44.7348021,58.1973268 C44.6974183,58.1588744 44.6611022,58.1193542 44.6237181,58.080902 C44.5307923,57.9837037 44.4389343,57.8854369 44.3492126,57.7850342 C44.3043519,57.7348327 44.2605592,57.6846315 44.2167663,57.63443 C44.1355895,57.5404359 44.0565491,57.4464417 43.9775085,57.3503112 C43.9337158,57.2979736 43.8909912,57.2445677 43.8482666,57.1911621 C43.7692259,57.0907591 43.6912536,56.9892884 43.6154173,56.8867493 C43.5780335,56.8365479 43.5406494,56.7874147 43.5043334,56.7372132 C43.4092712,56.605835 43.3163451,56.4712526 43.2255554,56.3356019 C43.2116699,56.3142396 43.1967162,56.2928773 43.1817627,56.271515 C43.0781556,56.1134339 42.9777526,55.9521484 42.8805541,55.7897949 C42.8527832,55.7438659 42.8271484,55.6958008 42.8004456,55.6498718 C42.7320862,55.5313112 42.6647949,55.4127503 42.600708,55.2931214 C42.5675964,55.2322389 42.5366211,55.1713561 42.5045775,55.1104736 C42.4479675,55.0004577 42.3924255,54.8893737 42.3390198,54.7772217 C42.3080443,54.7131348 42.277069,54.6490479 42.2471618,54.5838929 C42.1948242,54.4696045 42.1435547,54.352112 42.0933532,54.2356872 C42.0677184,54.1748047 42.0410156,54.1149902 42.0164489,54.0530397 C41.9577025,53.907776 41.9010925,53.760376 41.8466185,53.6119079 C41.8348695,53.5798646 41.8220521,53.547821 41.8103027,53.5147096 C41.7462158,53.3331299 41.6853333,53.1504821 41.6287233,52.9656982 C41.6127015,52.9112243 41.5977477,52.8567506 41.5817259,52.8022767 C41.552887,52.702942 41.5251159,52.601471 41.4984131,52.5 L65.5203248,52.5 C65.4936218,52.601471 65.4658509,52.7018737 65.4370117,52.8022767 C65.4209899,52.8567506 65.4071045,52.9112243 65.3900146,52.9656982 Z M24.9244691,23.7399291 C25.3506471,23.0841064 25.5770873,22.3193359 25.5770873,21.5385436 L25.5770873,12.1156312 C25.5770873,9.8886107 27.3886107,8.07708727 29.6156312,8.07708727 L110.384369,8.07708727 C112.611389,8.07708727 114.422913,9.8886107 114.422913,12.1156312 L114.422913,21.5385436 C114.422913,22.3193359 114.649353,23.0841064 115.075531,23.7399291 L128.518829,44.4229127 L11.4801025,44.4229127 L24.9244691,23.7399291 Z M8.5139466,52.5 L32.5401305,52.5 C32.5134277,52.601471 32.4856569,52.7018737 32.4568177,52.8022767 C32.4407959,52.8567506 32.4258424,52.9112243 32.4098206,52.9656982 C32.3532103,53.1504821 32.2923278,53.3331299 32.2282409,53.5147096 C32.2164916,53.547821 32.2036745,53.5787962 32.1919251,53.6119079 C32.1374512,53.760376 32.0808411,53.907776 32.0220947,54.0530397 C31.997528,54.1149902 31.9708252,54.1748047 31.9451904,54.2356872 C31.8949889,54.352112 31.8437194,54.4685364 31.7903138,54.5838929 C31.7604066,54.6490479 31.7304993,54.7131348 31.6995241,54.7772217 C31.6461182,54.8893737 31.5905762,55.0004577 31.5328978,55.1104736 C31.5019225,55.1713561 31.4698792,55.2322389 31.4378356,55.2931214 C31.3737487,55.4138184 31.3064577,55.5313112 31.2380983,55.6498718 C31.2113952,55.6958008 31.1857604,55.7438659 31.1579896,55.7897949 C31.060791,55.9521484 30.960388,56.1134339 30.8567809,56.271515 C30.8418275,56.2928773 30.8268737,56.3142396 30.8129883,56.3356019 C30.7221986,56.4712526 30.6292725,56.605835 30.5342103,56.7372132 C30.4978942,56.7874147 30.4605104,56.8365479 30.4231263,56.8867493 C30.34729,56.9892884 30.2693177,57.0907591 30.190277,57.1911621 C30.1475524,57.2445677 30.1048278,57.2979736 30.0610352,57.3503112 C29.9819948,57.4464417 29.9029541,57.5404359 29.8217773,57.63443 C29.7779847,57.6846315 29.734192,57.7348327 29.6893311,57.7850342 C29.5996094,57.8854369 29.5077513,57.9837037 29.4148255,58.080902 C29.3774414,58.1204225 29.3411256,58.1599427 29.3037415,58.1973268 C29.1723633,58.3319092 29.0388489,58.4643555 28.9010619,58.5925293 C28.8871764,58.6042786 28.873291,58.617096 28.8604736,58.6288451 C28.7365723,58.7442018 28.6105345,58.8552858 28.4823607,58.9653014 C28.436432,59.0048216 28.3894349,59.0422057 28.3435059,59.0806579 C28.2452393,59.162903 28.1448366,59.2430114 28.0444336,59.3220521 C27.991028,59.3637084 27.936554,59.4053649 27.8831481,59.4459534 C27.7838135,59.5196533 27.6844788,59.5922852 27.5840759,59.6638489 C27.5296022,59.7023011 27.4751282,59.7407532 27.4195862,59.7792054 C27.3106384,59.8539733 27.1995544,59.9266052 27.0884704,59.9981689 C27.0414733,60.0280762 26.9955443,60.0590514 26.9474792,60.0878906 C26.7883301,60.1872253 26.6270446,60.2833558 26.462555,60.3752136 C26.4508057,60.3816224 26.4390563,60.3869629 26.4273073,60.3933717 C26.2756348,60.4777526 26.1207581,60.5589294 25.9648132,60.6369017 C25.9114075,60.6636048 25.8569336,60.6892396 25.8024596,60.7148743 C25.6871032,60.7714844 25.5706787,60.8259583 25.4521179,60.8782959 C25.389099,60.906067 25.3260804,60.9327698 25.2619935,60.9605407 C25.1487731,61.0075378 25.035553,61.0534668 24.9201966,61.0983275 C24.8561097,61.1239623 24.7920228,61.148529 24.7279359,61.1720277 C24.6040345,61.2179564 24.4790651,61.260681 24.3540954,61.3023376 C24.2985534,61.3204955 24.2440795,61.3407897 24.1874694,61.3578796 C24.006958,61.4155579 23.8243102,61.4689636 23.6395264,61.518097 C23.6320495,61.5202331 23.6245729,61.5223695 23.617096,61.5245055 C23.4397887,61.5704346 23.2614134,61.6120911 23.0819701,61.6516113 C23.0221556,61.6644287 22.9602051,61.67511 22.8993226,61.6868591 C22.7711487,61.7124938 22.6419069,61.7370605 22.5126647,61.7584229 C22.4421693,61.7701722 22.3716735,61.7808532 22.30011,61.7904662 C22.1762084,61.8086243 22.0512389,61.8246459 21.9262695,61.8395996 C21.8547057,61.8481445 21.7842103,61.8556214 21.7115784,61.8630983 C21.5780638,61.8759154 21.4445495,61.8855286 21.3099671,61.8940736 C21.2469482,61.898346 21.1849974,61.9036865 21.1219788,61.9068909 C20.9254456,61.917572 20.7278444,61.9229127 20.5291748,61.9229127 C20.2781677,61.9229127 20.0260925,61.9132995 19.7750853,61.897278 C19.7291566,61.8940736 19.6832275,61.8919372 19.6383666,61.888733 C19.1107178,61.8492126 18.5852051,61.7776491 18.0650329,61.6697692 C18.0596924,61.6687012 18.0532838,61.6676331 18.047943,61.6665651 C17.7851868,61.6110228 17.5234987,61.5469362 17.2628783,61.4743041 C13.0213929,60.2886963 9.67178352,56.8547057 8.5139466,52.5 Z M21.4797975,69.9754333 C21.5374756,69.9732972 21.5940856,69.9711608 21.651764,69.9679564 C21.9540404,69.9508666 22.254181,69.9273682 22.5532532,69.8974609 C22.6109313,69.8921204 22.6686097,69.8857116 22.7273561,69.879303 C23.033905,69.8451234 23.3393861,69.8077393 23.6427308,69.7596741 C23.6544798,69.7586061 23.6672975,69.7554017 23.6790466,69.7543334 C23.9749147,69.7073366 24.2686462,69.6528626 24.5613099,69.5930482 C24.6136475,69.5823669 24.6670534,69.5727539 24.720459,69.5610046 C25.0088502,69.5001221 25.2940368,69.4328307 25.5781556,69.3601989 C25.6358337,69.3452454 25.692444,69.3292236 25.7501221,69.3142702 C26.0395814,69.2362975 26.3269043,69.1551208 26.6110228,69.0653991 C26.6323854,69.0579225 26.6537474,69.0504456 26.67511,69.0440368 C26.9474792,68.9564515 27.2177123,68.8624573 27.4847412,68.7641907 C27.5338744,68.7460326 27.5830078,68.7300111 27.6310729,68.7107848 C27.9023743,68.6093138 28.169403,68.5014343 28.4353639,68.3882142 C28.4909056,68.3647155 28.5464479,68.3401491 28.6030579,68.3155823 C28.8711549,68.1980895 29.1371155,68.0773926 29.3988037,67.9492187 C29.4265748,67.9353333 29.4532777,67.9214479 29.4799805,67.9075622 C29.7299193,67.7847291 29.9755859,67.6565553 30.2191162,67.5230407 C30.2618408,67.4995423 30.3056335,67.4760436 30.3483581,67.4525452 C30.5993652,67.3136901 30.8460999,67.1684264 31.0906982,67.0188903 C31.1430358,66.986847 31.1953737,66.9537354 31.2477112,66.9206237 C31.4923096,66.7678834 31.7347718,66.6108704 31.9729616,66.4485169 C32.0028685,66.4271546 32.032776,66.4057923 32.062683,66.385498 C32.2869873,66.2295534 32.5091553,66.0682679 32.7270508,65.903778 C32.7644349,65.8760071 32.801819,65.8493041 32.8381348,65.8215332 C33.0656432,65.6474304 33.2888795,65.4690553 33.5089111,65.2853392 C33.5559082,65.245819 33.6029053,65.2062988 33.6499023,65.1667786 C33.8699342,64.9809264 34.0856934,64.7918701 34.2971803,64.596405 C34.3281556,64.5686341 34.3569948,64.540863 34.3869017,64.5130921 C34.5866393,64.3261719 34.7842409,64.1360475 34.9765013,63.9405823 C35.0053405,63.9117432 35.0352477,63.883972 35.0630189,63.8551331 C35.2648926,63.648987 35.4624938,63.438568 35.6558229,63.223877 C35.6964111,63.1790162 35.7359313,63.1341553 35.7765198,63.0882262 C35.9677123,62.8735352 36.1546325,62.6545716 36.3372803,62.4313353 C36.3650514,62.3971556 36.3917542,62.3619079 36.4195251,62.3277282 C36.5936279,62.110901 36.7645264,61.8919372 36.9300843,61.6676331 C36.9503783,61.6409303 36.9706725,61.6142272 36.9909668,61.5875244 C37.0005798,61.574707 37.0101927,61.5618896 37.019806,61.5490723 C37.0294189,61.5618896 37.0390319,61.573639 37.0486452,61.5875244 C37.0689391,61.6142272 37.0892334,61.6409303 37.1095277,61.6676331 C37.2750853,61.8919372 37.4459837,62.1119691 37.6200866,62.3277282 C37.6478577,62.3619079 37.6745605,62.3971556 37.7023314,62.4313353 C37.8849792,62.6545716 38.0718994,62.8735352 38.2630921,63.0882262 C38.3036804,63.1341553 38.3432005,63.1790162 38.3837891,63.223877 C38.5771179,63.438568 38.7747194,63.648987 38.9765931,63.8551331 C39.0043639,63.883972 39.0342712,63.9117432 39.0631104,63.9405823 C39.2553711,64.1360475 39.4519043,64.3261719 39.65271,64.5130921 C39.6826172,64.540863 39.7125244,64.5686341 39.7424316,64.596405 C39.9539186,64.7918701 40.1696777,64.9809264 40.3897096,65.1667786 C40.4356384,65.2062988 40.4826354,65.245819 40.5307005,65.2853392 C40.7507324,65.4690553 40.9739684,65.6474304 41.2014772,65.8215332 C41.237793,65.8493041 41.2751771,65.8760071 41.3125612,65.903778 C41.5304564,66.0682679 41.7515563,66.2295534 41.9769287,66.385498 C42.0068359,66.4057923 42.0367432,66.4271546 42.0666504,66.4485169 C42.3048402,66.6108704 42.5473021,66.7678834 42.7919007,66.9206237 C42.8442383,66.9537354 42.8965759,66.986847 42.9489134,67.0188903 C43.193512,67.1684264 43.4402467,67.3136901 43.6912536,67.4525452 C43.7339782,67.4760436 43.7777709,67.4995423 43.8204955,67.5230407 C44.064026,67.6565553 44.3096924,67.7847291 44.5585632,67.9075622 C44.5863343,67.9214479 44.6130371,67.9353333 44.640808,67.9492187 C44.9024964,68.0773926 45.168457,68.1980895 45.436554,68.3155823 C45.4931641,68.3401491 45.5487061,68.3647155 45.604248,68.3882142 C45.8691406,68.5014343 46.1372376,68.6093138 46.4085387,68.7107848 C46.4566041,68.7300111 46.5057373,68.7471009 46.5548705,68.7641907 C46.8218994,68.8624573 47.0921325,68.9564515 47.364502,69.0440368 C47.3858643,69.0504456 47.4072266,69.0579225 47.4285889,69.0653991 C47.7127077,69.1551208 48.0000306,69.2362975 48.2894896,69.3142702 C48.3460999,69.3292236 48.403778,69.3452454 48.4614564,69.3601989 C48.7455749,69.4328307 49.0307617,69.5001221 49.319153,69.5610046 C49.3725586,69.5727539 49.4248962,69.5823669 49.4783021,69.5930482 C49.7709655,69.6528626 50.0636292,69.7073366 50.3605651,69.7543334 C50.3723145,69.7554017 50.3851318,69.7586061 50.3968812,69.7596741 C50.7002259,69.8077393 51.0057067,69.8451234 51.3122559,69.879303 C51.3710023,69.8846436 51.4286804,69.8921204 51.4863587,69.8974609 C51.785431,69.9273682 52.0855713,69.9508666 52.387848,69.9679564 C52.4455261,69.9711608 52.5021361,69.9732972 52.5598145,69.9754333 C52.8749085,69.990387 53.1921387,70 53.5104369,70 C53.8298034,70 54.1459655,69.990387 54.4621276,69.9754333 C54.5187377,69.9732972 54.576416,69.9711608 54.6330261,69.9679564 C54.9353027,69.9508666 55.235443,69.9273682 55.5345153,69.8974609 C55.5932617,69.8921204 55.6509401,69.8857116 55.7086182,69.879303 C56.0162354,69.8451234 56.3217162,69.8077393 56.6250612,69.7596741 C56.6368102,69.7586061 56.6485596,69.7554017 56.661377,69.7543334 C56.9572448,69.7073366 57.2509766,69.6528626 57.542572,69.5930482 C57.5959779,69.5823669 57.6493835,69.5727539 57.7017213,69.5610046 C57.9901123,69.5001221 58.2763672,69.4328307 58.5594177,69.3601989 C58.617096,69.3452454 58.6747741,69.3292236 58.7324525,69.3142702 C59.0219115,69.2362975 59.3092347,69.1551208 59.5933532,69.0653991 C59.6147155,69.0579225 59.6350098,69.0504456 59.6563721,69.0440368 C59.9298096,68.9564515 60.1989746,68.8624573 60.4670716,68.7641907 C60.5151367,68.7460326 60.5642702,68.7300111 60.6134033,68.7107848 C60.8836364,68.6093138 61.1517334,68.5014343 61.416626,68.3882142 C61.473236,68.3647155 61.528778,68.3401491 61.58432,68.3155823 C61.852417,68.1980895 62.1183776,68.0773926 62.3811341,67.9492188 C62.4078369,67.9353333 62.435608,67.9214479 62.4623109,67.9075622 C62.7111816,67.7847291 62.9568483,67.6565553 63.2003783,67.5230407 C63.2441712,67.4995423 63.2879639,67.4760436 63.3306885,67.4525452 C63.5806276,67.3136901 63.827362,67.1684264 64.0719603,67.0188903 C64.1253662,66.986847 64.1766357,66.9537354 64.2300416,66.9206237 C64.47464,66.7678834 64.7171022,66.6108704 64.9552917,66.4485169 C64.9851989,66.4271546 65.0151061,66.4057923 65.0450134,66.385498 C65.2693177,66.2295534 65.4904173,66.0682679 65.7093812,65.903778 C65.745697,65.8760071 65.7830811,65.8493041 65.8193971,65.8215332 C66.0469056,65.6474304 66.2701416,65.4690553 66.4912415,65.2853392 C66.5382386,65.245819 66.5852357,65.2062988 66.6322327,65.1667786 C66.8511963,64.9809264 67.0680237,64.7918701 67.2795104,64.596405 C67.3094177,64.5686341 67.3382568,64.540863 67.3681641,64.5130921 C67.5689697,64.3261719 67.7655029,64.1360475 67.9588317,63.9405823 C67.9876709,63.9117432 68.0165101,63.883972 68.045349,63.8551331 C68.247223,63.648987 68.4437562,63.438568 68.637085,63.223877 C68.6776732,63.1790162 68.7182617,63.1341553 68.7577819,63.0882262 C68.9489746,62.8735352 69.1369629,62.6545716 69.3196107,62.4313353 C69.3463135,62.3971556 69.3740846,62.3619079 69.4007874,62.3277282 C69.57489,62.110901 69.7457884,61.8919372 69.9113464,61.6676331 C69.9316406,61.6409303 69.9530029,61.6142272 69.9722291,61.5875244 C69.9818421,61.574707 69.9925231,61.5618896 70.0021361,61.5490723 C70.010681,61.5618896 70.0213623,61.573639 70.0309753,61.5875244 C70.0502015,61.6142272 70.0715638,61.6409303 70.091858,61.6676331 C70.2574157,61.8919372 70.4272461,62.1119691 70.602417,62.3277282 C70.6291198,62.3619079 70.6568909,62.3971556 70.6835938,62.4313353 C70.8662415,62.6545716 71.0542298,62.8735352 71.2454225,63.0882262 C71.2849427,63.1341553 71.3255309,63.1790162 71.3661195,63.223877 C71.5594482,63.438568 71.7559814,63.648987 71.9578552,63.8551331 C71.9866943,63.883972 72.0155335,63.9117432 72.0443724,63.9405823 C72.2377015,64.1360475 72.4342347,64.3261719 72.6350404,64.5130921 C72.6649476,64.540863 72.6937865,64.5686341 72.723694,64.596405 C72.9351807,64.7918701 73.1520081,64.9809264 73.3709717,65.1667786 L73.5119629,65.2853392 C73.7319948,65.4690553 73.9562988,65.6474304 74.1838073,65.8215332 C74.2201234,65.8493041 74.2575072,65.8760071 74.2938232,65.903778 C74.5127868,66.0682679 74.7338867,66.2295534 74.9581908,66.385498 C74.9891663,66.4057923 75.0180052,66.4271546 75.0479127,66.4485169 C75.2861022,66.6108704 75.5285645,66.7678834 75.7731628,66.9206237 C75.8265687,66.9537354 75.8789062,66.986847 75.9312438,67.0188903 C76.1747741,67.1684264 76.4215088,67.3136901 76.6725159,67.4525452 C76.7152405,67.4760436 76.7590332,67.4995423 76.8028259,67.5230407 C77.0463561,67.6565553 77.2920228,67.7847291 77.5408936,67.9075622 C77.5675964,67.9214479 77.5953675,67.9353333 77.6220703,67.9492188 C77.8848268,68.0773926 78.1507874,68.1980895 78.4188841,68.3155823 C78.4744264,68.3401491 78.5299681,68.3647155 78.5865784,68.3882142 C78.851471,68.5014343 79.1195677,68.6093138 79.3898011,68.7107848 C79.4389343,68.7300111 79.4880677,68.7471009 79.5361328,68.7641907 C79.8042298,68.8624573 80.0733948,68.9564515 80.3468323,69.0440368 C80.3681946,69.0504456 80.389557,69.0579225 80.4098509,69.0653991 C80.6939697,69.1551208 80.9812927,69.2362975 81.270752,69.3142702 C81.3284303,69.3292236 81.3850404,69.3452454 81.4437865,69.3601989 C81.7268372,69.4328307 82.0130921,69.5001221 82.3014831,69.5610046 C82.3538209,69.5727539 82.4072266,69.5823669 82.4606322,69.5930482 C82.7522279,69.6528626 83.0459596,69.7073366 83.3418275,69.7543334 C83.3546448,69.7554017 83.3663939,69.7586061 83.3781432,69.7596741 C83.681488,69.8077393 83.9869691,69.8451234 84.2945863,69.879303 C84.3522643,69.8846436 84.4099427,69.8921204 84.4686888,69.8974609 C84.7677611,69.9273682 85.0679017,69.9508666 85.3701784,69.9679564 C85.4267884,69.9711608 85.4844665,69.9732972 85.5410768,69.9754333 C85.8572389,69.990387 86.173401,70 86.4927673,70 C86.8110657,70 87.1282959,69.990387 87.44339,69.9754333 C87.501068,69.9732972 87.5576784,69.9711608 87.6153564,69.9679564 C87.9176331,69.9508666 88.2177734,69.9273682 88.5168457,69.8974609 C88.5745241,69.8921204 88.6322021,69.8857116 88.6909486,69.879303 C88.9974974,69.8451234 89.3040466,69.8077393 89.6063232,69.7596741 C89.6180726,69.7586061 89.63089,69.7554017 89.6426393,69.7543334 C89.9385071,69.7073366 90.2322389,69.6528626 90.5249023,69.5930482 C90.578308,69.5823669 90.6306458,69.5727539 90.6840514,69.5610046 C90.9724427,69.5001221 91.2586976,69.4328307 91.541748,69.3601989 C91.5994264,69.3452454 91.6571045,69.3292236 91.7147826,69.3142702 C92.0031738,69.2362975 92.2904968,69.1551208 92.5746155,69.0653991 C92.5959779,69.0579225 92.6173402,69.0504456 92.6387025,69.0440368 C92.9110716,68.9564515 93.181305,68.8624573 93.4483337,68.7641907 C93.4974671,68.7460326 93.5466003,68.7300111 93.5946654,68.7107848 C93.8659668,68.6093138 94.1340638,68.5014343 94.3989564,68.3882142 C94.4544984,68.3647155 94.5100404,68.3401491 94.5666504,68.3155823 C94.8347474,68.1980895 95.100708,68.0773926 95.3623962,67.9492188 C95.3901673,67.9353333 95.4168701,67.9214479 95.4446412,67.9075622 C95.693512,67.7847291 95.9391784,67.6565553 96.1827087,67.5230407 C96.2254333,67.4995423 96.2692259,67.4760436 96.3119505,67.4525452 C96.5629577,67.3136901 96.8096924,67.1684264 97.0542907,67.0188903 C97.1066283,66.986847 97.1589661,66.9537354 97.2113037,66.9206237 C97.455902,66.7678834 97.6983643,66.6108704 97.936554,66.4485169 C97.9664612,66.4271546 97.9963685,66.4057923 98.0262757,66.385498 C98.2516478,66.2295534 98.4727477,66.0682679 98.6906432,65.903778 C98.7280273,65.8760071 98.7654114,65.8493041 98.8017272,65.8215332 C99.0292357,65.6474304 99.252472,65.4690553 99.4725036,65.2853392 C99.520569,65.245819 99.5664977,65.2062988 99.6145631,65.1667786 C99.8335267,64.9809264 100.049286,64.7918701 100.260773,64.596405 C100.291748,64.5686341 100.320587,64.540863 100.350494,64.5130921 C100.550232,64.3261719 100.747833,64.1360475 100.940094,63.9405823 C100.968933,63.9117432 100.99884,63.883972 101.026611,63.8551331 C101.228485,63.648987 101.426087,63.438568 101.619415,63.223877 C101.660004,63.1790162 101.699524,63.1341553 101.740112,63.0882262 C101.931305,62.8735352 102.118225,62.6545716 102.300873,62.4313353 C102.328644,62.3971556 102.355347,62.3619079 102.383118,62.3277282 C102.55722,62.110901 102.728119,61.8919372 102.893677,61.6676331 C102.913971,61.6409303 102.934265,61.6142272 102.954559,61.5875244 C102.964172,61.574707 102.973785,61.5618896 102.983398,61.5490723 C102.993011,61.5618896 103.002624,61.573639 103.012238,61.5875244 C103.032532,61.6142272 103.052826,61.6409303 103.07312,61.6676331 C103.239746,61.8919372 103.409576,62.1119691 103.583679,62.3277282 C103.61145,62.3619079 103.638153,62.3971556 103.665924,62.4313353 C103.848572,62.6545716 104.035492,62.8735352 104.226685,63.0882262 C104.267273,63.1341553 104.306793,63.1790162 104.34845,63.223877 C104.54071,63.438568 104.738312,63.648987 104.940186,63.8551331 C104.969025,63.883972 104.997864,63.9117432 105.026703,63.9405823 C105.218964,64.1360475 105.415497,64.3261719 105.616302,64.5130921 C105.64621,64.540863 105.676117,64.5686341 105.706024,64.596405 C105.917511,64.7918701 106.13327,64.9809264 106.353302,65.1667786 C106.399231,65.2062988 106.447296,65.245819 106.494293,65.2853392 C106.714325,65.4690553 106.937561,65.6474304 107.16507,65.8215332 C107.201385,65.8493041 107.23877,65.8760071 107.276154,65.903778 C107.494049,66.0682679 107.716217,66.2295534 107.940521,66.385498 C107.970428,66.4057923 108.000336,66.4271546 108.030243,66.4485169 C108.268433,66.6108704 108.510895,66.7678834 108.755493,66.9206237 C108.807831,66.9537354 108.860169,66.986847 108.912506,67.0188903 C109.157104,67.1684264 109.403839,67.3136901 109.654846,67.4525452 C109.697571,67.4760436 109.741364,67.4995423 109.784088,67.5230407 C110.027618,67.6565553 110.273285,67.7847291 110.523224,67.9075622 C110.549927,67.9214479 110.57663,67.9353333 110.604401,67.9492188 C110.866089,68.0773926 111.132049,68.1980895 111.401215,68.3155823 C111.456757,68.3401491 111.512299,68.3647155 111.567841,68.3882142 C111.833801,68.5014343 112.10083,68.6093138 112.372131,68.7107848 C112.420197,68.7300111 112.46933,68.7471009 112.518463,68.7641907 C112.785492,68.8624573 113.055725,68.9564515 113.328094,69.0440368 C113.349457,69.0504456 113.370819,69.0579225 113.392181,69.0653991 C113.6763,69.1551208 113.963623,69.2362975 114.253082,69.3142702 C114.31076,69.3292236 114.36737,69.3452454 114.425049,69.3601989 C114.709167,69.4328307 114.995422,69.5001221 115.282745,69.5610046 C115.336151,69.5727539 115.389557,69.5823669 115.441895,69.5930482 C115.734558,69.6528626 116.027222,69.7073366 116.324158,69.7543334 C116.335907,69.7554017 116.348724,69.7586061 116.360474,69.7596741 C116.663818,69.8077393 116.969299,69.8451234 117.276917,69.879303 C117.334595,69.8846436 117.392273,69.8921204 117.449951,69.8974609 C117.749023,69.9273682 118.049164,69.9508666 118.35144,69.9679564 C118.409119,69.9711608 118.465729,69.9732972 118.523407,69.9754333 C118.838501,69.990387 119.155731,70 119.47403,70 C119.586182,70 119.698334,69.998932 119.810486,69.9967956 L119.810486,114.422913 L65.9614564,114.422913 L65.9614564,88.8458252 C65.9614564,82.1658327 60.5268861,76.7312623 53.8458252,76.7312623 L43.0770873,76.7312623 C36.3960267,76.7312623 30.9614564,82.1658327 30.9614564,88.8458252 L30.9614564,114.422913 L20.1927184,114.422913 L20.1927184,69.9967956 C20.3048705,69.998932 20.4170228,70 20.5291748,70 C20.8474733,70 21.1647034,69.990387 21.4797975,69.9754333 L21.4797975,69.9754333 Z M57.8843688,114.422913 L39.0385436,114.422913 L39.0385436,88.8458252 C39.0385436,86.619873 40.8500671,84.8072816 43.0770873,84.8072816 L53.8458252,84.8072816 C56.0728454,84.8072816 57.8843688,86.619873 57.8843688,88.8458252 L57.8843688,114.422913 Z M127.211456,131.922913 L12.7885436,131.922913 C10.1908874,131.922913 8.07708727,129.809113 8.07708727,127.211456 C8.07708727,124.6138 10.1908874,122.5 12.7885436,122.5 L127.211456,122.5 C129.809113,122.5 131.922913,124.6138 131.922913,127.211456 C131.922913,129.809113 129.809113,131.922913 127.211456,131.922913 Z" id="Shape"></path>
                <path d="M88.4617921,104 L99.5382082,104 C106.410156,104 112,98.3927705 112,91.4994489 C112,84.6072295 106.410156,79 99.5382082,79 L88.4617921,79 C81.5898438,79 76,84.6072295 76,91.4994489 C76,98.3927705 81.5898438,104 88.4617921,104 L88.4617921,104 Z M88.4617921,87.3325986 L99.5382082,87.3325986 C101.828858,87.3325986 103.692139,89.2027771 103.692139,91.4994489 C103.692139,93.7972227 101.828858,95.6662992 99.5382082,95.6662992 L88.4617921,95.6662992 C86.1711427,95.6662992 84.3078615,93.7972227 84.3078615,91.4994489 C84.3078615,89.2027771 86.1711427,87.3325986 88.4617921,87.3325986 L88.4617921,87.3325986 Z" id="Shape"></path>
                <path d="M109,24 C109,21.7910605 107.193466,20 104.965444,20 L35.0345563,20 C32.8065336,20 31,21.7910605 31,24 C31,26.2089395 32.8065336,28 35.0345563,28 L104.965444,28 C107.193466,28 109,26.2089395 109,24 L109,24 Z" id="Path"></path>
            </g>
        </g>
    </g>
</svg>