<?xml version="1.0" encoding="UTF-8"?>
<svg width="490px" height="133px" viewBox="0 0 490 133" version="1.1" xmlns="http://www.w3.org/2000/svg" xmlns:xlink="http://www.w3.org/1999/xlink">
    <!-- Generator: Sketch 64 (93537) - https://sketch.com -->
    <title>head-domicilios</title>
    <desc>Created with Sketch.</desc>
    <g id="Welcome" stroke="none" stroke-width="1" fill="none" fill-rule="evenodd">
        <g id="HOME---Servicios---Domicilios---Desktop-HD" transform="translate(-819.000000, -211.000000)" fill="#FFFFFF" fill-rule="nonzero">
            <g id="head-domicilios" transform="translate(819.000000, 211.000000)">
                <path d="M72.5288024,37.9129167 L55.6051497,37.9129167 C54.2680253,37.9129167 53.1840719,38.990418 53.1840719,40.3195833 C53.1840719,41.6487486 54.2680253,42.72625 55.6051497,42.72625 L72.5288024,42.72625 L72.5288024,49.9304167 L4.83419162,49.9304167 L4.83419162,42.75 L21.7578443,42.75 C23.0949687,42.75 24.1789222,41.6724986 24.1789222,40.3433333 C24.1789222,39.014168 23.0949687,37.9366667 21.7578443,37.9366667 L4.83419162,37.9366667 C2.16305357,37.9410338 0,40.094758 0,42.75 L0,49.9541667 C0,52.608125 2.16434131,54.7595833 4.83419162,54.7595833 L7.59772455,54.7595833 L12.1133533,83.9166667 C12.2811951,85.0970803 13.303348,85.9708994 14.5025749,85.9592834 L62.8604192,85.9592834 C64.059646,85.9708994 65.0817989,85.0970803 65.2496407,83.9166667 L69.7652695,54.7358333 L72.5288024,54.7358333 C75.1986527,54.7358333 77.3630531,52.584375 77.3630531,49.9304167 L77.3630531,42.75 C77.369346,41.4706854 76.8630907,40.2414877 75.9560443,39.3338987 C75.0489979,38.4263097 73.8157915,37.9150052 72.5288024,37.9129167 L72.5288024,37.9129167 Z M60.7817964,81.1775 L16.5811976,81.1775 L12.4876647,54.7358333 L64.8753293,54.7358333 L60.7817964,81.1775 Z" id="Shape"></path>
                <path d="M38.681497,47.5 C44.0100718,47.4956691 48.3323394,43.2097468 48.3498802,37.9129167 L48.3498802,18.69125 C48.3498802,13.3833334 44.0211975,9.08041687 38.681497,9.08041687 C33.3417965,9.08041687 29.0131138,13.3833334 29.0131138,18.69125 L29.0131138,37.9129167 C29.0306546,43.2097468 33.3529222,47.4956691 38.681497,47.5 Z M33.8473054,18.69125 C33.8473054,16.0372917 36.0116468,13.8858335 38.681497,13.8858335 C41.3513473,13.8858335 43.5156886,16.0372917 43.5156886,18.69125 L43.5156886,37.9129167 C43.5156886,40.566875 41.3513473,42.7183333 38.681497,42.7183333 C36.0116467,42.7183333 33.8473054,40.566875 33.8473054,37.9129167 L33.8473054,18.69125 Z" id="Shape"></path>
                <path d="M38.681497,33.1075 L38.681497,33.1075 C37.3619664,33.1075 36.2922754,34.1708237 36.2922754,35.4825 L36.2922754,35.4825 C36.2922754,36.7941763 37.3619664,37.8575 38.681497,37.8575 L38.681497,37.8575 C40.0010276,37.8575 41.0707186,36.7941763 41.0707186,35.4825 L41.0707186,35.4825 C41.0707186,34.1708237 40.0010276,33.1075 38.681497,33.1075 L38.681497,33.1075 Z" id="Path"></path>
                <path d="M33.8473054,76.3641667 C35.166836,76.3641667 36.2365269,75.3008429 36.2365269,73.9891667 L36.2365269,61.9479167 C36.2365269,60.6209375 35.1543563,59.5452083 33.8194311,59.5452083 C32.484506,59.5452083 31.4023353,60.6209375 31.4023353,61.9479167 L31.4023353,73.9654167 C31.3956821,74.6091352 31.6521899,75.2279636 32.1131104,75.6801708 C32.5740308,76.1323779 33.1998751,76.3792215 33.8473054,76.3641667 L33.8473054,76.3641667 Z" id="Path"></path>
                <path d="M24.1789222,76.3641667 C25.4984528,76.3641667 26.5681437,75.3008429 26.5681437,73.9891667 L26.5681437,61.9479167 C26.5681437,60.6209375 25.4859731,59.5452083 24.1510479,59.5452083 C22.8161228,59.5452083 21.7339521,60.6209375 21.7339521,61.9479167 L21.7339521,73.9654167 C21.7272989,74.6091352 21.9838067,75.2279636 22.4447271,75.6801708 C22.9056476,76.1323779 23.5314919,76.3792215 24.1789222,76.3641667 L24.1789222,76.3641667 Z" id="Path"></path>
                <path d="M43.5156886,76.3641667 C44.8352193,76.3641667 45.9049102,75.3008429 45.9049102,73.9891667 L45.9049102,61.9479167 C45.9049102,60.6209375 44.8227395,59.5452083 43.4878144,59.5452083 C42.1528892,59.5452083 41.0707186,60.6209375 41.0707186,61.9479167 L41.0707186,73.9654167 C41.0640654,74.6091352 41.3205732,75.2279636 41.7814936,75.6801708 C42.2424141,76.1323779 42.8682584,76.3792215 43.5156886,76.3641667 L43.5156886,76.3641667 Z" id="Path"></path>
                <path d="M53.1840719,76.3641667 C54.5036025,76.3641667 55.5732934,75.3008429 55.5732934,73.9891667 L55.5732934,61.9479167 C55.5732934,60.6209375 54.4911228,59.5452083 53.1561976,59.5452083 C51.8212725,59.5452083 50.7391018,60.6209375 50.7391018,61.9479167 L50.7391018,73.9654167 C50.7324486,74.6091352 50.9889564,75.2279636 51.4498768,75.6801708 C51.9107973,76.1323779 52.5366416,76.3792215 53.1840719,76.3641667 L53.1840719,76.3641667 Z" id="Path"></path>
                <path d="M114.794132,79.7604167 L106.137186,79.7604167 L106.137186,77.5833333 C103.805527,79.60347 100.78597,80.6625191 97.6952695,80.5441667 C94.1372755,80.5958085 90.725478,79.1390229 88.3135928,76.5383333 C85.6913236,73.7600095 84.2974023,70.0536076 84.4430539,66.2466667 C84.302756,62.4405857 85.6959318,58.7361658 88.3135928,55.955 C90.7187939,53.3421623 94.1327666,51.8758053 97.6952695,51.9254167 C100.785023,51.8040789 103.804738,52.860352 106.137186,54.8783333 L106.137186,41.04 L114.794132,41.04 L114.794132,79.7604167 Z M104.162096,71.2895833 C106.796,68.4586853 106.796,64.0900647 104.162096,61.2591667 C102.946804,59.9786273 101.250162,59.2586917 99.4792216,59.2720833 C97.697827,59.2155152 95.9798091,59.9321519 94.7724551,61.2354167 C92.3182005,64.151783 92.3182005,68.396967 94.7724551,71.3133333 C95.9889986,72.6008602 97.703093,73.3072112 99.4792216,73.2529167 C101.246564,73.2724741 102.942664,72.5613705 104.162096,71.2895833 Z" id="Shape"></path>
                <path d="M142.708204,56.0420833 C145.582368,58.6580117 147.164672,62.390723 147.040659,66.2625 C147.179366,70.1576618 145.59635,73.9180875 142.708204,76.5541667 C139.844266,79.1904806 136.057858,80.610809 132.155808,80.5125 C128.214183,80.6196746 124.384848,79.2003827 121.475988,76.5541667 C118.574504,73.9255975 116.981585,70.1624011 117.119641,66.2625 C116.997393,62.3861775 118.589411,58.6511477 121.475988,56.0420833 C124.384848,53.3958673 128.214183,51.9765754 132.155808,52.08375 C136.057858,51.985441 139.844266,53.4057694 142.708204,56.0420833 Z M136.759042,71.2895833 C139.377135,68.4434366 139.377135,64.0815634 136.759042,61.2354167 C135.570948,59.9802823 133.913438,59.2696464 132.179701,59.2720833 C130.389976,59.2451184 128.668868,59.9558288 127.42515,61.2354167 C124.776481,64.0696933 124.776481,68.4553067 127.42515,71.2895833 C128.662607,72.5639104 130.374164,73.2742466 132.155808,73.2529167 C133.898039,73.2628965 135.565833,72.5515627 136.759042,71.2895833 L136.759042,71.2895833 Z" id="Shape"></path>
                <path d="M191.934132,54.9970833 C193.96627,57.1250401 195.041347,59.9824679 194.912695,62.91375 L194.912695,79.8 L186.359281,79.8 L186.359281,64.7583333 C186.419263,63.4252343 185.953508,62.1214963 185.061138,61.1245833 C184.225649,60.2260847 183.04235,59.7273294 181.811796,59.755 C180.31729,59.7040413 178.884964,60.3514896 177.941257,61.5045833 C176.985569,62.6656944 176.507725,64.3598611 176.507725,66.5870833 L176.507725,79.8158333 L167.810958,79.8158333 L167.810958,64.7741667 C167.874363,63.4405617 167.408162,62.1355765 166.512814,61.1404167 C165.662572,60.2344829 164.461574,59.7356041 163.215689,59.7708333 C161.734374,59.7069174 160.313326,60.3586548 159.400898,61.5204167 C158.487685,62.6815278 158.028423,64.3756944 158.023114,66.6029167 L158.023114,79.8316667 L149.366168,79.8316667 L149.366168,52.7645833 L158.023114,52.7645833 L158.023114,55.2345833 C160.073322,53.0208344 163.003068,51.8211381 166.027006,51.9570833 C170.030279,51.9570833 172.987605,53.4797222 174.898982,56.525 C177.157245,53.5206914 180.75754,51.8126642 184.527545,51.9570833 C187.316716,51.8894396 190.005491,52.9930349 191.934132,54.9970833 L191.934132,54.9970833 Z" id="Path"></path>
                <path d="M207.01012,41.3645833 C207.937958,42.2685276 208.455539,43.5090445 208.443653,44.8004167 C208.473229,46.0905225 207.952482,47.3328747 207.01012,48.2204167 C206.04295,49.1374462 204.746315,49.6307706 203.410359,49.59 C202.083482,49.6330026 200.795882,49.1387418 199.842455,48.2204167 C198.912218,47.3264691 198.401005,46.0861898 198.432814,44.8004167 C198.479297,42.801819 199.718149,41.0225569 201.583493,40.275351 C203.448838,39.5281452 205.582595,39.9564328 207.01012,41.3645833 L207.01012,41.3645833 Z M199.046048,79.7604167 L199.046048,52.7645833 L207.702994,52.7645833 L207.702994,79.7604167 L199.046048,79.7604167 Z" id="Shape"></path>
                <path d="M231.220898,68.305 L239.18497,70.0229167 C238.561665,73.0790016 236.826226,75.79915 234.310958,77.6625 C231.733408,79.6076447 228.570991,80.6313345 225.335449,80.5679167 C221.432441,80.6616059 217.649569,79.222317 214.806946,76.5620833 C211.944784,73.9103838 210.376569,70.1575243 210.506347,66.2704167 C210.384952,62.3848322 211.951786,58.6352787 214.806946,55.97875 C217.642939,53.305414 221.428178,51.856686 225.335449,51.9491667 C228.528456,51.8977651 231.648524,52.9000437 234.207425,54.7991667 C236.722629,56.6328208 238.489573,59.3053988 239.18497,62.3279167 L231.069581,64.2595833 C230.812847,62.8718786 230.088116,61.612545 229.01485,60.6891667 C227.968601,59.8701509 226.666668,59.4415576 225.335449,59.4779167 C223.552747,59.3989973 221.824466,60.0989205 220.60479,61.39375 C218.224974,64.2175112 218.224974,68.3312388 220.60479,71.155 C221.827679,72.427331 223.542923,73.1139608 225.311557,73.0391667 C228.348523,73.0391667 230.318303,71.4611111 231.220898,68.305 Z" id="Path"></path>
                <path d="M249.856826,41.3645833 C250.784665,42.2685276 251.302246,43.5090445 251.290359,44.8004167 C251.319935,46.0905225 250.799189,47.3328747 249.856826,48.2204167 C248.892103,49.1362265 247.598406,49.6295241 246.26503,49.59 C244.935578,49.634254 243.645036,49.1399672 242.689162,48.2204167 C241.773085,47.3193926 241.274156,46.0809288 241.311377,44.8004167 C241.353539,42.8015688 242.59056,41.020233 244.455808,40.2723717 C246.321055,39.5245104 248.455218,39.9541871 249.880719,41.3645833 L249.856826,41.3645833 Z M241.892754,79.7604167 L241.892754,52.7645833 L250.549701,52.7645833 L250.549701,79.7604167 L241.892754,79.7604167 Z" id="Shape"></path>
                <polygon id="Path" points="255.137006 79.7604167 255.137006 41.04 263.793952 41.04 263.793952 79.7604167"></polygon>
                <path d="M276.257725,41.3645833 C277.185563,42.2685276 277.703144,43.5090445 277.691257,44.8004167 C277.720834,46.0905225 277.200087,47.3328747 276.257725,48.2204167 C275.293001,49.1362265 273.999305,49.6295241 272.665928,49.59 C271.336786,49.6324282 270.046936,49.1384063 269.09006,48.2204167 C268.165214,47.323451 267.657421,46.0844679 267.688383,44.8004167 C267.730545,42.8015688 268.967566,41.020233 270.832814,40.2723717 C272.698061,39.5245104 274.832224,39.9541871 276.257725,41.3645833 L276.257725,41.3645833 Z M268.333473,79.7604167 L268.333473,52.7645833 L276.990419,52.7645833 L276.990419,79.7604167 L268.333473,79.7604167 Z" id="Shape"></path>
                <path d="M305.342515,56.0420833 C308.211065,58.6613253 309.789836,62.3925603 309.667006,66.2625 C309.805587,70.1560245 308.225925,73.915391 305.342515,76.5541667 C302.477674,79.1890279 298.691882,80.609125 294.79012,80.5125 C290.846044,80.6200757 287.014082,79.2008683 284.102335,76.5541667 C281.206504,73.9222439 279.617134,70.1605539 279.753952,66.2625 C279.632918,62.3880289 281.22139,58.6544907 284.102335,56.0420833 C287.014082,53.3953817 290.846044,51.9761743 294.79012,52.08375 C298.691882,51.987125 302.477674,53.4072221 305.342515,56.0420833 L305.342515,56.0420833 Z M299.385389,71.2895833 C302.003482,68.4434366 302.003482,64.0815634 299.385389,61.2354167 C298.200871,59.9799121 296.545572,59.2689879 294.814012,59.2720833 C293.040825,59.2582355 291.339518,59.9679016 290.107246,61.2354167 C287.458577,64.0696933 287.458577,68.4553067 290.107246,71.2895833 C291.344156,72.5647055 293.056076,73.2751919 294.837904,73.2529167 C296.561356,73.2503936 298.207111,72.5398544 299.385389,71.2895833 L299.385389,71.2895833 Z" id="Shape"></path>
                <path d="M318.562874,70.9966667 C318.923912,73.1077778 320.516727,74.1633333 323.341317,74.1633333 C324.240801,74.2089894 325.134316,73.9945023 325.913713,73.5458333 C326.499834,73.2633188 326.886659,72.6880502 326.92515,72.0416667 C326.92515,71.0336111 326.02521,70.3686111 324.225329,70.0466667 L318.706228,68.97 C313.439321,68.0041667 310.805868,65.3890278 310.805868,61.1245833 C310.729688,58.5152629 311.94345,56.034173 314.05521,54.4825 C316.213473,52.8120833 319.032754,51.9808333 322.489162,51.9808333 C325.386075,51.8682658 328.253207,52.5972885 330.73994,54.07875 C332.81817,55.3287972 334.293648,57.3673035 334.825509,59.7233333 L326.92515,61.3066667 C326.770926,60.3939548 326.254433,59.5810424 325.491617,59.0504167 C324.586965,58.4112397 323.494641,58.0882771 322.385629,58.1320833 C321.541007,58.052913 320.695274,58.2714947 319.996407,58.7495833 C319.539245,59.1064806 319.272108,59.6521663 319.271677,60.23 C319.271677,61.1958333 319.956587,61.8133333 321.326407,62.1141667 L327.697665,63.4045833 C329.841472,63.7569562 331.815028,64.7836454 333.328263,66.33375 C334.606946,67.7443744 335.306149,69.5808632 335.287425,71.4795833 C335.404912,74.1550027 334.117543,76.6994303 331.886766,78.2008333 C329.609042,79.7841667 326.633134,80.5758333 322.959042,80.5758333 C319.958829,80.6760534 316.983914,79.9994969 314.325988,78.6125 C312.077025,77.4209144 310.537562,75.2314086 310.184671,72.7225 L318.562874,70.9966667 Z" id="Path"></path>
                <path d="M482.893533,54.625 C482.743939,54.5238995 482.564178,54.4764346 482.383832,54.4904167 L481.961737,54.4904167 L481.961737,55.4166667 L482.336048,55.4166667 C482.531625,55.4328801 482.727222,55.3856607 482.893533,55.2820833 C482.988252,55.2038722 483.043046,55.0878184 483.043046,54.9654167 C483.043046,54.843015 482.988252,54.7269611 482.893533,54.64875 L482.893533,54.625 Z" id="Path"></path>
                <path d="M469.537784,61.29875 C469.099412,60.6180306 468.504275,60.0508603 467.801617,59.6441667 C466.97509,59.2052294 466.046201,58.9921465 465.10976,59.0266667 C464.183242,58.9896915 463.263971,59.2030937 462.44976,59.6441667 C461.752201,60.0491572 461.164476,60.61708 460.737485,61.29875 C460.281565,62.027031 459.9631,62.8318683 459.797725,63.67375 C459.600024,64.635036 459.501291,65.6138327 459.502971,66.595 C459.499686,67.5657714 459.598446,68.5342319 459.797725,69.4845833 C459.965497,70.3431439 460.283577,71.1657655 460.737485,71.915 C461.146249,72.6200288 461.730368,73.2088484 462.433832,73.625 C463.256896,74.0564275 464.180035,74.2639897 465.10976,74.2266667 C466.046895,74.2615092 466.977105,74.0542078 467.809581,73.625 C468.514264,73.2307617 469.108405,72.6673738 469.537784,71.98625 C469.991693,71.2370155 470.309773,70.4143939 470.477545,69.5558333 C470.670271,68.6046212 470.766323,67.6365607 470.764284,66.66625 C470.764714,65.6855375 470.668688,64.7071306 470.477545,63.745 C470.320631,62.8784255 470.001886,62.048715 469.537784,61.29875 L469.537784,61.29875 Z" id="Path"></path>
                <path d="M422.541796,-4.72701399e-07 C395.517982,-0.00320197369 371.153466,16.176612 360.810412,40.9941365 C350.467358,65.811661 356.182883,94.3789601 375.291605,113.37394 C394.400328,132.36892 423.138688,138.050424 448.104821,127.768936 C473.070953,117.487448 489.347652,93.2679579 489.344432,66.405 C489.346544,48.7926553 482.309108,31.9010635 469.780726,19.447255 C457.252343,6.9934465 440.259604,-0.00210008286 422.541796,-4.72701399e-07 Z M376.636886,50.42125 L380.618922,45.43375 C380.735823,45.2884116 380.9183,45.2110973 381.104731,45.2279167 L388.646707,45.2279167 C388.965269,45.2279167 388.726347,45.43375 388.726347,45.43375 L382.004671,50.51625 C381.836037,50.6515617 381.623946,50.721838 381.407365,50.7141667 L376.700599,50.7141667 C376.39,50.7141667 376.636886,50.42125 376.636886,50.42125 Z M387.483952,78.7233333 C385.119656,80.1685777 382.381824,80.8950541 379.607485,80.8133333 C377.638206,80.8424338 375.681363,80.4985318 373.841497,79.8 C372.178402,79.1546461 370.677806,78.1547994 369.445329,76.8708333 C368.224395,75.5681663 367.281601,74.0331262 366.673832,72.3583333 C366.01514,70.5274257 365.688855,68.5947671 365.71018,66.6504167 C365.691492,64.7293186 366.028959,62.8212321 366.705689,61.0216667 C367.969033,57.6176006 370.591968,54.8842098 373.952994,53.4691667 C375.743009,52.7250269 377.667383,52.35322 379.607485,52.3766667 C381.710167,52.3299716 383.792778,52.7918305 385.676108,53.7225 C387.360765,54.5746143 388.820291,55.8085045 389.936886,57.3245833 C391.056931,58.8605967 391.868178,60.5970831 392.326108,62.43875 C392.701869,63.9351893 392.889132,65.4722407 392.883712,67.0145833 C392.883712,67.4658333 392.883712,67.9170833 392.843772,68.3683333 L392.843772,68.61375 C392.843772,68.61375 392.843772,68.9541667 392.533174,68.9541667 L374.136168,68.9541667 C374.18823,69.6844322 374.332723,70.4052571 374.566228,71.0995833 C374.784545,71.7742219 375.161275,72.387513 375.665269,72.88875 C376.151426,73.3569443 376.740301,73.7065399 377.385509,73.91 C378.185797,74.1633167 379.022637,74.2836822 379.862335,74.26625 C381.056544,74.2992145 382.232243,73.9676684 383.231138,73.31625 C383.65369,73.038622 384.034455,72.7027715 384.362036,72.31875 C384.605647,72.0492964 384.787681,71.7306072 384.895629,71.3845833 L384.959341,71.155 C384.959341,71.155 384.999162,70.9491667 385.357545,70.9491667 L392.357964,70.9491667 C392.652635,70.9491667 392.557066,71.1945833 392.557066,71.1945833 L392.365928,71.74875 C391.913036,73.2196146 391.241981,74.615106 390.37491,75.8891667 C389.611026,77.0160711 388.62809,77.9796978 387.483952,78.7233333 L387.483952,78.7233333 Z M418.822575,80.2195833 L409.632036,80.2195833 C409.423964,80.198416 409.236646,80.0849486 409.122335,79.9108333 L404.272216,72.6275 L399.406168,79.9583333 C399.309694,80.1449383 399.11548,80.261386 398.904431,80.2591978 L389.849281,80.2591978 C389.530719,80.2591978 389.713892,79.9979167 389.713892,79.9979167 L399.358383,65.9775 L391.075749,54.1025 L390.454551,53.2158333 C390.454551,53.2158333 390.319162,53.03375 390.574012,53.03375 L399.86012,53.03375 C400.024658,53.0308826 400.182063,53.1004244 400.29018,53.22375 L404.367784,59.2325 L408.413533,53.2 C408.496382,53.0827612 408.636496,53.0191768 408.77988,53.03375 L417.803174,53.03375 C418.121737,53.03375 418.002275,53.1920833 418.002275,53.1920833 L409.082515,65.7875 L418.965928,79.9583333 C418.965928,79.9583333 419.16503,80.2195833 418.822575,80.2195833 Z M425.193832,91.7858333 C423.124398,91.7890351 421.25709,90.5518987 420.463663,88.6519816 C419.670236,86.7520645 420.107171,84.5640722 421.570484,83.1094693 C423.033797,81.6548663 425.234891,81.2205326 427.146185,82.0092368 C429.057479,82.797941 430.302023,84.6541333 430.298809,86.71125 C430.298809,88.0639996 429.755538,89.3607749 428.78954,90.3135899 C427.823543,91.266405 426.51482,91.7963852 425.154012,91.7858333 L425.193832,91.7858333 Z M429.175868,79.9108333 C429.175868,79.9108333 429.175868,80.25125 428.873234,80.25125 L421.498503,80.25125 C421.211796,80.25125 421.187904,79.9266667 421.187904,79.9266667 L419.690659,53.27125 C419.690659,53.27125 419.626946,53.0258333 419.993293,53.0258333 L430.378443,53.0258333 C430.657186,53.0258333 430.649245,53.3266667 430.649245,53.3266667 L429.175868,79.9108333 Z M450.527545,58.8129167 C450.541414,58.9807723 450.417396,59.1287079 450.248802,59.1454167 L445.29515,59.1454167 L445.29515,71.25 C445.284349,71.6972094 445.329831,72.144007 445.430539,72.58 C445.463242,72.7944462 445.557228,72.9950402 445.701317,73.1579167 C445.867813,73.2985944 446.068098,73.3940496 446.282695,73.435 C446.722881,73.5244097 447.171408,73.5668723 447.620659,73.5616667 C448.002934,73.5616667 448.369281,73.5458333 448.719701,73.5141667 C449.048669,73.4850598 449.375718,73.4374838 449.699281,73.3716667 L450.248802,73.2608333 C450.248802,73.2608333 450.527545,73.15 450.527545,73.4904167 L450.527545,79.82375 C450.527545,80.1641667 450.256766,80.1641667 450.256766,80.1641667 L449.954132,80.2195833 C449.257309,80.3224837 448.555484,80.3885488 447.851617,80.4175 C447.102994,80.4570833 446.378263,80.4730667 445.669461,80.4730667 C444.579169,80.4770029 443.490179,80.3976014 442.412156,80.2354167 C441.409169,80.0991385 440.441515,79.774029 439.561018,79.2775 C438.691306,78.7760811 437.981801,78.040612 437.514251,77.1558333 C436.981646,76.0790313 436.727106,74.8873615 436.773593,73.6883333 L436.773593,59.11375 L432.688024,59.11375 C432.607821,59.1175154 432.530286,59.0846296 432.477523,59.0244675 C432.42476,58.9643053 432.402557,58.8834679 432.417246,58.805 L432.417246,53.2633333 C432.417246,53.2633333 432.369461,53.0258333 432.735808,53.0258333 L436.717844,53.0258333 L436.717844,45.5445833 C436.708187,45.4650478 436.734672,45.3853694 436.790099,45.3272113 C436.845526,45.2690532 436.924134,45.2384602 437.004551,45.24375 L444.968623,45.24375 C445.050363,45.2412058 445.129305,45.2734809 445.185591,45.3324562 C445.241877,45.3914314 445.270148,45.471493 445.263293,45.5525 L445.263293,53.0416667 L450.201018,53.0416667 C450.276874,53.0349867 450.352054,53.0603679 450.408128,53.1115885 C450.464202,53.1628091 450.495986,53.2351338 450.495689,53.3108333 L450.527545,58.8129167 Z M478.314192,72.5245833 C477.684301,74.2080984 476.707782,75.7423547 475.447126,77.0291667 C474.173574,78.3026338 472.638811,79.2882163 470.947425,79.91875 C469.090005,80.6021203 467.122029,80.9402397 465.141617,80.91625 C463.168796,80.9425874 461.208223,80.604348 459.359701,79.91875 C457.67891,79.285746 456.155052,78.3001889 454.891856,77.0291667 C453.626101,75.7448527 452.646517,74.2100442 452.016826,72.5245833 C450.689543,68.7304569 450.689543,64.6020431 452.016826,60.8079167 C453.263072,57.3872062 455.938106,54.6703509 459.351737,53.3583333 C463.095638,51.9968709 467.203524,51.9968709 470.947425,53.3583333 C474.382115,54.6491382 477.074745,57.3720388 478.314192,60.8079167 C479.641475,64.6020431 479.641475,68.7304569 478.314192,72.5245833 L478.314192,72.5245833 Z M484.255389,58.5833333 C483.752066,58.8803067 483.176164,59.0336968 482.590898,59.0266667 C482.003343,59.0319221 481.42535,58.878708 480.918443,58.5833333 C480.404051,58.29753 479.979491,57.8754965 479.691976,57.3641667 C479.097732,56.3345405 479.097732,55.0687928 479.691976,54.0391667 C479.979491,53.5278368 480.404051,53.1058034 480.918443,52.82 C481.42535,52.5246253 482.003343,52.3714113 482.590898,52.3766667 C483.176164,52.3696365 483.752066,52.5230266 484.255389,52.82 C484.773189,53.1013019 485.19887,53.5244491 485.481856,54.0391667 C486.087704,55.0656891 486.087704,56.3376442 485.481856,57.3641667 C485.19887,57.8788843 484.773189,58.3020314 484.255389,58.5833333 Z" id="Shape"></path>
                <path d="M382.840898,60.1666667 C382.472811,59.7559588 382.00345,59.4476425 381.479042,59.2720833 C380.814093,59.0409169 380.112628,58.9309597 379.408383,58.9475 C378.524761,58.9162082 377.64617,59.0925079 376.843952,59.4620833 C376.226895,59.7609802 375.68321,60.1906369 375.251138,60.7208333 C374.867688,61.1882614 374.58081,61.7263193 374.406946,62.3041667 C374.311377,62.62875 374.239701,62.9375 374.183952,63.2145833 L384.338144,63.2145833 C384.095883,62.0926777 383.581944,61.0464594 382.840898,60.1666667 L382.840898,60.1666667 Z" id="Path"></path>
                <path d="M482.622754,52.9704167 C481.902939,52.9603571 481.211044,53.2469308 480.711377,53.7620833 C479.661752,54.8169733 479.661752,56.51511 480.711377,57.57 C481.483599,58.3394946 482.64648,58.570009 483.656561,58.1538149 C484.666642,57.7376207 485.324454,56.7569073 485.322622,55.67 C485.326827,54.9562113 485.044004,54.27032 484.536997,53.7648436 C484.029989,53.2593671 483.340827,52.976209 482.622754,52.9783333 L482.622754,52.9704167 Z M483.140419,57.4433333 C482.943288,57.0188451 482.711557,56.6110967 482.447545,56.2241667 C482.367378,56.1083474 482.238253,56.0354175 482.097126,56.02625 L481.993593,56.02625 L481.993593,57.4195833 L481.101617,57.4195833 L481.101617,53.8570833 L482.694431,53.8570833 C483.046871,53.8236193 483.399152,53.9224614 483.681976,54.1341667 C483.891804,54.3165977 484.003767,54.5860517 483.984611,54.8625 C483.985616,55.0893836 483.903521,55.3088764 483.753653,55.48 C483.553686,55.6773884 483.298221,55.8098812 483.020958,55.86 C483.128925,55.9015796 483.230729,55.9575046 483.323593,56.02625 C483.431046,56.1359309 483.52465,56.2582214 483.602335,56.3904167 L484.183713,57.4195833 L483.140419,57.4433333 Z" id="Shape"></path>
            </g>
        </g>
    </g>
</svg>