<?xml version="1.0" encoding="UTF-8"?>
<svg width="31px" height="50px" viewBox="0 0 31 50" version="1.1" xmlns="http://www.w3.org/2000/svg" xmlns:xlink="http://www.w3.org/1999/xlink">
    <!-- Generator: Sketch 64 (93537) - https://sketch.com -->
    <title>img-01</title>
    <desc>Created with Sketch.</desc>
    <g id="Welcome" stroke="none" stroke-width="1" fill="none" fill-rule="evenodd">
        <g id="HOME---Servicios---Domicilios---Desktop-HD" transform="translate(-169.000000, -543.000000)" fill="#000000" fill-rule="nonzero">
            <g id="img-01" transform="translate(169.000000, 543.000000)">
                <path d="M26.35,0 L4.65,0 C2.0858303,0 0,2.10265152 0,4.6875 L0,45.3125 C0,47.8973485 2.0858303,50 4.65,50 L26.35,50 C28.9141697,50 31,47.8973485 31,45.3125 L31,4.6875 C31,2.10265152 28.9141697,0 26.35,0 Z M4.65,3.125 L26.35,3.125 C27.2052242,3.125 27.9,3.82537879 27.9,4.6875 L27.9,37.5 L3.1,37.5 L3.1,4.6875 C3.1,3.82537879 3.79477576,3.125 4.65,3.125 Z M26.35,46.875 L4.65,46.875 C3.79477576,46.875 3.1,46.1746212 3.1,45.3125 L3.1,40.625 L27.9,40.625 L27.9,45.3125 C27.9,46.1746212 27.2052242,46.875 26.35,46.875 Z" id="Shape"></path>
                <path d="M16.5606497,42.4393503 C17.1464501,43.0251508 17.1464501,43.9748492 16.5606497,44.5606497 C15.9748492,45.1464501 15.0251508,45.1464501 14.4393503,44.5606497 C13.8535499,43.9748492 13.8535499,43.0251508 14.4393503,42.4393503 C15.0251508,41.8535499 15.9748492,41.8535499 16.5606497,42.4393503" id="Path"></path>
            </g>
        </g>
    </g>
</svg>