<?xml version="1.0" encoding="UTF-8"?>
<svg width="58px" height="57px" viewBox="0 0 58 57" version="1.1" xmlns="http://www.w3.org/2000/svg" xmlns:xlink="http://www.w3.org/1999/xlink">
    <!-- Generator: Sketch 64 (93537) - https://sketch.com -->
    <title>img-04</title>
    <desc>Created with Sketch.</desc>
    <g id="Welcome" stroke="none" stroke-width="1" fill="none" fill-rule="evenodd">
        <g id="HOME---Servicios---Domicilios---Desktop-HD" transform="translate(-549.000000, -1008.000000)" fill="#FFEB00" fill-rule="nonzero">
            <g id="img-04" transform="translate(549.000000, 1008.000000)">
                <path d="M54.3756641,21 L41.6878101,21 C40.6853528,21 39.8727006,21.8073442 39.8727006,22.8032538 C39.8727006,23.7991634 40.6853528,24.6065076 41.6878101,24.6065076 L54.3756641,24.6065076 L54.3756641,30.0044055 L3.62424817,30.0044055 L3.62424817,24.6243029 L16.3121022,24.6243029 C17.3145594,24.6243029 18.1272116,23.8169586 18.1272116,22.8210491 C18.1272116,21.8251395 17.3145594,21.0177953 16.3121022,21.0177953 L3.62424817,21.0177953 C1.62166574,21.0210675 0,22.6347979 0,24.6243029 L0,30.0222008 C0,32.0107439 1.62263118,33.6227766 3.62424817,33.6227766 L5.69610009,33.6227766 L9.08151807,55.4694337 C9.20735097,56.3538875 9.97367059,57.0086178 10.8727445,56.9999142 L47.1271677,56.9999142 C48.0262417,57.0086178 48.7925613,56.3538875 48.9183942,55.4694337 L52.3038122,33.6049814 L54.3756641,33.6049814 C56.3772811,33.6049814 57.9999565,31.9929486 57.9999565,30.0044055 L57.9999565,24.6243029 C58.0046744,23.6657452 57.6251291,22.7447388 56.9451061,22.0647055 C56.2650832,21.3846723 55.3405344,21.0015649 54.3756641,21 L54.3756641,21 Z M45.5688007,53.4170462 L12.4311115,53.4170462 L9.36214355,33.6049814 L48.6377687,33.6049814 L45.5688007,53.4170462 Z" id="Shape"></path>
                <path d="M29,28 C32.857938,27.9968437 35.9873003,24.8732849 36,21.0129816 L36,7.00432711 C36,3.13594404 32.8659932,0 29,0 C25.1340068,0 22,3.13594404 22,7.00432711 L22,21.0129816 C22.0126997,24.8732849 25.142062,27.9968437 29,28 Z M25.5,7.00432711 C25.5,5.07013559 27.0670034,3.50216359 29,3.50216359 C30.9329966,3.50216359 32.5,5.07013559 32.5,7.00432711 L32.5,21.0129816 C32.5,22.9471732 30.9329966,24.5151453 29,24.5151453 C27.0670034,24.5151453 25.5,22.9471732 25.5,21.0129816 L25.5,7.00432711 Z" id="Shape"></path>
                <path d="M29,18 L29,18 C27.8954305,18 27,18.8954305 27,20 L27,20 C27,21.1045695 27.8954305,22 29,22 L29,22 C30.1045695,22 31,21.1045695 31,20 L31,20 C31,18.8954305 30.1045695,18 29,18 L29,18 Z" id="Path"></path>
                <path d="M25.0231159,49.999536 C26.1149188,49.999536 27,49.2409045 27,48.3050851 L27,39.7142194 C27,38.7674822 26.1045929,38 25.0000522,38 C23.8955116,38 23.0001045,38.7674822 23.0001045,39.7142194 L23.0001045,48.2881406 C22.9945995,48.7474036 23.2068386,49.1889085 23.5882123,49.5115371 C23.969586,49.8341656 24.4874207,50.0102769 25.0231159,49.999536 L25.0231159,49.999536 Z" id="Path"></path>
                <path d="M18.0231159,49.999536 C19.1149188,49.999536 20,49.2409045 20,48.3050851 L20,39.7142194 C20,38.7674822 19.1045929,38 18.0000522,38 C16.8955116,38 16.0001045,38.7674822 16.0001045,39.7142194 L16.0001045,48.2881406 C15.9945995,48.7474036 16.2068386,49.1889085 16.5882123,49.5115371 C16.969586,49.8341656 17.4874207,50.0102769 18.0231159,49.999536 L18.0231159,49.999536 Z" id="Path"></path>
                <path d="M32.0231159,49.999536 C33.1149188,49.999536 34,49.2409045 34,48.3050851 L34,39.7142194 C34,38.7674822 33.1045929,38 32.0000522,38 C30.8955116,38 30.0001045,38.7674822 30.0001045,39.7142194 L30.0001045,48.2881406 C29.9945995,48.7474036 30.2068386,49.1889085 30.5882123,49.5115371 C30.969586,49.8341656 31.4874207,50.0102769 32.0231159,49.999536 L32.0231159,49.999536 Z" id="Path"></path>
                <path d="M40.0231159,49.999536 C41.1149188,49.999536 42,49.2409045 42,48.3050851 L42,39.7142194 C42,38.7674822 41.1045929,38 40.0000522,38 C38.8955116,38 38.0001045,38.7674822 38.0001045,39.7142194 L38.0001045,48.2881406 C37.9945995,48.7474036 38.2068386,49.1889085 38.5882123,49.5115371 C38.969586,49.8341656 39.4874207,50.0102769 40.0231159,49.999536 L40.0231159,49.999536 Z" id="Path"></path>
            </g>
        </g>
    </g>
</svg>