<?xml version="1.0" encoding="UTF-8"?>
<svg width="44px" height="44px" viewBox="0 0 44 44" version="1.1" xmlns="http://www.w3.org/2000/svg" xmlns:xlink="http://www.w3.org/1999/xlink">
    <!-- Generator: Sketch 64 (93537) - https://sketch.com -->
    <title>img-02</title>
    <desc>Created with Sketch.</desc>
    <g id="Welcome" stroke="none" stroke-width="1" fill="none" fill-rule="evenodd">
        <g id="HOME---Servicios---Domicilios---Desktop-HD" transform="translate(-451.000000, -547.000000)" fill="#000000" fill-rule="nonzero">
            <g id="img-02" transform="translate(451.000000, 547.000000)">
                <path d="M37.5892666,6.39428707 C33.4530684,2.27304687 27.9522593,0.00241698875 22.0920155,0 C10.0164107,0 0.188622314,9.78049318 0.183765053,21.8015381 C0.182146012,25.6442871 1.19083002,29.3954589 3.10808533,32.7019043 L0,44 L11.6138985,40.9680176 C14.8140012,42.7052979 18.4167141,43.6208008 22.0831106,43.621875 L22.0922854,43.621875 C34.166541,43.621875 43.9954088,33.8405761 44,21.8189942 C44.0024247,15.9929687 41.7257347,10.5152588 37.5892666,6.39428707 Z M22.0920155,39.9397217 L22.0844598,39.9397217 C18.8171654,39.9383789 15.6127451,39.064502 12.8166018,37.4136963 L12.1519712,37.0208008 L5.26010648,38.8201172 L7.09964616,32.1328369 L6.6665434,31.4472168 C4.84373428,28.5618652 3.88119387,25.2269531 3.88281087,21.8028808 C3.88659078,11.8113037 12.0553664,3.68242188 22.0993014,3.68242188 C26.9630042,3.68403324 31.5350036,5.57143551 34.9728406,8.99685057 C38.4106776,12.4222656 40.3028372,16.9753418 40.3012191,21.8176513 C40.2969006,31.8100342 32.1286646,39.9397217 22.0920155,39.9397217 L22.0920155,39.9397217 Z M32.0800924,26.3672364 C31.5328448,26.0943848 28.8414016,24.7768555 28.3394882,24.5947754 C27.8381145,24.4129639 27.4727431,24.3224609 27.1081813,24.867627 C26.7430798,25.412793 25.6941887,26.6400879 25.3746911,27.0034424 C25.0551935,27.3670654 24.7362357,27.4127197 24.1887183,27.1398682 C23.6412009,26.8672852 21.877488,26.2917724 19.786452,24.4357911 C18.1592811,22.9912354 17.0607384,21.2072266 16.7412408,20.6620605 C16.4222829,20.1163574 16.7385424,19.8499511 16.9814036,19.5502442 C17.5739853,18.8178955 18.1673765,18.0500977 18.3497923,17.6867432 C18.532478,17.3231201 18.4410003,17.0048828 18.3039185,16.7322998 C18.1673765,16.4597168 17.0726116,13.7781982 16.6165719,12.6870605 C16.1718659,11.6251953 15.7209534,11.7686036 15.3847253,11.7519531 C15.0657675,11.7361084 14.700666,11.7328857 14.3355644,11.7328857 C13.9707327,11.7328857 13.3776114,11.869043 12.875698,12.4147461 C12.3740544,12.9601807 10.9600618,14.2779786 10.9600618,16.9594971 C10.9600618,19.6410156 12.9215718,22.2314942 13.1951956,22.5951172 C13.4688193,22.9587402 17.0553414,28.4614258 22.546436,30.8209473 C23.8524903,31.3827636 24.8719682,31.7176514 25.6672041,31.96875 C26.9786552,32.3833984 28.1716441,32.3248536 29.1150254,32.184668 C30.1668848,32.0281006 32.3534463,30.8666016 32.8100256,29.5941895 C33.2660652,28.3215088 33.2660652,27.2309082 33.1289834,27.0034424 C32.9924414,26.7762451 32.6273399,26.6400879 32.0800924,26.3672364 L32.0800924,26.3672364 Z" id="Shape"></path>
            </g>
        </g>
    </g>
</svg>