<?xml version="1.0" encoding="UTF-8"?>
<svg width="62px" height="62px" viewBox="0 0 62 62" version="1.1" xmlns="http://www.w3.org/2000/svg" xmlns:xlink="http://www.w3.org/1999/xlink">
    <!-- Generator: Sketch 64 (93537) - https://sketch.com -->
    <title>img-03</title>
    <desc>Created with Sketch.</desc>
    <g id="Welcome" stroke="none" stroke-width="1" fill="none" fill-rule="evenodd">
        <g id="HOME---Servicios---Domicilios---Desktop-HD" transform="translate(-143.000000, -1009.000000)" fill="#FFEB00" fill-rule="nonzero">
            <g id="img-03" transform="translate(143.000000, 1009.000000)">
                <path d="M51.6666667,10.9471333 L51.6666667,5.16666667 C51.66305,2.31466667 49.352,0.00361666667 46.5,0 L5.16666667,0 C2.31466667,0.00361666667 0.00361666667,2.31466667 0,5.16666667 L0,27.9 C0.00800834987,30.538875 2.00828337,32.7458167 4.63346667,33.01345 L8.51776667,43.0964583 C9.54386667,45.7588417 12.5338167,47.085125 15.1964583,46.0603166 L39.4526667,36.7164 C37.7766,41.094375 38.2534834,46.00555 40.7396834,49.9794917 L41.3333333,50.9288667 L41.3333333,60.9666667 C41.3333333,61.5375833 41.79575,62 42.3666667,62 L60.9666667,62 C61.5375833,62 62,61.5375833 62,60.9666667 L62,26.857625 C61.9901833,23.2841 60.5675417,19.86015 58.0410417,17.332875 L51.6666667,10.9471333 Z M51.6666667,17.1269833 L54.8028333,25.2681 C55.4174083,26.86615 54.6209667,28.6592417 53.023175,29.2743333 L51.2306,29.9666667 C51.5168333,29.31515 51.6651166,28.6109333 51.6666667,27.9 L51.6666667,17.1269833 Z M2.06666667,27.9 L2.06666667,5.16666667 C2.06666667,3.45495003 3.45495003,2.06666667 5.16666667,2.06666667 L46.5,2.06666667 C48.2117166,2.06666667 49.6,3.45495003 49.6,5.16666667 L49.6,11.7345333 L49.5909583,11.7345333 L49.6,11.7580417 L49.6,27.9 C49.5919917,28.0803166 49.5684834,28.2590834 49.5297333,28.4352667 L40.0644,18.9689 C37.9367667,16.89035 34.54485,16.8743333 32.3981,18.9311833 C30.2508333,20.989325 30.121925,24.3786583 32.1077333,26.592575 L36.1429,31 L5.16666667,31 C3.45495003,31 2.06666667,29.6117166 2.06666667,27.9 Z M15.3047,33.0666667 L7.95666667,35.895675 L6.8696,33.0666667 L15.3047,33.0666667 Z M14.4532333,44.1313417 C12.8557,44.7472083 11.061575,43.9507667 10.4459667,42.3532333 L8.70273333,37.82 L21.0376333,33.0666667 L21.0376333,33.0604667 L38.037,33.0604667 L39.380075,34.5247 L14.4532333,44.1313417 Z M59.9333333,59.9333333 L43.4,59.9333333 L43.4,51.6666667 L59.9333333,51.6666667 L59.9333333,59.9333333 Z M59.9333333,49.6 L42.9401667,49.6 L42.4919583,48.8839 C39.9724333,44.8575166 39.8722,39.7719667 42.2302667,35.65 C42.4534667,35.2599166 42.3987,34.7701166 42.0949,34.4389333 L33.6269917,25.2009333 C32.3642583,23.81885 32.4353,21.682175 33.7871583,20.3876667 C35.1395333,19.0929 37.2772417,19.1140834 38.6030083,20.4346834 L55.0694333,36.8972333 L56.5305667,35.4361 L52.7072333,31.6127667 L53.7674333,31.1994333 C56.42775,30.173075 57.7535166,27.1857083 56.73,24.5238417 L53.232425,15.441875 L56.5799083,18.7963333 C58.7189083,20.9348167 59.9250667,23.8328 59.9333333,26.857625 L59.9333333,49.6 Z" id="Shape"></path>
                <path d="M11.66,14 C12.9524,14 14,12.9524 14,11.66 L14,7.34 C14,6.0476 12.9524,5 11.66,5 L7.34,5 C6.0476,5 5,6.0476 5,7.34 L5,11.66 C5,12.9524 6.0476,14 7.34,14 L11.66,14 Z M6.8,11.66 L6.8,10.4 L8.6,10.4 L8.6,8.6 L6.8,8.6 L6.8,7.34 C6.8,7.04187501 7.04187501,6.8 7.34,6.8 L11.66,6.8 C11.958125,6.8 12.2,7.04187501 12.2,7.34 L12.2,8.6 L10.4,8.6 L10.4,10.4 L12.2,10.4 L12.2,11.66 C12.2,11.958125 11.958125,12.2 11.66,12.2 L7.34,12.2 C7.04187501,12.2 6.8,11.958125 6.8,11.66 Z" id="Shape"></path>
                <polygon id="Path" points="6 17 11 17 11 19 6 19"></polygon>
                <polygon id="Path" points="6 23 11 23 11 25 6 25"></polygon>
                <polygon id="Path" points="23 23 28 23 28 25 23 25"></polygon>
                <polygon id="Path" points="11 17 16 17 16 19 11 19"></polygon>
                <polygon id="Path" points="17 17 22 17 22 19 17 19"></polygon>
                <polygon id="Path" points="23 17 28 17 28 19 23 19"></polygon>
                <polygon id="Path" points="43 6 45 6 45 9 43 9"></polygon>
                <polygon id="Path" points="38 6 40 6 40 9 38 9"></polygon>
                <polygon id="Path" points="36 6 38 6 38 9 36 9"></polygon>
                <polygon id="Path" points="31 6 33 6 33 9 31 9"></polygon>
                <polygon id="Path" points="46 53 48 53 48 55 46 55"></polygon>
            </g>
        </g>
    </g>
</svg>