<?xml version="1.0" encoding="UTF-8"?>
<svg width="383px" height="129px" viewBox="0 0 383 129" version="1.1" xmlns="http://www.w3.org/2000/svg" xmlns:xlink="http://www.w3.org/1999/xlink">
    <!-- Generator: Sketch 64 (93537) - https://sketch.com -->
    <title>head-seguros</title>
    <desc>Created with Sketch.</desc>
    <g id="Welcome" stroke="none" stroke-width="1" fill="none" fill-rule="evenodd">
        <g id="HOME---Aliados---Seguros-Éxito---Desktop-HD" transform="translate(-924.000000, -214.000000)" fill-rule="nonzero">
            <g id="head-seguros" transform="translate(924.000000, 214.000000)">
                <path d="M382.83024,64.6348837 C382.84246,38.6939494 367.223814,15.3010948 343.259853,5.36827971 C319.295893,-4.56453534 291.708007,0.919656653 273.364995,19.2626693 C255.021982,37.6056819 249.53779,65.1935669 259.470605,89.1575276 C269.40342,113.121488 292.796275,128.740135 318.737209,128.727914 C354.134809,128.727914 382.83024,100.032483 382.83024,64.6348837" id="Path" fill="#FFEB00"></path>
                <path d="M289.744186,60.7953488 C289.296305,59.022375 288.516674,57.3502718 287.446512,55.8674419 C286.374314,54.407476 284.976974,53.2171489 283.365116,52.3906977 C281.564024,51.4937856 279.572064,51.0476696 277.560465,51.0906977 C275.692171,51.0554957 273.83758,51.4161106 272.118605,52.1488372 C270.512499,52.8506466 269.070819,53.880418 267.886047,55.172093 C266.696592,56.4378638 265.771568,57.9281797 265.165116,59.555814 C264.514576,61.2853948 264.186674,63.1195968 264.197674,64.9674419 C264.17377,66.8530647 264.491289,68.7274507 265.134884,70.5 C265.720287,72.115131 266.625113,73.5957555 267.795349,74.8534884 C268.971252,76.0895917 270.406418,77.0498106 271.997674,77.6651163 C273.770733,78.3515727 275.659359,78.6902936 277.560465,78.6627907 C280.214053,78.7399359 282.831806,78.0355606 285.088372,76.6372093 C286.187479,75.9120799 287.13267,74.9771627 287.869767,73.8860465 C288.712527,72.6653886 289.355466,71.3182782 289.774419,69.8953488 L289.955814,69.3813953 C289.976182,69.3241095 289.966496,69.2604292 289.930017,69.2117899 C289.893537,69.1631507 289.835116,69.1360217 289.774419,69.1395349 L283.062791,69.1395349 C282.7,69.1395349 282.669767,69.3209302 282.669767,69.3209302 L282.669767,69.5627907 C282.563013,69.8974046 282.388008,70.206236 282.155814,70.4697674 C281.831548,70.8243026 281.46618,71.1389248 281.067442,71.4069767 C280.112747,72.0479665 278.982048,72.3755523 277.832558,72.344186 C277.031399,72.3612465 276.233402,72.2384776 275.474419,71.9813953 C274.854531,71.7878899 274.286198,71.4572238 273.811628,71.0139535 C273.339976,70.5216319 272.979179,69.9340485 272.753488,69.2906977 C272.522625,68.616622 272.380348,67.9154003 272.330233,67.2046512 L289.986047,67.2046512 C290.28842,67.2046512 290.28842,66.872093 290.28842,66.872093 L290.28842,66.6604651 C290.28842,66.2069767 290.28842,65.7534884 290.28842,65.3302326 C290.291828,63.8419739 290.109012,62.3591331 289.744186,60.9162791 M273.35814,59.2534884 C273.767035,58.7442106 274.283154,58.3313158 274.869767,58.044186 C275.65,57.7010107 276.496826,57.5357762 277.348837,57.5604651 C278.026703,57.5407508 278.702585,57.6431572 279.344186,57.8627907 C279.843771,58.0270883 280.291856,58.3188646 280.644186,58.7093023 C281.356456,59.5866209 281.844173,60.624316 282.065116,61.7325581 L272.330233,61.7325581 C272.375545,61.4347905 272.446348,61.1414646 272.54186,60.855814 C272.71015,60.2932797 272.987515,59.7693692 273.35814,59.3139535" id="Shape" fill="#1E120C"></path>
                <path d="M315.44186,77.6046512 L305.97907,63.9697674 L314.534884,51.8767442 C314.534884,51.8767442 314.534884,51.7255814 314.323256,51.7255814 L305.676744,51.7255814 C305.538333,51.7133645 305.40274,51.7698613 305.313953,51.8767442 L301.444186,57.7116279 L297.302326,51.8767442 C297.20719,51.7577651 297.061565,51.6905534 296.909302,51.6951086 L288.232558,51.6951086 C287.960465,51.6951086 288.232558,51.8465116 288.232558,51.8465116 L288.837209,52.7232558 L296.788372,64.1813953 L287.234884,77.6046512 C287.234884,77.6046512 287.053488,77.8767442 287.234884,77.8767442 L295.911628,77.8767442 C296.124179,77.8733216 296.319319,77.7585332 296.425581,77.5744186 L301.081395,70.5302326 L305.85814,77.6046512 C305.962483,77.7762661 306.141876,77.8883874 306.34186,77.9069767 L315.139535,77.9069767 C315.472093,77.9069767 315.139535,77.6046512 315.139535,77.6046512" id="Path" fill="#1E120C"></path>
                <path d="M326.265116,51.6953488 L316.25814,51.6953488 C315.895349,51.6953488 315.955814,51.9069767 315.955814,51.9069767 L317.376744,77.6348837 C317.376744,77.6348837 317.376744,77.9674457 317.67907,77.9674457 L324.753488,77.9674457 C324.839194,77.9678716 324.921054,77.9319041 324.978707,77.8684863 C325.03636,77.8050685 325.064386,77.7201607 325.055814,77.6348837 L326.506977,51.9674419 C326.506977,51.9674419 326.506977,51.6953488 326.265116,51.6953488" id="Path" fill="#1E120C"></path>
                <path d="M345.281395,57.5906977 C345.281395,57.5906977 345.553496,57.5906977 345.553496,57.2581395 L345.553496,51.9372093 C345.554036,51.867465 345.524448,51.8008796 345.472319,51.7545426 C345.42019,51.7082056 345.350594,51.6866284 345.281395,51.6953488 L340.534884,51.6953488 L340.534884,44.5 C340.543521,44.4227593 340.518715,44.345512 340.466721,44.2877416 C340.414728,44.2299712 340.340511,44.197193 340.262791,44.197667 L332.613953,44.197667 C332.544209,44.1971271 332.477624,44.2267149 332.431287,44.2788441 C332.38495,44.3309732 332.363373,44.4005683 332.372093,44.4697674 L332.372093,51.6953488 L328.502326,51.6953488 C328.169767,51.6953488 328.230233,51.9069767 328.230233,51.9069767 L328.230233,57.2883721 C328.230233,57.2883721 328.230233,57.5906977 328.472093,57.5906977 L332.372093,57.5906977 L332.372093,71.5581395 C332.325332,72.716828 332.564121,73.8692459 333.067442,74.9139535 C333.524597,75.7464207 334.191659,76.4447505 335.002326,76.9395349 C335.850742,77.4255874 336.784789,77.7437795 337.753488,77.8767442 C338.754719,78.0210296 339.765176,78.0917616 340.776744,78.0884884 L342.893023,78.0884884 C343.570838,78.0620144 344.246892,78.0014723 344.918605,77.9069767 L345.190698,77.9069767 C345.190698,77.9069767 345.462791,77.9069767 345.462791,77.5744186 L345.462791,71.5581395 C345.462791,71.2255814 345.190698,71.3465116 345.190698,71.3465116 L344.646512,71.3465116 L343.709302,71.3465116 L342.651163,71.5581395 C342.219854,71.6173813 341.782471,71.6173813 341.351163,71.5581395 C341.143104,71.5353071 340.950078,71.4387941 340.806977,71.2860465 C340.666391,71.1342058 340.572005,70.9454336 340.534884,70.7418605 C340.477646,70.3205397 340.477646,69.8934138 340.534884,69.472093 L340.534884,57.5906977 L345.281395,57.5906977 Z" id="Path" fill="#1E120C"></path>
                <path d="M372.218605,59.1930233 C371.603892,57.5625267 370.668387,56.0718877 369.467442,54.8093023 C368.233314,53.5869029 366.762032,52.6300555 365.144186,51.9976744 C361.547826,50.7077519 357.614965,50.7077519 354.018605,51.9976744 C352.413739,52.6207708 350.960412,53.5793486 349.755814,54.8093023 C348.535284,56.0622993 347.588169,57.5550352 346.974419,59.1930233 C346.31834,61.0050025 345.990728,62.9194817 346.006977,64.8465116 C345.985472,66.7739621 346.313242,68.6893719 346.974419,70.5 C347.588717,72.1287934 348.536025,73.6115359 349.755814,74.8534884 C350.961577,76.0890679 352.428373,77.0393863 354.048837,77.6348837 C355.806905,78.2964354 357.672876,78.6245181 359.551163,78.6023256 C361.45876,78.6218661 363.353986,78.2940433 365.144186,77.6348837 C366.767954,77.0283058 368.242348,76.0797449 369.467442,74.8534884 C370.668239,73.6023451 371.603998,72.1215836 372.218605,70.5 C372.869487,68.6874687 373.187005,66.7721139 373.155814,64.8465116 C373.181756,62.9213023 372.864392,61.0068764 372.218605,59.1930233 M362.151163,71.5581395 C361.351384,71.9811828 360.45554,72.1895185 359.551163,72.1627907 C358.666428,72.185942 357.791001,71.9775068 357.011628,71.5581395 C356.336442,71.1898102 355.772607,70.6468572 355.37907,69.9860465 C354.943381,69.2580079 354.636556,68.4602631 354.472093,67.627907 C354.288839,66.7121732 354.197687,65.7803987 354.199957,64.8465116 C354.200561,63.9027569 354.291677,62.9612332 354.472093,62.0348837 C354.625361,61.2087904 354.933065,60.419017 355.37907,59.7069767 C355.779495,59.0437968 356.34108,58.4926116 357.011628,58.1046512 C357.785576,57.6712111 358.664929,57.4618413 359.551163,57.5 C361.275955,57.4053122 362.917491,58.2492006 363.844186,59.7069767 C364.267173,60.4272104 364.563707,61.2145572 364.72093,62.0348837 C364.901347,62.9612332 364.992462,63.9027569 364.993066,64.8465116 C364.995337,65.7803987 364.904185,66.7121732 364.72093,67.627907 C364.553247,68.4548085 364.257433,69.2504444 363.844186,69.9860465 C363.418912,70.6423379 362.837115,71.1825781 362.151163,71.5581395" id="Shape" fill="#1E120C"></path>
                <path d="M326.114048,84.2255814 C326.113916,82.2419139 324.917338,80.4541612 323.083488,79.6978999 C321.249638,78.9416385 319.14071,79.3662338 317.742395,80.7732344 C316.34408,82.180235 315.932551,84.2917515 316.700153,86.1208835 C317.467754,87.9500155 319.262882,89.1355007 321.246512,89.1233498 C322.542693,89.1233498 323.785349,88.6063145 324.699046,87.6869429 C325.612742,86.7675713 326.122004,85.5217375 326.114048,84.2255814" id="Path" fill="#E52F2A"></path>
                <path d="M278.527907,44.3488372 L274.688372,49.155814 C274.688372,49.155814 274.446512,49.427907 274.688372,49.427907 L279.162791,49.427907 C279.370028,49.4399178 279.574454,49.3753621 279.737209,49.2465116 L286.297674,44.3488372 C286.297674,44.3488372 286.539535,44.1372093 286.297674,44.1372093 L279.04186,44.1372093 C278.864243,44.1244247 278.692664,44.2044947 278.588372,44.3488372" id="Path" fill="#010101"></path>
                <path d="M379.534884,54.2651163 C379.544567,54.8242167 379.409156,55.3762797 379.14186,55.8674419 C378.844846,56.3459929 378.441342,56.7494976 377.962791,57.0465116 C376.958683,57.6121789 375.732015,57.6121789 374.727907,57.0465116 C374.249356,56.7494976 373.845851,56.3459929 373.548837,55.8674419 C372.982545,54.8742767 372.982545,53.6559559 373.548837,52.6627907 C373.823562,52.1670106 374.232127,51.7584458 374.727907,51.4837209 C375.732015,50.9180536 376.958683,50.9180536 377.962791,51.4837209 C378.458571,51.7584458 378.867136,52.1670106 379.14186,52.6627907 C379.409156,53.1539528 379.544567,53.7060159 379.534884,54.2651163 M378.930233,54.2651163 C378.933236,53.0389772 378.069568,51.9815148 376.867532,51.7395759 C375.665495,51.497637 374.459973,52.1386248 373.98838,53.2704489 C373.516786,54.4022731 373.910506,55.7096115 374.928701,56.3927692 C375.946897,57.0759269 377.305902,56.9445787 378.174419,56.0790698 C378.66548,55.6043522 378.938932,54.9480677 378.930233,54.2651163 M374.87907,52.5418605 L376.42093,52.5418605 C376.764749,52.5219679 377.105329,52.6177561 377.388372,52.8139535 C377.57817,52.9936005 377.677933,53.2485512 377.660465,53.5093023 C377.654094,53.7278779 377.580162,53.9391116 377.448837,54.1139535 C377.237466,54.2881082 376.989403,54.4121397 376.723256,54.4767442 L377.025581,54.4767442 C377.128333,54.5881462 377.219499,54.7097007 377.297674,54.8395349 L377.872093,55.8069767 L376.844186,55.8069767 C376.645931,55.4109255 376.423817,55.0272742 376.17907,54.6581395 C376.17907,54.5069767 375.967442,54.4465116 375.846512,54.4465116 L375.846512,54.4465116 L375.846512,55.7767442 L375,55.7767442 L374.87907,52.5418605 Z M375.725581,53.9930233 L376.118605,53.9930233 C376.284663,54.0530596 376.4665,54.0530596 376.632558,53.9930233 C376.722449,53.9183541 376.774451,53.8075561 376.774451,53.6906977 C376.774451,53.5738393 376.722449,53.4630412 376.632558,53.3883721 C376.477033,53.3276611 376.304363,53.3276611 376.148837,53.3883721 L375.725581,53.3883721 L375.725581,53.9930233 Z" id="Shape" fill="#1E120C"></path>
                <path d="M77.8744186,69.1697674 C77.8744186,72.9186047 81.2906977,74.0976744 84.7372093,74.0976744 C87.3674419,74.0976744 90.7837209,73.5232558 90.7837209,70.2883721 C90.7837209,67.0534884 86.7627907,66.4790698 82.6511628,65.5116279 C78.5395349,64.544186 74.3069767,63.2139535 74.3069767,58.3162791 C74.3069767,53.4186047 79.3860465,51.0302326 83.8302326,51.0302326 C89.4837209,51.0302326 93.9581395,52.8139535 94.3209302,59.0418605 L90.027907,59.0418605 C89.7255814,55.7767442 87.0046512,54.7488372 83.9813953,54.7488372 C80.9581395,54.7488372 78.5395349,55.444186 78.5395349,58.0139535 C78.5395349,60.5837209 82.9837209,61.5209302 86.8837209,62.4581395 C90.7837209,63.3953488 95.2581395,64.7860465 95.2581395,69.7139535 C95.2581395,75.7604651 89.5744186,77.7860465 84.3744186,77.7860465 C78.6302326,77.7860465 73.7930233,75.4581395 73.5511628,69.1395349 L77.8744186,69.1697674 Z" id="Path" fill="#FFFFFF"></path>
                <path d="M120.925581,69.1093023 C120.088381,74.46259 115.260493,78.2615841 109.860465,77.8162791 C101.727907,77.8162791 97.7674419,72.1627907 97.7674419,64.3627907 C97.7674419,56.5627907 102.816279,51.0604651 109.860465,51.0604651 C118.930233,51.0604651 121.681395,59.5255814 121.439535,65.6930233 L102.181395,65.6930233 C101.916604,67.9123857 102.651722,70.1346532 104.187767,71.7583058 C105.723813,73.3819585 107.901933,74.2390831 110.132558,74.0976744 C113.311457,74.4474938 116.213013,72.2613903 116.753488,69.1093023 L120.925581,69.1093023 Z M116.874419,62.0046512 C116.874419,57.9472848 113.585273,54.6581395 109.527907,54.6581395 C105.470541,54.6581395 102.181395,57.9472848 102.181395,62.0046512 L116.874419,62.0046512 Z" id="Shape" fill="#FFFFFF"></path>
                <path d="M146.804651,75.0348837 C146.804651,83.3488372 142.995349,87.5813953 134.953488,87.5813953 C130.146512,87.5813953 124.613953,85.6767442 124.372093,80.0837209 L128.574419,80.0837209 C128.755814,83.1069767 132.413953,84.2255814 135.195349,84.2255814 C140.667442,84.2255814 142.844186,80.2651163 142.844186,74.5511628 L142.844186,72.8581395 L142.844186,72.8581395 C141.345409,75.8982173 138.188139,77.7617188 134.802326,77.6046512 C127.183721,77.6046512 123.374419,71.5581395 123.374419,64.6651163 C123.374419,58.6186047 126.397674,51.1511628 135.195349,51.1511628 C138.33157,51.0382821 141.269435,52.6820874 142.813953,55.4139535 L142.813953,55.4139535 L142.813953,51.6651163 L146.774419,51.6651163 L146.804651,75.0348837 Z M142.662791,63.9093023 C142.662791,59.4348837 140.667442,54.8395349 135.376744,54.8395349 C130.086047,54.8395349 127.818605,59.2534884 127.818605,64.1209302 C127.818605,68.9883721 129.511628,73.855814 135.044186,73.855814 C140.576744,73.855814 142.662791,68.7162791 142.662791,63.9093023 Z" id="Shape" fill="#FFFFFF"></path>
                <path d="M173.348837,77.2116279 L169.297674,77.2116279 L169.297674,73.1604651 L169.297674,73.1604651 C167.662639,76.1922927 164.423075,78.0064483 160.983721,77.8162791 C154.181395,77.8162791 152.186047,73.9465116 152.186047,68.5348837 L152.186047,51.6651163 L156.388372,51.6651163 L156.388372,68.9581395 C156.286051,70.3608655 156.803189,71.7380389 157.8035,72.7267185 C158.803811,73.7153981 160.186939,74.2163944 161.588372,74.0976744 C163.709152,74.2188907 165.775116,73.3968051 167.232814,71.8516453 C168.690512,70.3064855 169.390958,68.1961763 169.146512,66.0860465 L169.146512,51.6651163 L173.348837,51.6651163 L173.348837,77.2116279 Z" id="Path" fill="#FFFFFF"></path>
                <path d="M178.488372,51.6651163 L182.418605,51.6651163 L182.418605,57.0465116 L182.418605,57.0465116 C183.867963,53.1713091 187.693662,50.7110529 191.82093,51 L191.82093,55.5348837 C185.048837,55.5348837 182.569767,59.3744186 182.569767,65.844186 L182.569767,77.2116279 L178.488372,77.2116279 L178.488372,51.6651163 Z" id="Path" fill="#FFFFFF"></path>
                <path d="M205.062791,51.0604651 C213.165116,51.0604651 217.488372,57.1069767 217.488372,64.4534884 C217.488372,71.8 213.165116,77.8162791 205.062791,77.8162791 C196.960465,77.8162791 192.667442,71.9209302 192.667442,64.4534884 C192.667442,56.9860465 196.960465,51.0604651 205.062791,51.0604651 Z M205.062791,74.0976744 C209.476744,74.0976744 213.013953,70.6511628 213.013953,64.4534884 C213.013953,58.255814 209.476744,54.7790698 205.062791,54.7790698 C200.648837,54.7790698 197.111628,58.2255814 197.111628,64.4534884 C197.111628,70.6813953 200.55814,74.0976744 205.062791,74.0976744 Z" id="Shape" fill="#FFFFFF"></path>
                <path d="M224.048837,69.1697674 C224.048837,72.9186047 227.465116,74.0976744 230.911628,74.0976744 C233.54186,74.0976744 236.95814,73.5232558 236.95814,70.2883721 C236.95814,67.0534884 232.937209,66.4790698 228.734884,65.5116279 C224.532558,64.544186 220.390698,63.2139535 220.390698,58.3162791 C220.390698,53.4186047 225.469767,51.0302326 229.913953,51.0302326 C235.567442,51.0302326 240.04186,52.8139535 240.404651,59.0418605 L236.202326,59.0418605 C235.9,55.7767442 233.027907,54.7488372 230.155814,54.7488372 C227.283721,54.7488372 224.713953,55.444186 224.713953,58.0139535 C224.713953,60.5837209 229.27907,61.5511628 233.17907,62.4883721 C237.07907,63.4255814 241.553488,64.8162791 241.553488,69.744186 C241.553488,75.7906977 235.869767,77.8162791 230.669767,77.8162791 C224.925581,77.8162791 220.088372,75.4883721 219.846512,69.1697674 L224.048837,69.1697674 Z" id="Path" fill="#FFFFFF"></path>
                <path d="M32.7372093,48.4604651 C23.8046576,48.6763815 16.7187686,56.0574432 16.8673863,64.991368 C17.016004,73.9252928 24.3434754,81.0665852 33.2782663,80.9852746 C42.2130572,80.903964 49.4093478,73.6304987 49.3953692,64.6953488 C49.2626905,55.6070432 41.7954883,48.342754 32.7069767,48.4604651" id="Path" fill="#FFFFFF"></path>
                <path d="M60.2186047,46.9488372 L47.6116279,46.9488372 C52.5391752,51.4980898 55.3565954,57.8890966 55.390987,64.5954547 C55.4253786,71.3018128 52.6736537,77.7213793 47.7930233,82.3209302 L60.3093023,82.3209302 C67.0205941,71.4852532 67.0205941,57.7845143 60.3093023,46.9488372" id="Path" fill="#FFFFFF"></path>
                <path d="M10.0930233,64.6953488 C10.1154724,57.9595098 12.9285906,51.5342163 17.8627907,46.9488372 L5.2255814,46.9488372 C-1.48571042,57.7845143 -1.48571042,71.4852532 5.2255814,82.3209302 L17.6511628,82.3209302 C12.8106051,77.7382741 10.0759423,71.3610404 10.0930233,64.6953488" id="Path" fill="#FFFFFF"></path>
            </g>
        </g>
    </g>
</svg>