<?xml version="1.0" encoding="UTF-8"?>
<svg width="85px" height="30px" viewBox="0 0 85 30" version="1.1" xmlns="http://www.w3.org/2000/svg" xmlns:xlink="http://www.w3.org/1999/xlink">
    <!-- Generator: Sketch 64 (93537) - https://sketch.com -->
    <title>img-04</title>
    <desc>Created with Sketch.</desc>
    <g id="Welcome" stroke="none" stroke-width="1" fill="none" fill-rule="evenodd">
        <g id="HOME---Aliados---Seguros-Éxito---Desktop-HD" transform="translate(-177.000000, -996.000000)">
            <g id="img-04" transform="translate(177.000000, 996.000000)">
                <path d="M54.321,9.66769965 L50.913,9.66769965 L50.913,9.66669965 C50.735,9.68069965 50.54,9.69069965 50.341,9.69069965 C47.766,9.69069965 45.818,11.4316996 45.698,15.3376996 C45.576,19.4616996 47.452,21.1686996 50.063,21.1686996 C52.977,21.1686996 54.321,18.9896996 54.321,16.7096996 L54.321,9.66769965 Z M57.511,9.37269965 L57.511,23.4916996 C55.651,23.4916996 54.71,22.9796996 54.497,21.2896996 C54.497,21.2896996 53.194,23.8156996 49.481,23.8156996 C44.96,23.8156996 42.29,20.3056996 42.437,15.3036996 C42.594,9.84769965 46.294,7.02469965 50.221,7.02169965 L50.963,7.02169965 L50.963,7.01869965 L57.511,7.01869965 L57.511,9.37269965 Z M5.108,13.4426996 C4.115,13.1876996 3.208,12.7546996 3.208,11.5716996 C3.208,10.3336996 3.967,9.73369965 5.578,9.73369965 L8.747,9.73369965 C10.179,9.73369965 11.861,9.27869965 11.864,7.02169965 L5.856,7.02469965 C2.131,7.02869965 -3.55271368e-15,8.86969965 -3.55271368e-15,11.4916996 C-3.55271368e-15,13.9116996 1.593,15.2746996 4.435,16.0156996 L7.589,16.8306996 C8.843,17.1706996 9.305,17.9596996 9.305,18.7826996 C9.305,20.0206996 8.501,20.7686996 6.59,20.7866996 L0.558,20.8296996 L0.558,23.4916996 L6.693,23.4916996 C10.375,23.4916996 12.505,21.5416996 12.505,18.9736996 C12.505,16.3936996 11.467,15.1186996 8.679,14.3766996 L5.108,13.4426996 Z M32.14,23.4916996 L35.092,23.4916996 L35.092,13.2436996 C35.092,11.0496996 36.294,9.73369965 38.579,9.73369965 L39.452,9.73369965 C42.039,9.73369965 42.461,8.42769965 42.461,7.02169965 L38.323,7.02169965 C34.662,7.02169965 32.14,9.08669965 32.14,13.3356996 L32.14,23.4916996 Z M25.179,7.02169965 C27.231,7.02169965 28.1560021,7.87469965 28.1560021,10.2716996 L28.1560021,19.1296996 C28.159,22.1966996 25.019,23.7076996 21.82,23.7076996 C18.512,23.7076996 15.684,22.1966996 15.684,19.1296996 L15.684,7.02169965 C17.058,7.02169965 18.627,7.46169965 18.638,9.90669965 L18.656,18.4246996 C18.656,20.1046996 19.945,20.9346996 21.908,20.9346996 C23.787,20.9346996 25.186,20.1046996 25.186,18.4246996 L25.179,7.02169965 L25.179,7.02169965 Z" id="Fill-1" fill="#0B4A8E"></path>
                <path d="M73.487,24.7726996 C73.518,24.7806996 73.544,24.8036996 73.532,24.8646996 C73.212,25.2786996 72.731,25.7466996 72.046,26.2196996 C71.37,26.6826996 70.573,27.1436996 69.739,27.5326996 C68.864,27.9346996 68.097,28.2876996 67.288,28.4896996 C66.376,28.7116996 65.585,28.8016996 64.931,28.7216996 C64.401,28.6646996 63.968,28.5106996 63.636,28.2506996 C63.614,28.2376996 63.61,28.2076996 63.61,28.1826996 C63.614,28.1476996 63.653,28.1206996 63.694,28.1086996 C65.731,27.7906996 67.593,27.2956996 69.331,26.7156996 C71.048,26.1436996 72.481,25.4756996 73.487,24.7726996" id="Fill-2" fill="#00ABBE"></path>
                <path d="M73.323,23.8246996 C72.264,24.4576996 70.005,25.3936996 68.038,25.9366996 C65.688,26.5846996 63.806,26.9056996 62.546,26.7236996 C61.436,26.5616996 60.889,26.0556996 60.72,25.8716996 C60.696,25.8546996 60.663,25.8286996 60.68,25.7976996 C60.684,25.7586996 60.714,25.7216996 60.765,25.7176996 L61.19,25.6886996 C62.128,25.6196996 63.806,25.5826996 65.765,25.2996996 C68.032,24.9866996 71.673,24.3566996 73.288,23.7196996 C73.325,23.7276996 73.347,23.7546996 73.323,23.8246996" id="Fill-3" fill="#00ABBE"></path>
                <path d="M73.128,26.6416996 C73.161,26.6436996 73.19,26.6656996 73.177,26.7236996 C72.809,27.6866996 72.349,28.4036996 71.435,28.8506996 C69.837,29.6236996 69.001,29.1786996 68.889,29.1266996 C68.864,29.1116996 68.839,29.0826996 68.839,29.0436996 C68.839,29.0086996 68.872,28.9796996 68.911,28.9756996 C69.604,28.7666996 71.698,28.0086996 73.081,26.6516996 C73.093,26.6436996 73.114,26.6396996 73.128,26.6416996" id="Fill-4" fill="#00ABBE"></path>
                <path d="M83.702,11.9876996 C83.729,12.0016996 83.747,12.0226996 83.747,12.0426996 C83.735,12.0706996 83.716,12.0856996 83.663,12.0847466 C83.183,11.9556996 82.173,11.6766996 80.889,11.3396996 C77.962,10.5506996 66.938,7.65569965 66.753,7.61269965 L66.7,7.59169965 C66.04,7.38969965 65.495,7.06069965 65.075,6.62269965 C64.95,6.49269965 64.843,6.36069965 64.735,6.20369965 C64.366,5.65369965 64.276,4.84369965 64.257,4.69269965 C64.257,4.68369965 64.265,4.64469965 64.286,4.62269965 C64.306,4.60269965 64.335,4.59769965 64.393,4.60369965 L66.204,5.30069965 C70.501,6.93269965 81.854,11.2496996 83.702,11.9876996" id="Fill-5" fill="#00ABBE"></path>
                <path d="M81.848,10.2656996 C81.866,10.3376996 81.829,10.3586996 81.77,10.3476996 C81.12,10.0296996 79.649,9.34369965 78.175,8.62669965 C76.927,8.01369965 68.435,4.08769965 67.854,3.80669965 L66.831,3.28769965 C66.68,3.22069965 66.54,3.13469965 66.403,3.05669965 C66.007,2.80769965 65.794,2.63969965 65.569,2.36969965 C65.394,2.13869965 65.257,1.86969965 65.143,1.59769965 C64.897,0.998699649 64.911,0.215699649 64.927,0.0736996491 C64.927,0.0536996491 64.934,0.0226996491 64.964,0.0116996491 C64.985,-0.00130035087 65.016,-0.00630035087 65.073,0.0116996491 L66.14,0.647699649 L66.71,0.988699649 L69.837,2.84969965 C74.153,5.50869965 80.261,9.29369965 81.848,10.2656996" id="Fill-6" fill="#00ABBE"></path>
                <path d="M84.991,13.1376996 C85.017,13.1436996 85.04,13.1696996 85.04,13.1986996 C85.04,13.2286996 85.011,13.2416996 84.968,13.2416996 C83.284,13.1246996 68.169,12.0856996 68.169,12.0856996 C68.028,12.0776996 67.921,12.0676996 67.778,12.0246996 C66.577,11.6486996 65.88,10.7456996 65.595,9.84169965 C65.585,9.80169965 65.581,9.76369965 65.595,9.73369965 C65.618,9.70869965 65.655,9.69069965 65.69,9.69469965 C65.698,9.69469965 83.517,12.8626996 84.991,13.1376996" id="Fill-7" fill="#00ABBE"></path>
                <path d="M84.243,14.0836996 C84.27,14.0876996 84.305,14.1186996 84.296,14.1506996 C84.292,14.1716996 84.27,14.1926996 84.245,14.1966996 C83.618,14.2986996 72.134,15.8276996 72.056,15.8336996 C71.985,15.8436996 71.917,15.8526996 71.852,15.8526996 C71.792,15.8526996 71.727,15.8526996 71.657,15.8436996 C71.11,15.7936996 70.577,15.5306996 70.099,15.0386996 C69.854,14.7786996 69.634,14.3806996 69.573,14.2186996 C69.554,14.1926996 69.554,14.1666996 69.573,14.1396996 C69.597,14.1166996 69.628,14.1016996 69.649,14.0976996 C69.649,14.0976996 73.474,14.0876996 75.913,14.0906996 C77.733,14.0976996 79.677,14.0976996 81.243,14.0976996 C82.616,14.0976996 83.706,14.0976996 84.243,14.0836996" id="Fill-8" fill="#00ABBE"></path>
                <path d="M83.372,15.2366996 C83.399,15.2366996 83.44,15.2266996 83.448,15.2536996 C83.45,15.2716996 83.489,15.3036996 83.427,15.3386996 C83.056,15.5856996 74.765,18.9206996 74.679,18.9516996 C74.227,19.0966996 73.718,19.1726996 73.347,18.5636996 C73.194,18.3136996 73.061,18.1026996 73.001,18.0046996 C72.979,17.9676996 72.89,17.8696996 73.128,17.8056996 C73.128,17.8056996 75.466,17.2016996 77.54,16.6906996 C79.94,16.1066996 82.655,15.4346996 83.372,15.2366996" id="Fill-9" fill="#00ABBE"></path>
                <path d="M79.714,20.8296996 C79.747,20.8316996 79.772,20.8606996 79.753,20.9166996 C78.952,21.8256996 75.991,24.9936996 74.657,26.3916996 C74.517,26.5226996 74.444,26.4676996 74.497,26.3226996 C74.497,26.3226996 74.753,25.6996996 74.862,25.2216996 C74.933,24.9286996 74.995,24.6906996 75.159,24.5676996 C76.897,23.1396996 78.563,21.7256996 79.665,20.8466996 L79.714,20.8296996" id="Fill-10" fill="#00ABBE"></path>
                <path d="M82.44,16.8116996 C82.481,16.8186996 82.499,16.8426996 82.481,16.9156996 C81.669,17.5736996 77.962,20.5866996 75.964,22.1746996 L75.89,22.2276996 C75.309,22.6686996 74.927,22.7626996 74.86,21.8286996 C74.841,21.6026996 74.813,21.4226996 74.813,21.4226996 C74.776,21.2216996 74.841,21.2216996 74.913,21.1766996 C75.557,20.7936996 76.809,20.1196996 77.804,19.5376996 C79.573,18.5006996 81.643,17.2766996 82.44,16.8116996" id="Fill-11" fill="#00ABBE"></path>
            </g>
        </g>
    </g>
</svg>