<?xml version="1.0" encoding="UTF-8"?>
<svg width="88px" height="77px" viewBox="0 0 88 77" version="1.1" xmlns="http://www.w3.org/2000/svg" xmlns:xlink="http://www.w3.org/1999/xlink">
    <!-- Generator: Sketch 64 (93537) - https://sketch.com -->
    <title>img-03</title>
    <desc>Created with Sketch.</desc>
    <g id="Welcome" stroke="none" stroke-width="1" fill="none" fill-rule="evenodd">
        <g id="HOME---Aliados---Seguros-Éxito---Desktop-HD" transform="translate(-1076.000000, -536.000000)" fill="#00B5CC" fill-rule="nonzero">
            <g id="img-03" transform="translate(1076.000000, 536.000000)">
                <path d="M73,8 C71.896,8 71,8.896 71,10 C71,11.104 71.896,12 73,12 C74.104,12 75,11.104 75,10 C75,8.8958 74.104,8 73,8 Z" id="Path"></path>
                <path d="M81.8912188,7.09122147 C77.7894219,2.51847809 72.1000156,0 65.8710938,0 C59.0598594,0 52.8445156,2.6188899 47.8974375,7.57333451 C46.1771406,9.29601922 44.8913437,11.0171696 44,12.3830429 C43.1086562,11.0173401 41.8228594,9.29636017 40.1025625,7.57333451 C35.1554844,2.61871942 28.9403125,0 22.1289062,0 C9.09115625,0 0,10.8187327 0,23.6813315 C0,41.0561538 18.5631875,55.6857617 42.8743906,76.5835212 C43.1973437,76.8612305 43.5986719,77 44,77 C44.4013281,77 44.8026563,76.8612305 45.1256094,76.5835212 C69.4947344,55.6358115 88,41.0319459 88,23.6813315 C88,17.3744814 85.8305937,11.4827463 81.8912188,7.09122147 Z M44,73.0401266 C21.0428281,53.3355459 3.4375,39.1831071 3.4375,23.6813315 C3.4375,12.1245976 11.473,3.40973941 22.1289062,3.40973941 C28.0455312,3.40973941 33.2425156,5.58947683 37.5754844,9.88809086 C40.8765156,13.1629818 42.4166875,16.5052118 42.4318125,16.5386255 C42.7083594,17.1501317 43.3214375,17.5429141 43.9974219,17.5442779 C43.9984531,17.5442779 43.9996562,17.5442779 44.0006875,17.5442779 C44.6765,17.5442779 45.2904375,17.1499613 45.5683594,16.5386255 C45.5834844,16.5052118 47.1236562,13.1631523 50.4246875,9.88809086 C54.7574844,5.58930635 59.9544687,3.40973941 65.8712656,3.40973941 C76.5271719,3.40973941 84.5626719,12.1245976 84.5626719,23.6813315 C84.5626719,39.5330994 65.7954687,54.3326743 44,73.0401266 Z" id="Shape"></path>
                <path d="M79.8957815,13.9153827 C79.4648233,13.0795564 78.4491733,12.7576642 77.6275804,13.1957383 C76.8058196,13.6339833 76.4889435,14.6666354 76.9199017,15.5022908 C78.028968,17.6528521 78.6397022,20.2211556 78.6397022,22.7341019 C78.6397022,27.6711494 76.3289933,32.9111242 71.3676816,39.2245856 C70.7883662,39.9616573 70.9064807,41.0368525 71.6312969,41.6259631 C72.3608176,42.2188325 73.4171272,42.090349 73.9927463,41.3578904 C79.4555825,34.4061119 82,28.4881816 82,22.7341019 C82,19.6340953 81.2723275,16.584662 79.8957815,13.9153827 Z" id="Path"></path>
                <path d="M61.3018868,32.2075472 L51.7924528,32.2075472 L51.7924528,22.6981132 C51.7924528,21.7602453 51.0322075,21 50.0943396,21 L39.9056604,21 C38.9677925,21 38.2075472,21.7602453 38.2075472,22.6981132 L38.2075472,32.2075472 L28.6981132,32.2075472 C27.7602453,32.2075472 27,32.9677925 27,33.9056604 L27,44.0943396 C27,45.0322075 27.7602453,45.7924528 28.6981132,45.7924528 L38.2075472,45.7924528 L38.2075472,55.3018868 C38.2075472,56.2397547 38.9677925,57 39.9056604,57 L50.0943396,57 C51.0322075,57 51.7924528,56.2397547 51.7924528,55.3018868 L51.7924528,45.7924528 L61.3018868,45.7924528 C62.2397547,45.7924528 63,45.0322075 63,44.0943396 L63,33.9056604 C63,32.9677925 62.2397547,32.2075472 61.3018868,32.2075472 Z M59.6037736,42.3960566 L50.0943396,42.3960566 C49.1564717,42.3960566 48.3962264,43.1563019 48.3962264,44.0941698 L48.3962264,53.6036038 L41.6037736,53.6036038 L41.6037736,44.0941698 C41.6037736,43.1563019 40.8435283,42.3960566 39.9056604,42.3960566 L30.3962264,42.3960566 L30.3962264,35.6036038 L39.9056604,35.6036038 C40.8435283,35.6036038 41.6037736,34.8433585 41.6037736,33.9054906 L41.6037736,24.3960566 L48.3962264,24.3960566 L48.3962264,33.9054906 C48.3962264,34.8433585 49.1564717,35.6036038 50.0943396,35.6036038 L59.6037736,35.6036038 L59.6037736,42.3960566 Z" id="Shape"></path>
            </g>
        </g>
    </g>
</svg>