<?xml version="1.0" encoding="UTF-8"?>
<svg width="66px" height="77px" viewBox="0 0 66 77" version="1.1" xmlns="http://www.w3.org/2000/svg" xmlns:xlink="http://www.w3.org/1999/xlink">
    <!-- Generator: Sketch 64 (93537) - https://sketch.com -->
    <title>img-01</title>
    <desc>Created with Sketch.</desc>
    <g id="Welcome" stroke="none" stroke-width="1" fill="none" fill-rule="evenodd">
        <g id="HOME---Aliados---Seguros-Éxito---Desktop-HD" transform="translate(-276.000000, -536.000000)" fill="#00B5CC" fill-rule="nonzero">
            <g id="img-01" transform="translate(276.000000, 536.000000)">
                <path d="M63.549884,46.4026316 L62.2737819,45.0179825 L57.645785,34.3291667 C56.6929621,32.1339912 54.5320959,30.7324561 52.133024,30.7324561 L34.1825213,30.7324561 L34.1825213,13.0528509 C34.1655066,12.5800439 33.9613302,12.1410088 33.6210363,11.8201754 L21.5576179,0.489692982 C21.2343387,0.185745614 20.8089714,0.0168859649 20.3665893,0 L5.18948183,0 C2.29698376,0 0,2.39780702 0,5.25153509 L0,35.8995614 C0,38.7195175 2.29698376,41.0160088 5.13843774,41.0328947 C5.15545244,41.0328947 5.17246713,41.0328947 5.18948183,41.0328947 L9.64733179,41.0328947 L8.03093581,44.7984649 L6.15931941,46.5546053 C4.38979118,48.0743421 3.38592421,50.2695175 3.4029389,52.5997807 L3.4029389,71.0899123 C3.4029389,74.3151316 5.98917247,77 9.23897912,77 L12.7269915,77 C16.0108275,76.9662281 18.6651199,74.3489035 18.6991493,71.0899123 L18.6991493,68.8947368 L50.6867749,68.8947368 L50.6867749,71.0899123 C50.7037896,74.3489035 53.358082,76.983114 56.641918,77 L60.1299304,77 C63.379737,77 66,74.3151316 66,71.0899123 L66,52.1269737 C66,49.9655702 65.1152359,47.9054825 63.549884,46.4026316 Z M34.1825213,35.8995614 L34.1825213,34.1096491 L52.133024,34.1096491 C53.1709203,34.0927632 54.1067285,34.6837719 54.5150812,35.629386 L58.1902552,44.0723684 L56.0974478,44.0723684 C55.1616396,38.972807 50.2273782,35.595614 45.0889404,36.5243421 C41.2266048,37.2335526 38.1979892,40.2392544 37.483372,44.0723684 L12.029389,44.0723684 L13.3395205,41.0328947 L28.8739366,41.0328947 C31.7664346,41.0328947 34.1825213,38.7701754 34.1825213,35.8995614 Z M52.5924207,44.0723684 L40.9543697,44.0723684 C41.6860015,41.7083333 44.0170147,39.7495614 46.7733952,39.7495614 C49.5297757,39.7495614 51.8607889,41.7083333 52.5924207,44.0723684 Z M21.7617943,5.4372807 L28.5676721,11.8201754 L21.8638824,11.8201754 C21.8298531,11.8201754 21.7617943,11.7357456 21.7617943,11.7019737 L21.7617943,5.4372807 Z M5.17246713,37.6559778 C4.20262954,37.6725877 3.4029389,36.9127193 3.38592421,35.9671053 C3.38592421,35.9333333 3.38592421,35.9164474 3.38592421,35.8995614 L3.38592421,5.25153509 C3.38592421,4.25526316 4.16860015,3.37719298 5.17246713,3.37719298 L18.3588554,3.37719298 L18.3588554,11.7019737 C18.3758701,13.6269737 19.941222,15.1804825 21.8638824,15.1973684 L30.7795824,15.1973684 L30.7795824,35.8995614 C30.7795824,36.8958333 29.8948183,37.6559778 28.8739366,37.6559778 L5.17246713,37.6559778 Z M15.2962104,71.0899123 C15.262181,72.4914474 14.1221964,73.6059211 12.7269915,73.622807 L9.23897912,73.622807 C7.86078886,73.622807 6.8058778,72.4407895 6.8058778,71.0899123 L6.8058778,68.2699561 C7.55452436,68.6752193 8.38824439,68.8778509 9.23897912,68.8947368 L15.2962104,68.8947368 L15.2962104,71.0899123 L15.2962104,71.0899123 Z M62.5970611,71.0899123 C62.5970611,72.4407895 61.5081206,73.622807 60.1299304,73.622807 L56.641918,73.622807 C55.2467131,73.5890351 54.1067285,72.4745614 54.0897138,71.0899123 L54.0897138,68.8947368 L60.1299304,68.8947368 C60.9806651,68.8778509 61.8313998,68.6583333 62.5970611,68.2699561 L62.5970611,71.0899123 Z M62.6140758,62.9508772 C62.6140758,64.3186404 61.5251353,65.5006579 60.1469451,65.5006579 L9.22196442,65.5006579 C7.84377417,65.5006579 6.78850813,64.3186404 6.78850813,62.9508772 L6.78850813,52.5997807 C6.77184841,51.2657895 7.36736272,49.9993421 8.38824439,49.1212719 C8.40525909,49.104386 8.40525909,49.0537281 8.43928848,49.0368421 L10.1237432,47.4495614 L59.9767981,47.4495614 L61.1337974,48.6991228 C61.1508121,48.7328947 61.1678268,48.7666667 61.1848415,48.7835526 C62.103635,49.6616228 62.6140758,50.8605263 62.6140758,52.1100877 L62.6140758,62.9508772 Z" id="Shape"></path>
                <path d="M21.3544304,52 L11.6455696,52 C10.7405063,52 10,52.75 10,53.6666667 L10,60.3333333 C10,61.25 10.7405063,62 11.6455696,62 L21.3544304,62 C22.2594937,62 23,61.25 23,60.3333333 L23,53.6666667 C23,52.75 22.2594937,52 21.3544304,52 Z M19.7088608,58.6666667 L13.2911392,58.6666667 L13.2911392,55.3333333 L19.7088608,55.3333333 L19.7088608,58.6666667 Z" id="Shape"></path>
                <path d="M58.3544304,52 L48.6455696,52 C47.7405063,52 47,52.75 47,53.6666667 L47,60.3333333 C47,61.25 47.7405063,62 48.6455696,62 L58.3544304,62 C59.2594937,62 60,61.25 60,60.3333333 L60,53.6666667 C60,52.75 59.2594937,52 58.3544304,52 Z M56.7088608,58.6666667 L50.2911392,58.6666667 L50.2911392,55.3333333 L56.7088608,55.3333333 L56.7088608,58.6666667 Z" id="Shape"></path>
                <path d="M41.3193277,59 L28.6806723,59 C27.7563025,59 27,59.675 27,60.5 C27,61.325 27.7563025,62 28.6806723,62 L41.3193277,62 C42.2436975,62 43,61.325 43,60.5 C43,59.675 42.2436975,59 41.3193277,59 Z" id="Path"></path>
                <path d="M41.3193277,54 L28.6806723,54 C27.7563025,54 27,54.675 27,55.5 C27,56.325 27.7563025,57 28.6806723,57 L41.3193277,57 C42.2436975,57 43,56.325 43,55.5 C43,54.675 42.2436975,54 41.3193277,54 Z" id="Path"></path>
                <path d="M25.2876712,25 L8.71232877,25 C7.77054795,25 7,25.675 7,26.5 C7,27.325 7.77054795,28 8.71232877,28 L25.2876712,28 C26.2294521,28 27,27.325 27,26.5 C27,25.675 26.2294521,25 25.2876712,25 Z" id="Path"></path>
                <path d="M15.3660131,19 L8.63398693,19 C7.73529412,19 7,19.675 7,20.5 C7,21.325 7.73529412,22 8.63398693,22 L15.3660131,22 C16.2647059,22 17,21.325 17,20.5 C17,19.675 16.2647059,19 15.3660131,19 Z" id="Path"></path>
                <path d="M25.2876712,31 L8.71232877,31 C7.77054795,31 7,31.675 7,32.5 C7,33.325 7.77054795,34 8.71232877,34 L25.2876712,34 C26.2294521,34 27,33.325 27,32.5 C27,31.675 26.2294521,31 25.2876712,31 Z" id="Path"></path>
            </g>
        </g>
    </g>
</svg>