<?xml version="1.0" encoding="UTF-8"?>
<svg width="83px" height="67px" viewBox="0 0 83 67" version="1.1" xmlns="http://www.w3.org/2000/svg" xmlns:xlink="http://www.w3.org/1999/xlink">
    <!-- Generator: Sketch 64 (93537) - https://sketch.com -->
    <title>img-02</title>
    <desc>Created with Sketch.</desc>
    <g id="Welcome" stroke="none" stroke-width="1" fill="none" fill-rule="evenodd">
        <g id="HOME---Aliados---Seguros-Éxito---Desktop-HD" transform="translate(-673.000000, -537.000000)" fill="#00B5CC" fill-rule="nonzero">
            <g id="img-02" transform="translate(673.000000, 537.000000)">
                <path d="M76.4177109,35.7449045 L76.4177109,18.9434921 C76.4177109,12.3191208 72.7679805,6.3449625 66.8929746,3.35257915 C66.0944238,2.94570641 65.1188496,3.26771199 64.7145488,4.07215473 C64.3104102,4.87643426 64.630252,5.85828199 65.429127,6.26515473 C70.2073008,8.69888369 73.1753613,13.5568757 73.1753613,18.9434921 L73.1753613,34.3235428 C71.9856406,33.979178 70.7310762,33.7908382 69.4329043,33.7908382 L65.0979375,33.7908382 L65.0979375,31.3032512 C67.7818203,29.3934138 69.5390859,26.2477799 69.5390859,22.6947837 L69.5390859,17.6993722 C69.5390859,16.7979851 68.8131602,16.0673115 67.9179922,16.0673115 L64.9787871,16.0673115 C63.9764648,16.0673115 63.0368789,15.6364474 62.3782285,14.9085484 C62.7862578,13.9861076 63.0149941,12.9663961 63.0149941,11.893153 C63.0149941,10.9917658 62.2890684,10.2610922 61.3939004,10.2610922 C60.4987324,10.2610922 59.7728066,10.9917658 59.7728066,11.893153 C59.7728066,14.1948482 57.9129258,16.0673115 55.6268594,16.0673115 L50.2260234,16.0673115 C49.3308555,16.0673115 48.6049297,16.7979851 48.6049297,17.6993722 L48.6049297,22.6947837 C48.6049297,26.2317857 50.3464707,29.3648527 53.0097656,31.2771382 L53.0097656,33.7908382 L48.0942852,33.7908382 C47.1889043,32.9656683 46.1304922,32.3084374 44.9684922,31.8646801 L44.9684922,18.9434921 C44.9684922,13.5630775 47.9316895,8.70753361 52.7019199,6.27168297 C53.5004707,5.8639942 53.819502,4.88182006 53.4143906,4.07786694 C53.0094414,3.27391382 52.033543,2.95272427 51.2354785,3.36057625 C45.3700371,6.3555709 41.7264668,12.3266283 41.7264668,18.9433289 L41.7264668,31.1527752 L30.2063262,31.1527752 L30.2063262,28.7387942 C33.5138437,26.5399188 35.632127,22.5823347 35.632127,17.8704122 L35.632127,13.5364749 C37.5069219,11.5740851 38.6630859,8.91105159 38.6630859,5.97970731 L38.6630859,1.67367828 L39.2030723,2.21731771 C39.6084538,2.62533289 38.8743685,1.88622699 37.0008164,1.27897692e-13 L23.0981543,1.27897692e-13 C17.1219922,1.27897692e-13 12.2600078,4.89487654 12.2600078,10.9116316 L12.2600078,18.8382242 C12.2600078,23.0078129 14.4275723,26.6748902 17.6858086,28.7650704 L17.6858086,31.152612 L12.1181621,31.152612 C5.43617578,31.1527752 0,36.6258909 0,43.353082 L0,57.8774433 C0,62.3770347 3.63611328,66.0377469 8.10546875,66.0377469 L74.8945312,66.0377469 C79.3638867,66.0377469 83,62.3770347 83,57.8774433 L83,47.4493912 C83,42.488253 80.3584277,38.1373423 76.4177109,35.7449045 Z M51.8472793,22.6947837 L51.8472793,19.3314329 L55.6270215,19.3314329 C57.4544805,19.3314329 59.1277734,18.6585343 60.4189746,17.5477538 C61.6466289,18.6766502 63.2656152,19.3314329 64.9789492,19.3314329 L66.2970605,19.3314329 L66.2970605,22.6947837 C66.2970605,26.7055729 63.0560078,29.968552 59.0721699,29.968552 C55.088332,29.968552 51.8472793,26.7054097 51.8472793,22.6947837 Z M61.85575,32.8512608 L61.85575,35.7010021 C61.85575,37.2563559 60.5987539,38.5218558 59.0538516,38.5218558 C57.5089492,38.5218558 56.2521152,37.2563559 56.2521152,35.7010021 L56.2521152,32.8408156 C57.1500391,33.0941115 58.0949746,33.2325102 59.0721699,33.2325102 C60.0360723,33.2326734 60.9688496,33.0980284 61.85575,32.8512608 Z M41.4794121,34.4851168 C45.1325469,34.4851168 48.1046602,37.477337 48.1046602,41.1551858 C48.1046602,44.8330347 45.1325469,47.8252548 41.4794121,47.8252548 C37.8262773,47.8252548 34.8541641,44.8330347 34.8541641,41.1551858 C34.8541641,37.477337 37.8262773,34.4851168 41.4794121,34.4851168 Z M15.5021953,10.911958 C15.5021953,6.69520273 18.9098965,3.26444787 23.0981543,3.26444787 L35.4208984,3.26444787 L35.4208984,5.97987052 C35.4208984,10.1966258 32.0131973,13.6273807 27.8249395,13.6273807 L15.5021953,13.6273807 L15.5021953,10.911958 Z M15.5021953,18.8385506 L15.5021953,16.8915021 L27.8249395,16.8915021 C29.4552734,16.8915021 31.0014727,16.5249413 32.3899395,15.872933 L32.3899395,17.8705754 C32.3899395,23.3572371 28.8389336,27.3396285 23.9461484,27.3396285 C19.290043,27.3394653 15.5021953,23.5259922 15.5021953,18.8385506 L15.5021953,18.8385506 Z M26.9641387,30.2084649 L26.9641387,33.0768116 C26.9641387,34.7522852 25.6102012,36.1153823 23.9461484,36.1153823 C22.2820957,36.1153823 20.9279961,34.752122 20.9279961,33.0768116 L20.9279961,30.2035687 C21.8914121,30.4630664 22.9026504,30.6035868 23.9461484,30.6035868 C24.9974277,30.6035868 26.0076934,30.4666569 26.9641387,30.2084649 Z M24.4535508,62.7736255 L8.10546875,62.7736255 C5.42385547,62.7736255 3.2421875,60.5771981 3.2421875,57.8774433 L3.2421875,43.353082 C3.2421875,38.4257275 7.22391797,34.4168967 12.1181621,34.4168967 L17.8295996,34.4168967 C18.4415625,37.2504805 20.9510156,39.3795037 23.9461484,39.3795037 C26.9412812,39.3795037 29.4505723,37.2503173 30.0625352,34.4168967 L34.2373379,34.4168967 C32.6092734,36.1889882 31.6119766,38.5566187 31.6119766,41.1551858 C31.6119766,44.2500626 33.0255703,47.018364 35.2360937,48.8417022 C32.5946836,49.9172303 30.312832,51.8024236 28.7460449,54.2869097 L11.6512871,54.2869097 C10.7561191,54.2869097 10.0301934,55.0177465 10.0301934,55.9189704 C10.0301934,56.8201943 10.7561191,57.5510311 11.6512871,57.5510311 L24.4535508,57.5510311 L24.4535508,62.7736255 Z M29.8329883,62.7736255 L27.6955762,62.7736255 L27.6955762,57.5510311 L29.8329883,57.5510311 C31.2631172,57.5510311 32.4267383,58.7225243 32.4267383,60.1623283 C32.4267383,61.6021323 31.2632793,62.7736255 29.8329883,62.7736255 Z M47.899916,62.7736255 L35.0589082,62.7736255 C35.4486191,61.9864826 35.6690879,61.0999472 35.6690879,60.1623283 C35.6690879,57.8270126 34.3085039,55.8058686 32.3435762,54.8592734 C34.3331445,52.4940909 37.2718633,51.0893763 40.4237559,51.0893763 L42.5353926,51.0893763 C45.687123,51.0893763 48.6258418,52.4939277 50.615248,54.8591102 C48.6503203,55.8057054 47.2897363,57.8268494 47.2897363,60.1621651 C47.2897363,61.1001104 47.5102051,61.9864826 47.899916,62.7736255 Z M55.2630859,62.7736255 L53.1255117,62.7736255 C51.6953828,62.7736255 50.5317617,61.6021323 50.5317617,60.1623283 C50.5317617,58.7225243 51.6953828,57.5510311 53.1255117,57.5510311 L55.2630859,57.5510311 L55.2630859,62.7736255 Z M79.7578125,57.8774433 C79.7578125,60.5771981 77.5761445,62.7736255 74.8945312,62.7736255 L58.5052734,62.7736255 L58.5052734,57.5510311 L71.3075371,57.5510311 C72.2027051,57.5510311 72.9286309,56.8201943 72.9286309,55.9189704 C72.9286309,55.0177465 72.2027051,54.2869097 71.3075371,54.2869097 L54.2126172,54.2869097 C52.6458301,51.8024236 50.3641406,49.9172303 47.7227305,48.841539 C49.933416,47.0182008 51.3468477,44.2500626 51.3468477,41.1551858 C51.3468477,39.693349 51.0291133,38.305771 50.4635137,37.0547964 L53.1626348,37.0547964 C53.7757324,39.7604267 56.183543,41.7859773 59.0538516,41.7859773 C61.9243223,41.7859773 64.3321328,39.7602635 64.9452305,37.0547964 L69.4329043,37.0547964 C75.1260234,37.0547964 79.7578125,41.7177572 79.7578125,47.4493912 L79.7578125,57.8774433 L79.7578125,57.8774433 Z" id="XMLID_188_"></path>
                <path d="M58.5,5.03774692 C58.8945,5.03774692 59.2815,4.87724692 59.5605,4.59824692 C59.83935,4.31924692 60,3.93224692 60,3.53774692 C60,3.14174692 59.8395,2.75624692 59.5605,2.47724692 C59.2815,2.19824692 58.8945,2.03774692 58.5,2.03774692 C58.1055,2.03774692 57.7185,2.19824692 57.4395,2.47724692 C57.16065,2.75624692 57,3.14174692 57,3.53774692 C57,3.93224692 57.1605,4.31924692 57.4395,4.59824692 C57.7185,4.87724692 58.1055,5.03774692 58.5,5.03774692 Z" id="XMLID_612_"></path>
            </g>
        </g>
    </g>
</svg>