<?xml version="1.0" encoding="UTF-8"?>
<svg width="37px" height="50px" viewBox="0 0 37 50" version="1.1" xmlns="http://www.w3.org/2000/svg" xmlns:xlink="http://www.w3.org/1999/xlink">
    <!-- Generator: Sketch 64 (93537) - https://sketch.com -->
    <title>img-09</title>
    <desc>Created with Sketch.</desc>
    <g id="Welcome" stroke="none" stroke-width="1" fill="none" fill-rule="evenodd">
        <g id="HOME---Aliados---Seguros-Éxito---Desktop-HD" transform="translate(-1201.000000, -984.000000)" fill="#00B5CC" fill-rule="nonzero">
            <g id="img-09" transform="translate(1201.000000, 984.000000)">
                <path d="M37,30.4385106 L37,21.4624468 C37,18.8970213 35.653644,16.8192553 33.3984765,15.9046809 C32.1841555,15.4121277 30.9274438,15.3655319 29.9428364,15.7275532 C29.4939805,15.1530851 28.9018841,14.6719149 28.1903324,14.3214894 C26.8344622,13.6539362 25.302792,13.5624468 24.079274,14.0234043 C23.4420383,13.2658511 22.5499294,12.7017021 21.475572,12.4221277 C20.5762746,12.1880851 19.6930456,12.1893617 18.9339233,12.3925532 L18.7575946,4.23212766 C18.7064297,1.85893617 16.9066722,0 14.6603845,0 C12.4009885,0 10.5629631,1.90893617 10.5629631,4.25531915 L10.5629631,24.6261702 C10.1368355,24.2002128 9.82075471,23.7506383 9.49515982,23.2875532 C8.68698677,22.1378723 7.77088114,20.8346809 5.265069,20.2908511 C3.14257085,19.8302128 1.3147995,20.8889362 0.514766332,22.0674468 C-0.11802946,22.9994681 -0.170462924,24.0509574 0.374379962,24.8798936 C0.53516887,25.1244681 0.723231635,25.3678723 0.92249994,25.6255319 C1.57485257,26.4695745 2.46844142,27.6256383 3.34353055,30.0428723 C4.56239716,33.4098936 6.66755844,34.9291489 8.35917191,36.15 C9.99074062,37.3274468 11.2232442,38.2180851 11.5116282,40.4290426 C10.9605483,40.4654255 10.524378,40.9255319 10.524378,41.4893617 L10.524378,48.9361702 C10.524378,49.5237234 10.9976534,50 11.5815042,50 L34.9679919,50 C35.5518427,50 36.0251181,49.5237234 36.0251181,48.9361702 L36.0251181,41.4893617 C36.0251181,40.9232979 35.5853536,40.4618085 35.0311023,40.4287234 C35.1717001,39.0729787 35.5508913,37.6925532 35.9482651,36.2479787 C36.4653055,34.3684043 37,32.4248936 37,30.4385106 L37,30.4385106 Z M33.9107599,47.872234 L12.6385248,47.872234 L12.6385248,42.5530851 L18.5172041,42.5530851 C19.1010549,42.5530851 19.5743304,42.0768085 19.5743304,41.4892553 C19.5743304,40.9017021 19.1010549,40.4254255 18.5172041,40.4254255 L13.6385663,40.4254255 C13.3084257,37.1057447 11.4217725,35.7420213 9.59114688,34.4208511 C7.98547777,33.2620213 6.32515523,32.0639362 5.32987084,29.3144681 C4.34103491,26.5829787 3.28803142,25.2205319 2.59117378,24.3189362 C2.41008804,24.0845745 2.25363335,23.882234 2.13756089,23.7057447 C2.0539422,23.578617 2.2389393,23.2989362 2.26029325,23.2674468 C2.67680101,22.6538298 3.71521615,22.1309574 4.81917313,22.3705319 C6.52019503,22.7396809 7.01693867,23.446383 7.7688726,24.5161702 C8.36889747,25.3695745 9.09947745,26.4090426 10.5626459,27.3001064 L10.5626459,27.7390426 C10.5626459,28.3265957 11.0359214,28.8028723 11.6197722,28.8028723 C12.2036231,28.8028723 12.6768985,28.3265957 12.6768985,27.7390426 L12.6768985,4.25531915 C12.6768985,3.08212766 13.566576,2.12765957 14.6601731,2.12765957 C15.7282935,2.12765957 16.6180767,3.09244681 16.6436592,4.27840426 L16.9476887,18.3474468 C16.9603742,18.9347872 17.4461237,19.3962766 18.0275432,19.3878723 C18.6112883,19.3751064 19.0740982,18.888617 19.0614127,18.3011702 L18.9830796,14.6758511 C19.3258,14.3968085 20.0988764,14.2617021 20.9460574,14.4821277 C21.4389954,14.6104255 23.0470959,15.1748936 23.0470959,17.0542553 C23.0470959,17.6418085 23.5203713,18.1180851 24.1042222,18.1180851 C24.688073,18.1180851 25.1613485,17.6418085 25.1613485,17.0542553 C25.1613485,16.6725532 25.1190634,16.3029787 25.0376647,15.9495745 C25.6925544,15.783617 26.5391012,15.877234 27.2606956,16.2326596 C27.8373579,16.5165957 28.8047342,17.2005319 28.8047342,18.5901064 C28.8047342,19.1776596 29.2780096,19.6539362 29.8618605,19.6539362 C30.4457113,19.6539362 30.9189868,19.1776596 30.9189868,18.5901064 C30.9189868,18.2776596 30.8892815,17.972234 30.8315624,17.6760638 C31.2817925,17.568617 31.936788,17.6059574 32.6078517,17.8780851 C33.2926581,18.1557447 34.8854303,19.0610638 34.8854303,21.4623404 L34.8854303,30.4384043 C34.8854303,32.1356383 34.411732,33.857234 33.9102313,35.68 C33.4857951,37.2223404 33.0504705,38.8082979 32.9077584,40.4253191 L28.0310235,40.4253191 C27.4471726,40.4253191 26.9738972,40.9015957 26.9738972,41.4891489 C26.9738972,42.0767021 27.4471726,42.5529787 28.0310235,42.5529787 L33.9104427,42.5529787 L33.9104427,47.872234 L33.9107599,47.872234 Z" id="Shape"></path>
                <path d="M23.00015,41 L22.9994501,41 C22.4472329,41 22,41.4477 22,42 C22,42.5523 22.4479328,43 23.00015,43 C23.5523671,43 24,42.5523 24,42 C24,41.4477 23.5523671,41 23.00015,41 Z" id="Path"></path>
            </g>
        </g>
    </g>
</svg>