<?xml version="1.0" encoding="UTF-8"?>
<svg width="44px" height="45px" viewBox="0 0 44 45" version="1.1" xmlns="http://www.w3.org/2000/svg" xmlns:xlink="http://www.w3.org/1999/xlink">
    <!-- Generator: Sketch 64 (93537) - https://sketch.com -->
    <title>img-07</title>
    <desc>Created with Sketch.</desc>
    <g id="Welcome" stroke="none" stroke-width="1" fill="none" fill-rule="evenodd">
        <g id="HOME---Aliados---Seguros-Éxito---Desktop-HD" transform="translate(-797.000000, -984.000000)" fill="#00B5CC" fill-rule="nonzero">
            <g id="img-07" transform="translate(797.000000, 984.000000)">
                <path d="M39.4988127,4.87721198 C39.4069463,4.87347926 39.3149763,4.87285714 39.2230062,4.87544931 L35.7560362,4.87544931 L35.7560362,1.89601382 C35.7561399,0.704239631 34.6184901,3.23296945e-13 33.4267159,3.23296945e-13 L30.230679,3.23296945e-13 C29.0389048,3.23296945e-13 28.1721883,0.704239631 28.1721883,1.89601382 L28.1721883,4.87534562 L15.1711283,4.87534562 L15.1711283,1.89601382 C15.1711283,0.704239631 14.3044118,3.23296945e-13 13.1126376,3.23296945e-13 L9.91649701,3.23296945e-13 C8.7248265,3.23296945e-13 7.58717673,0.704239631 7.58717673,1.89601382 L7.58717673,4.87534562 L4.12031037,4.87534562 C1.90722281,4.81365207 0.0631559929,6.55776498 0.00146244453,8.77074885 C-0.00112972137,8.86261521 -0.00011226273,8.95468894 0.00322511734,9.0465553 L0.00322511734,40.3573272 C0.00322511734,42.7408756 1.7366583,44.9618433 4.12020668,44.9618433 L39.2231099,44.9618433 C41.6066583,44.9618433 43.3400915,42.7408756 43.3400915,40.3573272 L43.3400915,9.0465553 C43.4307136,6.83450461 41.7108634,4.9678341 39.4988127,4.87721198 Z M30.230679,2.16684332 L33.5892965,2.16684332 L33.5892965,8.1256106 L30.230679,8.1256106 L30.230679,2.16684332 Z M9.91660069,2.16684332 L13.0043887,2.16684332 L13.0043887,8.1256106 L9.91660069,8.1256106 L9.91660069,2.16684332 Z M41.1732482,40.3573272 C41.1732482,41.5491014 40.4148841,42.795 39.2231099,42.795 L4.12031037,42.795 C2.92853618,42.795 2.17017212,41.5491014 2.17017212,40.3573272 L2.17017212,17.3347465 L41.1732482,17.3347465 L41.1732482,40.3573272 Z M41.1732482,9.0465553 L41.1732482,15.1679032 L2.17006844,15.1679032 L2.17006844,9.0465553 C2.07830576,8.03353687 2.8251606,7.13789171 3.83817903,7.04612903 C3.93191175,7.03762673 4.02626659,7.03638249 4.12020668,7.04229263 L7.58717673,7.04229263 L7.58717673,8.23406682 C7.58717673,9.42584101 8.72472281,10.2925576 9.91649701,10.2925576 L13.1126376,10.2925576 C14.2191813,10.3229378 15.1407482,9.45041475 15.1711283,8.34387097 C15.1721652,8.30726959 15.1721652,8.2706682 15.1711283,8.23406682 L15.1711283,7.04218894 L28.1721883,7.04218894 L28.1721883,8.23396313 C28.1418081,9.34050691 29.0143311,10.2620737 30.1208749,10.2924539 C30.1574763,10.2934908 30.1940777,10.2934908 30.230679,10.2924539 L33.4268196,10.2924539 C34.6185938,10.2924539 35.7561399,9.42573733 35.7561399,8.23396313 L35.7561399,7.04218894 L39.2231099,7.04218894 C40.2383058,6.97821429 41.1131099,7.7493318 41.1770846,8.76452765 C41.1829947,8.85846774 41.1817505,8.95282258 41.1732482,9.0465553 Z" id="Shape"></path>
                <path d="M15.6586629,32.1233641 L14.6835938,37.5404724 C14.6450224,37.7728341 14.683179,38.0115207 14.7923611,38.2202419 C15.0697228,38.7503917 15.7244002,38.9553802 16.25455,38.6780184 L21.1298956,36.1319931 L26.0052412,38.6780184 L26.4927758,38.786371 C26.7278334,38.7905184 26.9572919,38.7139977 27.1427873,38.5696659 C27.4666007,38.3331567 27.6332251,37.9372811 27.5761975,37.5403687 L26.6011283,32.1232604 L30.555633,28.3313364 C30.8385938,28.0255645 30.9412436,27.5942281 30.8264624,27.1937903 C30.6805753,26.823629 30.3518887,26.5566359 29.9597459,26.4895507 L24.5426376,25.6769585 L22.1049647,20.7473848 C21.9986859,20.5279839 21.8215892,20.3507834 21.6021883,20.2446083 C21.0636399,19.9838364 20.4157021,20.2089401 20.1548265,20.7473848 L17.7171537,25.6769585 L12.3000454,26.4895507 C11.9079025,26.5565323 11.5792159,26.823629 11.4333288,27.1937903 C11.3185477,27.5942281 11.4213012,28.0255645 11.7041583,28.3313364 L15.6586629,32.1233641 Z M18.6380984,27.735553 C18.9782942,27.6846429 19.2665431,27.4581912 19.3964624,27.1396659 L21.1298956,23.6726959 L22.8633288,27.1396659 C22.9933518,27.4581912 23.281497,27.6846429 23.6216929,27.735553 L27.4678449,28.277212 L24.7051145,30.9315899 C24.4477643,31.1863479 24.327073,31.5484217 24.3800569,31.906659 L25.0300684,35.7528111 L21.6173265,33.9110253 L21.1297919,33.8026728 L20.6422574,33.9110253 L17.2295154,35.7528111 L17.879527,31.906659 C17.9326145,31.5484217 17.8118196,31.1863479 17.5544694,30.9315899 L14.7917389,28.277212 L18.6380984,27.735553 Z" id="Shape"></path>
            </g>
        </g>
    </g>
</svg>