<?xml version="1.0" encoding="UTF-8"?>
<svg width="102px" height="44px" viewBox="0 0 102 44" version="1.1" xmlns="http://www.w3.org/2000/svg" xmlns:xlink="http://www.w3.org/1999/xlink">
    <!-- Generator: Sketch 64 (93537) - https://sketch.com -->
    <title>img-06</title>
    <desc>Created with Sketch.</desc>
    <defs>
        <linearGradient x1="9.44944102%" y1="89.0630319%" x2="77.1171066%" y2="12.6419365%" id="linearGradient-1">
            <stop stop-color="#0060AC" offset="1%"></stop>
            <stop stop-color="#234799" offset="17%"></stop>
            <stop stop-color="#5D3A87" offset="36%"></stop>
            <stop stop-color="#9A2C74" offset="58%"></stop>
            <stop stop-color="#C62267" offset="76%"></stop>
            <stop stop-color="#E21C5E" offset="91%"></stop>
            <stop stop-color="#EC1A5B" offset="99%"></stop>
        </linearGradient>
        <radialGradient cx="166.585136%" cy="83.2286713%" fx="166.585136%" fy="83.2286713%" r="65.6555426%" gradientTransform="translate(1.665851,0.832287),scale(0.885318,1.000000),rotate(38.500654),translate(-1.665851,-0.832287)" id="radialGradient-2">
            <stop stop-color="#FFFFFF" stop-opacity="0.2" offset="0%"></stop>
            <stop stop-color="#FFFFFF" stop-opacity="0.1" offset="37%"></stop>
            <stop stop-color="#FFFFFF" stop-opacity="0.03" offset="74%"></stop>
            <stop stop-color="#FFFFFF" stop-opacity="0" offset="100%"></stop>
        </radialGradient>
        <radialGradient cx="-19938.9201%" cy="-15091.3934%" fx="-19938.9201%" fy="-15091.3934%" r="58.4682182%" gradientTransform="translate(-199.389201,-150.913934),scale(0.884115,1.000000),translate(199.389201,150.913934)" id="radialGradient-3">
            <stop stop-color="#FFFFFF" stop-opacity="0.2" offset="0%"></stop>
            <stop stop-color="#FFFFFF" stop-opacity="0.1" offset="37%"></stop>
            <stop stop-color="#FFFFFF" stop-opacity="0.03" offset="74%"></stop>
            <stop stop-color="#FFFFFF" stop-opacity="0" offset="100%"></stop>
        </radialGradient>
        <radialGradient cx="40.0606471%" cy="46.0876919%" fx="40.0606471%" fy="46.0876919%" r="65.2121931%" gradientTransform="translate(0.400606,0.460877),scale(0.901020,1.000000),rotate(39.610688),translate(-0.400606,-0.460877)" id="radialGradient-4">
            <stop stop-color="#FFFFFF" stop-opacity="0.5" offset="0%"></stop>
            <stop stop-color="#FFFFFF" stop-opacity="0.39" offset="16%"></stop>
            <stop stop-color="#FFFFFF" stop-opacity="0.22" offset="42%"></stop>
            <stop stop-color="#FFFFFF" stop-opacity="0.1" offset="66%"></stop>
            <stop stop-color="#FFFFFF" stop-opacity="0.03" offset="86%"></stop>
            <stop stop-color="#FFFFFF" stop-opacity="0" offset="100%"></stop>
        </radialGradient>
        <linearGradient x1="80.2034133%" y1="19.995305%" x2="37.3774059%" y2="63.4940388%" id="linearGradient-5">
            <stop stop-color="#FFFFFF" stop-opacity="0.5" offset="0%"></stop>
            <stop stop-color="#FFFFFF" stop-opacity="0.39" offset="16%"></stop>
            <stop stop-color="#FFFFFF" stop-opacity="0.22" offset="42%"></stop>
            <stop stop-color="#FFFFFF" stop-opacity="0.1" offset="66%"></stop>
            <stop stop-color="#FFFFFF" stop-opacity="0.03" offset="86%"></stop>
            <stop stop-color="#FFFFFF" stop-opacity="0" offset="100%"></stop>
        </linearGradient>
        <linearGradient x1="225.744432%" y1="281.177082%" x2="206.870597%" y2="249.354803%" id="linearGradient-6">
            <stop stop-color="#FFFFFF" stop-opacity="0.5" offset="0%"></stop>
            <stop stop-color="#FFFFFF" stop-opacity="0.39" offset="8%"></stop>
            <stop stop-color="#FFFFFF" stop-opacity="0.22" offset="21%"></stop>
            <stop stop-color="#FFFFFF" stop-opacity="0.1" offset="33%"></stop>
            <stop stop-color="#FFFFFF" stop-opacity="0.03" offset="44%"></stop>
            <stop stop-color="#FFFFFF" stop-opacity="0" offset="51%"></stop>
        </linearGradient>
    </defs>
    <g id="Welcome" stroke="none" stroke-width="1" fill="none" fill-rule="evenodd">
        <g id="HOME---Aliados---Seguros-Éxito---Desktop-HD" transform="translate(-568.000000, -989.000000)">
            <g id="img-06" transform="translate(539.000000, 986.000000)">
                <rect id="Rectangle" x="0" y="0" width="160" height="50"></rect>
                <rect id="Rectangle" fill="#6E7072" fill-rule="nonzero" opacity="0" x="29.6" y="2.42" width="100.8" height="45.16"></rect>
                <path d="M76.61,25.46 C77.15,25.46 78.22,25.64 78.22,26.32 C78.225414,26.4499848 78.1789135,26.5767869 78.0907489,26.6724549 C78.0025843,26.7681229 77.8799937,26.8248026 77.75,26.83 C77.45,26.83 77.24,26.56 76.61,26.56 C75.68,26.56 75.2,27.37 75.2,28.31 C75.2,29.25 75.69,30.01 76.61,30.01 C77.24,30.01 77.49,29.68 77.8,29.68 C78.0710497,29.7050578 78.2810741,29.9279409 78.29,30.2 C78.29,30.94 77.16,31.11 76.61,31.11 C75.880855,31.1036068 75.1868246,30.795923 74.6924771,30.2599063 C74.1981295,29.7238897 73.9474936,29.0072801 74,28.28 C73.9443348,27.552917 74.1942065,26.8355291 74.6895246,26.3003578 C75.1848427,25.7651865 75.8807895,25.4606555 76.61,25.46 L76.61,25.46 Z" id="Path" fill="#777677" fill-rule="nonzero"></path>
                <path d="M80.85,28.28 C80.7946753,27.5580853 81.0405587,26.8454595 81.5292898,26.3112651 C82.0180208,25.7770707 82.7060236,25.4689371 83.43,25.46 C84.149306,25.4802229 84.8294602,25.792096 85.3141657,26.3239518 C85.7988712,26.8558077 86.0464466,27.5619103 86,28.28 C86.0860133,29.2559783 85.6139391,30.1969512 84.7801572,30.7114799 C83.9463754,31.2260085 82.8936246,31.2260085 82.0598428,30.7114799 C81.2260609,30.1969512 80.7539867,29.2559783 80.84,28.28 L80.85,28.28 Z M84.85,28.28 C84.85,27.35 84.38,26.52 83.44,26.52 C82.5,26.52 82,27.35 82,28.28 C82,29.21 82.46,30.05 83.41,30.05 C84.36,30.05 84.84,29.22 84.84,28.28 L84.85,28.28 Z" id="Shape" fill="#777677" fill-rule="nonzero"></path>
                <path d="M88.72,26.1 C88.72,25.7907205 88.9707205,25.54 89.28,25.54 C89.5892795,25.54 89.84,25.7907205 89.84,26.1 L89.84,30 L91.17,30 C91.317617,29.9908216 91.4619482,30.0461785 91.565567,30.1517161 C91.6691857,30.2572537 91.7218852,30.4025762 91.71,30.55 C91.6991498,30.8387928 91.4589412,31.0656565 91.17,31.06 L89.3,31.06 C89.1350711,31.0672107 88.9753638,31.0012815 88.8635492,30.8798277 C88.7517346,30.7583739 88.6992066,30.5937717 88.72,30.43 L88.72,26.1 Z" id="Path" fill="#777677" fill-rule="nonzero"></path>
                <path d="M93.94,28.28 C93.8846753,27.5580853 94.1305587,26.8454595 94.6192898,26.3112651 C95.1080208,25.7770707 95.7960236,25.4689371 96.52,25.46 C97.2410647,25.4775532 97.9238208,25.7882665 98.4106934,26.3204295 C98.8975659,26.8525925 99.1464843,27.5602212 99.1,28.28 C99.1860133,29.2559783 98.7139391,30.1969512 97.8801572,30.7114799 C97.0463754,31.2260085 95.9936246,31.2260085 95.1598428,30.7114799 C94.3260609,30.1969512 93.8539867,29.2559783 93.94,28.28 L93.94,28.28 Z M97.94,28.28 C97.94,27.35 97.47,26.52 96.53,26.52 C95.59,26.52 95.12,27.35 95.12,28.28 C95.12,29.21 95.58,30.05 96.53,30.05 C97.48,30.05 97.93,29.22 97.93,28.28 L97.94,28.28 Z" id="Shape" fill="#777677" fill-rule="nonzero"></path>
                <path d="M102.36,26.09 C102.434992,25.7465561 102.738466,25.5012823 103.09,25.5 C103.430831,25.5072388 103.73065,25.7271061 103.84,26.05 L104.72,29.1 L104.72,29.1 L105.6,26.05 C105.70935,25.7271061 106.009169,25.5072388 106.35,25.5 C106.701534,25.5012823 107.005008,25.7465561 107.08,26.09 L107.78,30.38 C107.784556,30.4232136 107.784556,30.4667864 107.78,30.51 C107.78839,30.6574411 107.734883,30.8016967 107.632374,30.908003 C107.529864,31.0143094 107.387649,31.0730249 107.24,31.07 C106.86,31.07 106.71,30.89 106.66,30.53 L106.21,27.4 L106.21,27.4 L105.31,30.62 C105.238888,30.8931505 104.992256,31.083795 104.71,31.083795 C104.427744,31.083795 104.181112,30.8931505 104.11,30.62 L103.21,27.4 L103.21,27.4 L102.76,30.53 C102.76,30.89 102.56,31.07 102.18,31.07 C102.032351,31.0730249 101.890136,31.0143094 101.787626,30.908003 C101.685117,30.8016967 101.63161,30.6574411 101.64,30.51 C101.635444,30.4667864 101.635444,30.4232136 101.64,30.38 L102.36,26.09 Z" id="Path" fill="#777677" fill-rule="nonzero"></path>
                <path d="M110.57,26.12 C110.563881,25.9634863 110.624784,25.8117882 110.737433,25.7029575 C110.850083,25.5941268 111.00379,25.5384889 111.16,25.55 L112.6,25.55 C112.967411,25.5335191 113.325445,25.6687733 113.59019,25.9240625 C113.854934,26.1793517 114.003114,26.5322332 114,26.9 C114.033128,27.3878033 113.75151,27.842415 113.3,28.03 L113.3,28.03 C113.950422,28.1195189 114.436184,28.6734577 114.44,29.33 C114.472075,29.7927415 114.297884,30.245982 113.964155,30.5681365 C113.630426,30.890291 113.171322,31.0483818 112.71,31 L111.17,31 C111.011137,31.011494 110.854896,30.9547955 110.740376,30.8440935 C110.625857,30.7333915 110.563896,30.5791614 110.57,30.42 L110.57,26.12 Z M111.7,27.72 L112.28,27.72 C112.445186,27.7320627 112.60745,27.6716796 112.724565,27.5545646 C112.84168,27.4374497 112.902063,27.2751857 112.89,27.11 C112.890937,26.9531144 112.824829,26.8032961 112.70831,26.6982378 C112.591791,26.5931794 112.435952,26.5428821 112.28,26.56 L111.7,26.56 L111.7,27.72 Z M111.7,30.01 L112.58,30.01 C112.765218,30.0276892 112.948965,29.9638992 113.083379,29.8352463 C113.217792,29.7065933 113.289564,29.5258147 113.28,29.34 C113.28,28.98 113.01,28.73 112.49,28.73 L111.7,28.73 L111.7,30.01 Z" id="Shape" fill="#777677" fill-rule="nonzero"></path>
                <path d="M117.12,26.1 C117.12,25.7907205 117.370721,25.54 117.68,25.54 C117.989279,25.54 118.24,25.7907205 118.24,26.1 L118.24,30.47 C118.24,30.7792795 117.989279,31.03 117.68,31.03 C117.370721,31.03 117.12,30.7792795 117.12,30.47 L117.12,26.1 Z" id="Path" fill="#777677" fill-rule="nonzero"></path>
                <path d="M122.4,26.09 C122.505751,25.7313722 122.826575,25.4787236 123.2,25.46 C123.578066,25.4660111 123.905519,25.7238805 124,26.09 L125.47,30.27 C125.502635,30.363616 125.522808,30.4611198 125.53,30.56 C125.53,30.697011 125.474924,30.8282703 125.377106,30.9242066 C125.279289,31.0201428 125.146985,31.0726865 125.01,31.07 C124.756448,31.0865042 124.528099,30.9173568 124.47,30.67 L124.24,29.94 L122.16,29.94 L121.93,30.66 C121.876093,30.911359 121.646601,31.0856031 121.39,31.07 C121.245058,31.0726846 121.105124,31.0169792 121.001681,30.9154171 C120.898238,30.8138551 120.839975,30.6749665 120.84,30.53 C120.826173,30.4438849 120.826173,30.3561151 120.84,30.27 L122.4,26.09 Z M122.48,28.88 L123.9,28.88 L123.21,26.65 L123.21,26.65 L122.48,28.88 Z" id="Shape" fill="#777677" fill-rule="nonzero"></path>
                <path d="M74.05,14.78 C74.0334427,14.5045496 74.1314438,14.2345005 74.3208046,14.033778 C74.5101655,13.8330554 74.7740529,13.7195028 75.05,13.72 L77.58,13.72 C78.4213802,13.6907114 79.2363482,14.0163081 79.8259214,14.6172923 C80.4154945,15.2182766 80.7254104,16.0393357 80.68,16.88 C80.7526572,17.7083007 80.4650365,18.5277651 79.8906456,19.1289608 C79.3162548,19.7301565 78.5107515,20.0548287 77.68,20.02 L76.11,20.02 L76.11,22 C76.11,22.5688533 75.6488533,23.03 75.08,23.03 C74.5111467,23.03 74.05,22.5688533 74.05,22 L74.05,14.78 Z M76.11,18.14 L77.21,18.14 C77.5611334,18.1679577 77.9079383,18.0476561 78.1663314,17.8082625 C78.4247245,17.5688688 78.5711113,17.2322429 78.57,16.88 C78.5937967,16.5193432 78.4551179,16.1669325 78.1919166,15.9192136 C77.9287153,15.6714947 77.5685541,15.554409 77.21,15.6 L76.11,15.6 L76.11,18.14 Z" id="Shape" fill="#777677" fill-rule="nonzero"></path>
                <path d="M84.35,19.27 C84.35,20.2972496 85.1827504,21.13 86.21,21.13 C87.2372496,21.13 88.07,20.2972496 88.07,19.27 L88.07,14.77 C88.07,14.2011467 88.5311467,13.74 89.1,13.74 C89.6688533,13.74 90.13,14.2011467 90.13,14.77 L90.13,19.27 C90.2030991,20.7159039 89.4733035,22.0843823 88.2318803,22.8292649 C86.9904571,23.5741474 85.4395429,23.5741474 84.1981197,22.8292649 C82.9566965,22.0843823 82.2269009,20.7159039 82.3,19.27 L82.3,14.77 C82.3,14.2177153 82.7477153,13.77 83.3,13.77 C83.8522847,13.77 84.3,14.2177153 84.3,14.77 L84.35,19.27 Z" id="Path" fill="#777677" fill-rule="nonzero"></path>
                <path d="M92.08,14.77 C92.045506,14.4846903 92.1354286,14.1983311 92.3268331,13.9839581 C92.5182376,13.7695851 92.7926202,13.6479224 93.08,13.6499738 C93.62,13.6499738 93.81,13.89 94.5,14.78 L97.91,19.17 L97.91,19.17 L97.91,14.77 C97.91,14.2011467 98.3711467,13.74 98.94,13.74 C99.5088533,13.74 99.97,14.2011467 99.97,14.77 L99.97,22 C100.004494,22.2853097 99.9145714,22.5716689 99.7231669,22.7860419 C99.5317624,23.0004149 99.2573798,23.1220776 98.97,23.1200262 C98.42,23.1200262 98.22,22.87 97.55,21.99 L94.13,17.59 L94.13,17.59 L94.13,22 C94.13,22.5522847 93.6822847,23 93.13,23 C92.5777153,23 92.13,22.5522847 92.13,22 L92.08,14.77 Z" id="Path" fill="#777677" fill-rule="nonzero"></path>
                <path d="M103.46,15.68 L102.3,15.68 C102.019857,15.7168109 101.738015,15.6256539 101.532489,15.4317615 C101.326963,15.2378691 101.219557,14.9618107 101.24,14.68 C101.215696,14.3971607 101.321907,14.1187099 101.528401,13.9239046 C101.734894,13.7290993 102.019055,13.6392754 102.3,13.68 L106.67,13.68 C107.222285,13.68 107.67,14.1277153 107.67,14.68 C107.67,15.2322847 107.222285,15.68 106.67,15.68 L105.52,15.68 L105.52,22 C105.52,22.5688533 105.058853,23.03 104.49,23.03 C103.921147,23.03 103.46,22.5688533 103.46,22 L103.46,15.68 Z" id="Path" fill="#777677" fill-rule="nonzero"></path>
                <path d="M117.61,18.36 C117.61,21.31 115.84,23.21 113.16,23.21 C110.48,23.21 108.72,21.31 108.72,18.36 C108.72,15.41 110.48,13.52 113.16,13.52 C115.84,13.52 117.61,15.42 117.61,18.36 Z M110.93,18.36 C110.93,19.83 111.57,21.25 113.16,21.25 C114.75,21.25 115.4,19.83 115.4,18.36 C115.4,16.89 114.75,15.47 113.16,15.47 C111.57,15.47 110.93,16.89 110.93,18.36 Z" id="Shape" fill="#777677" fill-rule="nonzero"></path>
                <path d="M119.92,20.56 C120.43,20.56 121.09,21.1 122.14,21.1 C122.94,21.1 123.24,20.68 123.24,20.23 C123.24,19.52 122.45,19.38 121.24,18.99 C120.03,18.6 119.07,18.17 119.07,16.49 C119.07,14.49 120.6,13.49 122.32,13.49 C124.04,13.49 124.88,14.07 124.88,14.88 C124.905498,15.1365204 124.821003,15.3918193 124.647503,15.5824781 C124.474004,15.7731369 124.227781,15.8812642 123.97,15.88 C123.31,15.88 123.09,15.53 122.22,15.53 C121.66,15.53 121.28,15.83 121.28,16.28 C121.28,16.73 121.79,16.88 123.21,17.37 C124.52263,17.595043 125.464331,18.7593267 125.41,20.09 C125.41,22.23 123.87,23.19 121.95,23.19 C120.74,23.19 118.95,22.71 118.95,21.66 C118.922081,21.3830774 119.010835,21.1070476 119.194919,20.8982925 C119.379003,20.6895374 119.64176,20.5669459 119.92,20.56 Z" id="Path" fill="#777677" fill-rule="nonzero"></path>
                <path d="M125.69,11.64 C125.687768,11.3437556 125.749151,11.0504833 125.87,10.78 C125.980529,10.5217467 126.140149,10.2874106 126.34,10.09 C126.53916,9.8876211 126.777292,9.72773231 127.04,9.62 C127.30672,9.49843782 127.5969,9.43698798 127.89,9.44 C128.182908,9.43888713 128.472686,9.50025183 128.74,9.62 C129.002708,9.72773231 129.24084,9.8876211 129.44,10.09 C129.633509,10.2926178 129.792304,10.5257415 129.91,10.78 C130.136127,11.327573 130.136127,11.942427 129.91,12.49 C129.794668,12.7455912 129.635615,12.9790941 129.44,13.18 C129.238615,13.3822212 129.001205,13.5450169 128.74,13.66 C128.47059,13.7719695 128.181751,13.8297372 127.89,13.8300037 C127.59817,13.8305331 127.309177,13.7727344 127.04,13.66 C126.778795,13.5450169 126.541385,13.3822212 126.34,13.18 C125.929162,12.7721761 125.695618,12.2188582 125.69,11.64 L125.69,11.64 Z M126.079995,11.64 C126.079439,11.8813677 126.130586,12.1200555 126.23,12.34 C126.317406,12.5534303 126.446605,12.7472293 126.61,12.91 C126.773266,13.0799256 126.971035,13.2129086 127.19,13.3 C127.638,13.4866667 128.142,13.4866667 128.59,13.3 C129.041385,13.1104222 129.400422,12.7513852 129.59,12.3 C129.686274,12.0793902 129.734018,11.8406683 129.73,11.6 C129.734972,11.3592462 129.687187,11.1203218 129.59,10.9 C129.50554,10.6796582 129.372194,10.4813482 129.2,10.32 C129.035136,10.1566149 128.842012,10.0244775 128.63,9.93 C128.182,9.74333333 127.678,9.74333333 127.23,9.93 C127.015274,10.0249489 126.818943,10.1569643 126.65,10.32 C126.320194,10.6658398 126.131214,11.1222431 126.12,11.6 L126.079995,11.64 Z M127.08,10.37 L128.08,10.37 C128.318885,10.3510086 128.556647,10.4184336 128.75,10.56 C128.899334,10.7070848 128.979287,10.9106 128.97,11.12 C128.981881,11.3026158 128.92073,11.4824716 128.8,11.62 C128.681129,11.7283884 128.530175,11.7950888 128.37,11.81 L129.02,12.88 L128.54,12.88 L127.91,11.88 L127.57,11.88 L127.57,12.88 L127,12.88 L127.08,10.37 Z M127.54,11.46 L128.09,11.46 C128.152816,11.4714449 128.217184,11.4714449 128.28,11.46 C128.336419,11.4378117 128.385093,11.3995674 128.42,11.35 C128.461812,11.2957406 128.483068,11.2284319 128.48,11.16 C128.484594,11.0882994 128.463304,11.017331 128.42,10.96 C128.387295,10.9105106 128.337421,10.8748864 128.28,10.86 C128.220336,10.8316377 128.155896,10.8146797 128.09,10.81 L127.54,10.81 L127.54,11.46 Z" id="Shape" fill="#777677" fill-rule="nonzero"></path>
                <path d="M48.51,4.07 C38.5846213,4.02411322 30.4035877,11.8427239 29.9998324,21.76 C29.9998324,21.9 29.9998324,22.04 29.9998324,22.19 L29.9998324,39.49 C29.9748168,43.0717455 32.7910092,46.0299432 36.3696629,46.1808503 C39.9483166,46.3317574 43.0035551,43.6211502 43.28,40.05 C44.9792801,40.545208 46.7400344,40.7977062 48.51,40.8 C55.1733473,40.9554986 61.398172,37.4895567 64.7755441,31.7434506 C68.1529163,25.9973446 68.1529163,18.8726554 64.7755441,13.1265494 C61.398172,7.38044334 55.1733473,3.91450138 48.51,4.07 L48.51,4.07 Z" id="Path" fill="url(#linearGradient-1)" fill-rule="nonzero"></path>
                <path d="M36.65,46.49 C32.7840068,46.49 29.65,43.3559932 29.65,39.49 L29.65,22.19 C29.65,22.03 29.65,21.88 29.65,21.73 C29.8145757,16.8835841 31.8673517,12.2935484 35.37,8.94 C40.8257008,3.7121028 48.865794,2.22497763 55.8305149,5.15554798 C62.7952358,8.08611834 67.3533294,14.8742272 67.43,22.43 C67.3749112,32.8320757 58.9121847,41.2277087 48.51,41.2 C46.8593017,41.1972095 45.2158178,40.9821114 43.62,40.56 C43.0618032,43.9765123 40.1118097,46.4863346 36.65,46.49 Z M48.51,4.49 C38.8011036,4.43411647 30.7974136,12.088281 30.42,21.79 C30.42,21.94 30.42,22.07 30.42,22.21 L30.42,39.51 C30.519832,42.7912912 33.1412386,45.4361074 36.4215127,45.5651069 C39.7017867,45.6941064 42.5227957,43.2633179 42.88,40 L42.88,39.52 L43.35,39.65 C48.8062315,41.2720282 54.7075914,40.2343476 59.2832225,36.8483413 C63.8588535,33.462335 66.5762551,28.122058 66.62,22.43 C66.5649174,12.4752754 58.4648384,4.44228704 48.51,4.46992851 L48.51,4.49 Z" id="Shape" fill="#FFFFFF" fill-rule="nonzero"></path>
                <path d="M49.34,13.37 C51.5325681,13.367461 53.6562956,14.1355424 55.34,15.54 C56.5632896,16.3246924 57.3536832,17.6321659 57.48,19.08 C57.5136477,20.0618119 57.0171873,20.9859921 56.18,21.5 C55.6981735,21.823255 55.1302023,21.9939948 54.55,21.99 C54.0723999,21.9904119 53.6019891,21.8736677 53.18,21.65 C52.679903,21.2646388 52.2238146,20.8253185 51.82,20.34 C51.1753462,19.6524078 50.2793586,19.2557099 49.3369499,19.2406314 C48.3945412,19.2255529 47.4863211,19.5933834 46.82,20.26 C45.512062,21.6314912 45.512062,23.7885088 46.82,25.16 C47.4597158,25.8169074 48.3432656,26.179018 49.26,26.16 C50.0776689,26.1560292 50.8689,25.8699144 51.5,25.35 C51.93,24.95 52.35,24.54 52.77,24.13 C53.2553916,23.7299072 53.8715349,23.5233389 54.5,23.55 C55.2775197,23.5418919 56.0261625,23.8442283 56.58,24.39 C57.1451819,24.9006264 57.4653715,25.6283301 57.46,26.39 C57.3291444,27.7110761 56.6278522,28.909117 55.54,29.67 C53.8311528,31.1985861 51.6126395,32.0332037 49.32,32.01 C47.892007,32.0146473 46.4810003,31.700331 45.19,31.09 C43.5936217,30.3350178 42.2445849,29.1420392 41.3,27.65 C38.8951419,23.8558156 39.5567283,18.8833824 42.87,15.85 C44.6210521,14.2117367 46.9425481,13.3218897 49.34,13.37 Z" id="Path" fill="#FFFFFF" fill-rule="nonzero"></path>
                <g id="Group" transform="translate(28.000000, 4.000000)" fill-rule="nonzero">
                    <path d="M25.55,18.9 C24.88,19.73 23.14,19.44 21.65,18.25 C20.16,17.06 19.5,15.45 20.17,14.62 C20.84,13.79 22.58,14.09 24.06,15.27 C25.54,16.45 26.22,18.08 25.55,18.9 Z" id="Path" fill="url(#radialGradient-2)"></path>
                    <path d="M22.66,22.81 C22,23.64 20.25,23.34 18.76,22.16 C17.27,20.98 16.61,19.35 17.28,18.53 C17.95,17.71 19.69,18 21.17,19.18 C22.65,20.36 23.33,22 22.66,22.81 Z" id="Path" fill="url(#radialGradient-3)"></path>
                    <path d="M24.45,38.33 C21.59,41.75 14.28,40.42 8.12,35.33 C1.96,30.24 -0.71,23.39 2.12,19.96 C4.95,16.53 12.29,17.87 18.45,22.96 C24.61,28.05 27.31,34.91 24.45,38.33 Z" id="Path" fill="url(#radialGradient-4)" style="mix-blend-mode: overlay;"></path>
                    <path d="M31.67,27.57 C34.6270251,24.6494697 36.290948,20.6661393 36.2900004,16.51 C36.2304451,9.99830199 32.1819184,4.19013874 26.0930653,1.88110761 C20.0042121,-0.427923525 13.1224011,1.23520791 8.76,6.07 C25.24,6.32 16.21,24.41 31.67,27.57 Z" id="Path" fill="url(#linearGradient-5)" style="mix-blend-mode: overlay;"></path>
                    <path d="M4.67,38 C5.0797635,39.4539467 6.21605331,40.5902365 7.67,41 C9.2922795,41.5149131 11.061383,41.2526467 12.4645019,40.2892239 C13.8676208,39.325801 14.7478359,37.768967 14.85,36.07 C14.8650685,35.6965647 14.6551256,35.3503877 14.3170088,35.1911456 C13.978892,35.0319035 13.5782967,35.0905366 13.3,35.34 C10.71,37.5 7.88,33.89 5,37.59 L4.67,38 Z" id="Path" fill="url(#linearGradient-6)" style="mix-blend-mode: overlay;"></path>
                </g>
            </g>
        </g>
    </g>
</svg>