<svg xmlns="http://www.w3.org/2000/svg" viewBox="0 0 160 50"><defs><style>.cls-1{fill:none;}.cls-2{fill:#ffe504;}.cls-3{fill:#1e120c;}.cls-4{fill:#e52f2a;}.cls-5{fill:#010101;}.cls-6{fill:#27b1c4;}</style></defs><title>home-seguros</title><g id="Capa_2" data-name="Capa 2"><g id="Capa_1-2" data-name="Capa 1"><rect class="cls-1" width="160" height="50"/><path class="cls-2" d="M143.29,25.71a21.21,21.21,0,1,0-21.2,21.2,21.2,21.2,0,0,0,21.2-21.2"/><path class="cls-3" d="M112.5,24.44a4.79,4.79,0,0,0-.76-1.63,3.86,3.86,0,0,0-1.35-1.15,4.11,4.11,0,0,0-1.92-.43,4.38,4.38,0,0,0-1.8.35,4.16,4.16,0,0,0-1.4,1,4.32,4.32,0,0,0-.9,1.45,5,5,0,0,0-.32,1.79,5.17,5.17,0,0,0,.31,1.83,4.23,4.23,0,0,0,.88,1.44,3.82,3.82,0,0,0,1.39.93,4.9,4.9,0,0,0,1.84.33,4.48,4.48,0,0,0,2.49-.67,3.31,3.31,0,0,0,.92-.91,4.62,4.62,0,0,0,.63-1.32l.06-.17a.06.06,0,0,0-.06-.08h-2.22c-.12,0-.13.06-.13.06l0,.08a.84.84,0,0,1-.17.3,2,2,0,0,1-.36.31,1.83,1.83,0,0,1-1.07.31,2.28,2.28,0,0,1-.78-.12,1.43,1.43,0,0,1-.55-.32,1.58,1.58,0,0,1-.35-.57,2.72,2.72,0,0,1-.14-.69h5.84c.1,0,.1-.11.1-.11v-.07c0-.15,0-.3,0-.44a5.9,5.9,0,0,0-.18-1.46m-5.42-.55a1.47,1.47,0,0,1,.5-.4,1.9,1.9,0,0,1,.82-.16,1.87,1.87,0,0,1,.66.1,1,1,0,0,1,.43.28,2.3,2.3,0,0,1,.47,1h-3.22a1.74,1.74,0,0,1,.07-.29,1.48,1.48,0,0,1,.27-.51"/><path class="cls-3" d="M121,30l-3.13-4.51,2.83-4s0-.05-.07-.05h-2.86a.14.14,0,0,0-.12.05l-1.28,1.93L115,21.49a.16.16,0,0,0-.13-.06H112c-.09,0,0,.05,0,.05l.2.29,2.63,3.79L111.67,30s-.06.09,0,.09h2.87a.2.2,0,0,0,.17-.1l1.54-2.33L117.83,30a.21.21,0,0,0,.16.1h2.91c.11,0,0-.1,0-.1"/><path class="cls-3" d="M124.58,21.43h-3.31c-.12,0-.1.07-.1.07l.47,8.51s0,.11.1.11h2.34a.1.1,0,0,0,.1-.11l.48-8.49s0-.09-.08-.09"/><path class="cls-3" d="M130.87,23.38s.09,0,.09-.11V21.51a.08.08,0,0,0-.09-.08H129.3V19.05a.09.09,0,0,0-.09-.1h-2.53a.08.08,0,0,0-.08.09v2.39h-1.28c-.11,0-.09.07-.09.07v1.78s0,.1.08.1h1.29V28a2.34,2.34,0,0,0,.23,1.11,1.8,1.8,0,0,0,.64.67,2.52,2.52,0,0,0,.91.31,6.85,6.85,0,0,0,1,.07h.7a6.67,6.67,0,0,0,.67-.06l.09,0s.09,0,.09-.11V28c0-.11-.09-.07-.09-.07l-.18,0-.31,0L130,28a1.58,1.58,0,0,1-.43,0,.29.29,0,0,1-.18-.09.36.36,0,0,1-.09-.18,1.56,1.56,0,0,1,0-.42V23.38Z"/><path class="cls-3" d="M139.78,23.91a4.31,4.31,0,0,0-.91-1.45,4.21,4.21,0,0,0-1.43-.93,5.45,5.45,0,0,0-3.68,0,4,4,0,0,0-1.41.93,4.18,4.18,0,0,0-.92,1.45,5.36,5.36,0,0,0-.32,1.87,5.28,5.28,0,0,0,.32,1.87,4.14,4.14,0,0,0,.92,1.44,3.83,3.83,0,0,0,1.42.92,5,5,0,0,0,1.82.32,5.2,5.2,0,0,0,1.85-.32,4,4,0,0,0,1.43-.92,4.26,4.26,0,0,0,.91-1.44,5.28,5.28,0,0,0,.31-1.87,5.36,5.36,0,0,0-.31-1.87M136.45,28a1.73,1.73,0,0,1-.86.2,1.68,1.68,0,0,1-.84-.2,1.42,1.42,0,0,1-.54-.52,2.44,2.44,0,0,1-.3-.78,4.63,4.63,0,0,1-.09-.92,4.88,4.88,0,0,1,.09-.93,2.21,2.21,0,0,1,.3-.77,1.52,1.52,0,0,1,.54-.53,1.58,1.58,0,0,1,.84-.2,1.58,1.58,0,0,1,1.42.73,2.42,2.42,0,0,1,.29.77,4.88,4.88,0,0,1,.09.93,4.63,4.63,0,0,1-.09.92,2.68,2.68,0,0,1-.29.78,1.56,1.56,0,0,1-.56.52"/><path class="cls-4" d="M124.53,32.19a1.62,1.62,0,1,0-1.61,1.62,1.61,1.61,0,0,0,1.61-1.62"/><path class="cls-5" d="M108.79,19l-1.27,1.59s-.08.09,0,.09H109a.28.28,0,0,0,.19-.06L111.36,19s.08-.07,0-.07h-2.4a.17.17,0,0,0-.15.07"/><path class="cls-3" d="M142.2,22.28a1.07,1.07,0,0,1-.13.53,1.21,1.21,0,0,1-.39.39,1.09,1.09,0,0,1-1.07,0,1.21,1.21,0,0,1-.39-.39,1.07,1.07,0,0,1,0-1.06,1,1,0,0,1,.39-.39,1.09,1.09,0,0,1,1.07,0,1,1,0,0,1,.39.39,1.07,1.07,0,0,1,.13.53m-.2,0a.85.85,0,1,0-.25.6.82.82,0,0,0,.25-.6m-1.34-.57h.51a.51.51,0,0,1,.32.09.29.29,0,0,1,.09.23.35.35,0,0,1-.07.2.6.6,0,0,1-.24.12l.1,0a.74.74,0,0,1,.09.12l.19.32h-.34a3.62,3.62,0,0,0-.22-.38c0-.05-.07-.07-.11-.07h0v.44h-.28Zm.28.48h.13a.25.25,0,0,0,.17,0,.13.13,0,0,0,0-.2.22.22,0,0,0-.16,0h-.14Z"/><path class="cls-6" d="M42.42,27.21c0,1.24,1.13,1.63,2.27,1.63.87,0,2-.19,2-1.26S45.36,26.32,44,26s-2.76-.76-2.76-2.38,1.68-2.41,3.15-2.41c1.87,0,3.35.59,3.47,2.65H46.44c-.1-1.08-1-1.42-2-1.42s-1.8.23-1.8,1.08,1.47,1.16,2.76,1.47,2.77.77,2.77,2.4c0,2-1.88,2.67-3.6,2.67-1.9,0-3.5-.77-3.58-2.86Z"/><path class="cls-6" d="M56.66,27.19A3.42,3.42,0,0,1,53,30.07c-2.69,0-4-1.87-4-4.45s1.67-4.4,4-4.4c3,0,3.91,2.8,3.83,4.84H50.46a2.49,2.49,0,0,0,2.63,2.78,2,2,0,0,0,2.19-1.65Zm-1.34-2.35a2.43,2.43,0,0,0-4.86,0Z"/><path class="cls-6" d="M65.22,29.15c0,2.75-1.26,4.15-3.92,4.15-1.59,0-3.42-.63-3.5-2.48h1.39c.06,1,1.27,1.37,2.19,1.37,1.81,0,2.53-1.31,2.53-3.2v-.56h0A2.82,2.82,0,0,1,61.25,30c-2.52,0-3.78-2-3.78-4.28,0-2,1-4.47,3.91-4.47a2.78,2.78,0,0,1,2.52,1.41h0V21.42h1.31Zm-1.37-3.68c0-1.48-.66-3-2.41-3s-2.5,1.46-2.5,3.07.56,3.22,2.39,3.22S63.85,27.06,63.85,25.47Z"/><path class="cls-6" d="M74,29.87H72.66V28.53h0a2.94,2.94,0,0,1-2.75,1.54C67.66,30.07,67,28.79,67,27V21.42h1.39v5.72a1.59,1.59,0,0,0,1.72,1.7,2.38,2.38,0,0,0,2.5-2.65V21.42H74Z"/><path class="cls-6" d="M75.7,21.42H77V23.2h0a3.09,3.09,0,0,1,3.11-2V22.7c-2.24,0-3.06,1.27-3.06,3.41v3.76H75.7Z"/><path class="cls-6" d="M84.49,21.22c2.68,0,4.11,2,4.11,4.43s-1.43,4.42-4.11,4.42-4.1-1.95-4.1-4.42S81.81,21.22,84.49,21.22Zm0,7.62c1.46,0,2.63-1.14,2.63-3.19s-1.17-3.2-2.63-3.2-2.63,1.14-2.63,3.2S83,28.84,84.49,28.84Z"/><path class="cls-6" d="M90.77,27.21c0,1.24,1.13,1.63,2.27,1.63.87,0,2-.19,2-1.26S93.71,26.32,92.32,26s-2.76-.76-2.76-2.38,1.68-2.41,3.15-2.41c1.87,0,3.35.59,3.47,2.65H94.79c-.1-1.08-1.05-1.42-2-1.42s-1.8.23-1.8,1.08S92.5,24.69,93.79,25s2.77.77,2.77,2.4c0,2-1.88,2.67-3.6,2.67-1.9,0-3.5-.77-3.58-2.86Z"/><path class="cls-6" d="M27.49,20.36A5.38,5.38,0,1,0,33,25.73a5.45,5.45,0,0,0-5.52-5.37"/><path class="cls-6" d="M36.58,19.86H32.41a8,8,0,0,1,.06,11.7h4.14a11.11,11.11,0,0,0,0-11.7"/><path class="cls-6" d="M20,25.73a8.05,8.05,0,0,1,2.57-5.87H18.39a11.11,11.11,0,0,0,0,11.7H22.5A8,8,0,0,1,20,25.73"/></g></g></svg>