<svg xmlns="http://www.w3.org/2000/svg" xmlns:xlink="http://www.w3.org/1999/xlink" viewBox="0 0 160 50"><defs><style>.cls-1{fill:none;}.cls-2{isolation:isolate;}.cls-3{fill:#6e7072;opacity:0;}.cls-4{fill:#777677;}.cls-5{fill:url(#linear-gradient);}.cls-6{fill:#fff;}.cls-7{clip-path:url(#clip-path);}.cls-8{fill:url(#radial-gradient);}.cls-9{fill:url(#radial-gradient-2);}.cls-10,.cls-12,.cls-13{mix-blend-mode:overlay;}.cls-10{fill:url(#radial-gradient-3);}.cls-11{mix-blend-mode:hard-light;fill:url(#radial-gradient-4);}.cls-12{fill:url(#linear-gradient-2);}.cls-13{fill:url(#linear-gradient-3);}</style><linearGradient id="linear-gradient" x1="29.37" y1="41.58" x2="61.55" y2="9.39" gradientUnits="userSpaceOnUse"><stop offset="0.01" stop-color="#0060ac"/><stop offset="0.17" stop-color="#234799"/><stop offset="0.36" stop-color="#5d3a87"/><stop offset="0.58" stop-color="#9a2c74"/><stop offset="0.76" stop-color="#c62267"/><stop offset="0.91" stop-color="#e21c5e"/><stop offset="0.99" stop-color="#ec1a5b"/></linearGradient><clipPath id="clip-path"><path class="cls-1" d="M48.51,4.12A18.44,18.44,0,0,0,30,21.82c0,.13,0,.28,0,.43v17.3a6.65,6.65,0,0,0,13.28.55,18.39,18.39,0,1,0,5.23-36Z"/></clipPath><radialGradient id="radial-gradient" cx="-1131.61" cy="-772.91" r="3.05" gradientTransform="matrix(0.88, 0.7, -0.4, 0.49, 744.39, 1193.35)" gradientUnits="userSpaceOnUse"><stop offset="0" stop-color="#fff" stop-opacity="0.2"/><stop offset="0.37" stop-color="#fff" stop-opacity="0.1"/><stop offset="0.74" stop-color="#fff" stop-opacity="0.03"/><stop offset="1" stop-color="#fff" stop-opacity="0"/></radialGradient><radialGradient id="radial-gradient-2" cx="-1131.43" cy="-765.18" r="3.05" xlink:href="#radial-gradient"/><radialGradient id="radial-gradient-3" cx="-1202.31" cy="-803.19" r="12.8" gradientTransform="matrix(0.87, 0.72, -0.4, 0.48, 763.58, 1283.47)" gradientUnits="userSpaceOnUse"><stop offset="0" stop-color="#fff" stop-opacity="0.5"/><stop offset="0.16" stop-color="#fff" stop-opacity="0.39"/><stop offset="0.42" stop-color="#fff" stop-opacity="0.22"/><stop offset="0.66" stop-color="#fff" stop-opacity="0.1"/><stop offset="0.86" stop-color="#fff" stop-opacity="0.03"/><stop offset="1" stop-color="#fff" stop-opacity="0"/></radialGradient><radialGradient id="radial-gradient-4" cx="-1133.38" cy="-794.2" r="9.81" gradientTransform="matrix(0.88, 0.7, -0.4, 0.49, 744.39, 1193.35)" gradientUnits="userSpaceOnUse"><stop offset="0" stop-color="#fff" stop-opacity="0.3"/><stop offset="0.19" stop-color="#fff" stop-opacity="0.22"/><stop offset="0.52" stop-color="#fff" stop-opacity="0.1"/><stop offset="0.8" stop-color="#fff" stop-opacity="0.03"/><stop offset="1" stop-color="#fff" stop-opacity="0"/></radialGradient><linearGradient id="linear-gradient-2" x1="58.84" y1="9.7" x2="47.05" y2="22.04" gradientTransform="matrix(1, 0, 0, 1, 0, 0)" xlink:href="#radial-gradient-3"/><linearGradient id="linear-gradient-3" x1="-11813.59" y1="-5705.93" x2="-11817.5" y2="-5701.84" gradientTransform="matrix(-0.45, 0.91, -0.9, -0.44, -10395.8, 8320.86)" gradientUnits="userSpaceOnUse"><stop offset="0" stop-color="#fff" stop-opacity="0.5"/><stop offset="0.08" stop-color="#fff" stop-opacity="0.39"/><stop offset="0.21" stop-color="#fff" stop-opacity="0.22"/><stop offset="0.33" stop-color="#fff" stop-opacity="0.1"/><stop offset="0.44" stop-color="#fff" stop-opacity="0.03"/><stop offset="0.51" stop-color="#fff" stop-opacity="0"/></linearGradient></defs><title>home-puntos</title><g class="cls-2"><g id="Capa_2" data-name="Capa 2"><g id="Capa_1-2" data-name="Capa 1"><rect class="cls-1" width="160" height="50"/><rect class="cls-3" x="29.6" y="2.42" width="100.8" height="45.16"/><path class="cls-4" d="M76.61,25.46c.54,0,1.61.18,1.61.86a.49.49,0,0,1-.47.51c-.3,0-.51-.27-1.14-.27-.93,0-1.41.81-1.41,1.75s.49,1.7,1.41,1.7c.63,0,.88-.33,1.19-.33a.54.54,0,0,1,.49.52c0,.74-1.13.91-1.68.91A2.64,2.64,0,0,1,74,28.28,2.62,2.62,0,0,1,76.61,25.46Z"/><path class="cls-4" d="M80.85,28.28a2.62,2.62,0,0,1,2.58-2.82A2.65,2.65,0,0,1,86,28.28a2.59,2.59,0,1,1-5.16,0Zm4,0c0-.93-.47-1.76-1.41-1.76S82,27.35,82,28.28s.46,1.77,1.41,1.77S84.84,29.22,84.84,28.28Z"/><path class="cls-4" d="M88.72,26.1a.56.56,0,1,1,1.12,0V30h1.33a.51.51,0,0,1,.54.55.53.53,0,0,1-.54.51H89.3a.56.56,0,0,1-.58-.63Z"/><path class="cls-4" d="M93.94,28.28a2.62,2.62,0,0,1,2.58-2.82,2.65,2.65,0,0,1,2.58,2.82,2.59,2.59,0,1,1-5.16,0Zm4,0c0-.93-.47-1.76-1.41-1.76s-1.41.83-1.41,1.76.46,1.77,1.41,1.77S97.93,29.22,97.93,28.28Z"/><path class="cls-4" d="M102.36,26.09a.75.75,0,0,1,.73-.59.81.81,0,0,1,.75.55l.88,3.05h0l.88-3.05a.81.81,0,0,1,.75-.55.75.75,0,0,1,.73.59l.7,4.29a.62.62,0,0,1,0,.13.53.53,0,0,1-.54.56c-.38,0-.53-.18-.58-.54l-.45-3.13h0l-.9,3.22a.62.62,0,0,1-1.2,0l-.9-3.22h0l-.45,3.13c0,.36-.2.54-.58.54a.53.53,0,0,1-.54-.56.62.62,0,0,1,0-.13Z"/><path class="cls-4" d="M110.57,26.12a.55.55,0,0,1,.59-.57h1.44A1.34,1.34,0,0,1,114,26.9a1.14,1.14,0,0,1-.7,1.13v0a1.32,1.32,0,0,1,1.14,1.3A1.57,1.57,0,0,1,112.71,31h-1.54a.56.56,0,0,1-.6-.58Zm1.13,1.6h.58a.57.57,0,0,0,.61-.61.55.55,0,0,0-.61-.55h-.58Zm0,2.29h.88a.64.64,0,0,0,.7-.67c0-.36-.27-.61-.79-.61h-.79Z"/><path class="cls-4" d="M117.12,26.1a.56.56,0,1,1,1.12,0v4.37a.56.56,0,1,1-1.12,0Z"/><path class="cls-4" d="M122.4,26.09a.88.88,0,0,1,.8-.63.84.84,0,0,1,.8.63l1.47,4.18a1.13,1.13,0,0,1,.06.29.51.51,0,0,1-.52.51.52.52,0,0,1-.54-.4l-.23-.73h-2.08l-.23.72a.52.52,0,0,1-.54.41.54.54,0,0,1-.55-.54.82.82,0,0,1,0-.26Zm.08,2.79h1.42l-.69-2.23h0Z"/><path class="cls-4" d="M74.05,14.78a1,1,0,0,1,1-1.06h2.53a3,3,0,0,1,3.1,3.16,2.89,2.89,0,0,1-3,3.14H76.11V22a1,1,0,1,1-2.06,0Zm2.06,3.36h1.1a1.26,1.26,0,0,0,1.36-1.26,1.21,1.21,0,0,0-1.36-1.28h-1.1Z"/><path class="cls-4" d="M84.35,19.27a1.86,1.86,0,1,0,3.72,0v-4.5a1,1,0,1,1,2.06,0v4.5a3.92,3.92,0,1,1-7.83,0v-4.5a1,1,0,1,1,2,0Z"/><path class="cls-4" d="M92.08,14.77a1,1,0,0,1,1-1.12c.54,0,.73.24,1.42,1.13l3.41,4.39h0v-4.4a1,1,0,1,1,2.06,0V22a1,1,0,0,1-1,1.12c-.55,0-.75-.25-1.42-1.13l-3.42-4.4h0V22a1,1,0,1,1-2,0Z"/><path class="cls-4" d="M103.46,15.68H102.3a.94.94,0,0,1-1.06-1,.93.93,0,0,1,1.06-1h4.37a1,1,0,1,1,0,2h-1.15V22a1,1,0,1,1-2.06,0Z"/><path class="cls-4" d="M117.61,18.36c0,2.95-1.77,4.85-4.45,4.85s-4.44-1.9-4.44-4.85,1.76-4.84,4.44-4.84S117.61,15.42,117.61,18.36Zm-6.68,0c0,1.47.64,2.89,2.23,2.89s2.24-1.42,2.24-2.89-.65-2.89-2.24-2.89S110.93,16.89,110.93,18.36Z"/><path class="cls-4" d="M119.92,20.56c.51,0,1.17.54,2.22.54.8,0,1.1-.42,1.1-.87,0-.71-.79-.85-2-1.24s-2.17-.82-2.17-2.5c0-2,1.53-3,3.25-3s2.56.58,2.56,1.39a.91.91,0,0,1-.91,1c-.66,0-.88-.35-1.75-.35-.56,0-.94.3-.94.75s.51.6,1.93,1.09a2.65,2.65,0,0,1,2.2,2.72c0,2.14-1.54,3.1-3.46,3.1-1.21,0-3-.48-3-1.53A1,1,0,0,1,119.92,20.56Z"/><path class="cls-4" d="M125.69,11.64a2.07,2.07,0,0,1,.18-.86,2.17,2.17,0,0,1,.47-.69,2.1,2.1,0,0,1,.7-.47,2,2,0,0,1,.85-.18,2.06,2.06,0,0,1,.85.18,2.1,2.1,0,0,1,.7.47,2.55,2.55,0,0,1,.47.69,2.24,2.24,0,0,1,0,1.71,2.41,2.41,0,0,1-.47.69,2.29,2.29,0,0,1-.7.48,2.22,2.22,0,0,1-.85.17,2.19,2.19,0,0,1-.85-.17,2.29,2.29,0,0,1-.7-.48,2.2,2.2,0,0,1-.65-1.54Zm.39,0a1.69,1.69,0,0,0,.15.7,1.73,1.73,0,0,0,.38.57,1.65,1.65,0,0,0,.58.39,1.82,1.82,0,0,0,1.4,0,1.87,1.87,0,0,0,1-1,1.68,1.68,0,0,0,.14-.7,1.65,1.65,0,0,0-.14-.7,1.56,1.56,0,0,0-.39-.58,1.92,1.92,0,0,0-.57-.39,1.82,1.82,0,0,0-1.4,0,2,2,0,0,0-.58.39,1.92,1.92,0,0,0-.53,1.28Zm1-1.27h1a1,1,0,0,1,.67.19.74.74,0,0,1,.22.56.69.69,0,0,1-.17.5.74.74,0,0,1-.43.19l.65,1.07h-.48l-.63-1h-.34v1H127Zm.46,1.09h.55a.53.53,0,0,0,.19,0,.31.31,0,0,0,.14-.11.29.29,0,0,0,.06-.19.3.3,0,0,0-.06-.2.24.24,0,0,0-.14-.1.53.53,0,0,0-.19-.05h-.55Z"/><path class="cls-5" d="M48.51,4.07A18.44,18.44,0,0,0,30,21.76c0,.14,0,.28,0,.43v17.3a6.65,6.65,0,0,0,13.28.56,18.78,18.78,0,0,0,5.23.75,18.37,18.37,0,1,0,0-36.73Z"/><path class="cls-6" d="M36.65,46.49a7,7,0,0,1-7-7V22.19c0-.16,0-.31,0-.46A18.58,18.58,0,0,1,35.37,8.94,18.95,18.95,0,0,1,67.43,22.43,18.87,18.87,0,0,1,48.51,41.2a19.25,19.25,0,0,1-4.89-.64A7.07,7.07,0,0,1,36.65,46.49Zm11.86-42a18,18,0,0,0-18.09,17.3c0,.15,0,.28,0,.42v17.3A6.25,6.25,0,0,0,42.88,40l0-.48.47.13A18.11,18.11,0,0,0,66.62,22.43,18.06,18.06,0,0,0,48.51,4.47Z"/><path class="cls-6" d="M49.34,13.37a9.35,9.35,0,0,1,6,2.17,4.69,4.69,0,0,1,2.14,3.54,2.73,2.73,0,0,1-1.3,2.42,2.89,2.89,0,0,1-1.63.49,2.92,2.92,0,0,1-1.37-.34,8.59,8.59,0,0,1-1.36-1.31,3.48,3.48,0,0,0-5-.08,3.55,3.55,0,0,0,0,4.9,3.31,3.31,0,0,0,2.44,1,3.55,3.55,0,0,0,2.24-.81c.43-.4.85-.81,1.27-1.22a2.55,2.55,0,0,1,1.73-.58,2.92,2.92,0,0,1,2.08.84,2.67,2.67,0,0,1,.88,2,4.55,4.55,0,0,1-1.92,3.28,9.19,9.19,0,0,1-6.22,2.34,9.59,9.59,0,0,1-4.13-.92,9.32,9.32,0,0,1-3.89-3.44,9.27,9.27,0,0,1,1.57-11.8A9.2,9.2,0,0,1,49.34,13.37Z"/><g class="cls-7"><path class="cls-8" d="M53.55,22.9c-.67.83-2.41.54-3.9-.65s-2.15-2.8-1.48-3.63,2.41-.53,3.89.65S54.22,22.08,53.55,22.9Z"/><path class="cls-9" d="M50.66,26.81c-.66.83-2.41.53-3.9-.65s-2.15-2.81-1.48-3.63,2.41-.53,3.89.65S51.33,26,50.66,26.81Z"/><path class="cls-10" d="M52.45,42.33c-2.86,3.42-10.17,2.09-16.33-3s-8.83-11.94-6-15.37,10.17-2.09,16.33,3S55.31,38.91,52.45,42.33Z"/><path class="cls-11" d="M66.37,16c-2.14,2.65-7.75,1.71-12.54-2.1s-6.92-9-4.78-11.68S56.8.5,61.59,4.31,68.51,13.35,66.37,16Z"/><path class="cls-12" d="M59.67,31.57a15.54,15.54,0,0,0,4.62-11.06A15.8,15.8,0,0,0,36.76,10.07C53.24,10.32,44.21,28.41,59.67,31.57Z"/><path class="cls-13" d="M32.67,42a4.34,4.34,0,0,0,3,3,5.52,5.52,0,0,0,7.18-4.93.93.93,0,0,0-1.55-.73c-2.59,2.16-5.42-1.45-8.3,2.25Z"/></g></g></g></g></svg>