<svg xmlns="http://www.w3.org/2000/svg" viewBox="0 0 160 50"><defs><style>.cls-1{fill:none;}.cls-2{fill:#ffe504;}.cls-3{fill:#1e120c;}.cls-4{fill:#e52f2a;}.cls-5{fill:#010101;}</style></defs><title>home-viajes</title><g id="Capa_2" data-name="Capa 2"><g id="Capa_1-2" data-name="Capa 1"><rect class="cls-1" width="160" height="50"/><path class="cls-2" d="M131.94,25.71a21.2,21.2,0,1,0-21.2,21.2,21.2,21.2,0,0,0,21.2-21.2"/><path class="cls-3" d="M101.16,24.44a4.79,4.79,0,0,0-.76-1.63A3.89,3.89,0,0,0,99,21.66a4.08,4.08,0,0,0-1.92-.43,4.38,4.38,0,0,0-1.8.35,4.16,4.16,0,0,0-1.4,1A4.32,4.32,0,0,0,93,24a5,5,0,0,0-.32,1.79A5.41,5.41,0,0,0,93,27.61a4.39,4.39,0,0,0,.88,1.44,3.86,3.86,0,0,0,1.4.93,4.85,4.85,0,0,0,1.83.33,4.54,4.54,0,0,0,2.5-.67,3.31,3.31,0,0,0,.92-.91,5.22,5.22,0,0,0,.63-1.32l0-.17s0-.08-.06-.08H98.94c-.11,0-.12.06-.12.06l0,.08a.8.8,0,0,1-.16.3,2.37,2.37,0,0,1-.36.31,1.88,1.88,0,0,1-1.08.31,2.32,2.32,0,0,1-.78-.12,1.43,1.43,0,0,1-.55-.32,1.44,1.44,0,0,1-.34-.57,2.72,2.72,0,0,1-.14-.69h5.83c.1,0,.11-.11.11-.11v-.07c0-.15,0-.3,0-.44a6.41,6.41,0,0,0-.17-1.46m-5.43-.55a1.51,1.51,0,0,1,.51-.4,2.17,2.17,0,0,1,1.47-.06,1,1,0,0,1,.43.28,2.3,2.3,0,0,1,.47,1H95.39c0-.09,0-.19.07-.29a1.48,1.48,0,0,1,.27-.51"/><path class="cls-3" d="M109.6,30l-3.13-4.51,2.83-4s0-.05-.06-.05h-2.87a.13.13,0,0,0-.11.05L105,23.41l-1.29-1.92a.19.19,0,0,0-.14-.06H100.6c-.08,0,0,.05,0,.05l.19.29,2.63,3.79L100.32,30s0,.09.05.09h2.87a.17.17,0,0,0,.16-.1L105,27.69,106.48,30a.24.24,0,0,0,.17.1h2.91c.11,0,0-.1,0-.1"/><path class="cls-3" d="M113.23,21.43h-3.31c-.11,0-.09.07-.09.07L110.3,30s0,.11.1.11h2.34c.1,0,.1-.11.1-.11l.48-8.49a.09.09,0,0,0-.09-.09"/><path class="cls-3" d="M119.52,23.38s.09,0,.09-.11V21.51s0-.08-.09-.08H118V19.05a.09.09,0,0,0-.09-.1h-2.52a.08.08,0,0,0-.09.09v2.39H114c-.12,0-.1.07-.1.07v1.78s0,.1.08.1h1.29V28a2.22,2.22,0,0,0,.24,1.11,1.65,1.65,0,0,0,.64.67,2.45,2.45,0,0,0,.91.31,6.76,6.76,0,0,0,1,.07h.7a6.21,6.21,0,0,0,.66-.06l.1,0s.08,0,.08-.11V28c0-.11-.09-.07-.09-.07l-.17,0L119,28l-.35,0a1.55,1.55,0,0,1-.42,0,.33.33,0,0,1-.19-.09.3.3,0,0,1-.08-.18,1.5,1.5,0,0,1,0-.42V23.38Z"/><path class="cls-3" d="M128.43,23.91a4.13,4.13,0,0,0-.9-1.45,4.31,4.31,0,0,0-1.43-.93,5,5,0,0,0-1.85-.32,4.94,4.94,0,0,0-1.84.32,4,4,0,0,0-1.41.93,4.16,4.16,0,0,0-.91,1.45,5.14,5.14,0,0,0-.32,1.87,5.06,5.06,0,0,0,.32,1.87,4.11,4.11,0,0,0,.91,1.44,3.83,3.83,0,0,0,1.42.92,5.09,5.09,0,0,0,1.83.32A5.2,5.2,0,0,0,126.1,30a4.14,4.14,0,0,0,1.43-.92,4.09,4.09,0,0,0,.9-1.44,5.28,5.28,0,0,0,.32-1.87,5.36,5.36,0,0,0-.32-1.87M125.11,28a1.76,1.76,0,0,1-.86.2,1.72,1.72,0,0,1-.85-.2,1.58,1.58,0,0,1-.54-.52,2.69,2.69,0,0,1-.3-.78,4.63,4.63,0,0,1-.09-.92,4.88,4.88,0,0,1,.09-.93,2.69,2.69,0,0,1,.3-.77,1.64,1.64,0,0,1,.55-.53,1.58,1.58,0,0,1,.84-.2,1.55,1.55,0,0,1,1.41.73,2.21,2.21,0,0,1,.3.77,4.88,4.88,0,0,1,.09.93,4.63,4.63,0,0,1-.09.92,2.44,2.44,0,0,1-.3.78,1.61,1.61,0,0,1-.55.52"/><path class="cls-4" d="M113.19,32.19a1.62,1.62,0,1,0-1.62,1.62,1.62,1.62,0,0,0,1.62-1.62"/><path class="cls-5" d="M97.44,19,96.17,20.6s-.07.09,0,.09h1.5a.31.31,0,0,0,.19-.06L100,19s.07-.07,0-.07H97.6a.18.18,0,0,0-.16.07"/><path class="cls-3" d="M130.86,22.28a1,1,0,0,1-.14.53,1.12,1.12,0,0,1-.39.39,1.07,1.07,0,0,1-1.06,0,1,1,0,0,1-.39-.39,1.07,1.07,0,0,1,0-1.06.92.92,0,0,1,.39-.39,1.06,1.06,0,0,1,1.59.92m-.2,0a.86.86,0,0,0-.25-.61.84.84,0,0,0-.61-.25.82.82,0,0,0-.61.25.86.86,0,0,0,0,1.21.82.82,0,0,0,.61.25.84.84,0,0,0,.61-.25.86.86,0,0,0,.25-.6m-1.35-.57h.51a.47.47,0,0,1,.32.09.29.29,0,0,1,.1.23.3.3,0,0,1-.08.2.55.55,0,0,1-.23.12l.09,0a.41.41,0,0,1,.09.12l.19.32H130c-.12-.21-.19-.34-.22-.38a.16.16,0,0,0-.11-.07h0v.44h-.29Zm.29.48h.12a.3.3,0,0,0,.18,0,.15.15,0,0,0,0-.2.25.25,0,0,0-.16,0h-.14Z"/><path class="cls-4" d="M50.59,29.87H49.11L46,21.42h1.55l2.37,7h0l2.31-7h1.45Z"/><path class="cls-4" d="M56.1,19.9H54.71V18.2H56.1Zm-1.39,1.52H56.1v8.45H54.71Z"/><path class="cls-4" d="M65.45,29.84a1.83,1.83,0,0,1-1,.23c-.72,0-1.17-.39-1.17-1.31a3.76,3.76,0,0,1-3,1.31c-1.53,0-2.79-.69-2.79-2.37,0-1.91,1.42-2.32,2.86-2.6s2.84-.2,2.84-1.24c0-1.21-1-1.41-1.88-1.41-1.18,0-2,.36-2.11,1.6H57.83c.09-2.09,1.7-2.83,3.58-2.83,1.52,0,3.18.35,3.18,2.33v4.34c0,.66,0,.95.44.95a1.08,1.08,0,0,0,.42-.08ZM63.2,25.51a7.16,7.16,0,0,1-2.52.57c-.92.16-1.7.49-1.7,1.52s.78,1.24,1.63,1.24c1.83,0,2.59-1.14,2.59-1.91Z"/><path class="cls-4" d="M67.92,31a1.88,1.88,0,0,1-2,2.16,3.65,3.65,0,0,1-.72-.07V31.85a3.76,3.76,0,0,0,.58,0c.6,0,.78-.29.78-1.16v-9.3h1.39Zm0-11H66.53V18.2h1.39Z"/><path class="cls-4" d="M77,27.19a3.42,3.42,0,0,1-3.61,2.88c-2.7,0-4-1.87-4-4.45s1.66-4.4,4-4.4c3,0,3.9,2.8,3.82,4.84H70.8a2.49,2.49,0,0,0,2.63,2.78,2,2,0,0,0,2.19-1.65Zm-1.34-2.35a2.43,2.43,0,0,0-2.44-2.39,2.4,2.4,0,0,0-2.41,2.39Z"/><path class="cls-4" d="M79.05,27.21c0,1.24,1.13,1.63,2.27,1.63.87,0,2.05-.19,2.05-1.26S82,26.32,80.6,26s-2.76-.76-2.76-2.38,1.69-2.41,3.16-2.41c1.86,0,3.35.59,3.46,2.65H83.07c-.1-1.08-1-1.42-2-1.42s-1.8.23-1.8,1.08,1.47,1.16,2.76,1.47,2.77.77,2.77,2.4c0,2-1.88,2.67-3.6,2.67-1.89,0-3.5-.77-3.58-2.86Z"/><path class="cls-4" d="M30.42,25.9a.92.92,0,0,1,.52-.17.89.89,0,0,1,.87.66,10.25,10.25,0,0,0,2.95-.69s0-.09,0-.14,0,0,0-.07a10.71,10.71,0,0,1-5.31-4.59,7.66,7.66,0,0,0-1.22,2.82A10.66,10.66,0,0,0,29.35,25a9.1,9.1,0,0,0,1.07.88m13.13-.13-.19,0a10.72,10.72,0,0,1-6.85,2.74,11,11,0,0,1-5-1.22.9.9,0,0,1-1.43-.53,10.87,10.87,0,0,1-1.91-.31,8,8,0,0,0,15.91-.82.91.91,0,0,1-.52.16m-13.46.62a10.35,10.35,0,0,1-2-1.87,6.53,6.53,0,0,0-.05.78,6,6,0,0,0,0,.74,10.8,10.8,0,0,0,2,.36h0M35,25a.93.93,0,0,1,1.28,0,9.63,9.63,0,0,0,1.82-1.41l.06-.05A.84.84,0,0,1,38,23s0,0,0-.05A10,10,0,0,1,33.3,19.3a1.09,1.09,0,0,1-.26,0,.88.88,0,0,1-.89-.83,8.26,8.26,0,0,0-2.31,1.88A10.09,10.09,0,0,0,32,23.09,10,10,0,0,0,35,25m7.76.33a8.29,8.29,0,0,1-3.51,1h-.43A10.75,10.75,0,0,1,36.4,26a.89.89,0,0,1-.76.43.91.91,0,0,1-.73-.37,11.29,11.29,0,0,1-3.09.68s0,0,0,0A10.33,10.33,0,0,0,43,25.6a.9.9,0,0,1-.26-.32m-3.1-1.83a.9.9,0,0,1-.77.43.94.94,0,0,1-.34-.07,11.08,11.08,0,0,1-2.06,1.52.36.36,0,0,1,0,.1,10.42,10.42,0,0,0,2.31.27h.41A10.07,10.07,0,0,0,42.67,25V24.9a.87.87,0,0,1,.88-.86.93.93,0,0,1,.44.11c0-.24-.09-.47-.15-.7a11.13,11.13,0,0,1-2.09.2,10.9,10.9,0,0,1-2.09-.2m.11-.58a10.63,10.63,0,0,0,2,.2,10.19,10.19,0,0,0,1.93-.19,7.9,7.9,0,0,0-2.41-3.52,10,10,0,0,1-1.62,3.2.91.91,0,0,1,.12.31m-5.19-2.68a10.3,10.3,0,0,0,3.64,2.26.88.88,0,0,1,.67-.3,1,1,0,0,1,.35.06A9.6,9.6,0,0,0,40.76,19a8.1,8.1,0,0,0-4.69-1.48,7.91,7.91,0,0,0-2.39.37.87.87,0,0,1,.25.61.83.83,0,0,1-.3.63,12.23,12.23,0,0,0,.95,1.08"/></g></g></svg>