<svg xmlns="http://www.w3.org/2000/svg" viewBox="0 0 160 50"><defs><style>.cls-1{fill:none;}.cls-2{fill:#ffe504;}.cls-3{fill:#1e120c;}.cls-4{fill:#e52d2b;}.cls-5{fill:#1d1d1b;}.cls-6{fill:#e52f2a;}</style></defs><title>home-tarjeta-exito</title><g id="Capa_2" data-name="Capa 2"><g id="Capa_1-2" data-name="Capa 1"><rect class="cls-1" width="160" height="50"/><path class="cls-2" d="M90.65,25.5A20.65,20.65,0,1,0,70,46.16,20.65,20.65,0,0,0,90.65,25.5"/><path class="cls-3" d="M60.66,24.27a4.38,4.38,0,0,0-.74-1.59,3.73,3.73,0,0,0-1.31-1.12,4.1,4.1,0,0,0-1.88-.42,4.34,4.34,0,0,0-1.75.34,4.09,4.09,0,0,0-1.36.94,4,4,0,0,0-.88,1.41,4.77,4.77,0,0,0-.31,1.75,5.06,5.06,0,0,0,.3,1.77,4.05,4.05,0,0,0,.86,1.41,4,4,0,0,0,1.35.91,4.91,4.91,0,0,0,1.79.31,4.4,4.4,0,0,0,2.44-.65,3.2,3.2,0,0,0,.89-.87,5.41,5.41,0,0,0,.62-1.3l0-.17a.06.06,0,0,0-.06-.08H58.51c-.11,0-.13.07-.13.07l0,.07a.7.7,0,0,1-.16.29,1.54,1.54,0,0,1-.35.31,1.77,1.77,0,0,1-1,.3,2.46,2.46,0,0,1-.77-.11,1.35,1.35,0,0,1-.53-.32,1.56,1.56,0,0,1-.34-.55A3.17,3.17,0,0,1,55,26.3h5.69c.09,0,.1-.11.1-.11v-.07c0-.14,0-.29,0-.42a5.6,5.6,0,0,0-.18-1.43m-5.28-.54a1.32,1.32,0,0,1,.5-.38,1.57,1.57,0,0,1,.79-.17,2,2,0,0,1,.64.1,1.15,1.15,0,0,1,.42.28,2.28,2.28,0,0,1,.46,1H55.05c0-.09,0-.18.07-.28a1.34,1.34,0,0,1,.26-.5"/><path class="cls-3" d="M68.89,29.71l-3-4.4,2.76-3.93s0-.05-.06-.05H65.75a.14.14,0,0,0-.12.05l-1.25,1.88-1.26-1.87a.16.16,0,0,0-.13-.06H60.12c-.08,0,0,.06,0,.06l.2.28,2.55,3.69-3,4.36s-.05.08,0,.08h2.8a.17.17,0,0,0,.15-.1l1.51-2.26,1.5,2.26a.21.21,0,0,0,.15.1h2.84c.11,0,0-.09,0-.09"/><path class="cls-3" d="M72.43,21.33H69.21c-.12,0-.1.08-.1.08l.47,8.29s0,.1.09.1H72c.1,0,.1-.11.1-.11l.46-8.26s0-.1-.08-.1"/><path class="cls-3" d="M78.56,23.23s.08,0,.08-.1V21.41a.07.07,0,0,0-.08-.08H77V19a.09.09,0,0,0-.09-.09H74.48a.08.08,0,0,0-.08.09v2.32H73.16c-.12,0-.1.08-.1.08v1.73a.08.08,0,0,0,.08.09H74.4v4.54a2.29,2.29,0,0,0,.22,1.07,1.61,1.61,0,0,0,.63.66,2.53,2.53,0,0,0,.89.3,6.33,6.33,0,0,0,1,.08l.68,0a6.26,6.26,0,0,0,.65-.06l.09,0s.08,0,.08-.11v-2c0-.1-.08-.07-.08-.07l-.17,0-.3,0h-.34a1.61,1.61,0,0,1-.42,0,.37.37,0,0,1-.18-.08.5.5,0,0,1-.08-.19A1.44,1.44,0,0,1,77,27V23.23Z"/><path class="cls-3" d="M87.24,23.75A3.87,3.87,0,0,0,85,21.44a5.19,5.19,0,0,0-3.59,0,4,4,0,0,0-1.38.9,4.24,4.24,0,0,0-.89,1.41,5.67,5.67,0,0,0,0,3.64A4.24,4.24,0,0,0,80,28.8a4,4,0,0,0,1.39.9,5,5,0,0,0,1.78.31A5.15,5.15,0,0,0,85,29.7a3.87,3.87,0,0,0,2.28-2.31,5.5,5.5,0,0,0,0-3.64m-3.24,4a1.61,1.61,0,0,1-2.19-.51,2.56,2.56,0,0,1-.29-.76,4.36,4.36,0,0,1-.09-.9,4.58,4.58,0,0,1,.09-.9,2.45,2.45,0,0,1,.29-.76,1.48,1.48,0,0,1,1.35-.7,1.68,1.68,0,0,1,.84.19,1.53,1.53,0,0,1,.53.51,2.24,2.24,0,0,1,.3.76,5.47,5.47,0,0,1,.08.9,5.19,5.19,0,0,1-.08.9,2.32,2.32,0,0,1-.3.76,1.44,1.44,0,0,1-.53.51"/><path class="cls-4" d="M72.38,31.82a1.58,1.58,0,1,0-1.57,1.58,1.57,1.57,0,0,0,1.57-1.58"/><path class="cls-3" d="M57.05,19l-1.24,1.55s-.08.09,0,.09h1.46a.28.28,0,0,0,.19-.06L59.56,19s.07-.06,0-.06H57.2a.18.18,0,0,0-.15.06"/><path class="cls-3" d="M89.6,22.16a1,1,0,0,1-.14.52,1,1,0,0,1-.37.37,1,1,0,0,1-.52.15,1,1,0,0,1-.52-.15,1,1,0,0,1-.38-.37,1,1,0,0,1-.14-.52,1.07,1.07,0,0,1,.14-.52.9.9,0,0,1,.38-.37,1,1,0,0,1,.52-.14,1,1,0,0,1,.52.14.94.94,0,0,1,.37.37,1,1,0,0,1,.14.52m-.2,0a.81.81,0,0,0-.24-.59.82.82,0,0,0-.59-.25.84.84,0,1,0,0,1.68.82.82,0,0,0,.59-.25.81.81,0,0,0,.24-.59m-1.3-.55h.49a.52.52,0,0,1,.31.08.3.3,0,0,1,.09.23.25.25,0,0,1-.07.19.42.42,0,0,1-.22.12s.07,0,.08.05l.1.11.17.32h-.32c-.11-.2-.18-.33-.21-.37a.2.2,0,0,0-.11-.07h0v.43H88.1Zm.27.47h.12a.35.35,0,0,0,.17,0,.11.11,0,0,0,0-.1.1.1,0,0,0,0-.1.3.3,0,0,0-.15,0h-.14Z"/><path class="cls-5" d="M4.4,21.67H5.6V19.51H7.18v2.16H8.62v1.18H7.18V26.7c0,.16,0,.31,0,.43a.81.81,0,0,0,.1.3.43.43,0,0,0,.23.19,1.17,1.17,0,0,0,.42.06h.33a2,2,0,0,0,.34-.05v1.22l-.52.06a4.36,4.36,0,0,1-.51,0,3.44,3.44,0,0,1-1-.12,1.35,1.35,0,0,1-.6-.35,1.23,1.23,0,0,1-.29-.58,4.41,4.41,0,0,1-.09-.79V22.85H4.4Z"/><path class="cls-5" d="M15.78,27.27a.82.82,0,0,0,.08.41.31.31,0,0,0,.3.13h.17l.22,0v1.1l-.22.06-.27.07-.28,0h-.23a1.52,1.52,0,0,1-.81-.19,1,1,0,0,1-.42-.69,2.73,2.73,0,0,1-1.16.67,4.54,4.54,0,0,1-1.33.21,3.22,3.22,0,0,1-.93-.13,2.54,2.54,0,0,1-.79-.39,1.9,1.9,0,0,1-.54-.65,2.12,2.12,0,0,1-.2-.93,2.17,2.17,0,0,1,.24-1.09,1.9,1.9,0,0,1,.64-.65,2.89,2.89,0,0,1,.89-.34c.33-.07.66-.12,1-.16A6.24,6.24,0,0,1,13,24.6a3.29,3.29,0,0,0,.69-.12,1,1,0,0,0,.47-.26.67.67,0,0,0,.17-.52.8.8,0,0,0-.14-.5,1,1,0,0,0-.36-.3,1.9,1.9,0,0,0-.48-.14l-.5,0a1.93,1.93,0,0,0-1.1.28,1.08,1.08,0,0,0-.49.86H9.63A2.33,2.33,0,0,1,10,22.72a2.18,2.18,0,0,1,.74-.74,2.85,2.85,0,0,1,1-.39,5.66,5.66,0,0,1,1.17-.11,4.62,4.62,0,0,1,1,.11,2.76,2.76,0,0,1,.92.36,1.87,1.87,0,0,1,.66.65,1.72,1.72,0,0,1,.25,1Zm-1.58-2a2,2,0,0,1-.89.29c-.36,0-.71.08-1.06.14a3.89,3.89,0,0,0-.49.12,1.38,1.38,0,0,0-.42.21.89.89,0,0,0-.28.35,1.17,1.17,0,0,0-.11.52.71.71,0,0,0,.16.45,1,1,0,0,0,.37.28,1.73,1.73,0,0,0,.47.15,4.26,4.26,0,0,0,.47,0,2.46,2.46,0,0,0,.57-.07,2,2,0,0,0,.57-.24,1.54,1.54,0,0,0,.46-.42,1.08,1.08,0,0,0,.18-.64Z"/><path class="cls-5" d="M17.5,21.67H19v1.39h0a1.84,1.84,0,0,1,.27-.57,3.35,3.35,0,0,1,.49-.51,2.45,2.45,0,0,1,.63-.36,1.8,1.8,0,0,1,.71-.14h.39l.21,0v1.53L21.37,23,21,23a1.79,1.79,0,0,0-.76.16,1.86,1.86,0,0,0-.62.47,2.62,2.62,0,0,0-.42.78,3.32,3.32,0,0,0-.15,1.05v3.43H17.5Z"/><path class="cls-5" d="M22.44,21.67H24v7.81a2.59,2.59,0,0,1-.47,1.65,2,2,0,0,1-1.59.59h-.39l-.32-.05V30.41l.29,0,.25,0q.43,0,.54-.27a2.21,2.21,0,0,0,.11-.79Zm0-2.74H24v1.5H22.44Z"/><path class="cls-5" d="M27,25.68a3.1,3.1,0,0,0,.11.81,2,2,0,0,0,.36.68,1.72,1.72,0,0,0,.6.46,2.2,2.2,0,0,0,2-.12,1.79,1.79,0,0,0,.63-.9h1.51a3.27,3.27,0,0,1-.43,1.05,3.19,3.19,0,0,1-.74.77,3.24,3.24,0,0,1-1,.47,3.79,3.79,0,0,1-1.12.16,3.68,3.68,0,0,1-1.5-.28A2.94,2.94,0,0,1,26.31,28a3.25,3.25,0,0,1-.68-1.19,5,5,0,0,1-.23-1.53,4.43,4.43,0,0,1,.24-1.46,3.92,3.92,0,0,1,.7-1.21,3.33,3.33,0,0,1,1.09-.83,3.39,3.39,0,0,1,1.45-.3,3.18,3.18,0,0,1,1.52.35,3.31,3.31,0,0,1,1.12.94,3.72,3.72,0,0,1,.65,1.34,4.13,4.13,0,0,1,.1,1.57Zm3.7-1a2.58,2.58,0,0,0-.16-.73,2,2,0,0,0-.36-.6,1.79,1.79,0,0,0-.56-.42,1.6,1.6,0,0,0-.73-.16,1.87,1.87,0,0,0-.76.15,1.59,1.59,0,0,0-.58.4,1.73,1.73,0,0,0-.39.6,2,2,0,0,0-.16.76Z"/><path class="cls-5" d="M32.76,21.67H34V19.51h1.58v2.16H37v1.18H35.54V26.7c0,.16,0,.31,0,.43a.81.81,0,0,0,.1.3.43.43,0,0,0,.23.19,1.17,1.17,0,0,0,.42.06h.33a2,2,0,0,0,.34-.05v1.22l-.52.06a4.24,4.24,0,0,1-.51,0,3.44,3.44,0,0,1-1-.12,1.35,1.35,0,0,1-.6-.35,1.23,1.23,0,0,1-.29-.58A4.41,4.41,0,0,1,34,27.1V22.85h-1.2Z"/><path class="cls-5" d="M44.14,27.27a.82.82,0,0,0,.08.41.31.31,0,0,0,.3.13h.17l.22,0v1.1l-.22.06-.27.07-.28,0h-.23a1.52,1.52,0,0,1-.81-.19,1,1,0,0,1-.42-.69,2.73,2.73,0,0,1-1.16.67,4.54,4.54,0,0,1-1.33.21,3.22,3.22,0,0,1-.93-.13,2.54,2.54,0,0,1-.79-.39,1.9,1.9,0,0,1-.54-.65,2.12,2.12,0,0,1-.2-.93A2.17,2.17,0,0,1,38,25.87a1.9,1.9,0,0,1,.64-.65,2.89,2.89,0,0,1,.89-.34c.33-.07.66-.12,1-.16a6.5,6.5,0,0,1,.82-.12,3.29,3.29,0,0,0,.69-.12,1,1,0,0,0,.47-.26.67.67,0,0,0,.18-.52.8.8,0,0,0-.15-.5,1,1,0,0,0-.36-.3,1.9,1.9,0,0,0-.48-.14l-.5,0a1.93,1.93,0,0,0-1.1.28,1.08,1.08,0,0,0-.49.86H38a2.33,2.33,0,0,1,.34-1.15,2.18,2.18,0,0,1,.74-.74,2.85,2.85,0,0,1,1-.39,5.66,5.66,0,0,1,1.17-.11,4.62,4.62,0,0,1,1.05.11,2.76,2.76,0,0,1,.92.36,1.87,1.87,0,0,1,.66.65,1.72,1.72,0,0,1,.25,1Zm-1.58-2a2,2,0,0,1-.89.29c-.36,0-.71.08-1.06.14a3.89,3.89,0,0,0-.49.12,1.32,1.32,0,0,0-.41.21.83.83,0,0,0-.29.35,1.18,1.18,0,0,0-.1.52.7.7,0,0,0,.15.45,1,1,0,0,0,.37.28,1.73,1.73,0,0,0,.47.15,4.26,4.26,0,0,0,.47,0,2.46,2.46,0,0,0,.57-.07,2,2,0,0,0,.57-.24,1.43,1.43,0,0,0,.46-.42,1.08,1.08,0,0,0,.18-.64Z"/><path class="cls-6" d="M105,25.06c-.37.57-.82,1.2-1.35,1.88s-1.08,1.32-1.65,1.93a11.62,11.62,0,0,1-1.72,1.51,2.77,2.77,0,0,1-1.57.61,1.45,1.45,0,0,1-.77-.29,4,4,0,0,1-.84-.76,5,5,0,0,1-.68-1,2.62,2.62,0,0,1-.28-1.13,5.86,5.86,0,0,1,.3-1.81,10.82,10.82,0,0,1,.75-1.81,13.75,13.75,0,0,1,1-1.67c.37-.51.72-1,1.07-1.37a10.22,10.22,0,0,1,.91-.93,1.13,1.13,0,0,1,.55-.35,1.46,1.46,0,0,1,.82.29,3.58,3.58,0,0,1,.78.73,5,5,0,0,1,.6.89,1.76,1.76,0,0,1,.24.76A3.11,3.11,0,0,1,102.7,24a9.1,9.1,0,0,1-1.07,1.55,8.83,8.83,0,0,1-1.3,1.24,2,2,0,0,1-1.12.51.71.71,0,0,1-.35-.1,1.21,1.21,0,0,1-.29-.27,10.93,10.93,0,0,0-.41,1.27A5.26,5.26,0,0,0,98,29.28a1.25,1.25,0,0,0,.09.54.27.27,0,0,0,.23.18,3,3,0,0,0,1.58-.54,9.81,9.81,0,0,0,1.68-1.37,20.52,20.52,0,0,0,1.59-1.76c.5-.63.94-1.2,1.31-1.73Zm-2.85-3.17a1.2,1.2,0,0,0-.72.38,6.61,6.61,0,0,0-.87,1c-.3.42-.6.89-.91,1.43a14.53,14.53,0,0,0-.81,1.63,3.75,3.75,0,0,0,1.38-.9,10.66,10.66,0,0,0,1.3-1.5,6,6,0,0,0,.8-1.42c.15-.42.09-.63-.17-.63"/><path class="cls-6" d="M109.73,18.83c0,.11,0,.17-.07.19a.19.19,0,0,1-.11,0,.11.11,0,0,1-.11-.08.12.12,0,0,0-.13-.09,2.26,2.26,0,0,0-.73.51,11.47,11.47,0,0,0-1.26,1.31,10.7,10.7,0,0,0-1.17,1.73,3.76,3.76,0,0,0-.52,1.8,4.55,4.55,0,0,0,.24,1.53A13.45,13.45,0,0,0,106.4,27c.19.39.37.78.53,1.17a3.35,3.35,0,0,1,.24,1.3,2.65,2.65,0,0,1-.36,1.35,4.47,4.47,0,0,1-2.06,1.86,2.78,2.78,0,0,1-1.13.29,2.36,2.36,0,0,1-.92-.18,2.59,2.59,0,0,1-.68-.45,2.09,2.09,0,0,1-.42-.58,1.35,1.35,0,0,1-.15-.58q0-.42.24-.42c.09,0,.14,0,.16.08s.18.08.48.08a3.67,3.67,0,0,0,1-.16,5.66,5.66,0,0,0,1.1-.46,3.14,3.14,0,0,0,.87-.75,1.54,1.54,0,0,0,.36-1,2.74,2.74,0,0,0-.24-.93c-.16-.39-.33-.84-.53-1.33a16.91,16.91,0,0,1-.53-1.65,7.38,7.38,0,0,1-.24-1.9A4.81,4.81,0,0,1,104.5,21a9,9,0,0,1,.92-1.8,7,7,0,0,1,1.19-1.4,1.82,1.82,0,0,1,1.19-.56,1.34,1.34,0,0,1,.61.18,3,3,0,0,1,.63.43,2.6,2.6,0,0,1,.49.51.8.8,0,0,1,.2.43"/><path class="cls-6" d="M154.92,14.31c-.13.6-.25,1.16-.38,1.7s-.26,1-.41,1.46a6.38,6.38,0,0,1-.46,1.09,1.22,1.22,0,0,1-.58.57c-.1,0-.18,0-.24-.16a2.48,2.48,0,0,1-.09-.85q0-.6,0-1.26c0-.44,0-.84.05-1.22a2.18,2.18,0,0,0,0-.72.76.76,0,0,0-.25-.32,4.56,4.56,0,0,0-2-1.9,2.85,2.85,0,0,0-2.27-.06,1.87,1.87,0,0,0-.82.85,9.37,9.37,0,0,0-.7,1.63q-.32.95-.57,2.07c-.16.75-.29,1.47-.38,2.16a13.28,13.28,0,0,0-.13,1.9,3.64,3.64,0,0,0,.17,1.27,3,3,0,0,0,.4.65,2.9,2.9,0,0,0,.57.54,1.92,1.92,0,0,0,.63.33.92.92,0,0,0,.57,0,1.92,1.92,0,0,0,.8-1,11.86,11.86,0,0,0,.72-1.86c.22-.72.42-1.47.59-2.25s.31-1.47.42-2.08a13.64,13.64,0,0,0,.17,1.36A5.24,5.24,0,0,0,151,19.3a1,1,0,0,0,.37.46,3.1,3.1,0,0,0,.57.3,2.33,2.33,0,0,0,.59.15.8.8,0,0,0,.42,0,2.41,2.41,0,0,0,1-.82,5.36,5.36,0,0,0,.7-1.35,14.09,14.09,0,0,0,.5-1.69c.15-.61.29-1.23.42-1.87Zm-4.49,1.12c-.09.36-.2.79-.33,1.28s-.27,1-.43,1.58-.3,1.07-.44,1.54-.27.86-.39,1.18-.22.49-.29.52-.24,0-.31-.2a2.64,2.64,0,0,1-.14-1.07,11.9,11.9,0,0,1,.12-1.5q.1-.82.3-1.68a15.81,15.81,0,0,1,.42-1.56,7.77,7.77,0,0,1,.29-.84c.14-.32.31-.61.47-.66a.69.69,0,0,1,.75.34c0,.08.09.21.15.33s0,0,0,.06-.07.32-.16.68"/><path class="cls-6" d="M130.48,27.9a7.72,7.72,0,0,1,.12-4.26,22.58,22.58,0,0,1,1.34-4,11.09,11.09,0,0,1,.65-1.23h0a1,1,0,0,0-.52-.41,6.7,6.7,0,0,0-.93-.34,5.81,5.81,0,0,0-1-.19,1.71,1.71,0,0,0-.63,0,3.19,3.19,0,0,0-.54.87c-.28.55-.6,1.25-1,2.09s-.79,1.79-1.24,2.83-.9,2.05-1.34,3.05-.84,1.93-1.19,2.79l-1,2.31a18,18,0,0,1,.32-2.63c.14-.89.32-1.83.55-2.8s.49-2,.78-2.94.57-1.89.84-2.73c.13-.4.26-.78.38-1.13a3.26,3.26,0,0,0-2.17-.38,11.25,11.25,0,0,0-2,.37c-.12.37-.24.76-.37,1.18-.29,1-.57,2.11-.82,3.28s-.47,2.31-.64,3.41a24.93,24.93,0,0,0-.3,2.89,4.63,4.63,0,0,0,.14,1.74,1.75,1.75,0,0,0,.64.78,4,4,0,0,0,1,.54,6.28,6.28,0,0,0,1.1.27,1.61,1.61,0,0,0,.84-.06.15.15,0,0,0,.1-.09,5.62,5.62,0,0,0,1-1.65c.43-.88.88-1.88,1.36-3s1-2.29,1.48-3.52.94-2.31,1.31-3.25c-.07.61-.12,1.22-.15,1.84s0,1.2-.05,1.73,0,1,0,1.42.2,2.12,1.31,2.11a1.13,1.13,0,0,0,.71-.26,6.44,6.44,0,0,1-.24-.61"/><path class="cls-6" d="M144.16,16.08a3.14,3.14,0,0,0-.82-1.24,2.24,2.24,0,0,0-.92-.49,1.93,1.93,0,0,0-.82,0,2.23,2.23,0,0,0-.51.13c-.29.11-.36.22-.22.32a.88.88,0,0,1,.31.41,2.74,2.74,0,0,1,0,1.37,21,21,0,0,1-.58,2.26c-.26.85-.59,1.74-1,2.67a28,28,0,0,1-1.22,2.63,19.39,19.39,0,0,1-1.28,2.12,3.12,3.12,0,0,1-1.2,1.12,5,5,0,0,1,0-1.82c.12-.84.29-1.79.53-2.84s.5-2.16.81-3.29.51-2,.73-2.86a1.57,1.57,0,0,0-.44-.25,2.45,2.45,0,0,0-1.37-.06c-.49.09-1,.24-1.47.34-.2.76-1.73,7-1.92,8a5.88,5.88,0,0,0,.11,2.65,1.29,1.29,0,0,0,.58.63,4.31,4.31,0,0,0,.93.41,5.68,5.68,0,0,0,1,.18,1.7,1.7,0,0,0,.72-.06h0l.13-.07.1-.06A5,5,0,0,0,138,26.68a18,18,0,0,0,1.48-2.55,29.71,29.71,0,0,0,1.23-3c.36-1,.67-1.94.91-2.78a20.44,20.44,0,0,1-.65,4.46,26,26,0,0,1-1.6,4.6,20.06,20.06,0,0,1-1.29,2.39h0c-.37.71-5.55,10.48-12,11.92-3.4.76-5.6-.09-7.19-1.38-1.43-1.16-2.51-3.19-2.9-6.73a29.93,29.93,0,0,1,.42-6.73c.36-2.28.58-4.2.92-6.35s.74-4.24,1.23-6.23c.93-.25,1.66-.42,2.22-.52l1.37-.21.93-.11a4.75,4.75,0,0,0,.9-.21c.43-.12.61-.34.55-.65a1.7,1.7,0,0,0-.53-.91,4,4,0,0,0-1.07-.75,1.4,1.4,0,0,0-1.07-.17c-.29.09-.66.22-1.1.39s-.94.36-1.49.59c.25-.9.52-1.73.8-2.5l.21-.55c-1.35.23-2.68.71-4,.95-.11.32-.22.67-.33,1-.24.81-.47,1.7-.69,2.66l-3.45,1.49a1.49,1.49,0,0,0-.13.39,1.66,1.66,0,0,0,.06.77.67.67,0,0,0,.31.33c.82-.27,1.74-.57,2.78-.88-.36,1.73-.65,3.56-.89,5.49s-.41,3.8-.49,5.61a40,40,0,0,0,0,5.05c0,.37.07.72.12,1.06a7.29,7.29,0,0,0,.19,1.08c.69,2.9,3.4,10.43,12.83,8s14.38-11,14.38-11c.21-.34.42-.69.62-1.06A25.56,25.56,0,0,0,143.23,26a28.51,28.51,0,0,0,1-3.85,18.31,18.31,0,0,0,.33-3.49,7.45,7.45,0,0,0-.41-2.62"/></g></g></svg>