<svg xmlns="http://www.w3.org/2000/svg" viewBox="0 0 160 50"><defs><style>.cls-1{fill:none;}.cls-2{fill:#1e120c;}.cls-3{fill:#e2241c;}.cls-4{fill:#1a1a1a;}</style></defs><title>home-estacion</title><g id="Capa_2" data-name="Capa 2"><g id="Capa_1-2" data-name="Capa 1"><rect class="cls-1" width="160" height="50"/><path class="cls-2" d="M100.62,14.11,98.86,16.3s-.1.12,0,.12H101a.34.34,0,0,0,.25-.09l2.94-2.22s.09-.09,0-.09h-3.29a.22.22,0,0,0-.2.09"/><path class="cls-2" d="M105.71,21.56a6.17,6.17,0,0,0-1-2.24,5.17,5.17,0,0,0-1.85-1.58,5.61,5.61,0,0,0-2.64-.59,6.18,6.18,0,0,0-2.47.48A5.61,5.61,0,0,0,95.79,19a5.54,5.54,0,0,0-1.24,2,6.67,6.67,0,0,0-.44,2.46,7.47,7.47,0,0,0,.41,2.51,5.89,5.89,0,0,0,1.22,2,5.22,5.22,0,0,0,1.92,1.28,6.68,6.68,0,0,0,2.51.45,6.17,6.17,0,0,0,3.43-.92,4.5,4.5,0,0,0,1.26-1.24,6.4,6.4,0,0,0,.86-1.82l.09-.24s0-.11-.1-.11h-3c-.17,0-.18.09-.18.09l0,.1a1.25,1.25,0,0,1-.23.42,2.83,2.83,0,0,1-.5.43,2.48,2.48,0,0,1-1.47.42,3.4,3.4,0,0,1-1.07-.16,2.11,2.11,0,0,1-.76-.44,2.15,2.15,0,0,1-.47-.79,3.55,3.55,0,0,1-.19-.94h8c.13,0,.14-.15.14-.15v-.11c0-.2,0-.39,0-.59a8.38,8.38,0,0,0-.24-2m-7.45-.76a2.07,2.07,0,0,1,.7-.54,2.36,2.36,0,0,1,1.12-.23,2.66,2.66,0,0,1,.9.14,1.39,1.39,0,0,1,.59.39,3,3,0,0,1,.65,1.35H97.79c0-.13.06-.27.1-.4a2.2,2.2,0,0,1,.37-.71"/><path class="cls-2" d="M117.31,29.23,113,23l3.89-5.52s0-.08-.08-.08h-3.94a.18.18,0,0,0-.17.08L111,20.14l-1.77-2.63a.23.23,0,0,0-.19-.09h-4c-.11,0,0,.09,0,.09l.28.38,3.6,5.21-4.2,6.14s-.08.12.06.12h3.94a.25.25,0,0,0,.22-.14L110.91,26,113,29.22a.28.28,0,0,0,.22.14h4c.15,0,.06-.13.06-.13"/><path class="cls-2" d="M122.29,17.42h-4.54c-.16,0-.13.11-.13.11l.65,11.68s0,.14.13.14h3.22c.13,0,.13-.15.13-.15l.66-11.65s0-.13-.12-.13"/><path class="cls-2" d="M130.93,20.11a.14.14,0,0,0,.13-.15V17.54a.12.12,0,0,0-.13-.12h-2.15V14.16s0-.14-.13-.14h-3.46c-.13,0-.13.14-.13.14v3.26h-1.74c-.16,0-.14.11-.14.11V20s0,.14.11.14h1.77v6.38a3.32,3.32,0,0,0,.32,1.52,2.37,2.37,0,0,0,.9.93,3.5,3.5,0,0,0,1.24.42,9.22,9.22,0,0,0,1.42.1l.95,0c.33,0,.63-.05.92-.08l.13,0s.12,0,.12-.15V26.39c0-.14-.13-.09-.13-.09l-.24.05-.42.06-.48,0a2.24,2.24,0,0,1-.58-.06.69.69,0,0,1-.26-.12.57.57,0,0,1-.12-.25,2.94,2.94,0,0,1-.05-.59v-5.3Z"/><path class="cls-2" d="M143.16,20.83a5.52,5.52,0,0,0-1.25-2A5.63,5.63,0,0,0,140,17.57a7.34,7.34,0,0,0-5.06,0A5.59,5.59,0,0,0,133,18.84a5.66,5.66,0,0,0-1.25,2,7.11,7.11,0,0,0-.44,2.57,7,7,0,0,0,.44,2.57A5.8,5.8,0,0,0,133,28a5.56,5.56,0,0,0,1.94,1.26,7.07,7.07,0,0,0,2.53.44,7.15,7.15,0,0,0,2.53-.44,5.41,5.41,0,0,0,3.2-3.24,7.26,7.26,0,0,0,.44-2.57,7.34,7.34,0,0,0-.44-2.57m-4.56,5.62a2.25,2.25,0,0,1-1.17.26,2.21,2.21,0,0,1-1.17-.26,2.15,2.15,0,0,1-.75-.72,3.84,3.84,0,0,1-.41-1.06A6.67,6.67,0,0,1,135,23.4a6.85,6.85,0,0,1,.12-1.28,3.54,3.54,0,0,1,.41-1.05,2.38,2.38,0,0,1,.75-.73,2.2,2.2,0,0,1,1.17-.27,2.25,2.25,0,0,1,1.17.27,2.19,2.19,0,0,1,.75.73,3.07,3.07,0,0,1,.41,1.05,6.1,6.1,0,0,1,.12,1.28,6,6,0,0,1-.12,1.27,3.3,3.3,0,0,1-.41,1.06,2.07,2.07,0,0,1-.75.72"/><path class="cls-3" d="M122.24,32.2A2.23,2.23,0,1,0,120,34.43a2.24,2.24,0,0,0,2.23-2.23"/><path class="cls-2" d="M146.5,18.59a1.53,1.53,0,0,1-.19.73,1.44,1.44,0,0,1-.54.53,1.36,1.36,0,0,1-.73.2,1.47,1.47,0,0,1-1.26-.73,1.43,1.43,0,0,1-.2-.73,1.46,1.46,0,0,1,.2-.73,1.29,1.29,0,0,1,.53-.53,1.42,1.42,0,0,1,.73-.19,1.45,1.45,0,0,1,.73.19,1.37,1.37,0,0,1,.54.53,1.56,1.56,0,0,1,.19.73m-.28,0A1.18,1.18,0,0,0,145,17.41a1.21,1.21,0,0,0-.84.34,1.2,1.2,0,0,0-.34.84A1.18,1.18,0,0,0,145,19.77a1.13,1.13,0,0,0,.83-.35,1.14,1.14,0,0,0,.35-.83m-1.84-.78h.7a.65.65,0,0,1,.43.12.44.44,0,0,1,0,.59.65.65,0,0,1-.32.17l.13.07a.74.74,0,0,1,.12.16s.09.16.26.45h-.47a3,3,0,0,0-.29-.53.2.2,0,0,0-.15-.09h0v.61h-.39Zm.39.67h.16a.37.37,0,0,0,.24-.06.18.18,0,0,0,.07-.15.15.15,0,0,0-.07-.13.32.32,0,0,0-.22-.06h-.18Z"/><path class="cls-4" d="M43.35,26.16l-5.27,0a2,2,0,0,0,.61,1.18,1.61,1.61,0,0,0,1.12.44,1.85,1.85,0,0,0,1.72-.91l1.64.35a3.29,3.29,0,0,1-1.33,1.59,3.79,3.79,0,0,1-2,.54,3.4,3.4,0,0,1-2.52-1,3.53,3.53,0,0,1-1-2.64,3.58,3.58,0,0,1,1-2.64,3.46,3.46,0,0,1,2.55-1,3.43,3.43,0,0,1,2.44,1,3.63,3.63,0,0,1,1.06,2.56Zm-4.57-2.25a1.58,1.58,0,0,0-.64.94h3.34a1.66,1.66,0,0,0-.61-1,1.7,1.7,0,0,0-1-.32A1.9,1.9,0,0,0,38.78,23.91Z"/><path class="cls-4" d="M45.45,26.93c.08.63.55.95,1.42.95a1.44,1.44,0,0,0,.8-.19.59.59,0,0,0,.29-.5c0-.31-.25-.52-.76-.63l-1.42-.29a2.8,2.8,0,0,1-1.45-.72,1.74,1.74,0,0,1-.5-1.26,2,2,0,0,1,.78-1.65A3,3,0,0,1,46.67,22a3.44,3.44,0,0,1,2,.57,2.32,2.32,0,0,1,1,1.49l-1.76.34a1,1,0,0,0-.4-.69,1.47,1.47,0,0,0-.91-.27,1,1,0,0,0-.72.2.62.62,0,0,0-.23.48c0,.29.21.49.63.58l1.65.37a2.44,2.44,0,0,1,1.35.72A1.8,1.8,0,0,1,49.75,27a2,2,0,0,1-.83,1.72,3.7,3.7,0,0,1-2.22.59,4.12,4.12,0,0,1-2.11-.51,2,2,0,0,1-1-1.54Z"/><path class="cls-4" d="M55.64,28.87a3.73,3.73,0,0,1-1.8.5,2.78,2.78,0,0,1-2-.69,2.75,2.75,0,0,1-.72-2.08V23.73H49.65v-1.5h1.49v-2.1H53v2.09h2.26v1.5H53v2.74c0,.8.33,1.19,1,1.2a2.5,2.5,0,0,0,1.15-.33Z"/><path class="cls-4" d="M63,29.19H61.21v-.54a3.52,3.52,0,0,1-2.29.74,3.22,3.22,0,0,1-2.39-1.05,3.64,3.64,0,0,1-1-2.63,3.6,3.6,0,0,1,1-2.63,3.24,3.24,0,0,1,2.38-1,3.45,3.45,0,0,1,2.29.78v-.56h1.83Zm-2.42-2a2,2,0,0,0,.6-1.49,2,2,0,0,0-.59-1.5,1.92,1.92,0,0,0-1.37-.59,1.86,1.86,0,0,0-1.4.57,2.06,2.06,0,0,0-.55,1.51,2,2,0,0,0,.54,1.51,1.87,1.87,0,0,0,1.39.56A1.9,1.9,0,0,0,60.62,27.22Z"/><path class="cls-4" d="M69.37,26.4l1.69.43a3.27,3.27,0,0,1-1.26,1.89A3.86,3.86,0,0,1,65,28.38a3.79,3.79,0,0,1,0-5.28,3.66,3.66,0,0,1,2.63-1,3.58,3.58,0,0,1,2.18.71,3.51,3.51,0,0,1,1.29,1.86l-1.77.49a1.61,1.61,0,0,0-1.7-1.38,1.87,1.87,0,0,0-1.4.55,2,2,0,0,0-.54,1.45,2,2,0,0,0,.53,1.43,1.86,1.86,0,0,0,1.4.56A1.75,1.75,0,0,0,69.37,26.4Z"/><path class="cls-4" d="M73.72,19.46a1.09,1.09,0,0,1,.32.77,1,1,0,0,1-.32.76,1.1,1.1,0,0,1-.8.31,1.09,1.09,0,0,1-.79-.31,1,1,0,0,1-.31-.77,1.05,1.05,0,0,1,.32-.77,1.09,1.09,0,0,1,.79-.32A1,1,0,0,1,73.72,19.46ZM72,29.22l0-6.93h1.84l0,6.93Z"/><path class="cls-4" d="M81.19,23.18a3.68,3.68,0,0,1,0,5.23,3.69,3.69,0,0,1-2.65,1,3.78,3.78,0,0,1-2.68-1,3.69,3.69,0,0,1,0-5.24,3.75,3.75,0,0,1,2.68-1A3.71,3.71,0,0,1,81.19,23.18Zm-1.3,4.1a2,2,0,0,0,.6-1.49,2,2,0,0,0-.59-1.49,1.89,1.89,0,0,0-1.36-.58,2,2,0,0,0-1.4.56,2,2,0,0,0-.61,1.5,2,2,0,0,0,2,2.07A1.85,1.85,0,0,0,79.89,27.28Zm-2.07-5.91.93-2H80.9l-1.52,2Z"/><path class="cls-4" d="M89.13,23a3,3,0,0,1,.76,2.11v4.22H88.05V25.44a1.78,1.78,0,0,0-.38-1.18,1.26,1.26,0,0,0-1-.45c-1.15,0-1.72.79-1.73,2.38v3.07H83.09l0-6.93h1.83V23a3,3,0,0,1,2.18-.83A2.65,2.65,0,0,1,89.13,23Z"/><path class="cls-3" d="M26.35,14a4.45,4.45,0,0,1,1.14-2.18,24,24,0,0,0-5.92,3.07c-3.64,2.51-7,5.59-7.9,9.87a9,9,0,0,0,.67,5.53c2.49,5.14,10.36,6.77,14.58,2.38A8.94,8.94,0,0,0,31.29,28C32.21,21.49,25,19.88,26.35,14Zm2.36,13.62A6.52,6.52,0,0,1,27,30.94a5.87,5.87,0,0,1-4.28,1.74,6.8,6.8,0,0,1-1.1-.09,6.53,6.53,0,0,1-4.94-3.37,6.53,6.53,0,0,1-.47-3.94c.79-3.72,4.08-6.39,6.86-8.3l.57-.39a12.41,12.41,0,0,0,2.91,5.68C28,24.1,29,25.41,28.71,27.63Z"/></g></g></svg>