<?xml version="1.0" encoding="UTF-8"?>
<svg width="41px" height="41px" viewBox="0 0 41 41" version="1.1" xmlns="http://www.w3.org/2000/svg" xmlns:xlink="http://www.w3.org/1999/xlink">
    <title>ico-clickam</title>
    <g id="Welcome" stroke="none" stroke-width="1" fill="none" fill-rule="evenodd">
        <g id="HOME---Desktop-HD" transform="translate(-280.000000, -949.000000)">
            <g id="ico-clickam" transform="translate(280.000000, 949.000000)">
                <rect id="Rectangle-Copy-18" fill="#F1F1F1" x="0" y="0" width="41" height="41" rx="10"></rect>
                <g id="Group" transform="translate(4.000000, 7.000000)" fill-rule="nonzero">
                    <path d="M25,24.5332065 L25,17.2545317 C24.4283968,16.3017602 23.8567936,15.3506191 23.2851904,14.4011086 C23.1290745,14.1464804 22.8485984,13.9916324 22.5468467,13.9934767 L19.1130935,13.9934767 C18.7304226,14.0066118 18.3886696,13.7589528 18.2871222,13.3949179 C18.1855748,13.030883 18.3508035,12.6457248 18.6864581,12.4640419 L25,8.95840777 L25,2.46809301 C24.9788131,1.5768503 24.4829933,0.762538049 23.6951871,0.325126883 C22.9073809,-0.112284282 21.9441344,-0.108084825 21.1602817,0.336178289 L1.27543592,11.3675122 C0.275477453,11.9174371 -0.214296749,13.0696306 0.0891544521,14.1582386 C0.392605653,15.2468467 1.41080839,15.9903502 2.555342,15.9590776 L12.854948,15.9590776 C13.7624194,15.9548487 14.6049132,16.4227324 15.0716329,17.1901259 C16.7886473,20.0473536 18.5053861,22.9053966 20.2218493,25.7642548 C20.8082921,26.7325979 21.9729372,27.2025606 23.0796175,26.9174342 C24.1862978,26.6323078 24.9689239,25.6606479 25,24.5332065 Z" id="Path" fill="#3D2F59"></path>
                    <path d="M25.4131317,11.791377 C25.0901894,11.9726094 24.9309219,12.358299 25.028456,12.7229258 C25.1259901,13.0875525 25.4547146,13.3353702 25.8224181,13.3214753 L29.1165387,13.3214753 C29.406261,13.3195066 29.6756244,13.4743343 29.8256511,13.7290667 C30.3745391,14.6822872 30.923427,15.6349643 31.4723149,16.5870979 C31.6591981,16.9100368 32.031204,17.0672483 32.3850743,16.9728345 C32.7389446,16.8784207 32.9895648,16.5550906 33,16.1795064 L33,8.82492648 C32.9943703,8.52714315 32.835955,8.25461477 32.5834862,8.10838092 C32.3310175,7.96214706 32.0221316,7.96400725 31.7713477,8.11327182 L25.4131317,11.791377 Z" id="Path" fill="#F21905"></path>
                </g>
            </g>
        </g>
    </g>
</svg>