<?xml version="1.0" encoding="UTF-8"?>
<svg width="41px" height="41px" viewBox="0 0 41 41" version="1.1" xmlns="http://www.w3.org/2000/svg" xmlns:xlink="http://www.w3.org/1999/xlink">
    <!-- Generator: Sketch 64 (93537) - https://sketch.com -->
    <title>ico-garantia-extendida</title>
    <desc>Created with Sketch.</desc>
    <g id="Welcome" stroke="none" stroke-width="1" fill="none" fill-rule="evenodd">
        <g id="HOME---Desktop-HD" transform="translate(-581.000000, -849.000000)">
            <g id="ico-garantia-extendida" transform="translate(581.000000, 849.000000)">
                <rect id="Rectangle-Copy-42" fill="#FFEB00" x="0" y="0" width="41" height="41" rx="10"></rect>
                <g id="medal" transform="translate(11.000000, 6.000000)" fill="#000000" fill-rule="nonzero">
                    <path d="M9.5,0 C4.26416667,0 0.00461111111,4.34275 0.00461111111,9.6808457 C0.00461111111,15.0186582 4.26416667,19.3616914 9.5,19.3616914 C14.7355556,19.3616914 18.9953889,15.0186582 18.9953889,9.6808457 C18.9953889,4.34275 14.7355556,0 9.5,0 Z M9.5,17.4572637 C5.29433333,17.4572637 1.87255556,13.9686543 1.87255556,9.6808457 C1.87255556,5.39303711 5.29433333,1.90442773 9.5,1.90442773 C13.706,1.90442773 17.1274444,5.39303711 17.1274444,9.6808457 C17.1274444,13.9686543 13.706,17.4572637 9.5,17.4572637 Z" id="Shape"></path>
                    <path d="M16.1299444,27.6694551 L15.6629444,16.3698203 L13.7968889,16.4497969 L14.2041111,26.2988652 L10.3458889,22.9096035 C9.86366667,22.4503047 9.13611111,22.4496816 8.65355556,22.9096035 L4.79561111,26.2985254 L5.20283333,16.4497969 L3.33644444,16.3698203 L2.86944444,27.6694551 C2.86911111,27.6827656 2.86883333,27.6961328 2.86883333,27.7094434 C2.86883333,28.2137715 3.15616667,28.674373 3.60105556,28.882584 C4.04811111,29.0927207 4.56177778,29.017502 4.94161111,28.6845117 L9.5,24.680416 L14.0596667,28.686041 C14.2962778,28.892666 14.5855,28.9996602 14.8781111,28.9996602 C15.0543333,28.9996602 15.2314444,28.9612578 15.3989444,28.8825273 C15.8435,28.6743164 16.1308889,28.2137715 16.1308889,27.7093867 C16.1308889,27.6960762 16.1306111,27.6827656 16.1299444,27.6694551 Z" id="Path"></path>
                    <path d="M13.6474444,6.78549023 C13.2825556,6.41347461 12.6916667,6.41347461 12.3268333,6.78549023 L8.25905556,10.9327168 L6.3665,8.97974805 C6.00383333,8.60552344 5.41261111,8.60172852 5.04555556,8.97147852 C4.6785,9.34122852 4.67477778,9.94399805 5.03744444,10.3182227 L7.59027778,12.9526914 C7.76522222,13.1333184 8.00311111,13.2351582 8.25183333,13.2358379 C8.25277778,13.2358379 8.25372222,13.2358379 8.25461111,13.2358379 C8.50211111,13.2358379 8.73994444,13.1355273 8.91522222,12.956543 L13.6473333,8.13200781 C14.0123333,7.76021875 14.0123333,7.15716602 13.6474444,6.78549023 Z" id="Path"></path>
                </g>
            </g>
        </g>
    </g>
</svg>