<?xml version="1.0" encoding="UTF-8"?>
<svg width="41px" height="41px" viewBox="0 0 41 41" version="1.1" xmlns="http://www.w3.org/2000/svg" xmlns:xlink="http://www.w3.org/1999/xlink">
    <!-- Generator: Sketch 64 (93537) - https://sketch.com -->
    <title>ico-medios-de-pago</title>
    <desc>Created with Sketch.</desc>
    <g id="Welcome" stroke="none" stroke-width="1" fill="none" fill-rule="evenodd">
        <g id="HOME---Desktop-HD" transform="translate(-581.000000, -899.000000)">
            <g id="ico-medios-de-pago" transform="translate(581.000000, 899.000000)">
                <rect id="Rectangle-Copy-41" fill="#FFEB00" x="0" y="0" width="41" height="41" rx="10"></rect>
                <g id="Shape-4" transform="translate(6.000000, 7.000000)" fill="#000000" fill-rule="nonzero">
                    <path d="M29.8131702,23.4102766 C29.7931915,23.385 27.837766,20.8697234 27.2021489,18.8590851 C27.0511915,18.3803617 26.8630213,17.7061277 26.6469574,16.934234 C25.6130426,13.2374043 24.6728936,10.0931489 23.6303617,9.05061702 C22.500766,7.92102128 18.135,7.16731915 16.3404894,6.89891489 L16.3404894,2.72342553 C16.3404255,1.22144681 15.1190426,9.05941988e-14 13.617,9.05941988e-14 L2.72342553,9.05941988e-14 C1.22138298,9.05941988e-14 6.57252031e-14,1.22144681 6.57252031e-14,2.72342553 L6.57252031e-14,21.7872766 C6.57252031e-14,23.2892553 1.22138298,24.5106383 2.72342553,24.5106383 L13.6170638,24.5106383 C13.9111915,24.5106383 14.1951702,24.4453404 14.4730851,24.3496596 C15.0659362,24.8996809 15.7374894,25.3182128 16.4415319,25.7446596 C17.8291915,26.5864468 19.2646596,27.456766 20.5173191,29.6183617 C20.6389787,29.8284894 20.8637234,29.9574894 21.1064043,29.9574894 C27.5851277,29.9574894 29.8896383,24.132383 29.912234,24.0731489 C29.9980213,23.8504468 29.9601064,23.5984468 29.8131702,23.4102766 Z M2.72342553,23.1489574 C1.97278723,23.1489574 1.36174468,22.5379149 1.36174468,21.7872766 L1.36174468,2.72342553 C1.36174468,1.97278723 1.97278723,1.36174468 2.72342553,1.36174468 L2.72342553,23.1489574 Z M16.3404255,12.5800851 L18.498,13.4435106 C18.6037021,13.8132128 18.7825532,14.411617 18.9621064,14.8783404 C18.8796383,15.0246383 18.8085319,15.1868298 18.7327021,15.3597447 C18.609,15.6416809 18.4740638,15.9495319 18.2852553,16.1888936 C17.6038085,15.7032128 16.9120213,14.6735106 16.3404255,13.5795319 L16.3404255,12.5800851 L16.3404255,12.5800851 Z M5.44678723,23.1489574 L4.08510638,23.1489574 L4.08510638,1.36174468 L5.44678723,1.36174468 L5.44678723,23.1489574 Z M6.80853191,23.1489574 L6.80853191,1.36174468 L13.6170638,1.36174468 C14.3677021,1.36174468 14.9787447,1.97278723 14.9787447,2.72342553 L14.9787447,10.8871277 C14.1289787,9.64021277 12.6963191,8.16580851 11.3976383,7.90161702 C10.7460638,7.76597872 10.1702553,7.93021277 9.73142553,8.36968085 C8.09176596,10.0093404 9.0306383,12.7958936 10.3331489,14.6841702 C11.3756809,16.1954681 12.1489787,17.9813617 12.2587021,19.1283191 C12.2766383,19.3191702 12.284617,19.5 12.2932979,19.6782128 C12.3356809,20.5874043 12.3930638,21.5339362 13.4749787,23.1489574 L6.80853191,23.1489574 L6.80853191,23.1489574 Z M21.4867021,28.587766 C20.1017234,26.3716596 18.4707447,25.383 17.147617,24.5804681 C16.2194043,24.0179362 15.4182128,23.5319362 14.8484043,22.7486809 C13.7273617,21.2068085 13.6948085,20.5046809 13.6535745,19.6150213 C13.6442553,19.4149149 13.6342979,19.2120638 13.6136809,18.9993191 C13.4827021,17.6203404 12.6349787,15.6229787 11.4541277,13.9115745 C10.4042553,12.389617 9.71942553,10.3078723 10.6941702,9.33242553 C10.7733191,9.2526383 10.8790213,9.18746809 11.1256596,9.23534043 C12.1928298,9.45274468 13.9142553,11.4368298 14.3470851,12.5099362 C14.868383,13.8005106 16.2792766,16.8849574 18.1216596,17.6502128 C18.3310851,17.7352979 18.5711489,17.7134043 18.7605957,17.5877234 C19.4414681,17.1342766 19.7519362,16.4248085 19.9793617,15.9068936 C20.0451702,15.7579787 20.1342766,15.5531489 20.1322979,15.5385319 C20.4109149,15.3457021 20.5053191,14.9773404 20.3537234,14.6741489 C20.1462766,14.2598936 19.8271277,13.1515532 19.7214255,12.7592553 C19.6655745,12.5524468 19.5159574,12.383617 19.3164894,12.3038298 L16.3404255,11.1134681 L16.3404255,8.27859574 C18.8148511,8.66157447 22.026,9.37231915 22.6675532,10.0132979 C23.5425319,10.8882766 24.6649149,14.9022766 25.335766,17.3005532 C25.5564894,18.0904468 25.7493191,18.7799362 25.904234,19.268617 C26.4747447,21.0771064 27.9068936,23.1276383 28.4899787,23.9175319 C27.9534894,25.0053191 25.9261915,28.4029149 21.4867021,28.587766 Z" id="Shape"></path>
                </g>
            </g>
        </g>
    </g>
</svg>