<?xml version="1.0" encoding="UTF-8"?>
<svg width="41px" height="41px" viewBox="0 0 41 41" version="1.1" xmlns="http://www.w3.org/2000/svg" xmlns:xlink="http://www.w3.org/1999/xlink">
    <!-- Generator: Sketch 64 (93537) - https://sketch.com -->
    <title>ico-clickam</title>
    <desc>Created with Sketch.</desc>
    <g id="Welcome" stroke="none" stroke-width="1" fill="none" fill-rule="evenodd">
        <g id="HOME---Desktop-HD" transform="translate(-280.000000, -949.000000)">
            <g id="ico-clickam" transform="translate(280.000000, 949.000000)">
                <rect id="Rectangle-Copy-18" fill="#F1F1F1" x="0" y="0" width="41" height="41" rx="10"></rect>
                <g id="Grupo_407-Copy" transform="translate(5.000000, 8.000000)" fill-rule="nonzero">
                    <path d="M15.106,18.293 C14.7451961,17.8907417 14.2019185,17.7038481 13.67,17.799 C13.28952,17.8704198 12.9031218,17.9055773 12.516,17.904 C11.0233133,17.966159 9.57600043,17.3832995 8.543,16.304 C6.53248533,13.9063635 6.53248533,10.4116365 8.543,8.014 C9.56952682,6.92297926 11.0192367,6.33149178 12.516,6.393 C12.8707052,6.3927828 13.2246288,6.42626658 13.573,6.493 C14.09084,6.58668 14.6210096,6.41296483 14.983,6.031 L17.554,3.367 C17.9274641,2.97519272 18.0775105,2.42112757 17.9527929,1.89440765 C17.8280754,1.36768773 17.4455054,0.939736336 16.936,0.757 C15.5184598,0.246422508 14.0216416,-0.00885929727 12.515,0.003 C9.21730811,-0.075445106 6.02299352,1.15653978 3.632,3.429 C1.30797724,5.7415513 0.00138618116,8.884937 0.00138618116,12.1635 C0.00138618116,15.442063 1.30797724,18.5854487 3.632,20.898 C6.02928165,23.157604 9.22165401,24.3794959 12.515,24.298 C14.0136298,24.3091479 15.5026842,24.0583776 16.915,23.557 C17.4199565,23.3787053 17.8022361,22.9596146 17.9334872,22.4404391 C18.0647383,21.9212636 17.9275561,21.3708494 17.568,20.974 C16.7466667,20.0826667 15.926,19.189 15.106,18.293 Z" id="Trazado_498" fill="#2B2A27"></path>
                    <path d="M15.552,8.423 L15.7,8.423 M22.822,1.043 C23.0772566,0.76799055 23.4357863,0.612108048 23.811,0.612996193 L28.966,0.612996193 C29.5002192,0.613371117 29.9836573,0.929642598 30.197987,1.41898198 C30.4123168,1.90832137 30.3169675,2.47810072 29.955,2.871 L22.827,10.616 C22.3516326,11.1314673 22.3516326,11.9255327 22.827,12.441 L30.996,21.282 C31.3586451,21.6748376 31.454413,22.2450636 31.2399968,22.7348171 C31.0255806,23.2245706 30.5416333,23.541 30.007,23.541 L24.322,23.541 C23.9407882,23.5405095 23.577553,23.3788699 23.322,23.096 L13.33,12.201 C12.9811856,11.8213533 12.9886384,11.2356482 13.347,10.865 L22.822,1.043 Z" id="Trazado_499" fill="#FF6F11"></path>
                </g>
            </g>
        </g>
    </g>
</svg>