<?xml version="1.0" encoding="UTF-8"?>
<svg width="41px" height="41px" viewBox="0 0 41 41" version="1.1" xmlns="http://www.w3.org/2000/svg" xmlns:xlink="http://www.w3.org/1999/xlink">
    <!-- Generator: Sketch 64 (93537) - https://sketch.com -->
    <title>ico-compra-y-recoje</title>
    <desc>Created with Sketch.</desc>
    <g id="Welcome" stroke="none" stroke-width="1" fill="none" fill-rule="evenodd">
        <g id="HOME---Desktop-HD" transform="translate(-581.000000, -698.000000)">
            <g id="ico-compra-y-recoje" transform="translate(581.000000, 698.000000)">
                <rect id="Rectangle-Copy-51" fill="#FFEB00" x="0" y="0" width="41" height="41" rx="10"></rect>
                <g id="Group-7" transform="translate(6.000000, 5.000000)" fill="#000000" fill-rule="nonzero">
                    <path d="M25.9163889,7.80502525 C25.3560919,6.97933666 24.4200918,6.4854382 23.4195597,6.48752525 L13.5171206,6.48752525 C13.5171206,6.39593434 13.5171206,6.30434343 13.5171206,6.21275252 C13.2305274,2.59135074 10.1151858,-0.15290701 6.47177744,0.00661526205 C2.82836907,0.166137534 -0.0332218047,3.17208811 0.000291367626,6.80457071 C0.0100222293,7.6588515 0.167957917,8.50502529 0.467120636,9.30570707 C1.39449773,11.7854438 2.60739291,14.1497147 4.08151088,16.3511616 C4.69687673,17.302298 5.34760844,18.232298 5.99834015,19.1693434 L5.99834015,19.1693434 L5.85687673,18.9720707 L5.85687673,30.399798 L26.8783401,30.399798 L26.8783401,16.5132071 C27.8172871,15.943339 28.3866765,14.9240592 28.3779534,13.8288889 L28.3779534,11.4827525 L25.9163889,7.80502525 Z M13.4393158,7.97411422 L23.4195597,7.97411422 C23.921588,7.97331335 24.3910352,8.22164737 24.6715109,8.63638889 L26.2276084,10.9613889 L12.413706,10.9613889 C12.5339499,10.6866162 12.6541938,10.4118434 12.7673645,10.1300253 C13.0628478,9.4354644 13.2879487,8.71324364 13.4393158,7.97411422 Z M22.3868767,12.4550253 L22.3868767,13.9557071 C22.3868767,14.7806197 21.7155223,15.4493434 20.8873645,15.4493434 C20.0592068,15.4493434 19.3878523,14.7806197 19.3878523,13.9557071 L19.3878523,12.4550253 L22.3868767,12.4550253 Z M17.881267,12.4550253 L17.881267,13.9557071 C17.881267,14.489332 17.5954616,14.9824217 17.1315109,15.2492342 C16.6675602,15.5160466 16.0959494,15.5160466 15.6319987,15.2492342 C15.168048,14.9824217 14.8822426,14.489332 14.8822426,13.9557071 L14.8822426,12.4550253 L17.881267,12.4550253 Z M13.3827304,12.4550253 L13.3827304,13.9557071 C13.3609419,14.6348103 12.8817506,15.2136958 12.2166229,15.3644194 C11.5514952,15.515143 10.8680486,15.1997212 10.5534621,14.5968434 C10.9707792,13.892298 11.3739499,13.1877525 11.7417548,12.4832071 L13.3685841,12.4832071 L13.3827304,12.4550253 Z M12.0246816,11.7716162 C12.0246816,11.722298 12.0741938,11.6659343 12.1024865,11.6095707 C12.0883401,11.6659343 12.0671206,11.722298 12.0246816,11.7716162 Z M2.07273039,9.34093434 C1.49290668,8.10849364 1.36283322,6.71319154 1.70492551,5.3954798 C2.48458311,2.87952315 4.99885728,1.31388449 7.61102307,1.71775252 C10.2919658,2.14492486 12.204931,4.53592223 12.0246816,7.23434343 C11.854788,8.46873427 11.4617741,9.66225204 10.8646816,10.7570707 C9.72888349,13.0743521 8.40659629,15.2962319 6.91077917,17.4009343 L6.77638893,17.5911616 C6.50760844,17.2177525 6.28126698,16.8866162 6.06907186,16.5977525 C4.47735802,14.3299207 3.13740118,11.8967394 2.07273039,9.34093434 L2.07273039,9.34093434 Z M13.3685841,28.9061616 L10.3624865,28.9061616 L10.3624865,21.4309343 L13.3685841,21.4309343 L13.3685841,28.9061616 Z M14.8680962,28.9061616 L14.8680962,19.937298 L8.86297429,19.937298 L8.86297429,28.9061616 L7.3634621,28.9061616 L7.3634621,19.3243434 C7.40929017,19.2730574 7.45181416,19.2189341 7.49077917,19.162298 C7.83029137,18.6620707 8.19809625,18.1688889 8.53053527,17.6686616 C8.86297429,17.1684343 9.29443771,16.5343434 9.66224259,15.9636616 L9.66224259,15.9636616 C10.2330655,16.5956596 11.0497109,16.951856 11.9031109,16.9410616 C12.7565109,16.9302673 13.5638126,16.5535301 14.1183401,15.907298 C14.678754,16.5653642 15.5012779,16.944742 16.3676084,16.944742 C17.233939,16.944742 18.0564629,16.5653642 18.6168767,15.907298 C19.1799401,16.5634396 20.0031044,16.9412354 20.8696816,16.9412354 C21.7362589,16.9412354 22.5594231,16.5634396 23.1224865,15.907298 L23.3063889,16.1257071 C23.8643663,16.6515386 24.6036297,16.9440678 25.3717548,16.9429798 L25.3717548,16.9429798 L25.3717548,28.9202525 L14.8680962,28.9061616 Z M26.8924865,13.8288889 C26.9159779,14.6533677 26.3008177,15.3580298 25.4778523,15.4493434 C25.0672748,15.4665131 24.6671984,15.3174398 24.3687359,15.0360733 C24.0702735,14.7547068 23.8988345,14.365001 23.8934621,13.9557071 L23.8934621,12.4550253 L26.8783401,12.4550253 L26.8924865,13.8288889 Z" id="Shape"></path>
                    <path d="M6.36614503,10.1370707 C6.49725155,10.1964487 6.63944322,10.2276563 6.7834621,10.2286616 L6.7834621,10.2286616 C7.05415583,10.2230213 7.31033642,10.10564 7.49077917,9.90457071 L7.61809625,9.77775252 L9.19541332,8.12207071 C9.36556816,7.97243785 9.51325602,7.7992287 9.6339499,7.60775252 C9.90289055,7.16367852 9.9818714,6.63074351 9.8532182,6.12820707 C9.66913201,5.34636856 8.99527245,4.7751183 8.19102307,4.71911616 C7.69608764,4.68302193 7.20936617,4.86001761 6.85419381,5.20525252 L6.77638893,5.27570707 C6.49487888,4.98773458 6.12787863,4.79754346 5.72955966,4.73320707 C5.38513418,4.68267532 5.03339435,4.73412702 4.71809625,4.88116162 C4.35041944,5.04484679 4.0471384,5.3246539 3.85516942,5.67729798 C3.65151242,6.06450907 3.5842609,6.50861473 3.66419381,6.93843434 C3.73257094,7.31977858 3.91215106,7.67263074 4.18053527,7.9529798 L5.24151088,9.06616162 L6.00541332,9.88343434 C6.10714372,9.99147358 6.22987638,10.0777689 6.36614503,10.1370707 L6.36614503,10.1370707 Z" id="Path"></path>
                    <path d="M16.3676084,25.9188889 L23.8722426,25.9188889 L23.8722426,19.937298 L16.3676084,19.937298 L16.3676084,25.9188889 Z M17.8671206,21.4309343 L22.3727304,21.4309343 L22.3727304,24.4182071 L17.8671206,24.4182071 L17.8671206,21.4309343 Z" id="Shape"></path>
                </g>
            </g>
        </g>
    </g>
</svg>