<?xml version="1.0" encoding="UTF-8"?>
<svg width="41px" height="41px" viewBox="0 0 41 41" version="1.1" xmlns="http://www.w3.org/2000/svg" xmlns:xlink="http://www.w3.org/1999/xlink">
    <!-- Generator: Sketch 64 (93537) - https://sketch.com -->
    <title>ico-ventas-empresariales</title>
    <desc>Created with Sketch.</desc>
    <g id="Welcome" stroke="none" stroke-width="1" fill="none" fill-rule="evenodd">
        <g id="HOME---Desktop-HD" transform="translate(-581.000000, -799.000000)">
            <g id="ico-ventas-empresariales" transform="translate(581.000000, 799.000000)">
                <rect id="Rectangle-Copy-44" fill="#FFEB00" x="0" y="0" width="41" height="41" rx="10"></rect>
                <g id="bag" transform="translate(6.000000, 6.000000)" fill="#000000" fill-rule="nonzero">
                    <path d="M27.0135089,4.86207092 L20.5492281,4.86207092 L20.5492281,2.27630688 C20.5492281,1.04509761 19.5401964,0.0434989448 18.2999232,0.0434989448 L11.7000173,0.0434989448 C10.4597441,0.0434989448 9.45071236,1.04509761 9.45071236,2.27630688 L9.45071236,4.86207092 L2.98649107,4.86207092 C1.33969981,4.86207092 0,6.19203934 0,7.82673678 L0,22.9900789 C0,24.6247763 1.33969981,25.9546856 2.98649107,25.9546856 L27.0135089,25.9546856 C28.6602406,25.9546856 30,24.6247763 30,22.9900789 L30,7.82673678 C30,6.19203934 28.6602406,4.86207092 27.0135089,4.86207092 Z M11.3558939,2.27630688 C11.3558939,2.08794935 11.5102731,1.93475742 11.7000173,1.93475742 L18.2999232,1.93475742 C18.4896674,1.93475742 18.6440466,2.08800845 18.6440466,2.27630688 L18.6440466,4.86207092 L11.3558939,4.86207092 L11.3558939,2.27630688 Z M1.9051815,7.82673678 C1.9051815,7.23483198 2.3902288,6.75332939 2.98649107,6.75332939 L27.0135089,6.75332939 C27.6097117,6.75332939 28.0948185,7.23483198 28.0948185,7.82673678 L28.0948185,9.22632715 C28.0948185,10.5390969 27.2080756,11.7122091 25.9383912,12.0791723 L15.975185,14.9587907 C15.3372469,15.1432475 14.6628126,15.1432475 14.0247555,14.9587907 L4.06160881,12.0791132 C2.79192441,11.71215 1.9051815,10.5390969 1.9051815,9.22632715 L1.9051815,7.82673678 Z M27.0135089,24.0634863 L2.98649107,24.0634863 C2.39028834,24.0634863 1.9051815,23.5819837 1.9051815,22.990138 L1.9051815,13.0767521 C2.3852277,13.4450747 2.93243155,13.7225578 3.5289915,13.8950169 C14.5349273,17.0759954 13.969267,16.9884656 14.9999702,16.9884656 C16.0443074,16.9884656 15.4521532,17.0797189 26.470949,13.8950169 C27.0675685,13.7225578 27.6147723,13.4450747 28.094759,13.0767521 L28.094759,22.9900789 C28.094759,23.5819246 27.6097117,24.0634863 27.0135089,24.0634863 L27.0135089,24.0634863 Z" id="Shape"></path>
                </g>
            </g>
        </g>
    </g>
</svg>