<?xml version="1.0" encoding="UTF-8"?>
<svg width="48px" height="48px" viewBox="0 0 48 48" version="1.1" xmlns="http://www.w3.org/2000/svg" xmlns:xlink="http://www.w3.org/1999/xlink">
    <!-- Generator: Sketch 64 (93537) - https://sketch.com -->
    <title>ico-promociones</title>
    <desc>Created with Sketch.</desc>
    <g id="Welcome" stroke="none" stroke-width="1" fill="none" fill-rule="evenodd">
        <g id="HOME---Desktop-HD" transform="translate(-705.000000, -1079.000000)">
            <g id="ico-promociones" transform="translate(705.000000, 1079.000000)">
                <rect id="Rectangle-Copy-23" fill="#000000" x="0" y="0" width="48" height="48" rx="10"></rect>
                <g id="Shape-5" transform="translate(9.000000, 8.000000)" fill="#FFEB00" fill-rule="nonzero">
                    <path d="M28.2063517,14.1559193 C29.762408,12.6330342 28.9012048,9.9846419 26.7453366,9.67179326 L19.8581466,8.93845158 C19.835151,8.9341458 19.776076,8.89120135 19.7454907,8.82893756 L16.8295208,1.54203445 C16.3537492,0.572668242 15.4999658,0.044814066 14.5569752,6.1817218e-15 C13.4977605,0.0447574111 12.6431841,0.573121482 12.2075133,1.45739195 L9.21666596,8.91233365 C9.22340605,8.89046484 9.16331157,8.93408915 9.09285207,8.94440035 L2.29843762,9.66601446 C0.0955019824,9.98481187 -0.765417996,12.6363202 0.794546349,14.1586954 L5.79077084,19.0911321 C5.84571112,19.1448976 5.86887667,19.2163962 5.85675582,19.2875548 L4.72005825,25.9190734 C4.35122201,28.0678824 6.60683235,29.7069101 8.5361427,28.6917101 L14.4915566,25.5603343 C14.5035076,25.5584647 20.4622066,28.69188 20.4622066,28.69188 C22.3922533,29.7063436 24.6459945,28.0686756 24.2793672,25.9200366 L23.1409705,19.2858551 C23.1291894,19.2166794 23.1521284,19.1460874 23.2031606,19.096401 L28.2063517,14.1559193 Z M20.7588842,19.6930909 L21.8973942,26.3278389 C21.9270733,26.5018829 21.7439579,26.6349087 21.5865568,26.5521358 L15.6322756,23.4207034 C15.3028038,23.2481891 14.9503364,23.1573712 14.5815001,23.1323297 L14.4182652,23.132273 C14.0473333,23.1573145 13.6938463,23.248359 13.3659604,23.4212133 L7.41133942,26.5521925 C7.25478792,26.6345688 7.07201234,26.5017696 7.10186134,26.3278389 L8.23889875,19.6945639 C8.38417899,18.8404906 8.10256754,17.9717435 7.48457425,17.3669519 L2.48716034,12.4333822 C2.35519037,12.3046055 2.42508348,12.0893167 2.59970297,12.0639919 L9.39542013,11.3421512 C10.2984799,11.210995 11.0378515,10.6737927 11.4214707,9.89744993 L14.4128844,2.44126183 C14.4108454,2.4534993 14.4670318,2.41876981 14.5568053,2.41452069 C14.5313742,2.41876981 14.5885234,2.45406585 14.6251125,2.52800056 L17.5394399,9.81156103 C17.9586287,10.6727163 18.6987366,11.2108817 19.5555786,11.3362024 L26.4440712,12.0697707 C26.572926,12.0893733 26.6428191,12.3046055 26.5158334,12.4285665 L21.5107732,17.3708611 C20.8961216,17.9701006 20.6136606,18.8395274 20.7588842,19.6930909 Z" id="Shape"></path>
                </g>
            </g>
        </g>
    </g>
</svg>