<?xml version="1.0" encoding="UTF-8"?>
<svg width="41px" height="41px" viewBox="0 0 41 41" version="1.1" xmlns="http://www.w3.org/2000/svg" xmlns:xlink="http://www.w3.org/1999/xlink">
    <!-- Generator: Sketch 64 (93537) - https://sketch.com -->
    <title>ico-serviexito</title>
    <desc>Created with Sketch.</desc>
    <g id="Welcome" stroke="none" stroke-width="1" fill="none" fill-rule="evenodd">
        <g id="HOME---Desktop-HD" transform="translate(-581.000000, -949.000000)">
            <g id="ico-serviexito" transform="translate(581.000000, 949.000000)">
                <rect id="Rectangle-Copy-39" fill="#FFEB00" x="0" y="0" width="41" height="41" rx="10"></rect>
                <g id="dollar" transform="translate(13.000000, 7.000000)" fill="#000000" fill-rule="nonzero">
                    <path d="M8.07612385,11.8499766 L8.07612385,11.8499766 C4.74399083,10.9649531 3.67245413,10.0575 3.67245413,8.63247656 C3.67245413,6.9975 5.14768349,5.85 7.63575688,5.85 C10.248578,5.85 11.2173853,7.12497656 11.3054587,9 L14.5495183,9 C14.4540826,6.4125 12.9055046,4.05752344 9.83759174,3.285 L9.83759174,0 L5.43392202,0 L5.43392202,3.24 C2.58619266,3.87752344 0.296284404,5.75247656 0.296284404,8.65497656 C0.296284404,12.1199766 3.10727064,13.8449531 7.19538991,14.85 C10.8724541,15.75 11.5990596,17.0625234 11.5990596,18.4725 C11.5990596,19.4999766 10.8871101,21.15 7.63575688,21.15 C4.61188073,21.15 3.41559633,19.7625234 3.26146789,18 L0.0247706422,18 C0.208279817,21.285 2.60827982,23.1224766 5.43392202,23.7450234 L5.43392202,27 L9.83759174,27 L9.83759174,23.7749766 C12.6926147,23.2124766 14.9752294,21.5249766 14.9752294,18.4424766 C14.9752294,14.1975 11.4082569,12.7425234 8.07612385,11.8499766 Z" id="Path"></path>
                </g>
            </g>
        </g>
    </g>
</svg>