<?xml version="1.0" encoding="UTF-8"?>
<svg width="41px" height="41px" viewBox="0 0 41 41" version="1.1" xmlns="http://www.w3.org/2000/svg" xmlns:xlink="http://www.w3.org/1999/xlink">
    <!-- Generator: Sketch 64 (93537) - https://sketch.com -->
    <title>ico-nuestros-formatos</title>
    <desc>Created with Sketch.</desc>
    <g id="Welcome" stroke="none" stroke-width="1" fill="none" fill-rule="evenodd">
        <g id="HOME---Desktop-HD" transform="translate(-280.000000, -699.000000)">
            <g id="ico-nuestros-formatos" transform="translate(280.000000, 699.000000)">
                <rect id="Rectangle-Copy-4" fill="#FFEB00" x="0" y="0" width="41" height="41" rx="10"></rect>
                <g id="shop" transform="translate(7.000000, 7.000000)" fill="#000000" fill-rule="nonzero">
                    <path d="M25.5768738,22.8882141 L25.5768738,13.6319275 C27.0038757,12.9773865 28,11.5187683 28,9.82687377 C28,9.79782103 27.9989319,9.76919557 27.998291,9.74035645 C28.0085449,9.5692444 27.9641113,9.39663698 27.8675537,9.24923705 C27.8671264,9.24859622 27.8666992,9.24795534 27.866272,9.24731445 L25.9895935,6.35998535 C25.9857483,6.35400391 25.9819031,6.34780885 25.9780579,6.34182741 L24.5,4.0682373 L24.5,2.42312623 C24.5,1.08691406 23.4130859,0 22.0768738,0 L5.92312623,0 C4.58691406,0 3.5,1.08691406 3.5,2.42312623 L3.5,4.0682373 L0.133728,9.24731445 C0.133300781,9.24816895 0.132873563,9.24902344 0.132446289,9.24966432 C0.0382385391,9.39343262 -0.00534057344,9.56048581 0.00192260469,9.7262573 C0.0010681125,9.75979616 0,9.79312135 0,9.82687377 C0,11.5187683 0.996124281,12.9773865 2.42312623,13.6319275 L2.42312623,22.8882141 C1.07516478,22.9584961 0,24.07724 0,25.4422913 C0,26.8526306 1.1473694,28 2.55770873,28 L25.4422913,28 C26.8526306,28 28,26.8526306 28,25.4422913 C28,24.07724 26.9248352,22.9584961 25.5768738,22.8882141 L25.5768738,22.8882141 Z M24.5474243,12.2948608 C24.4953003,12.3093872 24.4429626,12.3222046 24.3904114,12.3330994 C24.3893432,12.333313 24.3880615,12.3335266 24.3869934,12.3339538 C24.282959,12.3555298 24.1778564,12.3698425 24.0723267,12.3775329 C24.0633545,12.3781738 24.0539551,12.3788147 24.0449829,12.3794556 C23.9947815,12.3824463 23.9445801,12.3845825 23.894165,12.3845825 C23.8544311,12.3845825 23.8149109,12.3833008 23.7756042,12.3815918 C23.7630005,12.3809509 23.7506104,12.3798828 23.7380066,12.3790283 C23.7110901,12.3773193 23.6843872,12.3753967 23.6576843,12.3726197 C23.6433716,12.3713379 23.6290589,12.3696289 23.6147461,12.3681335 C23.5897522,12.3651428 23.5647583,12.3619385 23.539978,12.3583069 C23.5256653,12.3561706 23.5115661,12.3540344 23.4974671,12.3516846 C23.4716186,12.3474121 23.4457703,12.3427124 23.4201355,12.3375854 C23.407959,12.3352356 23.3955689,12.3328857 23.383606,12.3303223 C23.3475036,12.3226318 23.3120422,12.3143005 23.2765808,12.3049011 C23.2750854,12.3044739 23.2735901,12.3042603 23.2720947,12.303833 C23.235138,12.2940064 23.1986084,12.2833252 23.1625061,12.2717896 C23.1511841,12.2681579 23.1402893,12.2643128 23.1291809,12.2604675 C23.1039734,12.2523499 23.0791931,12.2438049 23.0544128,12.2346191 C23.0415954,12.2297058 23.0287781,12.2247925 23.0159607,12.2198792 C22.993103,12.210907 22.9702454,12.2017212 22.9476013,12.1921081 C22.9347839,12.1867676 22.9221802,12.181427 22.9095764,12.1756592 C22.8858643,12.1654053 22.8625794,12.1542969 22.8395081,12.1431885 C22.8286133,12.1378479 22.8177185,12.1329346 22.8070374,12.127594 C22.7758484,12.1117859 22.744873,12.0957642 22.7145385,12.078888 C22.7121887,12.0776062 22.7098389,12.0763245 22.707489,12.0750427 C22.6745911,12.0566712 22.642334,12.0374451 22.6105042,12.0177917 C22.6011048,12.0118103 22.5917053,12.0056152 22.5823059,11.9996338 C22.5600891,11.985321 22.5378723,11.9710083 22.5160828,11.9558411 C22.5049744,11.9483643 22.4940796,11.9406738 22.4831848,11.9327698 C22.4631042,11.9186706 22.4432373,11.9041443 22.4233704,11.8891907 C22.4126892,11.881073 22.4017944,11.8729553 22.3911133,11.864624 C22.3710327,11.8488159 22.3509521,11.8325806 22.3312988,11.8163452 C22.322113,11.8086548 22.3127136,11.8009643 22.3035279,11.793274 C22.2778931,11.7712708 22.2526855,11.7488404 22.2279053,11.7259827 C22.2253418,11.7234192 22.222351,11.7210693 22.2197876,11.7185059 C22.1922302,11.6928711 22.1655273,11.6663818 22.1392517,11.639679 C22.1317749,11.6319885 22.1245117,11.6240845 22.1170349,11.616394 C22.0984497,11.5967408 22.0800781,11.5770874 22.0621338,11.5570068 C22.0531616,11.5471802 22.0444031,11.5369263 22.0356445,11.526886 C22.0196228,11.5083008 22.003601,11.4892883 21.987793,11.4702759 C21.9790344,11.4595947 21.9704895,11.4491272 21.9619446,11.4382324 C21.9461365,11.4183655 21.930542,11.3978577 21.9153747,11.3773499 C21.9078979,11.3675232 21.9004212,11.3576965 21.8931579,11.3476562 C21.8741455,11.321167 21.8555603,11.2942505 21.8374023,11.2671204 C21.8346253,11.2628479 21.8316345,11.2587891 21.8286438,11.2545166 C21.8079224,11.2229004 21.7878418,11.1906433 21.7684021,11.157959 C21.7628479,11.1487732 21.757721,11.1393738 21.7523803,11.1299744 C21.7387085,11.1064758 21.7252503,11.0827637 21.7124329,11.0586243 C21.7058105,11.0466614 21.6996155,11.0342712 21.6934204,11.0220947 C21.6818848,11.0000915 21.6707764,10.9780884 21.6600952,10.9556579 C21.6539001,10.9428406 21.6479187,10.9298096 21.6419372,10.9169922 C21.6312561,10.8939209 21.6210022,10.870636 21.6109619,10.8471374 C21.605835,10.8349609 21.6004944,10.822998 21.5955811,10.8108215 C21.5838318,10.7815552 21.5725098,10.7520752 21.561615,10.7225952 C21.5592651,10.7159729 21.5567017,10.7095642 21.5543518,10.7029419 C21.5415344,10.6668396 21.5293579,10.6300964 21.5180359,10.5933533 C21.5148315,10.5824585 21.5118408,10.5715637 21.5086365,10.5606689 C21.5028686,10.5405884 21.4973145,10.5202942 21.4919739,10.5002136 L26.2972107,10.5002136 C26.0656433,11.3709411 25.3957214,12.0577393 24.5474243,12.2948608 L24.5474243,12.2948608 Z M19.6742553,10.5931396 C19.6629333,10.6300964 19.6507568,10.666626 19.6379395,10.7029419 C19.6355896,10.7095642 19.6330261,10.7157592 19.6306763,10.7223816 C19.6197815,10.7520752 19.6084595,10.7815552 19.5967102,10.8106079 C19.5917969,10.822998 19.5864563,10.8349609 19.5813294,10.8471374 C19.5712891,10.8704224 19.5610352,10.8937073 19.5505676,10.9167786 C19.5445862,10.9298096 19.5383911,10.942627 19.532196,10.9554443 C19.5215149,10.9778747 19.5104065,11.0000915 19.4990845,11.0220947 C19.4926758,11.0342712 19.4864807,11.0464478 19.4798584,11.0586243 C19.467041,11.0827637 19.4535828,11.1062622 19.4399109,11.1299744 C19.4345703,11.1391602 19.4294434,11.1487732 19.4238892,11.157959 C19.4044495,11.1904297 19.3843689,11.2226868 19.3636475,11.254303 C19.3606568,11.2585755 19.357666,11.2628479 19.3548889,11.2671204 C19.336731,11.2942505 19.3181458,11.321167 19.2991333,11.3474426 C19.2918701,11.3574829 19.2843933,11.3673096 19.2769165,11.3773499 C19.2617493,11.3978577 19.2461548,11.4181518 19.2303467,11.4382324 C19.2218018,11.4489135 19.2132568,11.4595947 19.2044983,11.4700622 C19.1886902,11.4892883 19.1728821,11.5080872 19.1566467,11.526886 C19.1478882,11.5369263 19.1391296,11.5469665 19.1301575,11.5570068 C19.1122131,11.5770874 19.0938415,11.5967408 19.0752564,11.6161804 C19.0677796,11.6240845 19.0605163,11.6319885 19.0530396,11.6394654 C19.0267639,11.6663818 19.0000611,11.6928711 18.9725036,11.7185059 C18.9699402,11.7208557 18.9669495,11.7234192 18.964386,11.725769 C18.9396057,11.7488404 18.9143982,11.7710572 18.8887634,11.7930603 C18.8795776,11.8009643 18.8701783,11.8084411 18.8609924,11.8161316 C18.8413391,11.8325806 18.8212585,11.8486023 18.801178,11.8644104 C18.7904968,11.8727417 18.7796021,11.881073 18.7689209,11.8891907 C18.7492676,11.9039307 18.7294006,11.918457 18.7093201,11.9327698 C18.6982117,11.9404602 18.6873169,11.9481506 18.6762085,11.9558411 C18.6544189,11.9707947 18.6322021,11.985321 18.6099854,11.9996338 C18.6005859,12.0056152 18.5914001,12.0118103 18.5817871,12.0175781 C18.5499573,12.0374451 18.5177002,12.0566712 18.4848022,12.0750427 C18.4824524,12.0763245 18.4801025,12.0773926 18.4777527,12.0786743 C18.4474182,12.0955505 18.4164428,12.1117859 18.3852539,12.1273803 C18.3745728,12.132721 18.363678,12.1378479 18.3527832,12.1429749 C18.3297119,12.1542969 18.306427,12.1651917 18.2827148,12.1756592 C18.2701111,12.1812134 18.2575073,12.186554 18.24469,12.1921081 C18.2220459,12.2015076 18.1994018,12.2106934 18.1763306,12.2196655 C18.1635132,12.2247925 18.1506958,12.2297058 18.1378784,12.2344055 C18.1130982,12.2435913 18.0883178,12.2521362 18.063324,12.2604675 C18.052002,12.2640991 18.0411072,12.2681579 18.0297852,12.2715759 C17.9936829,12.2831116 17.9571533,12.2937927 17.9201965,12.3036194 C17.9187012,12.3040466 17.9172058,12.3044739 17.9157104,12.3049011 C17.880249,12.3140869 17.844574,12.3224182 17.808899,12.3303223 C17.7967224,12.3328857 17.7843323,12.335022 17.7721557,12.3373718 C17.746521,12.3424988 17.7206726,12.3474121 17.6948242,12.3516846 C17.6807251,12.3540344 17.666626,12.3561706 17.6523132,12.3580932 C17.6275329,12.3617249 17.6025391,12.3649292 17.5775452,12.3679199 C17.5632324,12.3696289 17.5491333,12.3711243 17.5346069,12.3726197 C17.5081177,12.3751831 17.4812012,12.3771057 17.4542846,12.3788147 C17.4416809,12.3796692 17.4292908,12.3807373 17.416687,12.3813782 C17.3773803,12.3833008 17.3378601,12.3843689 17.2981262,12.3843689 C17.2581787,12.3843689 17.2186585,12.3833008 17.1793518,12.3813782 C17.166748,12.3807373 17.1543579,12.3796692 17.1419678,12.3788147 C17.1150513,12.3771057 17.0881348,12.3751831 17.0614319,12.3726197 C17.0471191,12.3711243 17.0328064,12.3696289 17.0187073,12.3679199 C16.9934997,12.3649292 16.9685059,12.3617249 16.9437256,12.3580932 C16.9296264,12.355957 16.9155273,12.3540344 16.9014283,12.3516846 C16.8753662,12.3474121 16.8497314,12.3424988 16.8238831,12.3373718 C16.8117065,12.335022 16.79953,12.3328857 16.7873535,12.3303223 C16.7514648,12.3226318 16.7157898,12.3140869 16.680542,12.3049011 C16.6790466,12.3044739 16.6775513,12.3040466 16.6758423,12.3036194 C16.6390991,12.2937927 16.6025696,12.2831116 16.5662536,12.2715759 C16.5551452,12.2681579 16.5440369,12.2640991 16.5329285,12.2604675 C16.5079346,12.2521362 16.4829407,12.2435913 16.458374,12.2344055 C16.445343,12.2297058 16.4325256,12.2247925 16.4197083,12.2196655 C16.3968506,12.2106934 16.3739929,12.2015076 16.3513489,12.1921081 C16.3387451,12.186554 16.3259277,12.1812134 16.313324,12.1756592 C16.2898255,12.1651917 16.2665405,12.1542969 16.2432556,12.1429749 C16.2323608,12.1378479 16.2214661,12.132721 16.2107849,12.1273803 C16.179596,12.1117859 16.1488342,12.0955505 16.1182861,12.0786743 C16.1161499,12.0773926 16.1135865,12.0763245 16.1112366,12.0750427 C16.0785522,12.0566712 16.0462952,12.0374451 16.0142517,12.0175781 C16.0048523,12.0118103 15.9956665,12.0056152 15.9862671,11.9996338 C15.9638367,11.985321 15.9418335,11.9707947 15.9198303,11.9558411 C15.9087219,11.9481506 15.8978271,11.9404602 15.8869324,11.9327698 C15.8668518,11.918457 15.8469849,11.9039307 15.8273315,11.8891907 C15.8164368,11.881073 15.8057556,11.8727417 15.7950745,11.8644104 C15.7747803,11.8486023 15.7549133,11.8325806 15.73526,11.8161316 C15.7258606,11.8084411 15.7164612,11.8009643 15.707489,11.7930603 C15.6818542,11.7712708 15.6566467,11.7488404 15.6318665,11.725769 C15.6290893,11.7234192 15.6263122,11.7208557 15.6235352,11.7185059 C15.5961914,11.6926575 15.5692749,11.6663818 15.5429993,11.6394654 C15.5355225,11.6317749 15.5282593,11.6238708 15.5209961,11.6161804 C15.5024109,11.5967408 15.4838257,11.5770874 15.4658814,11.5570068 C15.4571228,11.5469665 15.4483643,11.5369263 15.4396057,11.526886 C15.4233704,11.5080872 15.4073486,11.4892883 15.3917542,11.4700622 C15.3829956,11.4595947 15.3744507,11.4489135 15.3659057,11.4382324 C15.349884,11.4181518 15.3345032,11.3978577 15.3191223,11.3773499 C15.3118591,11.3673096 15.3043823,11.3574829 15.2971191,11.3474426 C15.2778931,11.321167 15.2593079,11.2942505 15.2413635,11.2671204 C15.2383728,11.2628479 15.2353821,11.2585755 15.232605,11.254303 C15.2118835,11.2226868 15.191803,11.1904297 15.1723633,11.157959 C15.1668091,11.1487732 15.1616822,11.1391602 15.1563415,11.1299744 C15.1424561,11.1062622 15.1292115,11.0825501 15.1161804,11.0586243 C15.1097717,11.0464478 15.103363,11.0342712 15.097168,11.0220947 C15.085846,11.0000915 15.0747376,10.9778747 15.0638428,10.9554443 C15.0576477,10.942627 15.0516663,10.9298096 15.0456848,10.9167786 C15.0350036,10.8939209 15.0247497,10.8704224 15.0149231,10.8471374 C15.0097962,10.8349609 15.0044556,10.822998 14.9995423,10.8106079 C14.9875794,10.7815552 14.9762573,10.7520752 14.9655762,10.7223816 C14.9632263,10.7159729 14.9604492,10.7095642 14.9580994,10.7029419 C14.945282,10.666626 14.9333191,10.6300964 14.9219971,10.5931396 C14.9185791,10.5822449 14.915802,10.5713501 14.9125977,10.5604553 C14.9066162,10.5405884 14.9012756,10.5202942 14.895935,10.5 L19.7003174,10.5 C19.6949768,10.5202942 19.6894226,10.5403747 19.6836548,10.5604553 C19.6804505,10.5713501 19.6774597,10.5822449 19.6742553,10.5931396 Z M13.0780029,10.5931396 C13.0666809,10.6300964 13.054718,10.666626 13.0419006,10.7029419 C13.0395508,10.7095642 13.0367737,10.7157592 13.0344238,10.7223816 C13.0237427,10.7520752 13.0124206,10.7815552 13.0004578,10.8106079 C12.9955444,10.822998 12.9902038,10.8349609 12.9850769,10.8471374 C12.9752503,10.8704224 12.9649964,10.8937073 12.9543152,10.9167786 C12.9483337,10.9298096 12.9423523,10.942627 12.9361572,10.9554443 C12.9252624,10.9778747 12.914154,11.0000915 12.902832,11.0220947 C12.896637,11.0342712 12.8902283,11.0464478 12.8838196,11.0586243 C12.8707885,11.0827637 12.8575439,11.1062622 12.8436585,11.1299744 C12.8383178,11.1391602 12.8331909,11.1487732 12.8276367,11.157959 C12.808197,11.1904297 12.7883301,11.2226868 12.767395,11.254303 C12.7646179,11.2585755 12.7616272,11.2628479 12.7586365,11.2671204 C12.7406921,11.2942505 12.7221069,11.321167 12.7028809,11.3474426 C12.6958313,11.3574829 12.6881409,11.3673096 12.6808777,11.3773499 C12.6654968,11.3978577 12.650116,11.4181518 12.6340943,11.4382324 C12.6255493,11.4489135 12.6170044,11.4595947 12.6082458,11.4700622 C12.5926514,11.4892883 12.5766296,11.5080872 12.5603943,11.526886 C12.5516357,11.5369263 12.5428772,11.5469665 12.5341186,11.5570068 C12.5161743,11.5770874 12.4975891,11.5967408 12.4790039,11.6161804 C12.4717408,11.6240845 12.4644775,11.6319885 12.4570007,11.6394654 C12.4307251,11.6663818 12.4038086,11.6928711 12.3764648,11.7185059 C12.3736878,11.7208557 12.3709107,11.7234192 12.3681335,11.725769 C12.3433533,11.7488404 12.3181458,11.7710572 12.292511,11.7930603 C12.2835388,11.8009643 12.2741394,11.8084411 12.26474,11.8161316 C12.2450867,11.8325806 12.2252197,11.8486023 12.2049255,11.8644104 C12.1942444,11.8727417 12.1835632,11.881073 12.1726685,11.8891907 C12.1530151,11.9039307 12.1331482,11.918457 12.1130676,11.9327698 C12.1021729,11.9404602 12.0912781,11.9481506 12.0801697,11.9558411 C12.0581665,11.9707947 12.0361633,11.985321 12.0137329,11.9996338 C12.0043335,12.0056152 11.9951477,12.0118103 11.9857483,12.0175781 C11.9537048,12.0374451 11.9214478,12.0566712 11.8887634,12.0750427 C11.8864135,12.0763245 11.8838501,12.0773926 11.8817139,12.0786743 C11.8511658,12.0955505 11.820404,12.1117859 11.7892151,12.1273803 C11.7785339,12.132721 11.7676392,12.1378479 11.7567444,12.1429749 C11.7334595,12.1542969 11.7101745,12.1651917 11.686676,12.1756592 C11.6740723,12.1812134 11.6612549,12.186554 11.6486511,12.1921081 C11.6260071,12.2015076 11.6031494,12.2106934 11.5802917,12.2196655 C11.5674744,12.2247925 11.554657,12.2297058 11.541626,12.2344055 C11.5170593,12.2435913 11.4920654,12.2521362 11.4670715,12.2604675 C11.4559631,12.2640991 11.4448547,12.2681579 11.4337464,12.2715759 C11.3974304,12.2831116 11.3609009,12.2937927 11.3241577,12.3036194 C11.3224487,12.3040466 11.3209534,12.3044739 11.319458,12.3049011 C11.2842102,12.3140869 11.2485352,12.3224182 11.2126465,12.3303223 C11.20047,12.3328857 11.1882935,12.335022 11.1761169,12.3373718 C11.1502686,12.3424988 11.1246338,12.3474121 11.0985717,12.3516846 C11.0844727,12.3540344 11.0703736,12.3561706 11.0562744,12.3580932 C11.0314941,12.3617249 11.0065003,12.3649292 10.9812927,12.3679199 C10.9671936,12.3696289 10.9528809,12.3711243 10.9385681,12.3726197 C10.9118652,12.3751831 10.8849487,12.3771057 10.8580322,12.3788147 C10.8456421,12.3796692 10.833252,12.3807373 10.8206482,12.3813782 C10.7813415,12.3833008 10.7418213,12.3843689 10.7018738,12.3843689 C10.6621399,12.3843689 10.6226197,12.3833008 10.583313,12.3813782 C10.5707092,12.3807373 10.5583191,12.3796692 10.5457154,12.3788147 C10.5187988,12.3771057 10.492096,12.3751831 10.4653931,12.3726197 C10.4510803,12.3711243 10.4367676,12.3696289 10.4224548,12.3679199 C10.3974609,12.3649292 10.3724671,12.3617249 10.3476868,12.3580932 C10.333374,12.355957 10.3192749,12.3540344 10.3051758,12.3516846 C10.2793274,12.3474121 10.253479,12.3424988 10.2278443,12.3373718 C10.2156677,12.335022 10.2032776,12.3328857 10.191101,12.3303223 C10.1552124,12.3226318 10.1195374,12.3140869 10.0842896,12.3049011 C10.0827942,12.3044739 10.0812988,12.3040466 10.0798035,12.3036194 C10.0428467,12.2937927 10.0063171,12.2831116 9.97021484,12.2715759 C9.95889284,12.2681579 9.94799805,12.2640991 9.93667604,12.2604675 C9.91168216,12.2521362 9.88690183,12.2435913 9.86212161,12.2344055 C9.84930417,12.2297058 9.83648684,12.2247925 9.82366941,12.2196655 C9.80059817,12.2106934 9.7779541,12.2015076 9.75531003,12.1921081 C9.7424927,12.186554 9.72988893,12.1812134 9.71728516,12.1756592 C9.69357298,12.1651917 9.67028809,12.1542969 9.6472168,12.1429749 C9.63632201,12.1378479 9.62542722,12.132721 9.61474609,12.1273803 C9.58355716,12.1117859 9.55258177,12.0955505 9.52224733,12.0786743 C9.51989746,12.0773926 9.51754759,12.0763245 9.51519778,12.0750427 C9.4822998,12.0566712 9.45004271,12.0374451 9.41821289,12.0175781 C9.40859987,12.0118103 9.39941406,12.0056152 9.39001465,11.9996338 C9.36779785,11.985321 9.34558105,11.9707947 9.32379153,11.9558411 C9.31268308,11.9481506 9.30178834,11.9404602 9.29067995,11.9327698 C9.27059935,11.918457 9.25073242,11.9039307 9.2310791,11.8891907 C9.22039792,11.881073 9.20950319,11.8727417 9.19882201,11.8644104 C9.17874147,11.8486023 9.15866087,11.8325806 9.13900755,11.8161316 C9.12982175,11.8084411 9.12042239,11.8009643 9.11123659,11.7930603 C9.08560182,11.7712708 9.06039427,11.7488404 9.035614,11.725769 C9.03305052,11.7234192 9.03005983,11.7208557 9.02749635,11.7185059 C8.99993894,11.6926575 8.97323607,11.6663818 8.94696042,11.6394654 C8.93948366,11.6317749 8.93222045,11.6238708 8.92474362,11.6161804 C8.90615846,11.5967408 8.88778685,11.5770874 8.86984252,11.5570068 C8.86087037,11.5469665 8.85211184,11.5369263 8.84335326,11.526886 C8.82711791,11.5080872 8.81130983,11.4892883 8.7955017,11.4700622 C8.78674316,11.4595947 8.77819824,11.4489135 8.76965332,11.4382324 C8.75384519,11.4181518 8.73825072,11.3978577 8.72308347,11.3773499 C8.7156067,11.3673096 8.70812988,11.3574829 8.70086667,11.3474426 C8.68185423,11.321167 8.66326902,11.2942505 8.64511107,11.2671204 C8.64233398,11.2628479 8.63934323,11.2585755 8.63635254,11.254303 C8.61563112,11.2226868 8.59555052,11.1904297 8.57611081,11.157959 C8.57055664,11.1487732 8.56542969,11.1391602 8.56008912,11.1299744 C8.54641725,11.1062622 8.53295898,11.0825501 8.5201416,11.0586243 C8.51351927,11.0464478 8.50732422,11.0342712 8.5009155,11.0220947 C8.48959349,11.0000915 8.47848509,10.9778747 8.46780397,10.9554443 C8.46160886,10.942627 8.4554138,10.9298096 8.44943236,10.9167786 C8.43896484,10.8939209 8.42871094,10.8704224 8.41867064,10.8471374 C8.41354369,10.8349609 8.40820312,10.822998 8.40328978,10.8106079 C8.3915405,10.7815552 8.38021849,10.7520752 8.3693237,10.7223816 C8.36697389,10.7159729 8.36441041,10.7095642 8.36206055,10.7029419 C8.34924316,10.666626 8.33706666,10.6300964 8.32574466,10.5931396 C8.3225403,10.5822449 8.31954955,10.5713501 8.31634519,10.5604553 C8.31057741,10.5405884 8.30502318,10.5202942 8.29968262,10.5 L13.104065,10.5 C13.0987244,10.5202942 13.0931702,10.5403747 13.0874023,10.5604553 C13.084198,10.5713501 13.0814209,10.5822449 13.0780029,10.5931396 Z M4.98489381,4.74798581 C5.07012942,4.61682129 5.11541745,4.46386719 5.11541745,4.30770873 L5.11541745,2.42312623 C5.11541745,1.97772214 5.47772214,1.61541745 5.92312623,1.61541745 L22.0768738,1.61541745 C22.5222779,1.61541745 22.8845825,1.97772214 22.8845825,2.42312623 L22.8845825,4.30770873 C22.8845825,4.46386719 22.9298706,4.61682129 23.0151062,4.74798581 L25.7037659,8.88458255 L2.29602051,8.88458255 L4.98489381,4.74798581 Z M1.70278932,10.5 L6.50802611,10.5 C6.50268555,10.5202942 6.49713137,10.5403747 6.49136354,10.5604553 C6.48815918,10.5713501 6.48516848,10.5822449 6.48196412,10.5931396 C6.47064206,10.6300964 6.45846556,10.666626 6.44564818,10.7029419 C6.44329831,10.7095642 6.44073489,10.7157592 6.43838502,10.7223816 C6.42749023,10.7520752 6.41616823,10.7815552 6.40441895,10.8106079 C6.3995056,10.822998 6.39416504,10.8349609 6.38903809,10.8471374 C6.37899779,10.8704224 6.36874388,10.8937073 6.35806276,10.9167786 C6.35208131,10.9298096 6.34609987,10.942627 6.33990481,10.9554443 C6.32922363,10.9778747 6.31811523,11.0000915 6.30657956,11.0220947 C6.30038451,11.0342712 6.29397584,11.0464478 6.28756712,11.0586243 C6.27474974,11.0827637 6.26129153,11.1062622 6.24761966,11.1299744 C6.24227904,11.1391602 6.23715209,11.1487732 6.23159791,11.157959 C6.2121582,11.1904297 6.19207761,11.2226868 6.17135619,11.254303 C6.16836549,11.2585755 6.16537474,11.2628479 6.16259766,11.2671204 C6.14443971,11.2942505 6.12585449,11.321167 6.10684205,11.3474426 C6.09957884,11.3574829 6.09210208,11.3673096 6.08462526,11.3773499 C6.06945801,11.3978577 6.05386354,11.4181518 6.03805541,11.4382324 C6.02951048,11.4489135 6.02096556,11.4595947 6.01220703,11.4700622 C5.99639895,11.4892883 5.98059082,11.5080872 5.96435547,11.526886 C5.95559694,11.5369263 5.94683841,11.5469665 5.93786621,11.5570068 C5.91992187,11.5770874 5.90155027,11.5967408 5.8829651,11.6161804 C5.87548828,11.6240845 5.86822512,11.6319885 5.8607483,11.6394654 C5.83447266,11.6663818 5.80776979,11.6928711 5.78021237,11.7185059 C5.77743529,11.7208557 5.7746582,11.7234192 5.77209473,11.725769 C5.74731445,11.7488404 5.72210691,11.7710572 5.69647214,11.7930603 C5.68728639,11.8009643 5.67788698,11.8084411 5.66870117,11.8161316 C5.64904785,11.8325806 5.62896731,11.8486023 5.60888672,11.8644104 C5.59820559,11.8727417 5.5873108,11.881073 5.57662962,11.8891907 C5.5567627,11.9039307 5.53689577,11.918457 5.51681517,11.9327698 C5.50592044,11.9404602 5.49502565,11.9481506 5.48391725,11.9558411 C5.46212767,11.9707947 5.43991087,11.985321 5.41769408,11.9996338 C5.40829466,12.0056152 5.39910886,12.0118103 5.38949584,12.0175781 C5.35766602,12.0374451 5.32540892,12.0566712 5.292511,12.0750427 C5.29016113,12.0763245 5.28781127,12.0773926 5.28546145,12.0786743 C5.25512695,12.0955505 5.22415162,12.1117859 5.19296263,12.1273803 C5.18228151,12.132721 5.17138672,12.1378479 5.16049193,12.1429749 C5.13742064,12.1542969 5.11413574,12.1651917 5.09042357,12.1756592 C5.0778198,12.1812134 5.06521608,12.186554 5.0523987,12.1921081 C5.02975462,12.2015076 5.00711061,12.2106934 4.98403932,12.2196655 C4.97122194,12.2247925 4.95840455,12.2297058 4.94558717,12.2344055 C4.9208069,12.2435913 4.89581302,12.2521362 4.87081908,12.2604675 C4.85971068,12.2640991 4.84881589,12.2681579 4.83749388,12.2715759 C4.8013916,12.2831116 4.76486205,12.2937927 4.72790527,12.3036194 C4.7264099,12.3040466 4.72491458,12.3044739 4.7234192,12.3049011 C4.68795775,12.3140869 4.65228269,12.3224182 4.61639402,12.3303223 C4.60443112,12.3328857 4.59204102,12.335022 4.57986452,12.3373718 C4.55422975,12.3424988 4.52838137,12.3474121 4.50253295,12.3516846 C4.48843385,12.3540344 4.4743347,12.3561706 4.460022,12.3580932 C4.43524167,12.3617249 4.41024779,12.3649292 4.38525391,12.3679199 C4.37094115,12.3696289 4.35684205,12.3711243 4.34231569,12.3726197 C4.31561277,12.3751831 4.2889099,12.3771057 4.26199342,12.3788147 C4.24938965,12.3796692 4.23699948,12.3807373 4.22439577,12.3813782 C4.18508912,12.3835144 4.14556887,12.3845825 4.10583496,12.3845825 C4.05563353,12.3845825 4.00521849,12.3826599 3.95501706,12.3794556 C3.94583131,12.3788147 3.93664551,12.3783874 3.92767331,12.3777466 C3.82214355,12.3698425 3.71704102,12.3555298 3.61300658,12.3339538 C3.61193848,12.3337402 3.61065677,12.3335266 3.60958861,12.333313 C3.55703737,12.3222046 3.50469973,12.3093872 3.45257566,12.2948608 C2.60427858,12.0577393 1.9343567,11.3709411 1.70278932,10.5 Z M4.2959595,13.9950867 C4.30749512,13.9946594 4.31881712,13.9942322 4.3303528,13.9935913 C4.39080808,13.9901733 4.4508362,13.9854736 4.51065065,13.9794922 C4.52218627,13.9784241 4.53372194,13.9771423 4.54547122,13.9758606 C4.60678099,13.9690247 4.66787721,13.9615479 4.72854616,13.9519348 C4.73089597,13.9517212 4.7334595,13.9510803 4.73580931,13.9508667 C4.79498294,13.9414673 4.85372923,13.9305725 4.91226198,13.9186096 C4.92272949,13.9164734 4.93341067,13.9145508 4.9440918,13.9122009 C5.00177005,13.9000244 5.05880736,13.8865661 5.11563112,13.8720398 C5.12716673,13.8690491 5.1384888,13.8658447 5.15002441,13.862854 C5.20791627,13.8472595 5.26538086,13.8310242 5.32220456,13.8130798 C5.32647708,13.8115845 5.33074948,13.8100891 5.335022,13.8088074 C5.38949584,13.7912903 5.44354245,13.7724915 5.49694824,13.7528381 C5.50677487,13.7492065 5.51660156,13.7460022 5.52621459,13.742157 C5.58047487,13.7218628 5.6338806,13.7002869 5.68707278,13.6776428 C5.69818112,13.6729431 5.70928958,13.6680298 5.72061159,13.6631165 C5.77423098,13.6396179 5.82742311,13.6154785 5.87976074,13.5898438 C5.88531497,13.5870667 5.89065553,13.5842896 5.89599609,13.5815124 C5.94598386,13.5569458 5.99511719,13.5313111 6.04382324,13.5046081 C6.05236816,13.4999085 6.0611267,13.4952087 6.06967162,13.490509 C6.11987305,13.462738 6.16921998,13.4336853 6.21813965,13.4037781 C6.22860716,13.3973694 6.23907473,13.3907471 6.24954225,13.3841247 C6.29846191,13.3535767 6.34695436,13.3221741 6.39459231,13.2897034 C6.4005737,13.2854309 6.4065552,13.2811585 6.41253659,13.2770996 C6.45739746,13.2459107 6.50183105,13.2136536 6.54541016,13.1807556 C6.55288698,13.1752014 6.5603638,13.1698608 6.56762695,13.1643066 C6.61312865,13.1294861 6.65777591,13.0938111 6.70178223,13.0570678 C6.71118164,13.0491638 6.72058105,13.0412598 6.72998047,13.0333557 C6.77398684,12.9961853 6.81713867,12.958374 6.85943606,12.919281 C6.86563112,12.9137268 6.87139895,12.9081726 6.87738034,12.9026184 C6.91732787,12.8652344 6.95684817,12.8272095 6.99530027,12.7881165 C7.0010681,12.7823486 7.00704955,12.7767944 7.01260377,12.7710266 C7.05297852,12.7297974 7.09249877,12.6877136 7.13116458,12.6447754 C7.13928223,12.6358033 7.14718627,12.6268311 7.15530397,12.6176453 C7.19354245,12.574707 7.2309265,12.5309143 7.26745605,12.4862671 C7.27301028,12.4794311 7.27835084,12.4723816 7.28390502,12.4655456 C7.31872559,12.4221802 7.35290527,12.3783874 7.38601686,12.3335266 C7.39007566,12.3281861 7.39413451,12.3228454 7.39819336,12.3175049 C7.40011595,12.3149414 7.40203855,12.3123779 7.4039612,12.3098145 C7.40588379,12.3123779 7.40780638,12.3147278 7.40972903,12.3175049 C7.41378783,12.3228454 7.41784668,12.3281861 7.42190553,12.3335266 C7.45501706,12.3783874 7.48919675,12.4223938 7.52401732,12.4655456 C7.52957155,12.4723816 7.53491211,12.4794311 7.54046628,12.4862671 C7.57699584,12.5309143 7.61437988,12.574707 7.65261842,12.6176453 C7.66073607,12.6268311 7.66864011,12.6358033 7.67675781,12.6447754 C7.71542357,12.6877136 7.75494387,12.7297974 7.79531862,12.7710266 C7.80087279,12.7767944 7.80685423,12.7823486 7.81262207,12.7881165 C7.85107422,12.8272095 7.89038086,12.8652344 7.93054199,12.9026184 C7.93652344,12.9081726 7.94250488,12.9137268 7.94848633,12.919281 C7.99078372,12.958374 8.03393555,12.9961853 8.07794192,13.0333557 C8.08712767,13.0412598 8.09652709,13.0491638 8.10614011,13.0570678 C8.15014648,13.0938111 8.19479369,13.1294861 8.24029544,13.1643066 C8.24755859,13.1698608 8.25503541,13.1752014 8.26251223,13.1807556 C8.30609128,13.2136536 8.35031127,13.2459107 8.39538574,13.2770996 C8.40136719,13.2811585 8.40734863,13.2854309 8.41333008,13.2897034 C8.46096803,13.3221741 8.50946042,13.3535767 8.55838014,13.3841247 C8.56884766,13.3907471 8.57931517,13.3973694 8.58978269,13.4037781 C8.63870241,13.4336853 8.68804934,13.462738 8.73825072,13.490509 C8.74679564,13.4952087 8.75555417,13.4999085 8.76409909,13.5046081 C8.8128052,13.5313111 8.86193848,13.5569458 8.91171263,13.5815124 C8.91726686,13.5842896 8.92260742,13.5870667 8.92816159,13.5898438 C8.98049928,13.6154785 9.03369141,13.6396179 9.0873108,13.6631165 C9.09863281,13.6680298 9.10974121,13.6729431 9.12084961,13.6776428 C9.17382812,13.7002869 9.22744752,13.7218628 9.28170775,13.742157 C9.29132083,13.7460022 9.30114746,13.7494202 9.31097409,13.7528381 C9.36437988,13.7724915 9.4184265,13.7912903 9.47290039,13.8088074 C9.47717285,13.8100891 9.48144531,13.8115845 9.48571777,13.8130798 C9.54254153,13.8310242 9.60000612,13.8472595 9.65789792,13.862854 C9.66921998,13.8658447 9.6807556,13.8690491 9.69229127,13.8720398 C9.74911498,13.8865661 9.80615234,13.9000244 9.86383059,13.9122009 C9.87451172,13.9145508 9.88497923,13.9164734 9.89566041,13.9186096 C9.9541931,13.9305725 10.0127258,13.9414673 10.072113,13.9508667 C10.0744629,13.9510803 10.0770264,13.9517212 10.0793762,13.9519348 C10.1400452,13.9615479 10.2011413,13.9690247 10.2624512,13.9758606 C10.2742005,13.9769287 10.2857361,13.9784241 10.2972717,13.9794922 C10.3570862,13.9854736 10.4171143,13.9901733 10.4775696,13.9935913 C10.4891052,13.9942322 10.5004272,13.9946594 10.5119629,13.9950867 C10.5749817,13.9980774 10.6384277,14 10.7020874,14 C10.7659607,14 10.8291931,13.9980774 10.8924255,13.9950867 C10.9037475,13.9946594 10.9152832,13.9942322 10.9266052,13.9935913 C10.9870605,13.9901733 11.0470886,13.9854736 11.1069031,13.9794922 C11.1186523,13.9784241 11.130188,13.9771423 11.1417236,13.9758606 C11.2032471,13.9690247 11.2643432,13.9615479 11.3250122,13.9519348 C11.327362,13.9517212 11.3297119,13.9510803 11.3322754,13.9508667 C11.391449,13.9414673 11.4501953,13.9305725 11.5085144,13.9186096 C11.5191956,13.9164734 11.5298767,13.9145508 11.5403443,13.9122009 C11.5980225,13.9000244 11.6552734,13.8865661 11.7118835,13.8720398 C11.7234192,13.8690491 11.7349548,13.8658447 11.7464905,13.862854 C11.8043823,13.8472595 11.8618469,13.8310242 11.9186706,13.8130798 C11.9229431,13.8115845 11.927002,13.8100891 11.9312744,13.8088074 C11.9859619,13.7912903 12.0397949,13.7724915 12.0934143,13.7528381 C12.1030273,13.7492065 12.112854,13.7460022 12.1226807,13.742157 C12.1767273,13.7218628 12.2303467,13.7002869 12.2833252,13.6776428 C12.2946472,13.6729431 12.3057556,13.6680298 12.316864,13.6631165 C12.3704834,13.6396179 12.4236755,13.6154785 12.4762268,13.5898438 C12.4815674,13.5870667 12.4871216,13.5842896 12.4924622,13.5815124 C12.5422363,13.5569458 12.5913697,13.5313111 12.6400757,13.5046081 C12.6488342,13.4999085 12.6575928,13.4952087 12.6661377,13.490509 C12.7161255,13.462738 12.7654724,13.4336853 12.8143921,13.4037781 C12.8250732,13.3973694 12.8353271,13.3907471 12.8460083,13.3841247 C12.894928,13.3535767 12.9434204,13.3221741 12.9910583,13.2897034 C12.9970398,13.2854309 13.0030212,13.2811585 13.0090027,13.2770996 C13.0538635,13.2459107 13.0980835,13.2136536 13.1418762,13.1807556 C13.1491394,13.1752014 13.1566162,13.1698608 13.1638794,13.1643066 C13.2093811,13.1294861 13.2540283,13.0938111 13.2982483,13.0570678 C13.3076477,13.0491638 13.3170471,13.0412598 13.3264465,13.0333557 C13.3702393,12.9961853 13.4136047,12.958374 13.4559021,12.919281 C13.4618835,12.9137268 13.4676514,12.9081726 13.4736328,12.9026184 C13.5137939,12.8652344 13.5531006,12.8272095 13.5917663,12.7881165 C13.5975342,12.7823486 13.603302,12.7767944 13.6090698,12.7710266 C13.6494446,12.7297974 13.6887512,12.6877136 13.727417,12.6447754 C13.7355346,12.6358033 13.7436523,12.6268311 13.7515564,12.6176453 C13.7897949,12.574707 13.8273926,12.5309143 13.8639221,12.4862671 C13.8692627,12.4794311 13.8748169,12.4723816 13.8801575,12.4655456 C13.914978,12.4221802 13.9491577,12.3783874 13.9822693,12.3335266 C13.9863281,12.3281861 13.9906006,12.3228454 13.9944458,12.3175049 C13.9963684,12.3149414 13.9985046,12.3123779 14.0004272,12.3098145 C14.0021362,12.3123779 14.0042725,12.3147278 14.0061951,12.3175049 C14.0100403,12.3228454 14.0143128,12.3281861 14.0183716,12.3335266 C14.0514831,12.3783874 14.0854492,12.4223938 14.1204834,12.4655456 C14.125824,12.4723816 14.1313782,12.4794311 14.1367187,12.4862671 C14.1732483,12.5309143 14.210846,12.574707 14.2490845,12.6176453 C14.2569885,12.6268311 14.2651062,12.6358033 14.2732239,12.6447754 C14.3118896,12.6877136 14.3511963,12.7297974 14.391571,12.7710266 C14.3973389,12.7767944 14.4031067,12.7823486 14.4088745,12.7881165 C14.4475403,12.8272095 14.4868469,12.8652344 14.5270081,12.9026184 C14.5329895,12.9081726 14.5387573,12.9137268 14.5447388,12.919281 C14.5870361,12.958374 14.6304016,12.9961853 14.6741943,13.0333557 L14.7023926,13.0570678 C14.746399,13.0938111 14.7912598,13.1294861 14.8367615,13.1643066 C14.8440247,13.1698608 14.8515014,13.1752014 14.8587646,13.1807556 C14.9025574,13.2136536 14.9467773,13.2459107 14.9916382,13.2770996 C14.9978333,13.2811585 15.003601,13.2854309 15.0095825,13.2897034 C15.0572204,13.3221741 15.1057129,13.3535767 15.1546326,13.3841247 C15.1653137,13.3907471 15.1757812,13.3973694 15.1862488,13.4037781 C15.2349548,13.4336853 15.2843018,13.462738 15.3345032,13.490509 C15.3430481,13.4952087 15.3518066,13.4999085 15.3605652,13.5046081 C15.4092712,13.5313111 15.4584046,13.5569458 15.5081787,13.5815124 C15.5135193,13.5842896 15.5190735,13.5870667 15.5244141,13.5898438 C15.5769654,13.6154785 15.6301575,13.6396179 15.6837768,13.6631165 C15.6948853,13.6680298 15.7059936,13.6729431 15.7173157,13.6776428 C15.7702942,13.7002869 15.8239135,13.7218628 15.8779602,13.742157 C15.8877869,13.7460022 15.8976135,13.7494202 15.9072266,13.7528381 C15.960846,13.7724915 16.014679,13.7912903 16.0693665,13.8088074 C16.0736389,13.8100891 16.0779114,13.8115845 16.0819702,13.8130798 C16.1387939,13.8310242 16.1962585,13.8472595 16.2541504,13.862854 C16.2656861,13.8658447 16.2770081,13.8690491 16.2887573,13.8720398 C16.3453674,13.8865661 16.4026184,13.9000244 16.4602966,13.9122009 C16.4707642,13.9145508 16.4814453,13.9164734 16.4921264,13.9186096 C16.5504456,13.9305725 16.6091919,13.9414673 16.6683655,13.9508667 C16.670929,13.9510803 16.6732788,13.9517212 16.6756286,13.9519348 C16.7362976,13.9615479 16.7973938,13.9690247 16.8589173,13.9758606 C16.8704529,13.9769287 16.8819885,13.9784241 16.8937378,13.9794922 C16.9535522,13.9854736 17.0135803,13.9901733 17.0740357,13.9935913 C17.0853577,13.9942322 17.0968933,13.9946594 17.1082154,13.9950867 C17.1714478,13.9980774 17.2346802,14 17.2985535,14 C17.3622131,14 17.4256592,13.9980774 17.488678,13.9950867 C17.5002136,13.9946594 17.5115357,13.9942322 17.5230713,13.9935913 C17.5835266,13.9901733 17.6435547,13.9854736 17.7033691,13.9794922 C17.7149048,13.9784241 17.7264404,13.9771423 17.7381897,13.9758606 C17.7994995,13.9690247 17.8608093,13.9615479 17.9212646,13.9519348 C17.9236145,13.9517212 17.926178,13.9510803 17.9285279,13.9508667 C17.9877014,13.9414673 18.0464478,13.9305725 18.1049805,13.9186096 C18.1156616,13.9164734 18.1261292,13.9145508 18.1368103,13.9122009 C18.1944885,13.9000244 18.2517395,13.8865661 18.3083496,13.8720398 C18.3198853,13.8690491 18.3314209,13.8658447 18.3429565,13.862854 C18.4006348,13.8472595 18.4580994,13.8310242 18.5149231,13.8130798 C18.5191956,13.8115845 18.523468,13.8100891 18.5277405,13.8088074 C18.5822143,13.7912903 18.636261,13.7724915 18.6896667,13.7528381 C18.6994934,13.7492065 18.7093201,13.7460022 18.7189331,13.742157 C18.7731934,13.7218628 18.8268128,13.7002869 18.8797913,13.6776428 C18.8908997,13.6729431 18.9020081,13.6680298 18.9133301,13.6631165 C18.9669495,13.6396179 19.0201416,13.6154785 19.0724792,13.5898438 C19.0780335,13.5870667 19.083374,13.5842896 19.0889282,13.5815124 C19.1387024,13.5569458 19.1878357,13.5313111 19.2365417,13.5046081 C19.2450867,13.4999085 19.2538452,13.4952087 19.2623901,13.490509 C19.3125915,13.462738 19.3619385,13.4336853 19.4108581,13.4037781 C19.4213257,13.3973694 19.4317932,13.3907471 19.4422607,13.3841247 C19.4911804,13.3535767 19.5396729,13.3221741 19.5873108,13.2897034 C19.5932922,13.2854309 19.5992737,13.2811585 19.6052551,13.2770996 C19.6503296,13.2459107 19.6945495,13.2136536 19.7381286,13.1807556 C19.7456055,13.1752014 19.7530823,13.1698608 19.7603454,13.1643066 C19.8058471,13.1294861 19.8504944,13.0938111 19.8945007,13.0570678 C19.9041138,13.0491638 19.9132995,13.0412598 19.9229126,13.0333557 C19.9667053,12.9961853 20.0098572,12.958374 20.0521546,12.919281 C20.0583496,12.9137268 20.0641174,12.9081726 20.0700989,12.9026184 C20.1100464,12.8652344 20.1495667,12.8272095 20.1880188,12.7881165 C20.1937866,12.7823486 20.1997681,12.7767944 20.2053223,12.7710266 C20.245697,12.7297974 20.2852173,12.6877136 20.3238831,12.6447754 C20.3320007,12.6358033 20.3399048,12.6268311 20.3480225,12.6176453 C20.386261,12.574707 20.423645,12.5309143 20.4601745,12.4862671 C20.4657288,12.4794311 20.4710693,12.4723816 20.4766236,12.4655456 C20.5114441,12.4221802 20.5456238,12.3783874 20.5787354,12.3335266 C20.5827942,12.3281861 20.586853,12.3228454 20.5909119,12.3175049 C20.5928345,12.3149414 20.5947571,12.3123779 20.5966797,12.3098145 C20.5986023,12.3123779 20.6005249,12.3147278 20.6024475,12.3175049 C20.6065064,12.3228454 20.6105652,12.3281861 20.614624,12.3335266 C20.6479492,12.3783874 20.6819153,12.4223938 20.7167358,12.4655456 C20.72229,12.4723816 20.7276306,12.4794311 20.7331848,12.4862671 C20.7697143,12.5309143 20.8070984,12.574707 20.8453369,12.6176453 C20.8534546,12.6268311 20.8613587,12.6358033 20.86969,12.6447754 C20.9081421,12.6877136 20.9476624,12.7297974 20.9880371,12.7710266 C20.9938049,12.7767944 20.9995728,12.7823486 21.0053406,12.7881165 C21.0437927,12.8272095 21.0830994,12.8652344 21.1232605,12.9026184 C21.1292419,12.9081726 21.1352234,12.9137268 21.1412048,12.919281 C21.1835022,12.958374 21.226654,12.9961853 21.2706604,13.0333557 C21.2798462,13.0412598 21.2894592,13.0491638 21.2988587,13.0570678 C21.342865,13.0938111 21.3875122,13.1294861 21.4330139,13.1643066 C21.4402771,13.1698608 21.4477539,13.1752014 21.4552307,13.1807556 C21.4988098,13.2136536 21.5432434,13.2459107 21.5881042,13.2770996 C21.5940857,13.2811585 21.6000671,13.2854309 21.6060486,13.2897034 C21.6536865,13.3221741 21.702179,13.3535767 21.7510986,13.3841247 C21.7615661,13.3907471 21.7720337,13.3973694 21.7825012,13.4037781 C21.8314209,13.4336853 21.8807678,13.462738 21.9309693,13.490509 C21.9395142,13.4952087 21.9482727,13.4999085 21.9568176,13.5046081 C22.0055237,13.5313111 22.054657,13.5569458 22.1046448,13.5815124 C22.1099854,13.5842896 22.1153259,13.5870667 22.1208801,13.5898438 C22.1732178,13.6154785 22.2264099,13.6396179 22.2802429,13.6631165 C22.2913513,13.6680298 22.3024597,13.6729431 22.3135681,13.6776428 C22.3667603,13.7002869 22.420166,13.7218628 22.4744263,13.742157 C22.4840393,13.7460022 22.493866,13.7494202 22.5036926,13.7528381 C22.5570984,13.7724915 22.611145,13.7912903 22.6656189,13.8088074 C22.6698913,13.8100891 22.6741638,13.8115845 22.6784363,13.8130798 C22.73526,13.8310242 22.7927246,13.8472595 22.8506165,13.862854 C22.8621521,13.8658447 22.8734741,13.8690491 22.8850098,13.8720398 C22.9418335,13.8865661 22.9990845,13.9000244 23.0565491,13.9122009 C23.0672302,13.9145508 23.0779114,13.9164734 23.0883789,13.9186096 C23.1469116,13.9305725 23.2054443,13.9414673 23.2648315,13.9508667 C23.2671814,13.9510803 23.2697449,13.9517212 23.2720947,13.9519348 C23.3327637,13.9615479 23.3938599,13.9690247 23.4553833,13.9758606 C23.4669189,13.9769287 23.4784546,13.9784241 23.4899902,13.9794922 C23.5498047,13.9854736 23.6098327,13.9901733 23.6702881,13.9935913 C23.6818237,13.9942322 23.6931458,13.9946594 23.7046814,13.9950867 C23.7677002,13.9980774 23.8311462,14 23.8948059,14 C23.9172363,14 23.9396667,13.9997864 23.9620971,13.9993591 L23.9620971,22.8845825 L13.1922913,22.8845825 L13.1922913,17.769165 C13.1922913,16.4331665 12.1053772,15.3462525 10.769165,15.3462525 L8.61541745,15.3462525 C7.27920534,15.3462525 6.19229127,16.4331665 6.19229127,17.769165 L6.19229127,22.8845825 L4.03854369,22.8845825 L4.03854369,13.9993591 C4.06097409,13.9997864 4.08340455,14 4.10583496,14 C4.16949466,14 4.23294069,13.9980774 4.2959595,13.9950867 L4.2959595,13.9950867 Z M11.5768738,22.8845825 L7.80770873,22.8845825 L7.80770873,17.769165 C7.80770873,17.3239746 8.17001341,16.9614563 8.61541745,16.9614563 L10.769165,16.9614563 C11.2145691,16.9614563 11.5768738,17.3239746 11.5768738,17.769165 L11.5768738,22.8845825 Z M25.4422913,26.3845825 L2.55770873,26.3845825 C2.03817748,26.3845825 1.61541745,25.9618225 1.61541745,25.4422913 C1.61541745,24.92276 2.03817748,24.5 2.55770873,24.5 L25.4422913,24.5 C25.9618225,24.5 26.3845825,24.92276 26.3845825,25.4422913 C26.3845825,25.9618225 25.9618225,26.3845825 25.4422913,26.3845825 Z" id="Shape"></path>
                    <path d="M17.5180013,20.5333333 L19.8153321,20.5333333 C21.240625,20.5333333 22.4,19.4866505 22.4,18.1998971 C22.4,16.9133495 21.240625,15.8666667 19.8153321,15.8666667 L17.5180013,15.8666667 C16.0927083,15.8666667 14.9333333,16.9133495 14.9333333,18.1998971 C14.9333333,19.4866505 16.0927083,20.5333333 17.5180013,20.5333333 L17.5180013,20.5333333 Z M17.5180013,17.4220851 L19.8153321,17.4220851 C20.2904297,17.4220851 20.676888,17.771185 20.676888,18.1998971 C20.676888,18.6288149 20.2904297,18.9777092 19.8153321,18.9777092 L17.5180013,18.9777092 C17.0429037,18.9777092 16.6564453,18.6288149 16.6564453,18.1998971 C16.6564453,17.771185 17.0429037,17.4220851 17.5180013,17.4220851 L17.5180013,17.4220851 Z" id="Shape"></path>
                    <path d="M22.4,4.66666667 C22.4,4.15124746 22.0325171,3.73333333 21.5792954,3.73333333 L7.35403795,3.73333333 C6.90081624,3.73333333 6.53333333,4.15124746 6.53333333,4.66666667 C6.53333333,5.18208588 6.90081624,5.6 7.35403795,5.6 L21.5792954,5.6 C22.0325171,5.6 22.4,5.18208588 22.4,4.66666667 L22.4,4.66666667 Z" id="Path"></path>
                </g>
            </g>
        </g>
    </g>
</svg>