<?xml version="1.0" encoding="UTF-8"?>
<svg width="41px" height="41px" viewBox="0 0 41 41" version="1.1" xmlns="http://www.w3.org/2000/svg" xmlns:xlink="http://www.w3.org/1999/xlink">
    <!-- Generator: Sketch 64 (93537) - https://sketch.com -->
    <title>ico-domicilios-exito</title>
    <desc>Created with Sketch.</desc>
    <g id="Welcome" stroke="none" stroke-width="1" fill="none" fill-rule="evenodd">
        <g id="HOME---Desktop-HD" transform="translate(-280.000000, -849.000000)">
            <g id="ico-domicilios-exito" transform="translate(280.000000, 849.000000)">
                <rect id="Rectangle-Copy-9" fill="#FFEB00" x="0" y="0" width="41" height="41" rx="10"></rect>
                <g id="Group-17" transform="translate(6.000000, 5.703309)" fill="#000000" fill-rule="nonzero">
                    <path d="M27.1281818,11.0761026 L20.8009091,11.0761026 C20.3010077,11.0761026 19.8957576,11.4829967 19.8957576,11.9849261 C19.8957576,12.4868555 20.3010077,12.8937496 20.8009091,12.8937496 L27.1281818,12.8937496 L27.1281818,15.6113967 L1.81030303,15.6113967 L1.81030303,12.8937496 L8.13757576,12.8937496 C8.63747714,12.8937496 9.04272727,12.4868555 9.04272727,11.9849261 C9.04272727,11.4829967 8.63747714,11.0761026 8.13757576,11.0761026 L1.81030303,11.0761026 C0.810500274,11.0761026 1.4033219e-13,11.8898909 1.4033219e-13,12.8937496 L1.4033219e-13,15.6113967 C1.4033219e-13,16.6152554 0.810500274,17.4290437 1.81030303,17.4290437 L2.83848485,17.4290437 L4.53454545,28.467279 C4.59225361,28.9093308 4.9693176,29.2387073 5.41333333,29.2349583 L23.5163636,29.2349583 C23.9603794,29.2387073 24.3374434,28.9093308 24.3951515,28.467279 L26.1,17.4290437 L27.1281818,17.4290437 C28.1279846,17.4290437 28.9384848,16.6152554 28.9384848,15.6113967 L28.9384848,12.8937496 C28.9384848,11.8898909 28.1279846,11.0761026 27.1281818,11.0761026 Z M22.7342424,27.417279 L6.20424242,27.417279 L4.67515152,17.4290437 L24.2633333,17.4290437 L22.7342424,27.417279 Z" id="Shape"></path>
                    <path d="M14.4736364,14.7113967 C16.4698091,14.7065319 18.0854604,13.0803793 18.0854545,11.0761026 L18.0854545,3.81433786 C18.1512596,2.47444401 17.4767669,1.20706371 16.3307965,0.517313019 C15.184826,-0.172437673 13.7536588,-0.172437673 12.6076884,0.517313019 C11.4617179,1.20706371 10.7872253,2.47444401 10.8530303,3.81433786 L10.8530303,11.0761026 C10.8530303,13.0838201 12.4740309,14.7113967 14.4736364,14.7113967 L14.4736364,14.7113967 Z M12.6633333,3.81433786 C12.6162,3.13633999 12.949726,2.48858201 13.5279205,2.13517869 C14.106115,1.78177537 14.8323699,1.78177537 15.4105644,2.13517869 C15.9887589,2.48858201 16.3222848,3.13633999 16.2751515,3.81433786 L16.2751515,11.0761026 C16.3222848,11.7541004 15.9887589,12.4018584 15.4105644,12.7552617 C14.8323699,13.1086651 14.106115,13.1086651 13.5279205,12.7552617 C12.949726,12.4018584 12.6162,11.7541004 12.6633333,11.0761026 L12.6633333,3.81433786 Z" id="Shape"></path>
                    <path d="M14.4736364,9.2584555 L14.4736364,9.2584555 C13.9882952,9.2584555 13.5948485,9.65349837 13.5948485,10.1408084 L13.5948485,10.1408084 C13.5948485,10.6281185 13.9882952,11.0231614 14.4736364,11.0231614 L14.4736364,11.0231614 C14.9589775,11.0231614 15.3524242,10.6281185 15.3524242,10.1408084 L15.3524242,10.1408084 C15.3524242,9.65349837 14.9589775,9.2584555 14.4736364,9.2584555 Z" id="Path"></path>
                    <path d="M12.6633333,25.599632 C13.1486745,25.599632 13.5421212,25.2045891 13.5421212,24.717279 L13.5421212,20.1555143 C13.5421212,19.653585 13.1368711,19.2466908 12.6369697,19.2466908 C12.1370683,19.2466908 11.7318182,19.653585 11.7318182,20.1555143 L11.7318182,24.6908084 C11.7239503,24.9388534 11.8204819,25.1787575 11.9977465,25.351704 C12.1750111,25.5246505 12.4166182,25.614648 12.6633333,25.599632 L12.6633333,25.599632 Z" id="Path"></path>
                    <path d="M9.04272727,25.599632 C9.52806842,25.599632 9.92151515,25.2045891 9.92151515,24.717279 L9.92151515,20.1555143 C9.92151515,19.653585 9.51626501,19.2466908 9.01636364,19.2466908 C8.51646226,19.2466908 8.11121212,19.653585 8.11121212,20.1555143 L8.11121212,24.6908084 C8.10334422,24.9388534 8.19987581,25.1787575 8.37714045,25.351704 C8.55440508,25.5246505 8.79601213,25.614648 9.04272727,25.599632 L9.04272727,25.599632 Z" id="Path"></path>
                    <path d="M16.2751515,25.599632 C16.7604927,25.599632 17.1539394,25.2045891 17.1539394,24.717279 L17.1539394,20.1555143 C17.1539394,19.653585 16.7486893,19.2466908 16.2487879,19.2466908 C15.7488865,19.2466908 15.3436364,19.653585 15.3436364,20.1555143 L15.3436364,24.6908084 C15.3357685,24.9388534 15.4323001,25.1787575 15.6095647,25.351704 C15.7868293,25.5246505 16.0284364,25.614648 16.2751515,25.599632 L16.2751515,25.599632 Z" id="Path"></path>
                    <path d="M19.8957576,25.599632 C20.3810987,25.599632 20.7745455,25.2045891 20.7745455,24.717279 L20.7745455,20.1555143 C20.7745455,19.653585 20.3692953,19.2466908 19.8693939,19.2466908 C19.3694926,19.2466908 18.9642424,19.653585 18.9642424,20.1555143 L18.9642424,24.6908084 C18.9563745,24.9388534 19.0529061,25.1787575 19.2301707,25.351704 C19.4074354,25.5246505 19.6490424,25.614648 19.8957576,25.599632 L19.8957576,25.599632 Z" id="Path"></path>
                </g>
            </g>
        </g>
    </g>
</svg>