<?xml version="1.0" encoding="UTF-8"?>
<svg width="41px" height="41px" viewBox="0 0 41 41" version="1.1" xmlns="http://www.w3.org/2000/svg" xmlns:xlink="http://www.w3.org/1999/xlink">
    <!-- Generator: Sketch 64 (93537) - https://sketch.com -->
    <title>ico-almacenes</title>
    <desc>Created with Sketch.</desc>
    <g id="Welcome" stroke="none" stroke-width="1" fill="none" fill-rule="evenodd">
        <g id="HOME---Desktop-HD" transform="translate(-280.000000, -649.000000)">
            <g id="ico-almacenes" transform="translate(280.000000, 649.000000)">
                <rect id="Rectangle" fill="#FFEB00" x="0" y="0" width="41" height="41" rx="10"></rect>
                <g id="place" transform="translate(10.000000, 7.000000)" fill="#000000" fill-rule="nonzero">
                    <path d="M20.026237,4.86833594 C17.9502947,1.77466406 14.6602392,0 11.00032,0 C7.34040084,0 4.05034535,1.77466406 1.97440303,4.86833594 C-0.0913420104,7.94636719 -0.568330215,11.8432344 0.69591956,15.2860859 C1.0340761,16.2262734 1.57161063,17.1397188 2.28977504,17.9956875 L10.2764728,27.6553594 C10.4571026,27.874 10.7217538,28 11.00032,28 C11.2788862,28 11.5435374,27.8740547 11.7241673,27.6553594 L19.7086344,17.9983125 C20.4299854,17.1374219 20.9668295,16.2249609 21.3021712,15.2923203 C22.5689703,11.8432344 22.0919821,7.94636719 20.026237,4.86833594 Z M19.5216843,14.6066484 C19.2630878,15.3262266 18.8409099,16.0376563 18.2675787,16.7219609 C18.2659854,16.7236016 18.264392,16.7252422 18.2631174,16.7272109 L11.00032,25.5110078 L3.73306136,16.7216875 C3.16004881,16.0379844 2.73787096,15.3266094 2.4767251,14.6001406 C1.43118565,11.7528359 1.82797652,8.53086719 3.53846334,5.98182813 C5.25431436,3.42464063 7.97422527,1.95803125 11.00032,1.95803125 C14.0263617,1.95803125 16.7459539,3.42458594 18.461858,5.98182813 C20.1726635,8.53086719 20.5697731,11.7528359 19.5216843,14.6066484 Z" id="Shape"></path>
                    <path d="M11,5.6 C7.967462,5.6 5.5,8.11198979 5.5,11.2 C5.5,14.2880102 7.96713283,16.8 11,16.8 C14.0328672,16.8 16.5,14.2880102 16.5,11.2 C16.5,8.11232494 14.032538,5.6 11,5.6 Z M11,14.7999601 C9.05043291,14.7999601 7.46427004,13.1849579 7.46427004,11.1999441 C7.46427004,9.21493038 9.05043291,7.59992818 11,7.59992818 C12.9495671,7.59992818 14.53573,9.21493038 14.53573,11.1999441 C14.53573,13.1849579 12.9495671,14.7999601 11,14.7999601 Z" id="Shape"></path>
                </g>
            </g>
        </g>
    </g>
</svg>