<?xml version="1.0" encoding="UTF-8"?>
<svg width="41px" height="41px" viewBox="0 0 41 41" version="1.1" xmlns="http://www.w3.org/2000/svg" xmlns:xlink="http://www.w3.org/1999/xlink">
    <!-- Generator: Sketch 64 (93537) - https://sketch.com -->
    <title>ico-sin-filas</title>
    <desc>Created with Sketch.</desc>
    <g id="Welcome" stroke="none" stroke-width="1" fill="none" fill-rule="evenodd">
        <g id="HOME---Desktop-HD" transform="translate(-581.000000, -748.000000)">
            <g id="ico-sin-filas" transform="translate(581.000000, 748.000000)">
                <rect id="Rectangle-Copy-50" fill="#FFEB00" x="0" y="0" width="41" height="41" rx="10"></rect>
                <g id="Group-9" transform="translate(5.000000, 7.000000)" fill="#000000" fill-rule="nonzero">
                    <path d="M29.6314286,5.88848485 C29.4544986,5.66907125 29.1864657,5.54109068 28.9028571,5.54060606 L10.2857143,5.54060606 C9.93213984,5.50696601 9.58987886,5.67470748 9.40254403,5.97344617 C9.21520921,6.27218486 9.21520921,6.65023938 9.40254403,6.94897807 C9.58987886,7.24771676 9.93213984,7.41545823 10.2857143,7.38181818 L27.7285714,7.38181818 L25.3628571,17.5636364 L12.12,17.5636364 C11.7664256,17.5299963 11.4241646,17.6977378 11.2368297,17.9964765 C11.0494949,18.2952152 11.0494949,18.6732697 11.2368297,18.9720084 C11.4241646,19.2707471 11.7664256,19.4384885 12.12,19.4048485 L26.1085714,19.4048485 C26.5482705,19.3986317 26.9252413,19.0923564 27.0171429,18.6666667 L29.8114286,6.66909091 C29.8742189,6.39533167 29.8079997,6.10815912 29.6314286,5.88848485 Z" id="Path"></path>
                    <path d="M27.9685714,21.2121212 L10.1057143,21.2121212 L6.51428571,0.763636364 C6.51749512,0.732606359 6.51749512,0.701333035 6.51428571,0.67030303 C6.48720581,0.605292118 6.44956604,0.545103584 6.40285714,0.492121212 C6.37940211,0.443893705 6.35065773,0.398367255 6.31714286,0.356363636 C6.27581267,0.306969974 6.22989768,0.261518768 6.18,0.220606061 L6.05142857,0.135757576 C5.99554027,0.101695191 5.93488978,0.0759646813 5.87142857,0.0593939394 C5.81500916,0.0466646522 5.75641941,0.0466646522 5.7,0.0593939394 L5.59714286,-4.08562073e-14 L0.934285714,-4.08562073e-14 C0.418293962,-4.08562073e-14 -2.0250468e-13,0.414068771 -2.0250468e-13,0.924848485 C-2.0250468e-13,1.4356282 0.418293962,1.84969697 0.934285714,1.84969697 L4.80857143,1.84969697 L8.39142857,22.2133333 C7.21715363,23.3864808 7.12173139,25.2460426 8.16987331,26.5309397 C9.21801523,27.8158369 11.074513,28.1151439 12.4803656,27.225883 C13.8862181,26.3366222 14.391817,24.5431896 13.6542857,23.0618182 L19.9028571,23.0618182 C19.6944555,23.4940624 19.5833253,23.9659374 19.5771429,24.4448485 C19.5771429,26.2302345 21.0392529,27.6775758 22.8428571,27.6775758 C24.6464613,27.6775758 26.1085714,26.2302345 26.1085714,24.4448485 C26.1036793,23.9648133 25.9894123,23.4920599 25.7742857,23.0618182 L27.9685714,23.0618182 C28.3221459,23.0954582 28.6644069,22.9277168 28.8517417,22.6289781 C29.0390765,22.3302394 29.0390765,21.9521849 28.8517417,21.6534462 C28.6644069,21.3547075 28.3221459,21.186966 27.9685714,21.2206061 L27.9685714,21.2121212 Z M12.1200263,24.4363636 C12.1200263,24.9957472 11.7795971,25.5000502 11.2575206,25.714117 C10.7354441,25.9281838 10.134508,25.8098576 9.73492795,25.4143137 C9.3353479,25.0187698 9.21581428,24.4239039 9.43206545,23.9071009 C9.64831662,23.3902978 10.1577656,23.0533333 10.7228571,23.0533333 C11.0956779,23.0555768 11.4523278,23.2043384 11.7143444,23.4668908 C11.976361,23.7294433 12.1222802,24.0842785 12.1200263,24.4533333 L12.1200263,24.4363636 Z M24.2400263,24.4363636 C24.2400263,25.2001902 23.6144778,25.8193939 22.8428571,25.8193939 C22.0712364,25.8193939 21.4457143,25.2001902 21.4457143,24.4363636 C21.4457143,23.6725371 22.0712364,23.0533333 22.8428571,23.0533333 C23.2156779,23.0555768 23.5723278,23.2043384 23.8343444,23.4668908 C24.096361,23.7294433 24.2422802,24.0842785 24.2400263,24.4533333 L24.2400263,24.4363636 Z" id="Shape"></path>
                    <path d="M23.3057143,15.6884872 C23.7498049,15.6894657 24.1332251,15.3808619 24.2228571,14.950303 L25.1571429,10.3345455 C25.258921,9.83313785 24.9308097,9.34499257 24.4242857,9.24424244 C23.9177617,9.14349232 23.4246353,9.46828937 23.3228571,9.96969697 L22.3971429,14.5854545 C22.3470636,14.8277266 22.3980275,15.0797502 22.538457,15.2842721 C22.6788865,15.488794 22.8968591,15.6284504 23.1428571,15.6715152 L23.3057143,15.6884872 Z" id="Path"></path>
                    <path d="M19.5771429,15.6884872 C20.0212334,15.6894657 20.4046536,15.3808619 20.4942857,14.950303 L21.4285714,10.3345455 C21.5303496,9.83313785 21.2022383,9.34499256 20.6957143,9.24424244 C20.1891903,9.14349231 19.6960639,9.46828937 19.5942857,9.96969697 L18.6685714,14.5854545 C18.6181451,14.8252623 18.6668063,15.0750728 18.8036935,15.2791266 C18.9405808,15.4831805 19.1542983,15.6244905 19.3971429,15.6715152 L19.5771429,15.6884872 Z" id="Path"></path>
                    <path d="M11.94,15.6715152 L12.12,15.6715152 C12.5629221,15.6692476 12.9445366,15.3620971 13.0371429,14.9333333 L13.9628571,10.3175758 C14.0599003,9.98291412 13.9588483,9.62266025 13.7013906,9.38543815 C13.4439329,9.14821605 13.0737029,9.07422975 12.7434403,9.19400256 C12.4131778,9.31377536 12.1788551,9.60700837 12.1371429,9.95272727 L11.2028571,14.5684848 C11.1523273,14.8115689 11.2016795,15.064565 11.3400048,15.2715493 C11.4783301,15.4785336 11.694237,15.6224604 11.94,15.6715152 Z" id="Path"></path>
                    <path d="M15.8485714,15.6884848 C16.2914935,15.6862173 16.673108,15.3790668 16.7657143,14.950303 L17.7,10.3345455 C17.7946731,9.83409384 17.4666962,9.35087302 16.9628571,9.24848485 C16.7206024,9.1985679 16.4682428,9.24673758 16.2621068,9.38224209 C16.0559707,9.51774661 15.9132188,9.72930536 15.8657143,9.96969697 L14.9314286,14.5854545 C14.8367555,15.0859062 15.1647324,15.569127 15.6685714,15.6715152 L15.8485714,15.6884848 Z" id="Path"></path>
                </g>
            </g>
        </g>
    </g>
</svg>