<?xml version="1.0" encoding="UTF-8"?>
<svg width="41px" height="41px" viewBox="0 0 41 41" version="1.1" xmlns="http://www.w3.org/2000/svg" xmlns:xlink="http://www.w3.org/1999/xlink">
    <!-- Generator: Sketch 64 (93537) - https://sketch.com -->
    <title>ico-rappi</title>
    <desc>Created with Sketch.</desc>
    <g id="Welcome" stroke="none" stroke-width="1" fill="none" fill-rule="evenodd">
        <g id="HOME---Desktop-HD" transform="translate(-280.000000, -899.000000)">
            <g id="ico-rappi" transform="translate(280.000000, 899.000000)">
                <rect id="Rectangle-Copy-11" fill="#FD6250" x="0" y="0" width="41" height="41" rx="10"></rect>
                <g id="Group-4-Copy" transform="translate(5.000000, 9.000000)" fill="#FFFFFF" fill-rule="nonzero">
                    <path d="M3.33383394,8.30045124 C3.2698249,8.54364522 3.21189494,8.77945791 3.16075922,9.00439291 C3.09663099,9.28773073 3.03774744,9.5449103 2.98410858,9.77593163 C2.93154249,10.0020321 2.89435288,10.1842333 2.87361253,10.3170965 C2.83105903,10.5529092 2.68909485,10.7017004 2.46238127,10.7502615 C2.25454381,10.7912896 2.0404778,10.7733591 1.84088567,10.698204 C1.62306968,10.6200313 1.42540424,10.4868981 1.26408913,10.3097152 C1.08734541,10.1203762 0.99031652,9.86021869 0.995894834,9.59062248 C0.995894834,9.35752921 1.04953369,8.99196127 1.15931456,8.46983235 C1.26659228,7.96091205 1.4210722,7.356812 1.61917839,6.67462571 C1.81728458,5.99243941 2.05401074,5.25042584 2.32792652,4.45674327 C2.56322232,3.77455697 2.82641033,3.0880973 3.11248425,2.41134985 C3.2062341,2.18977177 3.39946579,2.03725809 3.62241101,2.00887547 C4.12733148,1.94594029 4.56597816,1.96160934 4.93835104,2.05588262 C5.04454714,2.08309655 5.13404029,2.16034272 5.18244832,2.26657563 C5.23085636,2.37280853 5.23313584,2.49696015 5.18866572,2.60520575 C4.94907881,3.18793892 4.72808671,3.76639871 4.5310533,4.3308729 C4.37156709,4.78773571 4.21815995,5.23993665 4.07405021,5.68009443 C4.06750011,5.69971299 4.07245651,5.7216862 4.08661365,5.73579192 C4.10077079,5.74989763 4.12134873,5.75336603 4.13877444,5.74458357 C4.33538561,5.64601323 4.52537757,5.53255402 4.70734635,5.40504438 C5.0111525,5.19330189 5.28834283,4.93956607 5.53195443,4.65021068 C5.7722648,4.36348255 5.97010847,4.03793073 6.11840596,3.68520455 C6.26657756,3.3315406 6.34234248,2.94715706 6.34047084,2.5585871 C6.34047084,2.04422795 6.20959202,1.66506291 5.95105272,1.43002719 C5.69251341,1.19499148 5.3213325,1.07261752 4.85610479,1.07261752 C4.38415702,1.06604344 3.91922485,1.19711527 3.5097694,1.45217105 C3.11368152,1.69940218 2.75924593,2.01811718 2.46166608,2.39464483 C2.18169328,2.74757053 1.95261284,3.14458884 1.78224052,3.57215432 C1.6234695,3.97967905 1.54122324,4.33670024 1.54122324,4.63389415 C1.54988088,4.83454654 1.42873601,5.01466407 1.25014303,5.06667065 C1.07549759,5.12435355 0.887919376,5.11516539 0.718760724,5.0406419 C0.539964524,4.9679945 0.373326465,4.82503063 0.22492562,4.61563518 C0.0765247736,4.40623973 0,4.1199235 0,3.76834115 C0,3.46143502 0.10727772,3.09975196 0.327197046,2.66270209 C0.541752486,2.23536443 0.858936944,1.82201237 1.26945302,1.43041568 C1.67996909,1.03881899 2.19919326,0.69966829 2.80710034,0.420344859 C3.41500742,0.141021427 4.13484092,0 4.9215442,0 C5.37103764,0.000238988632 5.81899084,0.0570786305 6.25643663,0.169381107 C6.67478136,0.273109857 7.0758499,0.446481074 7.44543136,0.683351762 C7.78415424,0.900245434 8.07666779,1.19274193 8.30365312,1.54152347 C8.52783647,1.89533328 8.64472621,2.3163668 8.63800201,2.74583869 C8.6414816,3.21866228 8.5408205,3.68553312 8.34441865,4.10749186 C8.14485083,4.5276549 7.87741347,4.90544137 7.55485463,5.22284314 C7.20790339,5.56413615 6.8196641,5.8523397 6.40090396,6.0794609 C6.03277017,6.28138453 5.65006497,6.45029164 5.25660828,6.58449631 C5.24583671,6.58648975 5.23623826,6.5930585 5.22993173,6.60275253 C5.22362519,6.61244657 5.22112915,6.62446877 5.22299459,6.63616532 C5.2319344,6.85255357 5.24588051,7.06544542 5.26554809,7.27134447 C5.288434,7.50715716 5.31811417,7.737531 5.3545886,7.9558617 C5.39106302,8.17419239 5.43361652,8.37931447 5.48296427,8.57744374 C5.52086906,8.73050832 5.56342256,8.87968801 5.60919438,9.02070944 C5.63815937,9.11083884 5.66855472,9.19902579 5.70002285,9.28216239 C5.76006348,9.44427113 5.82810476,9.60274551 5.90385052,9.75689568 C5.97365204,9.89835939 6.05090091,10.0353346 6.1352128,10.1671398 C6.21320327,10.2880707 6.29812044,10.4035505 6.389461,10.5128948 C6.4742279,10.6138433 6.56539863,10.708218 6.662304,10.7953262 C6.75305564,10.8766968 6.84927752,10.9505859 6.95016588,11.0163763 C7.04654705,11.078706 7.14720986,11.1328666 7.25125868,11.1783761 C7.35282119,11.2225299 7.45744698,11.2578637 7.56415203,11.2840451 C7.67138696,11.3099374 7.7802977,11.3268219 7.88991871,11.3345486 C8.00312089,11.3420279 8.11668133,11.3402098 8.22963149,11.3291098 C8.34884133,11.3175099 8.46714368,11.2967384 8.58364797,11.2669516 C8.70837176,11.2346746 8.83104356,11.1936682 8.95089536,11.1441891 C9.08045476,11.0907856 9.2069166,11.0289025 9.32958571,10.95888 C9.3772647,10.9316857 9.42494369,10.9029376 9.47262267,10.8726354 C9.62925403,10.7743189 9.82899475,10.8212017 9.93429547,10.9809984 C10.0395962,11.1407952 10.0160711,11.3613245 9.87992042,11.4907211 C9.81340823,11.5540448 9.74618086,11.6158145 9.67966867,11.6752533 C9.51875209,11.8189941 9.35783551,11.9518573 9.19942208,12.0711233 C9.04923327,12.1841736 8.89689891,12.2890655 8.7467101,12.3819144 C8.6712581,12.4289215 8.59223018,12.4751517 8.51212949,12.5194394 C8.36099468,12.6028394 8.2058104,12.6772795 8.04725937,12.7424319 C7.89748867,12.8042774 7.74439501,12.8561716 7.58882591,12.8978275 C7.44078165,12.9369244 7.29049569,12.9652177 7.13897467,12.982518 C7.03477724,12.9940941 6.93010696,13 6.82536614,13 C6.78352783,13 6.74204711,13 6.70056639,12.9972806 C6.55849643,12.9904986 6.41709186,12.9721886 6.27753458,12.9425037 C6.20923443,12.9281296 6.14057669,12.9102591 6.07334932,12.8896692 C6.00612195,12.8690793 5.94175532,12.8469354 5.87524313,12.8205182 C5.74532234,12.7689881 5.61920404,12.7067793 5.49798315,12.6344321 C5.37675064,12.5620215 5.26047126,12.4802276 5.15004574,12.3896841 C5.05865172,12.31471 4.97114623,12.2342994 4.88793051,12.1488211 C4.78404231,12.0420638 4.68635111,11.9284067 4.59541993,11.8085049 C4.50157624,11.6844054 4.41418754,11.5547071 4.33366229,11.4200161 C4.25213123,11.2832681 4.17453368,11.1379733 4.1030152,10.9876281 C4.03149672,10.837283 3.96426934,10.6768371 3.90312104,10.5132833 C3.84197274,10.3497296 3.78547314,10.177629 3.73397984,9.99892418 C3.68248653,9.82021935 3.63742989,9.63724113 3.59666436,9.44610465 C3.55589882,9.25496817 3.52049718,9.05761587 3.48938664,8.85637869 C3.46328239,8.67961629 3.44111166,8.4958611 3.42358964,8.30977498 C3.42174695,8.28471956 3.40357494,8.26473979 3.38053587,8.26243822 C3.3574968,8.26013664 3.33627567,8.27618107 3.33025802,8.30045124" id="Path"></path>
                    <path d="M31.9987972,1.49997885 C31.9987969,2.10680923 31.6333117,2.65385685 31.0728361,2.88593063 C30.5123605,3.11800441 29.8673262,2.98937835 29.4386338,2.56005495 C29.0099415,2.13073155 28.8820573,1.48530133 29.1146377,0.924849651 C29.3472181,0.364397974 29.8944372,-0.000648152448 30.5010241,0 C30.8986467,0 31.2799778,0.158046589 31.5611018,0.439358563 C31.8422259,0.720670538 32.0001063,1.10219684 32,1.49997885" id="Path"></path>
                    <path d="M31.9519522,7.14208544 C31.8746025,7.02644313 31.7466636,6.95776054 31.6103183,6.95868298 C31.4814612,6.95764465 31.36055,7.02271125 31.2877914,7.13224626 C31.2029561,7.25858143 31.096721,7.40774352 30.9771109,7.57776468 C30.8446422,7.76271576 30.7018636,7.93959372 30.5494953,8.10750656 C30.4143303,8.25860012 30.2701082,8.4008253 30.1176761,8.53334661 C29.9751376,8.65535254 29.8830417,8.68093443 29.8306884,8.68093443 C29.7924743,8.68093443 29.7259818,8.68093443 29.7106962,8.49556413 C29.6946462,8.30153534 29.7225425,8.04925856 29.7936207,7.74778585 C29.8776056,7.39851329 29.9821227,7.05482009 30.1065941,6.7186068 C30.2441648,6.34117555 30.3821176,5.98066771 30.5166312,5.64692246 C30.6564947,5.30018948 30.7768691,5.01209806 30.8838685,4.76572479 C30.990868,4.51935153 31.0577426,4.36113739 31.083346,4.29344378 C31.1689456,4.09154364 31.13761,3.89239848 30.9931608,3.7176545 C30.8543075,3.55343659 30.670037,3.43684931 30.4650422,3.38351568 C30.2407706,3.32341433 30.005733,3.31990418 29.7798636,3.37328293 C29.5231547,3.42807765 29.3013071,3.59299648 29.1699669,3.8266727 C29.0415676,4.04274127 28.874572,4.3827836 28.6731838,4.83656695 C28.4717956,5.29035029 28.2769037,5.79647811 28.0942404,6.33763344 C27.9834196,6.66586875 27.8810058,6.999614 27.7885278,7.33532709 C27.6346596,7.89414319 27.3180082,8.39087845 26.8813254,8.75846723 C26.7238346,8.89087308 26.5596678,9.01462542 26.3895101,9.12920782 C26.313082,9.18010922 26.2366538,9.22720614 26.1602256,9.27049856 C26.1495473,9.27698281 26.1358924,9.27465711 26.1278096,9.26497744 C26.1197268,9.25529777 26.119538,9.24104491 26.1273615,9.23114181 C26.2595823,9.0519374 26.3890006,8.85895813 26.5156166,8.652204 C26.8013841,8.17392491 27.0381789,7.66638973 27.222195,7.1377562 C27.4423082,6.52418445 27.580261,5.96492501 27.6322321,5.47453989 C27.6842033,4.98415476 27.6666248,4.54532698 27.577586,4.18757411 C27.4858722,3.81801422 27.3249909,3.52756139 27.0995278,3.32172558 C26.8664219,3.11116696 26.5779056,3.0041166 26.2427681,3.0041166 C25.8603021,3.00033146 25.4850903,3.1116784 25.1632202,3.32448055 C24.9471621,3.46681397 24.74394,3.62882621 24.5559984,3.8085686 C24.5407128,3.8231306 24.5281021,3.82155633 24.5177843,3.80345222 C24.4729614,3.7315327 24.4172248,3.66748558 24.3526995,3.61375268 C24.1914032,3.47862056 23.999428,3.38788808 23.7947739,3.35006244 C23.5791901,3.30790303 23.3567124,3.32335001 23.1485737,3.39492914 C22.9222577,3.47054727 22.738308,3.64251404 22.6433835,3.86721016 C22.4374096,4.32414204 22.2199715,4.85781959 21.9968012,5.45289367 C21.773631,6.04796775 21.5573393,6.66783659 21.3513654,7.29872532 C21.328819,7.36878033 21.3058906,7.43883535 21.2833443,7.50889037 C21.1096768,8.0468507 20.7835933,8.51893738 20.3470992,8.86433689 C20.232457,8.95525098 20.1128469,9.0422294 19.9905618,9.12487858 C19.9141337,9.17564879 19.8377055,9.22287689 19.7612773,9.26656289 C19.7506232,9.27257629 19.7373326,9.27005033 19.7294642,9.26051659 C19.7215958,9.25098285 19.7213164,9.23706676 19.7287954,9.22720614 C19.8607613,9.04800173 19.9901797,8.85502246 20.1170505,8.64826832 C20.4026612,8.16990112 20.639448,7.6623831 20.8236289,7.13382053 C21.0433598,6.52024877 21.1813127,5.96059577 21.233666,5.47060421 C21.2864014,4.97392201 21.2680587,4.54099774 21.1790198,4.18363844 C21.087306,3.81407854 20.9264247,3.52362572 20.7009617,3.31778991 C20.4678557,3.10723129 20.1793394,3.00008825 19.8442019,3.00008825 C19.4616183,2.99641062 19.0862881,3.10775327 18.7642719,3.32054488 C18.5484028,3.46298039 18.3453162,3.62498658 18.1574322,3.80463292 C18.1421466,3.81919492 18.129536,3.81762065 18.1192182,3.79912298 C18.0742523,3.7273096 18.0183861,3.66339473 17.9537512,3.609817 C17.7920663,3.47763986 17.6005233,3.38976854 17.396972,3.35439169 C17.1813789,3.3123906 16.9589403,3.32783487 16.7507718,3.39925838 C16.5244125,3.47495924 16.3403723,3.64688066 16.2451995,3.8715394 C16.0392256,4.32925842 15.8217875,4.86293597 15.5989993,5.45722292 C15.3899683,6.01530165 15.1866694,6.5950266 14.9936883,7.1814422 C14.8578029,7.60875176 14.6215178,7.99486771 14.3058348,8.30547102 C14.2217638,8.38969446 14.1399856,8.46604656 14.0608825,8.53334661 C13.9179618,8.65535254 13.8258659,8.68093443 13.7735126,8.68093443 C13.7372092,8.68093443 13.668806,8.68093443 13.6539025,8.49556413 C13.6378526,8.30192891 13.6653667,8.04965213 13.7364449,7.74778585 C13.820484,7.39852895 13.9250001,7.05483912 14.0494183,6.7186068 C14.1854604,6.34511123 14.3237954,5.98460338 14.4598375,5.64692246 C14.5958797,5.30924153 14.7208397,5.01013022 14.8270749,4.76572479 C14.93331,4.52131937 15.0009489,4.36035025 15.0261702,4.29344378 C15.1121519,4.09154364 15.0808164,3.89239848 14.935985,3.7176545 C14.7945506,3.55170154 14.6067478,3.4348532 14.3983128,3.38312211 C14.1740976,3.32347601 13.93926,3.32010185 13.7135165,3.37328293 C13.4613035,3.43035022 13.2595331,3.58423511 13.1139375,3.83021481 C13.0848948,3.87862362 13.0547057,3.9321488 13.0226058,3.99197106 C13.017386,4.00155358 13.0069439,4.00679833 12.9963985,4.00513418 C12.985853,4.00347003 12.9774148,3.99524583 12.9752204,3.98449328 C12.9484219,3.85241451 12.9035163,3.7249335 12.8418532,3.60588133 C12.7486539,3.42625787 12.6091515,3.27659204 12.4386946,3.17335063 C12.2602349,3.06315173 12.0340075,3.00687157 11.7657446,3.00687157 C11.1336837,3.00687157 10.4928335,3.30755715 9.86077254,3.89987626 C9.24017583,4.48196261 8.72543212,5.40999481 8.3322092,6.65996524 C8.14687089,7.2625171 8.0383429,7.81941514 8.00930019,8.3153102 C7.98025749,8.81120527 8.01923585,9.25042662 8.12623529,9.60266954 C8.23590971,9.96553879 8.41169449,10.2524495 8.64823967,10.4543496 C8.89247678,10.6634813 9.20156841,10.7752264 9.51913864,10.7692037 C9.7587229,10.7707673 9.99650288,10.7264602 10.2203671,10.6385392 C10.4266996,10.5572682 10.6222455,10.4494971 10.8023676,10.3177817 C10.9371755,10.218705 11.0624535,10.1065503 11.1764834,9.98285576 C11.2141376,9.94200146 11.2701167,9.92498036 11.3232779,9.93822127 C11.376439,9.95146217 11.4186799,9.99294707 11.4340464,10.0470073 C11.4684754,10.1703158 11.5211958,10.2874057 11.590342,10.3941338 C11.7554268,10.6428685 12.0168111,10.7692037 12.3672343,10.7692037 C12.7551072,10.7692037 13.1471837,10.619648 13.5323817,10.3240788 C13.7148183,10.1839954 13.8899546,10.0341004 14.0570611,9.87501826 C14.0739923,9.85915392 14.09909,9.85678907 14.1185354,9.86922579 C14.1379807,9.88166251 14.1470501,9.90587976 14.1407499,9.92854345 C14.0413933,10.2685858 13.9523545,10.5834398 13.8732513,10.879009 C13.7379735,11.3756912 13.6279169,11.8034991 13.5461388,12.1506256 C13.4364644,12.616216 13.4227073,12.7409769 13.4227073,12.8007992 C13.4156291,13.0666133 13.5070318,13.3252405 13.6783595,13.5241763 C13.8317719,13.7037875 14.0263074,13.8410986 14.2443101,13.9236473 C14.3736455,13.972485 14.5101062,13.9983041 14.6478508,14 C14.7181388,14 14.7882272,13.992294 14.8568818,13.9767789 C15.0097382,13.9413578 15.2008086,13.8370624 15.2569833,13.5438546 L15.2569833,13.5379511 C15.2791475,13.382492 15.3219472,13.1719333 15.3834719,12.9117852 C15.4472894,12.6417979 15.5252462,12.3348152 15.6146671,11.9987086 C15.7040881,11.6626019 15.8038268,11.2922549 15.9226726,10.8605113 C15.9777009,10.6611038 16.036678,10.452513 16.0996038,10.234739 C16.10531,10.2145974 16.1221427,10.1999111 16.1423714,10.1974248 C16.1626001,10.1949385 16.1823158,10.2051326 16.1924641,10.2233255 C16.2207758,10.2735609 16.2519095,10.3220521 16.2857064,10.3685519 C16.4786876,10.6349971 16.7866931,10.7703844 17.2028444,10.7711715 C17.2861511,10.7751072 17.3694578,10.777075 17.451236,10.777075 L17.451236,10.777075 C18.0322386,10.7813581 18.6087585,10.672115 19.1502341,10.4551368 C19.6274861,10.2623276 20.0822666,10.0150688 20.5060698,9.71798483 C20.5238381,9.70619854 20.5468342,9.70696701 20.5638232,9.7199148 C20.5808122,9.73286258 20.5882481,9.75528719 20.582498,9.77623282 C20.4678557,10.1698003 20.3612385,10.5401474 20.2691425,10.8782219 C20.1331004,11.3784462 20.0230438,11.8062541 19.94203,12.1498385 C19.8327377,12.616216 19.8185985,12.7425512 19.8185985,12.800012 C19.8115478,13.0658921 19.9030995,13.3245543 20.0746328,13.5233891 C20.2278047,13.7034639 20.4223947,13.8410841 20.6405834,13.9236473 C20.7697784,13.9725153 20.9061187,13.9983361 21.043742,14 C21.1140288,14 21.184115,13.9922726 21.252773,13.9767789 C21.4056294,13.9413578 21.5966998,13.8370624 21.6528745,13.5438546 L21.6528745,13.5379511 C21.6750386,13.3805241 21.7174563,13.1711462 21.7793631,12.9117852 C21.8431806,12.6421915 21.9207552,12.3348152 22.0086476,11.9987086 C22.09654,11.6626019 22.199718,11.290287 22.3170353,10.8605113 C22.3720635,10.660579 22.4309132,10.4519882 22.4935843,10.234739 C22.4994573,10.2146434 22.5163403,10.2000465 22.5365747,10.1975697 C22.5568091,10.1950928 22.5765438,10.2052075 22.5868267,10.2233255 C22.6150926,10.2735901 22.6462281,10.322084 22.680069,10.3685519 C22.8711395,10.6349971 23.1810557,10.7703844 23.5952964,10.7711715 C23.6786031,10.7751072 23.7622919,10.777075 23.8436879,10.777075 L23.8436879,10.777075 C24.425211,10.7822536 25.0024012,10.6736741 25.5445968,10.4571046 C26.1013051,10.2338371 26.6265549,9.93496804 27.1064064,9.56842917 C27.1828345,9.50860691 27.2592627,9.44799751 27.3326337,9.38660098 C27.3479984,9.37370237 27.3692424,9.37118055 27.3870534,9.38014099 C27.4048643,9.38910143 27.4159919,9.40790896 27.4155583,9.42831914 C27.4155583,9.44839108 27.4155583,9.46767589 27.4155583,9.4881414 C27.4155583,9.86281767 27.4919865,10.1682261 27.6448428,10.3961017 C27.8099276,10.6448363 28.071312,10.7711715 28.421353,10.7711715 C28.8088438,10.7711715 29.2035953,10.6216158 29.5941432,10.3268338 C29.9748654,10.038135 30.3244789,9.708282 30.6370055,9.34291498 C30.9351699,8.99854837 31.2110334,8.63436932 31.4628119,8.25273297 C31.6970642,7.89301226 31.8548884,7.64703257 31.9450736,7.50101902 C32.0161657,7.39494269 32.0184261,7.25526558 31.9508057,7.14680825 M12.1761639,5.23013446 C12.1418758,5.53083925 12.0883876,5.82889064 12.0160469,6.12235201 C11.9306128,6.47189637 11.8233911,6.81540579 11.6950486,7.15074393 C11.5612993,7.50298685 11.4187607,7.8343707 11.2712544,8.13466272 C11.1462625,8.39567637 11.0008222,8.64576373 10.8363781,8.88244099 C10.7262994,9.0450589 10.5944268,9.19081247 10.4446837,9.31536526 C10.3556449,9.38345244 10.3067309,9.3909307 10.2899167,9.3909307 C10.2825363,9.3909307 10.2752363,9.38935159 10.2685168,9.38620741 C10.2520848,9.37872963 10.1966743,9.34016001 10.1680138,9.16069323 C10.140034,8.95193584 10.1374665,8.74039766 10.160371,8.5309852 C10.1896159,8.23356507 10.2407145,7.93885666 10.3132273,7.64939397 C10.3982395,7.29972538 10.5054699,6.95618797 10.6342256,6.62100206 C10.7698856,6.26403632 10.9128063,5.93265247 11.0584019,5.63708327 C11.1843483,5.3741856 11.3300031,5.12180015 11.4940425,4.88222078 C11.6335239,4.68228848 11.7649803,4.53470066 11.8845904,4.44260586 C11.9736292,4.37451868 12.0225433,4.36741188 12.0397396,4.36741188 C12.0468118,4.36721797 12.0538473,4.36855979 12.0603752,4.37137014 C12.0771894,4.37963506 12.1368034,4.41938538 12.1708139,4.60121357 C12.2025316,4.76296982 12.2048244,4.97549628 12.1776924,5.23092159 M19.100938,5.2466643 C19.0466737,5.54607567 18.9761213,5.84211122 18.8896141,6.1333719 C18.7869655,6.48231559 18.6659016,6.8252293 18.5269624,7.16058312 C18.3691383,7.51479388 18.2063463,7.84814557 18.04279,8.14686331 C17.9010952,8.41060318 17.7412044,8.66352967 17.5643497,8.90369364 C17.4114933,9.10441307 17.2727762,9.25278802 17.1470519,9.34527639 C17.0526631,9.41493784 17.0006919,9.42399195 16.9827313,9.42399195 C16.9749778,9.42405763 16.9672968,9.42244868 16.960185,9.41926708 C16.9445172,9.4117893 16.8917818,9.37479395 16.8684712,9.19768857 C16.8474535,9.03671946 16.8589177,8.824193 16.9024817,8.56561914 C16.9557869,8.26366591 17.0263509,7.96521631 17.1138056,7.67182732 C17.2165143,7.32154265 17.3380962,6.97742474 17.4779858,6.641074 C17.615228,6.30404263 17.7731152,5.97632842 17.9506941,5.65991019 C18.0957893,5.39922671 18.2584715,5.14935329 18.4375415,4.91213191 C18.5574744,4.74864533 18.6980714,4.60238829 18.8556036,4.4772398 C18.9503745,4.40757835 19.0027278,4.39848295 19.0206884,4.39848295 C19.0281773,4.39820362 19.0356359,4.39968604 19.0424704,4.40285554 C19.0581382,4.40993976 19.1112558,4.44772224 19.1341842,4.62443405 C19.1555841,4.78579674 19.1441199,4.99596179 19.100938,5.247845 M25.4995041,5.247845 C25.4451523,5.54723688 25.374601,5.84326741 25.2881803,6.13455261 C25.1853787,6.48344381 25.0643178,6.82634905 24.9255286,7.16176382 C24.7680866,7.51597458 24.6049124,7.8489327 24.4413562,8.14804401 C24.2997988,8.41186892 24.1399016,8.66480537 23.9629158,8.90487434 C23.8100595,9.10559377 23.6713424,9.25436229 23.5460002,9.34645709 C23.4516114,9.41611854 23.3992581,9.42517119 23.3809153,9.42517119 C23.3732882,9.42517119 23.3657382,9.42359783 23.3587512,9.42044779 C23.3430834,9.41297 23.290348,9.37558109 23.2674195,9.19886927 C23.2460196,9.03711303 23.2574839,8.82458657 23.3010479,8.56679985 C23.3543609,8.26484832 23.4249248,7.9663992 23.5123718,7.67300802 C23.6152375,7.32282801 23.7366861,6.97872614 23.8761699,6.6422547 C24.0137383,6.30524053 24.1718785,5.97753094 24.3496424,5.66109089 C24.4943811,5.4001796 24.6570798,5.15028075 24.8364898,4.91331261 C24.9562235,4.74964852 25.0968453,4.60336566 25.2545519,4.47842051 C25.3493228,4.40875906 25.4012939,4.39966366 25.4192546,4.39966366 C25.4267435,4.39938432 25.4342021,4.40086674 25.4410366,4.40403625 C25.4567044,4.41112046 25.5094398,4.44890294 25.5331325,4.62561476 C25.5541503,4.78776457 25.5430682,4.99714249 25.4995041,5.2490257" id="Shape"></path>
                    <path d="M31.584137,18.1729293 C29.9007386,19.638375 28.4073952,19.7304332 26.6141036,18.4176692 C25.7895282,17.8148006 25.0511361,17.0959239 24.2243026,16.4971718 C23.5845133,16.0331389 22.9070894,15.572474 22.1784824,15.2858214 C20.9150868,14.7888572 19.6336266,14.9576304 18.4801242,15.6548024 C17.6965705,16.1281908 16.982641,16.7183358 16.2559157,17.2807886 C16.1539258,17.3586264 16.0775274,17.4012875 16,17.3982937 C15.9224726,17.4012875 15.8464506,17.3586264 15.7440843,17.2807886 C15.017359,16.7194585 14.3034295,16.1281908 13.5198758,15.6548024 C12.3675025,14.9576304 11.0849132,14.7888572 9.82189396,15.2858214 C9.09178153,15.572474 8.41548666,16.0342616 7.77607376,16.4971718 C6.94811121,17.0959239 6.21047184,17.8151749 5.38589641,18.4180434 C3.59298114,19.7308074 2.09963777,19.6387493 0.41812109,18.1733035 C0.278120149,18.0523057 0.138746452,17.931682 0,17.8114327 C0.250646846,19.1915563 0.790327892,20.4264825 1.58893541,21.5491427 C2.606953,22.9816571 3.94223079,24.0077686 5.61810227,24.5709698 C9.53587054,25.8900955 14.4844522,24.0534234 16,20.588894 C17.5159242,24.0534234 22.4645058,25.8900955 26.3818977,24.5717182 C28.0577692,24.0103881 29.3926706,22.9824056 30.4110646,21.5498911 C31.2089194,20.4272309 31.7497295,19.1923047 32,17.8114327 C31.8615044,17.9311831 31.7235107,18.051682 31.5860187,18.1729293" id="Path"></path>
                </g>
            </g>
        </g>
    </g>
</svg>