<?xml version="1.0" encoding="UTF-8"?>
<svg width="41px" height="41px" viewBox="0 0 41 41" version="1.1" xmlns="http://www.w3.org/2000/svg" xmlns:xlink="http://www.w3.org/1999/xlink">
    <!-- Generator: Sketch 64 (93537) - https://sketch.com -->
    <title>ico-cambios</title>
    <desc>Created with Sketch.</desc>
    <g id="Welcome" stroke="none" stroke-width="1" fill="none" fill-rule="evenodd">
        <g id="HOME---Desktop-HD" transform="translate(-581.000000, -649.000000)">
            <g id="ico-cambios" transform="translate(581.000000, 649.000000)">
                <rect id="Rectangle-Copy-54" fill="#FFEB00" x="0" y="0" width="41" height="41" rx="10"></rect>
                <path d="M23.1566442,27.7280952 L24.116132,28.6872285 C24.4429554,29.0162902 24.5403214,29.5092664 24.3631282,29.9378012 C24.1859351,30.3663359 23.7687925,30.6467271 23.3049287,30.6490922 L23.0432502,30.6490922 C22.7367147,30.6521608 22.4416104,30.5329074 22.2233243,30.3177552 L19.231467,27.327003 C18.7847209,26.8752289 18.7847209,26.1482505 19.231467,25.6964763 L22.2233243,22.7057242 C22.4407256,22.4881941 22.7356505,22.3658768 23.0432502,22.3656678 L23.3049287,22.3656678 C23.7685245,22.3728579 24.1833166,22.6552893 24.3597564,23.0838986 C24.5361962,23.512508 24.4403953,24.0049731 24.116132,24.3362509 L23.1566442,25.2866648 L35.3683066,25.2866648 C37.58863,17.8665627 33.7881054,9.97741873 26.6003974,7.08620403 C19.4126893,4.19498933 11.2051015,7.25393836 7.66527826,14.1432792 L15.7860337,14.1432792 L14.8352686,13.1841459 C14.5027945,12.8615891 14.3980745,12.3702708 14.5701446,11.9402545 C14.7422147,11.5102382 15.1570118,11.22665 15.620304,11.2222822 L15.8819825,11.2222822 C16.1869448,11.2228825 16.4790139,11.3453179 16.6931858,11.5623386 L19.6850431,14.5530907 C19.9034998,14.7663831 20.0266642,15.0587376 20.0266642,15.3639944 C20.0266642,15.6692512 19.9034998,15.9616057 19.6850431,16.174898 L16.6931858,19.1656502 C16.4790139,19.3826709 16.1869448,19.5051063 15.8819825,19.5057066 L15.620304,19.5057066 C15.1525983,19.5068717 14.7306595,19.2250995 14.5526764,18.792741 C14.3746932,18.3603826 14.4760351,17.8633576 14.8091007,17.5351235 L15.7598659,16.5847096 L6.67090004,16.5847096 C4.36837584,24.0356674 8.16603569,32.006714 15.4042743,34.9155067 C22.6425129,37.8242994 30.9027418,34.6988929 34.4000962,27.7280952 L23.1566442,27.7280952 Z" id="Path" fill="#000000" fill-rule="nonzero"></path>
            </g>
        </g>
    </g>
</svg>