<?xml version="1.0" encoding="UTF-8"?>
<svg width="48px" height="48px" viewBox="0 0 48 48" version="1.1" xmlns="http://www.w3.org/2000/svg" xmlns:xlink="http://www.w3.org/1999/xlink">
    <!-- Generator: Sketch 64 (93537) - https://sketch.com -->
    <title>ico-publicaciones</title>
    <desc>Created with Sketch.</desc>
    <g id="Welcome" stroke="none" stroke-width="1" fill="none" fill-rule="evenodd">
        <g id="HOME---Desktop-HD" transform="translate(-467.000000, -1079.000000)">
            <g id="ico-publicaciones" transform="translate(467.000000, 1079.000000)">
                <rect id="Rectangle-Copy-22" fill="#000000" x="0" y="0" width="48" height="48" rx="10"></rect>
                <g id="Shape-2" transform="translate(13.000000, 8.000000)" fill="#FFEB00" fill-rule="nonzero">
                    <path d="M20.7777778,4.75 L17.0986979,4.75 C16.3169054,2.00878906 13.8378472,0 10.9083333,0 C10.2332465,0 9.68611111,0.559570312 9.68611111,1.25 L9.68611111,4.75 L1.22222222,4.75 C0.547135417,4.75 0,5.30957031 0,6 L0,30.75 C0,31.4404297 0.547135417,32 1.22222222,32 L20.7777778,32 C21.4528646,32 22,31.4404297 22,30.75 L22,6 C22,5.30957031 21.4528646,4.75 20.7777778,4.75 Z M10.9083333,29.5 L2.44444444,29.5 L2.44444444,7.25 L9.68611111,7.25 L9.68611111,20.0625 C9.68611111,20.7529297 10.2332465,21.3125 10.9083333,21.3125 C13.1154948,21.3125 14.9111111,23.1489258 14.9111111,25.40625 C14.9111111,27.6635742 13.1154948,29.5 10.9083333,29.5 Z M14.9111111,20.2407226 C14.1149956,19.5939941 13.1665799,19.1354981 12.1305556,18.9313965 L12.1305556,2.69506837 C13.741645,3.2248535 14.9111111,4.77221681 14.9111111,6.59375 L14.9111111,20.2407226 Z M19.5555556,29.5 L15.9588324,29.5 C16.8327691,28.3745117 17.3555556,26.9516601 17.3555556,25.40625 L17.3555556,7.25 L19.5555556,7.25 L19.5555556,29.5 Z" id="Shape"></path>
                </g>
            </g>
        </g>
    </g>
</svg>