<?xml version="1.0" encoding="UTF-8"?>
<svg width="48px" height="48px" viewBox="0 0 48 48" version="1.1" xmlns="http://www.w3.org/2000/svg" xmlns:xlink="http://www.w3.org/1999/xlink">
    <!-- Generator: Sketch 64 (93537) - https://sketch.com -->
    <title>ico-actualidad</title>
    <desc>Created with Sketch.</desc>
    <g id="Welcome" stroke="none" stroke-width="1" fill="none" fill-rule="evenodd">
        <g id="HOME---Desktop-HD" transform="translate(-943.000000, -1079.000000)">
            <g id="ico-actualidad" transform="translate(943.000000, 1079.000000)">
                <rect id="Rectangle-Copy-28" fill="#000000" x="0" y="0" width="48" height="48" rx="10"></rect>
                <g id="Shape-6" transform="translate(8.000000, 7.000000)" fill="#FFEB00" fill-rule="nonzero">
                    <path d="M16.5,0 C7.38088989,0 0,7.37963106 0,16.5 C0,19.3940964 0.754806551,22.2207184 2.18813326,24.7137451 L0.0621872109,31.3156586 C-0.0861053789,31.7758941 0.035751375,32.2804413 0.377655029,32.622345 C0.716285689,32.9609756 1.21957397,33.0873642 1.6843414,32.9378128 L8.28625488,30.8118667 C10.7792816,32.2451934 13.6059036,33 16.5,33 C25.6191101,33 33,25.6203689 33,16.5 C33,7.38088989 25.6203689,0 16.5,0 Z M16.5,30.421875 C13.8858719,30.421875 11.3377075,29.6924973 9.13094331,28.3125458 C8.81346134,28.114151 8.41918945,28.060524 8.05236055,28.1786041 L3.28660587,29.7133941 L4.82139591,24.9476394 C4.93771362,24.5860977 4.88861845,24.1913223 4.68720244,23.8690567 C3.30750273,21.6622925 2.578125,19.1141281 2.578125,16.5 C2.578125,8.82353214 8.82353214,2.578125 16.5,2.578125 C24.1764679,2.578125 30.421875,8.82353214 30.421875,16.5 C30.421875,24.1764679 24.1764679,30.421875 16.5,30.421875 Z M18.1113281,16.5 C18.1113281,17.3897553 17.390007,18.1113281 16.5,18.1113281 C15.609993,18.1113281 14.8886719,17.3897553 14.8886719,16.5 C14.8886719,15.609993 15.609993,14.8886719 16.5,14.8886719 C17.390007,14.8886719 18.1113281,15.609993 18.1113281,16.5 Z M24.5566406,16.5 C24.5566406,17.3897553 23.8353195,18.1113281 22.9453125,18.1113281 C22.0553055,18.1113281 21.3339844,17.3897553 21.3339844,16.5 C21.3339844,15.609993 22.0553055,14.8886719 22.9453125,14.8886719 C23.8353195,14.8886719 24.5566406,15.609993 24.5566406,16.5 Z M11.6660156,16.5 C11.6660156,17.3897553 10.9446945,18.1113281 10.0546875,18.1113281 C9.16493222,18.1113281 8.44335938,17.3897553 8.44335938,16.5 C8.44335938,15.609993 9.16493222,14.8886719 10.0546875,14.8886719 C10.9446945,14.8886719 11.6660156,15.609993 11.6660156,16.5 Z" id="Shape"></path>
                </g>
            </g>
        </g>
    </g>
</svg>