<?xml version="1.0" encoding="UTF-8"?>
<svg width="342px" height="61px" viewBox="0 0 342 61" version="1.1" xmlns="http://www.w3.org/2000/svg" xmlns:xlink="http://www.w3.org/1999/xlink">
    <!-- Generator: Sketch 64 (93537) - https://sketch.com -->
    <title>head-estacion</title>
    <desc>Created with Sketch.</desc>
    <g id="Welcome" stroke="none" stroke-width="1" fill="none" fill-rule="evenodd">
        <g id="HOME---Aliados---EDS---Desktop-HD" transform="translate(-964.000000, -249.000000)">
            <g id="head-estacion" transform="translate(930.000000, 219.000000)">
                <rect id="Rectangle" x="0" y="0" width="409.6" height="128"></rect>
                <path d="M257.5872,36.1216 L253.0816,41.728 C253.0816,41.728 252.8256,42.0352 253.0816,42.0352 L258.56,42.0352 C258.795754,42.0483889 259.026749,41.9652304 259.2,41.8048 L266.7264,36.1216 C266.7264,36.1216 266.9568,35.8912 266.7264,35.8912 L258.304,35.8912 C258.104489,35.871393 257.909491,35.9591421 257.792,36.1216" id="Path" fill="#1E120C" fill-rule="nonzero"></path>
                <path d="M270.6176,55.1936 C270.15668,53.1300554 269.286144,51.180055 268.0576,49.4592 C266.823156,47.7533989 265.199539,46.3667417 263.3216,45.4144 C261.225728,44.3671927 258.905477,43.8486517 256.5632,43.904 C254.393502,43.8756403 252.241163,44.2939085 250.24,45.1328 C248.334843,45.9276672 246.623435,47.1239072 245.2224,48.64 C243.809825,50.0996512 242.727274,51.8457024 242.048,53.76 C241.279122,55.7694862 240.896949,57.9061819 240.9216,60.0576 C240.9016,62.2437168 241.256611,64.4170759 241.9712,66.4832 C242.658929,68.381779 243.721,70.1228801 245.0944,71.6032 C246.467838,73.0484599 248.147268,74.1680799 250.0096,74.88 C252.057621,75.6730478 254.239231,76.064173 256.4352,76.032 C259.529695,76.1244209 262.583126,75.3054248 265.216,73.6768 C266.490512,72.8423482 267.586864,71.7633985 268.4416,70.5024 C269.41664,69.0751885 270.159696,67.5026758 270.6432,65.8432 L270.8736,65.2288 C270.8736,65.2288 270.8736,64.9472 270.6176,64.9472 L262.9376,64.9472 C262.5024,64.9472 262.4768,65.1776 262.4768,65.1776 L262.4768,65.4336 C262.351657,65.8265954 262.151723,66.1916934 261.888,66.5088 C261.50569,66.924362 261.076108,67.2938031 260.608,67.6096 C259.498125,68.355349 258.181127,68.7316343 256.8448,68.6848 C255.915724,68.6953441 254.990952,68.5570605 254.1056,68.2752 C253.385245,68.0403418 252.722357,67.6565644 252.16,67.1488 C251.617824,66.5692911 251.207378,65.8793913 250.9568,65.1264 C250.686569,64.3499595 250.522943,63.5404414 250.4704,62.72 L270.9504,62.72 C271.2832,62.72 271.308812,62.336 271.308812,62.336 L271.308812,62.0544 C271.308812,61.5424 271.308812,61.056 271.308812,60.544 C271.310612,58.8188375 271.104322,57.0997545 270.6944,55.424 M251.6224,53.4784 C252.113213,52.89393 252.724486,52.4223767 253.4144,52.096 C254.307423,51.6676837 255.292052,51.4654832 256.2816,51.5072 C257.064494,51.4933129 257.843918,51.6145566 258.5856,51.8656 C259.166728,52.0626062 259.687037,52.4065393 260.096,52.864 C260.934049,53.8567151 261.506572,55.0458008 261.76,56.32 L250.3424,56.32 C250.3424,55.9872 250.496,55.6288 250.5984,55.296 C250.800304,54.6372986 251.121353,54.0212324 251.5456,53.4784" id="Shape" fill="#1E120C" fill-rule="nonzero"></path>
                <path d="M300.3136,74.8288 L289.28,58.88 L299.2384,44.7488 C299.2384,44.7488 299.2384,44.544 299.0336,44.544 L288.9472,44.544 C288.775186,44.5251357 288.607105,44.604233 288.512,44.7488 L284.16,51.5584 L279.6288,44.8256 C279.513308,44.6748566 279.332201,44.5890694 279.1424,44.5952 L268.9024,44.5952 C268.6208,44.5952 268.9024,44.8256 268.9024,44.8256 L269.6192,45.7984 L278.8352,59.136 L268.0832,74.8544 C268.0832,74.8544 267.8784,75.1616 268.2368,75.1616 L278.3232,75.1616 C278.563306,75.1572587 278.780775,75.0188691 278.8864,74.8032 L283.9296,66.56 L289.28,74.8032 C289.397251,75.0081303 289.607898,75.1421785 289.8432,75.1616 L300.0832,75.1616 C300.4672,75.1616 300.2368,74.8288 300.2368,74.8288" id="Path" fill="#1E120C" fill-rule="nonzero"></path>
                <path d="M313.0624,44.5952 L301.44,44.5952 C301.0304,44.5952 301.1072,44.8768 301.1072,44.8768 L302.7712,74.7776 C302.7712,74.7776 302.7712,75.136 303.104,75.136 L311.3472,75.136 C311.68,75.136 311.68,74.752 311.68,74.752 L313.3696,44.928 C313.3696,44.928 313.3696,44.5952 313.0624,44.5952" id="Path" fill="#1E120C" fill-rule="nonzero"></path>
                <path d="M335.1808,51.4816 C335.275945,51.4750478 335.364555,51.4308443 335.427016,51.3587739 C335.489477,51.2867035 335.520638,51.1927104 335.5136,51.0976 L335.5136,44.9024 C335.5139,44.8162897 335.478044,44.734007 335.41477,44.6755997 C335.351495,44.6171924 335.266611,44.5880236 335.1808,44.5952 L329.6768,44.5952 L329.6768,36.2496 C329.6768,36.2496 329.6768,35.8912 329.344,35.8912 L320.4864,35.8912 C320.1536,35.8912 320.1536,36.2496 320.1536,36.2496 L320.1536,44.5952 L315.6992,44.5952 C315.2896,44.5952 315.3408,44.8768 315.3408,44.8768 L315.3408,51.2 C315.3408,51.2 315.3408,51.5584 315.6224,51.5584 L320.1536,51.5584 L320.1536,67.8912 C320.115129,69.2347965 320.395879,70.5683598 320.9728,71.7824 C321.505052,72.774382 322.302797,73.5987192 323.2768,74.1632 C324.257887,74.7180723 325.334858,75.0828527 326.4512,75.2384 C327.654525,75.417288 328.86988,75.5028764 330.0864,75.4944 L332.5184,75.4944 C333.3632,75.4944 334.1312,75.3664 334.8736,75.2896 L335.2064,75.2896 C335.2064,75.2896 335.5136,75.2896 335.5136,74.9056 L335.5136,67.5584 C335.5136,67.2 335.1808,67.328 335.1808,67.328 L334.5664,67.456 L333.4912,67.6096 L332.2624,67.6096 C331.762888,67.623312 331.263727,67.5716746 330.7776,67.456 C330.536692,67.4012716 330.309943,67.2966182 330.112,67.1488 C329.958476,66.9640084 329.852953,66.7441694 329.8048,66.5088 C329.711414,66.0109237 329.66853,65.5048913 329.6768,64.9984 L329.6768,51.4304 L335.1808,51.4816 Z" id="Path" fill="#1E120C" fill-rule="nonzero"></path>
                <path d="M366.4896,53.3248 C365.804245,51.4075282 364.712666,49.6610018 363.2896,48.2048 C361.897713,46.8062354 360.23348,45.7083646 358.4,44.9792 C354.21862,43.443844 349.62778,43.443844 345.4464,44.9792 C343.581893,45.7039046 341.890034,46.8114613 340.48,48.2304 C339.065642,49.6934293 337.975308,51.4379646 337.28,53.3504 C336.502183,55.4552822 336.120296,57.6858487 336.1536,59.9296 C336.113706,62.1738572 336.4958,64.4056327 337.28,66.5088 C337.978472,68.4348468 339.067986,70.1955016 340.48,71.68 C341.891013,73.0915002 343.583097,74.1904825 345.4464,74.9056 C347.518471,75.6732915 349.713608,76.0550543 351.9232,76.032 C354.13242,76.0504858 356.326737,75.6688654 358.4,74.9056 C362.217981,73.4806898 365.214626,70.4465863 366.592,66.6112 C367.361432,64.5040798 367.743052,62.2750722 367.7184,60.032 C367.738586,57.7892849 367.357102,55.561069 366.592,53.4528 M354.9184,67.84 C353.998543,68.3285931 352.963416,68.5586213 351.9232,68.5056 C350.88255,68.5638667 349.846029,68.3335287 348.928,67.84 C348.146849,67.3919224 347.487575,66.759019 347.008,65.9968 C346.525471,65.1493358 346.171731,64.2347879 345.9584,63.2832 C345.726869,62.1715193 345.606808,61.0395151 345.599998,59.904 C345.599448,58.8045181 345.702301,57.7074209 345.9072,56.6272 C346.111253,55.6808911 346.465611,54.773389 346.9568,53.9392 C347.450207,53.181519 348.106063,52.5431522 348.8768,52.0704 C349.791793,51.5667253 350.828823,51.3274108 351.872,51.3792 C352.91458,51.3340209 353.949847,51.5729289 354.8672,52.0704 C355.648833,52.5290004 356.307646,53.1702446 356.7872,53.9392 C357.29997,54.7627399 357.655834,55.6740989 357.8368,56.6272 C358.054336,57.7055966 358.157308,58.8039617 358.144,59.904 C358.157424,60.9955707 358.054442,62.0854624 357.8368,63.1552 C357.6465,64.1136274 357.291368,65.0317745 356.7872,65.8688 C356.314426,66.6365333 355.653583,67.2709428 354.8672,67.712" id="Shape" fill="#1E120C" fill-rule="nonzero"></path>
                <path d="M312.9344,82.432 C312.9344,79.2824563 310.383635,76.7279505 307.234095,76.7232573 C304.084555,76.718577 301.526231,79.2654801 301.516799,82.4150098 C301.50742,85.5645395 304.050488,88.1266765 307.2,88.1408 C310.347058,88.1267817 312.894782,85.5790583 312.9088,82.432" id="Path" fill="#E2241C" fill-rule="nonzero"></path>
                <path d="M375.04,47.5904 C375.036373,48.2441648 374.869158,48.886623 374.5536,49.4592 C374.221983,50.0266073 373.744706,50.4950453 373.1712,50.816 C372.609265,51.1600659 371.961232,51.3376094 371.3024,51.328 C369.972518,51.3187919 368.746249,50.6083347 368.0768,49.4592 C367.741379,48.8935608 367.564517,48.2480131 367.5648,47.5904 C367.568219,46.9332894 367.744821,46.2886942 368.0768,45.7216 C368.384812,45.1450145 368.857015,44.6728116 369.4336,44.3648 C370.00129,44.0371511 370.647008,43.8690877 371.3024,43.8784 C371.957336,43.872825 372.602087,44.0406369 373.1712,44.3648 C373.750231,44.6783287 374.229304,45.14853 374.5536,45.7216 C374.866166,46.2953651 375.033182,46.9370568 375.04,47.5904 M374.3232,47.5904 C374.323671,46.7711724 373.991391,45.9868845 373.402537,45.4173368 C372.813682,44.8477891 372.018757,44.5418294 371.2,44.5696 C370.397515,44.5702315 369.626593,44.8822714 369.0496,45.44 C368.489563,46.0154898 368.177128,46.7873899 368.17919,47.5904 C368.17919,49.2587418 369.531658,50.6112 371.2,50.6112 C372.00184,50.6199409 372.771333,50.2954559 373.3248,49.7152 C373.902488,49.1599642 374.226482,48.3916353 374.2208,47.5904 M369.5104,45.5936 L371.3024,45.5936 C371.694094,45.5628292 372.084042,45.6716518 372.4032,45.9008 C372.790756,46.329684 372.790756,46.982316 372.4032,47.4112 C372.176906,47.6309855 371.892799,47.7819176 371.584,47.8464 L371.9168,48.0256 C372.037264,48.1476027 372.140607,48.2853942 372.224,48.4352 C372.224,48.4352 372.4544,48.8448 372.8896,49.5872 L371.6864,49.5872 C371.485219,49.1111041 371.236492,48.656533 370.944,48.2304 C370.858153,48.0987268 370.716581,48.0137835 370.56,48 L370.56,48 L370.56,49.5616 L369.5616,49.5616 L369.5104,45.5936 Z M370.5088,47.3088 L370.9184,47.3088 C371.134757,47.3296103 371.35169,47.2753773 371.5328,47.1552 C371.651336,47.0638864 371.718155,46.9207029 371.712,46.7712 C371.714779,46.636513 371.646775,46.5102197 371.5328,46.4384 C371.370298,46.3197774 371.169826,46.2651031 370.9696,46.2848 L370.5088,46.2848 L370.5088,47.3088 Z" id="Shape" fill="#1E120C" fill-rule="nonzero"></path>
                <path d="M110.976,66.9696 L97.4848,66.9696 C97.6459774,68.1250369 98.1969142,69.1907835 99.0464,69.9904 C99.8206218,70.7223405 100.848203,71.1260331 101.9136,71.1168 C103.704165,71.2372371 105.40899,70.3352656 106.3168,68.7872 L110.5152,69.6832 C109.848521,71.3714366 108.654288,72.799129 107.1104,73.7536 C105.565232,74.6809421 103.792329,75.1596258 101.9904,75.136 C99.5780705,75.214024 97.2416498,74.2868729 95.5392,72.576 C93.7829836,70.7773326 92.8553612,68.3284096 92.9792,65.8176 C92.8707783,63.3092456 93.7961583,60.8662425 95.5392,59.0592 C97.2704123,57.3442247 99.6316958,56.4182312 102.0672,56.4992 C104.407274,56.4860992 106.655774,57.4076155 108.3136,59.0592 C110.049074,60.7990105 111.024768,63.1554018 111.0272,65.6128 L110.976,66.9696 Z M99.2768,61.2096 C98.4509267,61.7805825 97.8669356,62.6383195 97.6384,63.616 L106.1888,63.616 C105.996637,62.6012601 105.441516,61.6912263 104.6272,61.056 C103.881681,60.5196551 102.985595,60.2329077 102.0672,60.2368 C101.058688,60.263832 100.083537,60.6037929 99.2768,61.2096 L99.2768,61.2096 Z" id="Shape" fill="#1A1A1A" fill-rule="nonzero"></path>
                <path d="M116.352,68.9408 C116.5568,70.5536 117.76,71.3728 119.9872,71.3728 C120.702631,71.4131594 121.414316,71.2441343 122.0352,70.8864 C122.489032,70.6184743 122.770393,70.1333681 122.7776,69.6064 C122.7776,68.8128 122.1376,68.2752 120.832,67.9936 L117.1968,67.2512 C115.804966,67.0157107 114.513647,66.3745042 113.4848,65.408 C112.639628,64.5500455 112.177874,63.3864253 112.2048,62.1824 C112.151729,60.535077 112.894924,58.9629337 114.2016,57.9584 C115.695528,56.7773066 117.574996,56.193394 119.4752,56.32 C121.29154,56.2665164 123.079954,56.7762144 124.5952,57.7792 C125.92562,58.6558223 126.848039,60.030227 127.1552,61.5936 L122.6496,62.464 C122.567998,61.7586715 122.197125,61.1189152 121.6256,60.6976 C120.946866,60.2159291 120.127602,59.9728509 119.296,60.0064 C118.638522,59.9324707 117.977954,60.1159619 117.4528,60.5184 C117.081756,60.8186336 116.865522,61.2699041 116.864,61.7472 C116.864,62.4896 117.4016,63.0016 118.4768,63.232 L122.7008,64.1792 C124.020618,64.4071893 125.232204,65.0533684 126.1568,66.0224 C126.929173,66.8693464 127.358159,67.9737562 127.36,69.12 C127.443506,70.8529362 126.643748,72.5102668 125.2352,73.5232 C123.549016,74.6168569 121.558666,75.1458239 119.552,75.0336 C117.667129,75.0890891 115.801849,74.6382394 114.1504,73.728 C112.708594,72.9063885 111.754412,71.4369478 111.5904,69.7856 L116.352,68.9408 Z" id="Path" fill="#1A1A1A" fill-rule="nonzero"></path>
                <path d="M142.4384,73.9072 C141.035844,74.7178359 139.45011,75.1583177 137.8304,75.1872 C135.95763,75.2962108 134.117559,74.6613863 132.7104,73.4208 C131.381492,71.979872 130.713506,70.0501364 130.8672,68.096 L130.8672,60.7488 L127.104,60.7488 L127.104,56.9088 L130.9184,56.9088 L130.9184,51.5328 L135.68,51.5328 L135.68,56.8832 L141.4656,56.8832 L141.4656,60.7232 L135.68,60.7232 L135.68,67.7376 C135.68,69.7856 136.5248,70.784 138.24,70.8096 C139.275244,70.7704271 140.285506,70.4805261 141.184,69.9648 L142.4384,73.9072 Z" id="Path" fill="#1A1A1A" fill-rule="nonzero"></path>
                <path d="M161.28,74.7264 L156.6976,74.7264 L156.6976,73.344 C155.026726,74.6446141 152.951211,75.3153044 150.8352,75.2384 C148.507708,75.2463601 146.285323,74.2699982 144.7168,72.5504 C142.995495,70.7400023 142.073169,68.3142849 142.1568,65.8176 C142.061444,63.3189776 142.985445,60.8888554 144.7168,59.0848 C146.305404,57.4242786 148.511723,56.4972538 150.8096,56.5248 C152.940693,56.4609896 155.022936,57.1702252 156.672,58.5216 L156.672,57.088 L161.3568,57.088 L161.28,74.7264 Z M155.0848,69.6064 C156.107317,68.6054296 156.664306,67.2222412 156.6208,65.792 C156.678251,64.3568034 156.130208,62.9634745 155.1104,61.952 C154.192677,60.9964275 152.928051,60.4518079 151.6032,60.4416 C150.255839,60.3987433 148.953451,60.9290011 148.0192,61.9008 C147.045889,62.9455785 146.537847,64.3403863 146.6112,65.7664 C146.512622,67.1913521 147.013768,68.5927045 147.9936,69.632 C148.928024,70.5850201 150.217883,71.1046753 151.552,71.0656 C152.903249,71.1303703 154.220431,70.6294702 155.1872,69.6832 L155.0848,69.6064 Z" id="Shape" fill="#1A1A1A" fill-rule="nonzero"></path>
                <path d="M177.5872,67.584 L181.9136,68.6848 C181.451104,70.6312252 180.306817,72.3476553 178.688,73.5232 C174.890193,76.1340695 169.79186,75.7729375 166.4,72.6528 C162.745286,68.8883296 162.745286,62.9004704 166.4,59.136 C168.213501,57.4196314 170.637076,56.4981199 173.1328,56.576 C175.142018,56.5537021 177.102883,57.1923323 178.7136,58.3936 C180.310022,59.5725636 181.471231,61.2468645 182.016,63.1552 L177.4848,64.4096 C177.181468,62.2749636 175.284201,60.7348297 173.1328,60.8768 C171.793718,60.8237912 170.493726,61.3345021 169.5488,62.2848 C168.60865,63.286556 168.110526,64.6241112 168.1664,65.9968 C168.117411,67.3483731 168.60518,68.664429 169.5232,69.6576 C170.461916,70.6199927 171.763721,71.1407146 173.1072,71.0912 C175.246503,71.1421239 177.12314,69.6729847 177.5872,67.584 L177.5872,67.584 Z" id="Path" fill="#1A1A1A" fill-rule="nonzero"></path>
                <path d="M188.7232,49.8176 C189.246734,50.3401205 189.541387,51.0491279 189.5424,51.7888 C189.561888,52.524974 189.2634,53.2338842 188.7232,53.7344 C188.176089,54.2652316 187.437143,54.5515736 186.6752,54.528 C185.92154,54.547536 185.192045,54.2612785 184.6528,53.7344 C184.115178,53.2233381 183.825659,52.5042103 183.8592,51.7632 C183.848475,51.0212259 184.144954,50.3078251 184.6784,49.792 C185.213399,49.2557499 185.94342,48.9600452 186.7008,48.9728 C187.467489,48.9369892 188.209794,49.247066 188.7232,49.8176 L188.7232,49.8176 Z M184.32,74.8032 L184.32,57.0624 L189.0304,57.0624 L189.0304,74.8032 L184.32,74.8032 Z" id="Shape" fill="#1A1A1A" fill-rule="nonzero"></path>
                <path d="M207.8464,59.3408 C209.633349,61.1101479 210.63874,63.5204873 210.63874,66.0352 C210.63874,68.5499127 209.633349,70.9602521 207.8464,72.7296 C206.015646,74.4513996 203.574242,75.3726843 201.0624,75.2896 C198.528418,75.3679313 196.064896,74.4487064 194.2016,72.7296 C192.413119,70.9558617 191.407113,68.5412908 191.407113,66.0224 C191.407113,63.5035092 192.413119,61.0889383 194.2016,59.3152 C196.06046,57.5888911 198.527052,56.6685213 201.0624,56.7552 C203.57691,56.6846659 206.016702,57.6145489 207.8464,59.3408 Z M204.5184,69.8368 C205.540917,68.8358296 206.097906,67.4526412 206.0544,66.0224 C206.104609,64.5959868 205.557127,63.2133607 204.544,62.208 C203.633234,61.2608356 202.376406,60.7248354 201.0624,60.7231075 C199.726451,60.7151745 198.440277,61.229644 197.4784,62.1568 C196.439799,63.1594167 195.872713,64.5538905 195.9168,65.9968 C195.868166,67.3854837 196.386046,68.7342937 197.351554,69.7335944 C198.317062,70.7328952 199.647265,71.2968514 201.0368,71.296 C202.34941,71.3131342 203.61025,70.7846937 204.5184,69.8368 L204.5184,69.8368 Z M199.2192,54.7072 L201.6,49.5872 L207.104,49.5872 L203.2128,54.7072 L199.2192,54.7072 Z" id="Shape" fill="#1A1A1A" fill-rule="nonzero"></path>
                <path d="M228.1728,58.88 C229.495263,60.3612979 230.192572,62.2972487 230.1184,64.2816 L230.1184,75.0848 L225.408,75.0848 L225.408,65.1264 C225.456175,64.0354307 225.110957,62.9634388 224.4352,62.1056 C223.802471,61.3509337 222.85965,60.9266643 221.8752,60.9536 C218.9312,60.9536 217.472,62.976 217.4464,67.0464 L217.4464,74.9056 L212.7104,74.9056 L212.7104,57.1648 L217.3952,57.1648 L217.3952,58.88 C218.892667,57.4478926 220.905269,56.6816268 222.976,56.7552 C224.933821,56.6797976 226.828638,57.4545254 228.1728,58.88 Z" id="Path" fill="#1A1A1A" fill-rule="nonzero"></path>
                <path d="M67.456,35.84 C67.8850537,33.742455 68.8965082,31.80827 70.3744,30.2592 C64.9815465,32.1609071 59.8805831,34.8061702 55.2192,38.1184 C45.9008,44.544 37.2992,52.4288 34.9952,63.3856 C34.055437,68.1671774 34.6559432,73.1235943 36.7104,77.5424 C43.0848,90.7008 63.232,94.8736 74.0352,83.6352 C77.2056337,80.345107 79.3187154,76.1813554 80.1024,71.68 C82.4576,55.0144 64,50.8928 67.456,35.84 Z M73.4976,70.7072 C72.8983265,73.906501 71.3766986,76.8607728 69.12,79.2064 C66.2301815,82.1265209 62.270812,83.7361712 58.1632,83.6608 C57.2198411,83.660428 56.2780733,83.5833742 55.3472,83.4304 C49.9852864,82.767251 45.2744559,79.5535873 42.7008,74.8032 C41.2632191,71.6472605 40.8427344,68.1223461 41.4976,64.7168 C43.52,55.1936 51.9424,48.3584 59.0592,43.4688 L60.5184,42.4704 C61.69152,47.8838846 64.2596429,52.8965781 67.968,57.0112 C71.68,61.696 74.24,65.0496 73.4976,70.7328 L73.4976,70.7072 Z" id="Shape" fill="#E2241C" fill-rule="nonzero"></path>
            </g>
        </g>
    </g>
</svg>