<?xml version="1.0" encoding="UTF-8"?>
<svg width="53px" height="53px" viewBox="0 0 53 53" version="1.1" xmlns="http://www.w3.org/2000/svg" xmlns:xlink="http://www.w3.org/1999/xlink">
    <!-- Generator: Sketch 64 (93537) - https://sketch.com -->
    <title>img-05</title>
    <desc>Created with Sketch.</desc>
    <g id="Welcome" stroke="none" stroke-width="1" fill="none" fill-rule="evenodd">
        <g id="HOME---Aliados---EDS---Desktop-HD" transform="translate(-693.000000, -824.000000)" fill="#E2241C" fill-rule="nonzero">
            <g id="img-05" transform="translate(693.000000, 824.000000)">
                <path d="M44.4516129,26.5 C44.4516129,16.6018226 36.3990323,8.5483871 26.5,8.5483871 C16.6009677,8.5483871 8.5483871,16.6018226 8.5483871,26.5 C8.5483871,36.3981774 16.6009677,44.4516129 26.5,44.4516129 C36.3990323,44.4516129 44.4516129,36.3981774 44.4516129,26.5 Z M26.5,42.7419355 C17.5438548,42.7419355 10.2580645,35.4561452 10.2580645,26.5 C10.2580645,17.5438548 17.5438548,10.2580645 26.5,10.2580645 C35.4561452,10.2580645 42.7419355,17.5438548 42.7419355,26.5 C42.7419355,35.4561452 35.4561452,42.7419355 26.5,42.7419355 Z" id="Shape"></path>
                <path d="M22.2258065,26.5 C22.2258065,28.8567903 24.1432097,30.7741935 26.5,30.7741935 C28.8567903,30.7741935 30.7741935,28.8567903 30.7741935,26.5 C30.7741935,24.1432097 28.8567903,22.2258065 26.5,22.2258065 C24.1432097,22.2258065 22.2258065,24.1432097 22.2258065,26.5 Z M29.0645161,26.5 C29.0645161,27.9139032 27.9139032,29.0645161 26.5,29.0645161 C25.0860968,29.0645161 23.9354839,27.9139032 23.9354839,26.5 C23.9354839,25.0860968 25.0860968,23.9354839 26.5,23.9354839 C27.9139032,23.9354839 29.0645161,25.0860968 29.0645161,26.5 Z" id="Shape"></path>
                <path d="M26.5,13.6774194 C19.429629,13.6774194 13.6774194,19.429629 13.6774194,26.5 C13.6774194,33.570371 19.429629,39.3225806 26.5,39.3225806 C33.570371,39.3225806 39.3225806,33.570371 39.3225806,26.5 C39.3225806,19.429629 33.570371,13.6774194 26.5,13.6774194 Z M35.9758871,20.7238548 L32.600129,21.8206129 C31.6922903,20.6375161 30.4681613,19.747629 29.0645161,19.2526774 L29.0645161,15.6974032 C31.9829355,16.3906774 34.4525645,18.2337097 35.9758871,20.7238548 Z M27.3548387,15.4306935 L27.3548387,20.5469032 L27.9959677,20.7118871 C29.4645806,21.0914355 30.7246129,22.0069677 31.5435484,23.2892258 L31.8991613,23.8465806 L36.7700323,22.2634194 C36.9863065,22.7865806 37.1564194,23.3319677 37.2914839,23.8918871 L32.4248871,25.4733387 L32.4719032,26.2426935 C32.4778871,26.3290323 32.483871,26.4128065 32.483871,26.5 C32.483871,27.8874032 31.9983226,29.2397581 31.116129,30.3074516 L30.6938387,30.8186452 L33.6968871,34.9517903 C33.2634839,35.3219355 32.7984516,35.6536129 32.3111935,35.9536613 L29.3072903,31.8188065 L28.6909516,32.0624355 C27.2787581,32.6197903 25.7195323,32.6197903 24.3073387,32.0624355 L23.691,31.8188065 L20.6870968,35.9536613 C20.1998387,35.6527581 19.7356613,35.3210806 19.3014032,34.9517903 L22.3044516,30.8186452 L21.883871,30.3074516 C21.0016774,29.2397581 20.516129,27.8874032 20.516129,26.5 C20.516129,26.4128065 20.5221129,26.3290323 20.5280968,26.2435484 L20.5751129,25.4741935 L15.7085161,23.8927419 C15.8435806,23.3336774 16.0136935,22.7874355 16.2299677,22.2642742 L21.1008387,23.8474355 L21.4564516,23.2900806 C22.2753871,22.0078226 23.5354194,21.0931452 25.0040323,20.7127419 L25.6451613,20.5469032 L25.6451613,15.4306935 C25.9281129,15.4084677 26.2110645,15.3870968 26.5,15.3870968 C26.7889355,15.3870968 27.0718871,15.4084677 27.3548387,15.4306935 L27.3548387,15.4306935 Z M23.9354839,15.6974032 L23.9354839,19.2526774 C22.5309839,19.747629 21.3068548,20.6375161 20.399871,21.8206129 L17.0241129,20.7238548 C18.5474355,18.2337097 21.0170645,16.3906774 23.9354839,15.6974032 Z M15.3870968,26.5 C15.3870968,26.1965323 15.4084677,25.8981935 15.4324032,25.6007097 L18.8090161,26.6974677 C18.8474839,28.1874516 19.3210645,29.6381129 20.1622258,30.8605323 L18.078129,33.7285161 C16.4052097,31.7837581 15.3870968,29.2602742 15.3870968,26.5 L15.3870968,26.5 Z M22.2206774,36.7537903 L24.3133226,33.8729839 C25.7374839,34.2986935 27.2625161,34.2986935 28.6866774,33.8729839 L30.7793226,36.7537903 C29.4611613,37.3060161 28.0164839,37.6129032 26.5,37.6129032 C24.9835161,37.6129032 23.5388387,37.3060161 22.2206774,36.7537903 Z M34.9227258,33.729371 L32.838629,30.8613871 C33.6789355,29.6389677 34.1525161,28.1883065 34.1918387,26.6983226 L37.5684516,25.6015645 C37.5915323,25.8981935 37.6129032,26.1965323 37.6129032,26.5 C37.6129032,29.2602742 36.5947903,31.7837581 34.9227258,33.729371 L34.9227258,33.729371 Z" id="Shape"></path>
                <path d="M26.5,0 C11.8882419,0 0,11.8873871 0,26.5 C0,41.1126129 11.8882419,53 26.5,53 C41.1117581,53 53,41.1126129 53,26.5 C53,11.8873871 41.1117581,0 26.5,0 Z M51.2903226,26.5 C51.2903226,26.9872581 51.272371,27.4702419 51.2441613,27.9506613 L47.8709677,27.4685323 L47.8709677,25.5314677 L51.2441613,25.0493387 C51.272371,25.5297581 51.2903226,26.0127419 51.2903226,26.5 L51.2903226,26.5 Z M28.9508226,46.1612903 L24.0491774,46.1612903 L23.3465,51.0825968 C18.868,50.5107097 14.7605,48.7420484 11.3539677,46.104871 L14.3305161,42.1358548 L10.8641452,38.6694839 L6.89512903,41.6460323 C4.25795161,38.2403548 2.48929032,34.1328548 1.91740323,29.6543548 L6.83870968,28.9508226 L6.83870968,24.0491774 L1.91740323,23.3456452 C2.48929032,18.8671452 4.25795161,14.7605 6.89512903,11.3539677 L10.8641452,14.3305161 L14.3305161,10.8641452 L11.3539677,6.89512903 C14.7605,4.25709677 18.868,2.48843548 23.3465,1.91740323 L24.0491774,6.83870968 L28.9508226,6.83870968 L29.6535,1.91740323 C34.132,2.48929032 38.2395,4.25795161 41.6460323,6.89512903 L38.6694839,10.8641452 L42.1358548,14.3305161 L46.104871,11.3539677 C48.7420484,14.7596452 50.5107097,18.8671452 51.0825968,23.3456452 L46.1612903,24.0491774 L46.1612903,28.9508226 L51.0825968,29.6543548 C50.5107097,34.1328548 48.7420484,38.2395 46.104871,41.6460323 L42.1358548,38.6694839 L38.6694839,42.1358548 L41.6460323,46.104871 C38.2395,48.7429032 34.132,50.5115645 29.6535,51.0825968 L28.9508226,46.1612903 Z M1.70967742,26.5 C1.70967742,26.0127419 1.72762903,25.5297581 1.75583871,25.0493387 L5.12903226,25.5314677 L5.12903226,27.4685323 L1.75583871,27.9506613 C1.72762903,27.4702419 1.70967742,26.9872581 1.70967742,26.5 Z M45.0123871,10.0358065 L42.2965645,12.0728871 L40.9271129,10.7034355 L42.9641935,7.98675806 C43.6856774,8.63045161 44.3695484,9.31432258 45.0123871,10.0358065 L45.0123871,10.0358065 Z M27.9506613,1.75583871 L27.4685323,5.12903226 L25.5314677,5.12903226 L25.0493387,1.75583871 C25.5297581,1.72762903 26.0127419,1.70967742 26.5,1.70967742 C26.9872581,1.70967742 27.4702419,1.72762903 27.9506613,1.75583871 L27.9506613,1.75583871 Z M10.0366613,7.9876129 L12.0737419,10.7042903 L10.7042903,12.0737419 L7.98846774,10.0366613 C8.63045161,9.31432258 9.31432258,8.63045161 10.0366613,7.9876129 L10.0366613,7.9876129 Z M7.9876129,42.9641935 L10.7034355,40.9271129 L12.0728871,42.2965645 L10.0358065,45.0132419 C9.31432258,44.3695484 8.63045161,43.6856774 7.9876129,42.9641935 L7.9876129,42.9641935 Z M25.0493387,51.2441613 L25.5314677,47.8709677 L27.4685323,47.8709677 L27.9506613,51.2441613 C27.4702419,51.272371 26.9872581,51.2903226 26.5,51.2903226 C26.0127419,51.2903226 25.5297581,51.272371 25.0493387,51.2441613 L25.0493387,51.2441613 Z M42.9633387,45.0123871 L40.9262581,42.2957097 L42.2957097,40.9262581 L45.0115323,42.9633387 C44.3695484,43.6856774 43.6856774,44.3695484 42.9633387,45.0123871 L42.9633387,45.0123871 Z" id="Shape"></path>
            </g>
        </g>
    </g>
</svg>