<?xml version="1.0" encoding="UTF-8"?>
<svg width="40px" height="50px" viewBox="0 0 40 50" version="1.1" xmlns="http://www.w3.org/2000/svg" xmlns:xlink="http://www.w3.org/1999/xlink">
    <!-- Generator: Sketch 64 (93537) - https://sketch.com -->
    <title>img-07</title>
    <desc>Created with Sketch.</desc>
    <g id="Welcome" stroke="none" stroke-width="1" fill="none" fill-rule="evenodd">
        <g id="HOME---Aliados---EDS---Desktop-HD" transform="translate(-1181.000000, -827.000000)" fill="#E2241C" fill-rule="nonzero">
            <g id="img-07" transform="translate(1181.000000, 827.000000)">
                <path d="M6.08418794,37 L17.9158121,37 C18.514572,37 19,36.5196302 19,35.9271095 L19,30.0728905 C19,29.4803698 18.514572,29 17.9158121,29 L6.08418794,29 C5.48542802,29 5,29.4803698 5,30.0728905 L5,35.9270074 C5,36.5196302 5.4853248,37 6.08418794,37 Z M7.16837589,31.1457809 L16.8316241,31.1457809 L16.8316241,34.8540148 L7.16837589,34.8540148 C7.16837589,34.8540148 7.16837589,31.1457809 7.16837589,31.1457809 Z" id="Shape"></path>
                <path d="M10.1013484,27 L17.8986516,27 C18.5068887,27 19,26.5522658 19,26 C19,25.4477342 18.5068887,25 17.8986516,25 L10.1013484,25 C9.49311133,25 9,25.4477342 9,26 C9,26.552361 9.49311133,27 10.1013484,27 Z" id="Path"></path>
                <path d="M5.98365875,27 L6.01634125,27 C6.55958234,27 7,26.5522658 7,26 C7,25.4477342 6.55958234,25 6.01634125,25 L5.98365875,25 C5.44041766,25 5,25.4477342 5,26 C5,26.552361 5.44032402,27 5.98365875,27 Z" id="Path"></path>
                <path d="M39.9976236,48.903808 C39.8984513,47.4602526 37.5522928,29.8946186 37.2906237,26.1175658 L37.2906237,21.6780128 C37.2906237,21.1115086 36.82736,20.652231 36.2561591,20.652231 L34.1494125,20.652231 L34.1494125,15.3825994 C34.1494125,9.32839704 29.1821311,4.40280857 23.0767811,4.40280857 L15.0138861,4.40280857 L15.0138861,4.38249606 C15.0138861,2.85056167 13.7571456,1.60436963 12.2122441,1.60436963 L11.2311572,1.60436963 C10.3843026,1.60436963 9.62470388,1.97927216 9.11062304,2.56999512 C8.07468123,2.52839354 5.12393604,2.23093245 2.84504132,0.253782993 C2.4150649,-0.119166418 1.76153225,-0.0760999894 1.38513054,0.350267418 C1.00892579,0.776634824 1.05255373,1.42468203 1.48243166,1.7977291 C3.01295469,3.12575713 4.74930702,3.8328864 6.22044485,4.20857018 L0.670538489,6.27859078 C0.135776244,6.47800495 -0.134657849,7.06960681 0.0665427526,7.59978287 C0.222539695,8.0111112 0.616471367,8.26472462 1.03492529,8.26472462 C1.15596079,8.26472462 1.27896596,8.2435332 1.39891815,8.19880661 L8.42931822,5.57673495 L8.42931822,7.2546655 C7.14401765,7.5065211 6.17159732,8.63249824 6.17159732,9.97986222 L6.17159732,11.6956834 C3.0227045,11.9126757 0.52714736,14.5205872 0.52714736,17.697249 L0.52714736,43.9819305 C0.52714736,47.3002916 3.24970763,50 6.59615718,50 L16.8473426,50 C20.1937922,50 22.9163524,47.3002916 22.9163524,43.9819305 L22.9163524,17.6971513 C22.9163524,14.5204896 20.4208938,11.9124804 17.2719025,11.6955858 L17.2719025,9.9796669 C17.2719025,8.63230293 16.2994821,7.50622813 15.0140831,7.25447019 L15.0140831,6.45456743 L23.0769781,6.45456743 C28.0416004,6.45456743 32.0806804,10.4596476 32.0806804,15.3827947 L32.0806804,20.652524 L29.9346391,20.652524 C29.3634382,20.652524 28.9001745,21.1118015 28.9001745,21.6783057 L28.9001745,26.1219604 C28.6383084,29.8976459 26.2910666,47.4838854 26.19347,48.904101 C26.1739704,49.1875972 26.2739305,49.466406 26.4696161,49.6740233 C26.6653017,49.8816406 26.9389857,50 27.225571,50 L38.9658181,50 C39.2525019,50 39.5260874,49.8817382 39.721773,49.6740233 C39.9169661,49.4662107 40.0170248,49.1874019 39.9976236,48.903808 Z M10.4981489,4.38249606 C10.4981489,3.98190991 10.8268849,3.65593318 11.2309603,3.65593318 L12.2120471,3.65593318 C12.6161225,3.65593318 12.94476,3.98190991 12.94476,4.38249606 L12.94476,7.20134516 L10.4981489,7.20134516 L10.4981489,4.38249606 Z M16.8470471,47.9483388 L6.59596022,47.9483388 C4.63161993,47.9483388 2.99463687,46.5365217 2.65979495,44.6827121 L20.7833109,44.6827121 C20.4483705,46.5365217 18.8113874,47.9483388 16.8470471,47.9483388 Z M20.8469309,42.6310509 L2.59587954,42.6310509 L2.59587954,19.0479333 L20.8469309,19.0479333 L20.8469309,42.6310509 Z M16.8470471,13.7307431 C18.8113874,13.7307431 20.4483705,15.1425602 20.7832124,16.9963697 L2.65969647,16.9963697 C2.99453839,15.1425602 4.63152145,13.7307431 6.59586173,13.7307431 L16.8470471,13.7307431 Z M15.2025794,9.9796669 L15.2025794,11.6791795 L8.24042798,11.6791795 L8.24042798,9.9796669 C8.24042798,9.5789831 8.56916396,9.25310401 8.97314089,9.25310401 L14.4698665,9.25310401 C14.8739419,9.25300637 15.2025794,9.57908076 15.2025794,9.9796669 Z M30.9688082,22.7039899 L35.2214976,22.7039899 L35.2214976,25.1300653 L30.9688082,25.1300653 L30.9688082,22.7039899 Z M30.894946,27.1817265 L35.2957537,27.1817265 C35.5819451,30.7267479 37.1268466,41.4648394 37.3637965,43.3553677 L28.8270017,43.3553677 C29.0638531,41.464937 30.6087547,30.7268456 30.894946,27.1817265 Z M28.3403976,47.9479482 C28.4069721,47.1433579 28.488319,46.30117 28.5859155,45.4070289 L37.6052766,45.4070289 C37.7022823,46.2940411 37.7835307,47.1361313 37.8504006,47.9479482 L28.3403976,47.9479482 Z" id="Shape"></path>
            </g>
        </g>
    </g>
</svg>