<?xml version="1.0" encoding="UTF-8"?>
<svg width="51px" height="58px" viewBox="0 0 51 58" version="1.1" xmlns="http://www.w3.org/2000/svg" xmlns:xlink="http://www.w3.org/1999/xlink">
    <!-- Generator: Sketch 64 (93537) - https://sketch.com -->
    <title>img-01</title>
    <desc>Created with Sketch.</desc>
    <g id="Welcome" stroke="none" stroke-width="1" fill="none" fill-rule="evenodd">
        <g id="HOME---Aliados---EDS---Desktop-HD" transform="translate(-153.000000, -612.000000)" fill-rule="nonzero">
            <g id="img-01" transform="translate(153.000000, 612.000000)">
                <g id="gas-station" fill="#000000">
                    <path d="M32.1804941,6.796875 L11.8916372,6.796875 C10.9578989,6.796875 10.2008991,7.55767187 10.2008991,8.49609375 L10.2008991,20.7408906 C10.2008991,21.6793125 10.9578989,22.4401094 11.8916372,22.4401094 L32.1804941,22.4401094 C33.1142324,22.4401094 33.8712322,21.6793125 33.8712322,20.7408906 L33.8712322,8.49609375 C33.8712322,7.55767187 33.1142324,6.796875 32.1804941,6.796875 Z M30.489756,19.0416719 L13.5823753,19.0416719 L13.5823753,10.1953125 L30.489756,10.1953125 L30.489756,19.0416719 Z" id="Shape"></path>
                    <path d="M50.2357733,10.7967227 C49.4972589,10.2221602 48.4354754,10.3578711 47.8637805,11.09975 L43.2424297,17.0970859 C43.0129402,17.3949023 42.8883892,17.7608008 42.8883892,18.1375742 C42.8883892,19.0372539 42.8883892,36.5829336 42.8883892,37.298418 L40.6340718,37.298418 L40.6340718,5.09765625 C40.6340718,2.28680859 38.3587892,0 35.5618575,0 L8.51004831,0 C5.71322939,0 3.43783409,2.28680859 3.43783409,5.09765625 L3.43783409,47.8046875 L1.74709601,47.8046875 C0.81335773,47.8046875 0.0563579359,48.5654844 0.0563579359,49.5039062 L0.0563579359,56.3007812 C0.0563579359,57.2392031 0.81335773,58 1.74709601,58 L42.3246971,58 C43.2584354,58 44.0154352,57.2392031 44.0154352,56.3007812 L44.0154352,49.5039062 C44.0154352,48.5654844 43.2584354,47.8046875 42.3246971,47.8046875 L40.633959,47.8046875 L40.633959,40.6967422 L44.5790145,40.6967422 C45.5127528,40.6967422 46.2697526,39.9359453 46.2697526,38.9975234 L46.2697526,23.7312891 L47.3540793,23.7312891 C48.2878176,23.7312891 49.0448174,22.9704922 49.0448174,22.0320703 L49.0448174,15.1171563 L50.5370628,13.1806133 C51.1089831,12.4386211 50.9740622,11.3712852 50.2357733,10.7967227 Z M6.81942295,5.09765625 C6.81942295,4.16070703 7.57788806,3.3984375 8.51016103,3.3984375 L35.5619702,3.3984375 C36.4942432,3.3984375 37.2527083,4.16070703 37.2527083,5.09765625 L37.2527083,47.8046875 L6.81942295,47.8046875 L6.81942295,5.09765625 Z M40.6340718,51.203125 L40.6340718,54.6015625 L3.43783409,54.6015625 L3.43783409,51.203125 C7.38142429,51.203125 36.8114257,51.203125 40.6340718,51.203125 Z" id="Shape"></path>
                </g>
                <path d="M25.7255498,26.227719 C25.8772941,25.4953187 26.2350172,24.8199589 26.7577062,24.2790698 C24.8504049,24.9430893 23.046337,25.8667364 21.3977363,27.0232685 C18.1020791,29.2668968 15.059934,32.0200343 14.2450738,35.8458228 C13.9127059,37.5154073 14.1250881,39.2460406 14.851692,40.7889561 C17.1061388,45.3834778 24.2316393,46.8404954 28.0524286,42.9163805 C29.1737223,41.767578 29.9210601,40.3137198 30.1982274,38.7419805 C31.0311957,32.9228489 24.5032594,31.4837088 25.7255498,26.227719 Z M27.914765,38.2965706 C27.7011976,39.4241863 27.158924,40.4654398 26.3546881,41.2921724 C25.3248227,42.3213892 23.9137936,42.8887215 22.4499344,42.8621564 C22.1137428,42.8620253 21.7781182,42.8348672 21.4463762,42.7809503 C19.5355124,42.5472189 17.8566798,41.4145409 16.9394875,39.7402341 C16.4271665,38.6279014 16.2773153,37.3855209 16.5106944,36.1852127 C17.2314317,32.828695 20.2329831,30.4195815 22.7692483,28.6962082 L23.289274,28.3443152 C23.7073472,30.2523353 24.6225677,32.0190938 25.9441416,33.4693207 C27.2670138,35.1205108 28.1793394,36.3025103 27.914765,38.3055935 L27.914765,38.2965706 Z" id="Shape" fill="#E2241C"></path>
            </g>
        </g>
    </g>
</svg>