<?xml version="1.0" encoding="UTF-8"?>
<svg width="54px" height="51px" viewBox="0 0 54 51" version="1.1" xmlns="http://www.w3.org/2000/svg" xmlns:xlink="http://www.w3.org/1999/xlink">
    <!-- Generator: Sketch 64 (93537) - https://sketch.com -->
    <title>img-06</title>
    <desc>Created with Sketch.</desc>
    <g id="Welcome" stroke="none" stroke-width="1" fill="none" fill-rule="evenodd">
        <g id="HOME---Aliados---EDS---Desktop-HD" transform="translate(-931.000000, -824.000000)" fill="#E2241C" fill-rule="nonzero">
            <g id="img-06" transform="translate(931.000000, 824.000000)">
                <path d="M29.8372101,19.6777025 C29.9655095,19.0471376 30.2679635,18.4656821 30.7098956,18 C29.0972773,18.571692 27.5719425,19.3669121 26.1780549,20.3626361 C23.3915853,22.2943027 20.8194594,24.6646347 20.1304972,27.9584726 C19.849481,29.3959124 20.0290496,30.8859126 20.6433913,32.2142959 C22.5495203,36.1699798 28.5741126,37.4244087 31.8045801,34.045916 C32.752631,33.0568469 33.3845032,31.8051381 33.6188475,30.4519387 C34.32312,25.4419189 28.8037667,24.2028817 29.8372101,19.6777025 Z M31.4841007,29.9902361 C31.311133,30.9408711 30.871947,31.8186986 30.2205983,32.5156744 C29.3865128,33.3833543 28.2437239,33.8616431 27.0581479,33.8392474 C26.7858671,33.8391369 26.5140456,33.8162413 26.2453686,33.7707868 C24.6977647,33.5737397 23.3380823,32.618837 22.5952505,31.2073148 C22.180323,30.2695641 22.0589589,29.2221769 22.2479721,28.2102586 C22.8316954,25.3805506 25.2626445,23.3495506 27.3167595,21.8966629 L27.7379269,21.6 C28.0765234,23.2085539 28.8177582,24.6980173 29.8880977,25.9206293 C30.9594886,27.312663 31.6983789,28.3091462 31.4841007,29.9978429 L31.4841007,29.9902361 Z" id="Shape"></path>
                <path d="M26.7915027,0.00560909931 C25.1921825,0.0914071528 23.7989863,1.15670213 22.93975,2.87118225 L17.1551627,14.414 L4.21501076,16.2673527 C2.21549418,16.5536427 0.713470175,17.6040256 0.189105406,19.1946253 L0.126824572,19.4034264 C-0.283733377,20.9396183 0.318001653,22.5792527 1.70717922,23.9125863 L11.0621627,32.894 L8.85394408,45.5725303 C8.55130405,47.3108128 8.92986349,48.6784766 9.75871811,49.6465012 C10.507001,50.5201917 11.5935877,51 12.7923717,51 L13.0789516,50.9911379 C13.8458123,50.9439448 14.6331311,50.7088338 15.4235534,50.2994798 L27.0011627,44.303 L38.5793929,50.2995037 C39.4685719,50.7600031 40.3538691,51 41.2105284,51 C42.4095057,51 43.4965577,50.5200481 44.2443261,49.6463328 L44.3782498,49.4813096 C45.1130721,48.5252588 45.4347413,47.214067 45.1485298,45.5723612 L42.9401627,32.894 L52.2954372,23.9128685 C53.747839,22.5183774 54.3393408,20.7896076 53.8129074,19.1943407 L53.7423158,18.9983797 C53.1626042,17.5178202 51.703301,16.5417141 49.7871362,16.2673584 L36.8471627,14.414 L31.0623853,2.8712395 C30.1663128,1.08229715 28.6882655,0 27.0012517,0 L26.7915027,0.00560909931 Z M27.0012517,2 C27.8630079,2 28.6938536,2.60838511 29.2742394,3.76708215 L35.5274925,16.2465281 L49.5037,18.2471726 C50.8068486,18.4337568 51.6508735,19.0239933 51.9135546,19.8208061 C52.1751161,20.6134238 51.8478096,21.5700356 50.9102874,22.4701765 L40.7882749,32.1883386 L43.1782083,45.9156294 C43.3785164,47.0645943 43.1668101,47.8297062 42.724986,48.3457154 C42.3647446,48.7666324 41.8361859,49 41.2105284,49 C40.6933618,49 40.1179436,48.8440087 39.4991051,48.5235168 L27.0012441,42.0517895 L14.5038292,48.5234991 C13.8849567,48.8440087 13.3095383,49 12.7923717,49 C12.1668136,49 11.6384686,48.7666967 11.2778281,48.345615 C10.836088,47.8297039 10.6242779,47.064474 10.8242947,45.9156313 L13.2150511,32.188352 L3.09219192,22.4697627 C2.15471204,21.5699689 1.82728998,20.6133145 2.0885521,19.820806 C2.35123322,19.0239933 3.1952581,18.4337568 4.49843875,18.247168 L18.4754385,16.2465281 L24.7278233,3.76717004 C25.3085573,2.60840023 26.1395,2 27.0012517,2 Z" id="Path"></path>
            </g>
        </g>
    </g>
</svg>