<?xml version="1.0" encoding="UTF-8"?>
<svg width="54px" height="54px" viewBox="0 0 54 54" version="1.1" xmlns="http://www.w3.org/2000/svg" xmlns:xlink="http://www.w3.org/1999/xlink">
    <!-- Generator: Sketch 64 (93537) - https://sketch.com -->
    <title>img-04</title>
    <desc>Created with Sketch.</desc>
    <g id="Welcome" stroke="none" stroke-width="1" fill="none" fill-rule="evenodd">
        <g id="HOME---Aliados---EDS---Desktop-HD" transform="translate(-451.000000, -824.000000)" fill="#E2241C" fill-rule="nonzero">
            <g id="img-04" transform="translate(451.000000, 824.000000)">
                <path d="M45,9.5346 L45,4.5 C44.99685,2.016 42.984,0.00315 40.5,0 L4.5,0 C2.016,0.00315 0.00315,2.016 0,4.5 L0,24.3 C0.0069750144,26.598375 1.74915003,28.52055 4.0356,28.75365 L7.4187,37.535625 C8.3124,39.854475 10.91655,41.009625 13.235625,40.11705 L34.362,31.9788 C32.9022,35.791875 33.31755,40.06935 35.48295,43.530525 L36,44.3574 L36,53.1 C36,53.59725 36.40275,54 36.9,54 L53.1,54 C53.59725,54 54,53.59725 54,53.1 L54,23.392125 C53.99145,20.2797 52.752375,17.29755 50.551875,15.096375 L45,9.5346 Z M45,14.91705 L47.7315,22.0077 C48.266775,23.39955 47.5731,24.961275 46.181475,25.497 L44.6202,26.1 C44.8695,25.53255 44.99865,24.9192 45,24.3 L45,14.91705 Z M1.8,24.3 L1.8,4.5 C1.8,3.00915003 3.00915003,1.8 4.5,1.8 L40.5,1.8 C41.99085,1.8 43.2,3.00915003 43.2,4.5 L43.2,10.2204 L43.192125,10.2204 L43.2,10.240875 L43.2,24.3 C43.193025,24.45705 43.17255,24.61275 43.1388,24.7662 L34.8948,16.5213 C33.0417,14.71095 30.08745,14.697 28.2177,16.48845 C26.3475,18.281025 26.235225,21.233025 27.9648,23.161275 L31.4793,27 L4.5,27 C3.00915003,27 1.8,25.79085 1.8,24.3 Z M13.3299,28.8 L6.93,31.263975 L5.9832,28.8 L13.3299,28.8 Z M12.5883,38.436975 C11.1969,38.973375 9.63427501,38.2797 9.0981,36.8883 L7.5798,32.94 L18.3231,28.8 L18.3231,28.7946 L33.129,28.7946 L34.298775,30.0699 L12.5883,38.436975 Z M52.2,52.2 L37.8,52.2 L37.8,45 L52.2,45 L52.2,52.2 Z M52.2,43.2 L37.3995,43.2 L37.009125,42.5763 C34.8147,39.06945 34.7274,34.6401 36.7812,31.05 C36.9756,30.71025 36.9279,30.28365 36.6633,29.9952 L29.288025,21.9492 C28.188225,20.74545 28.2501,18.884475 29.427525,17.757 C30.6054,16.6293 32.467275,16.64775 33.621975,17.79795 L47.9637,32.1363 L49.2363,30.8637 L45.9063,27.5337 L46.8297,27.1737 C49.14675,26.279775 50.30145,23.677875 49.41,21.359475 L46.363725,13.449375 L49.279275,16.371 C51.142275,18.23355 52.1928,20.7576 52.2,23.392125 L52.2,43.2 Z" id="Shape"></path>
                <path d="M9.92,12 C11.0688,12 12,11.0688 12,9.92 L12,6.08 C12,4.9312 11.0688,4 9.92,4 L6.08,4 C4.9312,4 4,4.9312 4,6.08 L4,9.92 C4,11.0688 4.9312,12 6.08,12 L9.92,12 Z M5.6,9.92 L5.6,8.8 L7.2,8.8 L7.2,7.2 L5.6,7.2 L5.6,6.08 C5.6,5.81500001 5.81500001,5.6 6.08,5.6 L9.92,5.6 C10.185,5.6 10.4,5.81500001 10.4,6.08 L10.4,7.2 L8.8,7.2 L8.8,8.8 L10.4,8.8 L10.4,9.92 C10.4,10.185 10.185,10.4 9.92,10.4 L6.08,10.4 C5.81500001,10.4 5.6,10.185 5.6,9.92 Z" id="Shape"></path>
                <polygon id="Path" points="5 15 9 15 9 17 5 17"></polygon>
                <polygon id="Path" points="5 20 9 20 9 22 5 22"></polygon>
                <polygon id="Path" points="20 20 24 20 24 22 20 22"></polygon>
                <polygon id="Path" points="10 15 14 15 14 17 10 17"></polygon>
                <polygon id="Path" points="15 15 19 15 19 17 15 17"></polygon>
                <polygon id="Path" points="20 15 24 15 24 17 20 17"></polygon>
                <polygon id="Path" points="37 5 39 5 39 8 37 8"></polygon>
                <polygon id="Path" points="33 5 35 5 35 8 33 8"></polygon>
                <polygon id="Path" points="31 5 33 5 33 8 31 8"></polygon>
                <polygon id="Path" points="27 5 29 5 29 8 27 8"></polygon>
                <polygon id="Path" points="40 46 42 46 42 48 40 48"></polygon>
            </g>
        </g>
    </g>
</svg>