<?xml version="1.0" encoding="UTF-8"?>
<svg width="153px" height="167px" viewBox="0 0 153 167" version="1.1" xmlns="http://www.w3.org/2000/svg" xmlns:xlink="http://www.w3.org/1999/xlink">
    <!-- Generator: Sketch 64 (93537) - https://sketch.com -->
    <title>header-garantia</title>
    <desc>Created with Sketch.</desc>
    <g id="Welcome" stroke="none" stroke-width="1" fill="none" fill-rule="evenodd">
        <g id="HOME---Servicios---Garantía-Extendida---Desktop-HD" transform="translate(-1166.000000, -196.000000)" fill-rule="nonzero">
            <g id="header-garantia" transform="translate(1166.000000, 196.000000)">
                <path d="M150.948528,76.1190252 C150.951036,45.8495891 132.718822,18.5593542 104.754006,6.97454375 C76.7891901,-4.61026674 44.5994089,1.79196164 23.1956853,23.1956853 C1.79196164,44.5994089 -4.61026674,76.7891901 6.97454375,104.754006 C18.5593542,132.718822 45.8495891,150.951036 76.1190252,150.948441 L76.927437,150.948441 C87.5243225,165.20645 107.012541,169.466542 122.592131,160.930666 C138.171721,152.39479 145.070838,133.677385 138.758105,117.072139 C146.732799,104.906455 150.970605,90.6718881 150.948528,76.1254412" id="Path" fill="#000000"></path>
                <path d="M105.491319,166.584151 C94.0682694,166.555763 83.2968838,161.260029 76.2986722,152.231634 L76.1190252,152.231634 C41.345427,152.225625 10.9991132,128.649126 2.39737854,94.9561995 C-6.20435606,61.2632725 9.12677453,26.0254164 39.6419743,9.35131228 C70.1571741,-7.32279187 108.09336,-1.19124293 131.802033,24.2469562 C155.510706,49.6851552 158.960368,87.9585128 140.18245,117.226122 C144.24465,128.522851 142.554099,141.089847 135.65099,150.911489 C128.747881,160.733131 117.496216,166.580129 105.491319,166.584151 L105.491319,166.584151 Z M77.5690336,149.652416 L77.9604075,150.172109 C88.1779448,163.905533 106.955568,168.005703 121.967691,159.781278 C136.979813,151.556852 143.632234,133.524774 137.558319,117.521256 L137.327344,116.911739 L137.686639,116.359966 C156.108818,88.1805876 153.04679,51.0906125 130.252728,26.3139133 C107.458665,1.53721422 70.7521129,-4.60047892 41.1375379,11.4129855 C11.5229629,27.42645 -3.43874823,61.5026803 4.81389431,94.1423492 C13.0665369,126.782018 42.426554,149.651904 76.0933613,149.665248 L76.5938067,149.665248 L77.5690336,149.652416 Z" id="Shape" fill="#FFFFFF"></path>
                <path d="M36.4041933,85.3323529 L27.0240504,85.3323529 C26.9819157,86.5345 27.4476653,87.6988742 28.3072437,88.5403361 C29.0837563,89.3147288 30.1362697,89.7486598 31.2329244,89.7465378 C33.0314163,89.8866247 34.6977875,88.7950462 35.2878151,87.0903277 L36.1988823,87.3020546 C35.8611536,88.3271506 35.1961976,89.2130072 34.3061723,89.8235294 C33.3948629,90.4147672 32.3251871,90.7146345 31.2393403,90.6832689 C29.8243421,90.6891599 28.467666,90.119931 27.4804984,89.1061486 C26.4933309,88.0923662 25.9603875,86.72103 26.0039118,85.306689 C25.9366253,83.8128239 26.5137146,82.3619232 27.5886555,81.3223739 C28.5925515,80.3366159 29.9479685,79.7916782 31.3548277,79.8082059 C32.6856758,79.767251 33.9727103,80.2862541 34.9028571,81.2389664 C35.8637532,82.2367247 36.3997194,83.5685892 36.3977773,84.9538109 L36.4041933,85.3323529 Z M28.5382185,81.7779075 C27.7007978,82.4634076 27.169984,83.4534909 27.0625462,84.5303571 L35.3648067,84.5303571 C35.2986815,83.4747901 34.8411134,82.4818672 34.0816134,81.7458277 C33.3399941,81.0738185 32.3681343,80.7131046 31.3676597,80.738521 C30.3304789,80.7349909 29.3264744,81.1038089 28.5382185,81.7779075 L28.5382185,81.7779075 Z" id="Shape" fill="#FFFFFF"></path>
                <polygon id="Path" fill="#FFFFFF" points="47.1188571 90.4202143 45.8741597 90.4202143 42.2106428 85.884126 38.4957983 90.4202143 37.2767647 90.4202143 41.4663907 85.2874412 37.2767647 80.0520126 38.4957983 80.0520126 42.184979 84.6715084 45.8484958 80.0520126 47.0931933 80.0520126 42.9035672 85.2874412"></polygon>
                <path d="M55.0425756,89.8235294 C54.4024025,90.3466388 53.604358,90.6382754 52.7777395,90.651189 C51.9473224,90.6876037 51.1374476,90.3867931 50.5321512,89.8171134 C49.9425578,89.1922695 49.6362464,88.3522338 49.6852437,87.4945336 L49.6852437,80.9502479 L47.4204075,80.9502479 L47.4204075,80.0648445 L49.6852437,80.0648445 L49.6852437,76.6515504 L50.7246302,76.6515504 L50.7246302,80.0648445 L54.5742101,80.0648445 L54.5742101,80.9502479 L50.7246302,80.9502479 L50.7246302,87.4303739 C50.6920071,88.0327345 50.8996754,88.6234357 51.3020672,89.0728613 C51.7076614,89.4815406 52.2666387,89.7004734 52.8418991,89.6759622 C53.5061277,89.6705503 54.1453074,89.4217267 54.6383697,88.9766218 L55.0425756,89.8235294 Z" id="Path" fill="#FFFFFF"></path>
                <path d="M65.5455178,85.3323529 L56.1653697,85.3323529 C56.123235,86.5345 56.5889846,87.6988742 57.448563,88.5403361 C58.2250756,89.3147288 59.277589,89.7486598 60.3742437,89.7465378 C62.1595271,89.8723847 63.8078095,88.786674 64.3970546,87.0967437 L65.3081218,87.3084706 C64.9775834,88.3266813 64.3244402,89.2095507 63.4474916,89.8235294 C62.5361822,90.4147672 61.4665064,90.7146345 60.3806596,90.6832689 C58.2169501,90.5847612 56.314339,89.2208971 55.5262191,87.2034211 C54.7380991,85.185945 55.2124043,82.8935469 56.7363907,81.3544538 C57.7418608,80.3671084 59.0999055,79.8220429 60.508979,79.8402857 C61.8377611,79.8003503 63.1224214,80.3193344 64.0505924,81.2710462 C65.0114884,82.2688045 65.5474547,83.6006691 65.5455178,84.9858907 L65.5455178,85.3323529 Z M57.6795378,81.7779075 C56.8439578,82.4640835 56.3154011,83.4542618 56.2102815,84.5303571 L64.506126,84.5303571 C64.4455772,83.4733908 63.9871193,82.478537 63.2229328,81.7458277 C62.4854028,81.0713132 61.5144502,80.710082 60.5153949,80.738521 C59.4761096,80.7340234 58.4697613,81.102866 57.6795378,81.7779075 L57.6795378,81.7779075 Z" id="Shape" fill="#FFFFFF"></path>
                <path d="M76.0869454,81.0336554 C76.8715102,81.9134596 77.2833327,83.0638016 77.2354033,84.2416386 L77.2354033,90.4073823 L76.2024328,90.4073823 L76.2024328,84.3892059 C76.2479376,83.4309385 75.9241482,82.4917197 75.2977815,81.7650756 C74.6961163,81.1013422 73.8319363,80.7373534 72.9367059,80.7706008 C71.810939,80.7190685 70.7172973,81.1537209 69.9340336,81.9639706 C69.1500606,82.860459 68.7471794,84.0276635 68.8112395,85.2168655 L68.8112395,90.4073823 L67.7718529,90.4073823 L67.7718529,80.0648445 L68.8112395,80.0648445 L68.8112395,82.265521 C69.6003015,80.6601902 71.2801786,79.6897635 73.0650252,79.8082059 C74.2013162,79.7652394 75.3015214,80.2113948 76.0869454,81.0336554 Z" id="Path" fill="#FFFFFF"></path>
                <path d="M89.9903445,90.4202143 L88.950958,90.4202143 L88.950958,88.1938739 C88.5115457,88.9608671 87.8643267,89.588069 87.0839117,90.0031764 C86.2957307,90.4287223 85.413236,90.649346 84.5175252,90.6447731 C83.1227103,90.6915063 81.7700687,90.1625144 80.7770168,89.1819327 C78.7387937,86.9708278 78.7387937,83.5655587 80.7770168,81.3544538 C81.7528315,80.3619698 83.0938383,79.8144307 84.4854454,79.8402857 C85.3811561,79.8357128 86.2636508,80.0563364 87.0518319,80.4818823 C87.8322469,80.8969898 88.4794658,81.5241917 88.9188781,82.2911848 L88.9188781,75.1694622 L89.9582647,75.1694622 L89.9903445,90.4202143 Z M87.6613487,88.4954243 C89.3901975,86.6813152 89.3901975,83.8294074 87.6613487,82.0152983 C85.9591306,80.3542931 83.2427349,80.3542931 81.5405168,82.0152983 C79.8726599,83.8656644 79.8726599,86.677138 81.5405168,88.5275042 C83.2555123,90.1815594 85.9720171,90.1815594 87.6870126,88.5275042 L87.6613487,88.4954243 Z" id="Shape" fill="#FFFFFF"></path>
                <path d="M94.5200168,76.35 C94.674168,76.4996894 94.7600065,76.7061657 94.7574075,76.921021 C94.7611285,77.1323517 94.6748184,77.335297 94.5200168,77.4792101 C94.3669675,77.6267949 94.1615774,77.7075663 93.9489958,77.7037689 C93.730173,77.7105857 93.5176862,77.6297483 93.3587269,77.4792101 C93.2056052,77.3346349 93.1215577,77.1315201 93.1277521,76.921021 C93.1227079,76.7069737 93.2062876,76.5003461 93.3587269,76.35 C93.5147666,76.1935183 93.7280633,76.1077359 93.9489958,76.1126092 C94.163851,76.1100103 94.3703273,76.1958488 94.5200168,76.35 Z M93.4421344,90.465126 L93.4421344,80.0648445 L94.4558571,80.0648445 L94.4558571,90.4202143 L93.4421344,90.465126 Z" id="Shape" fill="#FFFFFF"></path>
                <path d="M107.627836,90.4202143 L106.594866,90.4202143 L106.594866,88.1938739 C106.153527,88.9593679 105.506796,89.5860965 104.727819,90.0031764 C103.928094,90.4347674 103.031625,90.6555725 102.122937,90.6447731 C100.741347,90.6808899 99.4046479,90.1526968 98.4209243,89.1819327 C96.3827013,86.9708278 96.3827013,83.5655587 98.4209243,81.3544538 C99.394765,80.3629608 100.733402,79.8154419 102.122937,79.8402857 C103.031625,79.8294863 103.928094,80.0502913 104.727819,80.4818823 C105.506796,80.8989623 106.153527,81.5256909 106.594866,82.2911848 L106.594866,75.1694622 L107.627836,75.1694622 L107.627836,90.4202143 Z M105.29884,88.4954243 C106.5906,87.2305656 106.998009,85.3144743 106.332614,83.6334749 C105.667218,81.9524754 104.058758,80.8343326 102.251256,80.7962647 C101.099236,80.7742111 99.9876902,81.2211451 99.1715924,82.0345462 C97.4947928,83.8814676 97.4947928,86.6998307 99.1715924,88.5467521 C100.88307,90.2033561 103.600195,90.2033561 105.311672,88.5467521 L105.29884,88.4954243 Z" id="Shape" fill="#FFFFFF"></path>
                <path d="M120.446937,90.4202143 L119.40755,90.4202143 L119.40755,88.2387857 C118.96268,88.9888549 118.321587,89.6033281 117.553336,90.0160084 C116.764856,90.4407829 115.882561,90.6613566 114.98695,90.657605 C113.591983,90.6846017 112.246135,90.1425561 111.259273,89.1562689 C109.22105,86.9451639 109.22105,83.5398948 111.259273,81.3287899 C112.238348,80.3372363 113.580862,79.7900285 114.974118,79.8146218 C115.870028,79.8083871 116.752929,80.0291124 117.540504,80.4562185 C118.309456,80.873732 118.950396,81.492494 119.394718,82.2462731 L119.394718,80.0648445 L120.434105,80.0648445 L120.446937,90.4202143 Z M118.117941,88.4954243 C119.84679,86.6813152 119.84679,83.8294074 118.117941,82.0152983 C116.415723,80.3542931 113.699327,80.3542931 111.997109,82.0152983 C110.329252,83.8656644 110.329252,86.677138 111.997109,88.5275042 C113.712105,90.1815594 116.428609,90.1815594 118.143605,88.5275042 L118.117941,88.4954243 Z" id="Shape" fill="#FFFFFF"></path>
                <path d="M24.5859832,71.8203277 C24.6713418,74.0412008 23.8054629,76.1930614 22.2056597,77.7358487 C20.5067188,79.2555206 18.2782211,80.0459805 16.0014202,79.9365252 C11.6043445,79.9365252 8.70860504,78.2897605 7.31420168,74.9962311 L8.86044958,74.0595 C10.1436429,76.8953571 12.5239664,78.3132857 16.0014202,78.3132857 C17.8281249,78.3949293 19.6108714,77.7382497 20.9481302,76.4911512 C22.2299031,75.2081123 22.92618,73.4534945 22.8729202,71.6406807 L22.8729202,68.2851302 C21.3330882,70.813021 18.9271008,72.0769664 15.654958,72.0769664 C13.3517737,72.124228 11.1227143,71.2621099 9.45071848,69.6773949 C7.74650708,68.093514 6.81069579,65.8499064 6.88433193,63.5244832 C6.81565513,61.2167717 7.75203307,58.9928741 9.45071848,57.4293151 C11.1280145,55.8551769 13.355197,55.0006942 15.654958,55.0489916 C18.9527647,55.0489916 21.3523361,56.3321849 22.8729202,58.8023319 L22.8729202,55.4467815 L24.5988151,55.4467815 L24.5859832,71.8203277 Z M20.800563,68.5738487 C22.1814896,67.2627048 22.9317521,65.4209389 22.8600882,63.5180672 C22.9330452,61.6280879 22.1815167,59.7996027 20.800563,58.5071975 C19.4710268,57.2408411 17.6960873,56.5493062 15.8602689,56.5824075 C13.9510308,56.5340615 12.0966147,57.2234355 10.682584,58.5071975 C9.27469865,59.7846512 8.50227526,61.6182764 8.57173109,63.5180672 C8.49830687,65.4353494 9.26996592,67.2882693 10.682584,68.5866807 C12.094499,69.8739163 13.9503636,70.5638288 15.8602689,70.5114706 C17.6994154,70.5495922 19.4777191,69.8521276 20.800563,68.5738487 L20.800563,68.5738487 Z" id="Shape" fill="#FFE800"></path>
                <path d="M46.4066849,73.0842731 L44.6422941,73.0842731 L44.6422941,69.3694286 C43.8896875,70.6508262 42.7971487,71.6989529 41.4856386,72.3977647 C40.127577,73.127389 38.6065774,73.5004644 37.0650378,73.482063 C34.6879614,73.5302708 32.3948592,72.602828 30.719647,70.9156764 C28.966046,69.1477965 28.0250053,66.731297 28.1211807,64.2430714 C28.0284365,61.7573976 28.9772628,59.3457974 30.7388949,57.5897143 C32.4077617,55.9048956 34.6940421,54.9773985 37.0650378,55.0233277 C38.6079925,55.0063213 40.1296869,55.3839843 41.4856386,56.120458 C42.7955552,56.8301726 43.8869752,57.883881 44.6422941,59.168042 L44.6422941,55.4467815 L46.4066849,55.4467815 L46.4066849,73.0842731 Z M42.4416176,69.7672185 C45.3876708,66.6785951 45.3876708,61.8203797 42.4416176,58.7317563 C39.5412958,55.9045436 34.9159941,55.9045436 32.0156723,58.7317563 C30.5615708,60.1985337 29.7849431,62.2052095 29.8727395,64.2687353 C29.7755616,66.3351312 30.54806,68.3478152 32.0028403,69.8185462 C34.9281164,72.6272921 39.5528759,72.6131057 42.4608655,69.7864664 L42.4416176,69.7672185 Z" id="Shape" fill="#FFE800"></path>
                <path d="M62.4530168,55.4147017 L62.2733697,57.1021008 C61.9274813,57.0482373 61.5775564,57.0246227 61.2275672,57.0315252 C59.0985671,56.937965 57.053796,57.8708769 55.729084,59.540168 C54.3575109,61.3158222 53.6494496,63.5148971 53.7273025,65.7572395 L53.7273025,73.1163529 L51.9693277,73.1163529 L51.9693277,55.4467815 L53.7337185,55.4467815 L53.7337185,60.3870756 C54.4194922,58.9165394 55.4682768,57.6447501 56.7813025,56.691479 C58.0783328,55.7636304 59.6394887,55.2777375 61.2339832,55.3056302 C61.6430937,55.2972982 62.0518837,55.3338741 62.4530168,55.4147017 Z" id="Path" fill="#FFE800"></path>
                <path d="M80.7770168,73.0842731 L79.0062101,73.0842731 L79.0062101,69.3694286 C78.2561449,70.6505839 77.165715,71.698818 75.8559706,72.3977647 C74.497909,73.127389 72.9769093,73.5004644 71.4353697,73.482063 C69.0580154,73.5317822 66.7643402,72.6041077 65.089979,70.9156764 C63.348109,69.1423842 62.4189466,66.726562 62.5235924,64.2430714 C62.4315168,61.7587525 63.3776066,59.3481996 65.1348907,57.5897143 C66.8070041,55.905818 69.0947984,54.978647 71.4674496,55.0233277 C73.0104043,55.0063213 74.5320987,55.3839843 75.8880504,56.120458 C77.1959958,56.8305824 78.2852395,57.8843313 79.0382899,59.168042 L79.0382899,55.4467815 L80.8090966,55.4467815 L80.7770168,73.0842731 Z M76.8119496,69.7672185 C79.7514849,66.6759879 79.7514849,61.8229868 76.8119496,58.7317563 C73.9116277,55.9045436 69.286326,55.9045436 66.3860042,58.7317563 C64.9319028,60.1985337 64.155275,62.2052095 64.2430714,64.2687353 C64.1473635,66.33367 64.9170139,68.3449919 66.3667563,69.8185462 C69.2941971,72.6280835 73.9210374,72.6138995 76.8311975,69.7864664 L76.8119496,69.7672185 Z" id="Shape" fill="#FFE800"></path>
                <path d="M100.409874,57.1021008 C101.762597,58.5977273 102.470435,60.5667637 102.379576,62.5813361 L102.379576,73.0778571 L100.608769,73.0778571 L100.608769,62.8764706 C100.690437,61.2384494 100.141724,59.631342 99.0753529,58.3852941 C98.0558904,57.2496426 96.5839441,56.6265343 95.058958,56.685063 C93.134075,56.5944044 91.2635402,57.337942 89.9261848,58.7253403 C88.6429916,60.0855252 88.0013949,61.9333235 88.0013949,64.2623193 L88.0013949,73.097105 L86.2305882,73.097105 L86.2305882,55.4467815 L88.0013949,55.4467815 L88.0013949,59.2001218 C89.4385714,56.4113151 91.8531134,55.0169117 95.245021,55.0169117 C97.1875559,54.9301428 99.0720791,55.6909752 100.409874,57.1021008 L100.409874,57.1021008 Z" id="Path" fill="#FFE800"></path>
                <path d="M117.020811,72.0769664 C115.931031,72.9629591 114.575514,73.4577229 113.171231,73.482063 C111.746724,73.5571376 110.354228,73.041914 109.321651,72.0577185 C108.315682,70.9959614 107.793249,69.5656579 107.878059,68.1054832 L107.878059,56.9609496 L104.028479,56.9609496 L104.028479,55.4467815 L107.878059,55.4467815 L107.878059,49.6724117 L109.64245,49.6724117 L109.64245,55.4467815 L116.244479,55.4467815 L116.244479,56.9609496 L109.661697,56.9609496 L109.661697,68.0092437 C109.605828,69.0371582 109.963988,70.044627 110.656172,70.806605 C111.34245,71.5023958 112.291088,71.8753248 113.267471,71.8331596 C114.400057,71.8235293 115.490333,71.4015607 116.334302,70.6462059 L117.020811,72.0769664 Z" id="Path" fill="#FFE800"></path>
                <path d="M120.087643,73.0842731 L120.087643,55.4467815 L121.813538,55.4467815 L121.813538,73.0842731 L120.087643,73.0842731 Z M120.376361,52.6109244 L123.475273,47.6321344 L125.496302,47.6321344 L121.961105,52.6109244 L120.376361,52.6109244 Z" id="Shape" fill="#FFE800"></path>
                <path d="M144.173181,73.0842731 L142.434454,73.0842731 L142.434454,69.3694286 C141.681847,70.6508262 140.589308,71.6989529 139.277798,72.3977647 C137.92205,73.1273888 136.403115,73.5004991 134.863613,73.482063 C132.484602,73.5305281 130.189416,72.6031802 128.511807,70.9156764 C126.769937,69.1423842 125.840774,66.726562 125.94542,64.2430714 C125.852676,61.7573976 126.801502,59.3457974 128.563134,57.5897143 C130.235248,55.905818 132.523042,54.978647 134.895693,55.0233277 C136.407854,55.0184336 137.897017,55.3934821 139.226471,56.114042 C140.555259,56.8161919 141.665128,57.8705673 142.434454,59.161626 L142.434454,55.4467815 L144.198844,55.4467815 L144.173181,73.0842731 Z M140.208113,69.7672185 C143.154167,66.6785951 143.154167,61.8203797 140.208113,58.7317563 C137.309968,55.9053207 132.686729,55.9053207 129.788584,58.7317563 C128.332135,60.1974441 127.553129,62.2042573 127.639235,64.2687353 C127.545221,66.3346203 128.317249,68.3460784 129.769336,69.8185462 C132.694612,72.6272921 137.319372,72.6131057 140.227361,69.7864664 L140.208113,69.7672185 Z" id="Shape" fill="#FFE800"></path>
                <path d="M139.791076,129.705176 C139.791076,115.829041 131.43195,103.31936 118.611825,98.0097927 C105.791699,92.7002252 91.0354995,95.6364918 81.2245078,105.449319 C71.4135161,115.262146 68.4800095,130.018894 73.7919748,142.838026 C79.10394,155.657159 91.6151843,164.013944 105.491319,164.011349 C114.589292,164.011349 123.314542,160.396754 129.747178,153.962914 C136.179815,147.529075 139.792777,138.803149 139.791076,129.705176" id="Path" fill="#FFE800"></path>
                <path d="M90.6191092,127.677731 C90.3854664,126.727602 89.9692554,125.831986 89.3936596,125.040769 C88.8172958,124.256332 88.0659922,123.617065 87.1993991,123.173723 C86.2330328,122.695684 85.1655534,122.457977 84.0876554,122.480798 C83.0903703,122.467621 82.101042,122.659808 81.1812227,123.045403 C79.4554899,123.776255 78.1087002,125.188062 77.4599622,126.946311 C77.11598,127.876321 76.9442247,128.861197 76.9531008,129.852744 C76.9410187,130.858071 77.108314,131.857498 77.4471302,132.804088 C77.7600944,133.668481 78.2445805,134.460681 78.8714748,135.133084 C79.5034753,135.798098 80.2746859,136.315159 81.1298949,136.647252 C82.0739983,137.006916 83.0774356,137.185401 84.0876554,137.173361 C85.5122113,137.216347 86.9179318,136.839257 88.1297143,136.089063 C88.7195819,135.706978 89.2259331,135.209357 89.6182185,134.626223 C90.0641089,133.969597 90.4080501,133.249268 90.6383571,132.489706 L90.7345966,132.200987 C90.7345966,132.200987 90.7859243,132.072668 90.6319411,132.072668 L87.039,132.072668 C86.8529369,132.072668 86.833689,132.181739 86.833689,132.181739 L86.8016092,132.303643 C86.7443637,132.481594 86.6503716,132.645534 86.5257227,132.78484 C86.3567256,132.980653 86.1625616,133.153243 85.9482857,133.298118 C85.4337697,133.632813 84.8295324,133.802894 84.2159748,133.785731 C83.7812868,133.796614 83.3477687,133.735921 82.9327815,133.606084 C82.6022628,133.49859 82.299815,133.318875 82.0473781,133.079975 C81.7921824,132.823299 81.5990587,132.511668 81.4827731,132.168908 C81.360505,131.810115 81.2850293,131.437049 81.2582143,131.058945 L90.7217647,131.058945 C90.8757877,131.058945 90.8757877,130.879298 90.8757877,130.879298 L90.8757877,130.757395 C90.8757877,130.520004 90.8757877,130.289029 90.8757877,130.058055 C90.8780452,129.259972 90.7810612,128.464703 90.5870294,127.690563 M81.8099874,126.80516 C82.0357123,126.533421 82.318219,126.314424 82.637647,126.163563 C83.0494162,125.974071 83.4999438,125.883965 83.9529201,125.900508 C84.3150017,125.892791 84.6755882,125.949268 85.0179706,126.067323 C85.2856725,126.157962 85.5261995,126.314636 85.7173109,126.522857 C86.0959815,126.980918 86.3560011,127.525197 86.4743949,128.107601 L81.2646302,128.107601 C81.2646302,127.960034 81.3287899,127.80605 81.3737017,127.632819 C81.4637131,127.334989 81.6120138,127.058015 81.8099874,126.817992" id="Shape" fill="#221E20"></path>
                <path d="M104.29795,136.692164 L99.2229201,129.390794 L103.80392,122.865756 C103.80392,122.865756 103.861664,122.782349 103.701265,122.782349 L99.0689369,122.782349 C98.9930708,122.774197 98.9189416,122.80879 98.876458,122.872172 L96.7976848,125.990332 L94.7060798,122.885004 C94.6515707,122.81733 94.5683636,122.779293 94.481521,122.782349 L89.7208739,122.782349 C89.5861386,122.782349 89.6567143,122.878588 89.6567143,122.878588 L89.9775126,123.340538 L94.2248823,129.467786 L89.2717563,136.704996 C89.2717563,136.704996 89.1819327,136.846181 89.3487479,136.846181 L93.9939075,136.846181 C94.1051767,136.847844 94.2075164,136.785442 94.2569622,136.685748 L96.7527731,132.919576 L99.242168,136.685748 C99.3013165,136.776004 99.3978997,136.834897 99.5052227,136.846181 L104.220958,136.846181 C104.400605,136.846181 104.29795,136.692164 104.29795,136.692164" id="Path" fill="#221E20"></path>
                <path d="M110.155727,122.782349 L104.804811,122.782349 C104.618748,122.782349 104.650828,122.910668 104.650828,122.910668 L105.420744,136.672916 C105.420744,136.672916 105.420744,136.846147 105.581143,136.846147 L109.366563,136.846147 C109.526962,136.846147 109.526962,136.6665 109.526962,136.6665 L110.296878,122.936332 C110.296878,122.936332 110.296878,122.782349 110.155727,122.782349" id="Path" fill="#221E20"></path>
                <path d="M120.337866,125.939004 C120.379903,125.9374 120.419454,125.918667 120.447327,125.887158 C120.475201,125.855649 120.488969,125.814108 120.485433,125.772189 L120.485433,122.9235 C120.487787,122.883065 120.471826,122.843717 120.441969,122.816348 C120.412112,122.788979 120.371527,122.776494 120.33145,122.782349 L117.765063,122.782349 L117.765063,118.932769 C117.768834,118.892022 117.754735,118.851644 117.726422,118.822099 C117.698108,118.792554 117.658366,118.776752 117.617496,118.778786 L113.562605,118.778786 C113.520661,118.774763 113.479114,118.789688 113.449319,118.819483 C113.419525,118.849278 113.404599,118.890825 113.408622,118.932769 L113.408622,122.782349 L111.355513,122.782349 C111.16945,122.782349 111.188697,122.910668 111.188697,122.910668 L111.188697,125.785021 C111.182843,125.825099 111.195328,125.865684 111.222697,125.895541 C111.250066,125.925398 111.289414,125.941358 111.329849,125.939004 L113.408622,125.939004 L113.408622,133.452101 C113.388072,134.07269 113.517946,134.68904 113.787164,135.248571 C114.03004,135.702634 114.394336,136.080258 114.839382,136.339286 C115.290589,136.596723 115.787321,136.764479 116.302223,136.833315 C116.856413,136.917247 117.416286,136.958004 117.97679,136.955352 C118.3425,136.955352 118.714626,136.955352 119.099584,136.955352 C119.460645,136.943167 119.820621,136.908883 120.177466,136.852563 L120.33145,136.852563 C120.37412,136.847754 120.413081,136.826036 120.439611,136.792271 C120.466141,136.758506 120.478024,136.715513 120.472601,136.672916 L120.472601,133.394357 C120.472601,133.221126 120.325034,133.27887 120.325034,133.27887 L120.049147,133.336613 L119.542286,133.407189 C119.369055,133.407189 119.176576,133.407189 118.977681,133.407189 C118.746943,133.409033 118.516709,133.385364 118.291172,133.336613 C118.180421,133.321696 118.077168,133.272314 117.996038,133.195462 C117.920717,133.110776 117.871672,133.005998 117.854887,132.893912 C117.802174,132.669023 117.778456,132.438313 117.784311,132.207403 L117.784311,125.951836 L120.337866,125.939004 Z" id="Path" fill="#221E20"></path>
                <path d="M134.735294,126.798744 C134.097956,125.025437 132.717502,123.619202 130.95629,122.949164 C130.001977,122.585418 128.987666,122.404758 127.96645,122.416639 C126.951488,122.404717 125.943475,122.585419 124.995857,122.949164 C123.239057,123.619429 121.864709,125.026611 121.236101,126.798744 C120.882481,127.770855 120.70856,128.799163 120.722823,129.833496 C120.707442,130.861643 120.881433,131.88384 121.236101,132.849 C121.555305,133.720664 122.056121,134.514534 122.705357,135.177996 C123.354393,135.835915 124.137903,136.345853 125.002273,136.672916 C125.949754,137.02708 126.95505,137.201158 127.96645,137.186193 C128.984115,137.201155 129.99572,137.027116 130.949874,136.672916 C131.818831,136.347493 132.606864,135.837461 133.259622,135.177996 C133.910707,134.514778 134.413671,133.720968 134.735294,132.849 C135.086894,131.883025 135.260788,130.861397 135.248571,129.833496 C135.259609,128.799414 135.085785,127.771679 134.735294,126.798744 M129.377962,133.452101 C128.948366,133.674152 128.469026,133.78239 127.985697,133.766483 C127.510373,133.784437 127.038795,133.675952 126.619097,133.452101 C126.261715,133.247579 125.961622,132.956312 125.746525,132.605193 C125.51048,132.22067 125.345326,131.796921 125.258912,131.35408 C125.161112,130.861774 125.111687,130.361085 125.111345,129.85916 C125.112147,129.35301 125.161563,128.848108 125.258912,128.351408 C125.341972,127.907601 125.507357,127.483259 125.746525,127.100294 C126.219884,126.326579 127.080083,125.875529 127.985697,125.926172 C128.467953,125.907986 128.946335,126.018723 129.371546,126.246971 C129.731846,126.457244 130.037408,126.749617 130.263366,127.100294 C130.497791,127.484955 130.660808,127.908797 130.744563,128.351408 C130.841912,128.848108 130.891328,129.35301 130.89213,129.85916 C130.891787,130.361085 130.842363,130.861774 130.744563,131.35408 C130.657431,131.795723 130.494636,132.218988 130.263366,132.605193 C130.045134,132.958261 129.740376,133.249768 129.377962,133.452101" id="Shape" fill="#221E20"></path>
                <path d="M110.097983,140.195281 C110.097983,138.746014 108.92312,137.571151 107.473853,137.571151 C106.024586,137.571151 104.849723,138.746014 104.849723,140.195281 C104.849723,141.644549 106.024586,142.819412 107.473853,142.819412 C108.92312,142.819412 110.097983,141.644549 110.097983,140.195281" id="Path" fill="#E2241C"></path>
                <path d="M84.6137647,118.875025 L82.5606554,121.441412 C82.5606554,121.441412 82.4323361,121.588979 82.5991512,121.588979 L85.0243865,121.588979 C85.1359972,121.592567 85.2452175,121.556161 85.3323529,121.486323 L88.7777269,118.862193 C88.7777269,118.862193 88.8996302,118.759538 88.7392311,118.759538 L84.8896512,118.759538 C84.794383,118.750158 84.7006598,118.788608 84.6394285,118.862193" id="Path" fill="#000000"></path>
            </g>
        </g>
    </g>
</svg>