<?xml version="1.0" encoding="UTF-8"?>
<svg width="38px" height="65px" viewBox="0 0 38 65" version="1.1" xmlns="http://www.w3.org/2000/svg" xmlns:xlink="http://www.w3.org/1999/xlink">
    <!-- Generator: Sketch 64 (93537) - https://sketch.com -->
    <title>img-05</title>
    <desc>Created with Sketch.</desc>
    <g id="Welcome" stroke="none" stroke-width="1" fill="none" fill-rule="evenodd">
        <g id="HOME---Servicios---Garantía-Extendida---Desktop-HD" transform="translate(-1182.000000, -980.000000)" fill="#000000" fill-rule="nonzero">
            <g id="img-05" transform="translate(1182.000000, 980.000000)">
                <path d="M25.107176,3.61111111 L13.7975859,3.61111111 C13.1733471,3.61111111 12.6666667,4.01557841 12.6666667,4.51388889 C12.6666667,5.01219937 13.1733471,5.41666667 13.7975859,5.41666667 L25.107176,5.41666667 C25.7314148,5.41666667 26.2380952,5.01219937 26.2380952,4.51388889 C26.2380952,4.01557841 25.7314148,3.61111111 25.107176,3.61111111 Z" id="Path"></path>
                <path d="M32.2698413,3.61111111 L31.0634921,3.61111111 C30.3976178,3.61111111 29.8571429,4.01557841 29.8571429,4.51388889 C29.8571429,5.01219937 30.3976178,5.41666667 31.0634921,5.41666667 L32.2698413,5.41666667 C32.9357155,5.41666667 33.4761905,5.01219937 33.4761905,4.51388889 C33.4761905,4.01557841 32.9357155,3.61111111 32.2698413,3.61111111 Z" id="Path"></path>
                <path d="M20.4046036,55.0694444 L17.5964567,55.0694444 C15.8762879,55.0694444 14.4761905,56.3733236 14.4761905,57.975278 L14.4761905,58.4840427 C14.4761905,60.0859972 15.8762879,61.3888889 17.5953964,61.3888889 L20.4035433,61.3888889 C22.1237121,61.3888889 23.5238095,60.0859972 23.5238095,58.4840427 L23.5238095,57.975278 C23.5238095,56.3733236 22.1237121,55.0694444 20.4046036,55.0694444 Z M21.261971,58.4840427 C21.261971,58.9243056 20.8774876,59.2823663 20.4047361,59.2823663 L17.5964567,59.2823663 C17.1226449,59.2823663 16.738029,58.9243056 16.738029,58.4840427 L16.738029,57.975278 C16.738029,57.5340278 17.1225124,57.1758436 17.5964567,57.1758436 L20.4035433,57.1758436 C20.8774876,57.1758436 21.261971,57.5339044 21.261971,57.975278 L21.261971,58.4840427 L21.261971,58.4840427 Z" id="Shape"></path>
                <path d="M33.96088,0 L4.04029876,0 C1.81281688,0 0,1.7571582 0,3.91625 L0,61.08375 C0,63.2428418 1.81281688,65 4.04029876,65 L33.9597012,65 C36.1871831,65 38,63.2428418 38,61.0848926 L38,3.91625 C38,1.7571582 36.1873141,0 33.96088,0 Z M35.7647906,61.08375 C35.7647906,62.047959 34.9556307,62.833291 33.96088,62.833291 L4.04029876,62.833291 C3.04450028,62.833291 2.23534034,62.047832 2.23534034,61.0847656 L2.23534034,3.91625 C2.23534034,2.95204102 3.04450028,2.16670898 4.04029876,2.16670898 L33.9597012,2.16670898 C34.9554997,2.16670898 35.7647906,2.95216797 35.7647906,3.91625 L35.7647906,61.08375 L35.7647906,61.08375 Z" id="Shape"></path>
                <path d="M36.8822643,6.31944444 L1.11760468,6.31944444 C0.500715189,6.31944444 0,6.80662552 0,7.40684077 L0,53.0792703 C0,53.6794856 0.500715189,54.1666667 1.11760468,54.1666667 L36.8823953,54.1666667 C37.4992848,54.1666667 38,53.6794856 38,53.0792703 L38,7.40684077 C38,6.80662552 37.4992848,6.31944444 36.8822643,6.31944444 Z M35.7646597,51.991874 L2.23520937,51.991874 L2.23520937,8.49436452 L35.7646597,8.49436452 L35.7646597,51.991874 Z" id="Shape"></path>
            </g>
        </g>
    </g>
</svg>