<?xml version="1.0" encoding="UTF-8"?>
<svg width="96px" height="66px" viewBox="0 0 96 66" version="1.1" xmlns="http://www.w3.org/2000/svg" xmlns:xlink="http://www.w3.org/1999/xlink">
    <!-- Generator: Sketch 64 (93537) - https://sketch.com -->
    <title>img-03</title>
    <desc>Created with Sketch.</desc>
    <g id="Welcome" stroke="none" stroke-width="1" fill="none" fill-rule="evenodd">
        <g id="HOME---Servicios---Garantía-Extendida---Desktop-HD" transform="translate(-673.000000, -979.000000)" fill="#000000" fill-rule="nonzero">
            <g id="img-03" transform="translate(673.000000, 979.000000)">
                <path d="M91.7697293,0 L76.7008589,0 C74.3683347,0 72.4705882,1.89596558 72.4705882,4.22630098 L72.4705882,33.7179574 C72.4705882,36.0482928 74.3683347,37.9442584 76.7008589,37.9442584 L80.9384739,37.9442584 L80.9384739,59.4125467 L79.4240958,59.4125467 C77.6064013,59.4125467 76.1272754,60.8902847 76.1272754,62.7070072 C76.1272754,64.5229957 77.6064013,66 79.4240958,66 L89.0464926,66 C90.8641871,66 92.3433129,64.5229957 92.3433129,62.7070072 C92.3433129,60.8902847 90.8641871,59.4125467 89.0464926,59.4125467 L87.5321146,59.4125467 L87.5321146,46.9376216 C87.5321146,46.1598648 86.901246,45.5288546 86.1220243,45.5288546 C85.3435369,45.5288546 84.7119341,46.1598648 84.7119341,46.9376216 L84.7119341,59.4125467 L83.7586543,59.4125467 L83.7586543,37.9442584 L84.7119341,37.9442584 L84.7119341,41.3025536 C84.7119341,42.0810441 85.3435369,42.7113206 86.1220243,42.7113206 C86.901246,42.7113206 87.5321146,42.0810441 87.5321146,41.3025536 L87.5321146,37.9442584 L91.7697293,37.9442584 C94.1022536,37.9442584 96,36.0482928 96,33.7179574 L96,4.22630098 C96,1.89596558 94.1022536,0 91.7697293,0 Z M89.0464926,62.2300807 C89.3094156,62.2300807 89.5231324,62.4443307 89.5231324,62.7070072 C89.5231324,62.9689497 89.3094156,63.182466 89.0464926,63.182466 L79.4240958,63.182466 C79.1611726,63.182466 78.9474558,62.9689497 78.9474558,62.7070072 C78.9474558,62.4443307 79.1611726,62.2300807 79.4240958,62.2300807 L89.0464926,62.2300807 Z M93.1798196,33.7179574 C93.1798196,34.4949805 92.5474823,35.1267244 91.7697293,35.1267244 L76.7008589,35.1267244 C75.9231061,35.1267244 75.2907687,34.4949805 75.2907687,33.7179574 L75.2907687,4.22630098 C75.2907687,3.44927789 75.9231061,2.81753399 76.7008589,2.81753399 L91.7697293,2.81753399 C92.5474823,2.81753399 93.1798196,3.44927789 93.1798196,4.22630098 L93.1798196,33.7179574 Z" id="Shape"></path>
                <path d="M84.7058823,10.3714286 C82.1106748,10.3714286 80,12.4864197 80,15.0853617 C80,17.6850089 82.1106748,19.8 84.7058823,19.8 C87.3010897,19.8 89.4117647,17.6850089 89.4117647,15.0853617 C89.4117647,12.4864197 87.3010897,10.3714286 84.7058823,10.3714286 Z M84.7058823,17.0910053 C83.602303,17.0910053 82.7043682,16.1915345 82.7043682,15.0853617 C82.7043682,13.9798942 83.602303,13.0804233 84.7058823,13.0804233 C85.8094617,13.0804233 86.7073965,13.9798942 86.7073965,15.0853617 C86.7073965,16.1915345 85.8094617,17.0910053 84.7058823,17.0910053 Z" id="Shape"></path>
                <path d="M84.7058823,23.5714286 C82.1106748,23.5714286 80,25.6864197 80,28.2860669 C80,30.8850087 82.1106748,33 84.7058823,33 C87.3010897,33 89.4117647,30.8850087 89.4117647,28.2860669 C89.4117647,25.6864197 87.3010897,23.5714286 84.7058823,23.5714286 Z M84.7058823,30.2910053 C83.602303,30.2910053 82.7043682,29.3915343 82.7043682,28.2860669 C82.7043682,27.1798941 83.602303,26.2804233 84.7058823,26.2804233 C85.8094617,26.2804233 86.7073965,27.1798941 86.7073965,28.2860669 C86.7073965,29.3915343 85.8094617,30.2910053 84.7058823,30.2910053 Z" id="Shape"></path>
                <path d="M84.2352941,7.54285714 C85.0147059,7.54285714 85.6470588,6.94824193 85.6470588,6.21534372 L85.6470588,6.04179913 C85.6470588,5.3089011 85.0147059,4.71428571 84.2352941,4.71428571 C83.4558824,4.71428571 82.8235294,5.3089011 82.8235294,6.04179913 L82.8235294,6.21534372 C82.8235294,6.94824193 83.4558824,7.54285714 84.2352941,7.54285714 Z" id="Path"></path>
                <path d="M11.2941177,19.8 C13.8893252,19.8 16,17.6850089 16,15.0853617 C16,12.4864197 13.8893252,10.3714286 11.2941177,10.3714286 C8.69891029,10.3714286 6.58823529,12.4864197 6.58823529,15.0853617 C6.58823529,17.6850089 8.69891029,19.8 11.2941177,19.8 Z M11.2941177,13.0804233 C12.397697,13.0804233 13.2956318,13.9798942 13.2956318,15.0853617 C13.2956318,16.1915345 12.397697,17.0910053 11.2941177,17.0910053 C10.1905383,17.0910053 9.29260348,16.1915345 9.29260348,15.0853617 C9.29260348,13.9798942 10.1905383,13.0804233 11.2941177,13.0804233 Z" id="Shape"></path>
                <path d="M16,28.2860669 C16,25.6864197 13.8893252,23.5714286 11.2941177,23.5714286 C8.69891029,23.5714286 6.58823529,25.6864197 6.58823529,28.2860669 C6.58823529,30.8850087 8.69891029,33 11.2941177,33 C13.8893252,33 16,30.8850087 16,28.2860669 Z M9.29260348,28.2860669 C9.29260348,27.1798941 10.1905383,26.2804233 11.2941177,26.2804233 C12.3984014,26.2804233 13.2963362,27.1798941 13.2963362,28.2860669 C13.2963362,29.3915343 12.397697,30.2910053 11.2941177,30.2910053 C10.1905383,30.2910053 9.29260348,29.3915343 9.29260348,28.2860669 Z" id="Shape"></path>
                <path d="M11.7647059,7.54285714 C12.5441176,7.54285714 13.1764706,6.94824193 13.1764706,6.21534372 L13.1764706,6.04179913 C13.1764706,5.3089011 12.5441176,4.71428571 11.7647059,4.71428571 C10.9852941,4.71428571 10.3529412,5.3089011 10.3529412,6.04179913 L10.3529412,6.21534372 C10.3529412,6.94824193 10.9852941,7.54285714 11.7647059,7.54285714 Z" id="Path"></path>
                <path d="M16.5759042,59.4125467 L15.0615261,59.4125467 L15.0615261,46.9376216 C15.0615261,46.1598648 14.4306576,45.5288546 13.6514359,45.5288546 C12.8729486,45.5288546 12.2413457,46.1598648 12.2413457,46.9376216 L12.2413457,59.4125467 L11.2880659,59.4125467 L11.2880659,37.9442584 L12.2413457,37.9442584 L12.2413457,41.3025536 C12.2413457,42.0810441 12.8729486,42.7113206 13.6514359,42.7113206 C14.4306576,42.7113206 15.0615261,42.0810441 15.0615261,41.3025536 L15.0615261,37.9442584 L19.2991411,37.9442584 C21.6316653,37.9442584 23.5294118,36.0482928 23.5294118,33.7179574 L23.5294118,4.22630098 C23.5294118,1.89596558 21.6316653,0 19.2991411,0 L4.23027065,0 C1.89774642,0 0,1.89596558 0,4.22630098 L0,33.7179574 C0,36.0482928 1.89774642,37.9442584 4.23027065,37.9442584 L8.46788543,37.9442584 L8.46788543,59.4125467 L6.95350739,59.4125467 C5.13581292,59.4125467 3.65668713,60.8902847 3.65668713,62.7070072 C3.65668713,64.5229957 5.13581292,66 6.95350739,66 L16.5759042,66 C18.3935987,66 19.8727246,64.5229957 19.8727246,62.7070072 C19.8727246,60.8902847 18.3935987,59.4125467 16.5759042,59.4125467 Z M2.82018044,33.7179574 L2.82018044,4.22630098 C2.82018044,3.44927789 3.45251772,2.81753399 4.23027065,2.81753399 L19.2991411,2.81753399 C20.0768939,2.81753399 20.7092313,3.44927789 20.7092313,4.22630098 L20.7092313,33.7179574 C20.7092313,34.4949805 20.0768939,35.1267244 19.2991411,35.1267244 L4.23027065,35.1267244 C3.45251772,35.1267244 2.82018044,34.4949805 2.82018044,33.7179574 Z M16.5759042,63.1831997 L6.95350739,63.1831997 C6.69058441,63.1831997 6.47686756,62.9689497 6.47686756,62.7070072 C6.47686756,62.4443307 6.69058441,62.2308146 6.95350739,62.2308146 L16.5759042,62.2308146 C16.8388274,62.2308146 17.0525442,62.4443307 17.0525442,62.7070072 C17.0525442,62.9689497 16.8388274,63.1831997 16.5759042,63.1831997 Z" id="Shape"></path>
                <path d="M32.9411765,33.9425073 C32.9411765,36.5419243 35.0526247,38.6571429 37.6474081,38.6571429 C40.2421915,38.6571429 42.3529412,36.5419243 42.3529412,33.9425073 C42.3529412,31.3430903 40.2421915,29.2285714 37.6474081,29.2285714 C35.0526247,29.2285714 32.9411765,31.3430903 32.9411765,33.9425073 Z M37.6474081,31.9154519 C38.7628506,31.9154519 39.6708502,32.8243731 39.6708502,33.9425073 C39.6708502,35.0606415 38.7628506,35.9695627 37.6474081,35.9695627 C36.531267,35.9695627 35.6232675,35.0606415 35.6232675,33.9425073 C35.6232675,32.8243731 36.531267,31.9154519 37.6474081,31.9154519 Z" id="Shape"></path>
                <path d="M58.3525919,38.6571429 C60.9473753,38.6571429 63.0588235,36.5419243 63.0588235,33.9425073 C63.0588235,31.3430903 60.9473753,29.2285714 58.3525919,29.2285714 C55.7578085,29.2285714 53.6470588,31.3430903 53.6470588,33.9425073 C53.6470588,36.5419243 55.7578085,38.6571429 58.3525919,38.6571429 L58.3525919,38.6571429 Z M58.3525919,31.9154519 C59.468733,31.9154519 60.3767325,32.8243731 60.3767325,33.9425073 C60.3767325,35.0606415 59.468733,35.9695627 58.3525919,35.9695627 C57.2371494,35.9695627 56.3291498,35.0606415 56.3291498,33.9425073 C56.3291498,32.8243731 57.2371494,31.9154519 58.3525919,31.9154519 L58.3525919,31.9154519 Z" id="Shape"></path>
                <path d="M71.0983846,41.610163 L67.8182828,41.610163 C67.9734375,41.1728892 68.0579349,40.7021468 68.0579349,40.2132151 L68.0579349,28.7051294 C68.0579349,26.3943447 66.1764108,24.5142857 63.8622019,24.5142857 L40.1526681,24.5142857 C39.3805367,24.5142857 38.7540904,25.1392744 38.7540904,25.9112336 C38.7540904,26.6824652 39.3805367,27.3081815 40.1526681,27.3081815 L44.2529773,27.3081815 L44.2529773,41.610163 L32.1377981,41.610163 C31.3663951,41.610163 30.7392205,40.9829917 30.7392205,40.2132151 L30.7392205,28.7051294 C30.7392205,27.9346252 31.3663951,27.3081815 32.1377981,27.3081815 L34.5583574,27.3081815 C35.3312172,27.3081815 35.956935,26.6824652 35.956935,25.9112336 C35.956935,25.1392744 35.3312172,24.5142857 34.5583574,24.5142857 L32.1377981,24.5142857 C29.8235892,24.5142857 27.9420651,26.3943447 27.9420651,28.7051294 L27.9420651,40.2132151 C27.9420651,40.7021468 28.0265625,41.1728892 28.1817172,41.610163 L24.9016154,41.610163 C22.5881348,41.610163 20.7058824,43.490222 20.7058824,45.8010066 L20.7058824,56.1988099 C20.7058824,58.5095945 22.5881348,60.3896535 24.9016154,60.3896535 L25.8471123,60.3896535 L25.8471123,62.2260579 C25.8471123,64.3069282 27.5421593,66 29.6254573,66 C31.7094837,66 33.4045308,64.3069282 33.4045308,62.2260579 L33.4045308,60.3896535 L62.5954692,60.3896535 L62.5954692,62.2260579 C62.5954692,64.3069282 64.2905163,66 66.3745427,66 C68.4578407,66 70.1528877,64.3069282 70.1528877,62.2260579 L70.1528877,60.3896535 L71.0983846,60.3896535 C73.4118652,60.3896535 75.2941176,58.5095945 75.2941176,56.1988099 L75.2941176,45.8010066 C75.2941176,43.490222 73.4118652,41.610163 71.0983846,41.610163 L71.0983846,41.610163 Z M65.2607795,28.7051294 L65.2607795,40.2132151 C65.2607795,40.9829917 64.6336049,41.610163 63.8622019,41.610163 L51.7470227,41.610163 L51.7470227,27.3081815 L63.8622019,27.3081815 C64.6336049,27.3081815 65.2607795,27.9346252 65.2607795,28.7051294 Z M47.0501327,27.3081815 L48.9498673,27.3081815 L48.9498673,41.610163 L47.0501327,41.610163 L47.0501327,27.3081815 Z M30.6073754,62.2260579 C30.6073754,62.7666477 30.1666778,63.2068318 29.6254573,63.2068318 C29.0842369,63.2068318 28.6442676,62.7673752 28.6442676,62.2260579 L28.6442676,60.3903811 L30.6073754,60.3903811 L30.6073754,62.2260579 Z M67.3557324,62.2260579 C67.3557324,62.7666477 66.9157631,63.2068318 66.3738143,63.2068318 C65.8325938,63.2068318 65.3926246,62.7673752 65.3926246,62.2260579 L65.3926246,60.3903811 L67.3557324,60.3903811 L67.3557324,62.2260579 Z M72.4969623,56.1988099 C72.4969623,56.969314 71.8697875,57.5957578 71.0983846,57.5957578 L24.9016154,57.5957578 C24.1302125,57.5957578 23.5030377,56.969314 23.5030377,56.1988099 L23.5030377,45.8010066 C23.5030377,45.0305025 24.1302125,44.4040587 24.9016154,44.4040587 L71.0983846,44.4040587 C71.8697875,44.4040587 72.4969623,45.0305025 72.4969623,45.8010066 L72.4969623,56.1988099 Z" id="Shape"></path>
                <path d="M42.8470879,49.0285714 L28.6823238,49.0285714 C27.9151954,49.0285714 27.2941176,49.6613168 27.2941176,50.4428571 C27.2941176,51.2236607 27.9151954,51.8571429 28.6823238,51.8571429 L42.8470879,51.8571429 C43.6134936,51.8571429 44.2352941,51.2236607 44.2352941,50.4428571 C44.2352941,49.6613168 43.6134936,49.0285714 42.8470879,49.0285714 Z" id="Path"></path>
                <path d="M54.0224682,47.1428571 L51.3892966,47.1428571 C49.5203564,47.1428571 48,48.6237137 48,50.4424984 C48,52.2620005 49.5203564,53.7428571 51.3892966,53.7428571 L54.0224682,53.7428571 C55.8914083,53.7428571 57.4117647,52.2620005 57.4117647,50.4424984 C57.4117647,48.6237137 55.8914083,47.1428571 54.0224682,47.1428571 Z M54.0224682,50.9877751 L51.3892966,50.9877751 C51.0805087,50.9877751 50.829941,50.7431181 50.829941,50.4424984 C50.829941,50.1418788 51.0812456,49.8979392 51.3892966,49.8979392 L54.0224682,49.8979392 C54.331256,49.8979392 54.5818237,50.1418788 54.5818237,50.4424984 C54.5818237,50.7431181 54.331256,50.9877751 54.0224682,50.9877751 Z" id="Shape"></path>
                <path d="M65.316586,47.1428571 L62.6841511,47.1428571 C60.8152109,47.1428571 59.2941176,48.6237137 59.2941176,50.4424984 C59.2941176,52.2620005 60.8152109,53.7428571 62.6841511,53.7428571 L65.316586,53.7428571 C67.1855262,53.7428571 68.7058824,52.2620005 68.7058824,50.4424984 C68.7058824,48.6237137 67.1855262,47.1428571 65.316586,47.1428571 Z M65.316586,50.9877751 L62.6841511,50.9877751 C62.3753634,50.9877751 62.1240586,50.7431181 62.1240586,50.4424984 C62.1240586,50.1418788 62.3753634,49.8979392 62.6841511,49.8979392 L65.316586,49.8979392 C65.6253737,49.8979392 65.8759414,50.1418788 65.8759414,50.4424984 C65.8759414,50.7431181 65.6253737,50.9877751 65.316586,50.9877751 Z" id="Shape"></path>
            </g>
        </g>
    </g>
</svg>