<?xml version="1.0" encoding="UTF-8"?>
<svg width="120px" height="44px" viewBox="0 0 120 44" version="1.1" xmlns="http://www.w3.org/2000/svg" xmlns:xlink="http://www.w3.org/1999/xlink">
    <!-- Generator: Sketch 64 (93537) - https://sketch.com -->
    <title>img-01</title>
    <desc>Created with Sketch.</desc>
    <g id="Welcome" stroke="none" stroke-width="1" fill="none" fill-rule="evenodd">
        <g id="HOME---Servicios---Garantía-Extendida---Desktop-HD" transform="translate(-177.000000, -1001.000000)" fill="#000000" fill-rule="nonzero">
            <g id="img-01" transform="translate(177.000000, 1001.000000)">
                <g id="iron" transform="translate(0.000000, 16.000000)">
                    <path d="M59.5962662,5.13985824 C59.0690169,4.63116344 58.226938,4.64401309 57.7156486,5.16782511 C56.8431698,6.06200927 56.0793708,6.51514825 55.4445816,6.51514825 C55.4326116,6.51514825 55.4206416,6.51495928 55.4088616,6.51458135 C54.359683,6.48623654 53.1928945,5.15270788 52.064486,3.86301919 C50.509148,2.08542189 48.7465203,0.0706730508 46.2020436,0.00170068839 C46.1579637,0.000566896129 46.1140737,0 46.0699938,0 C44.5809657,0 43.0773077,0.68292087 41.5010697,2.07427294 C40.4471411,1.35450382 39.2024527,0.934055855 37.7310946,0.934055855 L24.6385917,0.934055855 C22.3451046,0.934055855 20.0728976,1.50019612 17.8945504,2.45031404 L17.2814212,1.61754362 C16.8064218,0.972037896 16.1068428,0.549322349 15.3120738,0.427061751 C14.5178748,0.304801152 13.7221559,0.497545836 13.0729267,0.970337208 L8.54656259,4.2668382 C7.20687433,5.24208851 6.91484471,7.11964849 7.89581343,8.45223232 L8.4622027,9.22151037 C4.60957771,13.136684 1.8513513,17.5469469 1.05183234,20.3116993 C0.936312485,20.7109832 1.01630238,21.1410684 1.26767205,21.4728916 C1.51885173,21.8047148 1.91253122,22 2.33015067,22 L45.925214,22 C45.926544,22 45.928064,22 45.929014,22 C46.663553,22 47.2590122,21.4076985 47.2590122,20.6771584 C47.2590122,20.6427667 47.2576822,20.6087529 47.2550222,20.5749281 C47.2478022,17.1675044 46.8638127,8.53424329 43.4044872,3.93142466 C44.4283959,3.05802669 45.3417247,2.62548494 46.1298437,2.6458932 C47.5063919,2.68311938 48.8033302,4.16555276 50.0577086,5.59923307 C51.5628866,7.31957385 53.1193646,9.09887184 55.3362817,9.15877386 C55.3739017,9.15971869 55.4115216,9.16028559 55.4489516,9.16028559 C56.8462098,9.16028559 58.213638,8.4556337 59.6243861,7.0098596 C60.1360555,6.48604758 60.1233255,5.64855303 59.5962662,5.13985824 L59.5962662,5.13985824 Z M10.1180505,6.40158006 L14.6444147,3.10507906 C14.7415045,3.03421705 14.8397344,3.03194946 14.9056643,3.0415867 C14.9712142,3.05179083 15.0643141,3.08410391 15.135374,3.18047625 L15.4940935,3.66762899 C13.6921359,4.70939511 11.9800481,5.9854783 10.4034302,7.38023174 L10.0422406,6.88948866 C9.92786079,6.73415912 9.96168074,6.51533721 10.1180505,6.40158006 L10.1180505,6.40158006 Z M4.28239813,19.3549676 C5.48148657,16.8783874 7.89505343,13.4452645 11.0712793,10.3819467 C13.7054359,7.84168519 18.970899,3.57976009 24.6385917,3.57976009 L37.7310946,3.57976009 C40.2168614,3.57976009 42.087409,5.71582471 43.2908674,9.92842984 C44.2482761,13.2801087 44.5112358,17.0601721 44.5760257,19.3551566 L4.28239813,19.3551566 L4.28239813,19.3549676 Z" id="Shape"></path>
                    <path d="M45.6729751,24 L1.32702492,24 C0.594128016,24 0,24.6715714 0,25.5 C0,26.3284286 0.594128016,27 1.32702492,27 L45.6729751,27 C46.405872,27 47,26.3284286 47,25.5 C47,24.6715714 46.405872,24 45.6729751,24 Z" id="Path"></path>
                    <path d="M35.9568558,7 L25.7576124,7 C21.4341896,7 17.645878,12.1824249 17.0505878,14.3012547 C16.9378448,14.7030034 17.0158548,15.1357436 17.2615861,15.4696152 C17.5071317,15.8034868 17.8919808,15.9998931 18.3002328,15.9998931 L38.6961194,15.9998931 C38.6974196,16.0000356 38.6989055,16.0000356 38.6998342,15.9998931 C39.4178972,15.9998931 40,15.4040197 40,14.6689698 C40,14.6337954 39.9986998,14.5990013 39.9960995,14.5645874 C39.9752968,9.75539136 38.505738,7 35.9568558,7 L35.9568558,7 Z M20.4707668,13.3382367 C21.6849359,11.6468234 23.8357816,9.66184647 25.7576124,9.66184647 L35.9568558,9.66184647 C36.618083,9.66184647 37.1764114,11.2211181 37.3445042,13.3382367 L20.4707668,13.3382367 L20.4707668,13.3382367 Z" id="Shape"></path>
                </g>
                <g id="microwave" transform="translate(58.000000, 0.000000)">
                    <g id="Group">
                        <g id="Shape">
                            <path d="M56.7314531,0.0962651934 L5.26854688,0.0962651934 C2.36350781,0.0962651934 4.30211422e-15,2.46861878 4.30211422e-15,5.38453039 L4.30211422e-15,38.6154696 C4.30211422e-15,41.5313812 2.36350781,43.9037348 5.26854688,43.9037348 L56.731332,43.9037348 C59.6364922,43.9037348 61.9998789,41.5313812 61.9998789,38.6154696 L61.9998789,5.38453039 C61.9998789,2.46861878 59.6364922,0.0962651934 56.7314531,0.0962651934 Z M59.578125,38.6154696 C59.578125,40.1909613 58.3010703,41.4727956 56.7314531,41.4727956 L46.9354531,41.4727956 L46.9354531,28.6599227 C46.9354531,27.9887403 46.3933164,27.444453 45.7245156,27.444453 C45.0557148,27.444453 44.5135781,27.9887403 44.5135781,28.6599227 L44.5135781,41.4727956 L5.26854687,41.4727956 C3.69892969,41.4727956 2.421875,40.1909613 2.421875,38.6154696 L2.421875,5.38453039 C2.421875,3.80903867 3.69892969,2.52720442 5.26854687,2.52720442 L44.513457,2.52720442 L44.513457,17.6706188 C44.513457,18.3418011 45.0555937,18.8860884 45.7243945,18.8860884 C46.3931953,18.8860884 46.935332,18.3418011 46.935332,17.6706188 L46.935332,2.52720442 L56.731332,2.52720442 C58.3009492,2.52720442 59.578125,3.80903867 59.578125,5.38453039 L59.578125,38.6154696 L59.578125,38.6154696 Z"></path>
                            <path d="M37.5921016,6.17361326 L9.34323047,6.17361326 C7.52997266,6.17361326 6.0546875,7.65441989 6.0546875,9.47446409 L6.0546875,34.5255359 C6.0546875,36.3457017 7.52997266,37.8263867 9.34323047,37.8263867 L37.5921016,37.8263867 C39.4054805,37.8263867 40.8806445,36.3455801 40.8806445,34.5255359 L40.8806445,9.47446409 C40.8806445,7.65441989 39.4054805,6.17361326 37.5921016,6.17361326 Z M13.9709492,35.3954475 L13.9709492,33.6885635 C13.9709492,32.9346077 14.5819883,32.3211602 15.3332539,32.3211602 L31.6024414,32.3211602 C32.3535859,32.3211602 32.9647461,32.9346077 32.9647461,33.6885635 L32.9647461,35.3954475 L13.9709492,35.3954475 Z M38.4588906,34.5255359 C38.4588906,35.0051602 38.0700586,35.3954475 37.5922227,35.3954475 L35.3865,35.3954475 L35.3865,33.6885635 C35.3865,31.5941878 33.6888867,29.890221 31.6023203,29.890221 L15.3331328,29.890221 C13.2465664,29.890221 11.5489531,31.5941878 11.5489531,33.6885635 L11.5489531,35.3954475 L9.34323047,35.3954475 C8.86539453,35.3954475 8.4765625,35.0051602 8.4765625,34.5255359 L8.4765625,9.47446409 C8.4765625,8.99483978 8.86539453,8.60455249 9.34323047,8.60455249 L37.5921016,8.60455249 C38.0699375,8.60455249 38.4588906,8.99483978 38.4588906,9.47446409 L38.4588906,34.5255359 L38.4588906,34.5255359 Z"></path>
                            <path d="M55.7710586,8.18047514 L50.7426406,8.18047514 C50.0738398,8.18047514 49.5317031,8.72476243 49.5317031,9.39594475 L49.5317031,20.5263646 C49.5317031,21.197547 50.0738398,21.7418343 50.7426406,21.7418343 L55.7710586,21.7418343 C56.4398594,21.7418343 56.9819961,21.197547 56.9819961,20.5263646 L56.9819961,9.39594475 C56.9819961,8.72464088 56.4397383,8.18047514 55.7710586,8.18047514 Z M51.953457,10.6114144 L54.56,10.6114144 L54.56,13.7457459 L51.953457,13.7457459 L51.953457,10.6114144 Z M54.5601211,19.310895 L51.9535781,19.310895 L51.9535781,16.1766851 L54.5601211,16.1766851 L54.5601211,19.310895 Z"></path>
                        </g>
                        <path d="M45.725,24.4029834 C45.2266992,24.4029834 44.7681172,24.0842873 44.5926523,23.6168177 C44.4197305,23.1560331 44.5453047,22.6174586 44.9113711,22.287337 C45.3009297,21.9360663 45.8745508,21.8780884 46.3293789,22.1354033 C46.7620469,22.3801989 47.001207,22.8953149 46.9191055,23.3853923 C46.8219883,23.9638343 46.3109727,24.4029834 45.725,24.4029834 Z" id="Path"></path>
                    </g>
                    <g id="Group" transform="translate(11.000000, 13.000000)">
                        <path d="M1.33175758,6.46592222 C1.02145455,6.46592222 0.711393939,6.34651111 0.474666667,6.10793333 C0.00133333333,5.63065556 0.00133333333,4.85674444 0.474666667,4.37934444 L4.436,0.385 C4.90933333,-0.0921555556 5.67684848,-0.0920333333 6.15018182,0.385 C6.62351515,0.862277778 6.62351515,1.63618889 6.15018182,2.11358889 L2.18884848,6.10793333 C1.95224242,6.34663333 1.64193939,6.46592222 1.33175758,6.46592222 L1.33175758,6.46592222 Z" id="Path"></path>
                        <path d="M3.34339394,10.9803222 C3.03321212,10.9803222 2.72290909,10.8609111 2.48630303,10.6223333 C2.0129697,10.1450556 2.0129697,9.37114444 2.48630303,8.89374444 L9.85187879,1.46678889 C10.3252121,0.989633333 11.0927273,0.989633333 11.5661818,1.46678889 C12.0395152,1.94406667 12.0395152,2.71797778 11.5661818,3.19537778 L4.20060606,10.6223333 C3.96387879,10.8609111 3.65369697,10.9803222 3.34339394,10.9803222 Z" id="Path"></path>
                    </g>
                    <path d="M55.6997156,36 L50.3002844,36 C49.5821373,36 49,35.3283 49,34.5 C49,33.6717 49.5821373,33 50.3002844,33 L55.6997156,33 C56.4178627,33 57,33.6717 57,34.5 C57,35.3283 56.4177326,36 55.6997156,36 Z" id="Path"></path>
                    <path d="M53,32 C50.7944934,32 49,30.2056366 49,28 C49,25.7943634 50.7943634,24 53,24 C55.2056366,24 57,25.7943634 57,28 C57,30.2056366 55.2055066,32 53,32 Z M53,26.6005266 C52.2282937,26.6005266 51.6005266,27.2282937 51.6005266,28 C51.6005266,28.7717063 52.2282937,29.3994734 53,29.3994734 C53.7717063,29.3994734 54.3994734,28.7717063 54.3994734,28 C54.3994734,27.2282937 53.7715762,26.6005266 53,26.6005266 Z" id="Shape"></path>
                </g>
            </g>
        </g>
    </g>
</svg>