<?xml version="1.0" encoding="UTF-8"?>
<svg width="62px" height="72px" viewBox="0 0 62 72" version="1.1" xmlns="http://www.w3.org/2000/svg" xmlns:xlink="http://www.w3.org/1999/xlink">
    <!-- Generator: Sketch 64 (93537) - https://sketch.com -->
    <title>img-02</title>
    <desc>Created with Sketch.</desc>
    <g id="Welcome" stroke="none" stroke-width="1" fill="none" fill-rule="evenodd">
        <g id="HOME---Servicios---Garantía-Extendida---Desktop-HD" transform="translate(-451.000000, -973.000000)" fill="#000000" fill-rule="nonzero">
            <g id="img-02" transform="translate(451.000000, 973.000000)">
                <path d="M60.8076923,24 L38.1538462,24 L38.1538462,1.2 C38.1538462,0.5373 37.6199904,0 36.9615385,0 L1.19230769,0 C0.533855769,0 0,0.5373 0,1.2 L0,70.8 C0,71.4627 0.533855769,72 1.19230769,72 L60.8076923,72 C61.4661442,72 62,71.4627 62,70.8 L62,25.2 C62,24.5373 61.4661442,24 60.8076923,24 Z M2.38461538,2.4 L35.7692308,2.4 L35.7692308,19.2 L2.38461538,19.2 L2.38461538,2.4 Z M23.8461538,25.2 L23.8461538,69.6 L2.38461538,69.6 L2.38461538,21.6 L35.7692308,21.6 L35.7692308,24 L25.0384615,24 C24.3800096,24 23.8461538,24.5373 23.8461538,25.2 Z M29.8076923,26.4 L29.8076923,31.2 L26.2307692,31.2 L26.2307692,26.4 L29.8076923,26.4 Z M59.6153846,69.6 L26.2307692,69.6 L26.2307692,33.6 L59.6153846,33.6 L59.6153846,69.6 Z M59.6153846,31.2 L32.1923077,31.2 L32.1923077,26.4 L59.6153846,26.4 L59.6153846,31.2 Z" id="Shape"></path>
                <path d="M42.9230769,39.6 C35.6796587,39.6 29.8076923,45.50985 29.8076923,52.8 C29.8076923,60.09015 35.6796587,66 42.9230769,66 C50.1664952,66 56.0384615,60.09015 56.0384615,52.8 C56.0299663,45.51345 50.1629183,39.60855 42.9230769,39.6 Z M42.9230769,63.6 C36.9967115,63.6 32.1923077,58.7646 32.1923077,52.8 C32.1923077,46.83525 36.9967115,42 42.9230769,42 C48.8495913,42 53.6538462,46.83525 53.6538462,52.8 C53.6472885,58.7619 48.8467596,63.5934 42.9230769,63.6 Z" id="Shape"></path>
                <path d="M42.9230769,43.5996 C37.8766346,43.60485 33.7868702,47.721 33.7816538,52.8 C33.7816538,53.4627 34.3155096,54 34.9739615,54 C35.6324135,54 36.1662692,53.4627 36.1662692,52.8 C36.1701442,49.04595 39.1930913,46.0035 42.9230769,45.9996 C43.5815288,45.9996 44.1153846,45.4623 44.1153846,44.7996 C44.1153846,44.1369 43.5815288,43.5996 42.9230769,43.5996 Z" id="Path"></path>
                <path d="M38.1538462,27.6 L35.7692308,27.6 C35.1107788,27.6 34.5769231,28.1373 34.5769231,28.8 C34.5769231,29.4627 35.1107788,30 35.7692308,30 L38.1538462,30 C38.8122981,30 39.3461538,29.4627 39.3461538,28.8 C39.3461538,28.1373 38.8122981,27.6 38.1538462,27.6 Z" id="Path"></path>
                <path d="M44.1153846,27.6 L41.7307692,27.6 C41.0723173,27.6 40.5384615,28.1373 40.5384615,28.8 C40.5384615,29.4627 41.0723173,30 41.7307692,30 L44.1153846,30 C44.7738365,30 45.3076923,29.4627 45.3076923,28.8 C45.3076923,28.1373 44.7738365,27.6 44.1153846,27.6 Z" id="Path"></path>
                <path d="M5.96153846,8.4 C5.30308654,8.4 4.76923077,8.9373 4.76923077,9.6 L4.76923077,16.8 C4.76923077,17.4627 5.30308654,18 5.96153846,18 C6.61999038,18 7.15384615,17.4627 7.15384615,16.8 L7.15384615,9.6 C7.15384615,8.9373 6.61999038,8.4 5.96153846,8.4 Z" id="Path"></path>
                <path d="M5.96153846,22.8 C5.30308654,22.8 4.76923077,23.3373 4.76923077,24 L4.76923077,31.2 C4.76923077,31.8627 5.30308654,32.4 5.96153846,32.4 C6.61999038,32.4 7.15384615,31.8627 7.15384615,31.2 L7.15384615,24 C7.15384615,23.3373 6.61999038,22.8 5.96153846,22.8 Z" id="Path"></path>
            </g>
        </g>
    </g>
</svg>