<?xml version="1.0" encoding="UTF-8"?>
<svg width="77px" height="59px" viewBox="0 0 77 59" version="1.1" xmlns="http://www.w3.org/2000/svg" xmlns:xlink="http://www.w3.org/1999/xlink">
    <!-- Generator: Sketch 64 (93537) - https://sketch.com -->
    <title>img-04</title>
    <desc>Created with Sketch.</desc>
    <g id="Welcome" stroke="none" stroke-width="1" fill="none" fill-rule="evenodd">
        <g id="HOME---Servicios---Garantía-Extendida---Desktop-HD" transform="translate(-922.000000, -986.000000)" fill="#000000" fill-rule="nonzero">
            <g id="img-04" transform="translate(922.000000, 986.000000)">
                <path d="M76.9963906,53.4933054 C76.9956387,53.4820629 76.9957891,53.4709704 76.9947363,53.4597279 C76.9906758,53.4152079 76.984209,53.3715873 76.9750352,53.328866 C76.9741328,53.3246688 76.9727793,53.3204716 76.9717266,53.3162745 C76.9628535,53.2770009 76.951875,53.2386267 76.9389414,53.2011519 C76.9354824,53.1911087 76.9317227,53.1813653 76.9279629,53.1714719 C76.9153301,53.1374448 76.901043,53.1043171 76.885252,53.0720888 C76.8825449,53.0663926 76.8807402,53.0605465 76.8778828,53.0548504 L70.8454141,41.1951306 L70.8454141,2.17638555 C70.8454141,0.976293071 69.8659199,0 68.6618926,0 L8.33780664,0 C7.1337793,0 6.15428516,0.976293071 6.15428516,2.17638555 L6.15428516,41.1948308 L0.121966797,53.0547005 C0.119109375,53.0603966 0.117304688,53.0662427 0.114597656,53.0719389 C0.0988066406,53.1041672 0.0846699219,53.1372949 0.0718867188,53.1711721 C0.0681269531,53.1810655 0.0643671875,53.1909588 0.0609082031,53.201002 C0.048125,53.2386267 0.0369960938,53.2771508 0.0281230469,53.3164244 C0.0272207031,53.3204716 0.0258671875,53.3245189 0.0249648438,53.3285662 C0.0157910156,53.3714374 0.00932421875,53.415058 0.00526367188,53.459578 C0.0042109375,53.4706706 0.0042109375,53.481913 0.003609375,53.4930056 C0.00210546875,53.5163898 0,53.5394743 0,53.5631583 L0,56.4151393 C0,57.8405302 1.16327148,59 2.59333594,59 L74.4066641,59 C75.8367285,59 77,57.8405302 77,56.4151393 L77,53.5631583 C77,53.5394743 76.9978945,53.5163898 76.9963906,53.4933054 Z M8.41029492,2.24878683 L68.5897051,2.24878683 L68.5897051,40.3395063 L8.41029492,40.3395063 L8.41029492,2.24878683 Z M7.97506445,42.5878434 L69.0247852,42.5878434 L74.0355,52.4387649 L49.2541328,52.4387649 L48.010252,47.9434398 C47.7569941,47.0283055 46.9151074,46.3891356 45.9626836,46.3891356 L31.0370156,46.3891356 C30.0845918,46.3891356 29.2425547,47.0283055 28.9894473,47.9432899 L27.7455664,52.4387649 L2.96434961,52.4387649 L7.97506445,42.5878434 Z M46.9140547,52.4389148 L30.0859453,52.4389148 L31.137627,48.6377725 L45.862373,48.6377725 L46.9140547,52.4389148 Z M74.7441406,56.4149894 C74.7441406,56.6004146 74.5926973,56.7513631 74.4066641,56.7513631 L2.59333594,56.7513631 C2.40730273,56.7513631 2.25585938,56.6004146 2.25585938,56.4149894 L2.25585938,54.687252 L74.7441406,54.687252 L74.7441406,56.4149894 Z" id="Shape"></path>
                <path d="M64.8793986,23 C64.2604609,23 63.7589466,23.510933 63.7589466,24.1414946 L63.7589466,35.7170108 L13.240904,35.7170108 L13.240904,24.1414946 C13.240904,23.510933 12.7393897,23 12.120452,23 C11.5015143,23 11,23.510933 11,24.1414946 L11,36.2099843 C11,37.1969966 11.7880512,38 12.7570181,38 L64.2429819,38 C65.2117994,38 66,37.1971488 66,36.2099843 L66,24.1414946 C66,23.5112374 65.4983363,23 64.8793986,23 Z" id="Path"></path>
                <path d="M64.2429771,5 L12.7570229,5 C11.7882028,5 11,5.8028512 11,6.79001573 L11,18.8585054 C11,19.489067 11.5015157,20 12.120455,20 C12.7393944,20 13.2409101,19.489067 13.2409101,18.8585054 L13.2409101,7.28298919 L63.7590899,7.28298919 L63.7590899,18.8585054 C63.7590899,19.489067 64.2606056,20 64.879545,20 C65.4984843,20 66,19.489067 66,18.8585054 L66,6.79001573 C66,5.802699 65.2119466,5 64.2429771,5 Z" id="Path"></path>
            </g>
        </g>
    </g>
</svg>