<?xml version="1.0" encoding="UTF-8"?>
<svg width="82px" height="51px" viewBox="0 0 82 51" version="1.1" xmlns="http://www.w3.org/2000/svg" xmlns:xlink="http://www.w3.org/1999/xlink">
    <!-- Generator: Sketch 64 (93537) - https://sketch.com -->
    <title>img-08</title>
    <desc>Created with Sketch.</desc>
    <g id="Welcome" stroke="none" stroke-width="1" fill="none" fill-rule="evenodd">
        <g id="HOME---Servicios---Garantía-Extendida---Desktop-HD" transform="translate(-1085.000000, -1811.000000)" fill="#E2241C" fill-rule="nonzero">
            <g id="img-08" transform="translate(1085.000000, 1811.000000)">
                <path d="M64.9412976,16.8592811 C62.576725,16.8592811 60.2966014,17.3650695 58.1853759,18.2080502 L55.3141092,12.6443775 L55.3141092,3.79308001 C55.3141092,3.28729158 54.9763131,2.78150315 54.4696189,2.61290701 L47.7136972,0.0839648657 C47.038105,-0.168929348 46.3625129,0.168262937 46.1091658,0.842647508 C45.8558187,1.51703208 46.1936148,2.19141665 46.869207,2.44431087 L52.8650875,4.63606072 L52.8650875,11.8013968 L28.1215242,11.8013968 L28.1215242,9.35675272 L31.161689,9.35675272 C31.8372812,9.35675272 32.4284243,8.76666622 32.4284243,8.09228165 C32.4284243,7.41789708 31.8372812,6.82781058 31.161689,6.82781058 L23.30793,6.82781058 C22.6323378,6.82781058 22.0411946,7.41789708 22.0411946,8.09228165 C22.0411946,8.76666622 22.6323378,9.35675272 23.30793,9.35675272 L25.5880536,9.35675272 L25.5880536,12.8129736 L23.1390319,18.1237521 C21.2811535,17.3650695 19.1699279,16.9435791 17.0587024,16.9435791 C7.68486097,16.9435791 0,24.5304056 0,33.9717896 C0,43.4131736 7.60041195,51 17.0587024,51 C26.0102987,51 33.3573635,44.0032601 34.0329557,35.2362606 L39.5221421,35.2362606 C39.9443872,35.2362606 40.2821833,35.0676645 40.5355304,34.7304722 L53.7940268,15.59481 L55.9052523,19.5568194 C51.0916581,22.4229538 47.8825953,27.8180304 47.8825953,33.8874915 C47.8825953,43.2445774 55.4830072,50.9157019 64.9412976,50.9157019 C74.3995881,50.9157019 82,43.3288755 82,33.8874915 C82,24.4461075 74.3995881,16.8592811 64.9412976,16.8592811 Z M17.0587024,48.3867598 C9.03604531,48.3867598 2.53347065,41.8958083 2.53347065,33.8874915 C2.53347065,25.8791747 9.03604531,19.3882232 17.0587024,19.3882232 C18.8321318,19.3882232 20.5211123,19.7254155 22.0411946,20.315502 L15.8764161,33.3817031 C15.8764161,33.3817031 15.8764161,33.3817031 15.8764161,33.4660011 C15.791967,33.6345973 15.791967,33.7188954 15.791967,33.8874915 C15.791967,33.8874915 15.791967,33.8874915 15.791967,33.9717896 C15.791967,34.1403857 15.791967,34.2246838 15.8764161,34.3932799 L15.8764161,34.477578 C15.8764161,34.5618761 15.8764161,34.5618761 15.9608651,34.6461741 C15.9608651,34.7304722 16.0453141,34.7304722 16.1297631,34.8147703 C16.1297631,34.8147703 16.1297631,34.8147703 16.1297631,34.8990684 C16.2142122,34.9833664 16.3831102,35.0676645 16.4675592,35.1519626 L16.5520082,35.1519626 C16.7209063,35.2362606 16.8053553,35.2362606 16.9742533,35.2362606 L31.415036,35.2362606 C30.8238929,42.5701929 24.6591143,48.3867598 17.0587024,48.3867598 Z M19.0010299,32.6230204 L24.3213182,21.4113769 C28.2904222,23.6874249 31.07724,27.8180304 31.4994851,32.6230204 L19.0010299,32.6230204 L19.0010299,32.6230204 Z M38.8465499,32.6230204 L33.9485067,32.6230204 C33.5262616,26.8064535 30.1483007,21.8328673 25.3347065,19.0510309 L27.6148301,14.2460409 L51.5139032,14.2460409 L38.8465499,32.6230204 Z M64.8568486,48.3867598 C56.8341916,48.3867598 50.3316169,41.8958083 50.3316169,33.8874915 C50.3316169,28.7453091 53.0339856,24.2775114 57.0875386,21.6642711 L63.7590113,34.477578 C64.0123584,34.8990684 64.4346035,35.1519626 64.8568486,35.1519626 C65.0257467,35.1519626 65.2790937,35.0676645 65.4479918,34.9833664 C66.0391349,34.6461741 66.292482,33.8874915 65.9546859,33.297405 L59.2832132,20.4840981 C61.0566426,19.8097136 62.9145211,19.3882232 64.8568486,19.3882232 C72.8795057,19.3882232 79.3820803,25.8791747 79.3820803,33.8874915 C79.3820803,41.8958083 72.8795057,48.3867598 64.8568486,48.3867598 Z" id="Shape"></path>
            </g>
        </g>
    </g>
</svg>