<?xml version="1.0" encoding="UTF-8"?>
<svg width="62px" height="62px" viewBox="0 0 62 62" version="1.1" xmlns="http://www.w3.org/2000/svg" xmlns:xlink="http://www.w3.org/1999/xlink">
    <title>img-08</title>
    <g id="Welcome" stroke="none" stroke-width="1" fill="none" fill-rule="evenodd">
        <g id="HOME---Servicios---Garantía-Extendida---Desktop-HD" transform="translate(-1095.000000, -1971.000000)" fill="#E2241C" fill-rule="nonzero">
            <g id="img-08" transform="translate(1095.000000, 1971.000000)">
                <path d="M10.8639125,47.8489261 C9.99915388,47.8489261 9.16785474,48.0651273 8.43033576,48.4710947 C4.54528415,43.4824159 2.41284137,37.2852759 2.41284137,30.9366062 C2.41284137,15.2105611 15.1848779,2.41692236 30.8843695,2.41692236 C32.7929647,2.41692236 34.7006174,2.60716062 36.5545467,2.98244449 C37.2067679,3.11461993 37.8439088,2.69165852 37.9758611,2.03739002 C38.1078134,1.38312153 37.6855661,0.745847135 37.0324025,0.613199669 C35.0215442,0.20628807 32.9531925,0 30.8843695,0 C22.6349969,0 14.8790313,3.21799992 9.04579887,9.06109861 C3.2125663,14.9041972 0,22.6732809 0,30.9366062 C0,37.8876183 2.3562904,44.6710508 6.64615273,50.1091261 C6.09383826,50.9356947 5.79694561,51.9071842 5.79694561,52.924463 C5.79694561,54.2802054 6.32428343,55.5547543 7.28140862,56.5130262 C8.23806246,57.4717703 9.51045928,58 10.8639125,58 C12.2173657,58 13.4897625,57.4717703 14.4468877,56.5130262 C15.4040129,55.5547543 15.9308794,54.2797333 15.9308794,52.9239909 C15.9308794,51.5687207 15.4040129,50.2936997 14.4468877,49.3354277 C13.4897625,48.3766837 12.2173657,47.8489261 10.8639125,47.8489261 Z M12.7404622,54.8041866 C12.2395148,55.3064533 11.5726846,55.5830776 10.8639125,55.5830776 C10.1551403,55.5830776 9.48878147,55.3064533 8.98736287,54.8041866 C8.48594427,54.3019199 8.20978698,53.634434 8.20978698,52.924463 C8.20978698,52.21402 8.48594427,51.546534 8.98736287,51.0442674 C9.48831024,50.5420007 10.1551403,50.2658484 10.8639125,50.2658484 C11.5726846,50.2658484 12.2390436,50.5424727 12.7404622,51.0442674 C13.2418808,51.546534 13.518038,52.21402 13.518038,52.924463 C13.518038,53.634434 13.2418808,54.3019199 12.7404622,54.8041866 L12.7404622,54.8041866 Z" id="Shape"></path>
                <path d="M55.3430724,11.8894578 C56.6565237,9.91862752 56.4455597,7.22413673 54.7082927,5.48650163 C53.7497518,4.52822974 52.4754728,4 51.1200176,4 C49.7645623,4 48.4902834,4.52822974 47.5317424,5.48650163 C46.5732014,6.44524567 46.0455556,7.71979457 46.0455556,9.07553696 C46.0455556,10.4312793 46.5732014,11.7058282 47.5317424,12.6645723 C48.4902834,13.6233163 49.7645623,14.1510739 51.1200176,14.1510739 C51.9860553,14.1510739 52.8185841,13.9348727 53.557194,13.5289053 C57.4479924,18.5180561 59.5835895,24.7147241 59.5835895,31.0633938 C59.5835895,46.7894389 46.7926605,59.5830776 31.0699462,59.5830776 C29.177406,59.5830776 27.2848657,59.3966158 25.4456565,59.0284128 C24.7915265,58.8976536 24.154859,59.3220312 24.0236556,59.9762995 C23.8929239,60.6310401 24.3172116,61.2673704 24.9713415,61.3986018 C26.9662959,61.7974884 29.018357,62 31.0699462,62 C39.3315213,62 47.0989595,58.7820001 52.9408205,52.9389014 C58.7826817,47.0958028 62,39.3267191 62,31.0633938 C62,24.1119096 59.6397522,17.3280051 55.3430724,11.8894578 Z M49.240692,10.9557326 C48.7385317,10.453466 48.4619661,9.78598005 48.4619661,9.07553696 C48.4619661,8.36556602 48.7385317,7.6980801 49.240692,7.19581342 C49.7423804,6.69354674 50.410197,6.41692236 51.1200176,6.41692236 C51.8298381,6.41692236 52.4976546,6.69354674 52.9998149,7.19581342 C54.0357565,8.23244652 54.0357565,9.91909954 52.9998149,10.9557326 C52.4976546,11.4575273 51.8298381,11.7341516 51.1200176,11.7341516 C50.4097249,11.7341516 49.7423804,11.4575273 49.240692,10.9557326 Z" id="Shape"></path>
                <path d="M26.0122768,51.7912088 C26.0122768,52.4588771 26.5538254,53 27.2209642,53 L34.778565,53 C35.4461759,53 35.9872524,52.4588771 35.9872524,51.7912088 L35.9872524,49.4477592 C37.5764873,49.0199605 39.0958451,48.3900669 40.523607,47.5675224 L42.1779978,49.2220553 C42.4046267,49.4487037 42.7119921,49.5761933 43.0330497,49.5761933 C43.3531629,49.5761933 43.6610005,49.4487037 43.8876293,49.2215832 L49.2294607,43.8755151 C49.7011321,43.403331 49.7011321,42.6379207 49.2294607,42.1662088 L47.5769586,40.5135646 C48.3994325,39.0856799 49.0292719,37.5661916 49.457034,35.9768201 L51.7913114,35.9768201 C52.4589222,35.9768201 53.0000013,35.4356971 53.0000013,34.7680288 L53.0000013,27.2097785 C53.0000013,26.5421103 52.4589222,26.0009873 51.7913114,26.0009873 L49.4565618,26.0009873 C49.0287998,24.4120879 48.3994325,22.8925996 47.5769586,21.464715 L49.2204901,19.8210422 C49.447119,19.5943939 49.5745977,19.2865298 49.5745977,18.9659168 C49.5741255,18.6453039 49.4466469,18.3374399 49.220018,18.1107916 L43.8739372,12.768501 C43.4022658,12.2967892 42.6369213,12.2967892 42.1647778,12.7689733 L40.523607,14.4107572 C39.0958451,13.5882125 37.5764873,12.9583191 35.9872524,12.5305202 L35.9872524,10.2087912 C35.9872524,9.54112288 35.4461759,9 34.778565,9 L27.2209642,9 C26.5538254,9 26.0122768,9.54112288 26.0122768,10.2087912 L26.0122768,12.5309925 C24.423514,12.9583191 22.9041562,13.5882125 21.4763943,14.4107572 L19.8347514,12.7689733 C19.36308,12.2972614 18.5977355,12.2967892 18.125592,12.768501 L12.7799833,18.1112637 C12.5528823,18.3379121 12.4254037,18.6453039 12.4254037,18.9659168 C12.4254037,19.2865298 12.5528823,19.5943939 12.7795112,19.8210422 L14.4230427,21.464715 C13.6005688,22.8925996 12.9707294,24.4116158 12.5429674,26.0009873 L10.2129392,26.0009873 C9.54532837,26.0009873 9.00425187,26.5421103 9.00425187,27.2093063 L9.0000013,34.7675567 C8.99953049,35.0881696 9.12700917,35.3960337 9.35363805,35.6226821 C9.58026692,35.8493304 9.88763237,35.9768201 10.2086899,35.9768201 L12.5429674,35.9768201 C12.9707294,37.5661916 13.6005688,39.0856799 14.4230427,40.5135646 L12.7705406,42.1662088 C12.2988692,42.6379207 12.2983971,43.403331 12.7705406,43.8755151 L18.112372,49.2215832 C18.3390008,49.4482315 18.6463663,49.5761933 18.9669516,49.5761933 L18.9674238,49.5761933 C19.2880092,49.5761933 19.5953746,49.4487037 19.8220035,49.2220553 L21.4759222,47.5675224 C22.9041562,48.3900669 24.423514,49.0199605 26.0122768,49.4477592 L26.0122768,51.7912088 Z M21.9499542,45.0252833 C21.4716729,44.7160027 20.8423057,44.7830529 20.4390951,45.1858259 L18.9674238,46.6576236 L15.3342797,43.0213342 L16.8045346,41.5504808 C17.2072729,41.1477078 17.2743172,40.5182865 16.9650632,40.0399639 C15.8692182,38.3438787 15.09868,36.4848901 14.6756395,34.5139938 C14.5557151,33.9572888 14.0637415,33.5592376 13.4938643,33.5592376 L11.4178494,33.5592376 L11.4206823,28.4185697 L13.4938643,28.4185697 C14.0637415,28.4185697 14.5557151,28.0209908 14.6756395,27.4638136 C15.09868,25.4933894 15.8692182,23.6344007 16.9650632,21.9383156 C17.2743172,21.4599931 17.2072729,20.8305718 16.8045346,20.4277987 L15.3437225,18.9663891 L18.9796995,15.3329327 L20.4390951,16.7929258 C20.8423057,17.1956988 21.4712007,17.2622767 21.9499542,16.9534684 C23.6454215,15.8575292 25.5042504,15.0869248 27.4749774,14.6638479 C28.0316345,14.5439131 28.4296515,14.0514251 28.4296515,13.4819712 L28.4296515,11.4175824 L33.5698777,11.4175824 L33.5698777,13.481499 C33.5698777,14.0514251 33.9674225,14.5439131 34.5245518,14.6633756 C36.4948066,15.0869248 38.3541076,15.8570569 40.049575,16.9529963 C40.5278563,17.2622767 41.1572235,17.1956988 41.559962,16.7924537 L43.0198296,15.3329327 L46.6558067,18.9663891 L45.1949946,20.4273265 C44.7917842,20.8305718 44.725212,21.4599931 45.0344659,21.9383156 C46.130311,23.6344007 46.9003769,25.4933894 47.3238897,27.4638136 C47.443342,28.0209908 47.9357877,28.4185697 48.5056648,28.4185697 L50.582624,28.4185697 L50.582624,33.5592376 L48.5056648,33.5592376 C47.9357877,33.5592376 47.4438141,33.9572888 47.3238897,34.5139938 C46.9008492,36.484418 46.130311,38.3438787 45.0344659,40.0394918 C44.725212,40.5182865 44.7922563,41.1477078 45.1949946,41.5504808 L46.6652495,43.0208619 L43.0321053,46.6571515 L41.5604341,45.1858259 C41.1572235,44.7825807 40.5278563,44.7160027 40.049575,45.0252833 C38.3536355,46.1212225 36.4948066,46.8913548 34.5245518,47.3149038 C33.9674225,47.4348387 33.5698777,47.9268544 33.5698777,48.4967806 L33.5698777,50.5824176 L28.4296515,50.5824176 L28.4296515,48.4967806 C28.4296515,47.9273265 28.0316345,47.4348387 27.4749774,47.3149038 C25.5047225,46.8918269 23.6458937,46.1212225 21.9499542,45.0252833 L21.9499542,45.0252833 Z" id="Shape"></path>
                <path d="M41,31 C41,25.4858885 36.5141115,21 31,21 C25.4858885,21 21,25.4858885 21,31 C21,36.5141115 25.4858885,41 31,41 C36.5141115,41 41,36.5141115 41,31 Z M23.4204605,31 C23.4204605,26.820451 26.820451,23.4204605 31,23.4204605 C35.179549,23.4204605 38.5795395,26.8209237 38.5795395,31 C38.5795395,35.1790763 35.179549,38.5795395 31,38.5795395 C26.820451,38.5795395 23.4204605,35.179549 23.4204605,31 Z" id="Shape"></path>
                <path d="M41.5,5 C41.8949219,5 42.2816405,4.83954721 42.560547,4.56080427 C42.8394531,4.28030452 43,3.89381222 43,3.49912166 C43,3.10677334 42.8400391,2.71969548 42.560547,2.43919573 C42.2816405,2.16045279 41.8949219,2 41.5,2 C41.1039063,2 40.7189454,2.16045279 40.4400391,2.43919573 C40.160547,2.71969548 40,3.10501667 40,3.49912166 C40,3.89498348 40.1605469,4.28030452 40.4400391,4.56080427 C40.7189454,4.83954721 41.1039063,5 41.5,5 Z" id="Path"></path>
                <path d="M20.5,57 C20.1056641,57 19.7183595,57.1605469 19.4394531,57.439453 C19.160547,57.7183595 19,58.1056641 19,58.5 C19,58.8960937 19.160547,59.2816405 19.4394531,59.560547 C19.7183595,59.8394531 20.1056641,60 20.5,60 C20.8943359,60 21.2816405,59.8394531 21.5605469,59.560547 C21.839453,59.2816405 22,58.8943359 22,58.5 C22,58.1056641 21.839453,57.7183595 21.5605469,57.439453 C21.2816405,57.1605469 20.8943359,57 20.5,57 Z" id="Path"></path>
            </g>
        </g>
    </g>
</svg>