<?xml version="1.0" encoding="UTF-8"?>
<svg width="423px" height="135px" viewBox="0 0 423 135" version="1.1" xmlns="http://www.w3.org/2000/svg" xmlns:xlink="http://www.w3.org/1999/xlink">
    <!-- Generator: Sketch 64 (93537) - https://sketch.com -->
    <title>head-sinfilas</title>
    <desc>Created with Sketch.</desc>
    <g id="Welcome" stroke="none" stroke-width="1" fill="none" fill-rule="evenodd">
        <g id="HOME---Servicios---Sin-Filas---Desktop-HD" transform="translate(-885.000000, -210.000000)" fill="#FFFFFF" fill-rule="nonzero">
            <g id="head-sinfilas" transform="translate(885.000000, 210.000000)">
                <path d="M98.678717,72.0423529 C99.0458491,74.1864706 100.666019,75.2664706 103.56317,75.2664706 C104.466918,75.3101915 105.364323,75.0952312 106.149057,74.6470588 C106.7332,74.3286499 107.099321,73.7215034 107.106792,73.0588235 C107.106792,72.0344118 106.196943,71.3673529 104.361283,71.0338235 L98.7744906,69.9458824 C93.4537358,68.9611765 90.7933585,66.3141176 90.7933585,62.0047059 C90.7199727,59.3585199 91.9469794,56.8427103 94.0815849,55.2626471 C96.2790566,53.5685294 99.1336415,52.7214706 102.64534,52.7214706 C105.581377,52.6131806 108.486211,53.3523011 111.009566,54.8497059 C113.113358,56.1242311 114.60793,58.1929763 115.151774,60.5832353 L107.170642,62.1714706 C107.015619,61.2456416 106.491946,60.4211214 105.718075,59.8844118 C104.788731,59.2272987 103.664374,58.9000709 102.525623,58.9552941 C101.678291,58.8788739 100.830892,59.1009053 100.131283,59.5826471 C99.6627172,59.9408403 99.3883676,60.4955982 99.3890377,61.0835294 C99.3890377,62.0602941 100.083396,62.6717647 101.472113,62.9894118 L107.944811,64.3235294 C110.118221,64.683074 112.118389,65.7268615 113.651321,67.3014706 C114.936613,68.7524518 115.623616,70.6329602 115.574774,72.5664706 C115.689804,75.2827596 114.38194,77.8643541 112.118943,79.3879412 C109.815057,80.9761765 106.798189,81.7702941 103.06834,81.7702941 C100.017539,81.8765252 96.9916129,81.1895204 94.2890943,79.7770588 C92.0106262,78.5648842 90.4508075,76.3430906 90.0910189,73.7973529 L98.678717,72.0423529 Z" id="Path"></path>
                <path d="M126.516906,41.9691176 C127.456828,42.8899382 127.981002,44.1508295 127.969472,45.4632353 C127.999303,46.7721519 127.471702,48.0326335 126.516906,48.9335294 C125.54544,49.8516493 124.24899,50.3510804 122.909434,50.3232353 C121.56239,50.3669192 120.255066,49.8655175 119.286,48.9335294 C118.344177,48.0256588 117.826281,46.7676291 117.857377,45.4632353 C117.839554,44.1304506 118.368215,42.8479615 119.321466,41.9114696 C120.274717,40.9749777 121.570278,40.4653173 122.909434,40.5 C124.263823,40.475164 125.568683,41.006559 126.516906,41.9691176 L126.516906,41.9691176 Z M118.479906,80.9364706 L118.479906,53.5394118 L127.259151,53.5394118 L127.259151,80.9364706 L118.479906,80.9364706 Z" id="Shape"></path>
                <path d="M156.845208,55.8582353 C158.797925,57.9758824 159.776943,60.7341176 159.782264,64.1329412 L159.782264,80.9364706 L151.058887,80.9364706 L151.058887,65.9832353 C151.121264,64.5659852 150.651902,63.1762699 149.742,62.0841176 C148.89586,61.0969768 147.645399,60.5449721 146.342038,60.5832353 C144.720492,60.5053621 143.159596,61.2051347 142.143962,62.4652941 C141.13834,63.72 140.635528,65.6391176 140.635528,68.2226471 L140.635528,80.9285294 L131.856283,80.9285294 L131.856283,53.5394118 L140.635528,53.5394118 L140.635528,56.16 C142.832119,53.8684336 145.906608,52.6176415 149.087547,52.7214706 C152.007674,52.6015166 154.836955,53.7455195 156.845208,55.8582353 Z" id="Path"></path>
                <path d="M181.443057,53.5394118 L181.443057,60.4720588 L173.876943,60.4720588 L173.876943,80.9364706 L165.153566,80.9364706 L165.153566,60.4720588 L161.218868,60.4720588 L161.218868,53.5394118 L165.161547,53.5394118 L165.161547,51.4111765 C165.02629,48.5399336 166.136605,45.7491215 168.21034,43.7479412 C170.402329,41.7714769 173.292571,40.7405396 176.24734,40.8811765 C178.11661,40.8829164 179.964987,41.2723779 181.674509,42.0247059 L179.806925,48.7905882 C179.049838,48.5236071 178.255404,48.3762337 177.452491,48.3538235 C176.503514,48.3121407 175.576588,48.6462194 174.874585,49.2829412 C174.199363,49.9402034 173.839145,50.8535822 173.884925,51.7923529 L173.884925,53.5394118 L181.443057,53.5394118 Z" id="Path"></path>
                <path d="M192.720396,41.9691176 C193.660318,42.8899382 194.184493,44.1508295 194.172962,45.4632353 C194.202794,46.7721519 193.675192,48.0326335 192.720396,48.9335294 C191.739061,49.8614863 190.42628,50.3616757 189.073019,50.3232353 C187.726131,50.3660055 186.419152,49.8647363 185.449585,48.9335294 C184.509869,48.024844 183.994786,46.7666156 184.028943,45.4632353 C184.006644,44.1305108 184.532769,42.8466224 185.485281,41.9093764 C186.437792,40.9721305 187.73392,40.4629707 189.073019,40.5 C190.441168,40.4641087 191.762613,40.9963703 192.720396,41.9691176 L192.720396,41.9691176 Z M184.683396,80.9364706 L184.683396,53.5394118 L193.462642,53.5394118 L193.462642,80.9364706 L184.683396,80.9364706 Z" id="Shape"></path>
                <polygon id="Path" points="198.067755 80.9364706 198.067755 41.6435294 206.847 41.6435294 206.847 80.9364706"></polygon>
                <path d="M239.976679,80.9364706 L231.197434,80.9364706 L231.197434,78.7526471 C228.84789,80.8074944 225.800095,81.8950053 222.673585,81.7941176 C219.039214,81.8532409 215.553205,80.3617614 213.096226,77.6964706 C210.441348,74.8692518 209.0307,71.1044408 209.177491,67.2379412 C209.039658,63.3847362 210.449799,59.6355638 213.096226,56.8191176 C215.54893,54.1478404 219.037788,52.6551416 222.673585,52.7214706 C225.805751,52.600692 228.866075,53.6743967 231.229358,55.7232353 L231.229358,53.5394118 L240.008604,53.5394118 L239.976679,80.9364706 Z M229.19417,72.3441176 C231.865143,69.4709052 231.865143,65.0367418 229.19417,62.1635294 C227.963983,60.8653074 226.246587,60.1346092 224.453377,60.1464706 C222.64181,60.0865163 220.893737,60.8141326 219.664698,62.1397059 C217.164215,65.0952291 217.164215,69.412418 219.664698,72.3679412 C220.900526,73.6812001 222.64632,74.3991823 224.453377,74.3373529 C226.242036,74.3506416 227.957067,73.6295679 229.19417,72.3441176 L229.19417,72.3441176 Z" id="Shape"></path>
                <path d="M250.831019,72.0423529 C251.198151,74.1864706 252.826302,75.2664706 255.715472,75.2664706 C256.625361,75.3108625 257.528793,75.0930286 258.317321,74.6391176 C258.905766,74.3240613 259.275661,73.7157251 259.283038,73.0508824 C259.283038,72.0264706 258.365208,71.3594118 256.537528,71.0258824 L250.950736,69.9379412 C245.629981,68.9532353 242.969604,66.3061765 242.969604,61.9967647 C242.892121,59.3497025 244.119998,56.8321092 246.25783,55.2547059 C248.455302,53.5605882 251.307226,52.7135294 254.813604,52.7135294 C257.750033,52.6015827 260.655896,53.3409647 263.17783,54.8417647 C265.281622,56.1162899 266.776194,58.1850351 267.320038,60.5752941 L259.338906,62.1635294 C259.158855,61.2225707 258.599306,60.3960574 257.790566,59.8764706 C256.861771,59.2182286 255.737013,58.8908837 254.598113,58.9473529 C253.750897,58.8722913 252.903955,59.0942028 252.203774,59.5747059 C251.740133,59.936077 251.469347,60.489581 251.469509,61.0755882 C251.469509,62.0523529 252.163868,62.6638235 253.552585,62.9814706 L260.105094,64.3235294 C262.260863,64.6807714 264.245927,65.7128441 265.771698,67.2697059 C267.059766,68.7190469 267.747179,70.6006795 267.695151,72.5347059 C267.814881,75.2520013 266.505926,77.8357501 264.239321,79.3561765 C261.935434,80.9444118 258.918566,81.7385294 255.188717,81.7385294 C252.137917,81.8447605 249.11199,81.1577557 246.409472,79.7452941 C244.131004,78.5331195 242.571185,76.3113259 242.211396,73.7655882 L250.831019,72.0423529 Z" id="Path"></path>
                <path d="M82.3413396,34.2741176 C81.8510998,33.6574302 81.1043694,33.2976348 80.3141321,33.2973529 L28.5006226,33.2973529 C27.5410416,33.2443302 26.6306447,33.7235614 26.1348067,34.542714 C25.6389687,35.3618666 25.6389687,36.3866628 26.1348067,37.2058154 C26.6306447,38.024968 27.5410416,38.5041992 28.5006226,38.4511765 L77.0578302,38.4511765 L70.4813774,66.8091176 L33.6803774,66.8091176 C32.7207963,66.7560949 31.8103994,67.2353261 31.3145614,68.0544787 C30.8187234,68.8736313 30.8187234,69.8984275 31.3145614,70.7175801 C31.8103994,71.5367327 32.7207963,72.0159639 33.6803774,71.9629412 L72.5405094,71.9629412 C73.7486058,71.9662896 74.796994,71.1344186 75.0625472,69.9617647 L82.8361698,36.4579412 C83.016033,35.6930121 82.8336836,34.8882533 82.3413396,34.2741176 Z" id="Path"></path>
                <path d="M77.7202642,77.1167647 L28.0856038,77.1167647 L18.1012075,19.9402941 C18.1012075,19.845 18.0213962,19.7735294 17.9894717,19.6782353 C17.9459586,19.5044494 17.8816501,19.3364847 17.7979245,19.1779412 C17.7248605,19.0457647 17.6393444,18.9207917 17.5425283,18.8047059 C17.4322277,18.6640741 17.3064013,18.5362138 17.1674151,18.4235294 C17.0541763,18.3324862 16.9341096,18.2501877 16.8082642,18.1773529 C16.6536031,18.0898484 16.4905019,18.0180175 16.3214151,17.9629412 C16.1669987,17.9197922 16.0096163,17.8879425 15.8505283,17.8676471 C15.7511889,17.8388905 15.6498052,17.8176534 15.5472453,17.8041176 L2.59386792,17.8041176 C1.16131423,17.8041176 0,18.959618 0,20.385 C0,21.810382 1.16131423,22.9658824 2.59386792,22.9658824 L13.3683962,22.9658824 L23.3049057,79.8644118 C20.0594792,83.1417059 19.8037572,88.3209066 22.7107033,91.8989389 C25.6176495,95.4769713 30.760905,96.3136209 34.6617072,93.8430001 C38.5625095,91.3723793 39.9777869,86.3818026 37.950283,82.2467647 L55.3172264,82.2467647 C54.7253512,83.4513439 54.4143415,84.7733042 54.4073774,86.1141176 C54.4073774,91.0963758 58.4666172,95.1352941 63.4739434,95.1352941 C68.4812696,95.1352941 72.5405094,91.0963758 72.5405094,86.1141176 C72.5335453,84.7733042 72.2225356,83.4513439 71.6306604,82.2467647 L77.7202642,82.2467647 C79.1528178,82.2467647 80.3141321,81.0912643 80.3141321,79.6658824 C80.3141321,78.2405004 79.1528178,77.085 77.7202642,77.085 L77.7202642,77.1167647 Z M33.6803774,86.1458824 C33.6803774,88.2817624 31.9401927,90.0132353 29.793566,90.0132353 C27.6469394,90.0132353 25.9067547,88.2817624 25.9067547,86.1458824 C25.9067547,84.0100023 27.6469394,82.2785294 29.793566,82.2785294 C30.8244125,82.2785294 31.8130382,82.6859815 32.5419567,83.4112509 C33.2708752,84.1365202 33.6803774,85.1201966 33.6803774,86.1458824 Z M67.3607547,86.1458824 C67.3607547,88.2817624 65.62057,90.0132353 63.4739434,90.0132353 C61.3273168,90.0132353 59.5871321,88.2817624 59.5871321,86.1458824 C59.5871321,84.0100023 61.3273168,82.2785294 63.4739434,82.2785294 C64.5047899,82.2785294 65.4934155,82.6859815 66.222334,83.4112509 C66.9512526,84.1365202 67.3607547,85.1201966 67.3607547,86.1458824 Z" id="Shape"></path>
                <path d="M64.7748679,61.6552941 C66.0148743,61.6475307 67.0770584,60.7701321 67.3128679,59.5588235 L69.8987547,46.6941176 C70.1808576,45.2994362 69.2732459,43.9412788 67.8715472,43.6605882 C66.4698485,43.3798976 65.1048576,44.2829656 64.8227547,45.6776471 L62.2528302,58.5661765 C61.9740137,59.9628368 62.88473,61.3202955 64.2880189,61.5997059 C64.4476847,61.6363923 64.6110004,61.6550396 64.7748679,61.6552941 Z" id="Path"></path>
                <path d="M54.4073774,61.6552948 C55.6485212,61.6506412 56.7124314,60.7718168 56.9453774,59.5588235 L59.5392453,46.6941176 C59.7762108,45.3175861 58.8697108,44.0032242 57.4936126,43.7280927 C56.1175143,43.4529612 54.7711031,44.3168851 54.4552642,45.6776471 L51.8773585,58.5661765 C51.738833,59.2362236 51.8750455,59.9335682 52.2557201,60.5032127 C52.6363948,61.0728573 53.2299891,61.4676014 53.904566,61.5997059 C54.069571,61.6367807 54.2382176,61.6552948 54.4073774,61.6552948 L54.4073774,61.6552948 Z" id="Path"></path>
                <path d="M33.1695849,61.5997059 C33.3371923,61.6373723 33.5085496,61.6560207 33.6803774,61.6553146 C34.9215212,61.6506412 35.9854314,60.7718168 36.2183774,59.5588235 L38.8122453,46.6941176 C39.0492108,45.3175861 38.1427108,44.0032242 36.7666126,43.7280927 C35.3905143,43.4529612 34.0441031,44.3168851 33.7282642,45.6776471 L31.1264151,58.5661765 C30.9904872,59.2382928 31.1297733,59.9365917 31.5133651,60.5061171 C31.8969569,61.0756424 32.493128,61.4692895 33.1695849,61.5997059 L33.1695849,61.5997059 Z" id="Path"></path>
                <path d="M44.0478679,61.6553868 C45.2878743,61.6475307 46.3500584,60.7701321 46.5858679,59.5588235 L49.1717547,46.6941176 C49.3542433,45.7919169 49.0391296,44.86138 48.345114,44.2530311 C47.6510983,43.6446822 46.6836182,43.450944 45.8071139,43.7447958 C44.9306097,44.0386476 44.2782433,44.7754463 44.0957547,45.6776471 L41.5018868,58.5661765 C41.2230703,59.9628368 42.1337866,61.3202955 43.5370755,61.5997059 C43.7045401,61.6382166 43.8759962,61.6568757 44.0478679,61.6553868 Z" id="Path"></path>
                <path d="M416.032472,55.4452941 C415.88037,55.3421111 415.697095,55.2944177 415.513698,55.3102941 L415.082717,55.3102941 L415.082717,56.2155882 L415.465811,56.2155882 C415.664593,56.2354498 415.864287,56.1878753 416.032472,56.0805882 C416.132579,56.0031872 416.186619,55.8807113 416.176132,55.755 C416.182601,55.6344911 416.128834,55.5185802 416.032472,55.4452941 L416.032472,55.4452941 Z" id="Path"></path>
                <path d="M314.592283,61.0438235 C314.21705,60.6317761 313.741555,60.3227476 313.211547,60.1464706 C312.536851,59.9147809 311.826069,59.8045294 311.112509,59.8208824 C310.216753,59.7901171 309.32606,59.9668203 308.51066,60.3370588 C307.89552,60.6489239 307.352014,61.0842553 306.914434,61.6155882 C306.528034,62.0855195 306.235465,62.6246026 306.052472,63.2038235 C305.964679,63.5373529 305.884868,63.8470588 305.836981,64.125 L316.12466,64.125 C315.877466,62.9877771 315.350994,61.9291917 314.592283,61.0438235 L314.592283,61.0438235 Z" id="Path"></path>
                <path d="M402.488491,62.2032353 C402.043791,61.5150825 401.442218,60.941008 400.732642,60.5276471 C399.892358,60.0802396 398.947434,59.8636937 397.995113,59.9002941 C396.203891,59.7924159 394.499468,60.6785566 393.565585,62.2032353 C393.098854,62.9563368 392.774284,63.7879215 392.607849,64.6570588 C392.413243,65.6352459 392.314347,66.6298928 392.312547,67.6270588 C392.313527,68.6085005 392.412446,69.5874202 392.607849,70.5494118 C392.779904,71.4219195 393.104035,72.257753 393.565585,73.0191176 C393.995976,73.6953503 394.588326,74.25472 395.289509,74.6470588 C396.119758,75.0898169 397.053876,75.3036707 397.995113,75.2664706 C398.948866,75.3012682 399.895229,75.0877601 400.740623,74.6470588 C401.445691,74.2687814 402.046057,73.7232461 402.488491,73.0588235 C402.947396,72.2969934 403.268825,71.4611608 403.438245,70.5891176 C403.634924,69.6274467 403.731209,68.6481289 403.725566,67.6667647 C403.730409,66.6696702 403.634149,65.6746327 403.438245,64.6967647 C403.279144,63.8143606 402.957126,62.968919 402.488491,62.2032353 L402.488491,62.2032353 Z" id="Path"></path>
                <path d="M415.721208,53.7537763 C414.992473,53.7495426 414.292454,54.0362349 413.777903,54.5497032 C413.263351,55.0631715 412.977255,55.7605173 412.983679,56.4855882 C412.970721,57.2108418 413.259551,57.909185 413.781792,58.4152941 C414.855337,59.4751767 416.587079,59.4751767 417.660623,58.4152941 C418.182864,57.909185 418.471694,57.2108418 418.458736,56.4855882 C418.46516,55.7605173 418.179064,55.0631715 417.664513,54.5497032 C417.149961,54.0362349 416.449942,53.7495426 415.721208,53.7537763 L415.721208,53.7537763 Z M416.247962,58.2882353 C416.048269,57.8594205 415.813359,57.4477299 415.545623,57.0573529 C415.463713,56.942893 415.335204,56.8702421 415.194453,56.8588235 L415.082717,56.8588235 L415.082717,58.2882353 L414.220755,58.2882353 L414.220755,54.675 L415.816981,54.675 C416.173718,54.6432226 416.529519,54.7451803 416.814623,54.9608824 C417.030197,55.1440272 417.14569,55.4180543 417.125887,55.6994118 C417.12819,55.9310452 417.042701,56.1550394 416.886453,56.3267647 C416.687288,56.5264313 416.430716,56.6596246 416.152189,56.7079412 C416.258879,56.7527978 416.360532,56.8086934 416.455472,56.8747059 C416.565376,56.9876895 416.661789,57.1129321 416.742792,57.2479412 L417.333396,58.2882353 L416.247962,58.2882353 Z" id="Shape"></path>
                <path d="M354.841132,0 C317.436053,0 287.113245,30.171004 287.113245,67.3888235 C287.113245,104.606643 317.436053,134.777647 354.841132,134.777647 C392.246211,134.777647 422.569019,104.606643 422.569019,67.3888235 C422.569019,49.5161963 415.433423,32.3755853 402.73198,19.7377294 C390.030537,7.09987352 372.803684,0 354.841132,0 Z M308.303151,51.1729412 L312.357566,46.1064706 C312.474717,45.9606823 312.657585,45.8831286 312.844415,45.9 L320.506302,45.9 C320.825547,45.9 320.578132,46.1064706 320.578132,46.1064706 L313.770226,51.2682353 C313.598782,51.4051506 313.383314,51.4756733 313.16366,51.4667647 L308.374981,51.4667647 C308.071698,51.4667647 308.303151,51.1729412 308.303151,51.1729412 Z M319.301151,79.8882353 C316.905283,81.3537727 314.131215,82.090741 311.320019,82.0085294 C309.324437,82.0362729 307.341777,81.6859239 305.47783,80.9761765 C303.792386,80.3231463 302.271963,79.3091831 301.024358,78.0061765 C299.782909,76.6859973 298.826759,75.1265177 298.215,73.4241176 C297.541286,71.5686596 297.208757,69.6076846 297.233321,67.635 C297.217359,65.6926703 297.55537,63.763546 298.230962,61.9411765 C299.514897,58.4878822 302.174567,55.7151 305.581585,54.2779412 C307.394386,53.5185859 309.345315,53.1400862 311.312038,53.1661765 C313.443894,53.1209018 315.555109,53.5895284 317.465491,54.5320588 C319.177362,55.3958955 320.65963,56.6503323 321.791264,58.1929412 C322.914822,59.7535019 323.727577,61.5137424 324.185604,63.3785294 C324.569233,64.8973438 324.75961,66.4580892 324.752469,68.0241176 C324.752469,68.4767647 324.752469,68.9373529 324.704377,69.3979412 L324.704377,69.6441176 C324.704377,69.6441176 324.704377,69.9855882 324.393113,69.9855882 L305.765151,69.9855882 C305.820012,70.7288083 305.967462,71.4623676 306.204113,72.1694118 C306.428878,72.852205 306.808453,73.4744182 307.313491,73.9879412 C307.811235,74.457728 308.408506,74.8104977 309.061358,75.0202941 C309.871734,75.2737561 310.718132,75.394448 311.567434,75.3776471 C313.311835,75.4506238 314.993826,74.7250201 316.132642,73.4082353 C316.382511,73.1346929 316.567918,72.8091426 316.675358,72.4552941 L316.747189,72.225 C316.747189,72.225 316.747189,72.0105882 317.146245,72.0105882 L324.241472,72.0105882 C324.536774,72.0105882 324.441,72.2647059 324.441,72.2647059 L324.249453,72.8285294 C323.794302,74.3225775 323.113442,75.7390655 322.230226,77.0294118 C321.456696,78.1683765 320.460529,79.1406515 319.301151,79.8882353 Z M351.066057,81.405 L341.760057,81.405 C341.54788,81.3884478 341.355809,81.2737819 341.241283,81.0952941 L336.324906,73.7020588 L331.392566,81.0952941 C331.293978,81.2855148 331.096875,81.405 330.881774,81.405 L321.703472,81.405 C321.376245,81.405 321.559811,81.1429412 321.559811,81.1429412 L331.336698,66.9123529 L322.948528,54.8735294 L322.310038,53.9682353 C322.310038,53.9682353 322.174358,53.7855882 322.437736,53.7855882 L331.847491,53.7855882 C332.014684,53.7799156 332.174646,53.8536011 332.278472,53.9841176 L336.412698,60.0829412 L340.522981,53.9523529 C340.603625,53.8319336 340.745843,53.7673329 340.890113,53.7855882 L350.044472,53.7855882 C350.363717,53.7855882 350.244,53.9444118 350.244,53.9444118 L341.201377,66.7614706 L351.217698,81.1111765 C351.217698,81.1111765 351.417226,81.405 351.066057,81.405 L351.066057,81.405 Z M357.490868,93.1420588 C355.395127,93.1420588 353.505897,91.8855066 352.70464,89.9586796 C351.903382,88.0318526 352.348005,85.8144795 353.831059,84.341123 C355.314114,82.8677665 357.543327,82.4287895 359.478611,83.2290062 C361.413895,84.0292229 362.673852,85.9109298 362.670629,87.9961765 C362.66622,90.8394529 360.348454,93.1420588 357.490868,93.1420588 L357.490868,93.1420588 Z M361.545283,81.0635294 C361.545283,81.0635294 361.545283,81.405 361.234019,81.405 L353.755698,81.405 C353.476358,81.405 353.444434,81.0714706 353.444434,81.0714706 L351.928019,54.0714706 C351.928019,54.0714706 351.86417,53.8173529 352.231302,53.8173529 L362.798321,53.8173529 C363.07766,53.8173529 363.069703,54.1191176 363.069703,54.1191176 L361.545283,81.0635294 Z M383.190113,59.6223529 C383.196714,59.7045477 383.170099,59.7859679 383.116167,59.8485737 C383.062235,59.9111795 382.985438,59.9498015 382.902792,59.9558824 L377.88266,59.9558824 L377.88266,72.2647059 C377.875063,72.7184207 377.920596,73.1714723 378.01834,73.6147059 C378.050999,73.8337638 378.14821,74.0382662 378.297679,74.2023529 C378.464613,74.3495257 378.66887,74.4483963 378.888283,74.4882353 C379.334158,74.5821879 379.789412,74.6248208 380.245075,74.6152941 C380.636151,74.6152941 381.003283,74.6152941 381.354453,74.5676471 C381.689403,74.5384107 382.022463,74.4906902 382.352094,74.4247059 L382.902792,74.3135294 C382.902792,74.3135294 383.190113,74.2023529 383.190113,74.5438235 L383.190113,81 C383.190113,81.3494118 382.910774,81.3494118 382.910774,81.3494118 L382.607491,81.405 C381.901856,81.5153604 381.190305,81.5843031 380.476528,81.6114706 C379.718321,81.6114706 378.984057,81.6592434 378.265755,81.6592434 C377.159892,81.6628563 376.055334,81.5832166 374.961566,81.4208824 C373.944657,81.2818562 372.963928,80.9502932 372.072396,80.4441176 C371.191401,79.9383236 370.472046,79.1950409 369.997302,78.3 C369.460657,77.2064519 369.202992,75.9982147 369.247075,74.7820588 L369.247075,59.9876471 L365.136792,59.9876471 C365.056417,59.9914242 364.978716,59.9584365 364.92584,59.8980881 C364.872964,59.8377397 364.850714,59.756652 364.865434,59.6779412 L364.865434,54 C364.865434,54 364.817547,53.7538235 365.184679,53.7538235 L369.247075,53.7538235 L369.247075,46.2176471 C369.237436,46.1357559 369.264834,46.053833 369.321868,45.9940178 C369.378901,45.9342027 369.459681,45.9026699 369.542377,45.9079412 L377.587358,45.9079412 C377.670806,45.9051136 377.751362,45.9385444 377.808059,45.9995318 C377.864757,46.0605192 377.891986,46.1430302 377.88266,46.2255882 L377.88266,53.7855882 L382.894811,53.7855882 C382.971419,53.7762247 383.048299,53.8007679 383.105131,53.8527308 C383.161964,53.9046937 383.193028,53.9788459 383.190113,54.0555882 L383.190113,59.6223529 Z M411.363509,73.5273529 C410.728541,75.2399014 409.735645,76.7989286 408.450396,78.1014706 C407.164981,79.3980963 405.609344,80.3983698 403.89317,81.0317647 C402.009931,81.7302821 400.01275,82.0749426 398.003094,82.0482353 C396.003716,82.0763785 394.016732,81.7316091 392.144943,81.0317647 C390.437914,80.3941417 388.890961,79.3941979 387.61166,78.1014706 C386.326753,76.8093913 385.331241,75.261352 384.690566,73.5591176 C383.989368,71.6632515 383.645748,69.6549286 383.676962,67.635 C383.646369,65.6047692 383.989909,63.5861434 384.690566,61.6791176 C385.945795,58.2046275 388.657891,55.4452401 392.121,54.1191176 C395.915777,52.7321611 400.082431,52.7321611 403.877208,54.1191176 C407.355495,55.4356541 410.083526,58.1964283 411.347547,61.6791176 C412.040502,63.5881666 412.383803,65.6053816 412.361151,67.635 C412.387045,69.6538349 412.046373,71.6607344 411.355528,73.5591176 L411.363509,73.5273529 Z M417.413208,59.4079412 C416.363725,60.0108269 415.070709,60.0108269 414.021226,59.4079412 C413.501721,59.1202669 413.073273,58.6939639 412.784151,58.1770588 C412.176806,57.1303732 412.176806,55.8408033 412.784151,54.7941176 C413.073273,54.2772125 413.501721,53.8509095 414.021226,53.5632353 C415.070709,52.9603496 416.363725,52.9603496 417.413208,53.5632353 C417.935654,53.8497286 418.366976,54.2761394 418.658264,54.7941176 C419.265609,55.8408033 419.265609,57.1303732 418.658264,58.1770588 C418.366976,58.6950371 417.935654,59.1214479 417.413208,59.4079412 L417.413208,59.4079412 Z" id="Shape"></path>
            </g>
        </g>
    </g>
</svg>