<?xml version="1.0" encoding="UTF-8"?>
<svg width="75px" height="55px" viewBox="0 0 75 55" version="1.1" xmlns="http://www.w3.org/2000/svg" xmlns:xlink="http://www.w3.org/1999/xlink">
    <!-- Generator: Sketch 64 (93537) - https://sketch.com -->
    <title>img-07</title>
    <desc>Created with Sketch.</desc>
    <g id="Welcome" stroke="none" stroke-width="1" fill="none" fill-rule="evenodd">
        <g id="HOME---Servicios---Sin-Filas---Desktop-HD" transform="translate(-676.000000, -947.000000)" fill="#0094BF" fill-rule="nonzero">
            <g id="img-07" transform="translate(676.000000, 947.000000)">
                <rect id="Rectangle" x="7.26377953" y="23.201068" width="12.0915354" height="2.43783784"></rect>
                <rect id="Rectangle" x="7.26377953" y="30.5145815" width="18.144685" height="2.43783784"></rect>
                <rect id="Rectangle" x="7.26377953" y="37.828095" width="43.5531496" height="2.43783784"></rect>
                <rect id="Rectangle" x="7.26377953" y="45.1267437" width="7.26377953" height="2.43783784"></rect>
                <rect id="Rectangle" x="19.355315" y="45.1267437" width="7.26377953" height="2.43783784"></rect>
                <rect id="Rectangle" x="31.4616142" y="45.1267437" width="7.26377953" height="2.43783784"></rect>
                <path d="M49.6062992,21.9821491 C48.7204724,21.9821491 47.9084646,22.2348518 47.1998031,22.651068 C46.4616142,22.2199869 45.6348425,21.9821491 44.7637795,21.9821491 C42.0915354,21.9821491 39.9212598,24.1672842 39.9212598,26.8578248 C39.9212598,29.5483653 42.0915354,31.7335004 44.7637795,31.7335004 C45.6348425,31.7335004 46.4616142,31.4956626 47.1998031,31.0645815 C47.9084646,31.4807977 48.7204724,31.7335004 49.6062992,31.7335004 C52.2785433,31.7335004 54.4488189,29.5483653 54.4488189,26.8578248 C54.4488189,24.1672842 52.2785433,21.9821491 49.6062992,21.9821491 Z M45.3838583,29.2064734 C45.1771654,29.2659329 44.9704724,29.2956626 44.7637795,29.2956626 C43.4350394,29.2956626 42.3425197,28.1956626 42.3425197,26.8578248 C42.3425197,25.5199869 43.4350394,24.4199869 44.7637795,24.4199869 C44.9704724,24.4199869 45.1919291,24.4645815 45.3838583,24.5091761 C45,25.2078248 44.7637795,25.9956626 44.7637795,26.8578248 C44.7637795,27.7199869 45,28.5078248 45.3838583,29.2064734 Z M49.6062992,29.2956626 C48.2775591,29.2956626 47.1850394,28.1956626 47.1850394,26.8578248 C47.1850394,25.5199869 48.2775591,24.4199869 49.6062992,24.4199869 C50.9350394,24.4199869 52.0275591,25.5199869 52.0275591,26.8578248 C52.0275591,28.1956626 50.9350394,29.2956626 49.6062992,29.2956626 Z" id="Shape"></path>
                <path d="M72.4753937,16.3483653 L21.7175197,0.205122048 C21.363189,0.0862031295 18.5285433,-0.850283357 17.1702756,2.58350043 L12.992126,15.8875545 L3.63188976,15.8875545 C1.62401575,15.9024193 8.25630644e-14,17.5375545 8.25630644e-14,19.5443112 L8.25630644e-14,51.2213383 C8.25630644e-14,53.2429599 1.62401575,54.878095 3.63188976,54.878095 L56.8700787,54.878095 C58.1397638,54.878095 59.2470472,54.224041 59.8966535,53.228095 C59.8966535,53.228095 61.5354331,53.6889058 61.9045276,53.6889058 C63.4990157,53.6889058 64.886811,52.6632302 65.359252,51.1321491 L74.8375984,20.9267437 C75.132874,20.005122 75.3395669,17.1213383 72.4753937,16.3483653 Z M18.011811,7.96458151 L42.9478346,15.8875545 L26.8700787,15.8875545 L16.5501969,12.6024193 L18.011811,7.96458151 Z M15.8267717,14.9362031 L18.8533465,15.9024193 L15.5314961,15.9024193 L15.8267717,14.9362031 Z M58.0807087,51.2213383 L58.0659449,51.2213383 C58.0659449,51.8902572 57.519685,52.4402572 56.855315,52.4402572 L3.63188976,52.4402572 C2.96751969,52.4402572 2.42125984,51.8902572 2.42125984,51.2213383 L2.42125984,19.5443112 C2.42125984,18.8753923 2.96751969,18.3253923 3.63188976,18.3253923 L56.8700787,18.3253923 C57.5344488,18.3253923 58.0807087,18.8753923 58.0807087,19.5443112 L58.0807087,51.2213383 Z M63.0561024,50.4037707 C62.8641732,51.028095 62.1555118,51.3997166 61.5354331,51.1916085 L60.4872047,50.8645815 L60.4872047,29.1470139 L68.8877953,31.8226896 L63.0561024,50.4037707 Z M69.6112205,29.4889058 L60.4872047,26.5902572 L60.4872047,21.4767437 L71.0728346,24.8362031 L69.6112205,29.4889058 Z M72.5344488,20.1983653 L71.8110236,22.5172842 L60.4281496,18.905122 C60.1181102,17.1956626 58.6417323,15.9024193 56.8700787,15.9024193 L50.9793307,15.9024193 L18.7352362,5.64566259 L19.4586614,3.32674367 C19.6505906,2.70241935 20.3444882,2.33079772 20.9793307,2.53890583 L71.7372047,18.6672842 C72.7559055,18.9348518 72.6230315,19.8862031 72.5344488,20.1983653 Z" id="Shape"></path>
            </g>
        </g>
    </g>
</svg>