<?xml version="1.0" encoding="UTF-8"?>
<svg width="109px" height="56px" viewBox="0 0 109 56" version="1.1" xmlns="http://www.w3.org/2000/svg" xmlns:xlink="http://www.w3.org/1999/xlink">
    <!-- Generator: Sketch 64 (93537) - https://sketch.com -->
    <title>img-09</title>
    <desc>Created with Sketch.</desc>
    <defs>
        <polygon id="path-1" points="0 0 109 0 109 56 0 56"></polygon>
    </defs>
    <g id="Welcome" stroke="none" stroke-width="1" fill="none" fill-rule="evenodd">
        <g id="HOME---Servicios---Sin-Filas---Desktop-HD" transform="translate(-1141.000000, -946.000000)">
            <g id="img-09" transform="translate(1141.000000, 946.000000)">
                <mask id="mask-2" fill="white">
                    <use xlink:href="#path-1"></use>
                </mask>
                <g id="Clip-2"></g>
                <path d="M105.499048,29.7498722 L101.998097,29.7498722 L59.9891336,29.7498722 L56.4877729,29.7498722 L56.4877729,24.4998466 L74.9388553,24.4998466 C76.1519347,26.5888128 78.4078944,28 80.9936153,28 C83.581791,28 85.8406145,26.5859495 87.0524666,24.4928929 C87.0753781,24.4941201 87.096653,24.4998466 87.1195644,24.4998466 L105.499048,24.4998466 L105.499048,29.7498722 Z M96.9948089,52.4998466 L64.9920125,52.4998466 L62.0298892,33.2500256 L99.9573413,33.2500256 L96.9948089,52.4998466 Z M77.4926638,6.99989774 C77.4926638,5.0704571 79.0637347,3.49974435 80.9936153,3.49974435 C82.9234959,3.49974435 84.4941577,5.0704571 84.4941577,6.99989774 L84.4941577,20.9996932 C84.4941577,22.9291339 82.9234959,24.4998466 80.9936153,24.4998466 C79.0637347,24.4998466 77.4926638,22.9291339 77.4926638,20.9996932 L77.4926638,6.99989774 Z M105.499048,20.9996932 L87.9951092,20.9996932 L87.9951092,6.99989774 C87.9951092,3.13897126 84.855013,0 80.9936153,0 C77.1318084,0 73.9921214,3.13897126 73.9921214,6.99989774 L73.9921214,20.9996932 L56.4877729,20.9996932 C54.701498,20.9996932 53.2249368,22.3466612 53.0150516,24.0773085 L0.907047974,24.0773085 C0.406269119,24.0773085 0,24.483485 0,24.9845587 L0,26.2288578 C0,26.7295224 0.406269119,27.1356989 0.907047974,27.1356989 L52.9868214,27.1356989 L52.9868214,29.7498722 C52.9868214,31.6793128 54.5578923,33.2500256 56.4877729,33.2500256 L58.4872061,33.2500256 L59.1074519,37.2827487 L6.74660401,37.2827487 C6.24500689,37.2827487 5.8391469,37.6889252 5.8391469,38.1895899 L5.8391469,39.4338889 C5.8391469,39.9345536 6.24500689,40.3411392 6.74660401,40.3411392 L59.578364,40.3411392 L60.9788264,49.4414562 L17.9818067,49.4414562 C17.4802096,49.4414562 17.0743496,49.8476327 17.0743496,50.3487064 L17.0743496,51.5925964 C17.0743496,52.0936701 17.4802096,52.4998466 17.9818067,52.4998466 L61.4493294,52.4998466 L61.7594523,54.5164127 C61.8916023,55.3692607 62.6264052,56 63.4892668,56 L98.4975546,56 C99.3608253,56 100.096037,55.3692607 100.227369,54.5164127 L103.499615,33.2500256 L105.499048,33.2500256 C107.428929,33.2500256 109,31.6793128 109,29.7498722 L109,24.4998466 C109,22.570406 107.428929,20.9996932 105.499048,20.9996932 L105.499048,20.9996932 Z" id="Fill-1" fill="#0094BF" mask="url(#mask-2)"></path>
                <path d="M80.5003506,21 C81.3285414,21 82,20.3282693 82,19.5001753 C82,18.6717307 81.3285414,18 80.5003506,18 C79.6718093,18 79,18.6717307 79,19.5001753 C79,20.3282693 79.6718093,21 80.5003506,21" id="Fill-4" fill="#0094BF" mask="url(#mask-2)"></path>
                <path d="M77.5,49 C78.3292426,49 79,48.2330707 79,47.2858288 L79,38.7141712 C79,37.7665286 78.3292426,37 77.5,37 C76.671108,37 76,37.7665286 76,38.7141712 L76,47.2858288 C76,48.2330707 76.671108,49 77.5,49" id="Fill-6" fill="#0094BF" mask="url(#mask-2)"></path>
                <path d="M70.5,49 C71.328892,49 72,48.2330707 72,47.2858288 L72,38.7141712 C72,37.7665286 71.328892,37 70.5,37 C69.671108,37 69,37.7665286 69,38.7141712 L69,47.2858288 C69,48.2330707 69.671108,49 70.5,49" id="Fill-8" fill="#0094BF" mask="url(#mask-2)"></path>
                <path d="M84.5,49 C85.328892,49 86,48.2330707 86,47.2858288 L86,38.7141712 C86,37.7665286 85.328892,37 84.5,37 C83.671108,37 83,37.7665286 83,38.7141712 L83,47.2858288 C83,48.2330707 83.671108,49 84.5,49" id="Fill-10" fill="#0094BF" mask="url(#mask-2)"></path>
                <path d="M91.4998247,49 C92.3289704,49 93,48.2330707 93,47.2858288 L93,38.7141712 C93,37.7665286 92.3289704,37 91.4998247,37 C90.6710296,37 90,37.7665286 90,38.7141712 L90,47.2858288 C90,48.2330707 90.6710296,49 91.4998247,49" id="Fill-12" fill="#0094BF" mask="url(#mask-2)"></path>
            </g>
        </g>
    </g>
</svg>