<?xml version="1.0" encoding="UTF-8"?>
<svg width="47px" height="50px" viewBox="0 0 47 50" version="1.1" xmlns="http://www.w3.org/2000/svg" xmlns:xlink="http://www.w3.org/1999/xlink">
    <!-- Generator: Sketch 64 (93537) - https://sketch.com -->
    <title>img-03</title>
    <desc>Created with Sketch.</desc>
    <g id="Welcome" stroke="none" stroke-width="1" fill="none" fill-rule="evenodd">
        <g id="HOME---Servicios---Sin-Filas---Desktop-HD" transform="translate(-844.000000, -611.000000)">
            <g id="img-03" transform="translate(844.000000, 611.000000)">
                <rect id="Rectangle-Copy-3" fill="#FFEB00" x="0" y="0" width="47" height="50" rx="10"></rect>
                <path d="M23.416,34.144 C27.088,34.144 29.2,32.032 29.2,29.08 C29.2,26.776 28,25.432 26.248,24.856 L26.248,24.76 C27.448,24.352 28.888,23.128 28.888,20.824 C28.888,18.184 26.896,16.072 23.2,16.072 C19.624,16.072 17.368,17.968 17.224,21.424 L21.232,21.424 C21.304,20.464 21.784,19.504 23.104,19.504 C24.208,19.504 24.904,20.152 24.904,21.328 C24.904,22.912 23.56,23.248 22.168,23.248 L21.4,23.248 L21.4,26.584 L22.168,26.584 C24.304,26.584 25.24,27.208 25.24,28.768 C25.24,29.92 24.544,30.736 23.272,30.736 C21.76,30.736 21.016,29.824 20.992,28.456 L17.008,28.456 C17.128,32.416 19.768,34.144 23.416,34.144 Z" id="3" fill="#0094BF" fill-rule="nonzero"></path>
            </g>
        </g>
    </g>
</svg>