<?xml version="1.0" encoding="UTF-8"?>
<svg width="97px" height="50px" viewBox="0 0 97 50" version="1.1" xmlns="http://www.w3.org/2000/svg" xmlns:xlink="http://www.w3.org/1999/xlink">
    <!-- Generator: Sketch 64 (93537) - https://sketch.com -->
    <title>img-06</title>
    <desc>Created with Sketch.</desc>
    <g id="Welcome" stroke="none" stroke-width="1" fill="none" fill-rule="evenodd">
        <g id="HOME---Servicios---Sin-Filas---Desktop-HD" transform="translate(-426.000000, -954.000000)" fill="#0094BF" fill-rule="nonzero">
            <g id="img-06" transform="translate(426.000000, 954.000000)">
                <g id="Group-2" transform="translate(0.000000, 8.000000)">
                    <path d="M43.691872,7.55134474 C43.4328296,7.2036014 43.0404035,7.00076807 42.6251733,7 L15.3678842,7 C14.6124226,7 14,7.65624766 14,8.46577017 C14,9.27529268 14.6124226,9.93154034 15.3678842,9.93154034 L40.905906,9.93154034 L37.4422726,26.0684597 L18.0534551,26.0684597 C17.2979935,26.0684597 16.6855708,26.7247073 16.6855708,27.5342298 C16.6855708,28.3437523 17.2979935,29 18.0534551,29 L38.5340701,29 C39.1666389,28.9945526 39.7148054,28.5290711 39.8643061,27.8704156 L43.9554094,8.85574572 C44.0660067,8.40077453 43.9681773,7.91655946 43.691872,7.55134474 Z" id="Path"></path>
                    <path d="M40.6465345,32.0423736 L14.7692678,32.0423736 L9.56649679,1.06017537 C9.57114613,1.01318025 9.57114613,0.965816625 9.56649679,0.918821504 C9.54853432,0.823653687 9.51493509,0.732378438 9.46715987,0.648964117 C9.41223411,0.581518479 9.34970361,0.521120413 9.28090315,0.469059191 C9.22102963,0.394252206 9.15451426,0.325416093 9.08222932,0.263453563 L8.8959726,0.122099693 L8.6352132,0.00644652675 L8.38687091,0.00644652675 L8.23786553,0.00644652675 L1.48295521,0.00644652675 C0.970744865,-0.0445015242 0.474923922,0.209543904 0.203538824,0.661985367 C-0.0678462746,1.11442683 -0.0678462746,1.68699256 0.203538824,2.13943403 C0.474923922,2.59187549 0.970744865,2.84592092 1.48295521,2.79497287 L7.09549099,2.79497287 L12.2858449,33.6358172 C10.5847158,35.4125558 10.4464811,38.2288728 11.9648859,40.1748569 C13.4832907,42.120841 16.172731,42.5741432 18.2093381,41.2273525 C20.2459452,39.8805618 20.9783878,37.1643979 19.9099532,34.9208524 L28.9620297,34.9208524 C28.6601259,35.5754886 28.4991356,36.2901461 28.4901794,37.0154597 C28.4901794,39.719437 30.6082847,41.9114437 33.2211,41.9114437 C35.8339153,41.9114437 37.9520207,39.719437 37.9520207,37.0154597 C37.9449336,36.2884437 37.7793993,35.572456 37.4677532,34.9208524 L40.6465345,34.9208524 C41.3940329,34.9208524 42,34.2937428 42,33.520164 C42,32.7465852 41.3940329,32.1194757 40.6465345,32.1194757 L40.6465345,32.0423736 Z M17.6872897,36.9383576 C17.6872897,37.7855472 17.1941605,38.549317 16.4378473,38.8735224 C15.6815342,39.1977279 14.8109802,39.0185222 14.2321232,38.4194686 C13.6532662,37.8204151 13.4801023,36.9194872 13.7933774,36.1367861 C14.1066525,35.3540849 14.8446726,34.8437502 15.6633,34.8437502 C16.7811187,34.8437502 17.6872897,35.7815379 17.6872897,36.9383576 Z M35.2450897,36.9383576 C35.2450897,38.0951773 34.3389186,39.0329649 33.2211,39.0329649 C32.1032814,39.0329649 31.1971103,38.0951773 31.1971103,36.9383576 C31.1971103,35.7815379 32.1032814,34.8437502 33.2211,34.8437502 C34.3389186,34.8437502 35.2450897,35.7815379 35.2450897,36.9383576 Z" id="Shape"></path>
                    <path d="M34.3216931,23 C34.9615415,23.0002112 35.5120384,22.6128669 35.6353119,22.0757028 L36.9734843,16.3723693 C37.1192606,15.7516779 36.6493085,15.1474038 35.9238169,15.0226854 C35.1983253,14.8979671 34.4920231,15.3000327 34.3462468,15.9207241 L33.0203512,21.634561 C32.8937407,22.2490356 33.3709477,22.8356341 34.0884337,22.947483 L34.3216931,23 Z" id="Path"></path>
                    <path d="M28.3222326,23 C28.9619521,23.0002112 29.5123381,22.6128669 29.6355867,22.0757028 L30.9734896,16.3723693 C31.1192366,15.7516779 30.6493792,15.1474038 29.9240337,15.0226854 C29.1986882,14.8979671 28.4925282,15.3000327 28.3467812,15.9207241 L27.0211527,21.634561 C26.8934134,22.2422417 27.357097,22.8257455 28.0644715,22.947483 L28.3222326,23 Z" id="Path"></path>
                    <path d="M17.086131,23 L17.3445644,23 C17.9842328,22.9960933 18.5334228,22.6061331 18.6613436,22.0650022 L19.9904293,16.2956407 C20.073336,15.6963226 19.6092133,15.1425155 18.9239458,15.0230761 C18.2386784,14.9036366 17.5620589,15.2586169 17.369177,15.8387667 L16.0277851,21.6187532 C15.9552373,21.9231502 16.0260943,22.2399593 16.2246936,22.499151 C16.4232928,22.7583428 16.7332791,22.9385722 17.086131,23 L17.086131,23 Z" id="Path"></path>
                    <path d="M22.3277091,23 C22.9644088,22.996138 23.51105,22.6106408 23.6383772,22.0757029 L24.9735438,16.3723693 C25.1189927,15.7516779 24.6500962,15.1474038 23.9262342,15.0226854 C23.2023722,14.8979671 22.4976565,15.3000327 22.3522076,15.9207241 L21.017041,21.634561 C20.9036824,22.243059 21.3671988,22.8207514 22.0704752,22.9474831 L22.3277091,23 Z" id="Path"></path>
                </g>
                <g id="Shape-2" transform="translate(45.000000, 0.000000)">
                    <path d="M51.1266291,22.2139856 L46.7337479,18.1647675 L46.7337479,4.73795822 C46.7337479,3.88364727 46.0491154,3.1909516 45.204522,3.1909516 L34.6303463,3.1909516 C33.7858545,3.1909516 33.1011203,3.88354452 33.1011203,4.73795822 L33.1011203,5.59833104 L27.7959036,0.708055798 C26.7718493,-0.236052847 25.2275921,-0.235950104 24.203944,0.707953055 L0.873218581,22.2140884 C0.0530001442,22.9702794 -0.218070065,24.135389 0.182695407,25.182241 C0.583562442,26.229093 1.55957769,26.9054525 2.66935071,26.9054525 L6.39557585,26.9054525 L6.39557585,48.4528906 C6.39557585,49.3072016 7.0802084,50 7.92480183,50 L20.712836,50 C21.5573279,50 22.242062,49.3073043 22.242062,48.4528906 L22.242062,35.3699634 L29.7577857,35.3699634 L29.7577857,48.4529934 C29.7577857,49.3073043 30.4424182,50 31.2870117,50 L44.074538,50 C44.9190299,50 45.603764,49.3074071 45.6036624,48.4529934 L45.6036624,26.9055552 L49.3307001,26.9055552 C50.4403715,26.9055552 51.4164883,26.229093 51.8173554,25.1823438 C52.2180193,24.135389 51.9470506,22.9702794 51.1266291,22.2139856 Z M44.074538,23.811542 C43.2300462,23.811542 42.545312,24.5041349 42.545312,25.3585486 L42.545312,46.9059868 L32.8163392,46.9059868 L32.8163392,33.8229568 C32.8163392,32.9686458 32.1316051,32.2759501 31.2871132,32.2759501 L20.712836,32.2759501 C19.8683441,32.2759501 19.18361,32.9685431 19.18361,33.8229568 L19.18361,46.9059868 L9.45392624,46.9059868 L9.45392624,25.3585486 C9.45392624,24.5042376 8.76929369,23.811542 7.92470026,23.811542 L3.68111595,23.811542 L26.0000762,3.23821354 L33.6006045,10.2443853 C34.0482919,10.6570026 34.6945338,10.763342 35.2483539,10.5160388 C35.8022756,10.2684273 36.1596739,9.7134077 36.1596739,9.10085185 L36.1596739,6.28496485 L43.6754991,6.28496485 L43.6754991,18.8480107 C43.6754991,19.2833343 43.8566865,19.6983147 44.1747802,19.9915442 L48.3188333,23.811542 L44.074538,23.811542 Z" id="Shape"></path>
                </g>
            </g>
        </g>
    </g>
</svg>