<?xml version="1.0" encoding="UTF-8"?>
<svg width="129px" height="129px" viewBox="0 0 129 129" version="1.1" xmlns="http://www.w3.org/2000/svg" xmlns:xlink="http://www.w3.org/1999/xlink">
    <!-- Generator: Sketch 64 (93537) - https://sketch.com -->
    <title>head-exito-atendido</title>
    <desc>Created with Sketch.</desc>
    <g id="Welcome" stroke="none" stroke-width="1" fill="none" fill-rule="evenodd">
        <g id="HOME---Dónde-Comprar---Éxito-Atendido---Desktop-HD" transform="translate(-1178.000000, -212.000000)" fill-rule="nonzero">
            <g id="head-exito-atendido" transform="translate(1178.051163, 212.541860)">
                <path d="M128.186047,64.0930233 C128.186047,28.6954239 99.4906226,-9.23705556e-13 64.0930233,-9.23705556e-13 C28.6954239,-9.23705556e-13 -1.42108547e-14,28.6954239 -1.42108547e-14,64.0930233 C-1.42108547e-14,99.4906226 28.6954239,128.186047 64.0930233,128.186047 C99.4906226,128.186047 128.186047,99.4906226 128.186047,64.0930233" id="Path" fill="#FFEB00"></path>
                <path d="M35.1302326,60.2534884 C34.6823519,58.4805145 33.902721,56.8084114 32.8325581,55.3255814 C31.7150142,53.8496882 30.2648318,52.658467 28.6,51.8488372 C26.8001395,50.948462 24.8073115,50.5021516 22.7953488,50.5488372 C20.9270543,50.5136353 19.0724635,50.8742501 17.3534884,51.6069767 C15.747383,52.3087861 14.305703,53.3385575 13.1209302,54.6302326 C11.9632307,55.8745068 11.0595147,57.3327759 10.4604651,58.9232558 C9.80992508,60.6528367 9.48202305,62.4870387 9.49302326,64.3348837 C9.49755697,66.2109023 9.82481056,68.0721571 10.4604651,69.8372093 C11.0573885,71.4467754 11.9609016,72.9252514 13.1209302,74.1906977 C14.3081369,75.4274196 15.7532427,76.3873828 17.3534884,77.0023256 C19.1160633,77.6886155 20.9947735,78.0273993 22.8860465,78 C25.548598,78.0724613 28.1747117,77.3686628 30.444186,75.9744186 C31.5432925,75.2492892 32.4884835,74.314372 33.2255814,73.2232558 C34.0446068,71.9890029 34.6857831,70.6455859 35.1302326,69.2325581 L35.1302326,68.7186047 C35.1302326,68.7186047 35.1302326,68.4767442 34.9488372,68.4767442 L28.4186047,68.4767442 C28.0860465,68.4767442 28.055814,68.6581395 28.055814,68.6581395 L28.055814,68.9 C27.9614225,69.2334927 27.7964571,69.5428028 27.572093,69.8069767 C27.2416085,70.1550447 26.8769864,70.4690249 26.4837209,70.744186 C25.5163355,71.3821303 24.3770681,71.7091422 23.2186047,71.6813953 C22.4176076,71.6960254 21.6200244,71.5733203 20.8604651,71.3186047 C20.2405771,71.1250992 19.6722447,70.7944331 19.1976744,70.3511628 C18.7255312,69.8646185 18.3735472,69.2745277 18.1697674,68.627907 C17.938904,67.9538314 17.7966271,67.2526096 17.7465116,66.5418605 L35.372093,66.5418605 C35.6744186,66.5418605 35.7046512,66.2093023 35.7046512,66.2093023 L35.7046512,65.9976744 C35.7046512,65.544186 35.7046512,65.0906977 35.7046512,64.6674419 C35.7031506,63.1812841 35.5306993,61.7002316 35.1906977,60.2534884 M18.7744186,58.5906977 C19.1947802,58.080744 19.7208511,57.6681394 20.3162791,57.3813953 C21.7313567,56.8052734 23.3031425,56.7411189 24.7604651,57.2 C25.2600496,57.3642976 25.7081347,57.6560739 26.0604651,58.0465116 C26.7727353,58.9238302 27.260452,59.9615253 27.4813953,61.0697674 L17.6860465,61.0697674 C17.6860465,60.7976744 17.6860465,60.4953488 17.8976744,60.1930233 C18.0659643,59.630489 18.3433287,59.1065785 18.7139535,58.6511628" id="Shape" fill="#1E120C"></path>
                <path d="M60.6465116,77.0627907 L51.1837209,63.427907 L59.7395349,51.3348837 C59.7395349,51.3348837 59.7395349,51.1837209 59.5581395,51.1837209 L50.8813953,51.1837209 C50.752438,51.1764006 50.6281157,51.2329107 50.5488372,51.3348837 L46.7395349,57.1395349 L42.8395349,51.3348837 C42.72992,51.2180386 42.5764875,51.1522818 42.4162791,51.1534721 L33.4372093,51.1534721 C33.1953488,51.1534721 33.4372093,51.3046512 33.4372093,51.3046512 L34.0116279,52.1813953 L41.9627907,63.6395349 L32.5906977,77.0627907 C32.5906977,77.0627907 32.5906977,77.3348837 32.7418605,77.3348837 L41.4186047,77.3348837 C41.6261045,77.3410465 41.8169383,77.2217754 41.9023256,77.0325581 L46.7395349,70.0790698 L51.2139535,77.0627907 C51.3340352,77.2325564 51.5211826,77.3426431 51.727907,77.3651163 L60.5255814,77.3651163 C60.8581395,77.3651163 60.5255814,77.0627907 60.5255814,77.0627907" id="Path" fill="#1E120C"></path>
                <path d="M71.6209302,51.1534884 L61.6139535,51.1534884 C61.2813953,51.1534884 61.3418605,51.3651163 61.3418605,51.3651163 L62.7627907,77.0627907 C62.7627907,77.0627907 62.7627907,77.3953488 63.0651163,77.3953488 L70.1395349,77.3953488 C70.4418605,77.3953488 70.4418605,77.0627907 70.4418605,77.0627907 L71.8930233,51.3953488 C71.8930233,51.245076 71.7712031,51.1232558 71.6209302,51.1232558" id="Path" fill="#1E120C"></path>
                <path d="M90.6372093,57.0488372 C90.6372093,57.0488372 90.9093023,57.0488372 90.9093023,56.7162791 L90.9093023,51.3953488 C90.9093023,51.3953488 90.9093023,51.1534884 90.6372093,51.1534884 L86.0418605,51.1534884 L86.0418605,43.9581395 C86.0504977,43.8808989 86.0256913,43.8036515 85.973698,43.7458811 C85.9217046,43.6881107 85.847488,43.6553325 85.7697674,43.655814 L78.1511628,43.655814 C78.0763521,43.6456964 78.0011078,43.6710905 77.9477271,43.7244713 C77.8943464,43.777852 77.8689522,43.8530963 77.8790698,43.927907 L77.8790698,51.1534884 L73.9488372,51.1534884 C73.5860465,51.1534884 73.6465116,51.3651163 73.6465116,51.3651163 L73.6465116,56.7465116 C73.6465116,56.7465116 73.6465116,57.0488372 73.8883721,57.0488372 L77.7883721,57.0488372 L77.7883721,71.0162791 C77.7351895,72.178873 77.9852313,73.3353164 78.5139535,74.372093 C78.9522086,75.218233 79.6236465,75.9211446 80.4488372,76.3976744 C81.2949993,76.8886985 82.2300514,77.2072328 83.2,77.3348837 C84.2011254,77.4801524 85.2116551,77.5508895 86.2232558,77.546703 L88.3395349,77.546703 C89.0074057,77.521605 89.6734702,77.4610537 90.3348837,77.3651163 L90.6372093,77.3651163 C90.6372093,77.3651163 90.8790698,77.3651163 90.8790698,77.0325581 L90.8790698,71.0162791 C90.8790698,70.6837209 90.6069767,70.8046512 90.6069767,70.8046512 L90.0930233,70.8046512 L89.0651163,71.0162791 L88.0069767,71.0162791 C87.5856813,71.073889 87.1585048,71.073889 86.7372093,71.0162791 C86.5211932,70.9906301 86.3194795,70.8950816 86.1627907,70.744186 C86.0232198,70.5951825 85.9380039,70.4034468 85.9209302,70.2 C85.8613812,69.7788387 85.8613812,69.3513938 85.9209302,68.9302326 L85.9209302,57.0488372 L90.6372093,57.0488372 Z" id="Path" fill="#1E120C"></path>
                <path d="M117.574419,58.6511628 C116.982534,57.016424 116.055774,55.523311 114.853488,54.2674419 C113.614111,53.0515675 112.144243,52.0956391 110.530233,51.455814 C108.743705,50.7830615 106.845913,50.4547949 104.937209,50.4883721 C103.0383,50.454219 101.150302,50.7825665 99.3744186,51.455814 C97.7695533,52.0789103 96.3162256,53.0374881 95.1116279,54.2674419 C93.9005788,55.5221491 92.9636902,57.0149936 92.3604651,58.6511628 C91.68998,60.4593041 91.3619122,62.3764506 91.3930233,64.3046512 C91.356176,66.2332881 91.6844252,68.151494 92.3604651,69.9581395 C92.9634309,71.5855059 93.9006109,73.0685161 95.1116279,74.3116279 C96.317391,75.5472074 97.7841869,76.4975259 99.4046512,77.0930233 C101.173873,77.752172 103.04929,78.0801138 104.937209,78.0604651 C106.846669,78.0703347 108.741952,77.7322571 110.530233,77.0627907 C112.148242,76.4447749 113.620373,75.4976698 114.853488,74.2813953 C116.055047,73.0365694 116.982,71.5534451 117.574419,69.927907 C118.235595,68.1172789 118.563365,66.2018691 118.54186,64.2744186 C118.558109,62.3473887 118.230497,60.4329095 117.574419,58.6209302 M107.537209,71.0162791 C106.736,71.4354797 105.841175,71.6435785 104.937209,71.6209302 C104.042869,71.6437932 103.157756,71.4355313 102.367442,71.0162791 C101.705017,70.6308065 101.14507,70.0915988 100.734884,69.444186 C100.311558,68.7101878 100.00554,67.9145419 99.827907,67.0860465 C99.6446525,66.1703128 99.5535007,65.2385383 99.555771,64.3046512 C99.5563754,63.3608964 99.6474906,62.4193727 99.827907,61.4930233 C100.008526,60.6749711 100.314461,59.8897386 100.734884,59.1651163 C101.155312,58.5075828 101.725026,57.9585861 102.397674,57.5627907 C103.171623,57.1293506 104.050976,56.9199809 104.937209,56.9581395 C106.655662,56.8549209 108.292342,57.7022803 109.2,59.1651163 C109.646005,59.8771565 109.953708,60.6669299 110.106977,61.4930233 C110.287393,62.4193727 110.378508,63.3608964 110.379113,64.3046512 C110.381383,65.2385383 110.290231,66.1703128 110.106977,67.0860465 C109.942513,67.9184026 109.635689,68.7161474 109.2,69.444186 C108.778542,70.092909 108.208528,70.6318319 107.537209,71.0162791" id="Shape" fill="#1E120C"></path>
                <path d="M71.5,83.6837209 C71.5,80.97881 69.3072365,78.7860465 66.6023256,78.7860465 C63.8974147,78.7860465 61.7046512,80.97881 61.7046512,83.6837209 C61.7046512,86.3886318 63.8974147,88.5813953 66.6023256,88.5813953 C67.9012696,88.5813953 69.1470123,88.0653918 70.0655044,87.1468997 C70.9839965,86.2284076 71.5,84.9826649 71.5,83.6837209" id="Path" fill="#E52F2A"></path>
                <path d="M23.8837209,43.8069767 L20.044186,48.644186 C20.044186,48.644186 19.8325581,48.9162791 20.044186,48.9162791 L24.5790698,48.9162791 C24.7852869,48.9206713 24.9871933,48.8569113 25.1534884,48.7348837 L31.6232558,43.8069767 C31.6232558,43.8069767 31.8348837,43.5953488 31.6232558,43.5953488 L24.3674419,43.5953488 C24.1804878,43.5777067 23.9976476,43.6576993 23.8837209,43.8069767" id="Path" fill="#010101"></path>
                <path d="M124.92093,53.7232558 C124.931851,54.2863625 124.785257,54.8413245 124.497674,55.3255814 C124.209081,55.810745 123.803768,56.2160575 123.318605,56.5046512 C122.325439,57.0709432 121.107119,57.0709432 120.113953,56.5046512 C119.618173,56.2299263 119.209609,55.8213615 118.934884,55.3255814 C118.368592,54.3324162 118.368592,53.1140954 118.934884,52.1209302 C119.198076,51.616574 119.609597,51.2050532 120.113953,50.9418605 C121.106418,50.3688581 122.329322,50.3694371 123.321244,50.943379 C124.313165,51.517321 124.923108,52.5772573 124.92093,53.7232558 M124.316304,53.7232558 C124.31931,53.0325354 124.047368,52.3689974 123.560465,51.8790698 C123.074412,51.3863563 122.408317,51.1133666 121.716279,51.1232558 C121.022886,51.1061131 120.354021,51.3802378 119.872093,51.8790698 C118.86921,52.8922434 118.86921,54.5240357 119.872093,55.5372093 C120.354021,56.0360412 121.022886,56.310166 121.716279,56.2930233 C122.408317,56.3029125 123.074412,56.0299228 123.560465,55.5372093 C124.040003,55.054716 124.311343,54.4034996 124.316304,53.7232558 M120.234884,52 L121.776744,52 C122.121603,51.9698223 122.465617,52.0665761 122.744186,52.272093 C122.945158,52.4460625 123.056355,52.7018135 123.046512,52.9674419 C123.043525,53.1919838 122.957345,53.4074342 122.804651,53.572093 C122.605112,53.7467386 122.366697,53.8711288 122.109302,53.9348837 L122.381395,53.9348837 C122.493631,54.0380528 122.585872,54.1610409 122.653488,54.2976744 L123.227907,55.2651163 L122.32093,55.2651163 C121.95814,54.6302326 121.746512,54.2372093 121.655814,54.1162791 C121.580035,54.0017204 121.459127,53.9247789 121.323256,53.9046512 L121.323256,53.9046512 L121.323256,55.2348837 L120.446512,55.2348837 L120.234884,52 Z M121.111628,53.4511628 L121.474419,53.4511628 C121.651538,53.5068642 121.841485,53.5068642 122.018605,53.4511628 C122.172575,53.2790182 122.172575,53.0186562 122.018605,52.8465116 C121.861718,52.7935216 121.69177,52.7935216 121.534884,52.8465116 L121.111628,52.8465116 L121.111628,53.4511628 Z" id="Shape" fill="#1E120C"></path>
            </g>
        </g>
    </g>
</svg>