<?xml version="1.0" encoding="UTF-8"?>
<svg width="334px" height="73px" viewBox="0 0 334 73" version="1.1" xmlns="http://www.w3.org/2000/svg" xmlns:xlink="http://www.w3.org/1999/xlink">
    <!-- Generator: Sketch 64 (93537) - https://sketch.com -->
    <title>head-serviexito</title>
    <desc>Created with Sketch.</desc>
    <g id="Welcome" stroke="none" stroke-width="1" fill="none" fill-rule="evenodd">
        <g id="HOME---Servicios---Ventas-Empresariales---Desktop-HD-Copy-2" transform="translate(-962.000000, -241.000000)" fill-rule="nonzero">
            <g id="head-serviexito" transform="translate(962.000000, 241.000000)">
                <path d="M90.7221875,42.21 C90.9734375,43.9896875 92.3134375,44.8690625 94.7840625,44.8690625 C95.5686607,44.917877 96.3496639,44.7281006 97.024375,44.3246875 C97.5439273,44.0400274 97.8655022,43.4933502 97.861875,42.9009375 C97.861875,42.0425 97.1290625,41.45625 95.768125,41.1421875 L91.7690625,40.3046875 C90.2036946,40.0820675 88.7431501,39.3883088 87.5815625,38.315625 C86.6291018,37.3624132 86.1072492,36.0615633 86.136875,34.714375 C86.0668861,32.9163603 86.8414833,31.1890085 88.230625,30.0453125 C89.9357173,28.724281 92.0668594,28.0759965 94.21875,28.22375 C96.2515388,28.1566876 98.2553413,28.7198 99.955625,29.8359375 C101.406726,30.8068999 102.415203,32.3120893 102.76125,34.0234375 L97.7990625,35.0075 C97.7061106,34.2196941 97.2887418,33.5063729 96.6475,33.039375 C95.8820773,32.5251314 94.972588,32.2684207 94.05125,32.3065625 C93.3070495,32.2246536 92.5593431,32.4265343 91.9575,32.871875 C91.5579834,33.2109298 91.3281889,33.708818 91.329375,34.2328125 C91.329375,35.0703125 91.915625,35.6146875 93.088125,35.886875 L97.778125,36.9128125 C99.2480547,37.17822 100.592394,37.9128314 101.609688,39.0065625 C102.480159,39.9689804 102.951762,41.2265883 102.92875,42.5240625 C102.993635,44.4442194 102.078854,46.2658953 100.5,47.360625 C98.6395173,48.5787201 96.4394834,49.1727292 94.21875,49.0565625 C92.1294109,49.1193526 90.0614883,48.6204482 88.230625,47.611875 C86.6225485,46.7173329 85.5576841,45.0887169 85.383125,43.256875 L90.7221875,42.21 Z" id="Path" fill="#1A1A1A"></path>
                <path d="M123.908125,40.0325 L108.875,40.0325 C109.06035,41.3116236 109.681591,42.4875455 110.63375,43.3615625 C111.483579,44.1739658 112.619828,44.6179304 113.795312,44.596875 C115.781945,44.7253211 117.670611,43.7201944 118.67375,42.000625 L123.321875,42.9846875 C122.588975,44.854536 121.275275,46.439783 119.574062,47.5071875 C117.833429,48.5605238 115.829427,49.0978286 113.795312,49.0565625 C111.148412,49.049055 108.61764,47.9687554 106.78125,46.0625 C104.818986,44.0722086 103.765863,41.3598479 103.870937,38.566875 C103.789073,35.8026406 104.840453,33.1250256 106.78125,31.155 C108.681471,29.223089 111.295565,28.1622972 114.004687,28.22375 C116.594605,28.1963744 119.085928,29.215552 120.914062,31.0503125 C122.85363,32.9536695 123.947478,35.5562722 123.95,38.27375 L123.908125,40.0325 Z M110.96875,33.709375 C110.035948,34.3262788 109.376218,35.2783887 109.12625,36.3684375 L118.610937,36.3684375 C118.381615,35.2911415 117.772174,34.3323871 116.894062,33.6675 C116.048163,33.0556498 115.027647,32.7326087 113.98375,32.74625 C112.902133,32.7400259 111.846452,33.0772575 110.96875,33.709375 Z" id="Shape" fill="#1A1A1A"></path>
                <path d="M139.10875,28.7053125 L138.836563,33.709375 L137.685,33.709375 C133.008958,33.709375 130.677917,36.5010417 130.691875,42.084375 L130.691875,48.365625 L125.499375,48.365625 L125.499375,28.81 L130.691875,28.81 L130.691875,32.41125 C132.198995,29.9795858 134.866161,28.5110572 137.726875,28.5378125 C138.193355,28.5226664 138.659398,28.5791564 139.10875,28.7053125 Z" id="Path" fill="#1A1A1A"></path>
                <polygon id="Path" fill="#1A1A1A" points="153.702188 48.4703125 148.195625 48.4703125 140.009063 28.7890625 145.599375 28.7890625 150.959375 42.12625 156.298438 28.7890625 161.88875 28.7890625"></polygon>
                <path d="M167.793125,20.77 C168.365217,21.3184802 168.696507,22.0714113 168.714375,22.86375 C168.708394,23.6586817 168.37516,24.416032 167.793125,24.9575 C166.558599,26.1425212 164.632057,26.2145415 163.3125,25.125 C162.749952,24.573593 162.433012,23.8189743 162.433125,23.03125 C162.443193,22.2414491 162.767126,21.4881164 163.333438,20.9375 C163.921486,20.335016 164.73198,20.0017286 165.57375,20.01625 C166.385233,19.9554579 167.186504,20.2275877 167.793125,20.77 Z M162.956563,48.4703125 L162.956563,28.81 L168.149063,28.81 L168.149063,48.4703125 L162.956563,48.4703125 Z" id="Shape" fill="#1A1A1A"></path>
                <path d="M333.283125,18.09 C333.288191,18.8235511 333.100468,19.5455628 332.73875,20.18375 C331.576102,22.1376162 329.066776,22.8067697 327.085625,21.69125 C326.447054,21.3462619 325.923113,20.8223213 325.578125,20.18375 C324.8301,18.888133 324.8301,17.291867 325.578125,15.99625 C325.923113,15.3576787 326.447054,14.8337381 327.085625,14.48875 C328.381242,13.7407252 329.977508,13.7407252 331.273125,14.48875 C331.917258,14.8334246 332.448037,15.3569326 332.801563,15.99625 C333.163281,16.6344372 333.351004,17.3564489 333.345938,18.09 M332.550313,18.09 C332.560707,17.1997591 332.204914,16.344341 331.56625,15.7240625 C330.951699,15.0921144 330.102568,14.7433641 329.22125,14.7609375 C328.327337,14.7417493 327.464638,15.0898558 326.834375,15.7240625 C326.202721,16.3493275 325.84732,17.2012126 325.84732,18.09 C325.84732,18.9787874 326.202721,19.8306725 326.834375,20.4559375 C327.462499,21.0957503 328.324715,21.4512253 329.22125,21.44 C330.105213,21.4495914 330.953847,21.0934684 331.56625,20.4559375 C332.204914,19.835659 332.560707,18.9802409 332.550313,18.09 M327.336875,15.870625 L329.325938,15.870625 C329.760666,15.8364885 330.192798,15.9631478 330.540313,16.2265625 C330.785472,16.459796 330.915642,16.7890514 330.89625,17.126875 C330.896508,17.4085861 330.800471,17.6819234 330.624063,17.9015625 C330.375314,18.1436891 330.063226,18.31062 329.72375,18.383125 L330.079688,18.5715625 C330.21233,18.7062188 330.331539,18.8534768 330.435625,19.01125 C330.435625,19.01125 330.665938,19.471875 331.1475,20.309375 L329.828438,20.309375 C329.602627,19.7764436 329.329339,19.2649034 329.011875,18.7809375 C328.901615,18.6489453 328.743475,18.5661104 328.572187,18.550625 L328.446562,18.550625 L328.446562,20.309375 L327.336875,20.309375 L327.336875,15.870625 Z M328.446563,17.7759375 L328.907188,17.7759375 C329.149168,17.7915943 329.390177,17.7331678 329.598125,17.6084375 C329.716981,17.5031565 329.779085,17.3478948 329.765625,17.1896875 C329.769133,17.0453006 329.707649,16.906963 329.598125,16.8128125 C329.405977,16.6873489 329.177927,16.6284974 328.949063,16.6453125 L328.446563,16.6453125 L328.446563,17.7759375 Z" id="Shape" fill="#1E120C"></path>
                <path d="M203.198438,5.3809375 L198.215313,11.6621875 C198.215313,11.6621875 197.943125,12.018125 198.215313,12.018125 L204.056875,12.018125 C204.32191,12.0317004 204.580381,11.9328734 204.76875,11.7459375 L213.14375,5.4646875 C213.14375,5.4646875 213.415938,5.2134375 213.14375,5.2134375 L203.76375,5.2134375 C203.544274,5.19215444 203.329711,5.2875158 203.198438,5.4646875" id="Path" fill="#1E120C"></path>
                <path d="M217.75,26.506875 C217.166354,24.2434917 216.157369,22.1118332 214.776875,20.225625 C213.370741,18.301341 211.51655,16.7489955 209.375,15.703125 C207.062065,14.5282663 204.493797,13.9455502 201.900312,14.0071875 C199.500837,13.9790115 197.120977,14.442158 194.907188,15.368125 C190.754722,17.1365544 187.51359,20.5367132 185.945938,24.7690625 C185.102619,26.9956556 184.68363,29.3604573 184.710625,31.74125 C184.689026,34.1571147 185.085713,36.5584916 185.883125,38.8390625 C186.641038,40.9312092 187.816407,42.8474168 189.337813,44.47125 C190.83658,46.0827415 192.67445,47.3413604 194.71875,48.15625 C196.986942,49.0376315 199.404376,49.4713476 201.8375,49.4334375 C205.259497,49.5319798 208.635864,48.6296748 211.5525,46.8371875 C212.968857,45.9069022 214.185929,44.7040647 215.132812,43.29875 C216.273198,41.708932 217.156389,39.9496153 217.75,38.0853125 L217.980312,37.394375 C217.980312,37.394375 218.105937,37.0803125 217.729062,37.0803125 L209.019062,37.0803125 C208.579375,37.0803125 208.516562,37.3525 208.516562,37.3525 L208.516562,37.6246875 C208.383442,38.0624258 208.162604,38.468483 207.8675,38.818125 C207.452255,39.2877234 206.972969,39.6965265 206.44375,40.0325 C205.211115,40.8671485 203.743696,41.2853628 202.25625,41.2259375 C201.220159,41.2466135 200.187637,41.0981 199.199375,40.78625 C197.532095,40.2701779 196.229799,38.9600374 195.72375,37.2896875 C195.427725,36.4235009 195.244755,35.5227239 195.179375,34.6096875 L217.896562,34.6096875 C218.273438,34.6096875 218.294375,34.1909375 218.294375,34.1909375 L218.294375,33.8978125 C218.294375,33.3325 218.294375,32.7671875 218.294375,32.201875 C218.294761,30.2838584 218.069887,28.372433 217.624375,26.506875 M196.4775,24.413125 C197.047905,23.7435151 197.764146,23.2134965 198.57125,22.86375 C199.551154,22.4011386 200.629421,22.1854851 201.711875,22.235625 C202.578647,22.2138109 203.44271,22.3412956 204.26625,22.6125 C204.911766,22.8319413 205.493938,23.2056813 205.962187,23.70125 C206.866694,24.8173115 207.497662,26.1294375 207.804688,27.5328125 L195.242188,27.5328125 C195.242188,27.176875 195.409688,26.8 195.514375,26.4021875 C195.732262,25.6780497 196.087706,25.0027063 196.56125,24.413125" id="Shape" fill="#1E120C"></path>
                <path d="M250.517187,48.2609375 L238.331563,30.6734375 L249.365625,14.99125 C249.365625,14.99125 249.49125,14.7609375 249.135312,14.7609375 L237.954688,14.7609375 C237.769544,14.7422641 237.59021,14.831931 237.494063,14.99125 L232.40625,22.5078125 L227.38125,15.033125 C227.256213,14.8576689 227.052262,14.7556931 226.836875,14.7609375 L215.446875,14.7609375 C215.111875,14.7609375 215.300313,15.0121875 215.300313,15.0121875 L216.095938,16.121875 L226.313438,30.8828125 L214.379063,48.281875 C214.379063,48.281875 214.169688,48.6169911 214.546563,48.6169911 L225.727188,48.6169911 C225.991406,48.6217063 226.235237,48.4754074 226.355313,48.24 L232.40625,39.1740625 L238.373437,48.15625 C238.516015,48.3693842 238.746408,48.5076199 239.001562,48.533125 L250.349687,48.533125 C250.768437,48.533125 250.517187,48.1771875 250.517187,48.1771875" id="Path" fill="#1E120C"></path>
                <path d="M264.629063,14.781875 L251.773438,14.781875 C251.312813,14.781875 251.396563,15.0959375 251.396563,15.0959375 L253.34375,48.15625 C253.34375,48.15625 253.34375,48.575 253.720625,48.575 L262.828438,48.575 C263.22625,48.575 263.22625,48.1353125 263.22625,48.1353125 L265.06875,15.116875 C265.06875,15.116875 265.06875,14.74 264.73375,14.74" id="Path" fill="#1E120C"></path>
                <path d="M289.125938,22.3821875 C289.229627,22.3823476 289.328801,22.3397802 289.400113,22.2645067 C289.471425,22.1892332 289.508573,22.0879041 289.502813,21.984375 L289.502813,15.116875 C289.503571,15.0202724 289.462589,14.9280453 289.390385,14.8638641 C289.318181,14.7996829 289.221785,14.7697963 289.125938,14.781875 L283.033125,14.781875 L283.033125,5.5275 C283.033125,5.5275 283.033125,5.1296875 282.677188,5.1296875 L272.8575,5.1296875 C272.480625,5.1296875 272.501563,5.5275 272.501563,5.5275 L272.501563,14.781875 L267.539375,14.781875 C267.099688,14.781875 267.1625,15.0959375 267.1625,15.0959375 L267.1625,22.02625 C267.141937,22.1179228 267.166562,22.2138972 267.228721,22.284345 C267.290881,22.3547929 267.383043,22.3911763 267.476563,22.3821875 L272.501563,22.3821875 L272.501563,40.493125 C272.452516,41.9821362 272.761252,43.4611988 273.401875,44.80625 C273.986419,45.9097096 274.872216,46.8245487 275.95625,47.444375 C277.033605,48.060719 278.22168,48.4591155 279.452813,48.616875 C280.789705,48.8232053 282.141076,48.9212322 283.49375,48.91 C284.352188,48.91 285.273438,48.91 286.194688,48.91 C287.115938,48.91 287.974375,48.7634375 288.790938,48.65875 L289.167813,48.65875 C289.379697,48.6263717 289.527835,48.4319414 289.502813,48.2190625 L289.502813,40.2209375 C289.526656,40.1218395 289.488268,40.0181558 289.405638,39.958479 C289.323009,39.8988022 289.212514,39.8949588 289.125938,39.94875 L288.455938,40.0953125 L287.2625,40.2628125 L285.901563,40.2628125 C285.346338,40.2800243 284.791047,40.2308213 284.2475,40.11625 C283.977374,40.0605564 283.725462,39.9381994 283.514688,39.7603125 C283.340227,39.5579877 283.224387,39.3118262 283.179688,39.0484375 C283.076159,38.5032999 283.027064,37.949223 283.033125,37.394375 L283.033125,22.3821875 L289.125938,22.3821875 Z" id="Path" fill="#1E120C"></path>
                <path d="M323.819375,24.455 C323.058581,22.365694 321.875439,20.4555617 320.34375,18.84375 C318.767339,17.2674476 316.876915,16.0404549 314.795313,15.2425 C312.503824,14.3662386 310.06685,13.9328408 307.61375,13.9653125 C305.174114,13.9309925 302.750505,14.3645412 300.474063,15.2425 C298.37893,16.0380584 296.474344,17.2649825 294.88375,18.84375 C293.324605,20.4620422 292.119545,22.3872854 291.345313,24.496875 C290.48633,26.8215899 290.06055,29.2840152 290.089063,31.7621875 C290.055111,34.2476095 290.481021,36.7178849 291.345313,39.0484375 C292.124857,41.1492231 293.329445,43.0665847 294.88375,44.680625 C296.458005,46.2394026 298.340789,47.4518017 300.41125,48.24 C302.692312,49.0991134 305.113626,49.5251511 307.550938,49.49625 C310.001706,49.5230582 312.436363,49.0971706 314.7325,48.24 C316.811843,47.4571982 318.702534,46.244302 320.280938,44.680625 C321.835242,43.0665847 323.03983,41.1492231 323.819375,39.0484375 C324.666497,36.7138778 325.084986,34.2455052 325.054688,31.7621875 C325.079739,29.2861065 324.661371,26.8255329 323.819375,24.496875 M310.88,40.4303125 C309.85542,40.9668193 308.706095,41.2198154 307.550938,41.163125 C306.40192,41.2265004 305.257574,40.9730059 304.242812,40.4303125 C303.388017,39.9092191 302.670156,39.1913579 302.149062,38.3365625 C301.597992,37.403664 301.208648,36.3842925 300.9975,35.3215625 C300.758729,34.1363799 300.646434,32.9292008 300.6625,31.7203125 C300.649267,30.5046075 300.761528,29.2907821 300.9975,28.098125 C301.19706,27.0484356 301.57977,26.0420492 302.128125,25.125 C302.664429,24.2822865 303.379162,23.5675544 304.221875,23.03125 C305.234396,22.47903 306.377568,22.2113252 307.53,22.2565625 C308.689069,22.2116921 309.838885,22.4792594 310.859063,23.03125 C311.713858,23.5523434 312.431719,24.2702046 312.952813,25.125 C313.526003,26.039497 313.917028,27.0561641 314.104375,28.1190625 C314.347081,29.3110335 314.466356,30.5248353 314.460313,31.74125 C314.469491,32.9508824 314.350176,34.158069 314.104375,35.3425 C313.912174,36.4105955 313.521583,37.4332329 312.952813,38.3575 C312.444066,39.2219287 311.723491,39.942504 310.859063,40.45125" id="Shape" fill="#1E120C"></path>
                <path d="M264.4825,56.6778125 C264.4825,53.2087739 261.670289,50.3965625 258.20125,50.3965625 C254.732211,50.3965625 251.92,53.2087739 251.92,56.6778125 C251.92,60.1468511 254.732211,62.9590625 258.20125,62.9590625 C261.670289,62.9590625 264.4825,60.1468511 264.4825,56.6778125" id="Path" fill="#E2241C"></path>
                <path d="M72.025,36.0125 C72.025,55.9016546 55.9016546,72.025 36.0125,72.025 C16.1233454,72.025 0,55.9016546 0,36.0125 C0,16.1233454 16.1233454,0 36.0125,0 C45.5636088,0 54.7235291,3.79416321 61.477183,10.547817 C68.2308368,17.3014709 72.025,26.4613912 72.025,36.0125" id="Path" fill="#E2241C"></path>
                <path d="M36.0125,56.9920427 C24.4490381,56.9920427 15.075,47.6178369 15.075,36.054375 C15.075,34.4354903 16.3873653,33.123125 18.00625,33.123125 C19.6251347,33.123125 20.9375,34.4354903 20.9375,36.054375 C20.9375,44.4031945 27.7055555,51.17125 36.054375,51.17125 C44.4031945,51.17125 51.17125,44.4031945 51.17125,36.054375 C51.17125,34.4354903 52.4836153,33.123125 54.1025,33.123125 C55.7213847,33.123125 57.03375,34.4354903 57.03375,36.054375 C57.03375,41.6218864 54.8163929,46.9601529 50.8717178,50.8891122 C46.9270427,54.8180715 41.5799668,57.014145 36.0125,56.9920427 L36.0125,56.9920427 Z" id="Path" fill="#FFE504"></path>
            </g>
        </g>
    </g>
</svg>