<?xml version="1.0" encoding="UTF-8"?>
<svg width="145px" height="145px" viewBox="0 0 145 145" version="1.1" xmlns="http://www.w3.org/2000/svg" xmlns:xlink="http://www.w3.org/1999/xlink">
    <!-- Generator: Sketch 64 (93537) - https://sketch.com -->
    <title>img-07</title>
    <desc>Created with Sketch.</desc>
    <g id="Welcome" stroke="none" stroke-width="1" fill="none" fill-rule="evenodd">
        <g id="HOME---Servicios---Servi-Éxito---Desktop-HD" transform="translate(-1137.000000, -1892.000000)" fill-rule="nonzero">
            <g id="img-07" transform="translate(1137.000000, 1892.000000)">
                <path d="M145,72.5 C145,112.540644 112.540644,145 72.5,145 C32.4593556,145 0,112.540644 0,72.5 C0,32.4593556 32.4593556,0 72.5,0 C91.7281955,0 110.168854,7.63837093 123.765242,21.2347584 C137.361629,34.8311458 145,53.2718045 145,72.5" id="Path" fill="#E2241C"></path>
                <g id="Shape-2" transform="translate(40.781250, 20.390625)" fill="#FFEB00">
                    <path d="M38.216972,47.9490239 L38.216972,21.6237579 C41.8940374,22.5981054 45.1023024,24.3858442 47.3330492,26.8034977 C49.3075804,28.9422931 53.3374063,29.5344526 56.334015,28.1262522 C59.331552,26.7180519 60.1614678,23.8427001 58.1869366,21.7039048 C53.5184282,16.6460411 46.3248965,13.2123108 38.216972,12.0021593 L38.216972,4.63659576 C38.216972,2.07587016 35.3076252,0 31.71875,0 C28.1298748,0 25.220528,2.07587016 25.220528,4.63659576 L25.220528,11.9882495 C10.838106,14.1277073 0,23.2412674 0,34.1286566 C0,45.0160459 10.8390343,54.1309308 25.220528,56.2703885 L25.220528,82.5956545 C21.5434626,81.621307 18.3351976,79.8335682 16.1044508,77.4159147 C14.1299196,75.2771193 10.1000937,74.6842974 7.10348499,76.0931601 C4.105948,77.5013605 3.27603222,80.3767122 5.25056339,82.5155076 C9.91907176,87.5733712 17.1126035,91.0071016 25.220528,92.2172531 L25.220528,99.5821542 C25.220528,102.14288 28.1298748,104.21875 31.71875,104.21875 C35.3076252,104.21875 38.216972,102.14288 38.216972,99.5821542 L38.216972,92.2311628 C52.599394,90.0917051 63.4375,80.9781449 63.4375,70.0907557 C63.4375,59.2033665 52.599394,50.0884816 38.216972,47.9490239 Z M12.996444,34.1286566 C12.996444,28.3971619 18.09662,23.5128395 25.220528,21.6270697 L25.220528,46.6302436 C18.09662,44.7444738 12.996444,39.8601514 12.996444,34.1286566 L12.996444,34.1286566 Z M38.216972,82.5916803 L38.216972,57.5885064 C45.34088,59.4742762 50.441056,64.3585986 50.441056,70.0900934 C50.441056,75.8215881 45.3418083,80.7059105 38.216972,82.5916803 Z" id="Shape"></path>
                </g>
            </g>
        </g>
    </g>
</svg>