<?xml version="1.0" encoding="UTF-8"?>
<svg width="145px" height="145px" viewBox="0 0 145 145" version="1.1" xmlns="http://www.w3.org/2000/svg" xmlns:xlink="http://www.w3.org/1999/xlink">
    <!-- Generator: Sketch 64 (93537) - https://sketch.com -->
    <title>img-08</title>
    <desc>Created with Sketch.</desc>
    <g id="Welcome" stroke="none" stroke-width="1" fill="none" fill-rule="evenodd">
        <g id="HOME---Servicios---Servi-Éxito---Desktop-HD" transform="translate(-1137.000000, -2769.000000)" fill-rule="nonzero">
            <g id="img-08" transform="translate(1137.000000, 2769.000000)">
                <path d="M145,72.5 C145,112.540644 112.540644,145 72.5,145 C32.4593556,145 0,112.540644 0,72.5 C0,32.4593556 32.4593556,0 72.5,0 C91.7281955,0 110.168854,7.63837093 123.765242,21.2347584 C137.361629,34.8311458 145,53.2718045 145,72.5" id="Path" fill="#E2241C"></path>
                <path d="M72.5,20.390625 C43.7678832,20.390625 20.390625,43.7670561 20.390625,72.5 C20.390625,101.232944 43.7678832,124.609375 72.5,124.609375 C101.232944,124.609375 124.609375,101.232944 124.609375,72.5 C124.609375,43.7670561 101.232944,20.390625 72.5,20.390625 Z M74.9425236,35.2384883 L92.0162016,29.5097656 C97.8756114,32.1789236 103.098956,36.0011049 107.385159,40.69922 L107.352901,58.8655407 L92.2039608,62.5338752 L74.9425236,49.9920585 L74.9425236,35.2384883 Z M52.869654,29.5610479 L70.0574764,35.2484139 L70.0574764,49.9920585 L52.7960392,62.5338752 L37.7521453,58.8671949 L37.7182329,41.7240377 C37.7182329,41.4080729 37.6231126,41.1152679 37.4659573,40.8654737 C41.7513331,36.1218663 46.989566,32.2599826 52.869654,29.5610479 Z M31.3542721,95.6406982 C28.2963616,90.2254588 26.2723673,84.1551302 25.5635144,77.6910863 L36.2533805,63.5256076 L51.3096813,67.1955965 L57.8920052,87.4529092 L48.4659983,101.280091 L31.3542721,95.6406982 Z M81.5703398,118.869072 C78.6331907,119.443103 75.6042299,119.740045 72.5008271,119.740045 C69.0640898,119.740871 65.7142014,119.349637 62.4850744,118.648228 L52.3998425,104.227992 L61.8506634,90.4123909 L83.133621,90.4123909 L91.6977555,104.198216 L81.5703398,118.869072 Z M95.6539323,101.265202 L87.1055134,87.4595263 L93.6903187,67.1947693 L108.851665,63.5239534 L119.463781,77.4793403 C118.788841,83.8929291 116.822746,89.9243824 113.834314,95.3156349 L95.6539323,101.265202 Z" id="Shape" fill="#FFEB00"></path>
            </g>
        </g>
    </g>
</svg>