<?xml version="1.0" encoding="UTF-8"?>
<svg width="145px" height="145px" viewBox="0 0 145 145" version="1.1" xmlns="http://www.w3.org/2000/svg" xmlns:xlink="http://www.w3.org/1999/xlink">
    <!-- Generator: Sketch 64 (93537) - https://sketch.com -->
    <title>img-05</title>
    <desc>Created with Sketch.</desc>
    <g id="Welcome" stroke="none" stroke-width="1" fill="none" fill-rule="evenodd">
        <g id="HOME---Servicios---Servi-Éxito---Desktop-HD" transform="translate(-1137.000000, -917.000000)" fill-rule="nonzero">
            <g id="img-05" transform="translate(1137.000000, 917.000000)">
                <path d="M145,72.5 C145,112.540644 112.540644,145 72.5,145 C32.4593556,145 0,112.540644 0,72.5 C0,32.4593556 32.4593556,0 72.5,0 C91.7281955,0 110.168854,7.63837093 123.765242,21.2347584 C137.361629,34.8311458 145,53.2718045 145,72.5" id="Path" fill="#E2241C"></path>
                <path d="M100.369014,44.5716059 C100.369014,44.5716059 100.369014,44.3248363 100.369014,44.2014515 C100.389222,43.872722 100.389222,43.5431026 100.369014,43.2143731 C100.369014,43.2143731 100.369014,43.2143731 100.369014,42.9676035 C100.369014,42.7208339 100.369014,42.9676035 100.369014,42.9676035 C100.389816,42.6114487 100.389816,42.2544233 100.369014,41.8982685 C100.345132,41.7898361 100.345132,41.6776748 100.369014,41.5692424 L100.369014,41.5692424 L96.7937271,25.9816291 C96.0619724,22.756168 92.79464,20.7214483 89.495936,21.4369555 C86.197232,22.1524628 84.1163084,25.3472488 84.8480632,28.5727099 L85.6051827,31.9040996 C81.5267498,30.6245632 77.2697498,29.9724414 72.9865237,29.971071 L72.9865237,29.971071 C49.6339034,29.9924996 30.6500996,48.3897161 30.4195804,71.2227231 C30.4655885,74.4614451 33.1639513,77.0629371 36.4765368,77.0629371 L36.4765368,77.0629371 C39.8449317,77.0629371 42.5755553,74.392943 42.5755553,71.0993383 C42.6449584,54.7409838 56.2145178,41.5094709 72.9444615,41.4869858 L72.9444615,41.4869858 C75.7949059,41.4979322 78.6286192,41.9135515 81.3569009,42.7208339 L77.1506812,45.0240168 C74.212047,46.6367474 73.1668772,50.2734635 74.8162292,53.1468496 C76.4655812,56.0202358 80.1848789,57.042199 83.1235131,55.4294685 L97.2984735,47.6562259 L97.2984735,47.6562259 L98.1397174,47.0393019 L98.4341528,46.7925323 C98.7628332,46.4793792 99.0587346,46.1349371 99.3174589,45.7643256 L99.3174589,45.7643256 C99.7000348,45.3948899 100.051681,44.9960371 100.369014,44.5716059 L100.369014,44.5716059 Z" id="Path" fill="#FFE504"></path>
                <path d="M44.6469358,100.350951 L44.6469358,100.718363 C44.6064189,101.043767 44.6064189,101.372724 44.6469358,101.698128 C44.6469358,101.698128 44.6469358,101.698128 44.6469358,101.943069 C44.6469358,102.18801 44.6469358,101.943069 44.6469358,101.943069 C44.6048676,102.295695 44.6048676,102.651855 44.6469358,103.004481 C44.6674963,103.112429 44.6674963,103.223121 44.6469358,103.331069 C44.6469358,103.331069 44.6469358,103.331069 44.6469358,103.331069 L48.1373021,119.088954 C48.8805026,122.279244 52.1470899,124.280611 55.4334292,123.559132 C58.7197685,122.837653 60.7813899,119.666538 60.0381896,116.476248 L59.2812427,113.210365 C63.3689228,114.438292 67.6183577,115.084579 71.8970245,115.129071 L71.8970245,115.129071 C95.3885434,115.129348 114.464698,96.7019561 114.58042,73.8972993 C114.557838,70.6305395 111.847669,67.9814361 108.482792,67.9370629 L108.482792,67.9370629 C105.124706,67.9593159 102.408087,70.5965363 102.385164,73.8564758 C102.292626,90.093584 88.7073426,103.208847 71.9811297,103.208599 L71.9811297,103.208599 C69.1343133,103.198697 66.3030783,102.800166 63.5706085,102.024716 L67.7758691,99.738598 C69.6839107,98.7030741 70.877936,96.7580333 70.9081671,94.6361538 C70.9383983,92.5142743 69.8002425,90.53792 67.9224321,89.4515646 C66.0446216,88.3652091 63.7124406,88.3338956 61.804399,89.3694197 L47.6326708,97.0850682 L47.6326708,97.0850682 L46.7916187,97.6565977 L46.4972504,97.9015389 C46.1586282,98.2079897 45.8744552,98.5666174 45.6561983,98.9629508 L45.6561983,98.9629508 C45.2051709,99.3361091 44.8580982,99.813425 44.6469358,100.350951 Z" id="Path" fill="#FFE504"></path>
            </g>
        </g>
    </g>
</svg>