<?xml version="1.0" encoding="UTF-8"?>
<svg width="143px" height="143px" viewBox="0 0 143 143" version="1.1" xmlns="http://www.w3.org/2000/svg" xmlns:xlink="http://www.w3.org/1999/xlink">
    <!-- Generator: Sketch 64 (93537) - https://sketch.com -->
    <title>img-06</title>
    <desc>Created with Sketch.</desc>
    <g id="Welcome" stroke="none" stroke-width="1" fill="none" fill-rule="evenodd">
        <g id="HOME---Servicios---Servi-Éxito---Desktop-HD" transform="translate(-1137.000000, -1273.000000)" fill-rule="nonzero">
            <g id="img-06" transform="translate(1137.000000, 1273.000000)">
                <path d="M142.769231,71.3846154 C142.769231,110.80925 110.80925,142.769231 71.3846154,142.769231 C31.9599809,142.769231 0,110.80925 0,71.3846154 C0,31.9599809 31.9599809,0 71.3846154,0 C90.3169925,0 108.473949,7.52085753 121.861161,20.9080698 C135.248373,34.295282 142.769231,52.4522383 142.769231,71.3846154" id="Path" fill="#E2241C"></path>
                <path d="M106.751155,47.1766081 L106.751155,47.1766081 C105.108512,45.5371923 102.874922,44.6153846 100.545173,44.6153846 C98.2154234,44.6153846 95.9818338,45.5371923 94.3391902,47.1766081 L61.6473362,79.5755997 L48.5621797,66.549201 C45.1308445,63.1573319 39.5815498,63.1573319 36.1502146,66.549201 L36.1502146,66.549201 C34.4324559,68.1866872 33.4615385,70.4482301 33.4615385,72.8118927 C33.4615385,75.1755552 34.4324559,77.4370982 36.1502146,79.0745843 L54.7891995,97.5704004 C58.5958722,101.322687 64.7408747,101.322687 68.5475473,97.5704004 L74.1855247,91.9757292 L74.1855247,91.9757292 L106.709081,59.4514838 C108.364236,57.8341852 109.299741,55.6277853 109.307692,53.3227457 C109.315543,51.0177061 108.395185,48.8050421 106.751155,47.1766081 Z" id="Path" fill="#FFE504"></path>
            </g>
        </g>
    </g>
</svg>