<?xml version="1.0" encoding="UTF-8"?>
<svg width="33px" height="33px" viewBox="0 0 33 33" version="1.1" xmlns="http://www.w3.org/2000/svg" xmlns:xlink="http://www.w3.org/1999/xlink">
    <!-- Generator: Sketch 64 (93537) - https://sketch.com -->
    <title>bullet-02</title>
    <desc>Created with Sketch.</desc>
    <g id="Welcome" stroke="none" stroke-width="1" fill="none" fill-rule="evenodd">
        <g id="HOME---Servicios---Ventas-Empresariales---Desktop-HD-Copy" transform="translate(-141.000000, -2435.000000)">
            <g id="bullet-02" transform="translate(141.000000, 2435.000000)">
                <circle id="Oval-Copy-7" fill="#FFFFFF" cx="16.5" cy="16.5" r="16.5"></circle>
                <path d="M15.5058533,23.3158605 C14.5537516,24.2280465 13.0088838,24.2280465 12.0572416,23.3158605 L6.71407628,18.1967011 C5.76197457,17.2849554 5.76197457,15.8048544 6.71407628,14.8931087 C7.66571847,13.9809228 9.2105862,13.9809228 10.1626879,14.8931087 L13.3461631,17.9426802 C13.5864861,18.1724877 13.9766088,18.1724877 14.2173913,17.9426802 L22.8373121,9.68413947 C23.7889543,8.77195351 25.333822,8.77195351 26.2859237,9.68413947 C26.7431347,10.1221824 27,10.7165121 27,11.3359357 C27,11.9553592 26.7431347,12.5496889 26.2859237,12.9877319 L15.5058533,23.3158605 Z" id="Path" fill="#E2241C" fill-rule="nonzero"></path>
            </g>
        </g>
    </g>
</svg>