<?xml version="1.0" encoding="UTF-8"?>
<svg width="409px" height="74px" viewBox="0 0 409 74" version="1.1" xmlns="http://www.w3.org/2000/svg" xmlns:xlink="http://www.w3.org/1999/xlink">
    <!-- Generator: Sketch 64 (93537) - https://sketch.com -->
    <title>head-cambios</title>
    <desc>Created with Sketch.</desc>
    <g id="Welcome" stroke="none" stroke-width="1" fill="none" fill-rule="evenodd">
        <g id="HOME---Servicios---Ventas-Empresariales---Desktop-HD-Copy" transform="translate(-888.000000, -247.000000)" fill-rule="nonzero">
            <g id="head-cambios" transform="translate(886.000000, 247.000000)">
                <path d="M44.1825,53.5714286 L46.5371875,55.9285714 C47.3392477,56.7372655 47.5781945,57.9487919 47.1433432,59.0019485 C46.7084919,60.0551051 45.6847784,60.7441876 44.5464062,60.75 L43.9042187,60.75 C43.1519471,60.7575413 42.427729,60.4644671 41.8920312,59.9357143 L34.5496875,52.5857143 C33.4533239,51.4754451 33.4533239,49.6888406 34.5496875,48.5785714 L41.8920312,41.2285714 C42.4255577,40.6939748 43.1493356,40.3933708 43.9042187,40.3928571 L44.5464062,40.3928571 C45.6841207,40.4105273 46.7020658,41.1046239 47.1350683,42.1579638 C47.5680708,43.2113037 47.3329649,44.421574 46.5371875,45.2357143 L44.1825,47.5714286 L74.15125,47.5714286 C79.6001655,29.3359654 70.2732642,9.94779655 52.6338454,2.84241739 C34.9944266,-4.26296177 14.8521119,3.2546372 6.165,20.1857143 L26.0942187,20.1857143 L23.7609375,17.8285714 C22.9450098,17.0358637 22.6880156,15.8284118 23.1102943,14.7716142 C23.532573,13.7148165 24.5505303,13.0178771 25.6875,13.0071429 L26.3296875,13.0071429 C27.0780983,13.0086181 27.7948677,13.3095123 28.3204687,13.8428571 L35.6628125,21.1928571 C36.1989291,21.7170393 36.501188,22.4355225 36.501188,23.1857143 C36.501188,23.9359061 36.1989291,24.6543893 35.6628125,25.1785714 L28.3204687,32.5285714 C27.7948677,33.0619163 27.0780983,33.3628104 26.3296875,33.3642857 L25.6875,33.3642857 C24.5396992,33.3671491 23.5042154,32.6746725 23.0674254,31.6121189 C22.6306354,30.5495653 22.8793394,29.3280888 23.6967187,28.5214286 L26.03,26.1857143 L3.7246875,26.1857143 C-1.92595778,44.4970077 7.39391329,64.0864584 25.1573395,71.2350369 C42.9207656,78.3836153 63.1922674,70.7026922 71.7751562,53.5714286 L44.1825,53.5714286 Z" id="Path" fill="#E2241C"></path>
                <path d="M278.045781,5.50714286 L272.9725,11.9357143 C272.9725,11.9357143 272.672812,12.3 272.9725,12.3 L278.944844,12.3 C279.214575,12.3064006 279.475998,12.2063405 279.672656,12.0214286 L288.235156,5.59285714 C288.235156,5.59285714 288.513437,5.33571429 288.106719,5.33571429 L278.580937,5.33571429 C278.351212,5.31846612 278.127517,5.41443574 277.981562,5.59285714" id="Path" fill="#1E120C"></path>
                <path d="M292.8375,27.1285714 C292.233293,24.8108981 291.194491,22.6293205 289.776406,20.7 C288.383313,18.7633916 286.53891,17.1965882 284.403437,16.1357143 C282.03872,14.9333003 279.412954,14.336917 276.761406,14.4 C274.308211,14.3711632 271.87507,14.8451724 269.611719,15.7928571 C265.366287,17.6027635 262.052593,21.0826703 260.449844,25.4142857 C259.587645,27.6931017 259.159276,30.1133679 259.186875,32.55 C259.164792,35.0225268 259.570361,37.4802259 260.385625,39.8142857 C261.160506,41.9555019 262.362189,43.9166526 263.917656,45.5785714 C265.467461,47.211491 267.36149,48.4779336 269.461875,49.2857143 C271.787538,50.1904977 274.266629,50.6344339 276.761406,50.5928571 C280.259724,50.6912189 283.710983,49.7679381 286.693906,47.9357143 C288.141973,46.9836099 289.386293,45.7525609 290.354375,44.3142857 C291.445625,42.6911303 292.289699,40.9145598 292.858906,39.0428571 L293.094375,38.3357143 C293.094375,38.3357143 293.222812,38.0142857 292.8375,38.0142857 L284.018125,38.0142857 C283.547187,38.0142857 283.504375,38.2928571 283.504375,38.2928571 L283.504375,38.5714286 C283.368274,39.0194337 283.142492,39.4350146 282.840781,39.7928571 C282.41129,40.2683971 281.922,40.6861673 281.385156,41.0357143 C280.124925,41.8899388 278.624654,42.3179619 277.103906,42.2571429 C276.04462,42.2783038 274.988981,42.126307 273.978594,41.8071429 C272.273986,41.2789667 270.942535,39.938098 270.425156,38.2285714 C270.122504,37.3420692 269.935437,36.4201652 269.868594,35.4857143 L293.051562,35.4857143 C293.436875,35.4857143 293.458282,35.0571429 293.458282,35.0571429 L293.458282,34.7571429 C293.458282,34.1785714 293.458282,33.6 293.458282,33.0214286 C293.458676,31.0584265 293.228768,29.1021702 292.773281,27.1928571 M271.152969,25.05 C271.736144,24.3646849 272.46842,23.8222352 273.293594,23.4642857 C274.293747,22.9857324 275.397445,22.7647626 276.504531,22.8214286 C277.390709,22.7991028 278.274116,22.9295776 279.116094,23.2071429 C279.776062,23.431731 280.371267,23.8142367 280.85,24.3214286 C281.774757,25.4636664 282.419851,26.8065672 282.73375,28.2428571 L269.89,28.2428571 C269.89,27.8785714 270.06125,27.4928571 270.168281,27.0857143 C270.391046,26.3445924 270.754448,25.6534094 271.238594,25.05" id="Shape" fill="#1E120C"></path>
                <path d="M326.445312,49.3928571 L313.986875,31.3928571 L325.246562,15.3428571 C325.246562,15.3428571 325.375,15.1071429 325.011094,15.1071429 L313.601562,15.1071429 C313.40588,15.0847444 313.214629,15.1763074 313.109219,15.3428571 L308.014531,23.0357143 L302.855625,15.3857143 C302.740312,15.2032227 302.535933,15.096835 302.320469,15.1071429 L290.589844,15.1071429 C290.247344,15.1071429 290.44,15.3642857 290.44,15.3642857 L291.232031,16.5 L301.678281,31.6071429 L289.498125,49.4142857 C289.498125,49.4142857 289.284062,49.7571429 289.669375,49.7571429 L301.100312,49.7571429 C301.422041,49.7850042 301.721683,49.5909163 301.828125,49.2857143 L307.971719,40.0071429 L314.029687,49.2857143 C314.175457,49.5038474 314.411008,49.6453252 314.671875,49.6714286 L326.274062,49.6714286 C326.702187,49.6714286 326.445312,49.3071429 326.445312,49.3071429" id="Path" fill="#1E120C"></path>
                <path d="M340.873125,15.1285714 L327.708281,15.1285714 C327.25875,15.1285714 327.344375,15.45 327.344375,15.45 L329.228125,49.2857143 C329.228125,49.2857143 329.228125,49.7142857 329.613437,49.7142857 L338.925156,49.7142857 C339.331875,49.7142857 339.331875,49.2642857 339.331875,49.2642857 L341.215625,15.4714286 C341.215625,15.4714286 341.215625,15.0857143 340.873125,15.0857143" id="Path" fill="#1E120C"></path>
                <path d="M365.918437,22.9071429 C366.022849,22.907869 366.122541,22.8636643 366.192164,22.7857698 C366.261786,22.7078753 366.29463,22.6037964 366.282344,22.5 L366.282344,15.4714286 C366.289719,15.3745494 366.252923,15.2795294 366.182245,15.2129394 C366.111566,15.1463493 366.014592,15.1153358 365.918437,15.1285714 L359.625,15.1285714 L359.625,5.65714286 C359.625,5.65714286 359.625,5.25 359.261094,5.25 L349.221562,5.25 C348.83625,5.25 348.857656,5.65714286 348.857656,5.65714286 L348.857656,15.1285714 L343.784375,15.1285714 C343.334844,15.1285714 343.399062,15.45 343.399062,15.45 L343.399062,22.5428571 C343.378039,22.63668 343.403215,22.7349054 343.466767,22.8070056 C343.530318,22.8791057 343.624543,22.9163424 343.720156,22.9071429 L348.921875,22.9071429 L348.921875,41.4428571 C348.871731,42.9667918 349.187379,44.4805446 349.842344,45.8571429 C350.437942,46.9808711 351.334965,47.9159359 352.4325,48.5571429 C353.541624,49.1880408 354.763306,49.5956929 356.02875,49.7571429 C357.395488,49.9690599 358.777175,50.0693904 360.160156,50.0571429 C361.037812,50.0571429 361.979687,50.0571429 362.921562,50.0571429 C363.863437,50.0571429 364.741094,49.9071429 365.575937,49.8 L365.939844,49.8 C366.156472,49.7668623 366.307926,49.5678718 366.282344,49.35 L366.282344,41.1642857 C366.282344,40.7357143 365.918437,40.8857143 365.918437,40.8857143 L365.233437,41.0357143 L364.013281,41.2071429 L362.621875,41.2071429 C362.054221,41.2247584 361.486497,41.1744013 360.930781,41.0571429 C360.654608,41.000143 360.397056,40.8749162 360.181562,40.6928571 C360.003197,40.485787 359.884762,40.233852 359.839062,39.9642857 C359.721926,39.4079903 359.671622,38.8396749 359.689219,38.2714286 L359.689219,22.9071429 L365.918437,22.9071429 Z" id="Path" fill="#1E120C"></path>
                <path d="M401.388594,25.0285714 C400.583554,22.8888443 399.352794,20.9350724 397.770937,19.2857143 C396.155643,17.6768875 394.223892,16.4217643 392.098281,15.6 C387.365571,13.857093 382.16771,13.857093 377.435,15.6 C375.319736,16.4173897 373.401124,17.6734556 371.805156,19.2857143 C370.204035,20.9364239 368.971,22.9084147 368.1875,25.0714286 C367.309286,27.4506677 366.873974,29.9708472 366.903125,32.5071429 C366.868414,35.0508583 367.303859,37.579072 368.1875,39.9642857 C368.984497,42.1143434 370.216053,44.0766752 371.805156,45.7285714 C373.403162,47.3279196 375.32205,48.5695589 377.435,49.3714286 C382.172902,51.0849043 387.360379,51.0849043 392.098281,49.3714286 C394.22131,48.5645615 396.153211,47.3239369 397.770937,45.7285714 C399.352883,44.071083 400.583458,42.1103158 401.388594,39.9642857 C402.254681,37.5749709 402.682539,35.0487047 402.651562,32.5071429 C402.677175,29.9729875 402.24944,27.4547032 401.388594,25.0714286 M388.159531,41.3785714 C387.112013,41.9276615 385.936957,42.1865914 384.755937,42.1285714 C383.581196,42.1934332 382.41123,41.9339932 381.37375,41.3785714 C380.499817,40.8452563 379.765885,40.1105582 379.233125,39.2357143 C378.671725,38.2777129 378.267029,37.2359801 378.034375,36.15 C377.800823,34.9354905 377.686114,33.70108 377.691875,32.4642857 C377.689095,31.2205285 377.803772,29.9792929 378.034375,28.7571429 C378.259213,27.675571 378.664467,26.6396457 379.233125,25.6928571 C379.781436,24.8303786 380.51217,24.098883 381.37375,23.55 C382.40894,22.9848281 383.577705,22.7108445 384.755937,22.7571429 C385.940956,22.7112201 387.116514,22.9850629 388.159531,23.55 C389.033464,24.0833152 389.767397,24.8180132 390.300156,25.6928571 C390.879638,26.6320625 391.278922,27.6712835 391.4775,28.7571429 C391.72564,29.9770706 391.847585,31.2193411 391.841406,32.4642857 C391.85079,33.702289 391.728804,34.9377892 391.4775,36.15 C391.271243,37.2404057 390.872565,38.285304 390.300156,39.2357143 C389.78002,40.1204175 389.043313,40.8578932 388.159531,41.3785714" id="Shape" fill="#1E120C"></path>
                <path d="M340.723281,58.0071429 C340.723281,54.4567409 337.84811,51.5785714 334.301406,51.5785714 C330.754703,51.5785714 327.879531,54.4567409 327.879531,58.0071429 C327.879531,61.5575448 330.754703,64.4357143 334.301406,64.4357143 C337.84811,64.4357143 340.723281,61.5575448 340.723281,58.0071429" id="Path" fill="#E2241C"></path>
                <path d="M411,18.5142857 C411.00518,19.2650416 410.813254,20.0039875 410.443437,20.6571429 C410.076322,21.3071268 409.53509,21.8415016 408.880781,22.2 C408.237307,22.594076 407.494322,22.7948912 406.740156,22.7785714 C405.985398,22.7998369 405.241031,22.5986482 404.599531,22.2 C403.942002,21.8532179 403.404702,21.3153581 403.058281,20.6571429 C402.29351,19.3311382 402.29351,17.6974332 403.058281,16.3714286 C403.404702,15.7132133 403.942002,15.1753535 404.599531,14.8285714 C405.252006,14.4583695 405.990182,14.2662436 406.740156,14.2714286 C407.49013,14.2662436 408.228306,14.4583695 408.880781,14.8285714 C409.53509,15.1870699 410.076322,15.7214446 410.443437,16.3714286 C410.813254,17.0245839 411.00518,17.7635298 411,18.5142857 M410.186562,18.5142857 C410.19719,17.6031649 409.833431,16.7276838 409.180469,16.0928571 C408.55216,15.4460872 407.684018,15.0891573 406.782969,15.1071429 C405.869042,15.0875046 404.987029,15.4437757 404.342656,16.0928571 C403.696861,16.7327872 403.333503,17.6046525 403.333503,18.5142857 C403.333503,19.4239189 403.696861,20.2957842 404.342656,20.9357143 C404.984843,21.5905334 405.866362,21.9543457 406.782969,21.9428571 C407.686722,21.9526735 408.554355,21.5881979 409.180469,20.9357143 C409.833431,20.3008877 410.19719,19.4254065 410.186562,18.5142857 M404.856406,16.2428571 L406.868594,16.2428571 C407.31962,16.2085573 407.767917,16.3378623 408.131562,16.6071429 C408.38221,16.8458466 408.515295,17.1828245 408.495469,17.5285714 C408.495733,17.8168898 408.397545,18.096638 408.217187,18.3214286 C407.957716,18.5738081 407.630428,18.7450686 407.275312,18.8142857 C407.411924,18.8607072 407.54156,18.9255927 407.660625,19.0071429 C407.796237,19.1449575 407.918115,19.2956692 408.024531,19.4571429 C408.024531,19.4571429 408.26,19.9285714 408.752344,20.7857143 L407.40375,20.7857143 C407.228421,20.2631201 406.998832,19.7603711 406.71875,19.2857143 C406.617867,19.1476523 406.461125,19.0613546 406.290625,19.05 L406.140781,19.05 L406.140781,20.7857143 L405.027656,20.7857143 L404.856406,16.2428571 Z M405.969531,18.1928571 L406.461875,18.1928571 C406.702874,18.2132481 406.943815,18.1529501 407.146875,18.0214286 C407.273604,17.9158988 407.344678,17.7577927 407.339531,17.5928571 C407.334863,17.4422405 407.264442,17.3012511 407.146875,17.2071429 C406.959908,17.0755439 406.732288,17.0147819 406.504687,17.0357143 L405.969531,17.0357143 L405.969531,18.1928571 Z" id="Shape" fill="#1E120C"></path>
                <path d="M102.942656,40.7142857 L107.844687,41.9785714 C107.33039,44.1856311 106.028718,46.1287449 104.184219,47.4428571 C99.8706626,50.4805527 94.0211527,50.0782589 90.163125,46.4785714 C88.0897135,44.4769717 86.9616672,41.6889601 87.0592187,38.8071429 C86.9672858,35.9177999 88.1121805,33.1266454 90.2059375,31.1357143 C92.2519257,29.1718733 94.9925677,28.1006754 97.8265625,28.1571429 C100.1015,28.1663746 102.311242,28.9187712 104.12,30.3 C105.932193,31.6344964 107.249951,33.5340466 107.866094,35.7 L102.75,37.0928571 C102.39847,34.6793163 100.25859,32.937686 97.8265625,33.0857143 C96.3141998,33.0151052 94.8431982,33.5916535 93.7807812,34.6714286 C92.6932807,35.824078 92.1280628,37.3742348 92.218125,38.9571429 C92.1320309,40.4931283 92.6817678,41.9967926 93.7379687,43.1142857 C94.7981893,44.1996108 96.2686019,44.7837163 97.78375,44.7214286 C100.253412,44.8362399 102.440333,43.1375648 102.942656,40.7142857 L102.942656,40.7142857 Z" id="Path" fill="#1A1A1A"></path>
                <path d="M130.449687,49.0071429 L125.140937,49.0071429 L125.140937,47.4214286 C123.248658,48.8930445 120.899632,49.651585 118.505,49.5642857 C115.876029,49.5652252 113.367437,48.4612266 111.590781,46.5214286 C109.619805,44.482182 108.561281,41.7286956 108.658125,38.8928571 C108.588227,36.0494307 109.668981,33.2983621 111.655,31.2642857 C113.435436,29.3324096 115.943522,28.2364068 118.569219,28.2428571 C120.977908,28.1803289 123.330217,28.9779095 125.205156,30.4928571 L125.205156,28.8857143 L130.578125,28.8857143 L130.449687,49.0071429 Z M123.428437,43.2857143 C124.587555,42.1680437 125.217861,40.6101108 125.162344,39 C125.202448,37.3968465 124.583356,35.8475034 123.449844,34.7142857 C122.407813,33.6315195 120.970203,33.0202848 119.468281,33.0214286 C117.951302,32.9728032 116.483552,33.5636248 115.4225,34.65 C114.317838,35.837871 113.738947,37.4218231 113.817031,39.0428571 C113.754945,40.625421 114.324954,42.1675903 115.401094,43.3285714 C116.448778,44.4239973 117.911177,45.023583 119.425469,44.9785714 C120.933323,44.9781385 122.376984,44.3676138 123.428437,43.2857143 L123.428437,43.2857143 Z" id="Shape" fill="#1A1A1A"></path>
                <path d="M165.277656,30.7071429 C166.816585,32.2545926 167.639257,34.3755693 167.546719,36.5571429 L167.546719,49.1357143 L162.237969,49.1357143 L162.237969,37.65 C162.307926,36.4924902 161.906324,35.356007 161.124844,34.5 C160.427904,33.731916 159.442751,33.2892995 158.40625,33.2785714 C157.08814,33.2373579 155.824609,33.8065398 154.98125,34.8214286 C154.054947,36.1713936 153.610025,37.7944081 153.718281,39.4285714 L153.718281,49.0928571 L148.323906,49.0928571 L148.323906,37.5857143 C148.393864,36.4282044 147.992261,35.2917213 147.210781,34.4357143 C146.496635,33.644011 145.471728,33.205426 144.406562,33.2357143 C143.09698,33.1505394 141.830301,33.7203368 141.024375,34.7571429 C140.10848,36.1183881 139.678543,37.7493233 139.804219,39.3857143 L139.804219,49.05 L134.474062,49.05 L134.474062,28.95 L139.782812,28.95 L139.782812,30.6 C141.405766,29.0982947 143.570477,28.3243774 145.776562,28.4571429 C148.407658,28.3376343 150.909171,29.6059553 152.369687,31.8 C154.148266,29.589053 156.880373,28.3690873 159.712031,28.5214286 C161.791175,28.4374627 163.81017,29.2303561 165.277656,30.7071429 Z" id="Path" fill="#1A1A1A"></path>
                <path d="M189.959062,31.5428571 C191.935484,33.5873291 192.99444,36.3496749 192.891719,39.1928571 C192.981089,42.0188007 191.914076,44.7587758 189.937656,46.7785714 C188.154718,48.7169635 185.634062,49.8072714 183.002031,49.7785714 C180.607145,49.8677123 178.257505,49.1089738 176.366094,47.6357143 L176.366094,49.2 L171.057344,49.2 L171.25,20.1428571 L176.55875,20.1428571 L176.55875,30.6428571 C178.446641,29.1629492 180.798777,28.4034046 183.194687,28.5 C185.774233,28.5277897 188.225514,29.6304632 189.959062,31.5428571 Z M186.234375,43.5428571 C187.316253,42.3840329 187.893785,40.8423435 187.839844,39.2571429 C187.941592,37.606954 187.361046,35.9874803 186.234375,34.7785714 C185.18863,33.6649571 183.714544,33.0559698 182.188594,33.1071429 C180.691289,33.1076986 179.256865,33.7098585 178.207031,34.7785714 C177.061338,35.9052792 176.433531,37.4570363 176.473125,39.0642857 C176.406562,40.6720851 177.029752,42.2316849 178.185625,43.35 C180.411153,45.5475382 183.987441,45.5475382 186.212969,43.35 L186.234375,43.5428571 Z" id="Shape" fill="#1A1A1A"></path>
                <path d="M200.597969,20.8928571 C201.195277,21.4879546 201.527197,22.2993019 201.518437,23.1428571 C201.525631,23.9548039 201.191614,24.7323978 200.597969,25.2857143 C199.971639,25.8697372 199.141798,26.1850977 198.286094,26.1642857 C197.425301,26.1913106 196.590612,25.8663708 195.974219,25.2642857 C195.394933,24.7027718 195.070125,23.9286117 195.075099,23.1214286 C195.102454,22.3125401 195.439729,21.5452055 196.017031,20.9785714 C197.285312,19.7202379 199.329688,19.7202379 200.597969,20.9785714 L200.597969,20.8928571 Z M195.5675,49.2857143 L195.5675,29.1857143 L200.87625,29.1857143 L200.87625,49.2857143 L195.5675,49.2857143 Z" id="Shape" fill="#1A1A1A"></path>
                <path d="M222.239687,31.6928571 C224.331665,33.6492972 225.478605,36.4141969 225.386406,39.2785714 C225.46201,42.1485596 224.299963,44.9122737 222.196875,46.8642857 C220.128137,48.8284603 217.362012,49.8851575 214.512031,49.8 C211.638802,49.8625743 208.855977,48.7929166 206.762969,46.8214286 C204.653293,44.8683387 203.503456,42.0886259 203.61625,39.2142857 C203.529336,36.3421784 204.693273,33.5739682 206.805781,31.6285714 C208.913356,29.6713911 211.702436,28.6176658 214.57625,28.6928571 C217.428015,28.6306664 220.186606,29.7105698 222.239687,31.6928571 Z M218.472187,43.5857143 C219.636894,42.4702478 220.274747,40.9128855 220.2275,39.3 C220.267604,37.6968465 219.648512,36.1475034 218.515,35.0142857 C217.479714,33.9500658 216.060164,33.3476727 214.57625,33.3428076 C213.003858,33.3363625 211.496189,33.9691075 210.398544,35.0961744 C209.300899,36.2232412 208.707319,37.7480701 208.75375,39.3214286 C208.701739,40.8929894 209.286249,42.4189174 210.374572,43.5527595 C211.462894,44.6866017 212.962689,45.3321574 214.533437,45.3428571 C216.02997,45.3156341 217.451376,44.6815212 218.472187,43.5857143 L218.472187,43.5857143 Z" id="Shape" fill="#1A1A1A"></path>
                <path d="M231.444375,42.8571429 C231.679844,44.7 233.049844,45.6214286 235.575781,45.6214286 C236.376308,45.6539129 237.169877,45.4608818 237.86625,45.0642857 C238.394095,44.7695163 238.721589,44.2121965 238.7225,43.6071429 C238.7225,42.7285714 237.994687,42.1285714 236.581875,41.7857143 L232.471875,40.9285714 C230.859887,40.6680485 229.366019,39.9203357 228.190625,38.7857143 C227.23629,37.8077355 226.712184,36.4883871 226.735,35.1214286 C226.663341,33.2751169 227.454667,31.5006988 228.875625,30.3214286 C230.594321,29.0215205 232.718842,28.375904 234.869375,28.5 C236.944851,28.4248769 238.990731,29.0100234 240.713281,30.1714286 C242.205395,31.1565957 243.239083,32.7010222 243.581719,34.4571429 L238.508437,35.4428571 C238.410903,34.6374156 237.984733,33.9082934 237.331094,33.4285714 C236.561729,32.8892749 235.636552,32.6182091 234.698125,32.6571429 C233.937595,32.5775344 233.174654,32.7837433 232.5575,33.2357143 C232.143415,33.5804741 231.900918,34.0894667 231.893906,34.6285714 C231.893906,35.4857143 232.493281,36.0428571 233.713437,36.3214286 L238.487031,37.3928571 C239.98987,37.6644895 241.364306,38.4163307 242.404375,39.5357143 C243.294335,40.5207049 243.776496,41.807809 243.752969,43.1357143 C243.848552,45.1037407 242.937048,46.9851734 241.334062,48.1285714 C239.429399,49.3677007 237.180301,49.9680855 234.912187,49.8428571 C232.782952,49.9064217 230.675808,49.3957391 228.811406,48.3642857 C227.164391,47.4450454 226.081357,45.7666012 225.921562,43.8857143 L231.444375,42.8571429 Z" id="Path" fill="#1A1A1A"></path>
            </g>
        </g>
    </g>
</svg>