<?xml version="1.0" encoding="UTF-8"?>
<svg width="64px" height="69px" viewBox="0 0 64 69" version="1.1" xmlns="http://www.w3.org/2000/svg" xmlns:xlink="http://www.w3.org/1999/xlink">
    <!-- Generator: Sketch 64 (93537) - https://sketch.com -->
    <title>img-06</title>
    <desc>Created with Sketch.</desc>
    <g id="Welcome" stroke="none" stroke-width="1" fill="none" fill-rule="evenodd">
        <g id="HOME---Servicios---Ventas-Empresariales---Desktop-HD-Copy" transform="translate(-450.000000, -1932.000000)" fill="#E2241C" fill-rule="nonzero">
            <g id="img-06" transform="translate(450.000000, 1932.000000)">
                <path d="M0,33.3499797 C0,33.4008428 0.00331387061,33.4516512 0.0100002747,33.5020673 L4.31704833,66.0059733 C4.54850762,67.7175783 5.99885371,68.9953237 7.71551483,69 L56.000625,69 C57.8933127,68.997861 59.427109,67.4544948 59.4292347,65.549998 L59.4292347,61.026183 L63.9907142,26.6020634 C63.9907142,26.5970321 63.9907142,26.5921446 63.9918571,26.5876884 C63.9945714,26.5644008 63.996,26.5408258 63.9974285,26.5171071 C63.9984286,26.4998571 64,26.4827508 64,26.4655008 C64,26.4604695 64,26.455582 64,26.4511258 L64,21.8499732 C64,21.2148453 63.4883197,20.6999725 62.8571301,20.6999725 L40.0004465,20.6999725 C39.3692569,20.6999725 38.8575766,21.2148453 38.8575766,21.8499732 L38.8575766,26.4499758 C38.8575766,26.4551508 38.8575766,26.4600383 38.8575766,26.4643508 C38.8575766,26.4816008 38.859148,26.4987071 38.8601481,26.5159571 C38.8615766,26.5396758 38.8630052,26.5632508 38.8657195,26.5865384 C38.8657195,26.5914259 38.8657195,26.5963134 38.8668624,26.6009134 L40.9738859,42.5018287 C38.676146,42.3261661 37.9658524,41.700422 37.75785,41.407028 C37.6077761,41.1933807 37.5625074,40.9226128 37.6348487,40.6713151 C37.7918051,40.3249805 37.7593731,39.9215656 37.5491334,39.6051208 C37.3309759,39.2792825 36.9621232,39.0886327 36.5718368,39.099983 C34.2979543,39.099983 32.5453633,39.5456082 31.1017758,40.2077211 L31.9903571,33.5020673 C31.9970435,33.4516512 32.0003843,33.4008428 32.0003572,33.3499797 C31.9959392,27.7317158 28.8648033,22.5892172 23.8924096,20.0336909 C23.9898964,19.8239384 24.0220666,19.589424 23.9846964,19.3609405 L22.8418265,12.4609366 C22.7499934,11.9064172 22.2732083,11.4999802 21.7145282,11.4999673 L20.5716583,11.4999673 L20.5716583,6.89996465 L28.5717475,6.89996465 C29.2029372,6.89996465 29.7146174,6.38509181 29.7146174,5.74996399 L29.7146174,1.14996137 C29.7146059,0.831687304 29.58351,0.527650593 29.3525308,0.310212834 C29.1215517,0.0927750742 28.8113471,-0.018617007 28.4957467,0.00254821874 L11.3526983,1.15254887 C10.8896892,1.1836184 10.4913117,1.49331176 10.3445442,1.93627432 L9.20167427,5.38627628 C9.08549587,5.73695871 9.14392871,6.12245908 9.35871827,6.42234653 C9.57350784,6.72223399 9.9184667,6.89994584 10.2858292,6.89996465 L11.4286991,6.89996465 L11.4286991,11.4999673 L10.2858292,11.4999673 C9.72714906,11.4999802 9.25036398,11.9064172 9.15853093,12.4609366 L8.01566103,19.3609405 C7.97829076,19.589424 8.01046104,19.8239384 8.10794778,20.0336909 C3.13555406,22.5892172 0.00441820156,27.7317158 0,33.3499797 Z M46.8576659,66.6999987 L19.2812153,66.6999987 C18.7317565,66.699444 18.2864697,66.2513789 18.2859185,65.6984919 L18.2859185,53.9014977 C18.2864697,53.3486106 18.7317565,52.9005455 19.2812153,52.8999908 L47.0052389,52.8999908 C47.5546977,52.9005455 47.9999845,53.3486106 48.0005358,53.9014977 L48.0005358,65.6984919 C47.9999845,66.2513789 47.5546977,66.699444 47.0052389,66.6999987 L46.8576659,66.6999987 Z M21.7145282,48.2999882 L44.5719261,48.2999882 L44.5719261,50.5999895 L21.7145282,50.5999895 L21.7145282,48.2999882 Z M57.1434949,65.549998 C57.1427864,66.1848303 56.6315209,66.6992857 56.000625,66.6999987 L50.1315595,66.6999987 C50.2342021,66.3762014 50.2863926,66.0383625 50.2862756,65.6984919 L50.2862756,62.0999961 L57.1434949,62.0999961 L57.1434949,65.549998 Z M57.2863537,59.7999948 L50.2862756,59.7999948 L50.2862756,53.9014977 C50.2842286,52.0789789 48.8164569,50.6020492 47.0052389,50.5999895 L46.8576659,50.5999895 L46.8576659,47.1499876 C46.8576659,47.1177875 46.855523,47.0861625 46.8529515,47.0545375 L46.8529515,47.0545375 C46.8529515,47.0500813 46.8518087,47.0418875 46.8510944,47.0347 L46.8510944,47.0308187 C46.7651084,46.2770828 46.538624,45.5464259 46.1835155,44.877155 C45.6035216,43.7382201 44.5445726,42.9227246 43.3004833,42.656935 L41.3057468,27.5999764 L61.5525441,27.5999764 L57.2863537,59.7999948 Z M41.1433164,22.9999738 L61.7149745,22.9999738 L61.7149745,25.2999751 L41.1433164,25.2999751 L41.1433164,22.9999738 Z M35.8458287,42.6682913 C36.8122681,44.1159983 38.9790065,44.8499863 42.2861863,44.8499863 C43.1433387,44.8499863 43.7337739,45.1905302 44.146207,45.9219306 C44.1604929,45.9479494 44.1747788,45.9739681 44.1879218,45.9999869 L27.0033015,45.9999869 C27.4910212,45.6239367 27.955455,45.2290552 28.4158887,44.8370487 C30.2767666,43.2524916 32.0453577,41.746422 35.3596804,41.4518781 C35.4332349,41.8877176 35.5990286,42.3025573 35.8458287,42.6682913 Z M12.2702799,3.3960564 L27.4288776,2.37916832 L27.4288776,4.59996334 L11.8715612,4.59996334 L12.2702799,3.3960564 Z M13.7144389,6.89996465 L18.2859185,6.89996465 L18.2859185,11.4999673 L13.7144389,11.4999673 L13.7144389,6.89996465 Z M10.4921172,18.3999712 L11.2539829,13.7999686 L20.7463745,13.7999686 L21.5082402,18.3999712 L10.4921172,18.3999712 Z M14.8573088,20.6999725 L17.1430486,20.6999725 C24.0540094,20.7076937 29.6659861,26.3213168 29.7146174,33.2752297 L28.5940335,41.7306095 C28.0058841,42.1735035 27.4640209,42.6342225 26.9393008,43.0809977 C25.1002802,44.6474424 23.5115482,45.9999869 20.5716583,45.9999869 C19.9404687,45.9999869 19.4287884,46.5148597 19.4287884,47.1499876 L19.4287884,50.5999895 L19.2812153,50.5999895 C17.4699974,50.6020492 16.0022256,52.0789789 16.0001787,53.9014977 L16.0001787,65.6984919 C16.0000616,66.0383625 16.0522521,66.3762014 16.1548947,66.6999987 L7.71551483,66.6999987 C7.14329175,66.6983773 6.65985683,66.2724718 6.58264504,65.7019419 L2.28573995,33.2752297 C2.33437132,26.3213168 7.94634796,20.7076937 14.8573088,20.6999725 Z" id="Shape"></path>
                <path d="M33.5,55 C31.0147186,55 29,57.0147186 29,59.5 C29,61.9852814 31.0147186,64 33.5,64 C35.9852814,64 38,61.9852814 38,59.5 C37.9972101,57.0158752 35.9841248,55.0027899 33.5,55 L33.5,55 Z M33.5,61.75 C32.2573593,61.75 31.25,60.7426407 31.25,59.5 C31.25,58.2573593 32.2573593,57.25 33.5,57.25 C34.7426407,57.25 35.75,58.2573593 35.75,59.5 C35.7485277,60.7420303 34.7420303,61.7485277 33.5,61.75 L33.5,61.75 Z" id="Shape"></path>
                <path d="M51.5,39 C54.635,39 57,37.4954375 57,35.5 C57,33.5045625 54.635,32 51.5,32 C48.365,32 46,33.5045625 46,35.5 C46,37.4954375 48.365,39 51.5,39 Z M51.5,34.3333333 C53.6296,34.3333333 54.8,35.2096458 54.8,35.5 C54.8,35.7903542 53.6296,36.6666667 51.5,36.6666667 C49.3704,36.6666667 48.2,35.7903542 48.2,35.5 C48.2,35.2096458 49.3704,34.3333333 51.5,34.3333333 Z" id="Shape"></path>
                <path d="M9.14285714,38 L22.8571429,38 C23.4883254,38 24,37.4963203 24,36.875 L24,30.125 C24,29.5036797 23.4883254,29 22.8571429,29 L9.14285714,29 C8.51167457,29 8,29.5036797 8,30.125 L8,36.875 C8,37.4963203 8.51167457,38 9.14285714,38 Z M10.2857143,31.25 L21.7142857,31.25 L21.7142857,35.75 L10.2857143,35.75 L10.2857143,31.25 Z" id="Shape"></path>
            </g>
        </g>
    </g>
</svg>