<?xml version="1.0" encoding="UTF-8"?>
<svg width="236px" height="100px" viewBox="0 0 236 100" version="1.1" xmlns="http://www.w3.org/2000/svg" xmlns:xlink="http://www.w3.org/1999/xlink">
    <!-- Generator: Sketch 64 (93537) - https://sketch.com -->
    <title>img-puntos</title>
    <desc>Created with Sketch.</desc>
    <defs>
        <linearGradient x1="9.44944102%" y1="89.0630319%" x2="77.1171066%" y2="12.6419365%" id="linearGradient-1">
            <stop stop-color="#0060AC" offset="1%"></stop>
            <stop stop-color="#234799" offset="17%"></stop>
            <stop stop-color="#5D3A87" offset="36%"></stop>
            <stop stop-color="#9A2C74" offset="58%"></stop>
            <stop stop-color="#C62267" offset="76%"></stop>
            <stop stop-color="#E21C5E" offset="91%"></stop>
            <stop stop-color="#EC1A5B" offset="99%"></stop>
        </linearGradient>
        <radialGradient cx="166.585136%" cy="83.2286713%" fx="166.585136%" fy="83.2286713%" r="65.6555426%" gradientTransform="translate(1.665851,0.832287),scale(0.885318,1.000000),rotate(38.500654),translate(-1.665851,-0.832287)" id="radialGradient-2">
            <stop stop-color="#FFFFFF" stop-opacity="0.2" offset="0%"></stop>
            <stop stop-color="#FFFFFF" stop-opacity="0.1" offset="37%"></stop>
            <stop stop-color="#FFFFFF" stop-opacity="0.03" offset="74%"></stop>
            <stop stop-color="#FFFFFF" stop-opacity="0" offset="100%"></stop>
        </radialGradient>
        <radialGradient cx="-19938.9201%" cy="-15091.3934%" fx="-19938.9201%" fy="-15091.3934%" r="58.4682182%" gradientTransform="translate(-199.389201,-150.913934),scale(0.884115,1.000000),translate(199.389201,150.913934)" id="radialGradient-3">
            <stop stop-color="#FFFFFF" stop-opacity="0.2" offset="0%"></stop>
            <stop stop-color="#FFFFFF" stop-opacity="0.1" offset="37%"></stop>
            <stop stop-color="#FFFFFF" stop-opacity="0.03" offset="74%"></stop>
            <stop stop-color="#FFFFFF" stop-opacity="0" offset="100%"></stop>
        </radialGradient>
        <radialGradient cx="40.0606471%" cy="46.0876919%" fx="40.0606471%" fy="46.0876919%" r="65.2121931%" gradientTransform="translate(0.400606,0.460877),scale(0.901020,1.000000),rotate(39.610688),translate(-0.400606,-0.460877)" id="radialGradient-4">
            <stop stop-color="#FFFFFF" stop-opacity="0.5" offset="0%"></stop>
            <stop stop-color="#FFFFFF" stop-opacity="0.39" offset="16%"></stop>
            <stop stop-color="#FFFFFF" stop-opacity="0.22" offset="42%"></stop>
            <stop stop-color="#FFFFFF" stop-opacity="0.1" offset="66%"></stop>
            <stop stop-color="#FFFFFF" stop-opacity="0.03" offset="86%"></stop>
            <stop stop-color="#FFFFFF" stop-opacity="0" offset="100%"></stop>
        </radialGradient>
        <linearGradient x1="80.2034133%" y1="19.995305%" x2="37.3774059%" y2="63.4940388%" id="linearGradient-5">
            <stop stop-color="#FFFFFF" stop-opacity="0.5" offset="0%"></stop>
            <stop stop-color="#FFFFFF" stop-opacity="0.39" offset="16%"></stop>
            <stop stop-color="#FFFFFF" stop-opacity="0.22" offset="42%"></stop>
            <stop stop-color="#FFFFFF" stop-opacity="0.1" offset="66%"></stop>
            <stop stop-color="#FFFFFF" stop-opacity="0.03" offset="86%"></stop>
            <stop stop-color="#FFFFFF" stop-opacity="0" offset="100%"></stop>
        </linearGradient>
        <linearGradient x1="225.744432%" y1="281.177082%" x2="206.870597%" y2="249.354803%" id="linearGradient-6">
            <stop stop-color="#FFFFFF" stop-opacity="0.5" offset="0%"></stop>
            <stop stop-color="#FFFFFF" stop-opacity="0.39" offset="8%"></stop>
            <stop stop-color="#FFFFFF" stop-opacity="0.22" offset="21%"></stop>
            <stop stop-color="#FFFFFF" stop-opacity="0.1" offset="33%"></stop>
            <stop stop-color="#FFFFFF" stop-opacity="0.03" offset="44%"></stop>
            <stop stop-color="#FFFFFF" stop-opacity="0" offset="51%"></stop>
        </linearGradient>
    </defs>
    <g id="Welcome" stroke="none" stroke-width="1" fill="none" fill-rule="evenodd">
        <g id="HOME---Servicios---Ventas-Empresariales---Desktop-HD-Copy" transform="translate(-145.000000, -2754.000000)" fill-rule="nonzero">
            <g id="img-puntos" transform="translate(145.000000, 2751.000000)">
                <rect id="Rectangle" fill="#6E7072" opacity="0" x="2.1804" y="0.44348625" width="234.4167" height="105.022402"></rect>
                <path d="M111.505093,54.0244463 C112.760897,54.0244463 115.249249,54.4430475 115.249249,56.02443 C115.261839,56.3267178 115.1537,56.6216039 114.948667,56.8440858 C114.743635,57.0665677 114.458543,57.19838 114.156234,57.2104669 C113.458566,57.2104669 112.970198,56.582565 111.505093,56.582565 C109.34232,56.582565 108.22605,58.4662706 108.22605,60.6522994 C108.22605,62.8383281 109.365576,64.6057556 111.505093,64.6057556 C112.970198,64.6057556 113.551588,63.83832 114.272513,63.83832 C114.902856,63.8965936 115.39128,64.414922 115.412038,65.0476125 C115.412038,66.7685288 112.784153,67.1638744 111.505093,67.1638744 C109.809421,67.1490067 108.19541,66.4334686 107.045774,65.1869284 C105.896138,63.9403882 105.313268,62.2738679 105.435375,60.5825325 C105.305922,58.8916555 105.887014,57.2233252 107.038907,55.9787509 C108.190801,54.7341766 109.809269,54.0259707 111.505093,54.0244463 L111.505093,54.0244463 Z" id="Path" fill="#FFFFFF"></path>
                <path d="M121.365478,60.5825325 C121.236817,58.9036747 121.808634,57.246419 122.945209,56.0041165 C124.081784,54.761814 125.681777,54.04523 127.365429,54.0244463 C129.03822,54.071476 130.619962,54.7967562 131.747174,56.0336202 C132.874387,57.2704842 133.45014,58.9125701 133.342125,60.5825325 C133.542154,62.852231 132.444316,65.0405224 130.505304,66.2370909 C128.566293,67.4336594 126.118055,67.4336594 124.179043,66.2370909 C122.240031,65.0405224 121.142193,62.852231 121.342223,60.5825325 L121.365478,60.5825325 Z M130.667728,60.5825325 C130.667728,58.4197594 129.574714,56.4895425 127.388685,56.4895425 C125.202656,56.4895425 124.039875,58.4197594 124.039875,60.5825325 C124.039875,62.7453056 125.109634,64.6987781 127.318918,64.6987781 C129.528203,64.6987781 130.644473,62.7685613 130.644473,60.5825325 L130.667728,60.5825325 Z" id="Shape" fill="#FFFFFF"></path>
                <path d="M139.667655,55.5128062 C139.667655,54.7935575 140.250721,54.2104912 140.96997,54.2104912 C141.689219,54.2104912 142.272285,54.7935575 142.272285,55.5128062 L142.272285,64.5825 L145.365283,64.5825 C145.708576,64.561155 146.044227,64.6898909 146.285199,64.9353252 C146.526171,65.1807595 146.648727,65.5187162 146.621087,65.8615594 C146.595854,66.5331651 146.037234,67.0607508 145.365283,67.0475962 L141.016481,67.0475962 C140.632929,67.0643652 140.261519,66.9110428 140.001488,66.6285944 C139.741456,66.346146 139.619299,65.9633532 139.667655,65.5824919 L139.667655,55.5128062 Z" id="Path" fill="#FFFFFF"></path>
                <path d="M151.807091,60.5825325 C151.67843,58.9036747 152.250247,57.246419 153.386822,56.0041165 C154.523397,54.761814 156.12339,54.04523 157.807043,54.0244463 C159.483923,54.0652673 161.071716,54.7878504 162.203968,56.0254288 C163.336221,57.2630071 163.915096,58.9086418 163.806994,60.5825325 C164.007023,62.852231 162.909185,65.0405224 160.970173,66.2370909 C159.031161,67.4336594 156.582924,67.4336594 154.643912,66.2370909 C152.7049,65.0405224 151.607062,62.852231 151.807091,60.5825325 L151.807091,60.5825325 Z M161.109341,60.5825325 C161.109341,58.4197594 160.016327,56.4895425 157.830298,56.4895425 C155.644269,56.4895425 154.551255,58.4197594 154.551255,60.5825325 C154.551255,62.7453056 155.621014,64.6987781 157.830298,64.6987781 C160.039583,64.6987781 161.086086,62.7685613 161.086086,60.5825325 L161.109341,60.5825325 Z" id="Shape" fill="#FFFFFF"></path>
                <path d="M171.388327,55.4895506 C171.562726,54.6908503 172.268475,54.1204507 173.085988,54.1174687 C173.878611,54.134303 174.575859,54.6456182 174.83016,55.3965281 L176.876655,62.4894937 L176.876655,62.4894937 L178.92315,55.3965281 C179.177451,54.6456182 179.874699,54.134303 180.667322,54.1174687 C181.484835,54.1204507 182.190584,54.6908503 182.364982,55.4895506 L183.992876,65.4662137 C184.00347,65.5667097 184.00347,65.6680409 183.992876,65.7685369 C184.012388,66.1114203 183.887954,66.4468958 183.649562,66.6941178 C183.411169,66.9413398 183.080439,67.0778866 182.737072,67.0708519 C181.853359,67.0708519 181.504524,66.6522506 181.388246,65.8150481 L180.341743,58.5360375 L180.341743,58.5360375 L178.248737,66.0243487 C178.08336,66.6595774 177.509802,67.102933 176.853399,67.102933 C176.196996,67.102933 175.623438,66.6595774 175.458062,66.0243487 L173.365056,58.5360375 L173.365056,58.5360375 L172.318552,65.8150481 C172.318552,66.6522506 171.85344,67.0708519 170.969726,67.0708519 C170.62636,67.0778866 170.29563,66.9413398 170.057237,66.6941178 C169.818844,66.4468958 169.694411,66.1114203 169.713922,65.7685369 C169.703328,65.6680409 169.703328,65.5667097 169.713922,65.4662137 L171.388327,55.4895506 Z" id="Path" fill="#FFFFFF"></path>
                <path d="M190.481196,55.5593175 C190.466965,55.1953351 190.6086,54.8425516 190.870573,54.5894591 C191.132546,54.3363665 191.490002,54.2069771 191.853278,54.2337469 L195.202088,54.2337469 C196.056524,54.1954194 196.889156,54.5099617 197.504836,55.1036527 C198.120515,55.6973437 198.465117,56.5179915 198.457875,57.3732563 C198.534916,58.5076734 197.879996,59.5649011 196.829981,60.0011419 L196.829981,60.0011419 C198.342578,60.2093237 199.472247,61.4975429 199.481123,63.0243731 C199.555714,64.1005074 199.150622,65.1545465 198.374515,65.9037369 C197.598408,66.6529273 196.530732,67.0205774 195.457899,66.9080625 L191.876533,66.9080625 C191.507087,66.9347926 191.143738,66.8029366 190.877416,66.5454922 C190.611095,66.2880478 190.467001,65.929376 190.481196,65.5592363 L190.481196,55.5593175 Z M193.109081,59.2802175 L194.457908,59.2802175 C194.842057,59.3082701 195.219412,59.1678454 195.49177,58.8954872 C195.764128,58.623129 195.904553,58.2457741 195.876501,57.8616244 C195.878679,57.496777 195.724942,57.1483653 195.45397,56.9040455 C195.182997,56.6597258 194.820583,56.5427563 194.457908,56.582565 L193.109081,56.582565 L193.109081,59.2802175 Z M193.109081,64.6057556 L195.155576,64.6057556 C195.586312,64.6468929 196.013627,64.4985454 196.326215,64.1993549 C196.638802,63.9001644 196.805713,63.4797525 196.78347,63.0476288 C196.78347,62.2104263 196.155568,61.6290356 194.946276,61.6290356 L193.109081,61.6290356 L193.109081,64.6057556 Z" id="Shape" fill="#FFFFFF"></path>
                <path d="M205.71363,55.5128062 C205.71363,54.7935575 206.296696,54.2104912 207.015945,54.2104912 C207.735194,54.2104912 208.31826,54.7935575 208.31826,55.5128062 L208.31826,65.6755144 C208.31826,66.3947631 207.735194,66.9778294 207.015945,66.9778294 C206.296696,66.9778294 205.71363,66.3947631 205.71363,65.6755144 L205.71363,55.5128062 Z" id="Path" fill="#FFFFFF"></path>
                <path d="M217.9926,55.4895506 C218.23853,54.6555393 218.984626,54.0679892 219.85305,54.0244463 C220.732266,54.0384254 221.493779,54.6381169 221.7135,55.4895506 L225.132077,65.2104019 C225.207972,65.4281118 225.254886,65.654863 225.271611,65.884815 C225.271611,66.2034426 225.143528,66.5086943 224.916047,66.7318001 C224.688567,66.9549059 224.380884,67.0770995 224.062318,67.0708519 C223.472668,67.1092334 222.941628,66.7158705 222.806514,66.1406269 L222.271635,64.4429663 L217.434465,64.4429663 L216.899586,66.1173713 C216.774221,66.7019223 216.240523,67.1071377 215.643782,67.0708519 C215.306711,67.077095 214.981285,66.9475487 214.740723,66.7113598 C214.50016,66.4751708 214.364665,66.1521767 214.364723,65.8150481 C214.332566,65.614782 214.332566,65.410668 214.364723,65.2104019 L217.9926,55.4895506 Z M218.178645,61.97787 L221.480944,61.97787 L219.876306,56.7918656 L219.876306,56.7918656 L218.178645,61.97787 Z" id="Shape" fill="#FFFFFF"></path>
                <path d="M105.551653,29.1874387 C105.513148,28.5468617 105.741056,27.9188455 106.181426,27.4520527 C106.621797,26.98526 107.235483,26.7211863 107.877216,26.7223425 L113.760889,26.7223425 C115.717571,26.6542301 117.61283,27.4114255 118.983919,28.8090519 C120.355008,30.2066783 121.075737,32.1161027 120.970133,34.07112 C121.139101,35.9973851 120.470221,37.9031007 119.13444,39.3012189 C117.798658,40.6993372 115.92541,41.4543825 113.993445,41.3733862 L110.342312,41.3733862 L110.342312,45.978 C110.342312,47.3009039 109.269886,48.3733294 107.946982,48.3733294 C106.624079,48.3733294 105.551653,47.3009039 105.551653,45.978 L105.551653,29.1874387 Z M110.342312,37.0013287 L112.900431,37.0013287 C113.717013,37.0663461 114.52353,36.7865772 115.124439,36.2298524 C115.725348,35.6731275 116.06578,34.890283 116.063196,34.07112 C116.118536,33.2323901 115.79603,32.4128369 115.183939,31.8367512 C114.571848,31.2606654 113.734271,30.9883754 112.900431,31.0944 L110.342312,31.0944 L110.342312,37.0013287 Z" id="Shape" fill="#FFFFFF"></path>
                <path d="M129.504947,39.6292144 C129.504947,42.0181476 131.44156,43.9547606 133.830493,43.9547606 C136.219426,43.9547606 138.156039,42.0181476 138.156039,39.6292144 L138.156039,29.1641831 C138.156039,27.8412792 139.228465,26.7688537 140.551369,26.7688537 C141.874273,26.7688537 142.946698,27.8412792 142.946698,29.1641831 L142.946698,39.6292144 C143.116695,42.9917543 141.419509,46.1742364 138.532502,47.9065072 C135.645495,49.6387781 132.038747,49.6387781 129.15174,47.9065072 C126.264732,46.1742364 124.567547,42.9917543 124.737544,39.6292144 L124.737544,29.1641831 C124.737544,27.8798104 125.778734,26.8386206 127.063106,26.8386206 C128.347479,26.8386206 129.388669,27.8798104 129.388669,29.1641831 L129.504947,39.6292144 Z" id="Path" fill="#FFFFFF"></path>
                <path d="M147.481545,29.1641831 C147.401327,28.5006775 147.610448,27.8347315 148.055571,27.3361936 C148.500694,26.8376556 149.138788,26.5547215 149.807108,26.5594922 C151.062911,26.5594922 151.504768,27.1176881 153.109406,29.1874387 L161.039574,39.3966581 L161.039574,39.3966581 L161.039574,29.1641831 C161.039574,27.8412792 162.112,26.7688537 163.434904,26.7688537 C164.757808,26.7688537 165.830233,27.8412792 165.830233,29.1641831 L165.830233,45.978 C165.910451,46.6415057 165.701331,47.3074516 165.256207,47.8059896 C164.811084,48.3045275 164.17299,48.5874616 163.504671,48.5826909 C162.225611,48.5826909 161.760499,48.0012394 160.202372,45.9547444 L152.248948,35.7222694 L152.248948,35.7222694 L152.248948,45.978 C152.248948,47.2623727 151.207758,48.3035625 149.923386,48.3035625 C148.639013,48.3035625 147.597823,47.2623727 147.597823,45.978 L147.481545,29.1641831 Z" id="Path" fill="#FFFFFF"></path>
                <path d="M173.946446,31.280445 L171.248794,31.280445 C170.597304,31.3660511 169.941863,31.1540597 169.463899,30.7031508 C168.985936,30.2522419 168.736155,29.6102508 168.783698,28.9548825 C168.727178,28.297122 168.974177,27.6495673 169.454391,27.1965353 C169.934605,26.7435034 170.595438,26.5346123 171.248794,26.62932 L181.411502,26.62932 C182.695875,26.62932 183.737064,27.6705098 183.737064,28.9548825 C183.737064,30.2392552 182.695875,31.280445 181.411502,31.280445 L178.737105,31.280445 L178.737105,45.978 C178.737105,47.3009039 177.66468,48.3733294 176.341776,48.3733294 C175.018872,48.3733294 173.946446,47.3009039 173.946446,45.978 L173.946446,31.280445 Z" id="Path" fill="#FFFFFF"></path>
                <path d="M206.853156,37.5129525 C206.853156,44.3733619 202.73691,48.7919306 196.504403,48.7919306 C190.271895,48.7919306 186.178905,44.3733619 186.178905,37.5129525 C186.178905,30.6525431 190.271895,26.25723 196.504403,26.25723 C202.73691,26.25723 206.853156,30.6757987 206.853156,37.5129525 Z M191.318398,37.5129525 C191.318398,40.9315294 192.806758,44.2338281 196.504403,44.2338281 C200.202047,44.2338281 201.713663,40.9315294 201.713663,37.5129525 C201.713663,34.0943756 200.202047,30.7920769 196.504403,30.7920769 C192.806758,30.7920769 191.318398,34.0943756 191.318398,37.5129525 Z" id="Shape" fill="#FFFFFF"></path>
                <path d="M212.225205,42.62919 C213.411242,42.62919 214.946113,43.8849937 217.387954,43.8849937 C219.248404,43.8849937 219.946073,42.9082575 219.946073,41.8617544 C219.946073,40.210605 218.108878,39.8850262 215.294948,38.9780569 C212.481017,38.0710875 210.248477,37.0710956 210.248477,33.1641506 C210.248477,28.5130256 213.806588,26.1874631 217.806555,26.1874631 C221.806523,26.1874631 223.759995,27.5362894 223.759995,29.419995 C223.819293,30.0165492 223.622794,30.6102627 223.21931,31.0536517 C222.815826,31.4970408 222.24322,31.7484974 221.643733,31.7455575 C220.108862,31.7455575 219.597238,30.9316106 217.573999,30.9316106 C216.271684,30.9316106 215.38797,31.6292794 215.38797,32.6757825 C215.38797,33.7222856 216.574007,34.07112 219.876306,35.2106456 C222.92891,35.7339971 225.118892,38.4416118 224.992543,41.5361756 C224.992543,46.5128794 221.411177,48.7454194 216.946097,48.7454194 C214.132166,48.7454194 209.969409,47.6291494 209.969409,45.1873087 C209.904481,44.5433079 210.110886,43.9013833 210.538984,43.4159103 C210.967083,42.9304372 211.578141,42.6453432 212.225205,42.62919 Z" id="Path" fill="#FFFFFF"></path>
                <path d="M225.643701,21.8851725 C225.638511,21.1962376 225.78126,20.5142146 226.062302,19.8851888 C226.319344,19.2846047 226.69055,18.7396414 227.155316,18.2805506 C227.618474,17.8099059 228.172266,17.4380745 228.78321,17.1875363 C229.403484,16.9048358 230.078315,16.7619303 230.759938,16.768935 C231.441114,16.7663469 232.115011,16.9090544 232.736666,17.1875363 C233.34761,17.4380745 233.901402,17.8099059 234.36456,18.2805506 C234.814578,18.751751 235.183864,19.2938947 235.457574,19.8851888 C235.983447,21.158604 235.983447,22.5884854 235.457574,23.8619006 C235.189362,24.4562939 234.819475,24.9993195 234.36456,25.4665388 C233.896227,25.9368167 233.344115,26.3154083 232.736666,26.5828088 C232.110136,26.8432008 231.438424,26.9775432 230.759938,26.9781629 C230.081269,26.9793942 229.409197,26.8449797 228.78321,26.5828088 C228.175761,26.3154083 227.623649,25.9368167 227.155316,25.4665388 C226.199886,24.5181188 225.656767,23.2313435 225.643701,21.8851725 L225.643701,21.8851725 Z M226.550659,21.8851725 C226.549365,22.4464882 226.668311,23.0015716 226.899504,23.5130663 C227.102772,24.0094118 227.403233,24.4601034 227.783218,24.8386369 C228.162903,25.2338094 228.622829,25.5430698 229.132044,25.7456063 C230.173896,26.1797113 231.34598,26.1797113 232.387832,25.7456063 C233.437556,25.3047312 234.272519,24.4697682 234.713394,23.4200438 C234.937286,22.9070018 235.048318,22.3518392 235.038973,21.79215 C235.050537,21.232262 234.93941,20.6766285 234.713394,20.1642563 C234.516978,19.6518376 234.206873,19.1906553 233.806425,18.81543 C233.423022,18.4354677 232.973901,18.128174 232.480854,17.9084606 C231.439002,17.4743556 230.266919,17.4743556 229.225067,17.9084606 C228.725708,18.1292703 228.269129,18.4362804 227.876241,18.81543 C227.109255,19.619702 226.669772,20.6810964 226.643693,21.79215 L226.550659,21.8851725 Z M228.876233,18.9317081 L231.201795,18.9317081 C231.757336,18.8875425 232.310266,19.0443435 232.759922,19.373565 C233.107208,19.7156198 233.293142,20.1889072 233.271546,20.67588 C233.299174,21.1005646 233.156964,21.5188303 232.8762,21.8386613 C232.599758,22.0907251 232.248705,22.2458412 231.876208,22.2805181 L233.387824,24.76887 L232.271554,24.76887 L230.806449,22.4433075 L230.015758,22.4433075 L230.015758,24.76887 L228.690188,24.76887 L228.876233,18.9317081 Z M229.945991,21.4665713 L231.225051,21.4665713 C231.371134,21.493187 231.520824,21.493187 231.666908,21.4665713 C231.798113,21.4149709 231.911309,21.3260314 231.992486,21.2107594 C232.089723,21.0845758 232.139154,20.9280452 232.13202,20.7689025 C232.142705,20.6021584 232.093192,20.4371169 231.992486,20.30379 C231.916429,20.1886993 231.800444,20.1058529 231.666908,20.0712338 C231.528156,20.0052754 231.378296,19.9658386 231.225051,19.9549556 L229.945991,19.9549556 L229.945991,21.4665713 Z" id="Shape" fill="#FFFFFF"></path>
                <path d="M46.1567869,4.28066438 C23.0746983,4.17395181 4.04919348,22.3566195 3.11023528,45.419865 C3.11023528,45.7454438 3.11023528,46.0710225 3.11023528,46.4198569 L3.11023528,86.6520881 C3.05205985,94.9816612 9.6012914,101.861135 17.9236743,102.212079 C26.2460571,102.563023 33.3512051,96.259336 33.994095,87.9544031 C37.945877,89.1060402 42.0406211,89.6932406 46.1567869,89.698575 C61.6528175,90.0601968 76.1290363,81.9999321 83.9833263,68.6370034 C91.8376163,55.2740747 91.8376163,38.7051647 83.9833263,25.342236 C76.1290363,11.9793073 61.6528175,3.91904261 46.1567869,4.28066438 L46.1567869,4.28066438 Z" id="Path" fill="url(#linearGradient-1)"></path>
                <path d="M18.5756156,102.931026 C9.5850067,102.931026 2.29667813,95.642697 2.29667813,86.6520881 L2.29667813,46.4198569 C2.29667813,46.0477669 2.29667813,45.6989325 2.29667813,45.3500981 C2.67940929,34.0794551 7.45326802,23.4050402 15.5988956,15.6061538 C28.2864688,3.44835207 46.984208,-0.0100504635 63.1811018,6.80517406 C79.3779957,13.6203986 89.9781271,29.4065701 90.1564294,46.9779919 C90.0283169,71.1686692 70.3477176,90.6932384 46.1567869,90.6288 C42.3179849,90.6223104 38.4959604,90.1220864 34.7847863,89.14044 C33.4866647,97.0857528 26.6262704,102.922501 18.5756156,102.931026 Z M46.1567869,5.25740063 C23.5781416,5.12743998 4.96506021,22.9276781 4.08736125,45.4896319 C4.08736125,45.8384663 4.08736125,46.1407894 4.08736125,46.4663681 L4.08736125,86.6985994 C4.31952677,94.3294473 10.4157717,100.480132 18.044254,100.780129 C25.6727363,101.080125 32.2331692,95.4271748 33.06387,87.838125 L33.06387,86.721855 L34.1568844,87.0241781 C46.8456918,90.7963061 60.5696731,88.3831149 71.210589,80.5087457 C81.851505,72.6343764 88.1709923,60.2152286 88.2727238,46.9779919 C88.1446258,23.8276576 69.3073858,5.14644115 46.1567869,5.21072312 L46.1567869,5.25740063 Z" id="Shape" fill="#FFFFFF"></path>
                <path d="M48.0870038,25.9083956 C53.185958,25.902491 58.1248189,27.6887124 62.0403788,30.9548663 C64.8852152,32.7797175 66.7233248,35.8203287 67.0170825,39.1873575 C67.0953324,41.4706224 65.9407827,43.6198611 63.9938513,44.8152188 C62.8733335,45.5669685 61.552481,45.9640346 60.2031844,45.9547444 C59.0924954,45.9557024 57.9985259,45.6842063 57.0171638,45.1640531 C55.8541568,44.2678717 54.7934949,43.2462047 53.8543988,42.1175663 C52.3552161,40.5185277 50.2715408,39.595982 48.0799105,39.5609159 C45.8882803,39.5258498 43.7761576,40.3812627 42.2265863,41.9315213 C39.1848947,45.1210098 39.1848947,50.1372889 42.2265863,53.3267775 C43.7142853,54.8544568 45.7690356,55.6965676 47.9009588,55.65234 C49.802499,55.6431057 51.6425562,54.9777279 53.1102188,53.7686344 C54.1102106,52.8384094 55.0869469,51.8849288 56.0636831,50.9314481 C57.1924915,50.0010072 58.6253713,49.5206198 60.0869063,49.5826219 C61.895077,49.5637659 63.6360925,50.2668683 64.9240763,51.5360944 C66.238442,52.7235879 66.9830631,54.4159085 66.9705713,56.1872194 C66.6662585,59.2594644 65.0353595,62.0455835 62.5054913,63.8150644 C58.5314603,67.3698869 53.372169,69.3108422 48.0404925,69.2568806 C44.7196055,69.2676882 41.4382212,68.5367261 38.4359194,67.1173631 C34.7234419,65.3616049 31.5861725,62.5872586 29.3894813,59.1174281 C23.7968334,50.2938151 25.335394,38.730111 33.0406144,31.6757906 C37.1127955,27.865907 42.5115796,25.7965122 48.0870038,25.9083956 Z" id="Path" fill="#FFFFFF"></path>
                <g id="Group" transform="translate(0.203672, 5.862047)">
                    <path d="M57.67395,42.2089594 C56.1158231,44.1391762 52.0693444,43.4647631 48.6042563,40.6973437 C45.1391681,37.9299244 43.6042969,34.1857687 45.1624238,32.2555519 C46.7205506,30.325335 50.7670294,31.0230037 54.2088619,33.7671675 C57.6506944,36.5113312 59.2320769,40.3019981 57.67395,42.2089594 Z" id="Path" fill="url(#radialGradient-2)"></path>
                    <path d="M50.9530744,51.3019088 C49.4182031,53.2321256 45.3484687,52.5344569 41.8833806,49.7902931 C38.4182925,47.0461294 36.8834212,43.2554625 38.4415481,41.3485013 C39.999675,39.44154 44.0461537,40.1159531 47.4879862,42.8601169 C50.9298187,45.6042806 52.5112012,49.4182031 50.9530744,51.3019088 Z" id="Path" fill="url(#radialGradient-3)"></path>
                    <path d="M55.1158313,87.3946387 C48.4647225,95.3480625 31.4648606,92.2550644 17.1393956,80.4179512 C2.81393063,68.5808381 -3.39532125,52.650735 3.18602063,44.6740556 C9.7673625,36.6973762 26.8369913,39.81363 41.1624563,51.6507431 C55.4879213,63.4878562 61.76694,79.441215 55.1158313,87.3946387 Z" id="Path" fill="url(#radialGradient-4)" style="mix-blend-mode: overlay;"></path>
                    <path d="M71.9063925,62.3715862 C78.7831392,55.5797106 82.6526958,46.3162266 82.6504922,36.650865 C82.5119927,21.5075043 73.0968908,8.00025765 58.9368822,2.63046144 C44.7768736,-2.73933478 28.772792,1.12838133 18.6277556,12.3719925 C56.9530256,12.9533831 35.9531963,55.0228087 71.9063925,62.3715862 Z" id="Path" fill="url(#linearGradient-5)" style="mix-blend-mode: overlay;"></path>
                    <path d="M9.116205,86.6272031 C10.0691356,90.008447 12.7116486,92.65096 16.0928925,93.6038906 C19.8656049,94.8013532 23.9797656,94.1914364 27.2428063,91.9509363 C30.505847,89.7104362 32.5528423,86.0899214 32.7904313,82.1388675 C32.8254741,81.2704203 32.3372387,80.4653642 31.550927,80.0950367 C30.7646153,79.7247093 29.8330056,79.8610642 29.1858094,80.4412069 C23.1626025,85.4644219 16.5812606,77.0691413 9.88364063,85.6737225 L9.116205,86.6272031 Z" id="Path" fill="url(#linearGradient-6)" style="mix-blend-mode: overlay;"></path>
                </g>
            </g>
        </g>
    </g>
</svg>