<?xml version="1.0" encoding="UTF-8"?>
<svg width="51px" height="59px" viewBox="0 0 51 59" version="1.1" xmlns="http://www.w3.org/2000/svg" xmlns:xlink="http://www.w3.org/1999/xlink">
    <!-- Generator: Sketch 64 (93537) - https://sketch.com -->
    <title>img-11</title>
    <desc>Created with Sketch.</desc>
    <g id="Welcome" stroke="none" stroke-width="1" fill="none" fill-rule="evenodd">
        <g id="HOME---Servicios---Ventas-Empresariales---Desktop-HD-Copy" transform="translate(-459.000000, -2775.000000)" fill="#61268B" fill-rule="nonzero">
            <g id="img-11" transform="translate(459.000000, 2775.000000)">
                <path d="M25.2988835,0.25443053 C34.2288918,0.0403156661 42.5712058,4.81276758 47.0974537,12.7249066 C51.6237015,20.6370457 51.6237015,30.447434 47.0974537,38.359573 C42.643051,46.1461226 34.4927657,50.8918666 25.7236648,50.8364833 L25.2988835,50.8300491 C22.9268312,50.8268907 20.5671237,50.4792116 18.2898021,49.7973316 C17.9193193,54.7146507 13.8247849,58.4470394 9.02878589,58.2392469 C4.31998682,58.0352324 0.596194794,54.1049868 0.494070376,49.2943795 L0.492139537,49.0262359 L0.492139537,24.6127941 C1.02782869,11.0936911 11.7789663,0.406853166 24.9005425,0.255775789 L25.2988835,0.25443053 Z M25.774891,3.24752269 L25.2846334,3.25439669 C13.7345698,3.19953291 4.16271259,12.4832924 3.50706545,24.3669833 L3.4919187,24.67 L3.4919187,49.0466283 C3.46992898,52.3038407 5.87694822,54.9778956 8.93884596,55.228318 L9.15864273,55.2420587 C12.2455439,55.3758024 14.9210281,53.0055037 15.2768366,49.8021485 L15.2982807,49.5719432 L15.5784081,45.8538869 L19.1503213,46.9233959 C20.9681064,47.4676805 22.8450974,47.7693683 24.7864515,47.8224506 L25.3707938,47.8309111 C33.1922915,48.0184472 40.5108802,43.8316458 44.493437,36.8699095 C48.491707,29.8807058 48.491707,21.2037739 44.493437,14.2145701 C40.579545,7.37286386 33.4436649,3.21122981 25.774891,3.24752269 Z" id="Path"></path>
                <path d="M26.4039164,12.2501026 C29.39002,12.2465615 32.2823681,13.3177861 34.5754397,15.2765491 C36.241463,16.3709406 37.3179162,18.1944422 37.4899497,20.2137015 C37.5357752,21.5830108 36.8596356,22.8719425 35.719453,23.5888169 C35.0632435,24.0396529 34.2897119,24.2777796 33.4995225,24.2722081 C32.849069,24.2727826 32.208407,24.1099622 31.6336913,23.7980183 C30.9525989,23.2605644 30.3314428,22.6478549 29.7814793,21.970993 C28.9035121,21.0120248 27.6832481,20.4587599 26.3997624,20.4377302 C25.1162766,20.4167005 23.879353,20.9297049 22.9718766,21.8594189 C21.1905689,23.7722046 21.1905689,26.7805448 22.9718766,28.6933304 C23.8431186,29.6095033 25.0464433,30.1145302 26.2949627,30.0880062 C27.4085629,30.0824683 28.4861567,29.6834309 29.3456648,28.9583188 C29.9312906,28.4004485 30.5032972,27.8286314 31.0753039,27.2568143 C31.7363686,26.6988145 32.5755069,26.4107187 33.4314264,26.4479024 C34.4903466,26.4365941 35.5099385,26.8582555 36.2642212,27.61943 C37.033954,28.3315883 37.4700269,29.3464991 37.4627113,30.4087817 C37.2844964,32.2512546 36.3293921,33.9221333 34.8478238,34.9833183 C32.5205097,37.1152004 29.4990708,38.2792213 26.3766779,38.2468598 C24.4318649,38.2533412 22.5101858,37.8149719 20.751946,36.963758 C18.5778056,35.9108026 16.7405247,34.2469842 15.4540751,32.1660732 C12.1788494,26.8744159 13.0798776,19.9394837 17.5922904,15.7088986 C19.9770842,13.4240524 23.1387774,12.1830043 26.4039164,12.2501026 Z" id="Path"></path>
            </g>
        </g>
    </g>
</svg>