<svg xmlns="http://www.w3.org/2000/svg" xmlns:xlink="http://www.w3.org/1999/xlink" viewBox="0 0 387.15 256.5"><defs><style>.cls-1{fill:url(#Degradado_sin_nombre_5);}.cls-2{fill:url(#Degradado_sin_nombre_5-2);}.cls-3{fill:url(#Degradado_sin_nombre_11);}.cls-4{fill:url(#Degradado_sin_nombre_13);}.cls-5{fill:url(#Degradado_sin_nombre_7);}.cls-6{fill:url(#Degradado_sin_nombre_9);}.cls-7{fill:none;}.cls-8{isolation:isolate;}.cls-9{fill:#fff;}.cls-10{clip-path:url(#clip-path);}.cls-11{fill:url(#Degradado_sin_nombre_2);}.cls-12{clip-path:url(#clip-path-2);}.cls-13{mask:url(#mask);}.cls-14{fill:url(#Degradado_sin_nombre_8);}.cls-15{clip-path:url(#clip-path-3);}.cls-16{mask:url(#mask-2);}.cls-17{fill:url(#Degradado_sin_nombre_8-2);}.cls-18{mix-blend-mode:overlay;}.cls-19{clip-path:url(#clip-path-4);}.cls-20{clip-path:url(#clip-path-5);}.cls-21{mask:url(#mask-3);}.cls-22{fill:url(#Degradado_sin_nombre_10);}.cls-23{clip-path:url(#clip-path-6);}.cls-24{clip-path:url(#clip-path-7);}.cls-25{mask:url(#mask-4);}.cls-26{fill:url(#Degradado_sin_nombre_12);}.cls-27{clip-path:url(#clip-path-9);}.cls-28{clip-path:url(#clip-path-10);}.cls-29{mask:url(#mask-5);}.cls-30{fill:url(#Degradado_sin_nombre_8-3);}.cls-31{mix-blend-mode:hard-light;}.cls-32{clip-path:url(#clip-path-11);}.cls-33{clip-path:url(#clip-path-12);}.cls-34{mask:url(#mask-6);}.cls-35{fill:url(#Degradado_sin_nombre_8-4);}</style><radialGradient id="Degradado_sin_nombre_5" cx="-2312.67" cy="313.37" r="1.7" gradientTransform="matrix(5.09, 4.11, 2.28, -2.86, 11191.18, 10522.11)" gradientUnits="userSpaceOnUse"><stop offset="0" stop-color="#333"/><stop offset="0.37" stop-color="#191919"/><stop offset="0.74" stop-color="#070707"/><stop offset="1"/></radialGradient><radialGradient id="Degradado_sin_nombre_5-2" cx="-2312.63" cy="311.58" r="1.7" gradientTransform="matrix(5.09, 4.11, 2.28, -2.86, 11186.35, 10530.18)" xlink:href="#Degradado_sin_nombre_5"/><linearGradient id="Degradado_sin_nombre_11" x1="-2430.02" y1="200.58" x2="-2428.31" y2="200.58" gradientTransform="matrix(-32.65, 0, 0, 32.65, -79174.78, -6444.06)" gradientUnits="userSpaceOnUse"><stop offset="0" stop-color="gray"/><stop offset="0.16" stop-color="#626262"/><stop offset="0.42" stop-color="#383838"/><stop offset="0.66" stop-color="#191919"/><stop offset="0.86" stop-color="#070707"/><stop offset="1"/></linearGradient><linearGradient id="Degradado_sin_nombre_13" x1="-2444.69" y1="115.66" x2="-2442.99" y2="115.66" gradientTransform="matrix(-3.66, -10.3, -10.24, 3.86, -7670.84, -25430.17)" gradientUnits="userSpaceOnUse"><stop offset="0" stop-color="gray"/><stop offset="0.08" stop-color="#626262"/><stop offset="0.21" stop-color="#383838"/><stop offset="0.33" stop-color="#191919"/><stop offset="0.44" stop-color="#070707"/><stop offset="0.51"/><stop offset="1"/></linearGradient><radialGradient id="Degradado_sin_nombre_7" cx="-2389.46" cy="212.48" r="1.7" gradientTransform="matrix(21.08, 17.61, 9.79, -11.9, 48387.07, 44766.85)" xlink:href="#Degradado_sin_nombre_11"/><radialGradient id="Degradado_sin_nombre_9" cx="-2382.04" cy="224.31" r="1.7" gradientTransform="matrix(16.37, 13.23, 7.33, -9.21, 37517.53, 33661.86)" gradientUnits="userSpaceOnUse"><stop offset="0" stop-color="#4d4d4d"/><stop offset="0.19" stop-color="#383838"/><stop offset="0.52" stop-color="#191919"/><stop offset="0.8" stop-color="#070707"/><stop offset="1"/></radialGradient><clipPath id="clip-path"><path class="cls-7" d="M68.74,117.4c0,.46-.06.93-.06,1.42v56.55a21.39,21.39,0,0,0,42.72,1.81,59,59,0,0,0,16.86,2.46c32.89,0,59.56-26.88,59.56-60s-26.67-60-59.56-60c-32.17,0-58.37,25.7-59.52,57.83"/></clipPath><linearGradient id="Degradado_sin_nombre_2" x1="-2407.29" y1="174.97" x2="-2405.58" y2="174.97" gradientTransform="matrix(86.76, 0, 0, -86.76, 208906.95, 15308.97)" gradientUnits="userSpaceOnUse"><stop offset="0" stop-color="#0064ad"/><stop offset="0.01" stop-color="#0064ad"/><stop offset="0.32" stop-color="#434c90"/><stop offset="0.99" stop-color="#dd144d"/><stop offset="1" stop-color="#dd144d"/></linearGradient><clipPath id="clip-path-2"><path class="cls-7" d="M127.13,107c-2.14,2.7,0,8,4.79,11.88s10.4,4.81,12.54,2.12,0-8-4.78-11.88c-3-2.37-6.21-3.65-8.79-3.65a4.62,4.62,0,0,0-3.76,1.53"/></clipPath><mask id="mask" x="116.16" y="94.8" width="39.26" height="39.48" maskUnits="userSpaceOnUse"><polygon class="cls-1" points="133.45 94.8 155.43 112.56 138.14 134.28 116.16 116.52 133.45 94.8"/></mask><radialGradient id="Degradado_sin_nombre_8" cx="-2312.67" cy="313.37" r="1.7" gradientTransform="matrix(5.09, 4.11, 2.28, -2.86, 11191.18, 10522.11)" gradientUnits="userSpaceOnUse"><stop offset="0" stop-color="#fff"/><stop offset="1" stop-color="#fff"/></radialGradient><clipPath id="clip-path-3"><path class="cls-7" d="M117.83,119.73c-2.14,2.7,0,8,4.79,11.88s10.4,4.82,12.54,2.13,0-8-4.78-11.88c-2.95-2.38-6.21-3.66-8.78-3.66a4.64,4.64,0,0,0-3.77,1.53"/></clipPath><mask id="mask-2" x="106.87" y="107.58" width="39.26" height="39.48" maskUnits="userSpaceOnUse"><polygon class="cls-2" points="124.15 107.58 146.13 125.34 128.85 147.06 106.87 129.3 124.15 107.58"/></mask><radialGradient id="Degradado_sin_nombre_8-2" cx="-2312.63" cy="311.58" r="1.7" gradientTransform="matrix(5.09, 4.11, 2.28, -2.86, 11186.35, 10530.18)" xlink:href="#Degradado_sin_nombre_8"/><clipPath id="clip-path-4"><rect class="cls-7" x="90.44" y="61.99" width="88.58" height="87.32"/></clipPath><clipPath id="clip-path-5"><path class="cls-7" d="M164.16,149.3A51.24,51.24,0,0,0,128.25,62,50.47,50.47,0,0,0,90.44,79c53,.8,24,59.93,73.72,70.29"/></clipPath><mask id="mask-3" x="46.83" y="17.75" width="175.79" height="175.79" maskUnits="userSpaceOnUse"><rect class="cls-3" x="72.57" y="43.47" width="124.32" height="124.36" transform="translate(-34.72 130.12) rotate(-46.32)"/></mask><linearGradient id="Degradado_sin_nombre_10" x1="-2430.02" y1="200.58" x2="-2428.31" y2="200.58" gradientTransform="matrix(-32.65, 0, 0, 32.65, -79174.78, -6444.05)" xlink:href="#Degradado_sin_nombre_8"/><clipPath id="clip-path-6"><rect class="cls-7" x="77.28" y="174.02" width="32.7" height="20.14"/></clipPath><clipPath id="clip-path-7"><path class="cls-7" d="M77.28,183.31c1.62,4.95,4.21,8.08,9.61,9.94a17.48,17.48,0,0,0,20.32-7.41,18.24,18.24,0,0,0,2.77-8.71,3,3,0,0,0-5-2.36c-8.32,7-17.42-4.77-26.71,7.35Z"/></clipPath><mask id="mask-4" x="69.18" y="159.09" width="49.05" height="47.65" maskUnits="userSpaceOnUse"><polygon class="cls-4" points="81.16 206.75 69.18 173.05 106.24 159.09 118.22 192.79 81.16 206.75"/></mask><linearGradient id="Degradado_sin_nombre_12" x1="-2444.69" y1="115.66" x2="-2442.99" y2="115.66" gradientTransform="matrix(-3.66, -10.3, -10.24, 3.86, -7670.84, -25430.17)" gradientUnits="userSpaceOnUse"><stop offset="0" stop-color="#fff"/><stop offset="0.51" stop-color="#fff"/><stop offset="1" stop-color="#fff"/></linearGradient><clipPath id="clip-path-9"><rect class="cls-7" x="65.46" y="118.28" width="79.15" height="72.38"/></clipPath><clipPath id="clip-path-10"><path class="cls-7" d="M140.91,184.46c-9.2,11.19-32.73,6.83-52.54-9.73s-28.42-39-19.21-50.24,32.73-6.84,52.55,9.72,28.41,39.06,19.2,50.25"/></clipPath><mask id="mask-5" x="19.79" y="68.65" width="170.49" height="171.65" maskUnits="userSpaceOnUse"><polygon class="cls-5" points="96.69 68.65 190.28 146.85 113.38 240.3 19.79 162.09 96.69 68.65"/></mask><radialGradient id="Degradado_sin_nombre_8-3" cx="-2389.46" cy="212.48" r="1.7" gradientTransform="matrix(21.08, 17.61, 9.79, -11.9, 48387.07, 44766.85)" xlink:href="#Degradado_sin_nombre_8"/><clipPath id="clip-path-11"><rect class="cls-7" x="127.3" y="48.41" width="61.1" height="54.9"/></clipPath><clipPath id="clip-path-12"><path class="cls-7" d="M185.72,98.38c-6.9,8.67-25,5.6-40.36-6.84S123.08,62,130,53.33s25-5.6,40.35,6.84,22.29,29.55,15.4,38.21"/></clipPath><mask id="mask-6" x="92.87" y="10.47" width="129.95" height="130.78" maskUnits="userSpaceOnUse"><polygon class="cls-6" points="150.29 10.47 222.82 69.08 165.4 141.25 92.87 82.64 150.29 10.47"/></mask><radialGradient id="Degradado_sin_nombre_8-4" cx="-2382.04" cy="224.31" r="1.7" gradientTransform="matrix(16.37, 13.23, 7.33, -9.21, 37517.53, 33661.86)" xlink:href="#Degradado_sin_nombre_8"/></defs><title>img-puntos</title><g class="cls-8"><g id="Capa_2" data-name="Capa 2"><g id="elements"><path class="cls-9" d="M217.16,130.39c1.73,0,5.12.59,5.12,2.74a1.53,1.53,0,0,1-1.48,1.63c-1,0-1.64-.85-3.64-.85-3,0-4.48,2.56-4.48,5.54s1.55,5.4,4.48,5.4c2,0,2.81-1,3.78-1a1.7,1.7,0,0,1,1.57,1.66c0,2.34-3.59,2.88-5.35,2.88-4.84,0-8.2-3.93-8.2-9s3.34-9,8.2-9"/><path class="cls-9" d="M230.65,139.38c0-5.08,3.34-9,8.2-9s8.19,4,8.19,9-3.31,9-8.19,9-8.2-3.93-8.2-9m12.67,0c0-3-1.5-5.62-4.47-5.62s-4.48,2.66-4.48,5.62,1.45,5.62,4.48,5.62,4.47-2.64,4.47-5.62"/><path class="cls-9" d="M255.65,132.44a1.79,1.79,0,1,1,3.57,0V144.7h4.24a1.64,1.64,0,0,1,1.72,1.76,1.7,1.7,0,0,1-1.72,1.62h-5.95a1.79,1.79,0,0,1-1.86-2Z"/><path class="cls-9" d="M272.27,139.38c0-5.08,3.34-9,8.19-9s8.2,4,8.2,9-3.31,9-8.2,9-8.19-3.93-8.19-9m12.67,0c0-3-1.5-5.62-4.48-5.62s-4.47,2.66-4.47,5.62,1.45,5.62,4.47,5.62,4.48-2.64,4.48-5.62"/><path class="cls-9" d="M299,132.42a2.4,2.4,0,0,1,2.33-1.88,2.58,2.58,0,0,1,2.39,1.75l2.81,9.68h0l2.81-9.68a2.58,2.58,0,0,1,2.39-1.75,2.4,2.4,0,0,1,2.33,1.88l2.21,13.63a2,2,0,0,1,0,.41,1.67,1.67,0,0,1-1.72,1.76c-1.21,0-1.69-.56-1.86-1.71l-1.4-9.94h-.05l-2.85,10.24a2,2,0,0,1-3.82,0l-2.85-10.24h-.05l-1.41,9.94c-.16,1.15-.64,1.71-1.85,1.71a1.67,1.67,0,0,1-1.72-1.76,2,2,0,0,1,0-.41Z"/><path class="cls-9" d="M325.13,132.51a1.73,1.73,0,0,1,1.88-1.83h4.57a4.26,4.26,0,0,1,4.48,4.3,3.61,3.61,0,0,1-2.22,3.59v.05a4.22,4.22,0,0,1,3.62,4.15c0,3.45-2.23,5.31-5.52,5.31H327a1.79,1.79,0,0,1-1.91-1.86Zm3.57,5.06h1.86a1.79,1.79,0,0,0,1.93-1.93,1.73,1.73,0,0,0-1.93-1.73H328.7Zm0,7.28h2.81a2,2,0,0,0,2.24-2.12c0-1.15-.86-1.93-2.53-1.93H328.7Z"/><path class="cls-9" d="M345.94,132.44a1.79,1.79,0,1,1,3.57,0v13.88a1.79,1.79,0,1,1-3.57,0Z"/><path class="cls-9" d="M362.72,132.42a2.82,2.82,0,0,1,2.55-2,2.71,2.71,0,0,1,2.55,2l4.67,13.29a3,3,0,0,1,.19.9,1.6,1.6,0,0,1-1.64,1.61A1.67,1.67,0,0,1,369.3,147l-.72-2.29H362l-.71,2.27a1.66,1.66,0,0,1-1.72,1.29,1.73,1.73,0,0,1-1.76-1.71,2,2,0,0,1,.17-.8Zm.27,8.86h4.52l-2.21-7.08h-.05Z"/><path class="cls-9" d="M209,96.45a3.21,3.21,0,0,1,3.27-3.36h8c5,0,9.85,3.36,9.85,10,0,5.75-3.43,10-9.65,10h-5v6.17c0,2.36-1.37,3.56-3.27,3.56s-3.27-1.2-3.27-3.56Zm6.54,10.69h3.51a4,4,0,0,0,4.33-4c0-2.65-1.74-4.06-4.33-4.06h-3.51Z"/><path class="cls-9" d="M241.78,110.74a5.92,5.92,0,1,0,11.83,0V96.41c0-2.36,1.37-3.56,3.27-3.56s3.27,1.2,3.27,3.56v14.33c0,7.79-5.21,12.51-12.48,12.51s-12.43-4.72-12.43-12.51V96.41c0-2.36,1.37-3.56,3.27-3.56s3.27,1.2,3.27,3.56Z"/><path class="cls-9" d="M266.33,96.41c0-2.36,1.38-3.56,3.27-3.56,1.74,0,2.34.78,4.53,3.6l10.86,14h.08v-14c0-2.36,1.37-3.56,3.27-3.56s3.27,1.2,3.27,3.56v22.86c0,2.36-1.37,3.56-3.27,3.56-1.74,0-2.38-.78-4.52-3.6l-10.87-14h-.08v14c0,2.36-1.37,3.56-3.27,3.56s-3.27-1.2-3.27-3.56Z"/><path class="cls-9" d="M302.51,99.31h-3.67c-2.18,0-3.39-1.24-3.39-3.11s1.21-3.1,3.39-3.1h13.89c2.18,0,3.39,1.16,3.39,3.1s-1.21,3.11-3.39,3.11h-3.67v20c0,2.36-1.38,3.56-3.27,3.56s-3.28-1.2-3.28-3.56Z"/><path class="cls-9" d="M347.5,107.84c0,9.36-5.61,15.41-14.14,15.41s-14.13-6-14.13-15.41,5.62-15.41,14.13-15.41,14.14,6,14.14,15.41m-21.24,0c0,4.68,2.06,9.2,7.1,9.2s7.11-4.52,7.11-9.2-2.06-9.19-7.11-9.19-7.1,4.51-7.1,9.19"/><path class="cls-9" d="M354.85,114.84c1.61,0,3.71,1.7,7.07,1.7,2.54,0,3.47-1.33,3.47-2.78,0-2.23-2.51-2.69-6.22-3.93-3.39-1.12-6.9-2.61-6.9-8,0-6.42,4.88-9.45,10.33-9.45,5.25,0,8.16,1.87,8.16,4.43a2.9,2.9,0,0,1-2.91,3.15c-2.1,0-2.78-1.12-5.57-1.12-1.78,0-3,1-3,2.41,0,1.69,1.62,1.9,6.14,3.43,3.55,1.2,7,3.07,7,8.66,0,6.79-4.88,9.86-11,9.86-3.84,0-9.65-1.53-9.65-4.85,0-1.82,1.09-3.56,3.07-3.56"/><path class="cls-9" d="M373.2,86.46a6.67,6.67,0,0,1,.56-2.71,7.2,7.2,0,0,1,1.5-2.21,7.08,7.08,0,0,1,2.21-1.5,6.63,6.63,0,0,1,2.71-.55,6.7,6.7,0,0,1,2.71.55,7.11,7.11,0,0,1,3.71,3.71,7,7,0,0,1,0,5.42,7.11,7.11,0,0,1-3.71,3.71,6.7,6.7,0,0,1-2.71.55,6.63,6.63,0,0,1-2.71-.55,7.08,7.08,0,0,1-2.21-1.5,7.2,7.2,0,0,1-1.5-2.21,6.71,6.71,0,0,1-.56-2.71m1.24,0a5.59,5.59,0,0,0,.45,2.23A5.73,5.73,0,0,0,378,91.75a5.75,5.75,0,0,0,4.46,0,5.78,5.78,0,0,0,1.83-1.23,5.92,5.92,0,0,0,1.22-1.83,5.75,5.75,0,0,0,0-4.46,5.92,5.92,0,0,0-1.22-1.83,5.78,5.78,0,0,0-1.83-1.23,5.75,5.75,0,0,0-4.46,0,5.73,5.73,0,0,0-3.06,3.06,5.59,5.59,0,0,0-.45,2.23m3.06-4h3.07a3.13,3.13,0,0,1,2.13.62,2.25,2.25,0,0,1,.68,1.78,2.09,2.09,0,0,1-.54,1.57,2.23,2.23,0,0,1-1.35.62l2.06,3.38H382l-2-3.27H379V90.4H377.5ZM379,85.9H380c.22,0,.45,0,.67,0a2.19,2.19,0,0,0,.61-.14,1.07,1.07,0,0,0,.44-.34,1,1,0,0,0-.44-1.57,1.66,1.66,0,0,0-.61-.13c-.22,0-.45,0-.67,0H379Z"/><g class="cls-10"><rect class="cls-11" x="37.56" y="37.56" width="181.38" height="181.38" transform="translate(-53.12 128.25) rotate(-45)"/></g><path class="cls-9" d="M90.09,198.24a22.81,22.81,0,0,1-22.7-22.88V118.82c0-.53,0-1,.06-1.52A61.14,61.14,0,0,1,86,75.5a60.29,60.29,0,0,1,42.28-17.24c33.56,0,60.87,27.52,60.87,61.34s-27.31,61.34-60.87,61.34a60.41,60.41,0,0,1-15.75-2.09,22.88,22.88,0,0,1-22.41,19.39M128.25,60.87A58.26,58.26,0,0,0,70,117.45c0,.47,0,.91,0,1.37v56.54a20.09,20.09,0,0,0,40.13,1.71l.13-1.59,1.52.45a57.72,57.72,0,0,0,16.49,2.4c32.14,0,58.28-26.34,58.28-58.73s-26.14-58.73-58.28-58.73"/><path class="cls-9" d="M130.91,89.81a29.78,29.78,0,0,1,19.28,7.08q6.9,5.6,6.9,11.58a8.94,8.94,0,0,1-4.21,7.89,9.13,9.13,0,0,1-5.22,1.61,9.34,9.34,0,0,1-4.42-1.1,29.2,29.2,0,0,1-4.38-4.28,11.06,11.06,0,0,0-16-.28,11.69,11.69,0,0,0,0,16,10.45,10.45,0,0,0,7.85,3.29,11.3,11.3,0,0,0,7.19-2.63q2.07-2,4.08-4a8.2,8.2,0,0,1,5.56-1.91,9.36,9.36,0,0,1,6.71,2.74,8.86,8.86,0,0,1,2.85,6.64q0,5.29-6.19,10.73a29.42,29.42,0,0,1-20,7.64A30.51,30.51,0,0,1,110.11,98a29.36,29.36,0,0,1,20.8-8.23"/><g class="cls-12"><g class="cls-13"><polygon class="cls-14" points="133.45 94.8 155.43 112.56 138.14 134.28 116.16 116.52 133.45 94.8"/></g></g><g class="cls-15"><g class="cls-16"><polygon class="cls-17" points="124.15 107.58 146.13 125.34 128.85 147.06 106.87 129.3 124.15 107.58"/></g></g><g class="cls-18"><g class="cls-19"><g class="cls-20"><g class="cls-21"><rect class="cls-22" x="72.57" y="43.47" width="124.32" height="124.36" transform="translate(-34.72 130.12) rotate(-46.32)"/></g></g></g></g><g class="cls-18"><g class="cls-23"><g class="cls-24"><g class="cls-25"><polygon class="cls-26" points="81.16 206.75 69.18 173.05 106.24 159.09 118.22 192.79 81.16 206.75"/></g></g></g></g><g class="cls-10"><g class="cls-18"><g class="cls-27"><g class="cls-28"><g class="cls-29"><polygon class="cls-30" points="96.69 68.65 190.28 146.85 113.38 240.3 19.79 162.09 96.69 68.65"/></g></g></g></g><g class="cls-31"><g class="cls-32"><g class="cls-33"><g class="cls-34"><polygon class="cls-35" points="150.29 10.47 222.82 69.08 165.4 141.25 92.87 82.64 150.29 10.47"/></g></g></g></g></g><path class="cls-9" d="M78.76,218.13a2.62,2.62,0,0,0-1.23-.85,4.5,4.5,0,0,0-1.47-.27,4,4,0,0,0-.83.09,3.83,3.83,0,0,0-.82.3,1.91,1.91,0,0,0-.62.54,1.48,1.48,0,0,0,.34,2,5.36,5.36,0,0,0,1.44.69c.58.19,1.21.39,1.88.58a7.62,7.62,0,0,1,1.87.81,4.53,4.53,0,0,1,1.45,1.41,4.29,4.29,0,0,1,.57,2.36,5.57,5.57,0,0,1-.52,2.46A5.2,5.2,0,0,1,79.39,230a6,6,0,0,1-2.08,1,9.13,9.13,0,0,1-2.49.34,8.93,8.93,0,0,1-3.06-.51,7.51,7.51,0,0,1-2.62-1.62l2.65-2.91a3.85,3.85,0,0,0,1.44,1.18,4,4,0,0,0,2.72.31,3.12,3.12,0,0,0,.84-.32,2,2,0,0,0,.6-.55,1.4,1.4,0,0,0,.22-.79,1.44,1.44,0,0,0-.58-1.21,5.61,5.61,0,0,0-1.47-.75c-.59-.21-1.23-.41-1.91-.62a8.39,8.39,0,0,1-1.91-.84,4.61,4.61,0,0,1-1.47-1.38,4,4,0,0,1-.58-2.27,5.07,5.07,0,0,1,.53-2.39A5.22,5.22,0,0,1,71.66,215a6.34,6.34,0,0,1,2.06-1,8.51,8.51,0,0,1,2.41-.34,9.47,9.47,0,0,1,2.77.4,6.46,6.46,0,0,1,2.42,1.36Z"/><rect class="cls-9" x="82.63" y="214" width="3.72" height="16.91"/><polygon class="cls-9" points="88.45 214 99.94 214 99.94 217.44 92.18 217.44 92.18 220.59 99.51 220.59 99.51 224.03 92.18 224.03 92.18 227.47 100.37 227.47 100.37 230.91 88.45 230.91 88.45 214"/><polygon class="cls-9" points="101.92 214 107.56 214 111.45 225.03 111.5 225.03 115.42 214 121.03 214 121.03 230.91 117.3 230.91 117.3 217.94 117.26 217.94 112.81 230.91 109.97 230.91 105.7 217.94 105.65 217.94 105.65 230.91 101.92 230.91 101.92 214"/><path class="cls-9" d="M123,214h6.29a12.35,12.35,0,0,1,2.48.24,5.64,5.64,0,0,1,2,.82,4.27,4.27,0,0,1,1.39,1.58,5.41,5.41,0,0,1,.51,2.49,5.76,5.76,0,0,1-.48,2.49,4.22,4.22,0,0,1-1.31,1.6,5.37,5.37,0,0,1-2,.84,11.53,11.53,0,0,1-2.49.26h-2.72v6.59H123Zm3.73,7.16h2.48a5.07,5.07,0,0,0,1-.09,2.59,2.59,0,0,0,.84-.33,1.68,1.68,0,0,0,.59-.62,1.86,1.86,0,0,0,.23-1,1.69,1.69,0,0,0-.3-1,2.08,2.08,0,0,0-.76-.61,3.38,3.38,0,0,0-1-.27,10.56,10.56,0,0,0-1.1-.06h-1.91Z"/><path class="cls-9" d="M136.65,214h6.54a11.44,11.44,0,0,1,2.45.25,5.86,5.86,0,0,1,2,.83,4.16,4.16,0,0,1,1.38,1.58,5.38,5.38,0,0,1,.52,2.47,4.92,4.92,0,0,1-.94,3.05,4.23,4.23,0,0,1-2.72,1.59l4.3,7.14h-4.47l-3.53-6.76h-1.84v6.76h-3.72Zm3.72,7h2.2c.33,0,.69,0,1.06,0a3.31,3.31,0,0,0,1-.22,1.66,1.66,0,0,0,.75-.56,1.68,1.68,0,0,0,.3-1.07,1.85,1.85,0,0,0-.26-1,1.78,1.78,0,0,0-.67-.58,3,3,0,0,0-.94-.28,7.19,7.19,0,0,0-1-.07h-2.44Z"/><polygon class="cls-9" points="150.83 214 162.32 214 162.32 217.44 154.56 217.44 154.56 220.59 161.89 220.59 161.89 224.03 154.56 224.03 154.56 227.47 162.75 227.47 162.75 230.91 150.83 230.91 150.83 214"/><path class="cls-9" d="M169.94,214h6.28a12.35,12.35,0,0,1,2.48.24,5.64,5.64,0,0,1,2,.82,4.27,4.27,0,0,1,1.39,1.58,5.41,5.41,0,0,1,.51,2.49,5.76,5.76,0,0,1-.48,2.49,4.13,4.13,0,0,1-1.31,1.6,5.37,5.37,0,0,1-2,.84,11.53,11.53,0,0,1-2.49.26h-2.72v6.59h-3.72Zm3.72,7.16h2.48a5.07,5.07,0,0,0,1-.09,2.59,2.59,0,0,0,.84-.33,1.68,1.68,0,0,0,.59-.62,1.86,1.86,0,0,0,.23-1,1.69,1.69,0,0,0-.3-1,2.08,2.08,0,0,0-.76-.61,3.38,3.38,0,0,0-1-.27,10.56,10.56,0,0,0-1.1-.06h-1.91Z"/><path class="cls-9" d="M197.8,224.39a8.25,8.25,0,0,1-.45,2.77,6,6,0,0,1-1.35,2.19,6.09,6.09,0,0,1-2.23,1.46,8.39,8.39,0,0,1-3.08.53,8.48,8.48,0,0,1-3.11-.53,6.09,6.09,0,0,1-2.23-1.46,6,6,0,0,1-1.35-2.19,8.25,8.25,0,0,1-.45-2.77V214h3.72v10.24a4.3,4.3,0,0,0,.25,1.46,3.42,3.42,0,0,0,.71,1.16,3.2,3.2,0,0,0,1.08.76,3.34,3.34,0,0,0,1.38.28,3.28,3.28,0,0,0,2.43-1,3.42,3.42,0,0,0,.71-1.16,4.07,4.07,0,0,0,.25-1.46V214h3.72Z"/><polygon class="cls-9" points="199.95 214 211.44 214 211.44 217.44 203.68 217.44 203.68 220.59 211.01 220.59 211.01 224.03 203.68 224.03 203.68 227.47 211.87 227.47 211.87 230.91 199.95 230.91 199.95 214"/><path class="cls-9" d="M213.42,214H219a16.13,16.13,0,0,1,3.86.45,8.7,8.7,0,0,1,3.18,1.47,7.31,7.31,0,0,1,2.17,2.64,8.9,8.9,0,0,1,.8,3.94,8,8,0,0,1-.78,3.62,7.68,7.68,0,0,1-2.09,2.62,9.39,9.39,0,0,1-3,1.62,12,12,0,0,1-3.61.55h-6.09Zm3.73,13.47h1.93a10.14,10.14,0,0,0,2.4-.27,5,5,0,0,0,1.92-.87,4.15,4.15,0,0,0,1.28-1.6,5.67,5.67,0,0,0,.47-2.42,4.71,4.71,0,0,0-.47-2.16,4.33,4.33,0,0,0-1.25-1.52,5.39,5.39,0,0,0-1.85-.89,8.24,8.24,0,0,0-2.24-.3h-2.19Z"/><polygon class="cls-9" points="230.26 214 241.74 214 241.74 217.44 233.98 217.44 233.98 220.59 241.31 220.59 241.31 224.03 233.98 224.03 233.98 227.47 242.17 227.47 242.17 230.91 230.26 230.91 230.26 214"/><path class="cls-9" d="M252.08,218.13a2.62,2.62,0,0,0-1.23-.85,4.4,4.4,0,0,0-1.46-.27,4.07,4.07,0,0,0-.84.09,3.56,3.56,0,0,0-.81.3,1.81,1.81,0,0,0-.62.54,1.49,1.49,0,0,0,.33,2,5.29,5.29,0,0,0,1.45.69c.58.19,1.2.39,1.87.58a7.85,7.85,0,0,1,1.88.81,4.41,4.41,0,0,1,1.44,1.41,4.29,4.29,0,0,1,.57,2.36,5.44,5.44,0,0,1-.52,2.46,5.17,5.17,0,0,1-1.42,1.75,6,6,0,0,1-2.08,1,9.26,9.26,0,0,1-2.5.34,8.92,8.92,0,0,1-3-.51,7.54,7.54,0,0,1-2.63-1.62l2.65-2.91a3.8,3.8,0,0,0,1.45,1.18,4.09,4.09,0,0,0,1.8.42,4.2,4.2,0,0,0,.92-.11,2.93,2.93,0,0,0,.83-.32,1.87,1.87,0,0,0,.6-.55,1.41,1.41,0,0,0,.23-.79,1.45,1.45,0,0,0-.59-1.21,5.61,5.61,0,0,0-1.47-.75c-.59-.21-1.22-.41-1.91-.62a8.39,8.39,0,0,1-1.91-.84,4.72,4.72,0,0,1-1.47-1.38,4,4,0,0,1-.58-2.27,5.07,5.07,0,0,1,.54-2.39A5.19,5.19,0,0,1,245,215a6.4,6.4,0,0,1,2.07-1,8.46,8.46,0,0,1,2.41-.34,9.52,9.52,0,0,1,2.77.4,6.5,6.5,0,0,1,2.41,1.36Z"/><polygon class="cls-9" points="264.91 217.29 260.08 217.29 260.08 214 273.46 214 273.46 217.29 268.63 217.29 268.63 230.91 264.91 230.91 264.91 217.29"/><polygon class="cls-9" points="274.05 214 285.54 214 285.54 217.44 277.78 217.44 277.78 220.59 285.11 220.59 285.11 224.03 277.78 224.03 277.78 227.47 285.97 227.47 285.97 230.91 274.05 230.91 274.05 214"/><polygon class="cls-9" points="287.52 214 292.58 214 299.77 225.75 299.82 225.75 299.82 214 303.55 214 303.55 230.91 298.68 230.91 291.3 218.87 291.25 218.87 291.25 230.91 287.52 230.91 287.52 214"/><polygon class="cls-9" points="305.69 214 317.18 214 317.18 217.44 309.42 217.44 309.42 220.59 316.75 220.59 316.75 224.03 309.42 224.03 309.42 227.47 317.61 227.47 317.61 230.91 305.69 230.91 305.69 214"/><path class="cls-9" d="M319.16,214h6.55a11.44,11.44,0,0,1,2.45.25,5.81,5.81,0,0,1,2,.83,4.1,4.1,0,0,1,1.39,1.58,5.38,5.38,0,0,1,.51,2.47,5,5,0,0,1-.93,3.05,4.25,4.25,0,0,1-2.72,1.59l4.3,7.14h-4.47l-3.53-6.76h-1.84v6.76h-3.73Zm3.73,7h2.2c.33,0,.69,0,1.06,0a3.18,3.18,0,0,0,1-.22,1.63,1.63,0,0,0,.76-.56,1.75,1.75,0,0,0,.29-1.07,1.77,1.77,0,0,0-.26-1,1.71,1.71,0,0,0-.67-.58,2.89,2.89,0,0,0-.93-.28,7.19,7.19,0,0,0-1-.07h-2.44Z"/><polygon class="cls-9" points="338.84 214 344.48 214 348.37 225.03 348.42 225.03 352.33 214 357.95 214 357.95 230.91 354.22 230.91 354.22 217.94 354.17 217.94 349.73 230.91 346.89 230.91 342.61 217.94 342.57 217.94 342.57 230.91 338.84 230.91 338.84 214"/><path class="cls-9" d="M365.52,214h3.08L376,230.91h-4.2l-1.46-3.59h-6.57l-1.4,3.59h-4.11Zm1.6-4.68H372l-4.13,3.44H364.7Zm-.17,9.6-2.06,5.25H369Z"/><path class="cls-9" d="M384.57,218.13a2.62,2.62,0,0,0-1.23-.85,4.41,4.41,0,0,0-1.47-.27,4,4,0,0,0-.83.09,3.56,3.56,0,0,0-.81.3,1.72,1.72,0,0,0-.62.54,1.49,1.49,0,0,0,.33,2,5.36,5.36,0,0,0,1.44.69c.58.19,1.21.39,1.88.58a7.62,7.62,0,0,1,1.87.81,4.44,4.44,0,0,1,1.45,1.41,4.29,4.29,0,0,1,.57,2.36,5.44,5.44,0,0,1-.52,2.46,5.17,5.17,0,0,1-1.42,1.75,6,6,0,0,1-2.08,1,9.26,9.26,0,0,1-2.5.34,8.83,8.83,0,0,1-3.05-.51,7.54,7.54,0,0,1-2.63-1.62l2.65-2.91a3.85,3.85,0,0,0,1.44,1.18,4,4,0,0,0,2.73.31,2.93,2.93,0,0,0,.83-.32,1.87,1.87,0,0,0,.6-.55,1.41,1.41,0,0,0,.23-.79,1.45,1.45,0,0,0-.59-1.21,5.61,5.61,0,0,0-1.47-.75c-.59-.21-1.22-.41-1.91-.62a8.39,8.39,0,0,1-1.91-.84,4.61,4.61,0,0,1-1.47-1.38,4,4,0,0,1-.58-2.27,4.95,4.95,0,0,1,2-4.11,6.34,6.34,0,0,1,2.06-1,8.52,8.52,0,0,1,2.42-.34,9.57,9.57,0,0,1,2.77.4,6.5,6.5,0,0,1,2.41,1.36Z"/></g></g></g></svg>