<?xml version="1.0" encoding="UTF-8"?>
<svg width="52px" height="48px" viewBox="0 0 52 48" version="1.1" xmlns="http://www.w3.org/2000/svg" xmlns:xlink="http://www.w3.org/1999/xlink">
    <!-- Generator: Sketch 64 (93537) - https://sketch.com -->
    <title>img-01</title>
    <desc>Created with Sketch.</desc>
    <g id="Welcome" stroke="none" stroke-width="1" fill="none" fill-rule="evenodd">
        <g id="HOME---Servicios---Ventas-Empresariales---Desktop-HD-Copy" transform="translate(-453.000000, -640.000000)" fill="#E2241C" fill-rule="nonzero">
            <g id="img-01" transform="translate(453.000000, 640.000000)">
                <path d="M51.6831599,20.3182837 C51.6409098,20.0879961 51.5197457,19.8793423 51.3400815,19.7281087 C49.6582054,18.311911 49.3742364,16.750343 49.1460253,15.4956903 L49.1161659,15.3322246 C49.0373534,14.9039989 48.6918375,14.5740346 48.2587747,14.5133795 C48.1092746,14.4924534 47.9510401,14.4817377 47.7884385,14.4817377 C46.8218675,14.4817377 45.4601166,14.8871165 44.5967332,15.7925975 C44.4494675,15.9471671 44.3549127,16.1440943 44.3266783,16.3552755 C44.2540611,16.8985439 44.2166861,17.3957143 44.1837798,17.8343524 C44.0593656,19.4873075 43.9493734,19.662601 43.4434902,19.821922 C43.1264119,19.9218009 42.8785992,20.1697796 42.779982,20.4857931 C42.303552,22.0124844 41.671325,23.4734658 40.9061526,24.8518551 C40.5282383,24.1336976 40.110613,23.4877198 39.721933,22.8866268 C38.7713074,21.4165471 38.0203538,20.2552023 38.2769008,18.8159556 C39.108292,14.1511669 38.6862995,10.6372093 37.0222984,8.37153561 C36.0956415,7.10980648 34.7755313,6.24961474 33.1712489,5.84777408 C33.4905616,3.36778539 35.2220003,2.24344028 36.1804463,1.98777863 C36.7222826,1.84331818 37.0438297,1.28892971 36.8985952,0.749603941 C36.7533607,0.210379267 36.1963916,-0.109981249 35.6547584,0.0347824807 C33.6758118,0.56258376 31.56199,2.50021393 31.1582788,5.59504411 C29.5373402,5.59049497 28.0651908,6.08321733 26.8537525,7.04662399 C24.6400947,8.80714099 23.3026173,12.07868 22.8783904,16.770157 C22.7507263,18.1819067 21.83321,19.0056042 20.5631701,20.1454164 C19.526521,21.0758671 18.3717546,22.1146884 17.4467227,23.6851524 C16.2944954,23.2181074 15.0584789,22.9151347 13.7678218,22.8054499 C14.1336502,20.4245314 15.8160341,19.3373881 16.7558941,19.0867811 C17.2977304,18.9423206 17.6192775,18.3879321 17.474043,17.8487075 C17.3288086,17.3093817 16.7718394,16.9891223 16.2302063,17.133886 C15.7198544,17.2699558 15.2007681,17.500951 14.7040255,17.8201995 C14.4729707,16.6850376 13.9139703,15.6203367 13.0675479,14.7779372 C11.9335002,13.649144 10.4256008,13.0275294 8.8217247,13.0275294 C8.29674778,13.0275294 7.77390368,13.0957665 7.26761428,13.2302188 C6.91651248,13.3235267 6.64219198,13.5965762 6.54844973,13.9460512 C5.99666029,16.0028688 6.59242632,18.2149638 8.10327109,19.7191115 C9.15454524,20.7655147 10.5275696,21.3750994 12.0002268,21.4587024 C11.8718518,21.8770211 11.7763829,22.3222302 11.7209298,22.7943298 C5.1753238,23.2838172 0,28.7411672 0,35.3792716 C0,42.3383431 5.68801165,48 12.6793757,48 C15.2777525,48 17.7528323,47.2312965 19.8717321,45.7731456 C20.2054667,45.9189203 20.5403185,46.059236 20.8766938,46.1912621 C23.9333208,47.3913251 27.0224479,48 30.0580515,48 C34.9407736,48 39.4724954,46.4119459 43.1632791,43.4075931 C47.0209301,40.2673726 49.8640727,35.6208815 51.3850737,29.9704458 C51.88141,28.1275388 52.3192462,23.7852335 51.6831599,20.3182837 Z M21.9236007,21.6470368 C23.2897188,20.420791 24.7023526,19.1527941 24.9015168,16.9515161 C25.2741499,12.8305011 26.3575178,10.0294442 28.1217612,8.62638851 C29.1690744,7.79349161 30.4635909,7.47232236 31.9697637,7.67268668 C33.4572491,7.87032152 34.6055155,8.50689778 35.3825707,9.56492655 C36.7069466,11.3682055 37.0078765,14.3619437 36.2768291,18.4628413 C35.8810398,20.6829225 36.9653218,22.3595332 38.0138538,23.9810487 C38.6014948,24.8897646 39.2064014,25.8267862 39.6177298,26.9173666 C36.1947666,31.8375138 31.0007553,35.4255717 25.2855249,36.7394643 C25.3342749,36.2883919 25.3590562,35.8339834 25.3590562,35.3792716 C25.3590562,30.819113 22.9163748,26.8161735 19.2652005,24.5981142 C20.0250916,23.3532674 20.9872954,22.4875156 21.9236007,21.6470368 Z M9.53936581,18.2893675 C8.68613867,17.4399926 8.27399777,16.2490278 8.39851348,15.0715083 C8.53887295,15.0567489 8.67994335,15.049167 8.82152157,15.049167 C9.88274885,15.049167 10.8806011,15.4605103 11.6309453,16.2073779 C12.484274,17.0567528 12.8965165,18.2478186 12.7718992,19.4252371 C12.6316413,19.4399965 12.4904694,19.4474773 12.3491958,19.4474773 L12.3489927,19.4474773 C11.2874607,19.4475784 10.2897101,19.0362351 9.53936581,18.2893675 Z M12.6793757,45.9781602 C6.80794209,45.9781602 2.03125137,41.2236017 2.03125137,35.3792716 C2.03125137,29.5349415 6.80794209,24.780383 12.6793757,24.780383 C18.5509109,24.780383 23.3277032,29.5349415 23.3277032,35.3792716 C23.3277032,35.9619658 23.2798673,36.5436492 23.1853125,37.1159309 C22.5319605,37.1998373 21.8741398,37.2531127 21.2132721,37.2755552 C21.3524128,36.655558 21.4251316,36.0220145 21.4251316,35.3792716 C21.4251316,34.2407736 21.2050455,33.1293683 20.7710687,32.0760908 C20.5582951,31.559713 19.9652713,31.312442 19.4459819,31.5244319 C18.9270987,31.7363207 18.6788798,32.326799 18.8917549,32.8433791 C19.2249817,33.6520139 19.3938803,34.5051292 19.3938803,35.3792716 C19.3938803,36.0149381 19.303388,36.6393833 19.126466,37.2440145 C17.6729025,37.1509087 16.2172062,36.9118262 14.7829397,36.5292941 C14.4908457,36.4513522 14.1788455,36.5071549 13.93215,36.6814375 C13.0294619,37.319328 12.1196644,38.1216951 11.5801641,39.660113 C11.4411249,40.0565958 11.5627969,40.4973569 11.8858674,40.7674747 C13.7515718,42.3274252 15.7008621,43.6498095 17.7087541,44.7233053 C16.1718078,45.5473061 14.4604785,45.9781602 12.6793757,45.9781602 Z M49.423088,29.4472947 C46.6365158,39.7984069 39.3973391,45.9781602 30.0581531,45.9781602 C24.6060713,45.9781602 18.8510283,43.7532266 13.7784859,39.6984269 C14.047322,39.2180377 14.3797363,38.8873659 14.7369318,38.605117 C16.6440737,39.0734762 18.5835125,39.310638 20.5094435,39.310638 C25.960205,39.310638 31.2159664,37.4617666 35.708485,33.9638827 C37.9925256,32.1855735 39.9720816,30.0427266 41.557778,27.6666604 C41.5766687,27.6411853 41.5944421,27.6149013 41.6107937,27.5878087 C42.8625523,25.6974896 43.865178,23.6607892 44.5722566,21.5429121 C45.995656,20.8300113 46.1042264,19.3860134 46.2095468,17.9852828 C46.2336171,17.6651244 46.2582968,17.3367776 46.2959765,16.9903354 C46.566133,16.7956322 46.924141,16.6414669 47.2830631,16.5622108 C47.5537274,17.8475955 48.0800246,19.4975178 49.7431117,21.0210752 C50.213651,23.9994474 49.8719946,27.7795802 49.423088,29.4472947 Z" id="Shape"></path>
                <path d="M32.212377,10.0761659 C31.7674534,9.86766372 31.2549609,10.1018864 31.0682504,10.599964 C30.8815398,11.0980417 31.0910647,11.6711292 31.5363379,11.8800226 C32.1722552,12.178302 32.5233864,14.3250332 31.9641289,17.850891 C31.8797769,18.3827084 32.1967303,18.8903701 32.6721604,18.9847437 C32.7238205,18.9950124 32.7752184,19 32.8259169,19 C33.2417325,19 33.6104334,18.6667095 33.6856071,18.1927876 C34.1857746,15.039828 34.3361221,11.0723212 32.212377,10.0761659 Z" id="Path"></path>
                <path d="M39.8009483,38.397839 C39.472039,37.9578446 38.8486701,37.8695271 38.4100582,38.1995976 C38.4096611,38.1997967 38.4053921,38.2029829 38.4050943,38.2031821 C37.9629084,38.5278758 37.8686932,39.1491849 38.1920429,39.5928633 C38.3861321,39.8591102 38.6881369,40 38.9942122,40 C39.19813,40 39.403934,39.9374708 39.5808481,39.8078323 L39.6035829,39.7910052 C40.0421947,39.4610343 40.1299568,38.8378334 39.8009483,38.397839 Z" id="Path"></path>
                <path d="M37.8758031,40.5748249 C37.5912399,40.0560573 36.9101874,39.8505974 36.3542885,40.1159962 C32.4847031,41.963552 29.21997,41.8904222 29.1718079,41.8884172 C28.5503362,41.8682617 28.0253018,42.3203367 28.0008816,42.901787 C27.9764614,43.4840816 28.4623783,43.9746737 29.0863372,43.9974674 C29.1036348,43.9981005 29.1644593,44 29.2654187,44 C30.0734337,44 33.4410482,43.8774839 37.3840073,41.9947878 C37.9399062,41.7296 38.1600272,41.0936981 37.8758031,40.5748249 Z" id="Path"></path>
                <path d="M18.7147901,29.3195879 L18.6823317,29.2870314 C18.2960857,28.9029626 17.6714821,28.9044424 17.2871106,29.2907803 C16.9028378,29.6771182 16.904515,30.3018097 17.2908596,30.6860758 L17.3120711,30.7072869 C17.5050461,30.902429 17.759189,31 18.0134306,31 C18.2641205,31 18.5150077,30.904994 18.7072921,30.7147848 C19.0946233,30.3317025 19.0979777,29.7069124 18.7147901,29.3195879 Z" id="Path"></path>
            </g>
        </g>
    </g>
</svg>