<?xml version="1.0" encoding="UTF-8"?>
<svg width="48px" height="37px" viewBox="0 0 48 37" version="1.1" xmlns="http://www.w3.org/2000/svg" xmlns:xlink="http://www.w3.org/1999/xlink">
    <!-- Generator: Sketch 64 (93537) - https://sketch.com -->
    <title>img-02</title>
    <desc>Created with Sketch.</desc>
    <g id="Welcome" stroke="none" stroke-width="1" fill="none" fill-rule="evenodd">
        <g id="HOME---Servicios---Ventas-Empresariales---Desktop-HD-Copy" transform="translate(-456.000000, -730.000000)" fill="#E2241C" fill-rule="nonzero">
            <g id="img-02" transform="translate(480.000000, 748.500000) scale(-1, 1) translate(-480.000000, -748.500000) translate(456.000000, 730.000000)">
                <path d="M45.1883314,6.06554753 C46.1955821,5.38083035 46.9995826,4.23152776 47.3720516,2.8227604 C47.4363641,2.57935185 47.4027078,2.31998208 47.2783953,2.10184546 C47.1540827,1.88361383 46.9493325,1.72438169 46.7091449,1.65920673 L40.7184223,0.0323977484 C40.4783284,-0.0328722257 40.2223907,0.00133038079 40.0070468,0.127309982 C39.7917029,0.253289582 39.6345778,0.460785395 39.5702653,0.704193945 C39.1976088,2.11362636 39.3431089,3.51536318 39.8751405,4.61488197 C37.0224199,4.99139567 34.6171684,7.08288506 33.8568554,9.95856421 C32.7103859,14.2943146 29.9670716,17.9177958 26.1320379,20.1615818 C23.61063,21.6368542 20.7478782,22.4165786 17.8536263,22.4165786 C16.4084692,22.4165786 14.960687,22.2223838 13.5504986,21.8395046 C12.9396232,21.673622 12.3119665,21.5895406 11.6848724,21.5895406 C9.40252715,21.5895406 7.31471331,22.6882993 5.98252496,24.4454582 C5.92871242,24.3645121 5.87283738,24.2839459 5.81283735,24.2047099 C5.10193064,23.2661334 4.0267112,22.5636498 2.78536665,22.2265641 C2.54527275,22.1614842 2.28942883,22.1954968 2.07399119,22.3214764 C1.8586473,22.447456 1.7015222,22.6549518 1.63720966,22.8983603 L0.0319273799,28.969608 C-0.0323851615,29.2130166 0.00127111015,29.4723863 0.12558369,29.690523 C0.24989627,29.9087546 0.454646402,30.0679867 0.694834056,30.1331617 C1.21570939,30.2746275 1.74586598,30.3463579 2.27067882,30.3463579 C3.11377311,30.3463579 3.89442986,30.1620439 4.55714904,29.8319887 C4.92877428,32.6660547 6.93624432,35.1385231 9.82674618,35.9232829 C12.4577479,36.6377374 15.1605621,37 17.8595326,37 C23.2674111,37 28.6153833,35.543349 33.3252925,32.787569 C40.4891096,28.5960395 45.6133942,21.8287688 47.7541768,13.7321568 C48.5279898,10.8051737 47.4212703,7.80921541 45.1883314,6.06554753 Z M4.73996166,26.9945025 C4.51027401,27.8628687 3.51792962,28.4462131 2.27067882,28.4462131 C2.21799129,28.4462131 2.16521,28.445168 2.11233497,28.4429829 L3.1793044,24.4075503 C3.6418672,24.6530491 4.0349612,24.9781638 4.32558639,25.3618031 C4.7299304,25.8958388 4.87721174,26.475668 4.73996166,26.9945025 Z M41.2401414,2.14117846 L45.2165502,3.22093574 C44.7076749,4.19437993 43.8712368,4.85458524 43.0524238,4.85458524 C42.9219237,4.85458524 42.7925486,4.83738893 42.6673923,4.80347135 C41.7532355,4.55531243 41.1933601,3.4316618 41.2401414,2.14117846 Z M45.9430194,13.2403993 C43.9318931,20.846679 39.1178275,27.2042785 32.3876982,31.1420436 C27.9623203,33.7311809 22.9386296,35.0999502 17.8594388,35.0999502 C15.3242497,35.0999502 12.7848418,34.7594443 10.3119027,34.0879331 C7.47915092,33.3187545 5.79193108,30.3573788 6.55093157,27.48645 C7.17315072,25.1333107 9.28412083,23.4897804 11.6847786,23.4897804 C12.1480914,23.4897804 12.612623,23.5521052 13.0652483,23.6750445 C14.633593,24.100867 16.2445941,24.3168184 17.8536263,24.3168184 C21.0765659,24.3168184 24.2634117,23.4490223 27.0695385,21.8072022 C31.33826,19.3096518 34.391887,15.2763095 35.667919,10.4503217 C36.2900444,8.09718235 38.4010145,6.4536521 40.8015786,6.4536521 C41.2647039,6.4536521 41.7290479,6.51588185 42.1815795,6.63872621 C42.181767,6.63882122 42.1818607,6.63882122 42.1820482,6.63882122 C42.182142,6.63882122 42.1823295,6.63891622 42.182517,6.63891622 C45.0149875,7.40847487 46.7019261,10.3696605 45.9430194,13.2403993 Z" id="Shape"></path>
                <path d="M12.271595,25.0395704 C12.2710979,25.0394705 12.2598622,25.036376 12.2593651,25.0362762 C11.7306918,24.8895359 11.1825302,25.2011843 11.0361681,25.7326435 C10.8899055,26.2640029 11.2004277,26.8138296 11.729797,26.9606696 C11.7310896,26.9609691 11.7381491,26.9629656 11.7409332,26.9637641 C11.8294266,26.9883207 11.9184171,27 12.0060155,27 C12.4415222,27 12.8412337,26.7105125 12.9634341,26.2686946 C13.1104922,25.7373352 12.8007654,25.1871092 12.271595,25.0395704 Z" id="Path"></path>
                <path d="M43.3614949,14.0612354 C42.8516127,13.876346 42.2830609,14.1242572 42.0910785,14.6147646 C41.5556578,15.9825474 40.8974748,17.3139787 40.1345742,18.5724224 C39.8600601,19.0251546 40.0189115,19.6063982 40.4892535,19.8705395 C40.6455411,19.9583335 40.8165208,20 40.9852325,20 C41.324431,20 41.6545578,19.8314356 41.8377644,19.5291395 C42.6560805,18.1792952 43.3621851,16.7510532 43.9363573,15.283992 C44.1284383,14.7934847 43.8710814,14.2460299 43.3614949,14.0612354 Z" id="Path"></path>
                <path d="M44.257396,11.0333898 C43.7264175,10.8922565 43.1800801,11.2118468 43.0368635,11.740848 C43.0364646,11.7422414 43.0339713,11.7515972 43.0335723,11.7530901 C42.8924501,12.2835842 43.2092021,12.8239317 43.7403801,12.9660603 C43.8261505,12.9889522 43.9124195,13 43.9971926,13 C44.4377132,13 44.8420308,12.7047945 44.9624085,12.2605928 L44.9674949,12.2416821 C45.1062235,11.7112876 44.7880753,11.1742246 44.257396,11.0333898 Z" id="Path"></path>
                <path d="M21.9903109,26.7563631 C21.9198482,26.2707008 21.4862642,25.9366691 21.0212784,26.0101276 C20.6533915,26.0682897 20.2791221,26.1151573 19.9091077,26.1492186 C18.5973778,26.2699894 17.2699044,26.2391297 15.9632805,26.0575288 C15.4973586,25.9929636 15.0694763,26.3349993 15.0075235,26.8218177 C14.9455708,27.308725 15.2730352,27.7558793 15.7389572,27.8206225 C16.5989768,27.9401482 17.4673362,28 18.3352701,28 C18.9107157,28 19.4859059,27.9736759 20.058373,27.9210276 C20.4636187,27.8837648 20.8732896,27.8324505 21.2761526,27.7687746 C21.7408831,27.6952271 22.0606035,27.2420254 21.9903109,26.7563631 Z" id="Path"></path>
            </g>
        </g>
    </g>
</svg>