<?xml version="1.0" encoding="UTF-8"?>
<svg width="49px" height="69px" viewBox="0 0 49 69" version="1.1" xmlns="http://www.w3.org/2000/svg" xmlns:xlink="http://www.w3.org/1999/xlink">
    <!-- Generator: Sketch 64 (93537) - https://sketch.com -->
    <title>img-08</title>
    <desc>Created with Sketch.</desc>
    <g id="Welcome" stroke="none" stroke-width="1" fill="none" fill-rule="evenodd">
        <g id="HOME---Servicios---Ventas-Empresariales---Desktop-HD-Copy" transform="translate(-940.000000, -1936.000000)" fill="#E2241C" fill-rule="nonzero">
            <g id="img-08" transform="translate(940.000000, 1936.000000)">
                <path d="M9.49977008,26 C8.87328629,26 8.29576768,25.5948305 8.08563802,25.0038269 C7.87565856,24.4129736 8.06025423,23.7345363 8.54690191,23.3368783 C9.04030858,22.9336618 9.75075411,22.8882925 10.2922247,23.2230042 C10.8320432,23.5565141 11.1073596,24.2220316 10.9610649,24.8396259 C10.8023036,25.5105517 10.1908398,26 9.49977008,26 L9.49977008,26 Z" id="Path"></path>
                <path d="M47.6458521,0 L6.95898456,0 C3.12175836,0 0,3.09569919 0,6.90080418 L0,57.5603831 C0,61.3654881 3.12175836,64.4611873 6.95884913,64.4611873 L8.33222779,64.4611873 L8.33222779,67.6523005 C8.33222779,68.1467553 8.6043033,68.601589 9.04119508,68.8371591 C9.24298329,68.9460497 9.46495032,69 9.68651106,69 C9.94450202,69 10.2018158,68.9266434 10.4258143,68.781501 L15.5107417,65.4845968 L20.5955336,68.781501 C21.0118403,69.0513016 21.543261,69.072864 21.9801528,68.8371591 C22.4170446,68.601589 22.6891201,68.1467553 22.6891201,67.6523005 L22.6891201,64.4611873 L47.6457167,64.4611873 C48.3936874,64.4611873 49,63.8577072 49,63.1135319 L49,62.9553172 C49,62.3336437 48.5727236,61.7926949 47.9655984,61.6458004 C46.0601219,61.1847675 44.7292677,59.5047803 44.7292677,57.5603831 C44.7292677,55.6159859 46.0601219,53.935864 47.9655984,53.4751006 C48.5725882,53.3283409 49,52.7872573 49,52.1655838 L49,1.34765539 C49,0.603480083 48.3938228,0 47.6458521,0 Z M6.95898456,2.69531078 L8.33236322,2.69531078 L8.33236322,18.9252594 C8.33236322,19.6694347 8.93867584,20.2729148 9.68664649,20.2729148 C10.4346171,20.2729148 11.0409298,19.6694347 11.0409298,18.9252594 L11.0409298,2.69531078 L46.2917043,2.69531078 L46.2917043,50.6595789 L11.0407943,50.6595789 L11.0407943,31.1096813 C11.0407943,30.365506 10.4344817,29.7620259 9.68651106,29.7620259 C8.93854041,29.7620259 8.33222779,30.365506 8.33222779,31.1096813 L8.33222779,50.6595789 L6.95884913,50.6595789 C5.35971145,50.6595789 3.88489698,51.1971587 2.70856653,52.0998183 L2.70856653,6.90080418 C2.70856653,4.58189356 4.61539737,2.69531078 6.95898456,2.69531078 Z M19.980689,65.1657415 L16.2501803,62.7469697 C15.8008291,62.4556066 15.2209251,62.4556066 14.7715739,62.7469697 L11.0409298,65.1657415 L11.0409298,58.9080385 L19.980689,58.9080385 L19.980689,65.1657415 Z M43.4548871,61.7658765 L22.6892555,61.7658765 L22.6892555,58.9080385 L36.1008582,58.9080385 C36.8488288,58.9080385 37.4551414,58.3045584 37.4551414,57.5603831 C37.4551414,56.8162078 36.8488288,56.2127277 36.1008582,56.2127277 L9.68651106,56.2127277 C8.93854041,56.2127277 8.33222779,56.8162078 8.33222779,57.5603831 L8.33222779,61.7658765 L6.95884913,61.7658765 C4.61526194,61.7658765 2.70856653,59.8792938 2.70856653,57.5603831 C2.70856653,55.2414725 4.61526194,53.3548897 6.95884913,53.3548897 L43.4548871,53.3548897 C42.5477882,54.5276194 42.0207012,55.9914427 42.0207012,57.5603831 C42.0207012,59.1293235 42.5479236,60.5931468 43.4548871,61.7658765 Z" id="Shape"></path>
            </g>
        </g>
    </g>
</svg>