<?xml version="1.0" encoding="UTF-8"?>
<svg width="32px" height="52px" viewBox="0 0 32 52" version="1.1" xmlns="http://www.w3.org/2000/svg" xmlns:xlink="http://www.w3.org/1999/xlink">
    <!-- Generator: Sketch 64 (93537) - https://sketch.com -->
    <title>img-04</title>
    <desc>Created with Sketch.</desc>
    <g id="Welcome" stroke="none" stroke-width="1" fill="none" fill-rule="evenodd">
        <g id="HOME---Servicios---Ventas-Empresariales---Desktop-HD-Copy" transform="translate(-464.000000, -897.000000)" fill="#E2241C" fill-rule="nonzero">
            <g id="img-04" transform="translate(464.000000, 897.000000)">
                <path d="M28,0 L4,0 C1.7941406,0 0,1.82217405 0,4.0625 L0,43.875 C0,46.115326 1.7941406,47.9375 4,47.9375 L5,47.9375 L5,48.953125 C5,50.6328735 6.3460938,52 8,52 L9,52 C10.103125,52 11,51.0891113 11,49.96875 L11,47.9375 L21,47.9375 L21,49.96875 C21,51.0891113 21.896875,52 23,52 L24,52 C25.6539062,52 27,50.6328735 27,48.953125 L27,47.9375 L28,47.9375 C30.2058594,47.9375 32,46.115326 32,43.875 L32,4.0625 C32,1.82217405 30.2058594,0 28,0 Z M9,49.96875 L8,49.96875 C7.4488281,49.96875 7,49.512909 7,48.953125 L7,47.9375 L9,47.9375 L9.0011719,49.96875 C9.0011719,49.96875 9.0011719,49.96875 9,49.96875 Z M25,48.953125 C25,49.512909 24.5511719,49.96875 24,49.96875 L23,49.96875 L23,47.9375 L25,47.9375 L25,48.953125 Z M30,43.875 C30,44.9953613 29.103125,45.90625 28,45.90625 L4,45.90625 C2.896875,45.90625 2,44.9953613 2,43.875 L2,19.5 L30,19.5 L30,43.875 Z M30,17.46875 L2,17.46875 L2,4.0625 C2,2.94213867 2.896875,2.03125 4,2.03125 L28,2.03125 C29.103125,2.03125 30,2.94213867 30,4.0625 L30,17.46875 Z" id="Shape"></path>
                <path d="M13,15 L6,15 C4.8972656,15 4,14.1027344 4,13 L4,12 C4,10.3457031 5.3457031,9 7,9 L12,9 C13.6542968,9 15,10.3457031 15,12 L15,13 C15,14.1027344 14.1027343,15 13,15 Z M7,11 C6.4484374,11 6,11.4484375 6,12 L6,13 L13.0003906,13 L13,12 C13,11.4484375 12.5515624,11 12,11 L7,11 Z" id="Shape"></path>
                <path d="M12,28 L7,28 C5.3457031,28 4,26.6542969 4,25 L4,24 C4,22.8972656 4.8972656,22 6,22 L13,22 C14.1027343,22 15,22.8972656 15,24 L15,25 C15,26.6542969 13.6542968,28 12,28 Z M6,24 L6,25 C6,25.5515625 6.4484374,26 7,26 L12,26 C12.5515624,26 13,25.5515625 13,25 L13,24 L6,24 Z" id="Shape"></path>
                <path d="M27,44 C26.4476562,44 26,43.5523438 26,43 L26,35 C26,34.4476562 26.4476562,34 27,34 C27.5523438,34 28,34.4476562 28,35 L28,43 C28,43.5523438 27.5523438,44 27,44 Z" id="Path"></path>
                <path d="M27.0001953,32 C26.4479594,32 26,31.5523438 26,31 C26,30.4476562 26.4471783,30 26.9994142,30 L27.0001953,30 C27.5524312,30 28,30.4476562 28,31 C28,31.5523438 27.5524312,32 27.0001953,32 Z" id="Path"></path>
            </g>
        </g>
    </g>
</svg>