<?xml version="1.0" encoding="UTF-8"?>
<svg width="52px" height="52px" viewBox="0 0 52 52" version="1.1" xmlns="http://www.w3.org/2000/svg" xmlns:xlink="http://www.w3.org/1999/xlink">
    <!-- Generator: Sketch 64 (93537) - https://sketch.com -->
    <title>img-03</title>
    <desc>Created with Sketch.</desc>
    <g id="Welcome" stroke="none" stroke-width="1" fill="none" fill-rule="evenodd">
        <g id="HOME---Servicios---Ventas-Empresariales---Desktop-HD-Copy" transform="translate(-456.000000, -802.000000)" fill="#E2241C" fill-rule="nonzero">
            <g id="img-03" transform="translate(456.000000, 802.000000)">
                <path d="M51.7544432,18.6973776 L43.3674045,10.3102685 C43.246736,10.1899135 43.0923096,10.1091876 42.9245688,10.0787843 L33.6988262,8.40136251 C33.2430955,8.31843497 32.8064453,8.62068541 32.7235185,9.07641995 C32.7145024,9.12569421 32.7099944,9.17570235 32.7099944,9.22581533 C32.7075831,9.49231572 32.68368,9.75818707 32.6387045,10.0209133 L26.8390672,8.57162082 L26.8390672,8.30323333 C29.1082854,7.84005524 30.5723479,5.6249149 30.1091737,3.35567772 C29.6459994,1.08644053 27.4308777,-0.377634193 25.1616595,0.0855439031 C23.2094714,0.484036421 21.8072634,2.20108732 21.806844,4.19354991 L23.4842518,4.19354991 C23.4842518,2.80391078 24.6107359,1.6774172 26.0003634,1.6774172 C27.3899909,1.6774172 28.516475,2.80391078 28.516475,4.19354991 C28.516475,5.58318904 27.3899909,6.70968262 26.0003634,6.70968262 C25.5371892,6.70968262 25.1616595,7.08521543 25.1616595,7.54839352 L25.1616595,8.57078211 L19.3620222,10.0209133 C19.3170467,9.75818707 19.2931437,9.49231572 19.2907324,9.22581533 C19.2908372,8.97703271 19.1805477,8.74114526 18.9896377,8.58168535 C18.7997761,8.42002383 18.5465924,8.35366083 18.3019005,8.40136251 L9.0761579,10.0787843 C8.90841713,10.1091876 8.75399078,10.1899135 8.63332226,10.3102685 L0.246283517,18.6973776 C-0.0811255076,19.0248942 -0.0811255076,19.5557982 0.246283517,19.8833148 L6.95591451,26.593002 C7.28342837,26.9204138 7.81432792,26.9204138 8.14184179,26.593002 L10.0649898,24.6698379 L10.0649898,30.1935879 L4.19406265,30.1935879 C1.88500605,30.1868782 0.00777710301,32.0534293 0.00106747201,34.3625053 C-0.0028115334,35.6961605 0.629780864,36.9516059 1.70395085,37.741986 C-0.148850845,39.0957703 -0.553420627,41.6952499 0.800457102,43.5480671 C1.05322148,43.8940354 1.3579855,44.1988019 1.70395085,44.4515684 C-0.155770152,45.8201349 -0.553944817,48.4373323 0.81461023,50.2970689 C1.60508863,51.3711431 2.86052349,52.0037408 4.19406265,51.9999834 L34.3874021,51.9999834 C34.6098683,51.9999834 34.8231088,51.9114826 34.9803658,51.7542243 L41.6899967,45.044537 C41.8452618,44.8865449 41.9310193,44.6730929 41.9281886,44.4515684 L41.935737,44.4515684 L41.935737,24.6698379 L43.858885,26.593002 C44.1863988,26.9204138 44.7172984,26.9204138 45.0448122,26.593002 L51.7544432,19.8833148 C52.0818523,19.5557982 52.0818523,19.0247893 51.7544432,18.6973776 Z M26.0003634,10.0896876 L32.0994179,11.614464 C30.8352815,13.7692171 28.4974993,15.0637674 26.0003634,14.9919528 C23.5032274,15.0637674 21.1654452,13.7692171 19.9013088,11.614464 L26.0003634,10.0896876 Z M1.67795103,34.3871424 C1.67795103,32.9975033 2.80443517,31.8710097 4.19406265,31.8710097 L22.6455479,31.8710097 C24.0351754,31.8710097 25.1616595,32.9975033 25.1616595,34.3871424 C25.1616595,35.7767816 24.0351754,36.9032751 22.6455479,36.9032751 L4.19406265,36.9032751 C2.80443517,36.9032751 1.67795103,35.7766767 1.67795103,34.3871424 Z M1.67795103,41.0968297 C1.67795103,39.7071905 2.80443517,38.5806969 4.19406265,38.5806969 L22.6455479,38.5806969 C24.0351754,38.5806969 25.1616595,39.7071905 25.1616595,41.0968297 C25.1616595,42.4864688 24.0351754,43.6129624 22.6455479,43.6129624 L4.19406265,43.6129624 C2.80443517,43.6129624 1.67795103,42.4863639 1.67795103,41.0968297 Z M22.6455479,50.3226496 L20.9681401,50.3226496 L4.19406265,50.3226496 C2.80443517,50.3226496 1.67795103,49.196156 1.67795103,47.8065169 C1.67795103,46.4168778 2.80443517,45.2903842 4.19406265,45.2903842 L22.6455479,45.2903842 C24.0351754,45.2903842 25.1616595,46.4168778 25.1616595,47.8065169 C25.1616595,49.196156 24.0351754,50.3226496 22.6455479,50.3226496 Z M35.226106,49.1367124 L35.226106,45.2903842 L39.072402,45.2903842 L35.226106,49.1367124 Z M44.4518486,24.8140962 L39.1738851,19.5360885 L37.9879578,20.7220257 L40.2583292,22.9924161 L40.2583292,43.6129624 L34.3874021,43.6129624 C33.9242279,43.6129624 33.5486982,43.9884952 33.5486982,44.4516733 L33.5486982,50.3226496 L25.9785571,50.3226496 C27.3744748,48.5141792 27.0401465,45.9165867 25.2317961,44.5205524 C25.2014979,44.4971733 25.1708852,44.4742136 25.1398532,44.4516733 C26.9926549,43.097889 27.3972247,40.4984094 26.0434518,38.6454874 C25.7906874,38.2995191 25.4859234,37.9947525 25.1398532,37.741986 C26.999679,36.3734195 27.3978537,33.7562222 26.0291938,31.8964856 C25.2378767,30.8211533 23.9805548,30.1884508 22.6455479,30.1935879 L11.7423975,30.1935879 L11.7423975,22.9924161 L14.0127689,20.7220257 L12.8268416,19.5360885 L7.54887815,24.8140962 L2.02517443,19.2903462 L9.63389598,11.6815609 L17.6854532,10.2180103 C18.2339655,13.8546608 21.753167,16.6693746 25.998686,16.6693746 C30.244205,16.6693746 33.7634064,13.8546608 34.3119188,10.2180103 L42.363476,11.6815609 L49.9755523,19.2903462 L44.4518486,24.8140962 Z" id="Shape"></path>
                <rect id="Rectangle" x="3" y="33" width="20" height="2"></rect>
                <rect id="Rectangle" x="4" y="40" width="19" height="2"></rect>
                <rect id="Rectangle" x="4" y="47" width="19" height="2"></rect>
            </g>
        </g>
    </g>
</svg>