<?xml version="1.0" encoding="UTF-8"?>
<svg width="61px" height="41px" viewBox="0 0 61 41" version="1.1" xmlns="http://www.w3.org/2000/svg" xmlns:xlink="http://www.w3.org/1999/xlink">
    <!-- Generator: Sketch 64 (93537) - https://sketch.com -->
    <title>img-10</title>
    <desc>Created with Sketch.</desc>
    <g id="Welcome" stroke="none" stroke-width="1" fill="none" fill-rule="evenodd">
        <g id="HOME---Servicios---Ventas-Empresariales---Desktop-HD-Copy" transform="translate(-453.000000, -2684.000000)" fill="#61268B" fill-rule="nonzero">
            <g id="img-10" transform="translate(453.000000, 2684.000000)">
                <path d="M54.6459798,0 L6.35413936,0 C2.85175557,0 0,2.87511938 0,6.40631757 L0,34.5938026 C0,38.1248806 2.85175557,41 6.35413936,41 L54.6458606,41 C58.1482444,41 61,38.1248806 61,34.5938026 L61,6.40631757 C61,2.87511938 58.1483636,0 54.6459798,0 Z M58.4584872,34.5936824 C58.4584872,36.7129058 56.7479819,38.4374249 54.6459798,38.4374249 L6.35413936,38.4374249 C4.25213721,38.4374249 2.54163192,36.7129058 2.54163192,34.5936824 L2.54163192,6.40631757 C2.54163192,4.28709417 4.25213721,2.56257507 6.35413936,2.56257507 L54.6458606,2.56257507 C56.7478628,2.56257507 58.4584872,4.28709417 58.4584872,6.40631757 L58.4584872,34.5936824 L58.4584872,34.5936824 Z" id="Shape"></path>
                <path d="M59.7290103,7 L1.27087056,7 C0.569371935,7 0,7.56003469 0,8.2500293 L0,15.7499707 C0,16.4399653 0.569371935,17 1.27087056,17 L59.7291294,17 C60.4306281,17 61,16.4399653 61,15.7499707 L61,8.2500293 C61,7.56003469 60.4305089,7 59.7290103,7 Z M58.4582589,14.4999414 L2.54162199,14.4999414 L2.54162199,9.49994141 L58.4582589,9.49994141 L58.4582589,14.4999414 L58.4582589,14.4999414 Z" id="Shape"></path>
                <path d="M23.7856818,26 L9.21431824,26 C8.54403552,26 8,26.4480383 8,27.0000469 C8,27.5520555 8.54403552,28 9.21431824,28 L23.7856818,28 C24.4559645,28 25,27.5519617 25,26.9999531 C25,26.4479445 24.4559645,26 23.7856818,26 Z" id="Path"></path>
                <path d="M23.7856818,31 L9.21431824,31 C8.54403552,31 8,31.4480172 8,32 C8,32.5519828 8.54403552,33 9.21431824,33 L23.7856818,33 C24.4559645,33 25,32.5519828 25,32 C25,31.4480172 24.4559645,31 23.7856818,31 Z" id="Path"></path>
                <path d="M50.2499854,24 L47.7500146,24 C45.6824675,24 44,25.6824675 44,27.7500146 L44,30.2499854 C44,32.3175325 45.6824675,34 47.7500146,34 L50.2499854,34 C52.3175325,34 54,32.3175325 54,30.2499854 L54,27.7500146 C54,25.6825847 52.3175325,24 50.2499854,24 Z M51.5000293,30.2501025 C51.5000293,30.9401052 50.939988,31.5001465 50.2499854,31.5001465 L47.7500146,31.5001465 C47.060012,31.5001465 46.4999707,30.9401052 46.4999707,30.2501025 L46.4999707,27.7501318 C46.4999707,27.0601291 47.060012,26.5000879 47.7500146,26.5000879 L50.2499854,26.5000879 C50.939988,26.5000879 51.5000293,27.0601291 51.5000293,27.7501318 L51.5000293,30.2501025 Z" id="Shape"></path>
            </g>
        </g>
    </g>
</svg>