<?xml version="1.0" encoding="UTF-8"?>
<svg width="69px" height="69px" viewBox="0 0 69 69" version="1.1" xmlns="http://www.w3.org/2000/svg" xmlns:xlink="http://www.w3.org/1999/xlink">
    <!-- Generator: Sketch 64 (93537) - https://sketch.com -->
    <title>img-09</title>
    <desc>Created with Sketch.</desc>
    <g id="Welcome" stroke="none" stroke-width="1" fill="none" fill-rule="evenodd">
        <g id="HOME---Servicios---Ventas-Empresariales---Desktop-HD-Copy" transform="translate(-1170.000000, -1936.000000)" fill="#E2241C" fill-rule="nonzero">
            <g id="img-09" transform="translate(1170.000000, 1936.000000)">
                <path d="M24.4753915,23.1654511 C24.4753915,20.7875602 23.5312724,18.5036657 21.8450608,16.7988577 C24.4230353,15.7643352 27.3805922,16.336148 29.3684212,18.2541271 L31,16.6181379 C28.0117123,13.7322175 23.4294053,13.1693568 19.8111358,15.2428777 C16.930406,13.5968176 13.374167,13.5901037 10.4871771,15.2255331 C7.60018729,16.8615221 5.82292145,19.8895565 5.82747417,23.1654511 L5.82747417,27.748906 L1.16549483,27.748906 C0.521854828,27.748906 0,28.2619709 0,28.8947697 L0,67.8541363 C0,68.4869351 0.521854828,69 1.16549483,69 L25.6408863,69 L25.6408863,66.7082726 L11.6549483,66.7082726 L11.6549483,30.0406334 L15.1514328,30.0406334 L15.1514328,34.6240883 L17.4824225,34.6240883 L17.4824225,30.0406334 L25.6408863,30.0406334 L25.6408863,27.748906 L24.4753915,27.748906 L24.4753915,23.1654511 Z M6.79720229,60.3427982 C6.56842848,60.0423447 6.20933311,59.8655414 5.82747417,59.8655414 C5.44561523,59.8655414 5.08651986,60.0423447 4.85774605,60.3427982 L2.33098967,64.0730097 L2.33098967,32.6758963 L4.85774605,36.4021912 C5.07399997,36.7211085 5.43764805,36.9124587 5.82747417,36.9124587 C6.21730028,36.9124587 6.58094837,36.7211085 6.79720229,36.4021912 L9.32395867,32.6758963 L9.32395867,64.0730097 L6.79720229,60.3427982 Z M8.31211801,66.7082726 L3.34283032,66.7082726 L5.82747417,63.0412849 L8.31211801,66.7082726 Z M5.82747417,33.7076211 L3.34283032,30.0406334 L8.31211801,30.0406334 L5.82747417,33.7076211 Z M8.1584586,27.748906 L8.1584586,23.1654511 C8.15561843,20.8770808 9.31257688,18.7375383 11.244066,17.4596316 C13.1749858,16.1822846 15.6266224,15.9344244 17.7817635,16.7988577 C16.095552,18.5036657 15.1514328,20.7875602 15.1514328,23.1654511 L15.1514328,27.748906 L8.1584586,27.748906 Z M17.4824225,23.1654511 C17.4835606,21.213902 18.3315037,19.3552305 19.8134122,18.0560627 C21.2953206,19.3552305 22.1432637,21.213902 22.1444018,23.1654511 L22.1444018,27.748906 L17.4824225,27.748906 L17.4824225,23.1654511 Z" id="Shape"></path>
                <path d="M37.1350681,15.463794 C37.2129863,15.3037598 37.2525101,15.1280029 37.2508162,14.95 L37.2508162,6.9 L41.8762244,6.9 L41.8762244,14.95 C41.8745304,15.1280029 41.9140543,15.3037598 41.9919724,15.463794 L48.9300846,29.263794 L51,28.236206 L44.1889284,14.6787841 L44.1889284,1.15 C44.1889284,0.514916956 43.6711673,0 43.0325764,0 L36.0944642,0 C35.4558733,0 34.9381122,0.514916956 34.9381122,1.15 L34.9381122,14.6787841 L28.1213944,28.236206 C28.0412176,28.3956787 28,28.5714355 28,28.75 L28,67.85 C28,68.485083 28.5177611,69 29.156352,69 L37.2508162,69 L37.2508162,66.7 L30.3127041,66.7 L30.3127041,29.0212159 L37.1350681,15.463794 Z M41.8762244,2.3 L41.8762244,4.6 L37.2508162,4.6 L37.2508162,2.3 L41.8762244,2.3 Z" id="Shape"></path>
                <path d="M68.8371689,44.2283677 L64.3846137,36.4522668 L64.3846137,32.1515152 C64.3846137,31.5155954 63.8679754,31 63.2307693,31 L44.7692575,31 C44.1320513,31 43.615413,31.5155954 43.615413,32.1515152 L43.615413,36.4522668 L39.1521533,44.2424242 C39.0513045,44.4172882 38.9989083,44.6163293 39.0000172,44.8181818 L39.0000172,67.8484848 C39.0000172,68.4844046 39.5166734,69 40.1538795,69 L67.8461472,69 C68.4833534,69 68.9999959,68.4844046 68.9999959,67.8484848 L68.9999959,44.8181818 C69.0005551,44.6107067 68.944215,44.4066051 68.8371689,44.2283677 Z M65.8579064,43.6666667 L60.6036321,43.6666667 L63.2307693,39.0791607 L65.8579064,43.6666667 Z M45.923102,33.3030303 L62.0769248,33.3030303 L62.0769248,35.6060606 L45.923102,35.6060606 L45.923102,33.3030303 Z M45.4385774,37.9090909 L61.2459088,37.9090909 L57.9460714,43.6666667 L42.13874,43.6666667 L45.4385774,37.9090909 Z M57.4615468,66.6969697 L41.307724,66.6969697 L41.307724,45.969697 L57.4615468,45.969697 L57.4615468,66.6969697 Z M66.6923027,66.6969697 L59.7692358,66.6969697 L59.7692358,45.969697 L66.6923027,45.969697 L66.6923027,66.6969697 Z" id="Shape"></path>
            </g>
        </g>
    </g>
</svg>