<?xml version="1.0" encoding="UTF-8"?>
<svg width="55px" height="56px" viewBox="0 0 55 56" version="1.1" xmlns="http://www.w3.org/2000/svg" xmlns:xlink="http://www.w3.org/1999/xlink">
    <!-- Generator: Sketch 64 (93537) - https://sketch.com -->
    <title>img-07</title>
    <desc>Created with Sketch.</desc>
    <g id="Welcome" stroke="none" stroke-width="1" fill="none" fill-rule="evenodd">
        <g id="HOME---Servicios---Ventas-Empresariales---Desktop-HD-Copy" transform="translate(-696.000000, -1941.000000)" fill="#E2241C" fill-rule="nonzero">
            <g id="img-07" transform="translate(696.000000, 1941.000000)">
                <path d="M46.9606855,8.23363545 C41.6381048,2.7633434 34.5967742,0 27.5554435,0 C20.5141129,0 13.4727823,2.70694864 8.09475806,8.17724068 C2.71673387,13.7039275 0,20.8660624 0,28.0281974 C0,35.1903323 2.66129032,42.3524673 8.03931452,47.8227593 C13.4173387,53.2930514 20.4586694,56 27.5,56 C34.5413306,56 41.5826613,53.2930514 46.9606855,47.8227593 C52.3387097,42.3524673 55,35.1903323 55,28.0281974 C55,20.8660624 52.3387097,13.7039275 46.9606855,8.23363545 Z M45.0201613,45.7925478 C40.1965726,50.6988922 33.8760081,53.1802618 27.5554435,53.1802618 C21.234879,53.1802618 14.9143145,50.6988922 10.0907258,45.7925478 C5.21169355,40.8862034 2.82762097,34.4572004 2.82762097,28.0281974 C2.82762097,21.5991944 5.2671371,15.1701913 10.0907258,10.2638469 C14.9143145,5.35750252 21.234879,2.87613293 27.5554435,2.87613293 C33.8760081,2.87613293 40.1965726,5.35750252 45.0201613,10.2638469 C49.84375,15.1701913 52.2832661,21.5991944 52.2832661,28.0281974 C52.2832661,34.4572004 49.8991935,40.8862034 45.0201613,45.7925478 Z" id="Shape"></path>
                <path d="M32.784054,39.0013445 C31.6620561,39.5623435 30.4278584,39.9550428 29.1936606,40.1794424 C28.408262,40.2916422 27.903363,41.0209408 28.0155628,41.8063394 C28.1277626,42.591738 28.8570612,43.096637 29.6424598,42.9844372 C31.2132569,42.7600376 32.6718543,42.2551386 34.0743517,41.5819398 C35.4768491,40.8526411 36.7671468,39.9550428 37.8330448,38.8330448 C38.9550428,37.7110469 39.8526411,36.4768491 40.5819398,35.0743517 C41.2551386,33.6718543 41.7600376,32.2132569 41.9844372,30.6424598 C42.096637,29.8570612 41.591738,29.1277626 40.8063394,29.0155628 C40.0209408,28.903363 39.2916422,29.408262 39.1794424,30.1936606 C39.0111427,31.4278584 38.5623435,32.6620561 38.0013445,33.784054 C37.4403455,34.906052 36.7110469,35.9158502 35.7573486,36.8134485 C34.9158502,37.7110469 33.906052,38.4403455 32.784054,39.0013445 Z" id="Path"></path>
                <path d="M33.5162338,33.5162338 C35.1720779,31.8603896 36,29.6525974 36,27.5 C36,25.3474026 35.1720779,23.1396104 33.5162338,21.4837662 C31.8603896,19.8279221 29.6525974,19 27.5,19 C25.3474026,19 23.1396104,19.8279221 21.4837662,21.4837662 C19.8279221,23.1396104 19,25.3474026 19,27.5 C19,29.6525974 19.8279221,31.8603896 21.4837662,33.5162338 C23.1396104,35.1720779 25.3474026,36 27.5,36 C29.6525974,36 31.8603896,35.1720779 33.5162338,33.5162338 Z M23.4707792,31.5292208 C22.3668831,30.4253247 21.8149351,28.9350649 21.8149351,27.5 C21.8149351,26.0097403 22.3668831,24.5746753 23.4707792,23.4707792 C24.5746753,22.3668831 26.0649351,21.8149351 27.5,21.8149351 C28.9902597,21.8149351 30.4253247,22.3668831 31.5292208,23.4707792 C32.6331169,24.5746753 33.1850649,26.0649351 33.1850649,27.5 C33.1850649,28.9902597 32.6331169,30.4253247 31.5292208,31.5292208 C30.4253247,32.6331169 28.9350649,33.1850649 27.5,33.1850649 C26.0097403,33.2402597 24.5746753,32.6883117 23.4707792,31.5292208 Z" id="Shape"></path>
                <path d="M14.950495,15.3688119 C16.6930693,13.5470297 18.6534653,12.1806931 20.7772277,11.269802 C22.9009901,10.3589109 25.2425743,9.84653465 27.6386139,9.84653465 C28.4009901,9.84653465 29,9.22029703 29,8.42326733 C29,7.62623762 28.4009901,7 27.6386139,7 C24.9158416,7 22.2475248,7.56930693 19.7425743,8.6509901 C17.2376238,9.73267327 14.950495,11.3267327 13.0445545,13.3193069 C11.1386139,15.3118812 9.61386139,17.7029703 8.57920792,20.3217822 C7.54455446,22.9405941 7,25.730198 7,28.5767327 C7,29.3737624 7.5990099,30 8.36138614,30 C9.12376238,30 9.72277228,29.3737624 9.72277228,28.5767327 C9.72277228,26.0717822 10.2128713,23.6806931 11.0841584,21.4034653 C11.9554455,19.1831683 13.2623762,17.0767327 14.950495,15.3688119 Z" id="Path"></path>
                <path d="M22.215946,16.9986555 C23.3379439,16.4376565 24.5721416,16.0449572 25.8063394,15.8205576 C26.591738,15.7083578 27.096637,14.9790592 26.9844372,14.1936606 C26.8722374,13.408262 26.1429388,12.903363 25.3575402,13.0155628 C23.7867431,13.2399624 22.3281457,13.7448614 20.9256483,14.4180602 C19.5231509,15.1473589 18.2328532,16.0449572 17.1669552,17.1669552 C16.0449572,18.2889531 15.1473589,19.5231509 14.4180602,20.9256483 C13.7448614,22.3281457 13.2399624,23.7867431 13.0155628,25.3575402 C12.903363,26.1429388 13.408262,26.8722374 14.1936606,26.9844372 C14.9790592,27.096637 15.7083578,26.591738 15.8205576,25.8063394 C15.9888573,24.5721416 16.4376565,23.3379439 16.9986555,22.215946 C17.5596545,21.093948 18.2889531,20.0841498 19.2426514,19.1865515 C20.0841498,18.2889531 21.093948,17.5596545 22.215946,16.9986555 Z" id="Path"></path>
                <path d="M46.6386139,26 C45.8762376,26 45.2772277,26.6262376 45.2772277,27.4232673 C45.2772277,29.9282178 44.7871287,32.3193069 43.9158416,34.5965347 C42.990099,36.8737624 41.6831683,38.9232673 39.9950495,40.6881188 C38.3069307,42.4529703 36.3465347,43.8193069 34.2227723,44.730198 C32.0990099,45.6410891 29.7574257,46.1534653 27.3613861,46.1534653 C26.5990099,46.1534653 26,46.779703 26,47.5767327 C26,48.3737624 26.5990099,49 27.3613861,49 C30.0841584,49 32.7524752,48.4306931 35.2574257,47.3490099 C37.7623762,46.2673267 40.049505,44.6732673 41.9554455,42.6806931 C43.8613861,40.6881188 45.3861386,38.2970297 46.4207921,35.6782178 C47.4554455,33.1163366 48,30.269802 48,27.4232673 C48,26.6262376 47.4009901,26 46.6386139,26 Z" id="Path"></path>
            </g>
        </g>
    </g>
</svg>