<?xml version="1.0" encoding="UTF-8"?>
<svg width="80px" height="58px" viewBox="0 0 80 58" version="1.1" xmlns="http://www.w3.org/2000/svg" xmlns:xlink="http://www.w3.org/1999/xlink">
    <!-- Generator: Sketch 64 (93537) - https://sketch.com -->
    <title>img-05</title>
    <desc>Created with Sketch.</desc>
    <g id="Welcome" stroke="none" stroke-width="1" fill="none" fill-rule="evenodd">
        <g id="HOME---Servicios---Ventas-Empresariales---Desktop-HD-Copy" transform="translate(-201.000000, -1942.000000)" fill="#E2241C" fill-rule="nonzero">
            <g id="img-05" transform="translate(201.000000, 1942.000000)">
                <path d="M79.9782127,34.8287821 C79.8514931,34.1179542 76.8249119,17.2710019 72.9781694,6.74736696 C72.9759819,6.74120234 72.9730131,6.73551193 72.9708256,6.72950538 C72.9702006,6.7279247 72.9698881,6.7265021 72.9692631,6.72492143 C72.7025427,6.03432616 72.4706663,5.36665062 72.2492586,4.73533053 C71.6905052,3.13837836 71.207846,1.7597169 70.4425287,0.599820333 C70.1492457,0.156125913 69.6292425,-0.0692778078 69.1037705,0.0198720508 C59.2518346,1.75845236 46.7556636,2.69721302 39.9996843,2.69721302 C33.243705,2.69721302 20.747534,1.75845236 10.8954419,0.0197139837 C10.3701261,-0.0707004119 9.85012292,0.154545241 9.55808986,0.599662266 C8.79136637,1.7597169 8.3101134,3.13822029 7.75135994,4.73517246 C7.52995232,5.36649256 7.29666963,6.03416809 7.02994923,6.72476336 C7.02854297,6.72839891 7.02776172,6.73219252 7.02635546,6.73582806 C7.0249492,6.73977974 7.02307419,6.74341528 7.02151168,6.74736696 C3.17508165,17.2710019 0.148344193,34.1179542 0.0217809108,34.8287821 C-0.0315006686,35.1227869 0.0138121115,35.4250113 0.148500444,35.6892995 C0.396470727,36.1734591 0.729910288,36.6806965 1.16585048,37.2391477 C1.18178808,37.2593802 1.20069445,37.2761354 1.21756955,37.2954196 C6.21728796,43.619053 23.2919248,54.0337797 28.4314878,57.0901656 C28.4339878,57.0915882 28.4361753,57.093485 28.4386753,57.0949076 C29.434619,57.6870271 30.5786886,58 31.7454145,58 L48.2548916,58 C49.4033362,58 50.5292806,57.6952466 51.5331931,57.1094498 C51.5430369,57.1039175 51.5531932,57.0999658 51.563037,57.0941173 C56.6997875,54.0389959 73.8139558,43.5977139 78.7963304,37.2796128 C78.8082054,37.2655449 78.8217993,37.2538479 78.8332056,37.2393057 C79.2705521,36.6808546 79.6038354,36.1737752 79.8518056,35.6894576 C79.9861815,35.4250113 80.0314943,35.122945 79.9782127,34.8287821 Z M51.5656933,53.9571171 C51.277879,53.071309 51.1006904,52.1605262 51.0411588,51.2355174 C51.0366275,51.166284 51.02694,51.0983151 51.0125649,51.032085 C51.0058461,50.8816051 50.9992835,50.7309671 50.9992835,50.5804872 C50.9992835,42.7721293 59.3846479,36.4176728 69.6900241,36.4176728 C71.6301923,36.4176728 73.5306728,36.6459217 75.3647467,37.0948324 C70.7850308,41.7100763 60.6024679,48.5167628 51.5656933,53.9571171 Z M11.356851,2.83615402 C21.2036306,4.49933631 33.3410494,5.39494464 39.9996843,5.39494464 C46.6583192,5.39494464 58.795738,4.49933631 68.6425176,2.83615402 C69.0292387,3.61842822 69.3639283,4.57204719 69.7345556,5.6350486 C69.7862747,5.78252523 69.8389312,5.93237286 69.8922128,6.08348504 C59.9523076,7.2765757 47.9062957,8.09236013 39.9992155,8.09236013 C32.0946354,8.09236013 20.0472172,7.2765757 10.1071558,6.08348504 C10.1604373,5.93253093 10.2130939,5.7826833 10.264813,5.63520667 C10.6368465,4.57204719 10.9701298,3.61842822 11.356851,2.83615402 Z M9.16574369,8.68558605 C18.7811156,9.86603134 30.5158757,10.6974644 38.6663948,10.7821884 L38.6663948,14.6897658 C38.6663948,15.434262 39.2637422,16.0385526 39.9996843,16.0385526 C40.7356263,16.0385526 41.3329738,15.434262 41.3329738,14.6897658 L41.3329738,10.7821884 C49.4848992,10.6974644 61.220128,9.86603134 70.8339374,8.68558605 C74.07927,18.0357307 76.7486615,32.0339972 77.2646022,34.8180335 C74.8352121,34.0896602 72.2925402,33.7200993 69.6898678,33.7200993 C59.6721497,33.7200993 51.2442851,39.194438 48.9502084,46.5519885 L46.544256,41.2508913 C46.2362853,40.5724672 45.4456555,40.2770397 44.7762763,40.5873255 C44.1083034,40.8988758 43.8136141,41.7001181 44.1215848,42.3772776 L47.2556666,49.2816496 C44.9878401,48.8058676 42.5268874,48.5583345 39.999528,48.5583345 C37.4537311,48.5583345 34.9754345,48.8098193 32.6938579,49.2925563 L35.8745025,42.3839164 C36.1851295,41.7081795 35.8971589,40.9055146 35.2291861,40.5900126 C34.5612132,40.2784623 33.769177,40.5685155 33.4571438,41.2442525 L31.0344726,46.5077297 C28.7208646,39.1724667 20.3072188,33.7200993 10.308407,33.7200993 C7.70714092,33.7200993 5.16306269,34.0896602 2.73507893,34.8180335 C3.24976962,32.0339972 5.91775486,18.0398404 9.16574369,8.68558605 Z M28.9858662,51.0410948 C28.98571,51.0418852 28.98571,51.0426755 28.9855537,51.0433078 C28.9733661,51.1014765 28.9653973,51.1598032 28.9610223,51.21813 C28.9605536,51.2239785 28.958991,51.2296689 28.9585223,51.2355174 C28.8991469,52.1606843 28.7219583,53.071467 28.4343003,53.9574333 C19.3969007,48.5142338 9.21355648,41.7077053 4.63493443,37.0949904 C6.46900827,36.6459217 8.36933251,36.4176728 10.308407,36.4176728 C20.6151895,36.4176728 28.9991503,42.7721293 28.9991503,50.5804872 C28.9991503,50.7341285 28.9927413,50.8876116 28.9858662,51.0410948 Z M31.745102,55.3022684 C31.4380689,55.3022684 31.1350982,55.266071 30.8388464,55.1936763 C31.1788485,54.2566543 31.4149437,53.3066709 31.545257,52.3500487 C36.6101321,50.9152734 43.3886115,50.9151153 48.4537991,52.3498906 C48.5842686,53.3066709 48.8208326,54.2566543 49.1613034,55.1938343 C48.8661454,55.2649645 48.5631747,55.3025845 48.2547353,55.3025845 L31.745102,55.3025845 L31.745102,55.3022684 Z" id="Shape"></path>
            </g>
        </g>
    </g>
</svg>