<?xml version="1.0" encoding="UTF-8"?>
<svg width="54px" height="54px" viewBox="0 0 54 54" version="1.1" xmlns="http://www.w3.org/2000/svg" xmlns:xlink="http://www.w3.org/1999/xlink">
    <!-- Generator: Sketch 64 (93537) - https://sketch.com -->
    <title>img-12</title>
    <desc>Created with Sketch.</desc>
    <g id="Welcome" stroke="none" stroke-width="1" fill="none" fill-rule="evenodd">
        <g id="HOME---Servicios---Ventas-Empresariales---Desktop-HD-Copy" transform="translate(-458.000000, -2875.000000)" fill="#61268B" fill-rule="nonzero">
            <g id="img-12" transform="translate(458.000000, 2875.000000)">
                <path d="M46.0919531,7.90804688 C40.9923281,2.80842188 34.2119531,0 27,0 C19.7880469,0 13.0076719,2.80842188 7.90804688,7.90804688 C2.80852734,13.0076719 0,19.7880469 0,27 C0,34.2119531 2.80852734,40.9923281 7.90804688,46.0919531 C13.0076719,51.1915781 19.7880469,54 27,54 C34.2119531,54 40.9923281,51.1915781 46.0919531,46.0919531 C51.1914727,40.9923281 54,34.2119531 54,27 C54,19.7880469 51.1914727,13.0076719 46.0919531,7.90804688 Z M27,50.8359375 C13.8568008,50.8359375 3.1640625,40.1431992 3.1640625,27 C3.1640625,13.8568008 13.8568008,3.1640625 27,3.1640625 C40.1431992,3.1640625 50.8359375,13.8568008 50.8359375,27 C50.8359375,40.1431992 40.1431992,50.8359375 27,50.8359375 Z" id="Shape"></path>
                <path d="M29.2229266,25.4021491 L25.7770734,25.4021491 C23.8139429,25.4021491 22.2169089,23.815802 22.2169089,21.8659148 C22.2169089,19.9159211 23.8140502,18.3295739 25.7770734,18.3295739 L32.6686726,18.3295739 C33.556998,18.3295739 34.2771806,17.6142105 34.2771806,16.7318296 C34.2771806,15.8494486 33.556998,15.1340852 32.6686726,15.1340852 L29.1085081,15.1340852 L29.1085081,11.5977444 C29.1085081,10.7153634 28.3883254,10 27.5,10 C26.6116746,10 25.8914919,10.7153634 25.8914919,11.5977444 L25.8914919,15.1340852 L25.7771806,15.1340852 C22.0401875,15.1340852 19,18.1540351 19,21.8659148 C19,25.5777945 22.0402947,28.5976378 25.7771806,28.5976378 L29.2230338,28.5976378 C31.1860571,28.5976378 32.7830911,30.1840915 32.7830911,32.1339787 C32.7830911,34.0838659 31.1860571,35.6703195 29.2230338,35.6703195 L22.3314347,35.6703195 C21.4431093,35.6703195 20.7229266,36.385683 20.7229266,37.2680639 C20.7229266,38.1504449 21.4431093,38.8658083 22.3314347,38.8658083 L25.8914919,38.8658083 L25.8914919,42.4022556 C25.8914919,43.2846366 26.6116746,44 27.5,44 C28.3883254,44 29.1085081,43.2846366 29.1085081,42.4022556 L29.1085081,38.8658083 L29.2229266,38.8658083 C32.9598125,38.8658083 36,35.8458584 36,32.1339787 C36,28.422099 32.9598125,25.4021491 29.2229266,25.4021491 Z" id="Path"></path>
            </g>
        </g>
    </g>
</svg>