<?xml version="1.0" encoding="UTF-8"?>
<svg width="96px" height="124px" viewBox="0 0 96 124" version="1.1" xmlns="http://www.w3.org/2000/svg" xmlns:xlink="http://www.w3.org/1999/xlink">
    <!-- Generator: Sketch 64 (93537) - https://sketch.com -->
    <title>Group</title>
    <desc>Created with Sketch.</desc>
    <g id="Welcome" stroke="none" stroke-width="1" fill="none" fill-rule="evenodd">
        <g id="HOME---Dónde-Comprar---Almacenes---Desktop-HD" transform="translate(-1242.000000, -219.000000)" fill="#FFEB00" fill-rule="nonzero">
            <g id="Group" transform="translate(1242.000000, 219.000000)">
                <path d="M87.3872161,21.5597734 C78.3285587,7.85922656 63.9719529,0 48.0013965,0 C32.03084,0 17.6742343,7.85922656 8.61557687,21.5597734 C-0.398583318,35.1910547 -2.47998639,52.4486094 3.0367399,67.6955234 C4.51233208,71.8592109 6.85793731,75.9044687 9.99174561,79.6951875 L44.8427902,122.473734 C45.6309933,123.442 46.7858348,124 48.0013965,124 C49.2169581,124 50.3717996,123.442242 51.1600027,122.473734 L86.0013136,79.7068125 C89.1490273,75.8942969 91.4916197,71.8533984 92.9549288,67.7231328 C98.4827793,52.4486094 96.4013763,35.1910547 87.3872161,21.5597734 Z M85.1855315,64.6865859 C84.0571102,67.8732891 82.2148796,71.0239062 79.7130707,74.0543984 C79.706118,74.0616641 79.6991653,74.0689297 79.6936031,74.0776484 L48.0013965,112.97732 L16.2897223,74.0531875 C13.7893039,71.0253594 11.9470733,67.8749844 10.8075277,64.6577656 C6.24517372,52.0482734 7.97662483,37.7795547 15.4405673,26.4909531 C22.9279172,15.1662656 34.7966194,8.67128125 48.0013965,8.67128125 C61.2059418,8.67128125 73.0732535,15.1660234 80.5608351,26.4909531 C88.0261681,37.7795547 89.7590098,52.0482734 85.1855315,64.6865859 Z" id="Shape"></path>
                <path d="M48.5,25 C35.5427922,25 25,36.2142401 25,50 C25,63.7857599 35.5413857,75 48.5,75 C61.4586143,75 72,63.7857599 72,50 C72,36.2157363 61.4572078,25 48.5,25 Z M48.5,66.0712504 C40.1700315,66.0712504 33.3927902,58.8614192 33.3927902,49.9997506 C33.3927902,41.138082 40.1700315,33.9282508 48.5,33.9282508 C56.8299685,33.9282508 63.6072098,41.138082 63.6072098,49.9997506 C63.6072098,58.8614192 56.8299685,66.0712504 48.5,66.0712504 Z" id="Shape"></path>
            </g>
        </g>
    </g>
</svg>