<?xml version="1.0" encoding="UTF-8"?>
<svg width="157px" height="122px" viewBox="0 0 157 122" version="1.1" xmlns="http://www.w3.org/2000/svg" xmlns:xlink="http://www.w3.org/1999/xlink">
    <!-- Generator: Sketch 64 (93537) - https://sketch.com -->
    <title>header-rappi</title>
    <desc>Created with Sketch.</desc>
    <g id="Welcome" stroke="none" stroke-width="1" fill="none" fill-rule="evenodd">
        <g id="HOME---Dónde-Comprar---Rappi---Desktop-HD" transform="translate(-1162.000000, -216.000000)" fill="#FFFFFF" fill-rule="nonzero">
            <g id="header-rappi" transform="translate(1162.000000, 216.000000)">
                <g id="Group-4-Copy" transform="translate(-0.000000, -0.000000)">
                    <path d="M16.2626046,40.4900061 C15.9503654,41.6763181 15.6677802,42.8266239 15.4183377,43.9238679 C15.105517,45.3060035 14.8182802,46.560538 14.5566272,47.6874713 C14.3002073,48.7904005 14.1187946,49.679187 14.0176221,50.3273 C13.810044,51.4776058 13.1175358,52.2034165 12.0116159,52.4402999 C10.9977747,52.6404373 9.95355022,52.5529713 8.97993012,52.1863609 C7.91741308,51.8050308 6.95319142,51.1556002 6.16628846,50.2912937 C5.30412397,49.367689 4.83081229,48.0986277 4.85802358,46.7835243 C4.85802358,45.646484 5.11967655,43.8632257 5.65519298,41.3162554 C6.17849893,38.8337173 6.9320595,35.8868878 7.89843115,32.5591498 C8.86480281,29.2314118 10.0195646,25.6118334 11.3557391,21.7402111 C12.5035235,18.412473 13.7873675,15.0638893 15.18285,11.7626822 C15.6401663,10.6818135 16.5827599,9.93784435 17.6702976,9.79939256 C20.1333243,9.49239167 22.2730642,9.56882605 24.0895173,10.0286957 C24.607547,10.1614466 25.044099,10.5382572 25.2802357,11.0564665 C25.5163725,11.5746758 25.5274919,12.1802934 25.3105645,12.7083207 C24.1418479,15.5509215 23.0638376,18.3726766 22.102699,21.1262093 C21.3247175,23.3548083 20.57639,25.5606666 19.8734157,27.7077777 C19.8414639,27.803478 19.8656415,27.9106644 19.9347007,27.9794728 C20.0037599,28.0482811 20.1041402,28.0652001 20.1891436,28.0223589 C21.1482225,27.5415279 22.0750126,26.9880684 22.9626651,26.3660701 C24.4446463,25.3331799 25.7967943,24.0954442 26.9851435,22.6839545 C28.1573892,21.2852807 29.1224804,19.6972231 29.8458827,17.9766076 C30.568671,16.2514176 30.938256,14.3763759 30.9291261,12.4809127 C30.9291261,9.97184367 30.2906928,8.12225807 29.0295255,6.97574241 C27.7683581,5.82922675 25.9577195,5.23228057 23.688316,5.23228057 C21.3861318,5.2002119 19.11817,5.83958671 17.1208264,7.08376124 C15.1886903,8.28976674 13.4597363,9.84447404 12.0081272,11.6811943 C10.6424062,13.4027831 9.52494067,15.3394578 8.6938562,17.425143 C7.91936339,19.4130685 7.51816216,21.1546353 7.51816216,22.6043617 C7.56039452,23.5831539 6.96944397,24.461776 6.09825868,24.7154666 C5.2463297,24.9968466 4.33131403,24.9520263 3.50614987,24.5884971 C2.63397329,24.2341195 1.82110471,23.5367348 1.09719814,22.5152936 C0.373291578,21.4938523 0,20.0971878 0,18.382152 C0,16.8850489 0.523305951,15.1207413 1.59608315,12.9887907 C2.64269505,10.9042167 4.18993631,8.88786523 6.19245375,6.97763748 C8.19497119,5.06740973 10.727772,3.41301605 13.6931724,2.05046272 C16.6585728,0.687909398 20.1699557,0 24.0075327,0 C26.2001836,0.00116579821 28.3853211,0.278432344 30.5192031,0.826249305 C32.5599091,1.3322432 34.516341,2.17795646 36.3191774,3.33342323 C37.9714841,4.39144114 39.3983795,5.81825331 40.505625,7.5196267 C41.5992023,9.24552821 42.1693961,11.2993502 42.1365952,13.3943351 C42.1535688,15.7007916 41.662539,17.9782103 40.7044812,20.0365456 C39.7309797,22.0861215 38.4264072,23.9289823 36.8529494,25.4772836 C35.1605044,27.1421276 33.2666542,28.5479985 31.2239217,29.6559068 C29.4281472,30.6409002 27.5612925,31.4648373 25.6419916,32.1194942 C25.5894474,32.1292183 25.5426256,32.161261 25.5118621,32.2085489 C25.4810985,32.2558369 25.4689227,32.3144818 25.4780224,32.3715381 C25.5216312,33.4270906 25.589661,34.4655874 25.6856004,35.469973 C25.797239,36.6202788 25.9420203,37.7440537 26.1199444,38.8090815 C26.2978684,39.8741092 26.5054464,40.8747047 26.7461672,41.841189 C26.9310686,42.5878455 27.1386466,43.3155513 27.3619238,44.0034607 C27.5032164,44.4431163 27.6514865,44.8732965 27.8049895,45.2788409 C28.0978706,46.0696153 28.4297793,46.842661 28.7992708,47.5946131 C29.139766,48.28468 29.5165898,48.9528517 29.9278673,49.595804 C30.3083086,50.1857107 30.7225387,50.7490269 31.1681024,51.2824138 C31.5815995,51.7748453 32.0263348,52.2352096 32.4990439,52.6601277 C32.9417348,53.0570573 33.4111099,53.417492 33.9032482,53.738421 C34.3734002,54.0424682 34.8644383,54.3066661 35.3719936,54.528664 C35.8674205,54.7440485 36.3777901,54.9164083 36.8983026,55.0441223 C37.4213998,55.1704266 37.9526717,55.2527895 38.4874083,55.290481 C39.0396141,55.3269654 39.5935675,55.3180965 40.1445439,55.2639501 C40.7260553,55.2073656 41.3031399,55.1060411 41.8714535,54.9607393 C42.4798622,54.8032905 43.0782613,54.6032593 43.6629042,54.3618981 C44.2949012,54.1013931 44.9117883,53.7995243 45.5101742,53.457951 C45.7427546,53.3252963 45.9753351,53.1850613 46.2079155,53.0372461 C46.9719709,52.5576532 47.9463159,52.7863497 48.4599779,53.5658461 C48.9736399,54.3453425 48.8588832,55.4210951 48.1947337,56.052298 C47.870284,56.361194 47.5423456,56.6625097 47.217896,56.952455 C46.432937,57.6536298 45.6479781,58.3017428 44.8752297,58.8835284 C44.1426013,59.434993 43.3995069,59.9466611 42.6668785,60.3995822 C42.29882,60.6288853 41.913318,60.8543983 41.5225829,61.070436 C40.7853399,61.4772655 40.0283434,61.8403876 39.2549237,62.1582046 C38.524335,62.4598895 37.7775367,62.7130323 37.018663,62.9162315 C36.2964959,63.1069481 35.5633936,63.2449645 34.8242667,63.3293561 C34.3159865,63.3858249 33.8053998,63.4146341 33.294469,63.4146341 C33.0903796,63.4146341 32.8880347,63.4146341 32.6856897,63.4013687 C31.9926655,63.368286 31.3028871,63.278969 30.6221199,63.1341642 C30.2889484,63.0640467 29.9540326,62.9768736 29.6260942,62.8764351 C29.2981558,62.7759965 28.9841723,62.6679777 28.6597226,62.5391131 C28.0259626,62.2877466 27.4107514,61.9842894 26.81943,61.6313759 C26.2280519,61.2781535 25.6608354,60.8791591 25.1221744,60.4374836 C24.6763499,60.0717563 24.2494938,59.6795095 23.8435635,59.2625419 C23.3367918,58.7417746 22.8602493,58.1873499 22.4166826,57.602463 C21.9589085,56.9970996 21.5326221,56.3644247 21.1398161,55.7073958 C20.7421035,55.0403321 20.3635789,54.331577 20.0147083,53.598186 C19.6658376,52.864795 19.3378992,52.0821322 19.0396149,51.2843089 C18.7413305,50.4864856 18.4657227,49.6469708 18.2145358,48.7752399 C17.9633489,47.903509 17.7435604,47.0109324 17.5447042,46.0785593 C17.3458479,45.1461862 17.173157,44.1834921 17.0213982,43.2018473 C16.8940605,42.3395917 16.7859106,41.4432249 16.7004373,40.5354877 C16.6914485,40.4132661 16.6028046,40.3158039 16.4904189,40.3045767 C16.3780332,40.2933494 16.2745155,40.371615 16.2451611,40.4900061" id="Path"></path>
                    <path d="M156.091694,7.31697 C156.091692,10.2771182 154.308838,12.9456432 151.57481,14.0777104 C148.840783,15.2097776 145.694274,14.5823334 143.603092,12.4880729 C141.51191,10.3938125 140.888084,7.24537233 142.022623,4.51146171 C143.157161,1.7775511 145.826523,-0.00316171926 148.785483,0 C150.725106,0 152.585258,0.770958973 153.956594,2.1432125 C155.327931,3.51546604 156.098079,5.37656994 156.097561,7.31697" id="Path"></path>
                    <path d="M155.863181,34.8394412 C155.485866,34.2753324 154.861774,33.9402953 154.196674,33.944795 C153.568103,33.93973 152.978293,34.2571281 152.623373,34.7914452 C152.209542,35.4077143 151.691322,36.1353342 151.107858,36.9647058 C150.461669,37.8669062 149.765188,38.7297255 149.021928,39.5488125 C148.362587,40.2858543 147.659064,40.9796356 146.915493,41.626081 C146.220183,42.2212319 145.770935,42.3460216 145.515553,42.3460216 C145.329143,42.3460216 145.004789,42.3460216 144.930225,41.4417762 C144.851933,40.4952943 144.988012,39.2646759 145.334735,37.7940773 C145.744417,36.0903087 146.254257,34.4137566 146.861434,32.7736917 C147.532511,30.9325637 148.205452,29.1739888 148.861616,27.5459632 C149.543877,25.8545828 150.131069,24.4492588 150.653017,23.247438 C151.174966,22.0456172 151.501183,21.2738409 151.626078,20.9436282 C152.043637,19.9587495 151.890781,18.9873096 151.18615,18.1349 C150.508817,17.333837 149.609937,16.7651186 148.609962,16.5049545 C147.515954,16.2117772 146.369429,16.1946545 145.267628,16.4550387 C144.015389,16.72233 142.933205,17.5268121 142.292521,18.6666961 C141.666183,19.7206891 140.851571,21.3794322 139.869189,23.5930095 C138.886808,25.8065868 137.936116,28.275503 137.045075,30.9152851 C136.504486,32.5164329 136.004907,34.1444586 135.553794,35.7820834 C134.803218,38.5080156 133.258576,40.9311144 131.128417,42.7242304 C130.360169,43.3701126 129.559355,43.9737825 128.729318,44.5327211 C128.356497,44.7810206 127.983677,45.0107616 127.610857,45.2219442 C127.558767,45.2535747 127.492158,45.2422298 127.45273,45.1950119 C127.413301,45.147794 127.412381,45.0782679 127.450544,45.0299601 C128.095523,44.1557922 128.726832,43.2144299 129.344471,42.2058732 C130.738459,39.8728045 131.893556,37.3970231 132.791195,34.8183229 C133.864918,31.82529 134.537859,29.0971952 134.791376,26.7050726 C135.044894,24.3129501 134.959145,22.1723268 134.52481,20.4271908 C134.077425,18.6244596 133.292639,17.2076165 132.192819,16.2035394 C131.055717,15.1764242 129.64832,14.6542273 128.013503,14.6542273 C126.147815,14.6357632 124.317513,15.178919 122.747416,16.2169783 C121.693474,16.9112876 120.702147,17.7015913 119.785358,18.5783834 C119.710794,18.6494175 119.649279,18.6417382 119.598948,18.5534255 C119.3803,18.2025986 119.108414,17.8901735 118.793656,17.6280618 C118.006845,16.9688808 117.070381,16.5262833 116.072068,16.341768 C115.020439,16.1361123 113.935182,16.2114635 112.919872,16.56063 C111.815891,16.9294989 110.918576,17.7683612 110.455529,18.8644398 C109.450779,21.0933758 108.390105,23.6966809 107.301469,26.5994813 C106.212834,29.5022817 105.157753,32.5260321 104.153002,35.6035381 C104.04302,35.9452699 103.931174,36.2870017 103.821192,36.6287335 C102.974033,39.2529302 101.383382,41.5557921 99.2541426,43.2406677 C98.6949121,43.6841511 98.1114483,44.1084361 97.5149358,44.5116028 C97.1421155,44.7592624 96.7692951,44.9896434 96.3964748,45.2027458 C96.3445033,45.2320795 96.2796714,45.2197577 96.241289,45.1732517 C96.2029066,45.1267456 96.2015435,45.0588622 96.2380262,45.0107616 C96.8817626,44.1365938 97.5130717,43.1952315 98.1319534,42.1866747 C99.5251766,39.8531762 100.680234,37.3774785 101.578677,34.7991245 C102.650536,31.8060916 103.323477,29.0760769 103.578858,26.6858742 C103.836104,24.2630342 103.746628,22.1512085 103.312292,20.4079924 C102.864908,18.6052612 102.080121,17.1884181 100.980301,16.184341 C99.8431988,15.1572258 98.435802,14.6345768 96.8009849,14.6345768 C94.9347235,14.6166372 93.1038445,15.159772 91.5330336,16.1977799 C90.4800135,16.8925873 89.4893473,17.6828614 88.5728402,18.559185 C88.4982762,18.6302191 88.4367608,18.6225398 88.3864301,18.5323072 C88.1670842,18.181998 87.8945663,17.8702182 87.5792741,17.6088634 C86.7905673,16.9640969 85.8562113,16.5354563 84.863278,16.3628863 C83.8116046,16.1580029 82.7265379,16.2333408 81.7110821,16.5817482 C80.6068904,16.9510207 79.7091332,17.7896617 79.2448756,18.885558 C78.2401248,21.1183338 77.179451,23.7216389 76.0926797,26.6205996 C75.0730161,29.3429349 74.0813141,32.1708615 73.1399427,35.0314253 C72.4770872,37.1158623 71.3244772,38.9993547 69.7845598,40.5144928 C69.3744574,40.9253389 68.9755397,41.2977881 68.5896706,41.626081 C67.8924966,42.2212319 67.4432481,42.3460216 67.1878662,42.3460216 C67.0107765,42.3460216 66.6771023,42.3460216 66.6044024,41.4417762 C66.5261101,40.4972142 66.6603254,39.2665958 67.0070483,37.7940773 C67.4169954,36.0903851 67.9268299,34.4138494 68.5337476,32.7736917 C69.1973678,30.9517621 69.8721726,29.1931872 70.5357927,27.5459632 C71.1994129,25.8987392 71.8089742,24.4396596 72.3271944,23.247438 C72.8454147,22.0552164 73.1753607,21.2700012 73.2983914,20.9436282 C73.7178142,19.9587495 73.5649579,18.9873096 72.8584634,18.1349 C72.1685393,17.3253734 71.2524284,16.7553815 70.2356724,16.5030347 C69.1419396,16.2120781 67.9963904,16.1956188 66.8952022,16.4550387 C65.6648952,16.7334157 64.6806495,17.4840737 63.9704268,18.6839747 C63.828755,18.9201152 63.681491,19.1812136 63.5249065,19.4730296 C63.4994439,19.5197736 63.4485067,19.5453577 63.3970657,19.5372399 C63.3456246,19.5291221 63.3044624,19.489004 63.2937579,19.4365526 C63.1630335,18.7922659 62.943982,18.1704073 62.6431864,17.589665 C62.1885554,16.713453 61.508056,15.9833758 60.6765592,15.4797592 C59.8060237,14.9422035 58.7024755,14.6676662 57.3938762,14.6676662 C54.3106521,14.6676662 51.1845536,16.1344251 48.1013295,19.0237866 C45.0740284,21.8632323 42.5630835,26.3902186 40.6449229,32.4876353 C39.7408336,35.4269127 39.2114288,38.1434885 39.069757,40.5624888 C38.9280853,42.9814891 39.1182237,45.1240323 39.6401721,46.8422905 C40.1751693,48.6123844 41.0326561,50.0119488 42.186535,50.9968275 C43.3779355,52.0169819 44.8856996,52.5620802 46.4348226,52.5327008 C47.6035263,52.5403283 48.7634287,52.3241962 49.8554491,51.8953134 C50.8619492,51.4988693 51.8158317,50.9731567 52.6944759,50.3306425 C53.3520754,49.8473416 53.9631876,49.3002455 54.5194314,48.6968574 C54.70311,48.4975681 54.9761792,48.4145383 55.2355018,48.4791281 C55.4948244,48.5437179 55.7008776,48.7460833 55.7758359,49.0097916 C55.9437824,49.6112964 56.200955,50.1824669 56.5382535,50.7030918 C57.3435454,51.9164316 58.6185909,52.5327008 60.3279722,52.5327008 C62.2200353,52.5327008 64.1326036,51.803161 66.0116181,50.36136 C66.9015525,49.6780265 67.7558761,48.9468313 68.5710296,48.1708208 C68.653621,48.0934338 68.776049,48.0818979 68.8709042,48.1425648 C68.9657595,48.2032318 69.0100005,48.3213647 68.9792679,48.4319192 C68.4946014,50.0906623 68.0602658,51.6265356 67.6743967,53.0683366 C67.0145047,55.4911766 66.4776435,57.5780443 66.0787257,59.2713445 C65.5437285,61.5425171 65.4766209,62.1511068 65.4766209,62.4429228 C65.4420929,63.7395769 65.8879599,65.0011733 66.7237049,65.9715915 C67.4720583,66.847744 68.4210116,67.5175541 69.4844394,67.9202307 C70.1153441,68.1584633 70.7810057,68.2844101 71.4529308,68.2926829 C71.795799,68.2926829 72.1376935,68.2550927 72.4725943,68.1794093 C73.218235,68.0066235 74.1502858,67.4978655 74.4243088,66.0675836 L74.4243088,66.038786 C74.5324267,65.2804485 74.741206,64.2533333 75.0413264,62.9843181 C75.3526314,61.6673068 75.7329081,60.1698304 76.1691079,58.5302857 C76.6053077,56.890741 77.0918382,55.0841702 77.6715738,52.978104 C77.9400045,52.0053843 78.2276975,50.9878683 78.5346529,49.925556 C78.562488,49.8273043 78.6445983,49.755664 78.7432751,49.7435357 C78.8419518,49.7314073 78.9381258,49.7811346 78.9876296,49.8698806 C79.1257356,50.1149311 79.2776073,50.3514736 79.4424704,50.5783021 C80.3838417,51.8780348 81.8863076,52.5384603 83.9163143,52.5423 C84.3226885,52.5614984 84.7290626,52.5710976 85.1279804,52.5710976 L85.1279804,52.5710976 C87.9621393,52.5919907 90.7744319,52.0590975 93.4157763,51.0006672 C95.7438348,50.0601347 97.9622761,48.8539941 100.029609,47.404804 C100.116283,47.34731 100.22846,47.3510586 100.311333,47.4142185 C100.394206,47.4773784 100.430479,47.5867668 100.402429,47.6889406 C99.8431988,49.6087821 99.3231144,51.415353 98.8738659,53.0644969 C98.2102457,55.5046155 97.6733844,57.5914832 97.2781949,59.2675049 C96.7450618,61.5425171 96.6760901,62.1587862 96.6760901,62.4390831 C96.6416967,63.7360588 97.0882904,64.9978256 97.9250382,65.9677518 C98.6722178,66.8461653 99.6214374,67.5174834 100.685773,67.9202307 C101.315992,68.1586112 101.981067,68.2845661 102.6524,68.2926829 C102.995263,68.2926829 103.337146,68.2549881 103.672064,68.1794093 C104.417704,68.0066235 105.349755,67.4978655 105.623778,66.0675836 L105.623778,66.038786 C105.731896,65.2708493 105.938811,64.2494936 106.240796,62.9843181 C106.552101,61.6692266 106.930513,60.1698304 107.359257,58.5302857 C107.788,56.890741 108.291307,55.074571 108.863587,52.978104 C109.132017,52.0028245 109.419089,50.9853085 109.724802,49.925556 C109.75345,49.8275288 109.835806,49.7563243 109.934511,49.7442422 C110.033215,49.7321602 110.129482,49.7815002 110.179642,49.8698806 C110.317525,50.1150736 110.469405,50.3516294 110.634483,50.5783021 C111.566534,51.8780348 113.07832,52.5384603 115.099007,52.5423 C115.505381,52.5614984 115.913619,52.5710976 116.310673,52.5710976 L116.310673,52.5710976 C119.147371,52.596359 121.962933,52.066703 124.607789,51.0102664 C127.32344,49.9211565 129.885634,48.4632587 132.226372,46.6752642 C132.599193,46.3834483 132.972013,46.0877927 133.329921,45.7882975 C133.40487,45.7253774 133.5085,45.7130759 133.595382,45.7567853 C133.682265,45.8004948 133.736546,45.8922388 133.734431,45.9918007 C133.734431,46.0897126 133.734431,46.1837848 133.734431,46.2836166 C133.734431,48.1113057 134.107251,49.6011027 134.852892,50.712691 C135.658184,51.9260308 136.933229,52.5423 138.640746,52.5423 C140.530945,52.5423 142.456562,51.8127602 144.361674,50.3747989 C146.218856,48.9665122 147.924287,47.3574732 149.448808,45.575195 C150.903268,43.8953579 152.248943,42.1188747 153.477131,40.257234 C154.619825,38.5024988 155.389699,37.3025979 155.829627,36.5903367 C156.176418,36.0728912 156.187444,35.3915394 155.857589,34.8624793 M59.3959213,25.512851 C59.2286624,26.9797037 58.9677444,28.4336129 58.6148627,29.8651318 C58.1981111,31.5702262 57.6750784,33.2458819 57.0490174,34.8816777 C56.3965818,36.5999359 55.7012719,38.2164424 54.9817286,39.6812815 C54.3720121,40.9545189 53.6625475,42.1744572 52.860381,43.3289805 C52.3234117,44.1222385 51.6801307,44.8332316 50.9496768,45.4408061 C50.5153411,45.7729387 50.2767361,45.8094181 50.1947156,45.8094181 C50.1587136,45.8094181 50.1231039,45.8017151 50.0903259,45.7863776 C50.0101696,45.7499006 49.7398748,45.5617562 49.6000672,44.6863084 C49.4635803,43.6679797 49.4510561,42.6360862 49.5627852,41.614562 C49.7054434,40.1637321 49.9547047,38.72613 50.3084258,37.3141169 C50.7231195,35.6084165 51.2461948,33.9326243 51.8742712,32.297571 C52.5360273,30.5562747 53.2332013,28.9397682 53.943424,27.4979672 C54.5577967,26.2155395 55.2683078,24.984391 56.0684999,23.8157111 C56.748897,22.8404316 57.390148,22.120491 57.9736118,21.6712481 C58.4079475,21.3391155 58.6465525,21.3044482 58.730437,21.3044482 C58.7649355,21.3035023 58.799255,21.3100478 58.8310985,21.3237568 C58.913119,21.3640735 59.2039189,21.5579775 59.3698239,22.4449443 C59.5245443,23.2339991 59.535729,24.2707135 59.4033777,25.5166907 M93.1753072,25.5934844 C92.9106036,27.0540277 92.5664453,28.4981035 92.144459,29.9188873 C91.6437342,31.6210517 91.0531785,33.2938015 90.3754265,34.9296737 C89.6055525,36.6575311 88.8114452,38.2836369 88.0136097,39.7407966 C87.3224156,41.0273326 86.5424603,42.2611203 85.6797545,43.4326519 C84.9341138,44.4117711 84.2574449,45.1355513 83.6441555,45.5867141 C83.1837224,45.926526 82.9302046,45.9706924 82.8425918,45.9706924 C82.8047698,45.9710128 82.7673015,45.9631643 82.7326098,45.9476443 C82.6561816,45.9111673 82.3989356,45.7307022 82.2852254,44.8667735 C82.1826998,44.0815583 82.2386229,43.0448439 82.4511304,41.783508 C82.7111556,40.3105654 83.0553703,38.8547137 83.4819786,37.4235479 C83.9829967,35.7148422 84.5760791,34.0362183 85.2584675,32.3954829 C85.9279414,30.7514275 86.6981228,29.1528216 87.5643612,27.609318 C88.2721431,26.3376912 89.0657148,25.1187965 89.9392267,23.9616191 C90.5242653,23.1641236 91.2101043,22.4506746 91.9785539,21.8401942 C92.4408511,21.5003822 92.6962331,21.4560144 92.7838458,21.4560144 C92.820377,21.4546518 92.8567605,21.4618831 92.8900996,21.4773441 C92.9665278,21.5119013 93.2256379,21.6962061 93.337484,22.5582149 C93.4418737,23.3453499 93.3859507,24.3705453 93.1753072,25.5992439 M124.387825,25.5992439 C124.122694,27.0596921 123.778542,28.5037435 123.356977,29.9246469 C122.855506,31.6265552 122.264965,33.2992636 121.587944,34.9354333 C120.819935,36.6632906 120.023963,38.2874766 119.226128,39.7465562 C118.535604,41.0335069 117.755618,42.2673433 116.892272,43.4384114 C116.146632,44.4175306 115.469963,45.1432307 114.858537,45.5924736 C114.398104,45.9322856 114.142722,45.9764448 114.053246,45.9764448 C114.01604,45.9764448 113.979211,45.9687699 113.945128,45.9534038 C113.8687,45.9169268 113.611453,45.7345419 113.499607,44.872533 C113.395218,44.0834782 113.451141,43.0467637 113.663648,41.7892675 C113.923712,40.3163333 114.267926,38.8604839 114.694497,37.4293074 C115.19628,35.7211123 115.788713,34.0425665 116.469121,32.4012424 C117.140187,30.7572709 117.911603,29.1586875 118.778743,27.6150775 C119.484786,26.3423395 120.278438,25.1233207 121.153609,23.9673786 C121.737676,23.1690172 122.423636,22.4554422 123.192936,21.8459537 C123.655233,21.5061417 123.908751,21.4617739 123.996364,21.4617739 C124.032895,21.4604113 124.069278,21.4676427 124.102618,21.4831036 C124.179046,21.5176608 124.436292,21.7019656 124.551866,22.5639744 C124.654392,23.3549491 124.600333,24.3763048 124.387825,25.6050034" id="Shape"></path>
                    <path d="M154.068961,88.6484354 C145.857261,95.7969514 138.57266,96.2460155 129.824896,89.8422887 C125.802576,86.9014666 122.200664,83.3947507 118.16733,80.4740087 C115.046407,78.2104337 111.7419,75.9632878 108.187719,74.5649826 C102.024814,72.1407667 95.7737881,72.9640509 90.1469473,76.3648898 C86.3247343,78.6741015 82.8421513,81.5528578 79.2971497,84.2965298 C78.7996379,84.6762263 78.4269629,84.8843291 78.0487805,84.8697254 C77.670598,84.8843291 77.2997589,84.6762263 76.8004112,84.2965298 C73.2554097,81.5583342 69.7728266,78.6741015 65.9506137,76.3648898 C60.3292803,72.9640509 54.0727473,72.1407667 47.9116779,74.5649826 C44.3501538,75.9632878 41.0511545,78.2159101 37.9320671,80.4740087 C33.8932254,83.3947507 30.2949846,86.903292 26.2726654,89.8441141 C17.5267372,96.247841 10.2421354,95.7987769 2.03961507,88.6502608 C1.35668365,88.0600276 0.676811962,87.4716198 0,86.8850374 C1.22266754,93.6173477 3.85525801,99.6413781 7.75090444,105.117769 C12.7168439,112.105645 19.2303941,117.111066 27.4053769,119.858389 C46.5164416,126.293149 70.6558643,117.333773 78.0487805,100.433629 C85.4435325,117.333773 109.582955,126.293149 128.692184,119.86204 C136.867167,117.123844 143.378881,112.109295 148.346657,105.12142 C152.238631,99.645029 154.876729,93.6209986 156.097561,86.8850374 C155.421973,87.4691858 154.748833,88.0569851 154.07814,88.6484354" id="Path"></path>
                </g>
            </g>
        </g>
    </g>
</svg>