<?xml version="1.0" encoding="UTF-8"?>
<svg width="54px" height="54px" viewBox="0 0 54 54" version="1.1" xmlns="http://www.w3.org/2000/svg" xmlns:xlink="http://www.w3.org/1999/xlink">
    <!-- Generator: Sketch 64 (93537) - https://sketch.com -->
    <title>img-10</title>
    <desc>Created with Sketch.</desc>
    <g id="Welcome" stroke="none" stroke-width="1" fill="none" fill-rule="evenodd">
        <g id="HOME---Dónde-Comprar---exito.com---Desktop-HD" transform="translate(-196.000000, -1680.000000)" fill="#000000" fill-rule="nonzero">
            <g id="img-10" transform="translate(196.000000, 1680.000000)">
                <path d="M27,54 C19.7880469,54 13.0077773,51.1914727 7.90804688,46.0919531 C2.80852734,40.9922227 0,34.2119531 0,27 C0,19.7880469 2.80852734,13.0077773 7.90804688,7.90804688 C13.0077773,2.80852734 19.7880469,0 27,0 C34.2119531,0 40.9922227,2.80852734 46.0919531,7.90804688 C51.1914727,13.0077773 54,19.7880469 54,27 C54,34.2119531 51.1914727,40.9922227 46.0919531,46.0919531 C40.9922227,51.1914727 34.2119531,54 27,54 Z M27,3.1640625 C20.633168,3.1640625 14.6475,5.64342188 10.1454609,10.1454609 C5.64342187,14.6475 3.1640625,20.633168 3.1640625,27 C3.1640625,33.366832 5.64342187,39.3525 10.1454609,43.8545391 C14.6475,48.3565781 20.633168,50.8359375 27,50.8359375 C33.366832,50.8359375 39.3525,48.3565781 43.8545391,43.8545391 C48.3565781,39.3525 50.8359375,33.366832 50.8359375,27 C50.8359375,20.633168 48.3565781,14.6475 43.8545391,10.1454609 C39.3525,5.64342188 33.366832,3.1640625 27,3.1640625 Z" id="Shape"></path>
                <polygon id="Path" points="26 6 29 6 29 10 26 10"></polygon>
                <polygon id="Path" transform="translate(40.115988, 13.881017) rotate(-45.000000) translate(-40.115988, -13.881017) " points="38.0052446 12.2992245 42.226732 12.2992245 42.226732 15.4628092 38.0052446 15.4628092"></polygon>
                <polygon id="Path" points="44 26 48 26 48 29 44 29"></polygon>
                <polygon id="Path" transform="translate(40.113182, 40.121789) rotate(-45.000000) translate(-40.113182, -40.121789) " points="38.53139 38.0110454 41.6949747 38.0110454 41.6949747 42.2325328 38.53139 42.2325328"></polygon>
                <polygon id="Path" points="26 44 29 44 29 48 26 48"></polygon>
                <polygon id="Path" transform="translate(13.872410, 40.118983) rotate(-45.000000) translate(-13.872410, -40.118983) " points="11.7616665 38.5371908 15.9831539 38.5371908 15.9831539 41.7007755 11.7616665 41.7007755"></polygon>
                <polygon id="Path" points="6 26 10 26 10 29 6 29"></polygon>
                <polygon id="Path" transform="translate(13.875216, 13.878211) rotate(-45.000000) translate(-13.875216, -13.878211) " points="12.2934237 11.7674672 15.4570084 11.7674672 15.4570084 15.9889546 12.2934237 15.9889546"></polygon>
                <polygon id="Path" points="38 28 26 28 26 16 28.9778645 16 28.9778645 25.0221355 38 25.0221355"></polygon>
            </g>
        </g>
    </g>
</svg>