<?xml version="1.0" encoding="UTF-8"?>
<svg width="115px" height="50px" viewBox="0 0 115 50" version="1.1" xmlns="http://www.w3.org/2000/svg" xmlns:xlink="http://www.w3.org/1999/xlink">
    <!-- Generator: Sketch 64 (93537) - https://sketch.com -->
    <title>img-08</title>
    <desc>Created with Sketch.</desc>
    <defs>
        <linearGradient x1="9.48093049%" y1="89.0630319%" x2="77.0960489%" y2="12.6419365%" id="linearGradient-1">
            <stop stop-color="#0060AC" offset="1%"></stop>
            <stop stop-color="#234799" offset="17%"></stop>
            <stop stop-color="#5D3A87" offset="36%"></stop>
            <stop stop-color="#9A2C74" offset="58%"></stop>
            <stop stop-color="#C62267" offset="76%"></stop>
            <stop stop-color="#E21C5E" offset="91%"></stop>
            <stop stop-color="#EC1A5B" offset="99%"></stop>
        </linearGradient>
        <radialGradient cx="166.585136%" cy="83.2286713%" fx="166.585136%" fy="83.2286713%" r="65.6399276%" gradientTransform="translate(1.665851,0.832287),scale(0.885662,1.000000),rotate(38.511497),translate(-1.665851,-0.832287)" id="radialGradient-2">
            <stop stop-color="#FFFFFF" stop-opacity="0.2" offset="0%"></stop>
            <stop stop-color="#FFFFFF" stop-opacity="0.1" offset="37%"></stop>
            <stop stop-color="#FFFFFF" stop-opacity="0.03" offset="74%"></stop>
            <stop stop-color="#FFFFFF" stop-opacity="0" offset="100%"></stop>
        </radialGradient>
        <radialGradient cx="-19938.9201%" cy="-15091.3934%" fx="-19938.9201%" fy="-15091.3934%" r="58.4455121%" gradientTransform="translate(-199.389201,-150.913934),scale(0.884459,1.000000),translate(199.389201,150.913934)" id="radialGradient-3">
            <stop stop-color="#FFFFFF" stop-opacity="0.2" offset="0%"></stop>
            <stop stop-color="#FFFFFF" stop-opacity="0.1" offset="37%"></stop>
            <stop stop-color="#FFFFFF" stop-opacity="0.03" offset="74%"></stop>
            <stop stop-color="#FFFFFF" stop-opacity="0" offset="100%"></stop>
        </radialGradient>
        <radialGradient cx="40.0606471%" cy="46.0876919%" fx="40.0606471%" fy="46.0876919%" r="65.1971636%" gradientTransform="translate(0.400606,0.460877),scale(0.901370,1.000000),rotate(39.621620),translate(-0.400606,-0.460877)" id="radialGradient-4">
            <stop stop-color="#FFFFFF" stop-opacity="0.5" offset="0%"></stop>
            <stop stop-color="#FFFFFF" stop-opacity="0.39" offset="16%"></stop>
            <stop stop-color="#FFFFFF" stop-opacity="0.22" offset="42%"></stop>
            <stop stop-color="#FFFFFF" stop-opacity="0.1" offset="66%"></stop>
            <stop stop-color="#FFFFFF" stop-opacity="0.03" offset="86%"></stop>
            <stop stop-color="#FFFFFF" stop-opacity="0" offset="100%"></stop>
        </radialGradient>
        <linearGradient x1="80.2034133%" y1="19.9719868%" x2="37.3774059%" y2="63.5045257%" id="linearGradient-5">
            <stop stop-color="#FFFFFF" stop-opacity="0.5" offset="0%"></stop>
            <stop stop-color="#FFFFFF" stop-opacity="0.39" offset="16%"></stop>
            <stop stop-color="#FFFFFF" stop-opacity="0.22" offset="42%"></stop>
            <stop stop-color="#FFFFFF" stop-opacity="0.1" offset="66%"></stop>
            <stop stop-color="#FFFFFF" stop-opacity="0.03" offset="86%"></stop>
            <stop stop-color="#FFFFFF" stop-opacity="0" offset="100%"></stop>
        </linearGradient>
        <linearGradient x1="225.744432%" y1="281.356741%" x2="206.870597%" y2="249.509732%" id="linearGradient-6">
            <stop stop-color="#FFFFFF" stop-opacity="0.5" offset="0%"></stop>
            <stop stop-color="#FFFFFF" stop-opacity="0.39" offset="8%"></stop>
            <stop stop-color="#FFFFFF" stop-opacity="0.22" offset="21%"></stop>
            <stop stop-color="#FFFFFF" stop-opacity="0.1" offset="33%"></stop>
            <stop stop-color="#FFFFFF" stop-opacity="0.03" offset="44%"></stop>
            <stop stop-color="#FFFFFF" stop-opacity="0" offset="51%"></stop>
        </linearGradient>
    </defs>
    <g id="Welcome" stroke="none" stroke-width="1" fill="none" fill-rule="evenodd">
        <g id="HOME---Dónde-Comprar---exito.com---Desktop-HD" transform="translate(-1116.000000, -1204.000000)" fill-rule="nonzero">
            <g id="img-08" transform="translate(1115.000000, 1204.000000)">
                <path d="M55.2171845,25.5227273 C55.8305825,25.5227273 57.0460194,25.7272727 57.0460194,26.5 C57.0521693,26.64771 56.9993484,26.7918033 56.8992002,26.9005169 C56.7990521,27.0092305 56.6597986,27.0736393 56.5121359,27.0795455 C56.1713592,27.0795455 55.9328155,26.7727273 55.2171845,26.7727273 C54.1607767,26.7727273 53.615534,27.6931818 53.615534,28.7613636 C53.615534,29.8295455 54.1721359,30.6931818 55.2171845,30.6931818 C55.9328155,30.6931818 56.2167961,30.3181818 56.568932,30.3181818 C56.8768235,30.3466566 57.1153949,30.5999328 57.125534,30.9090909 C57.125534,31.75 55.8419417,31.9431818 55.2171845,31.9431818 C54.3889324,31.9359169 53.6005677,31.5862761 53.0390273,30.9771663 C52.477487,30.3680565 52.192784,29.5537274 52.2524272,28.7272727 C52.1891958,27.901042 52.4730306,27.0858286 53.0356735,26.4776794 C53.5983164,25.8695302 54.388858,25.5234722 55.2171845,25.5227273 L55.2171845,25.5227273 Z" id="Path" fill="#777677"></path>
                <path d="M60.0334951,28.7272727 C59.9706505,27.9069151 60.2499551,27.0971131 60.8051156,26.490074 C61.3602761,25.8830349 62.1417938,25.532883 62.9641748,25.5227273 C63.7812505,25.5457079 64.5538528,25.9001091 65.1044407,26.5044907 C65.6550285,27.1088724 65.9362549,27.9112617 65.8834951,28.7272727 C65.9811996,29.8363389 65.4449599,30.9056264 64.4978485,31.490318 C63.5507371,32.0750097 62.354894,32.0750097 61.4077826,31.490318 C60.4606712,30.9056264 59.9244315,29.8363389 60.0221359,28.7272727 L60.0334951,28.7272727 Z M64.5771845,28.7272727 C64.5771845,27.6704545 64.043301,26.7272727 62.975534,26.7272727 C61.907767,26.7272727 61.3398058,27.6704545 61.3398058,28.7272727 C61.3398058,29.7840909 61.8623301,30.7386364 62.9414563,30.7386364 C64.0205825,30.7386364 64.5658252,29.7954545 64.5658252,28.7272727 L64.5771845,28.7272727 Z" id="Shape" fill="#777677"></path>
                <path d="M68.9732039,26.25 C68.9732039,25.8985461 69.2580029,25.6136364 69.6093204,25.6136364 C69.9606378,25.6136364 70.2454369,25.8985461 70.2454369,26.25 L70.2454369,30.6818182 L71.7562136,30.6818182 C71.9238951,30.6713881 72.0878441,30.7342937 72.2055469,30.8542228 C72.3232498,30.9741519 72.3831124,31.1392912 72.3696117,31.3068182 C72.3572867,31.6349918 72.0844284,31.8927915 71.7562136,31.8863636 L69.6320388,31.8863636 C69.4446924,31.8945576 69.2632773,31.8196381 69.1362646,31.6816224 C69.0092519,31.5436068 68.9495842,31.3565587 68.9732039,31.1704545 L68.9732039,26.25 Z" id="Path" fill="#777677"></path>
                <path d="M74.9027184,28.7272727 C74.8398738,27.9069151 75.1191784,27.0971131 75.6743389,26.490074 C76.2294994,25.8830349 77.0110171,25.532883 77.8333981,25.5227273 C78.6524715,25.5426741 79.4280295,25.8957573 79.9810789,26.500488 C80.5341283,27.1052187 80.8168802,27.9093422 80.7640777,28.7272727 C80.8617821,29.8363389 80.3255424,30.9056264 79.378431,31.490318 C78.4313196,32.0750097 77.2354765,32.0750097 76.2883651,31.490318 C75.3412537,30.9056264 74.805014,29.8363389 74.9027184,28.7272727 L74.9027184,28.7272727 Z M79.4464078,28.7272727 C79.4464078,27.6704545 78.9125243,26.7272727 77.8447573,26.7272727 C76.7769903,26.7272727 76.2431068,27.6704545 76.2431068,28.7272727 C76.2431068,29.7840909 76.7656311,30.7386364 77.8447573,30.7386364 C78.9238835,30.7386364 79.4350485,29.7954545 79.4350485,28.7272727 L79.4464078,28.7272727 Z" id="Shape" fill="#777677"></path>
                <path d="M84.4671845,26.2386364 C84.5523695,25.8483592 84.8970929,25.5696389 85.2964078,25.5681818 C85.6835649,25.5764077 86.0241361,25.8262569 86.1483495,26.1931818 L87.1479612,29.6590909 L87.1479612,29.6590909 L88.1475728,26.1931818 C88.2717862,25.8262569 88.6123574,25.5764077 88.9995146,25.5681818 C89.3988294,25.5696389 89.7435528,25.8483592 89.8287379,26.2386364 L90.6238835,31.1136364 C90.6290583,31.1627427 90.6290583,31.2122573 90.6238835,31.2613636 C90.6334141,31.4289103 90.5726343,31.5928372 90.4561913,31.7136398 C90.3397483,31.8344425 90.1782028,31.9011647 90.0104854,31.8977273 C89.578835,31.8977273 89.4084466,31.6931818 89.3516505,31.2840909 L88.8404854,27.7272727 L88.8404854,27.7272727 L87.8181553,31.3863636 C87.7373771,31.696762 87.4572223,31.9134034 87.1366019,31.9134034 C86.8159816,31.9134034 86.5358268,31.696762 86.4550485,31.3863636 L85.4327184,27.7272727 L85.4327184,27.7272727 L84.9215534,31.2840909 C84.9215534,31.6931818 84.6943689,31.8977273 84.2627184,31.8977273 C84.0950011,31.9011647 83.9334556,31.8344425 83.8170126,31.7136398 C83.7005696,31.5928372 83.6397898,31.4289103 83.6493204,31.2613636 C83.6441456,31.2122573 83.6441456,31.1627427 83.6493204,31.1136364 L84.4671845,26.2386364 Z" id="Path" fill="#777677"></path>
                <path d="M93.7931068,26.2727273 C93.7861557,26.0948708 93.8553374,25.9224866 93.9832982,25.7988153 C94.1112591,25.6751441 94.2858588,25.6119192 94.463301,25.625 L96.0990291,25.625 C96.516379,25.6062717 96.9230787,25.7599697 97.2238077,26.0500711 C97.5245367,26.3401724 97.6928577,26.741174 97.6893204,27.1590909 C97.7269512,27.7134129 97.4070552,28.230017 96.8941748,28.4431818 L96.8941748,28.4431818 C97.6330036,28.5449079 98.1847911,29.1743837 98.1891262,29.9204545 C98.2255607,30.4462972 98.0276932,30.9613432 97.6486031,31.3274278 C97.269513,31.6935125 96.7480062,31.8731612 96.2239806,31.8181818 L94.4746602,31.8181818 C94.294204,31.8312432 94.1167261,31.7668131 93.986641,31.6410153 C93.856556,31.5152176 93.7861734,31.3399561 93.7931068,31.1590909 L93.7931068,26.2727273 Z M95.076699,28.0909091 L95.735534,28.0909091 C95.9231721,28.1046167 96.1074914,28.0359995 96.2405249,27.9029143 C96.3735584,27.7698292 96.4421489,27.5854383 96.4284466,27.3977273 C96.4295106,27.2194481 96.3544179,27.0492001 96.2220611,26.9298156 C96.0897043,26.8104312 95.9126831,26.7532751 95.735534,26.7727273 L95.076699,26.7727273 L95.076699,28.0909091 Z M95.076699,30.6931818 L96.0763107,30.6931818 C96.2867039,30.7132832 96.4954263,30.6407946 96.6481096,30.494598 C96.800793,30.3484015 96.8823207,30.1429713 96.8714563,29.9318182 C96.8714563,29.5227273 96.5647573,29.2386364 95.9740777,29.2386364 L95.076699,29.2386364 L95.076699,30.6931818 Z" id="Shape" fill="#777677"></path>
                <path d="M101.233398,26.25 C101.233398,25.8985461 101.518197,25.6136364 101.869515,25.6136364 C102.220832,25.6136364 102.505631,25.8985461 102.505631,26.25 L102.505631,31.2159091 C102.505631,31.567363 102.220832,31.8522727 101.869515,31.8522727 C101.518197,31.8522727 101.233398,31.567363 101.233398,31.2159091 L101.233398,26.25 Z" id="Path" fill="#777677"></path>
                <path d="M107.231068,26.2386364 C107.351193,25.8311048 107.715624,25.5440041 108.139806,25.5227273 C108.56926,25.529558 108.941221,25.8225915 109.048544,26.2386364 L110.71835,30.9886364 C110.75542,31.0950182 110.778336,31.205818 110.786505,31.3181818 C110.786505,31.4738761 110.723943,31.6230344 110.61283,31.7320529 C110.501717,31.8410714 110.351429,31.9007801 110.195825,31.8977273 C109.90781,31.9164821 109.648423,31.7242691 109.582427,31.4431818 L109.321165,30.6136364 L106.958447,30.6136364 L106.697184,31.4318182 C106.63595,31.7174534 106.375265,31.915458 106.083786,31.8977273 C105.919144,31.9007779 105.76019,31.8374764 105.642687,31.7220649 C105.525184,31.6066535 105.459001,31.4488255 105.459029,31.2840909 C105.443322,31.1862328 105.443322,31.0864945 105.459029,30.9886364 L107.231068,26.2386364 Z M107.321942,29.4090909 L108.934951,29.4090909 L108.151165,26.875 L108.151165,26.875 L107.321942,29.4090909 Z" id="Shape" fill="#777677"></path>
                <path d="M52.3092233,13.3863636 C52.2904155,13.0733518 52.4017371,12.7664778 52.6168363,12.538384 C52.8319355,12.3102903 53.1316911,12.1812532 53.4451456,12.1818182 L56.3190291,12.1818182 C57.2747717,12.1485357 58.2005121,12.5185319 58.8702214,13.2014686 C59.5399307,13.8844052 59.891971,14.817427 59.8403883,15.7727273 C59.9229213,16.7139781 59.5962065,17.6451876 58.9437431,18.3283646 C58.2912797,19.0115415 57.3762906,19.3804871 56.4326214,19.3409091 L54.6492233,19.3409091 L54.6492233,21.5909091 C54.6492233,22.2373333 54.1253965,22.7613636 53.4792233,22.7613636 C52.8330501,22.7613636 52.3092233,22.2373333 52.3092233,21.5909091 L52.3092233,13.3863636 Z M54.6492233,17.2045455 L55.8987379,17.2045455 C56.2975982,17.2363155 56.6915415,17.0996092 56.9850561,16.827571 C57.2785706,16.5555328 57.4448545,16.1730033 57.4435922,15.7727273 C57.4706234,15.36289 57.3130951,14.9624233 57.0141189,14.6809245 C56.7151426,14.3994258 56.3060275,14.2663739 55.8987379,14.3181818 L54.6492233,14.3181818 L54.6492233,17.2045455 Z" id="Shape" fill="#777677"></path>
                <path d="M64.0092233,18.4886364 C64.0092233,19.6559655 64.955163,20.6022727 66.1220388,20.6022727 C67.2889146,20.6022727 68.2348544,19.6559655 68.2348544,18.4886364 L68.2348544,13.375 C68.2348544,12.7285758 68.7586812,12.2045455 69.4048544,12.2045455 C70.0510275,12.2045455 70.5748544,12.7285758 70.5748544,13.375 L70.5748544,18.4886364 C70.6578893,20.131709 69.8288982,21.6867981 68.4187378,22.5332555 C67.0085775,23.3797129 65.2468594,23.3797129 63.8366991,22.5332555 C62.4265387,21.6867981 61.5975476,20.131709 61.6805825,18.4886364 L61.6805825,13.375 C61.6805825,12.7474037 62.1891523,12.2386364 62.8165049,12.2386364 C63.4438574,12.2386364 63.9524272,12.7474037 63.9524272,13.375 L64.0092233,18.4886364 Z" id="Path" fill="#777677"></path>
                <path d="M72.7899029,13.375 C72.7507204,13.0507844 72.8528655,12.7253763 73.0702861,12.4817706 C73.2877068,12.2381648 73.5993841,12.0999118 73.9258252,12.102243 C74.5392233,12.102243 74.7550485,12.375 75.538835,13.3863636 L79.4123301,18.375 L79.4123301,18.375 L79.4123301,13.375 C79.4123301,12.7285758 79.9361569,12.2045455 80.5823301,12.2045455 C81.2285033,12.2045455 81.7523301,12.7285758 81.7523301,13.375 L81.7523301,21.5909091 C81.7915126,21.9151247 81.6893676,22.2405328 81.4719469,22.4841385 C81.2545262,22.7277443 80.9428489,22.8659973 80.6164078,22.8636661 C79.9916505,22.8636661 79.764466,22.5795455 79.0033981,21.5795455 L75.1185437,16.5795455 L75.1185437,16.5795455 L75.1185437,21.5909091 C75.1185437,22.2185054 74.6099739,22.7272727 73.9826214,22.7272727 C73.3552688,22.7272727 72.846699,22.2185054 72.846699,21.5909091 L72.7899029,13.375 Z" id="Path" fill="#777677"></path>
                <path d="M85.716699,14.4090909 L84.3990291,14.4090909 C84.0808083,14.4509215 83.760658,14.347334 83.5271964,14.1270017 C83.2937349,13.9066694 83.1717294,13.5929667 83.1949515,13.2727273 C83.1673443,12.951319 83.2879913,12.6348976 83.5225521,12.4135279 C83.7571128,12.1921582 84.0798971,12.0900856 84.3990291,12.1363636 L89.3630097,12.1363636 C89.9903623,12.1363636 90.498932,12.645131 90.498932,13.2727273 C90.498932,13.9003236 89.9903623,14.4090909 89.3630097,14.4090909 L88.056699,14.4090909 L88.056699,21.5909091 C88.056699,22.2373333 87.5328722,22.7613636 86.886699,22.7613636 C86.2405259,22.7613636 85.716699,22.2373333 85.716699,21.5909091 L85.716699,14.4090909 Z" id="Path" fill="#777677"></path>
                <path d="M101.79,17.4545455 C101.79,20.8068182 99.7794175,22.9659091 96.7351456,22.9659091 C93.6908738,22.9659091 91.6916505,20.8068182 91.6916505,17.4545455 C91.6916505,14.1022727 93.6908738,11.9545455 96.7351456,11.9545455 C99.7794175,11.9545455 101.79,14.1136364 101.79,17.4545455 Z M94.2020388,17.4545455 C94.2020388,19.125 94.9290291,20.7386364 96.7351456,20.7386364 C98.5412621,20.7386364 99.2796117,19.125 99.2796117,17.4545455 C99.2796117,15.7840909 98.5412621,14.1704545 96.7351456,14.1704545 C94.9290291,14.1704545 94.2020388,15.7840909 94.2020388,17.4545455 Z" id="Shape" fill="#777677"></path>
                <path d="M104.413981,19.9545455 C104.993301,19.9545455 105.74301,20.5681818 106.935728,20.5681818 C107.844466,20.5681818 108.185243,20.0909091 108.185243,19.5795455 C108.185243,18.7727273 107.287864,18.6136364 105.913398,18.1704545 C104.538932,17.7272727 103.448447,17.2386364 103.448447,15.3295455 C103.448447,13.0568182 105.186408,11.9204545 107.140194,11.9204545 C109.093981,11.9204545 110.048155,12.5795455 110.048155,13.5 C110.077119,13.7915004 109.981139,14.0816128 109.784057,14.2982706 C109.586975,14.5149283 109.307286,14.6378002 109.014466,14.6363636 C108.264757,14.6363636 108.014854,14.2386364 107.026602,14.2386364 C106.390485,14.2386364 105.958835,14.5795455 105.958835,15.0909091 C105.958835,15.6022727 106.538155,15.7727273 108.151165,16.3295455 C109.642211,16.5852761 110.71191,17.9083258 110.650194,19.4204545 C110.650194,21.8522727 108.900874,22.9431818 106.719903,22.9431818 C105.345437,22.9431818 103.312136,22.3977273 103.312136,21.2045455 C103.280422,20.8898607 103.38124,20.5761904 103.590345,20.3389687 C103.79945,20.101747 104.097922,19.9624386 104.413981,19.9545455 Z" id="Path" fill="#777677"></path>
                <path d="M110.968252,9.81818182 C110.965717,9.48154044 111.035443,9.14827647 111.172718,8.84090909 C111.298271,8.54743949 111.479587,8.28114845 111.706602,8.05681818 C111.932832,7.82684216 112.203332,7.64515035 112.501748,7.52272727 C112.804721,7.38458843 113.134342,7.31475906 113.467282,7.31818182 C113.800002,7.31691719 114.129168,7.38664981 114.432816,7.52272727 C114.731232,7.64515035 115.001731,7.82684216 115.227961,8.05681818 C115.447773,8.28706569 115.628151,8.55197898 115.761845,8.84090909 C116.018708,9.46315115 116.018708,10.1618489 115.761845,10.7840909 C115.630836,11.0745355 115.450165,11.3398796 115.227961,11.5681818 C114.999204,11.7979786 114.729524,11.9829737 114.432816,12.1136364 C114.126787,12.2408744 113.798689,12.3065195 113.467282,12.3068223 C113.135785,12.307424 112.807511,12.2417437 112.501748,12.1136364 C112.205039,11.9829737 111.935359,11.7979786 111.706602,11.5681818 C111.239922,11.1047456 110.974635,10.4759753 110.968252,9.81818182 L110.968252,9.81818182 Z M111.411257,9.81818182 C111.410625,10.0924633 111.468724,10.3636995 111.58165,10.6136364 C111.680937,10.8561708 111.827697,11.0763969 112.013301,11.2613636 C112.198758,11.4544609 112.423409,11.605578 112.672136,11.7045455 C113.181029,11.9166667 113.753534,11.9166667 114.262427,11.7045455 C114.775166,11.4891161 115.183004,11.0811195 115.39835,10.5681818 C115.507709,10.3174888 115.561943,10.046214 115.557379,9.77272727 C115.563027,9.49914342 115.508747,9.22763845 115.39835,8.97727273 C115.30241,8.72688432 115.150939,8.50153202 114.95534,8.31818182 C114.768067,8.13251691 114.548693,7.98236081 114.307864,7.875 C113.798971,7.66287879 113.226466,7.66287879 112.717573,7.875 C112.473661,7.9828965 112.250645,8.13291402 112.058738,8.31818182 C111.684103,8.71118156 111.469437,9.22982169 111.456699,9.77272727 L111.411257,9.81818182 Z M112.547184,8.375 L113.683107,8.375 C113.954461,8.35341888 114.22454,8.43003818 114.444175,8.59090909 C114.613807,8.75805087 114.704626,8.98931817 114.694078,9.22727273 C114.707573,9.43479073 114.63811,9.63917225 114.500971,9.79545455 C114.365942,9.91862313 114.194471,9.9944191 114.012524,10.0113636 L114.750874,11.2272727 L114.205631,11.2272727 L113.49,10.0909091 L113.103786,10.0909091 L113.103786,11.2272727 L112.456311,11.2272727 L112.547184,8.375 Z M113.069709,9.61363636 L113.694466,9.61363636 C113.76582,9.62664191 113.838937,9.62664191 113.910291,9.61363636 C113.974379,9.58842237 114.029669,9.54496294 114.06932,9.48863636 C114.116816,9.42697799 114.14096,9.35049082 114.137476,9.27272727 C114.142695,9.19124936 114.11851,9.11060345 114.06932,9.04545455 C114.03217,8.98921657 113.975517,8.9487345 113.910291,8.93181818 C113.842518,8.89958829 113.769319,8.88031787 113.694466,8.875 L113.069709,8.875 L113.069709,9.61363636 Z" id="Shape" fill="#777677"></path>
                <path d="M23.297767,1.21590909 C12.0233076,1.16376503 2.73028897,10.0485499 2.2716543,21.3181818 C2.2716543,21.4772727 2.2716543,21.6363636 2.2716543,21.8068182 L2.2716543,41.4659091 C2.24323848,45.5360745 5.44221437,48.8976627 9.50728703,49.0691481 C13.5723597,49.2406334 17.0428733,46.1603979 17.3568932,42.1022727 C19.2871434,42.6650091 21.2872235,42.9519389 23.297767,42.9545455 C30.866812,43.1312484 37.9377293,39.192678 41.7741618,32.6630121 C45.6105942,26.1333461 45.6105942,18.0371084 41.7741618,11.5074425 C37.9377293,4.97777652 30.866812,1.03920611 23.297767,1.21590909 L23.297767,1.21590909 Z" id="Path" fill="url(#linearGradient-1)"></path>
                <path d="M9.82572816,49.4204545 C5.4342601,49.4204545 1.87427184,45.8590832 1.87427184,41.4659091 L1.87427184,21.8068182 C1.87427184,21.625 1.87427184,21.4545455 1.87427184,21.2840909 C2.0612171,15.7768001 4.39301112,10.5608505 8.37174757,6.75 C14.5689999,0.809207727 23.7019213,-0.88070724 31.6133033,2.44948634 C39.5246854,5.77967993 44.7023256,13.49344 44.7894175,22.0795455 C44.7268409,33.9000861 35.1138409,43.4405781 23.297767,43.4090909 C21.422702,43.4059198 19.5558319,43.1614902 17.7431068,42.6818182 C17.1090386,46.5642185 13.7580751,49.4162893 9.82572816,49.4204545 Z M23.297767,1.69318182 C12.2692148,1.62967781 3.17764459,10.3275921 2.74893204,21.3522727 C2.74893204,21.5227273 2.74893204,21.6704545 2.74893204,21.8295455 L2.74893204,41.4886364 C2.86233342,45.2173764 5.84004774,48.2228493 9.56618427,48.3694397 C13.2923208,48.51603 16.496768,45.7537704 16.9025243,42.0454545 L16.9025243,41.5 L17.4364078,41.6477273 C23.634263,43.4909412 30.3377495,42.3117586 35.535311,38.4640242 C40.7328724,34.6162897 43.8196296,28.5477932 43.8693204,22.0795455 C43.8067509,10.7673584 34.6056903,1.63896254 23.297767,1.67037331 L23.297767,1.69318182 Z" id="Shape" fill="#FFFFFF"></path>
                <path d="M24.2405825,11.7840909 C26.7311696,11.7812057 29.1435591,12.6540255 31.0561165,14.25 C32.4456785,15.1416959 33.3435042,16.6274612 33.4869903,18.2727273 C33.5252115,19.3884226 32.961271,20.4386273 32.0102913,21.0227273 C31.4629737,21.3900625 30.8178026,21.584085 30.1587379,21.5795455 C29.6162212,21.5800136 29.0818712,21.4473496 28.6025243,21.1931818 C28.0344529,20.7552714 27.516372,20.2560437 27.0576699,19.7045455 C26.3253933,18.9231907 25.3076209,18.4723977 24.2371178,18.455263 C23.1666148,18.4381283 22.1349473,18.8561175 21.3780583,19.6136364 C19.8923423,21.1721491 19.8923423,23.6233054 21.3780583,25.1818182 C22.1047257,25.9283039 23.1083697,26.3397932 24.1497087,26.3181818 C25.0785171,26.3136696 25.9772942,25.9885391 26.6941748,25.3977273 C27.1826214,24.9431818 27.6597087,24.4772727 28.1367961,24.0113636 C28.6881632,23.5567127 29.3880542,23.321976 30.1019417,23.3522727 C30.9851438,23.3430589 31.8355438,23.6866231 32.4646602,24.3068182 C33.1066629,24.8870754 33.4703735,25.7140115 33.4642718,26.5795455 C33.3156301,28.0807683 32.5190166,29.4421785 31.283301,30.3068182 C29.3421833,32.0438479 26.8221245,32.9922769 24.2178641,32.9659091 C22.5957749,32.9711901 20.9929809,32.6140126 19.5265049,31.9204545 C17.7131431,31.0625203 16.1807421,29.7068628 15.107767,28.0113636 C12.376035,23.6997904 13.1275458,18.0492982 16.891165,14.6022727 C18.8802243,12.7406099 21.5172634,11.7294202 24.2405825,11.7840909 Z" id="Path" fill="#FFFFFF"></path>
                <g id="Group" transform="translate(0.000000, 1.136364)">
                    <path d="M29.0228155,21.4772727 C28.2617476,22.4204545 26.2852427,22.0909091 24.5927184,20.7386364 C22.9001942,19.3863636 22.1504854,17.5568182 22.9115534,16.6136364 C23.6726214,15.6704545 25.6491262,16.0113636 27.3302913,17.3522727 C29.0114563,18.6931818 29.7838835,20.5454545 29.0228155,21.4772727 Z" id="Path" fill="url(#radialGradient-2)"></path>
                    <path d="M25.74,25.9204545 C24.9902913,26.8636364 23.0024272,26.5227273 21.3099029,25.1818182 C19.6173786,23.8409091 18.8676699,21.9886364 19.6287379,21.0568182 C20.3898058,20.125 22.3663107,20.4545455 24.0474757,21.7954545 C25.7286408,23.1363636 26.501068,25 25.74,25.9204545 Z" id="Path" fill="url(#radialGradient-3)"></path>
                    <path d="M27.773301,43.5568182 C24.5245631,47.4431818 16.2209709,45.9318182 9.22368932,40.1477273 C2.22640777,34.3636364 -0.806504854,26.5795455 2.40815534,22.6818182 C5.62281553,18.7840909 13.9604854,20.3068182 20.957767,26.0909091 C27.9550485,31.875 31.0220388,39.6704545 27.773301,43.5568182 Z" id="Path" fill="url(#radialGradient-4)" style="mix-blend-mode: overlay;"></path>
                    <path d="M35.9746602,31.3295455 C39.333611,28.0107611 41.2236982,23.4842492 41.2226218,18.7613636 C41.1549717,11.3617068 36.5561598,4.7615213 29.6396955,2.13762228 C22.7232312,-0.486276733 14.9060284,1.40364536 9.95067961,6.89772727 C28.6706796,7.18181818 18.413301,27.7386364 35.9746602,31.3295455 Z" id="Path" fill="url(#linearGradient-5)" style="mix-blend-mode: overlay;"></path>
                    <path d="M5.30475728,43.1818182 C5.77021679,44.8340303 7.06095376,46.1252688 8.71252427,46.5909091 C10.5553078,47.1760376 12.564872,46.8780076 14.158706,45.7832089 C15.7525401,44.6884102 16.7523961,42.9192806 16.8684466,40.9886364 C16.8855633,40.564278 16.6470844,40.1708951 16.26301,39.9899382 C15.8789356,39.8089813 15.4238904,39.8756098 15.107767,40.1590909 C12.1657282,42.6136364 8.95106796,38.5113636 5.67961165,42.7159091 L5.30475728,43.1818182 Z" id="Path" fill="url(#linearGradient-6)" style="mix-blend-mode: overlay;"></path>
                </g>
            </g>
        </g>
    </g>
</svg>