<?xml version="1.0" encoding="UTF-8"?>
<svg width="52px" height="52px" viewBox="0 0 52 52" version="1.1" xmlns="http://www.w3.org/2000/svg" xmlns:xlink="http://www.w3.org/1999/xlink">
    <!-- Generator: Sketch 64 (93537) - https://sketch.com -->
    <title>img-03</title>
    <desc>Created with Sketch.</desc>
    <g id="Welcome" stroke="none" stroke-width="1" fill="none" fill-rule="evenodd">
        <g id="HOME---Dónde-Comprar---Clickam---Desktop-HD" transform="translate(-945.000000, -985.000000)">
            <g id="img-03" transform="translate(946.000000, 986.000000)">
                <g id="img-01-copy" fill="#3D2F59" stroke="#3D2F59">
                    <rect id="Rectangle" x="0" y="0" width="50" height="50" rx="10"></rect>
                </g>
                <path d="M24.169,35.156 C28.147,35.156 30.435,32.868 30.435,29.67 C30.435,27.174 29.135,25.718 27.237,25.094 L27.237,24.99 C28.537,24.548 30.097,23.222 30.097,20.726 C30.097,17.866 27.939,15.578 23.935,15.578 C20.061,15.578 17.617,17.632 17.461,21.376 L21.803,21.376 C21.881,20.336 22.401,19.296 23.831,19.296 C25.027,19.296 25.781,19.998 25.781,21.272 C25.781,22.988 24.325,23.352 22.817,23.352 L21.985,23.352 L21.985,26.966 L22.817,26.966 C25.131,26.966 26.145,27.642 26.145,29.332 C26.145,30.58 25.391,31.464 24.013,31.464 C22.375,31.464 21.569,30.476 21.543,28.994 L17.227,28.994 C17.357,33.284 20.217,35.156 24.169,35.156 Z" id="3" fill="#FFFFFF" fill-rule="nonzero"></path>
            </g>
        </g>
    </g>
</svg>