<?xml version="1.0" encoding="UTF-8"?>
<svg width="60px" height="60px" viewBox="0 0 60 60" version="1.1" xmlns="http://www.w3.org/2000/svg" xmlns:xlink="http://www.w3.org/1999/xlink">
    <!-- Generator: Sketch 64 (93537) - https://sketch.com -->
    <title>img-06</title>
    <desc>Created with Sketch.</desc>
    <g id="Welcome" stroke="none" stroke-width="1" fill="none" fill-rule="evenodd">
        <g id="HOME---Dónde-Comprar---Clickam---Desktop-HD" transform="translate(-212.000000, -1502.000000)" fill="#3D2F59" fill-rule="nonzero">
            <g id="img-06" transform="translate(212.000000, 1502.000000)">
                <path d="M48.1462979,0.0905107628 C47.988383,0.0300001245 47.8244681,4.33431069e-13 47.6596596,4.33431069e-13 C47.3608085,4.33431069e-13 47.0625957,0.0979150181 46.8192766,0.289915018 C46.7714043,0.32846821 41.7474894,4.23676608 37.7181702,5.51068098 C36.7607234,5.81259587 35.4122553,6.18893629 33.864383,6.62234055 C26.4734043,8.68889374 20.1861702,10.5691916 18.1011064,12.6542554 C15.7757872,14.9795746 14.2488511,24.1434895 13.7569787,27.5171491 C5.97293617,28.7617023 -2.73558953e-13,35.445064 -2.73558953e-13,43.5745533 C-2.73558953e-13,52.5851491 7.32982979,59.9149788 16.3404255,59.9149788 C25.3510213,59.9149788 32.6808511,52.6437448 32.6808511,43.6330214 C32.6808511,41.6536597 32.3023404,39.723064 31.5958723,37.869064 C34.0193617,36.5089788 36.5084681,35.5649363 38.2579149,35.3977023 C38.6382128,35.3618299 39,35.3458725 39.3562979,35.3285108 C41.3217447,35.2367235 43.3562553,35.1423831 47.0983404,32.420298 C49.1089787,30.9588512 50.2659574,29.0505959 51.492,27.0320427 C53.1728936,24.2554469 54.9149362,21.3857874 59.2367234,18.8804682 C59.6569787,18.6371491 59.9149787,18.1876597 59.9149787,17.702298 C59.9149787,4.74472353 48.2633617,0.135702252 48.1462979,0.0905107628 Z M16.3404255,57.2500852 C8.83238298,57.2500852 2.7233617,51.141064 2.7233617,43.6330214 C2.7233617,36.1249788 8.83251064,30.0159576 16.3404255,30.0159576 C17.8249787,30.0159576 19.2912766,30.2832767 20.687617,30.7534469 C19.6014894,31.6031491 18.5185532,32.618298 17.6341277,33.7051916 C17.4810638,33.1205108 16.9734894,32.6808512 16.3404255,32.6808512 C15.5877447,32.6808512 14.9786809,33.289915 14.9786809,34.0425959 L14.9786809,35.4731491 C12.6749362,35.8069788 10.8935745,37.7756171 10.8935745,40.1702554 C10.8935745,42.7978725 13.0318723,44.9361703 15.6594894,44.9361703 L17.021234,44.9361703 C18.1462979,44.9361703 19.0637872,45.8523831 19.0637872,46.9787235 C19.0637872,48.105064 18.1461702,49.0212767 17.021234,49.0212767 L12.2553191,49.0212767 C11.5026383,49.0212767 10.8935745,49.6303406 10.8935745,50.3830214 C10.8935745,51.1357023 11.5026383,51.7447661 12.2553191,51.7447661 L14.9786809,51.7447661 L14.9786809,53.1065108 C14.9786809,53.8591916 15.5877447,54.4682554 16.3404255,54.4682554 C17.0931064,54.4682554 17.7021702,53.8591916 17.7021702,53.1065108 L17.7021702,51.6759576 C20.0059149,51.3421278 21.7872766,49.3734895 21.7872766,46.9788512 C21.7872766,44.3512342 19.6489787,42.2129363 17.0213617,42.2129363 L15.659617,42.2129363 C14.5345532,42.2129363 13.6170638,41.2967235 13.6170638,40.1703831 C13.6170638,39.0440427 14.5346809,38.1278299 15.659617,38.1278299 L15.7228085,38.1278299 C15.7572766,39.0164682 16.0963404,39.8092342 16.7394894,40.4522554 C17.9868511,41.6982129 19.5639574,42.1996597 21.2475319,42.1996597 C23.9489362,42.1996597 26.9213617,40.904298 29.2451489,39.3250214 C29.7165957,40.7188086 29.957617,42.1622554 29.957617,43.6331491 C29.957617,51.141064 23.8484681,57.2500852 16.3404255,57.2500852 Z M49.1622128,25.6197448 C48.0371489,27.4747661 47.0664255,29.0771491 45.4973617,30.2181703 C42.4148936,32.4602554 41.0079574,32.5253618 39.228766,32.6078299 C38.8298298,32.6264682 38.4255319,32.6463831 37.9973617,32.6876171 C35.2394043,32.9495746 31.2446809,34.6450214 27.8218723,37.0067235 C24.7819149,39.1091491 20.6170213,40.4788086 18.6649787,38.5266384 C18.5054043,38.367064 18.372383,38.1515746 18.4708085,37.6636597 C18.9043404,35.5307235 22.872383,32.0878725 25.0212766,31.219532 C27.6037021,30.1769363 33.7713191,27.3538725 35.3005532,23.6703831 C35.4734043,23.251532 35.4282128,22.7714044 35.1755745,22.3937874 C34.2686809,21.0320427 32.8484681,20.4111065 31.8139149,19.9562554 C31.4974468,19.8180001 31.0798723,19.6570214 31.0771915,19.6503831 C30.6915319,19.0905959 29.9468936,18.9070214 29.3484255,19.207532 C28.5186383,19.6224257 26.303234,20.2607235 25.5186383,20.4721278 C25.1329787,20.575915 24.8111489,20.8445108 24.6409787,21.2061703 L21.3740426,28.1199576 C19.817234,27.6158299 18.192383,27.3264257 16.5457021,27.3054895 C17.310383,22.3471916 18.737234,15.8693618 20.0265957,14.5798725 C21.7765532,12.8311916 29.8031489,10.5865533 34.5984255,9.24472353 C36.1782128,8.80187246 37.5585957,8.41621289 38.537234,8.1063831 C42.1542128,6.96536183 46.2552766,4.10106395 47.8350638,2.93489374 C50.0106383,4.00800012 56.8058298,8.06259587 57.1755319,16.9415746 C52.7447234,19.711532 50.766,22.9734895 49.1622128,25.6197448 Z M24.1409362,28.6369788 L26.8377447,22.9321278 C27.5717872,22.7234044 28.8005106,22.3576597 29.7579574,21.9906384 C30.0478723,22.1555746 30.372383,22.2977874 30.720766,22.4494469 C31.2819574,22.6968512 31.8989362,22.9667235 32.3776596,23.3443406 C30.9574468,25.3351916 27.2207234,27.3790214 24.1409362,28.6369788 Z" id="Shape"></path>
            </g>
        </g>
    </g>
</svg>