<?xml version="1.0" encoding="UTF-8"?>
<svg width="139px" height="139px" viewBox="0 0 139 139" version="1.1" xmlns="http://www.w3.org/2000/svg" xmlns:xlink="http://www.w3.org/1999/xlink">
    <!-- Generator: Sketch 64 (93537) - https://sketch.com -->
    <title>head-medios</title>
    <desc>Created with Sketch.</desc>
    <g id="Welcome" stroke="none" stroke-width="1" fill="none" fill-rule="evenodd">
        <g id="HOME---Servicios---Medios-de-Pago---Desktop-HD" transform="translate(-1150.000000, -207.000000)" fill="#000000" fill-rule="nonzero">
            <g id="head-medios" transform="translate(1150.000000, 207.000000)">
                <g id="Shape-4">
                    <path d="M138.134355,108.467615 C138.041787,108.3505 128.981649,96.6963851 126.036623,87.3804276 C125.337187,85.1623425 124.465332,82.0383917 123.464236,78.4619509 C118.673764,61.3333066 114.31774,46.7649232 109.487343,41.9345255 C104.253549,36.7007319 84.0255,33.2085787 75.7109342,31.9649723 L75.7109342,12.6185383 C75.7106381,5.65937022 70.051564,4.19753121e-13 63.0921,4.19753121e-13 L12.6185383,4.19753121e-13 C5.65907447,4.19753121e-13 3.04526774e-13,5.65937022 3.04526774e-13,12.6185383 L3.04526774e-13,100.947715 C3.04526774e-13,107.906883 5.65907447,113.565957 12.6185383,113.565957 L63.0923956,113.565957 C64.4551873,113.565957 65.7709553,113.263411 67.0586276,112.820089 C69.8055044,115.368522 72.9170342,117.307719 76.1790978,119.283589 C82.6085873,123.18387 89.2595895,127.216349 95.0635785,137.231743 C95.627268,138.205334 96.6685851,138.803034 97.7930066,138.803034 C127.811092,138.803034 138.488657,111.813375 138.593351,111.538923 C138.990832,110.50707 138.81516,109.33947 138.134355,108.467615 Z M12.6185383,107.256836 C9.14058083,107.256836 6.30941702,104.425672 6.30941702,100.947715 L6.30941702,12.6185383 C6.30941702,9.14058083 9.14058083,6.30941702 12.6185383,6.30941702 L12.6185383,107.256836 Z M75.7106381,58.2877276 L85.7074,62.2882658 C86.1971531,64.0012193 87.0258298,66.7738254 87.8577597,68.9363105 C87.4756575,69.6141575 87.1461978,70.3656447 86.7948531,71.1668171 C86.2217,72.4731215 85.5964956,73.8994978 84.7216829,75.0085403 C81.5643127,72.7582193 78.359032,67.9872658 75.7106381,62.9184978 L75.7106381,58.2877276 L75.7106381,58.2877276 Z M25.2367808,107.256836 L18.9276596,107.256836 L18.9276596,6.30941702 L25.2367808,6.30941702 L25.2367808,107.256836 Z M31.5461978,107.256836 L31.5461978,6.30941702 L63.0923956,6.30941702 C66.5703531,6.30941702 69.4015171,9.14058083 69.4015171,12.6185383 L69.4015171,50.4436917 C65.464268,44.6663192 58.8262785,37.8349128 52.8090575,36.6108255 C49.7900956,35.9823681 47.1221829,36.7433192 45.0889383,38.7795213 C37.4918489,46.3766105 41.8419575,59.2876403 47.8769232,68.0366553 C52.7073215,75.0390022 56.290268,83.3136425 56.7986531,88.6278785 C56.8817575,89.5121553 56.9187254,90.35 56.9589469,91.1757193 C57.1553215,95.3883066 57.4211956,99.7739044 62.434068,107.256836 L31.5461978,107.256836 L31.5461978,107.256836 Z M99.5550531,132.456649 C93.1379851,122.188689 85.5811171,117.6079 79.4506254,113.889502 C75.1499066,111.283104 71.4377193,109.031304 68.7976066,105.402222 C63.6034425,98.2582127 63.4526127,95.0050215 63.2615618,90.882932 C63.2183829,89.9557724 63.1722469,89.0158956 63.0767215,88.0301785 C62.4698531,81.6409105 58.542068,72.386468 53.0707917,64.4569619 C48.2063829,57.4052254 45.0333383,47.7598083 49.5496553,43.2402383 C49.9163785,42.8705575 50.406132,42.5686022 51.5488895,42.7904107 C56.4934447,43.797717 64.4693829,52.9906447 66.4748276,57.9627044 C68.8901746,63.9423658 75.4273149,78.233636 83.9636895,81.7793193 C84.9340276,82.1735469 86.0463232,82.0721066 86.9240934,81.4897851 C90.0788022,79.3888149 91.5173044,76.1016127 92.5710425,73.7019403 C92.8759553,73.011968 93.2888149,72.0629232 93.2796469,71.9951978 C94.5705724,71.1017531 95.0079785,69.3950105 94.3055851,67.9902232 C93.3444149,66.0708403 91.8656917,60.9355298 91.3759381,59.1178829 C91.1171618,58.1596702 90.423936,57.3774254 89.4997342,57.0077447 L75.7106381,51.4924022 L75.7106381,38.3574936 C87.1754768,40.1319617 102.0538,43.4250787 105.02633,46.3949469 C109.080398,50.4490149 114.280772,69.0472149 117.389049,80.1592298 C118.411734,83.8190702 119.305178,87.0137044 120.022951,89.2779254 C122.666317,97.6572597 129.30194,107.158057 132.003568,110.817898 C129.517834,115.857978 120.124687,131.600172 99.5550531,132.456649 Z" id="Shape"></path>
                </g>
            </g>
        </g>
    </g>
</svg>