<?xml version="1.0" encoding="UTF-8"?>
<svg width="286px" height="286px" viewBox="0 0 286 286" version="1.1" xmlns="http://www.w3.org/2000/svg" xmlns:xlink="http://www.w3.org/1999/xlink">
    <!-- Generator: Sketch 64 (93537) - https://sketch.com -->
    <title>img-brilla</title>
    <desc>Created with Sketch.</desc>
    <defs>
        <rect id="path-1" x="0" y="0" width="286" height="286" rx="10"></rect>
        <polygon id="path-3" points="0.753 0.335 156.235 0.335 156.235 57.94 0.753 57.94"></polygon>
    </defs>
    <g id="Welcome" stroke="none" stroke-width="1" fill="none" fill-rule="evenodd">
        <g id="HOME---Servicios---Medios-de-Pago---Desktop-HD" transform="translate(-1031.000000, -1298.000000)">
            <g id="img-brilla" transform="translate(1031.000000, 1298.000000)">
                <g id="img-servi-copy">
                    <mask id="mask-2" fill="white">
                        <use xlink:href="#path-1"></use>
                    </mask>
                    <use id="Mask" fill="#F8F8F8" xlink:href="#path-1"></use>
                </g>
                <g id="Group-Copy-2" transform="translate(65.000000, 106.000000)">
                    <path d="M84.787,9.237 C84.787,14.339 80.652,18.474 75.551,18.474 C70.451,18.474 66.318,14.339 66.318,9.237 C66.318,4.136 70.451,2.48689958e-14 75.551,2.48689958e-14 C80.652,2.48689958e-14 84.787,4.136 84.787,9.237" id="Fill-1" fill="#F2AF38"></path>
                    <path d="M20.926,40.2340913 L11.916,40.2340913 C11.916,40.2340913 11.695,40.239 11.624,40.175 C11.537,40.096 11.552,39.929 11.552,39.929 L11.552,30.329 C11.552,30.329 11.546,30.111 11.627,30.046 C11.711,29.977 11.935,29.987 11.935,29.987 L19.72,29.987 C24.609,29.987 26.818,31.732 26.818,35.348 C26.818,38.361 24.675,40.2340913 20.926,40.2340913 L20.926,40.2340913 Z M11.637,11.755 C11.721,11.7 11.922,11.708 11.922,11.708 L19.787,11.708 C23.336,11.708 25.344,13.314 25.344,16.062 C25.344,19.074 23.336,20.549 18.985,20.549 L11.938,20.549 C11.938,20.549 11.688,20.56 11.608,20.478 C11.539,20.405 11.552,20.187 11.552,20.187 L11.552,12.062 C11.552,12.062 11.537,11.823 11.637,11.755 L11.637,11.755 Z M30.838,25.639 C29.833,25.235 29.9,24.633 30.907,24.228 C32.71,23.363 36.261,20.816 36.261,14.921 C36.261,6.954 30.1,2.198 19.787,2.198 L1.577,2.198 C1.037,2.198 0.703,2.533 0.703,3.07 L0.703,48.808 C0.703,49.343 1.037,49.677 1.577,49.677 L21.062,49.677 C31.576,49.677 37.736,44.724 37.736,36.351 C37.736,29.52 33.314,26.572 30.838,25.639 L30.838,25.639 Z M62.473,16.061 C57.777,16.193 55.094,17.265 52.212,20.287 C51.406,21.158 51.138,20.955 50.531,20.086 L48.786,17.404 C48.545,17.002 48.252,16.797 47.782,16.797 L43.017,16.797 C42.482,16.797 42.146,17.136 42.146,17.67 L42.146,48.865 C42.146,49.4 42.479,49.738 43.017,49.738 L51.941,49.738 C52.478,49.738 52.814,49.4 52.814,48.865 L52.814,43.431 C52.814,30.013 55.094,25.854 62.473,25.518 C63.079,25.518 63.344,25.253 63.344,24.646 L63.344,16.931 C63.344,16.393 63.01,16.061 62.473,16.061 L62.473,16.061 Z M104.151,41.182 C103.951,40.714 103.55,40.581 103.013,40.714 L102.609,40.714 C102.007,40.714 101.737,40.177 101.737,39.439 L101.737,1.771 C101.737,1.234 101.396,0.899 100.864,0.899 L91.942,0.899 C91.406,0.899 91.069,1.234 91.069,1.771 L91.069,39.439 C91.069,46.145 95.428,50.106 102.609,50.106 C103.819,50.106 105.292,49.836 106.502,49.301 C106.968,49.098 107.104,48.697 106.901,48.16 L104.151,41.182 Z M122.512,41.182 C122.313,40.714 121.91,40.581 121.371,40.714 L120.97,40.714 C120.365,40.714 120.098,40.177 120.098,39.439 L120.098,1.771 C120.098,1.234 119.761,0.899 119.226,0.899 L110.303,0.899 C109.768,0.899 109.432,1.234 109.432,1.771 L109.432,39.439 C109.432,46.145 113.791,50.106 120.97,50.106 C122.177,50.106 123.657,49.836 124.86,49.301 C125.33,49.098 125.462,48.697 125.264,48.16 L122.512,41.182 L122.512,41.182 Z" id="Fill-2" fill="#D8223A"></path>
                    <g id="Group-6" transform="translate(0.000000, 15.622000)">
                        <mask id="mask-4" fill="white">
                            <use xlink:href="#path-3"></use>
                        </mask>
                        <g id="Clip-4"></g>
                        <path d="M68.136,2.346 C68.085,2.375 68.049,2.421 68.049,2.481 L68.049,9.631 C68.049,10.168 68.386,10.5 68.923,10.5 L71.968,10.5 C72.151,10.502 72.288,10.497 72.361,10.577 C72.433,10.661 72.41,10.872 72.411,11.016 L72.411,33.245 C72.411,33.778 72.745,34.116 73.282,34.116 L82.139,34.116 C82.675,34.116 83.012,33.778 83.012,33.245 L83.012,2.485 C83.012,2.419 82.956,2.326 82.863,2.326 C82.766,2.326 82.725,2.38 82.675,2.426 C81.154,3.804 78.738,5.149 75.593,5.149 C72.462,5.149 70.36,4.072 68.34,2.386 C68.298,2.354 68.224,2.305 68.136,2.346 M146.106,20.861 C145.702,24.549 143.757,26.227 140.267,26.227 C137.855,26.227 136.445,25.155 136.445,23.276 C136.445,21.801 137.855,20.727 139.799,20.727 L146.003,20.727 C146.003,20.727 146.067,20.727 146.088,20.763 C146.114,20.799 146.106,20.861 146.106,20.861 M140.068,0.335 C137.517,0.335 135.17,0.739 132.69,1.409 L130.075,2.145 C129.469,2.278 129.269,2.617 129.469,3.219 L131.548,10.199 C131.751,10.732 132.085,10.934 132.622,10.799 L135.17,10.061 C136.647,9.66 138.19,9.39 139.529,9.39 C143.355,9.39 145.834,11.068 146.106,13.95 L146.106,14.086 L139.799,14.086 C131.481,14.086 126.516,17.776 126.516,24.014 C126.516,30.791 131.281,34.501 139.262,34.501 C142.081,34.501 144.762,33.74 146.506,32.195 C147.648,31.257 148.252,31.391 148.655,32.195 L149.259,33.405 C149.526,33.807 149.794,34.007 150.331,34.007 L155.363,34.007 C155.898,34.007 156.235,33.673 156.235,33.136 L156.235,13.35 C156.235,5.165 150.264,0.335 140.068,0.335" id="Fill-3" fill="#D8223A" mask="url(#mask-4)"></path>
                        <path d="M6.328,52.424 C6.256,52.26 6.2,52.095 6.2,51.82 C6.2,51.509 6.31,51.234 7.04,51.234 L9.966,51.234 C10.752,51.234 10.953,51.529 10.953,52.388 L10.953,57.67 C10.79,57.782 10.644,57.836 10.296,57.836 C9.985,57.836 9.767,57.744 9.767,57.25 L9.767,56.063 C8.852,57.25 7.608,57.999 6.054,57.999 C3.275,57.999 0.753,56.079 0.753,51.419 C0.753,46.941 3.183,44.835 6.31,44.835 C9.053,44.835 10.479,46.044 10.479,46.666 C10.479,47.049 10.15,47.286 9.895,47.304 C9.199,46.684 8.23,46.134 6.328,46.134 C4.025,46.134 2.087,47.854 2.087,51.435 C2.087,55.295 4.098,56.775 6.164,56.775 C7.646,56.775 8.96,55.989 9.767,54.709 L9.767,52.424 L6.328,52.424 Z M18.576,55.367 L18.576,53.648 L15.559,53.941 C14.627,54.033 14.261,54.509 14.261,55.295 C14.261,56.099 14.701,56.794 15.614,56.794 C16.638,56.794 17.553,56.318 18.576,55.367 L18.576,55.367 Z M13.712,50.157 C13.712,49.279 15.451,48.823 16.729,48.823 C18.376,48.823 19.802,49.499 19.802,51.473 L19.802,56.172 C19.802,56.629 19.967,56.812 20.258,56.812 L20.771,56.812 C20.825,56.886 20.88,57.05 20.88,57.287 C20.88,57.636 20.515,57.817 19.71,57.817 C19.016,57.817 18.576,57.307 18.576,56.557 L18.576,56.483 C17.68,57.361 16.564,57.999 15.413,57.999 C13.786,57.999 13,56.866 13,55.275 C13,53.85 13.824,52.899 15.487,52.809 L18.576,52.625 L18.576,51.84 C18.576,50.487 17.68,50.101 16.675,50.101 C15.578,50.101 14.446,50.43 13.969,50.743 C13.824,50.615 13.712,50.394 13.712,50.157 L13.712,50.157 Z M28.558,50.212 C28.558,50.559 28.431,50.834 28.229,50.943 C27.827,50.578 26.766,50.23 25.506,50.23 C24.224,50.23 23.749,50.76 23.749,51.382 C23.749,52.15 24.389,52.479 25.853,52.754 C27.99,53.119 28.868,53.887 28.868,55.44 C28.868,57.051 27.789,58 25.614,58 C23.639,58 22.287,57.25 22.287,56.592 C22.287,56.209 22.379,56.008 22.58,55.825 C23.109,56.227 24.443,56.738 25.523,56.738 C27.059,56.738 27.588,56.154 27.588,55.46 C27.588,54.636 27.023,54.271 25.523,53.998 C23.311,53.612 22.487,52.936 22.487,51.309 C22.487,49.902 23.512,48.822 25.54,48.822 C27.553,48.822 28.558,49.609 28.558,50.212 L28.558,50.212 Z M32.156,52.552 L36.764,52.552 C36.764,51.089 36.124,50.064 34.681,50.064 C33.51,50.064 32.431,50.871 32.156,52.552 L32.156,52.552 Z M32.084,53.557 C32.119,55.642 33.217,56.721 34.752,56.721 C36.051,56.721 37.185,56.227 37.606,55.898 C37.787,56.007 37.917,56.191 37.917,56.5 C37.917,56.829 37.787,57.014 37.606,57.142 C37.111,57.507 36.234,58 34.645,58 C32.284,58 30.731,56.191 30.731,53.447 C30.731,50.359 32.669,48.823 34.718,48.823 C36.93,48.823 38.007,50.486 38.007,52.626 C38.007,52.973 37.971,53.32 37.879,53.557 L32.084,53.557 Z M46.053,50.212 C46.053,50.559 45.925,50.834 45.724,50.943 C45.321,50.578 44.26,50.23 43,50.23 C41.718,50.23 41.243,50.76 41.243,51.382 C41.243,52.15 41.883,52.479 43.347,52.754 C45.484,53.119 46.362,53.887 46.362,55.44 C46.362,57.051 45.283,58 43.108,58 C41.134,58 39.782,57.25 39.782,56.592 C39.782,56.209 39.873,56.008 40.075,55.825 C40.603,56.227 41.938,56.738 43.018,56.738 C44.553,56.738 45.082,56.154 45.082,55.46 C45.082,54.636 44.516,54.271 43.018,53.998 C40.805,53.612 39.981,52.936 39.981,51.309 C39.981,49.902 41.006,48.822 43.034,48.822 C45.048,48.822 46.053,49.609 46.053,50.212 L46.053,50.212 Z M58.701,55.88 L58.701,51.163 C58.153,50.541 57.623,50.248 56.544,50.248 C55.393,50.248 54.022,51.107 54.022,53.392 C54.022,55.715 55.063,56.722 56.398,56.722 C57.439,56.722 58.153,56.373 58.701,55.88 L58.701,55.88 Z M58.809,56.957 C58.098,57.599 57.238,58 56.197,58 C54.351,58 52.668,56.722 52.668,53.448 C52.668,50.158 54.586,48.822 56.379,48.822 C57.439,48.822 58.153,49.153 58.701,49.701 L58.701,45.548 C58.701,45.221 58.903,45.019 59.268,45.019 C59.671,45.019 59.89,45.111 60.018,45.203 L60.018,56.117 C60.018,56.594 60.255,56.738 60.584,56.738 L61.17,56.738 C61.243,56.885 61.28,56.995 61.28,57.214 C61.28,57.543 60.951,57.818 60.219,57.818 C59.597,57.818 59.048,57.543 58.809,56.957 L58.809,56.957 Z M64.33,52.552 L68.938,52.552 C68.938,51.089 68.298,50.064 66.854,50.064 C65.684,50.064 64.605,50.871 64.33,52.552 L64.33,52.552 Z M64.258,53.557 C64.292,55.642 65.391,56.721 66.926,56.721 C68.226,56.721 69.359,56.227 69.779,55.898 C69.961,56.007 70.089,56.191 70.089,56.5 C70.089,56.829 69.961,57.014 69.779,57.142 C69.285,57.507 68.408,58 66.816,58 C64.458,58 62.904,56.191 62.904,53.447 C62.904,50.359 64.842,48.823 66.89,48.823 C69.102,48.823 70.18,50.486 70.18,52.626 C70.18,52.973 70.144,53.32 70.052,53.557 L64.258,53.557 Z M82.063,56.758 C84.403,56.758 85.921,55.294 85.921,51.436 C85.921,47.835 84.367,46.116 82.044,46.116 C79.632,46.116 78.041,47.855 78.041,51.436 C78.041,55.294 79.722,56.758 82.063,56.758 L82.063,56.758 Z M82.044,44.836 C85.189,44.836 87.31,46.94 87.31,51.418 C87.31,56.136 85.171,58 82.044,58 C78.882,58 76.651,56.08 76.651,51.418 C76.651,46.94 78.864,44.836 82.044,44.836 L82.044,44.836 Z M95.901,50.779 C95.078,50.377 94.695,50.211 93.487,50.211 C92.118,50.211 90.855,51.035 90.855,53.447 C90.855,55.515 91.989,56.721 93.634,56.721 C94.768,56.721 95.7,56.319 96.12,56.008 C96.268,56.135 96.358,56.355 96.358,56.612 C96.358,56.957 96.156,57.25 95.809,57.451 C95.462,57.653 94.713,58 93.56,58 C91.092,58 89.522,56.245 89.522,53.429 C89.522,50.01 91.568,48.823 93.452,48.823 C94.842,48.823 95.353,49.115 95.865,49.444 C96.084,49.573 96.23,49.755 96.248,50.064 C96.248,50.249 96.12,50.558 95.901,50.779 L95.901,50.779 Z M104.218,50.779 C103.396,50.377 103.012,50.211 101.804,50.211 C100.435,50.211 99.171,51.035 99.171,53.447 C99.171,55.515 100.306,56.721 101.951,56.721 C103.085,56.721 104.017,56.319 104.437,56.008 C104.585,56.135 104.675,56.355 104.675,56.612 C104.675,56.957 104.473,57.25 104.126,57.451 C103.781,57.653 103.031,58 101.877,58 C99.409,58 97.837,56.245 97.837,53.429 C97.837,50.01 99.887,48.823 101.769,48.823 C103.159,48.823 103.67,49.115 104.182,49.444 C104.401,49.573 104.547,49.755 104.567,50.064 C104.567,50.249 104.437,50.558 104.218,50.779 L104.218,50.779 Z M108.11,45.586 C108.695,45.586 109.007,45.897 109.007,46.501 C109.007,47.105 108.695,47.378 108.11,47.378 C107.524,47.378 107.215,47.085 107.215,46.501 C107.215,45.897 107.508,45.586 108.11,45.586 L108.11,45.586 Z M108.97,50.431 L108.97,56.209 C108.97,56.556 109.135,56.684 109.39,56.684 L109.921,56.684 C109.993,56.795 110.03,56.923 110.03,57.142 C110.03,57.561 109.683,57.818 108.806,57.818 C108.056,57.818 107.6,57.489 107.6,56.574 L107.6,50.814 C107.6,50.413 107.416,50.303 107.141,50.303 L106.613,50.303 C106.539,50.175 106.501,49.992 106.501,49.755 C106.501,49.224 106.996,49.005 107.672,49.005 C108.477,49.005 108.97,49.28 108.97,50.431 L108.97,50.431 Z M117.874,55.88 L117.874,51.163 C117.326,50.541 116.795,50.248 115.717,50.248 C114.566,50.248 113.194,51.107 113.194,53.392 C113.194,55.715 114.235,56.722 115.571,56.722 C116.612,56.722 117.326,56.373 117.874,55.88 L117.874,55.88 Z M117.984,56.957 C117.27,57.599 116.412,58 115.37,58 C113.523,58 111.839,56.722 111.839,53.448 C111.839,50.158 113.759,48.822 115.551,48.822 C116.612,48.822 117.326,49.153 117.874,49.701 L117.874,45.548 C117.874,45.221 118.075,45.019 118.44,45.019 C118.843,45.019 119.062,45.111 119.19,45.203 L119.19,56.117 C119.19,56.594 119.427,56.738 119.756,56.738 L120.342,56.738 C120.416,56.885 120.452,56.995 120.452,57.214 C120.452,57.543 120.123,57.818 119.391,57.818 C118.769,57.818 118.221,57.543 117.984,56.957 L117.984,56.957 Z M123.503,52.552 L128.11,52.552 C128.11,51.089 127.47,50.064 126.027,50.064 C124.856,50.064 123.778,50.871 123.503,52.552 L123.503,52.552 Z M123.431,53.557 C123.467,55.642 124.563,56.721 126.099,56.721 C127.397,56.721 128.531,56.227 128.952,55.898 C129.133,56.007 129.261,56.191 129.261,56.5 C129.261,56.829 129.133,57.014 128.952,57.142 C128.457,57.507 127.58,58 125.991,58 C123.63,58 122.077,56.191 122.077,53.447 C122.077,50.359 124.017,48.823 126.063,48.823 C128.276,48.823 129.353,50.486 129.353,52.626 C129.353,52.973 129.317,53.32 129.225,53.557 L123.431,53.557 Z M133.666,50.431 L133.666,50.706 C134.507,49.589 135.532,48.823 136.884,48.823 C138.403,48.823 139.408,49.791 139.408,51.839 L139.408,56.301 C139.408,56.594 139.516,56.795 139.755,56.795 L140.467,56.795 C140.505,56.885 140.541,56.957 140.541,57.178 C140.541,57.561 140.12,57.818 139.187,57.818 C138.403,57.818 137.999,57.471 137.999,56.536 L137.999,52.169 C137.999,50.907 137.396,50.229 136.445,50.229 C135.275,50.229 134.398,50.979 133.666,52.04 L133.666,57.653 C133.501,57.764 133.245,57.818 132.882,57.818 C132.533,57.818 132.203,57.689 132.203,57.104 L132.203,50.814 C132.203,50.431 132.021,50.303 131.746,50.303 L131.089,50.303 C131.016,50.121 130.962,49.974 130.962,49.701 C130.962,49.242 131.363,49.005 132.26,49.005 C133.118,49.005 133.666,49.48 133.666,50.431 L133.666,50.431 Z M144.342,50.194 L144.342,55.221 C144.342,56.318 144.725,56.593 145.459,56.593 L147.213,56.593 C147.267,56.72 147.305,56.812 147.305,56.994 C147.305,57.47 146.884,57.817 145.092,57.817 C143.886,57.817 143.008,57.323 143.008,55.55 L143.008,50.194 L141.928,50.194 C141.838,50.065 141.784,49.901 141.784,49.682 C141.784,49.261 141.911,49.004 142.386,49.004 L143.008,49.004 L143.008,46.611 C143.136,46.537 143.427,46.464 143.72,46.464 C144.087,46.464 144.342,46.647 144.342,47.068 L144.342,49.004 L147.14,49.004 C147.231,49.096 147.267,49.243 147.267,49.479 C147.267,49.773 147.177,50.194 146.572,50.194 L144.342,50.194 Z M150.191,52.552 L154.799,52.552 C154.799,51.089 154.159,50.064 152.715,50.064 C151.545,50.064 150.466,50.871 150.191,52.552 L150.191,52.552 Z M150.119,53.557 C150.155,55.642 151.252,56.721 152.788,56.721 C154.086,56.721 155.22,56.227 155.641,55.898 C155.822,56.007 155.952,56.191 155.952,56.5 C155.952,56.829 155.822,57.014 155.641,57.142 C155.146,57.507 154.269,58 152.679,58 C150.319,58 148.766,56.191 148.766,53.447 C148.766,50.359 150.705,48.823 152.752,48.823 C154.965,48.823 156.042,50.486 156.042,52.626 C156.042,52.973 156.006,53.32 155.914,53.557 L150.119,53.557 L150.119,53.557 Z" id="Fill-5" fill="#636463" mask="url(#mask-4)"></path>
                    </g>
                </g>
            </g>
        </g>
    </g>
</svg>