<?xml version="1.0" encoding="UTF-8"?>
<svg width="61px" height="77px" viewBox="0 0 61 77" version="1.1" xmlns="http://www.w3.org/2000/svg" xmlns:xlink="http://www.w3.org/1999/xlink">
    <!-- Generator: Sketch 64 (93537) - https://sketch.com -->
    <title>img-01</title>
    <desc>Created with Sketch.</desc>
    <g id="Welcome" stroke="none" stroke-width="1" fill="none" fill-rule="evenodd">
        <g id="HOME---Servicios---Medios-de-Pago---Desktop-HD" transform="translate(-205.000000, -512.000000)" fill="#000000" fill-rule="nonzero">
            <g id="img-01" transform="translate(205.000000, 512.000000)">
                <path d="M60.9635697,63.4976289 L57.5278441,20.1676836 C57.3137217,17.3761328 54.9549191,15.1893027 52.157654,15.1893027 L45.3714009,15.1893027 L45.3714009,14.8840098 C45.3714009,6.67689258 38.7002481,0 30.500186,0 C22.300124,0 15.6289712,6.67689258 15.6289712,14.8840098 L15.6289712,15.1893027 L8.8428684,15.1893027 C6.04545297,15.1893027 3.68650014,17.3759824 3.47312904,20.1618184 L0.0363515946,63.5034941 C-0.229610983,66.9737578 0.973231069,70.4286816 3.33624095,72.9820137 C5.69925083,75.5353457 9.04902696,77 12.5265252,77 L48.4736966,77 C51.9510446,77 55.300971,75.5354961 57.6641311,72.9820137 C60.027141,70.4285312 61.2298328,66.9737578 60.9635697,63.4976289 Z M20.1353089,14.8840098 C20.1353089,9.16390234 24.7851461,4.51021484 30.500186,4.51021484 C36.215226,4.51021484 40.8650632,9.16405273 40.8650632,14.8840098 L40.8650632,15.1893027 L20.1353089,15.1893027 L20.1353089,14.8840098 Z M54.3579308,69.9173535 C52.8225604,71.5761621 50.7330262,72.4897852 48.4736966,72.4897852 L12.5266755,72.4897852 C10.2673459,72.4897852 8.17781169,71.5761621 6.64244129,69.9173535 C5.10722114,68.2583945 4.35681599,66.1029961 4.52931602,63.8543555 L7.96579294,20.5125293 C8.00065357,20.0565449 8.38592365,19.6995176 8.8428684,19.6995176 L15.6289712,19.6995176 L15.6289712,25.2541953 C15.6289712,26.4995801 16.6378258,27.5093027 17.88214,27.5093027 C19.1264542,27.5093027 20.1353089,26.4995801 20.1353089,25.2541953 L20.1353089,19.6995176 L40.8650632,19.6995176 L40.8650632,25.2541953 C40.8650632,26.4995801 41.8739179,27.5093027 43.1182321,27.5093027 C44.3625463,27.5093027 45.3714009,26.4995801 45.3714009,25.2541953 L45.3714009,19.6995176 L52.157654,19.6995176 C52.6144484,19.6995176 52.9997185,20.0566953 53.0351802,20.5185449 L56.4709058,63.8483398 C56.6437064,66.1029961 55.893151,68.2582441 54.3579308,69.9173535 Z" id="Shape"></path>
                <path d="M41.3285336,38.6533891 C40.4335253,37.7822036 38.9818506,37.7822036 38.0866894,38.6533891 L27.8498984,48.6143003 L23.9136355,44.784119 C23.0184743,43.9129335 21.5667996,43.9129335 20.6714855,44.784119 C19.7761715,45.6553045 19.7761715,47.067708 20.6714855,47.9388935 L26.2288234,53.3464621 C26.6764805,53.7820549 27.2632659,54 27.8497455,54 C28.4362252,54 29.0231635,53.7822036 29.4706676,53.3464621 L41.3283807,41.8083124 C42.2238476,40.9369781 42.2238476,39.5245746 41.3285336,38.6533891 Z" id="Path"></path>
            </g>
        </g>
    </g>
</svg>