<?xml version="1.0" encoding="UTF-8"?>
<svg width="286px" height="286px" viewBox="0 0 286 286" version="1.1" xmlns="http://www.w3.org/2000/svg" xmlns:xlink="http://www.w3.org/1999/xlink">
    <!-- Generator: Sketch 64 (93537) - https://sketch.com -->
    <title>img-codensa</title>
    <desc>Created with Sketch.</desc>
    <defs>
        <rect id="path-1" x="0" y="0" width="286" height="286" rx="10"></rect>
    </defs>
    <g id="Welcome" stroke="none" stroke-width="1" fill="none" fill-rule="evenodd">
        <g id="HOME---Servicios---Medios-de-Pago---Desktop-HD" transform="translate(-1031.000000, -2302.000000)">
            <g id="img-codensa" transform="translate(1031.000000, 2302.000000)">
                <g id="img-servi-copy-3">
                    <mask id="mask-2" fill="white">
                        <use xlink:href="#path-1"></use>
                    </mask>
                    <use id="Mask" fill="#F3CE13" xlink:href="#path-1"></use>
                </g>
                <g id="codensa" transform="translate(28.000000, 75.000000)" fill-rule="nonzero">
                    <path d="M230,133.091712 C230,139.11552 224.434,144 217.5662,144 L12.43265,144 C5.56715,144 0,139.11552 0,133.091712 L0,10.908288 C0,4.88448 5.56715,0 12.43265,0 L217.5662,0 C224.434,0 230,4.88448 230,10.908288 L230,133.091712 Z" id="Path" fill="#F3CE13"></path>
                    <path d="M34.19065,46.878336 C31.9608,46.878336 30.04145,47.332224 28.43145,48.238848 C26.82375,49.146624 25.62545,50.368896 24.8377,51.90336 C24.0488,53.438976 23.65435,55.202688 23.65435,57.197952 C23.65435,58.687488 23.8694,60.046848 24.2972,61.273728 C24.72385,62.500608 25.36555,63.576576 26.22,64.501632 C27.0733,65.425536 28.18535,66.143232 29.55385,66.652416 C30.9235,67.1616 32.49555,67.417344 34.27115,67.417344 C36.5539,67.417344 38.9183,66.918528 41.3609,65.920896 L41.94165,68.391936 C39.95215,69.444864 37.26115,69.97248 33.8698,69.97248 C31.63995,69.97248 29.6401,69.66144 27.8714,69.03936 C26.1027,68.41728 24.6399,67.538304 23.4853,66.400128 C22.3307,65.263104 21.4521,63.9072 20.85065,62.333568 C20.25035,60.759936 19.9502,59.008896 19.9502,57.0816 C19.9502,55.22112 20.2768,53.506944 20.93115,51.939072 C21.58435,50.3712 22.51125,49.02336 23.7061,47.896704 C24.90095,46.770048 26.3925,45.894528 28.18305,45.266688 C29.97245,44.64 31.9608,44.325504 34.15155,44.325504 C37.47735,44.325504 40.2799,44.941824 42.56265,46.173312 L41.20105,48.542976 C39.01145,47.4336 36.67465,46.878336 34.19065,46.878336 Z M72.25565,57.180672 C72.25565,59.07456 71.944,60.804864 71.323,62.373888 C70.702,63.942912 69.8073,65.290752 68.6389,66.416256 C67.4705,67.54176 65.99965,68.416128 64.2229,69.037056 C62.4473,69.659136 60.4509,69.970176 58.2337,69.970176 C55.24255,69.970176 52.68265,69.434496 50.554,68.364288 C48.4219,67.29408 46.828,65.804544 45.76655,63.893376 C44.70395,61.98336 44.17495,59.740416 44.17495,57.16224 C44.17495,53.184384 45.4089,50.047488 47.8791,47.7504 C50.3493,45.453312 53.8085,44.30592 58.25555,44.30592 C62.63475,44.30592 66.0629,45.462528 68.54,47.775744 C71.01595,50.091264 72.25565,53.225856 72.25565,57.180672 Z M47.8584,57.180672 C47.8584,60.372864 48.73355,62.880768 50.4827,64.70208 C52.23185,66.523392 54.8159,67.433472 58.2337,67.433472 C61.6515,67.433472 64.2252,66.525696 65.95595,64.711296 C67.6844,62.895744 68.5492,60.386688 68.5492,57.181824 C68.5492,53.910144 67.6775,51.372288 65.93525,49.568256 C64.193,47.764224 61.63195,46.862208 58.2544,46.862208 C54.8757,46.862208 52.29855,47.764224 50.5218,49.568256 C48.74505,51.372288 47.8584,53.908992 47.8584,57.180672 Z M101.18505,57.147264 C101.18505,61.193088 99.81655,64.279296 97.07955,66.408192 C94.3414,68.537088 90.52225,69.601536 85.6221,69.601536 L76.8292,69.601536 L76.8292,44.74368 L85.04135,44.74368 C87.51155,44.74368 89.7207,44.986752 91.67225,45.4752 C93.62035,45.962496 95.3143,46.70208 96.74835,47.6928 C98.1847,48.684672 99.28295,49.978368 100.0431,51.576192 C100.8044,53.171712 101.18505,55.029888 101.18505,57.147264 Z M97.47975,57.23136 C97.47975,53.75808 96.4114,51.231744 94.2747,49.6512 C92.138,48.071808 89.02725,47.281536 84.9413,47.281536 L80.293,47.281536 L80.293,67.06368 L85.5209,67.06368 C89.42055,67.06368 92.38755,66.236544 94.4242,64.584576 C96.46085,62.931456 97.47975,60.48 97.47975,57.23136 Z M106.45205,69.601536 L106.45205,44.74368 L125.557,44.74368 L125.557,47.314944 L109.917,47.314944 L109.917,55.449216 L122.636,55.449216 L122.636,57.987072 L109.917,57.987072 L109.917,67.02912 L125.55815,67.02912 L125.55815,69.601536 L106.45205,69.601536 Z M156.31605,69.601536 L152.06105,69.601536 L135.3895,50.038272 L134.30275,48.878208 C134.42005,51.230592 134.47755,53.33184 134.47755,55.1808 L134.47755,69.601536 L130.96085,69.601536 L130.96085,44.74368 L135.1503,44.74368 L151.8644,64.305792 L152.97185,65.465856 C152.87065,61.8912 152.82005,59.82336 152.82005,59.263488 L152.82005,44.74368 L156.3149,44.74368 L156.3149,69.601536 L156.31605,69.601536 Z M161.8188,65.500416 C164.9031,66.777984 168.2082,67.416192 171.73295,67.416192 C176.0719,67.416192 178.2431,65.758464 178.2431,62.441856 C178.2431,61.365888 177.89925,60.494976 177.21155,59.827968 C176.52385,59.16096 175.27035,58.637952 173.4545,58.25664 L167.5665,57.01248 C163.0677,56.059776 160.81715,54.043776 160.81715,50.962176 C160.81715,48.598272 161.78545,46.841472 163.7209,45.692928 C165.6575,44.545536 168.3347,43.970688 171.7525,43.970688 C173.54305,43.970688 175.21745,44.13312 176.77915,44.457984 C178.342,44.782848 179.6507,45.220608 180.70525,45.76896 L179.70475,48.138624 C178.8089,47.723904 177.62325,47.355264 176.14895,47.0304 C174.6735,46.705536 173.1808,46.543104 171.672,46.543104 C166.8374,46.543104 164.42125,47.949696 164.42125,50.761728 C164.42125,51.714432 164.79155,52.478208 165.53215,53.056512 C166.2739,53.633664 167.3848,54.072576 168.86715,54.375552 L174.49525,55.518336 C176.89875,55.999872 178.7215,56.77056 179.9635,57.829248 C181.2055,58.887936 181.8265,60.392448 181.8265,62.341632 C181.8265,64.87488 180.9019,66.78144 179.0527,68.064768 C177.2035,69.348096 174.6896,69.988608 171.511,69.988608 C169.13395,69.988608 167.0214,69.784704 165.17105,69.375744 C163.323,68.966784 161.85675,68.482944 160.77575,67.92192 L161.8188,65.500416 Z M206.4848,69.601536 L203.01755,61.7184 L191.2013,61.7184 L187.6156,69.601536 L184.092,69.601536 L195.4678,44.692992 L199.01325,44.692992 L210.05095,69.601536 L206.4848,69.601536 L206.4848,69.601536 Z M201.89745,59.28192 C199.0788,52.413696 197.52285,48.553344 197.2296,47.702016 L192.3628,59.28192 L201.89745,59.28192 Z" id="Shape" fill="#000000"></path>
                    <g id="Group" transform="translate(46.000000, 87.552000)" fill="#00559E">
                        <polygon id="Path" points="106.9408 0.65088 104.39125 0.65088 102.7111 3.59424 104.0037 3.59424"></polygon>
                        <polygon id="Path" points="27.8783 9.831168 32.91875 9.831168 32.91875 8.466048 27.8783 8.466048 27.8783 5.599872 33.1729 5.599872 33.2465 4.22208 26.1418 4.22208 26.1418 14.433408 33.28215 14.433408 33.3684 13.055616 27.8783 13.055616"></polygon>
                        <path d="M4.2481,5.942016 C4.8553,5.599872 5.59245,5.42592 6.44,5.42592 C7.39105,5.42592 8.2984,5.641344 9.13675,6.066432 L9.292,6.144768 L10.00845,4.897152 L9.8463,4.8096 C8.9171,4.30848 7.76595,4.05504 6.4239,4.05504 C5.5384,4.05504 4.72305,4.184064 3.9974,4.438656 C3.26715,4.6944 2.64845,5.058432 2.1574,5.520384 C1.66865,5.981184 1.28455,6.541056 1.01545,7.18272 C0.74865,7.823232 0.61295,8.53056 0.61295,9.289728 C0.61295,10.073088 0.73715,10.79424 0.9821,11.434752 C1.22705,12.079872 1.5916,12.6432 2.06655,13.110912 C2.54265,13.579776 3.14985,13.94496 3.87435,14.199552 C4.5931,14.450688 5.4119,14.579712 6.31235,14.579712 C7.6797,14.579712 8.786,14.361984 9.5979,13.932288 L9.72095,13.866624 L9.4093,12.547584 L9.2115,12.628224 C8.2708,13.01184 7.3485,13.20768 6.4722,13.20768 C5.79255,13.20768 5.18535,13.10976 4.6667,12.916224 C4.15495,12.724992 3.7329,12.454272 3.41435,12.110976 C3.09465,11.763072 2.85085,11.354112 2.691,10.894464 C2.52885,10.430208 2.4472,9.906048 2.4472,9.33696 C2.4472,8.577792 2.59785,7.898112 2.8957,7.319808 C3.19125,6.746112 3.6455,6.283008 4.2481,5.942016 Z" id="Path"></path>
                        <path d="M45.4779,5.423616 C44.89485,5.019264 44.19795,4.715136 43.4056,4.516992 C42.6236,4.321152 41.7243,4.220928 40.733,4.220928 L37.29565,4.220928 L37.29565,14.432256 L40.963,14.432256 C42.93755,14.432256 44.5027,13.994496 45.61705,13.128192 C46.7429,12.252672 47.3133,10.969344 47.3133,9.316224 C47.3133,8.453376 47.15575,7.684992 46.8441,7.031808 C46.5313,6.375168 46.0713,5.833728 45.4779,5.423616 Z M39.03445,5.5872 L40.6939,5.5872 C42.26595,5.5872 43.47345,5.891328 44.2842,6.490368 C45.07885,7.077888 45.4825,8.039808 45.4825,9.350784 C45.4825,10.576512 45.09725,11.510784 44.33825,12.127104 C43.5689,12.75264 42.42005,13.06944 40.92505,13.06944 L39.0356,13.06944 L39.0356,5.5872 L39.03445,5.5872 Z" id="Shape"></path>
                        <polygon id="Path" points="33.21085 0.65088 30.66245 0.65088 28.98115 3.59424 30.2726 3.59424"></polygon>
                        <path d="M20.2216,10.129536 C20.07555,9.908352 19.9479,9.721728 19.84095,9.568512 C19.83405,9.558144 19.82715,9.547776 19.82025,9.53856 C20.45275,9.347328 20.95875,9.03744 21.32675,8.614656 C21.74305,8.134272 21.9535,7.555968 21.9535,6.892416 C21.9535,6.561792 21.9144,6.258816 21.83505,5.992704 C21.75685,5.72544 21.64415,5.488128 21.50385,5.289984 C21.3601,5.089536 21.1692,4.915584 20.9392,4.771584 C20.7161,4.633344 20.47345,4.520448 20.21815,4.434048 C19.9617,4.3488 19.66155,4.281984 19.3246,4.234752 C18.9957,4.18752 18.6553,4.154112 18.3126,4.136832 C17.9722,4.1184 17.5812,4.110336 17.15225,4.110336 L13.2158,4.110336 L13.2158,14.43456 L14.9845,14.43456 L14.9845,9.830016 L16.90615,9.8784 C17.38685,9.8784 17.81695,9.869184 18.18495,9.850752 C18.32065,10.065024 18.58055,10.533888 18.96005,11.246976 L20.62985,14.435712 L22.6343,14.435712 L20.56775,10.694016 C20.4861,10.541952 20.3711,10.354176 20.2216,10.129536 Z M20.24805,6.912 C20.24805,7.469568 20.07785,7.861248 19.7294,8.108928 C19.366,8.368128 18.6898,8.498304 17.72265,8.498304 C17.35235,8.498304 16.82795,8.493696 16.1483,8.485632 C15.6216,8.47872 15.2329,8.474112 14.98335,8.47296 L14.98335,5.499648 L17.9446,5.499648 C18.79675,5.499648 19.40625,5.620608 19.7547,5.860224 C20.08705,6.089472 20.24805,6.432768 20.24805,6.912 Z" id="Shape"></path>
                        <rect id="Rectangle" x="124.15975" y="4.22208" width="1.7365" height="10.211328"></rect>
                        <path d="M102.7226,4.202496 L98.049,14.433408 L99.84645,14.433408 L101.2667,11.309184 L105.7126,11.309184 L107.08685,14.433408 L108.89695,14.433408 L104.3648,4.202496 L102.7226,4.202496 Z M105.11805,9.984384 L101.88195,9.984384 L103.53105,6.062976 C103.78865,6.725376 104.3211,8.038656 105.11805,9.984384 Z" id="Shape"></path>
                        <path d="M114.91605,5.942016 C115.52325,5.599872 116.2604,5.42592 117.1068,5.42592 C118.05785,5.42592 118.9652,5.641344 119.80355,6.066432 L119.9588,6.144768 L120.67525,4.897152 L120.5131,4.8096 C119.5862,4.30848 118.4339,4.05504 117.0907,4.05504 C116.2052,4.05504 115.38985,4.184064 114.6642,4.438656 C113.9328,4.695552 113.31525,5.059584 112.82535,5.520384 C112.3343,5.982336 111.9502,6.542208 111.6834,7.18272 C111.4166,7.824384 111.27975,8.532864 111.27975,9.289728 C111.27975,10.071936 111.40395,10.79424 111.6489,11.434752 C111.89615,12.081024 112.2607,12.645504 112.73335,13.10976 C113.2083,13.577472 113.8155,13.943808 114.53885,14.1984 C115.25875,14.449536 116.0787,14.57856 116.97915,14.57856 C118.3465,14.57856 119.45165,14.360832 120.26355,13.931136 L120.3843,13.865472 L120.0761,12.546432 L119.87715,12.627072 C118.9353,13.010688 118.013,13.206528 117.13555,13.206528 C116.45705,13.206528 115.8487,13.108608 115.33005,12.915072 C114.816,12.72384 114.3951,12.45312 114.07885,12.109824 C113.758,11.76192 113.5142,11.35296 113.35435,10.893312 C113.19105,10.4256 113.1094,9.90144 113.1094,9.334656 C113.1094,8.57664 113.2612,7.898112 113.5602,7.317504 C113.8569,6.746112 114.31,6.283008 114.91605,5.942016 Z" id="Path"></path>
                        <polygon id="Path" points="132.2109 13.048704 132.2109 4.22208 130.46405 4.22208 130.46405 14.433408 137.32265 14.433408 137.3859 13.048704"></polygon>
                        <rect id="Rectangle" x="51.3659" y="4.22208" width="1.73765" height="10.211328"></rect>
                        <polygon id="Path" points="89.47805 14.433408 91.2157 14.433408 91.2157 10.036224 96.0664 10.036224 96.0664 8.698752 91.2157 8.698752 91.2157 5.599872 96.29295 5.599872 96.37115 4.22208 89.47805 4.22208"></polygon>
                        <polygon id="Path" points="56.34425 5.599872 59.9564 5.599872 59.9564 14.433408 61.7021 14.433408 61.7021 5.599872 65.31425 5.599872 65.31425 4.22208 56.34425 4.22208"></polygon>
                        <path d="M73.6207,4.04928 C71.81865,4.04928 70.39265,4.525056 69.3818,5.463936 C68.3698,6.40512 67.85575,7.704576 67.85575,9.324288 C67.85575,10.371456 68.0754,11.298816 68.5101,12.07872 C68.9471,12.865536 69.6118,13.486464 70.48465,13.925376 C71.34945,14.35968 72.4017,14.580864 73.6115,14.580864 C74.5062,14.580864 75.325,14.452992 76.0472,14.200704 C76.7717,13.946112 77.3835,13.583232 77.8642,13.120128 C78.3426,12.659328 78.71405,12.098304 78.96935,11.454336 C79.2235,10.814976 79.3523,10.100736 79.3523,9.330048 C79.3523,7.719552 78.83825,6.421248 77.8228,5.473152 C76.80965,4.528512 75.3963,4.04928 73.6207,4.04928 Z M73.6207,5.42016 C74.9018,5.42016 75.8816,5.762304 76.5325,6.437376 C77.18685,7.1136 77.5192,8.088192 77.5192,9.3312 C77.5192,10.550016 77.18915,11.511936 76.5394,12.192768 C75.89195,12.871296 74.90755,13.215744 73.6115,13.215744 C72.3143,13.215744 71.3253,12.870144 70.6721,12.189312 C70.0143,11.505024 69.6808,10.543104 69.6808,9.3312 C69.6808,8.088192 70.0189,7.115904 70.68705,6.438528 C71.3506,5.762304 72.33845,5.42016 73.6207,5.42016 Z" id="Shape"></path>
                    </g>
                    <rect id="Rectangle" fill="#000000" x="15.3387" y="78.997248" width="199.3226" height="1.819008"></rect>
                </g>
            </g>
        </g>
    </g>
</svg>