<?xml version="1.0" encoding="UTF-8"?>
<svg width="36px" height="36px" viewBox="0 0 36 36" version="1.1" xmlns="http://www.w3.org/2000/svg" xmlns:xlink="http://www.w3.org/1999/xlink">
    <!-- Generator: Sketch 64 (93537) - https://sketch.com -->
    <title>img-08</title>
    <desc>Created with Sketch.</desc>
    <g id="Welcome" stroke="none" stroke-width="1" fill="none" fill-rule="evenodd">
        <g id="HOME---Servicios---Medios-de-Pago---Desktop-HD" transform="translate(-704.000000, -1520.000000)">
            <g id="img-08" transform="translate(704.000000, 1520.000000)">
                <g id="img-01-copy" fill="#F2AF38">
                    <rect id="Rectangle" x="0" y="0" width="36" height="36" rx="10"></rect>
                </g>
                <path d="M17.40168,25.31232 C20.26584,25.31232 21.9132,23.66496 21.9132,21.3624 C21.9132,19.56528 20.9772,18.51696 19.61064,18.06768 L19.61064,17.9928 C20.54664,17.67456 21.66984,16.71984 21.66984,14.92272 C21.66984,12.86352 20.11608,11.21616 17.2332,11.21616 C14.44392,11.21616 12.68424,12.69504 12.57192,15.39072 L15.69816,15.39072 C15.75432,14.64192 16.12872,13.89312 17.15832,13.89312 C18.01944,13.89312 18.56232,14.39856 18.56232,15.31584 C18.56232,16.55136 17.514,16.81344 16.42824,16.81344 L15.8292,16.81344 L15.8292,19.41552 L16.42824,19.41552 C18.09432,19.41552 18.8244,19.90224 18.8244,21.11904 C18.8244,22.0176 18.28152,22.65408 17.28936,22.65408 C16.11,22.65408 15.52968,21.94272 15.51096,20.87568 L12.40344,20.87568 C12.49704,23.96448 14.55624,25.31232 17.40168,25.31232 Z" id="3" fill="#FFFFFF" fill-rule="nonzero"></path>
            </g>
        </g>
    </g>
</svg>