<?xml version="1.0" encoding="UTF-8"?>
<svg width="142px" height="60px" viewBox="0 0 142 60" version="1.1" xmlns="http://www.w3.org/2000/svg" xmlns:xlink="http://www.w3.org/1999/xlink">
    <!-- Generator: Sketch 64 (93537) - https://sketch.com -->
    <title>img-03</title>
    <desc>Created with Sketch.</desc>
    <g id="Welcome" stroke="none" stroke-width="1" fill="none" fill-rule="evenodd">
        <g id="HOME---Servicios---Medios-de-Pago---Desktop-HD" transform="translate(-651.000000, -520.000000)">
            <g id="img-03" transform="translate(651.000000, 520.000000)">
                <path d="M53.7077275,9.63522581 C44.416594,9.63522581 37.0260163,16.8886452 36.6031117,25.9730323 L36.6031117,56.3256774 C36.6031117,58.2971613 38.2212153,59.9171613 40.2633842,59.9171613 C42.0939074,59.9171613 43.7828174,58.5781935 43.853624,56.2552258 L43.853624,39.7769032 C46.2467302,41.6067097 49.9073896,43.0854194 53.5676621,43.2267097 C53.6373079,43.2267097 53.7777602,43.2267097 53.8485668,43.2267097 L53.8485668,37.3811613 C53.8485668,37.3811613 53.8485668,37.3811613 53.7777602,37.3811613 C47.795188,37.3811613 43.1494278,32.5931613 43.1494278,26.6775484 C43.1494278,20.8323871 47.795188,16.044 53.7777602,16.044 C53.8485668,16.0436129 53.8485668,16.044 53.8485668,16.044 L53.8485668,9.63522581 C53.8485668,9.63522581 53.7777602,9.63522581 53.7077275,9.63522581 Z M53.8485668,43.2267097 C63.2105068,43.2975484 70.8127302,35.691871 70.8127302,26.5362581 C70.8127302,17.5931613 63.9847357,9.70606452 53.8485668,9.63522581 L53.8485668,16.0436129 C59.6910736,16.1136774 64.6177384,20.8323871 64.6177384,26.6775484 C64.6177384,32.5230968 59.7618801,37.3114839 53.8485668,37.3811613 L53.8485668,43.2267097 L53.8485668,43.2267097 Z" id="Fill-1" fill="#009C4C"></path>
                <path d="M16.4011935,15.4803871 C12.530049,15.6212903 8.79897003,17.8749677 7.32093188,21.1149677 C6.82799455,22.1005161 7.3913515,22.9451613 8.5180654,22.9451613 L16.4011935,22.9447742 L16.4011935,28.6490323 L8.16558038,28.6490323 C6.40625068,28.6490323 6.75757493,29.9179355 7.03925341,30.8326452 C8.09516076,33.9313548 12.0371117,37.1005161 16.4011935,37.1709677 L16.4011935,43.2267097 C16.3315477,43.2267097 16.3315477,43.2267097 16.3315477,43.2267097 C6.89880109,43.0854194 0,35.4805161 0,26.3252903 C0,17.3113548 7.25012534,9.84696774 16.3315477,9.63522581 L16.4011935,9.63522581 L16.4011935,15.4803871 Z M16.4011935,43.2267097 L16.4011935,37.1709677 C16.4011935,37.1709677 16.4011935,37.1709677 16.4708392,37.1709677 C18.934752,37.1005161 21.3990518,36.6077419 23.7209646,34.9877419 C27.3812371,32.3818065 30.549346,37.0296774 27.734109,39.4234839 C24.8476785,41.8188387 20.3431444,43.2267097 16.4011935,43.2267097 Z M16.6120654,15.4803871 C16.5416458,15.4803871 16.4708392,15.4803871 16.4011935,15.4803871 L16.4011935,9.63522581 C23.2284142,9.42425806 28.297079,13.5789677 30.6905722,17.7340645 C31.6048665,19.424129 32.3098365,21.3956129 32.3802561,23.2265806 L32.3802561,24.2129032 C32.23903,26.6775484 30.9014441,28.5785806 27.4520436,28.6490323 L16.4011935,28.6490323 L16.4011935,22.9447742 L24.6368065,22.9447742 C25.692327,22.9447742 25.9035858,21.8883871 25.3402289,20.9028387 C23.7917711,17.8045161 20.624049,15.4803871 16.6120654,15.4803871 L16.6120654,15.4803871 Z" id="Fill-2" fill="#009C4C"></path>
                <path d="M129.517929,6.26748387 C129.517929,2.74683871 132.26352,0.000387096774 135.782567,0.000387096774 L135.782567,0 L135.782567,0.563612903 C132.614845,0.563612903 130.080899,3.09870968 130.080899,6.26787097 C130.080899,9.36658065 132.614845,11.972129 135.782567,11.972129 L135.782567,12.5349677 C132.26352,12.5349677 129.517929,9.71845161 129.517929,6.26748387 Z M135.782567,0 C139.231193,0 141.976785,2.74683871 141.976785,6.26787097 C141.976785,9.71845161 139.231193,12.4649032 135.782567,12.5349677 L135.782567,11.972129 C138.879869,11.972129 141.484621,9.36658065 141.484621,6.26787097 C141.484621,3.09870968 138.879869,0.564 135.782567,0.564 L135.782567,0 L135.782567,0 Z" id="Fill-3" fill="#009C4C"></path>
                <path d="M134.374561,3.87329032 L135.501275,3.87329032 C135.501275,3.87329032 135.570921,3.87367742 135.641341,3.87367742 L135.641341,3.16916129 L133.529526,3.16916129 L133.529526,9.36658065 L134.374561,9.36658065 L134.374561,6.61935484 L135.360823,6.61935484 L135.641341,7.11251613 L135.641341,5.84516129 C135.570921,5.84516129 135.501275,5.84516129 135.501275,5.84516129 L134.374561,5.84516129 L134.374561,3.87329032 Z M135.641341,3.87329032 C136.204698,3.87329032 136.838474,4.08503226 136.838474,4.8596129 C136.838474,5.63380645 136.204698,5.84516129 135.641341,5.84516129 L135.641341,7.11251613 L136.909668,9.36658065 L137.964414,9.36658065 L136.204698,6.47922581 C137.119379,6.40877419 137.682736,5.63419355 137.682736,4.8596129 C137.682736,4.08503226 137.331025,3.16954839 135.712147,3.16954839 L135.641341,3.16916129 L135.641341,3.87329032 L135.641341,3.87329032 Z" id="Fill-4" fill="#009C4C"></path>
                <path d="M98.1235477,33.015871 L98.1235477,25.1283871 C98.1235477,20.7615484 94.6045014,17.2412903 90.2404196,17.2412903 C86.1584033,17.2412903 82.3561308,20.5513548 82.3561308,25.1283871 L82.3561308,33.015871 C82.3561308,35.0581935 80.7372534,36.6770323 78.6958583,36.6770323 C76.6548501,36.6770323 74.8951335,35.0581935 74.9651662,33.015871 L74.9651662,25.692 C74.9651662,14.8467097 82.9902943,9.63522581 90.17,9.63522581 C95.1670845,9.63522581 99.179455,11.8889032 101.714561,15.1285161 C105.021575,11.0434839 109.666948,9.63522581 113.327608,9.63522581 C122.338223,9.63522581 129.025379,17.3821935 129.376703,26.396129 C129.728801,34.4949677 126.491433,48.015871 109.245591,54.7765161 C106.640839,55.5503226 104.1777,53.508 104.388572,51.0437419 C104.529025,49.7055484 105.162801,48.1563871 107.415842,47.5230968 C121.63364,43.4376774 123.111678,30.4103226 122.40903,25.9029677 C121.704447,20.9736774 118.748371,17.3821935 113.469221,17.2412903 C108.89388,17.1704516 105.37406,20.7615484 105.37406,25.1283871 L105.37406,33.015871 C105.37406,35.127871 103.755569,36.6770323 101.714561,36.6770323 C99.742812,36.6770323 98.0542888,35.127871 98.1235477,33.015871" id="Fill-5" fill="#8BC14A"></path>
            </g>
        </g>
    </g>
</svg>