<?xml version="1.0" encoding="UTF-8"?>
<svg width="129px" height="42px" viewBox="0 0 129 42" version="1.1" xmlns="http://www.w3.org/2000/svg" xmlns:xlink="http://www.w3.org/1999/xlink">
    <!-- Generator: Sketch 64 (93537) - https://sketch.com -->
    <title>img-02</title>
    <desc>Created with Sketch.</desc>
    <g id="Welcome" stroke="none" stroke-width="1" fill="none" fill-rule="evenodd">
        <g id="HOME---Servicios---Medios-de-Pago---Desktop-HD" transform="translate(-416.000000, -524.000000)">
            <g id="img-02" transform="translate(416.000000, 524.000000)">
                <path d="M69.7965056,7.58506958 C69.7965056,11.774636 66.3925811,15.1701392 62.1934471,15.1701392 C57.9951363,15.1701392 54.5928581,11.774636 54.5928581,7.58506958 C54.5928581,3.39632432 57.9951363,2.0421464e-14 62.1934471,2.0421464e-14 C66.3925811,2.0421464e-14 69.7965056,3.39632432 69.7965056,7.58506958" id="Fill-1" fill="#F2AF38"></path>
                <path d="M17.2262455,33.0386903 L9.80922973,33.0386903 C9.80922973,33.0386903 9.62730293,33.0427211 9.56885586,32.9901668 C9.49723761,32.925295 9.50958559,32.788161 9.50958559,32.788161 L9.50958559,24.9050098 C9.50958559,24.9050098 9.5046464,24.7259965 9.57132545,24.672621 C9.6404741,24.6159609 9.8248705,24.6241725 9.8248705,24.6241725 L16.2334685,24.6241725 C20.2580845,24.6241725 22.0765293,26.0570995 22.0765293,29.0264198 C22.0765293,31.5005796 20.3124155,33.0386903 17.2262455,33.0386903 L17.2262455,33.0386903 Z M9.57955743,9.65275446 C9.64870608,9.60759057 9.81416892,9.61415986 9.81416892,9.61415986 L16.2886227,9.61415986 C19.2101532,9.61415986 20.8631351,10.9329454 20.8631351,13.1894974 C20.8631351,15.6628361 19.2101532,16.8740495 15.6284178,16.8740495 L9.82734009,16.8740495 C9.82734009,16.8740495 9.62154054,16.8830822 9.55568468,16.815747 C9.49888401,16.7558022 9.50958559,16.576789 9.50958559,16.576789 L9.50958559,9.90485106 C9.50958559,9.90485106 9.49723761,9.70859344 9.57955743,9.65275446 L9.57955743,9.65275446 Z M25.385786,21.0537619 C24.5584718,20.7220127 24.6136261,20.2276734 25.4425867,19.8951029 C26.9268131,19.1847982 29.8499899,17.0932996 29.8499899,12.252552 C29.8499899,5.71035768 24.7782658,1.80491317 16.2886227,1.80491317 L1.29818356,1.80491317 C0.853656532,1.80491317 0.578708333,2.0800023 0.578708333,2.52096607 L0.578708333,40.0792547 C0.578708333,40.5185762 0.853656532,40.7928442 1.29818356,40.7928442 L17.3382005,40.7928442 C25.9933063,40.7928442 31.0642072,36.7256308 31.0642072,29.8500449 C31.0642072,24.2406901 27.4240248,21.8199057 25.385786,21.0537619 L25.385786,21.0537619 Z M51.427661,13.1886763 C47.5619223,13.2970696 45.3532815,14.1773548 42.9808243,16.6589051 C42.3173266,17.3741369 42.0967095,17.2074411 41.5970282,16.4938516 L40.1605473,14.2914963 C39.9621565,13.9613893 39.7209595,13.7930512 39.3340563,13.7930512 L35.4115169,13.7930512 C34.9711059,13.7930512 34.6945113,14.071425 34.6945113,14.5099252 L34.6945113,40.126061 C34.6945113,40.5653824 34.9686363,40.842935 35.4115169,40.842935 L42.7577376,40.842935 C43.199795,40.842935 43.4763896,40.5653824 43.4763896,40.126061 L43.4763896,35.6638689 C43.4763896,24.6455227 45.3532815,21.2303117 51.427661,20.9544014 C51.9265191,20.9544014 52.1446667,20.7367936 52.1446667,20.2383485 L52.1446667,13.9030868 C52.1446667,13.4613019 51.8697185,13.1886763 51.427661,13.1886763 L51.427661,13.1886763 Z M85.7369155,33.8170765 C85.5722759,33.4327729 85.2421734,33.3235584 84.800116,33.4327729 L84.4675439,33.4327729 C83.9719786,33.4327729 83.7497151,32.9918091 83.7497151,32.3857918 L83.7497151,1.45427717 C83.7497151,1.0133134 83.4690045,0.738224267 83.0310631,0.738224267 L75.6864887,0.738224267 C75.2452545,0.738224267 74.9678367,1.0133134 74.9678367,1.45427717 L74.9678367,32.3857918 C74.9678367,37.8925014 78.5561577,41.1451225 84.4675439,41.1451225 C85.4636137,41.1451225 86.6761847,40.9234089 87.6722545,40.4840874 C88.0558649,40.3173916 88.1678198,39.9881058 88.0007106,39.547142 L85.7369155,33.8170765 Z M100.851658,33.8170765 C100.687841,33.4327729 100.356092,33.3235584 99.9123885,33.4327729 L99.582286,33.4327729 C99.0842511,33.4327729 98.8644572,32.9918091 98.8644572,32.3857918 L98.8644572,1.45427717 C98.8644572,1.0133134 98.5870394,0.738224267 98.1466284,0.738224267 L90.8012309,0.738224267 C90.3608198,0.738224267 90.0842252,1.0133134 90.0842252,1.45427717 L90.0842252,32.3857918 C90.0842252,37.8925014 93.6725462,41.1451225 99.582286,41.1451225 C100.575886,41.1451225 101.79422,40.9234089 102.784527,40.4840874 C103.17143,40.3173916 103.280092,39.9881058 103.117099,39.547142 L100.851658,33.8170765 L100.851658,33.8170765 Z" id="Fill-2" fill="#D8223A"></path>
                <g id="Group-6" transform="translate(55.541667, 12.828186)" fill="#D8223A">
                    <path d="M0.547765766,1.92644508 C0.505782658,1.95025877 0.476147523,1.9880322 0.476147523,2.0373019 L0.476147523,7.90860725 C0.476147523,8.34957102 0.753565315,8.62219666 1.19562275,8.62219666 L3.70226126,8.62219666 C3.85290653,8.62383899 3.96568468,8.61973318 4.02577815,8.68542611 C4.08504842,8.75440368 4.06611486,8.92766878 4.06693806,9.04591604 L4.06693806,27.299517 C4.06693806,27.7371961 4.34188626,28.0147487 4.78394369,28.0147487 L12.0750101,28.0147487 C12.5162444,28.0147487 12.7936622,27.7371961 12.7936622,27.299517 L12.7936622,2.04058654 C12.7936622,1.98638988 12.7475631,1.91002185 12.6710056,1.91002185 C12.5911554,1.91002185 12.5574043,1.95436458 12.5162444,1.99213801 C11.2641599,3.12369868 9.27531306,4.22816101 6.68635473,4.22816101 C4.10892117,4.22816101 2.37855856,3.34376998 0.715698198,1.95929155 C0.681123874,1.93301438 0.620207207,1.89277746 0.547765766,1.92644508 M64.7325293,17.1302519 C64.3999572,20.1586958 62.7988367,21.5366049 59.925875,21.5366049 C57.9403209,21.5366049 56.7796115,20.6563197 56.7796115,19.1133571 C56.7796115,17.9021438 57.9403209,17.0202162 59.5406182,17.0202162 L64.6477399,17.0202162 C64.6477399,17.0202162 64.7004245,17.0202162 64.7177117,17.049778 C64.7391149,17.0793399 64.7325293,17.1302519 64.7325293,17.1302519 M59.7620586,0.275089132 C57.66208,0.275089132 55.7300338,0.606838413 53.6885023,1.15701668 L51.535839,1.7613916 C51.0369809,1.8706061 50.8723412,2.14897987 51.0369809,2.64331915 L52.7484099,8.37502703 C52.9155191,8.81270615 53.1904673,8.97858079 53.6325248,8.86772398 L55.7300338,8.26170673 C56.9458975,7.93242093 58.2160923,7.7107073 59.3183547,7.7107073 C62.467911,7.7107073 64.5086194,9.08861645 64.7325293,11.4552041 L64.7325293,11.5668821 L59.5406182,11.5668821 C52.6932556,11.5668821 48.6060766,14.5969684 48.6060766,19.7193744 C48.6060766,25.2843864 52.528616,28.3308959 59.0985608,28.3308959 C61.4191565,28.3308959 63.6261509,27.7059919 65.0618086,26.4372973 C66.0019009,25.6670477 66.4991126,25.7770834 66.8308615,26.4372973 L67.3280732,27.4309028 C67.5478671,27.7610098 67.7684842,27.9252421 68.2105417,27.9252421 L72.352875,27.9252421 C72.793286,27.9252421 73.0707038,27.6509741 73.0707038,27.2100104 L73.0707038,10.9625072 C73.0707038,4.2412996 68.1553874,0.275089132 59.7620586,0.275089132" id="Fill-3"></path>
                </g>
            </g>
        </g>
    </g>
</svg>