<?xml version="1.0" encoding="UTF-8"?>
<svg width="286px" height="286px" viewBox="0 0 286 286" version="1.1" xmlns="http://www.w3.org/2000/svg" xmlns:xlink="http://www.w3.org/1999/xlink">
    <!-- Generator: Sketch 64 (93537) - https://sketch.com -->
    <title>img-epm</title>
    <desc>Created with Sketch.</desc>
    <defs>
        <rect id="path-1" x="0" y="0" width="286" height="286" rx="10"></rect>
    </defs>
    <g id="Welcome" stroke="none" stroke-width="1" fill="none" fill-rule="evenodd">
        <g id="HOME---Servicios---Medios-de-Pago---Desktop-HD" transform="translate(-1031.000000, -1929.000000)">
            <g id="img-epm" transform="translate(1031.000000, 1929.000000)">
                <g id="img-servi-copy-2">
                    <mask id="mask-2" fill="white">
                        <use xlink:href="#path-1"></use>
                    </mask>
                    <use id="Mask" fill="#F8F8F8" xlink:href="#path-1"></use>
                </g>
                <g id="Group-Copy-3" transform="translate(62.000000, 111.000000)">
                    <path d="M64.2979837,11.562271 C53.1747956,11.562271 44.326921,20.2663742 43.8206267,31.1676387 L43.8206267,67.5908129 C43.8206267,69.9565935 45.7577929,71.9005935 48.2026431,71.9005935 C50.3941144,71.9005935 52.416049,70.2938323 52.5008174,67.506271 L52.5008174,47.7322839 C55.3658038,49.9280516 59.7482834,51.7025032 64.1302997,51.8720516 C64.2136785,51.8720516 64.3818256,51.8720516 64.466594,51.8720516 L64.466594,44.8573935 C64.466594,44.8573935 64.466594,44.8573935 64.3818256,44.8573935 C57.2195913,44.8573935 51.6577657,39.1117935 51.6577657,32.0130581 C51.6577657,24.9988645 57.2195913,19.2528 64.3818256,19.2528 C64.466594,19.2523355 64.466594,19.2528 64.466594,19.2528 L64.466594,11.562271 C64.466594,11.562271 64.3818256,11.562271 64.2979837,11.562271 Z M64.466594,51.8720516 C75.6745504,51.9570581 84.7758038,42.8302452 84.7758038,31.8435097 C84.7758038,21.1117935 76.6014441,11.6472774 64.466594,11.562271 L64.466594,19.2523355 C71.4611444,19.3364129 77.3592643,24.9988645 77.3592643,32.0130581 C77.3592643,39.0277161 71.5459128,44.7737806 64.466594,44.8573935 L64.466594,51.8720516 L64.466594,51.8720516 Z" id="Fill-1" fill="#009C4C"></path>
                    <path d="M19.6352316,18.5764645 C15.0007629,18.7455484 10.5339782,21.4499613 8.76449591,25.3379613 C8.17435967,26.5206194 8.84880109,27.5341935 10.1976839,27.5341935 L19.6352316,27.533729 L19.6352316,34.3788387 L9.77569482,34.3788387 C7.66945504,34.3788387 8.0900545,35.9015226 8.4272752,36.9991742 C9.69138965,40.7176258 14.4106267,44.5206194 19.6352316,44.6051613 L19.6352316,51.8720516 C19.5518529,51.8720516 19.5518529,51.8720516 19.5518529,51.8720516 C8.25912807,51.7025032 0,42.5766194 0,31.5903484 C0,20.7736258 8.67972752,11.8163613 19.5518529,11.562271 L19.6352316,11.562271 L19.6352316,18.5764645 Z M19.6352316,51.8720516 L19.6352316,44.6051613 C19.6352316,44.6051613 19.6352316,44.6051613 19.7186104,44.6051613 C22.6683651,44.5206194 25.6185831,43.9292903 28.3983379,41.9852903 C32.7803542,38.8581677 36.5731608,44.4356129 33.2028065,47.3081806 C29.7472207,50.1826065 24.3544687,51.8720516 19.6352316,51.8720516 Z M19.8876839,18.5764645 C19.8033787,18.5764645 19.7186104,18.5764645 19.6352316,18.5764645 L19.6352316,11.562271 C27.8086649,11.3091097 33.8767847,16.2947613 36.7422343,21.2808774 C37.836812,23.3089548 38.6807902,25.6747355 38.7650954,27.8718968 L38.7650954,29.0554839 C38.5960218,32.0130581 36.9946866,34.2942968 32.8651226,34.3788387 L19.6352316,34.3788387 L19.6352316,27.533729 L29.4947684,27.533729 C30.7584196,27.533729 31.0113351,26.2660645 30.3368937,25.0834065 C28.4831063,21.3654194 24.6907629,18.5764645 19.8876839,18.5764645 L19.8876839,18.5764645 Z" id="Fill-2" fill="#009C4C"></path>
                    <path d="M155.056676,7.52098065 C155.056676,3.29620645 158.343651,0.000464516129 162.556594,0.000464516129 L162.556594,0 L162.556594,0.676335484 C158.764251,0.676335484 155.730654,3.71845161 155.730654,7.52144516 C155.730654,11.2398968 158.764251,14.3665548 162.556594,14.3665548 L162.556594,15.0419613 C158.343651,15.0419613 155.056676,11.6621419 155.056676,7.52098065 Z M162.556594,0 C166.685232,0 169.972207,3.29620645 169.972207,7.52144516 C169.972207,11.6621419 166.685232,14.9578839 162.556594,15.0419613 L162.556594,14.3665548 C166.264632,14.3665548 169.382997,11.2398968 169.382997,7.52144516 C169.382997,3.71845161 166.264632,0.6768 162.556594,0.6768 L162.556594,0 L162.556594,0 Z" id="Fill-3" fill="#009C4C"></path>
                    <path d="M160.870954,4.64794839 L162.219837,4.64794839 C162.219837,4.64794839 162.303215,4.6484129 162.38752,4.6484129 L162.38752,3.80299355 L159.859292,3.80299355 L159.859292,11.2398968 L160.870954,11.2398968 L160.870954,7.94322581 L162.051689,7.94322581 L162.38752,8.53501935 L162.38752,7.01419355 C162.303215,7.01419355 162.219837,7.01419355 162.219837,7.01419355 L160.870954,7.01419355 L160.870954,4.64794839 Z M162.38752,4.64794839 C163.061962,4.64794839 163.820708,4.90203871 163.820708,5.83153548 C163.820708,6.76056774 163.061962,7.01419355 162.38752,7.01419355 L162.38752,8.53501935 L163.90594,11.2398968 L165.168665,11.2398968 L163.061962,7.77507097 C164.157003,7.69052903 164.831444,6.76103226 164.831444,5.83153548 C164.831444,4.90203871 164.410381,3.80345806 162.472289,3.80345806 L162.38752,3.80299355 L162.38752,4.64794839 L162.38752,4.64794839 Z" id="Fill-4" fill="#009C4C"></path>
                    <path d="M117.471853,39.6190452 L117.471853,30.1540645 C117.471853,24.9138581 113.25891,20.6895484 108.034305,20.6895484 C103.147384,20.6895484 98.5953678,24.6616258 98.5953678,30.1540645 L98.5953678,39.6190452 C98.5953678,42.0698323 96.6572752,44.0124387 94.2133515,44.0124387 C91.769891,44.0124387 89.663188,42.0698323 89.74703,39.6190452 L89.74703,30.8304 C89.74703,17.8160516 99.3545777,11.562271 107.95,11.562271 C113.932425,11.562271 118.735967,14.2666839 121.770954,18.1542194 C125.730054,13.2521806 131.291417,11.562271 135.673896,11.562271 C146.461253,11.562271 154.467003,20.8586323 154.887602,31.6753548 C155.309128,41.3939613 151.433406,57.6190452 130.786975,65.7318194 C127.66861,66.6603871 124.719782,64.2096 124.972234,61.2524903 C125.140381,59.6466581 125.899128,57.7876645 128.596431,57.0277161 C145.617738,52.1252129 147.387221,36.4923871 146.546022,31.0835613 C145.702507,25.1684129 142.163542,20.8586323 135.843433,20.6895484 C130.365913,20.6045419 126.152044,24.9138581 126.152044,30.1540645 L126.152044,39.6190452 C126.152044,42.1534452 124.214414,44.0124387 121.770954,44.0124387 C119.410409,44.0124387 117.388937,42.1534452 117.471853,39.6190452" id="Fill-5" fill="#8BC14A"></path>
                </g>
            </g>
        </g>
    </g>
</svg>