<?xml version="1.0" encoding="UTF-8"?>
<svg width="123px" height="77px" viewBox="0 0 123 77" version="1.1" xmlns="http://www.w3.org/2000/svg" xmlns:xlink="http://www.w3.org/1999/xlink">
    <!-- Generator: Sketch 64 (93537) - https://sketch.com -->
    <title>img-04</title>
    <desc>Created with Sketch.</desc>
    <g id="Welcome" stroke="none" stroke-width="1" fill="none" fill-rule="evenodd">
        <g id="HOME---Servicios---Medios-de-Pago---Desktop-HD" transform="translate(-902.000000, -510.000000)" fill-rule="nonzero">
            <g id="img-04" transform="translate(902.000000, 510.000000)">
                <path d="M123,71.167096 C123,74.38816 120.0234,77 116.35062,77 L6.648765,77 C2.977215,77 0,74.38816 0,71.167096 L0,5.832904 C0,2.61184 2.977215,0 6.648765,0 L116.35062,0 C120.0234,0 123,2.61184 123,5.832904 L123,71.167096 Z" id="Path" fill="#F3CE13"></path>
                <path d="M18.284565,25.066888 C17.09208,25.066888 16.065645,25.309592 15.204645,25.794384 C14.344875,26.279792 13.704045,26.933368 13.28277,27.75388 C12.86088,28.575008 12.649935,29.518104 12.649935,30.585016 C12.649935,31.381504 12.76494,32.108384 12.99372,32.764424 C13.221885,33.420464 13.565055,33.995808 14.022,34.490456 C14.47833,34.984488 15.073035,35.368256 15.804885,35.640528 C16.53735,35.9128 17.378055,36.049552 18.327615,36.049552 C19.54839,36.049552 20.81283,35.782824 22.11909,35.249368 L22.429665,36.570688 C21.365715,37.133712 19.926615,37.41584 18.11298,37.41584 C16.920495,37.41584 15.85101,37.24952 14.90514,36.91688 C13.95927,36.58424 13.17699,36.114232 12.55953,35.505624 C11.94207,34.897632 11.47221,34.1726 11.150565,33.331144 C10.829535,32.489688 10.66902,31.553368 10.66902,30.5228 C10.66902,29.52796 10.84368,28.611352 11.193615,27.772976 C11.542935,26.9346 12.038625,26.21388 12.67761,25.611432 C13.316595,25.008984 14.11425,24.540824 15.071805,24.205104 C16.028745,23.87 17.09208,23.701832 18.263655,23.701832 C20.042235,23.701832 21.54099,24.031392 22.761765,24.689896 L22.033605,25.957008 C20.862645,25.3638 19.612965,25.066888 18.284565,25.066888 Z M38.641065,30.575776 C38.641065,31.58848 38.4744,32.513712 38.1423,33.352704 C37.8102,34.191696 37.33173,34.912416 36.70689,35.514248 C36.08205,36.11608 35.295465,36.583624 34.34529,36.915648 C33.39573,37.248288 32.32809,37.414608 31.14237,37.414608 C29.542755,37.414608 28.173765,37.128168 27.0354,36.555904 C25.89519,35.98364 25.0428,35.187152 24.475155,34.165208 C23.906895,33.14388 23.623995,31.944528 23.623995,30.56592 C23.623995,28.438872 24.28389,26.761504 25.60491,25.5332 C26.92593,24.304896 28.77585,23.69136 31.154055,23.69136 C33.495975,23.69136 35.32929,24.309824 36.654,25.546752 C37.978095,26.784912 38.641065,28.461048 38.641065,30.575776 Z M25.59384,30.575776 C25.59384,32.282712 26.061855,33.623744 26.99727,34.59764 C27.932685,35.571536 29.31459,36.058176 31.14237,36.058176 C32.97015,36.058176 34.34652,35.572768 35.272095,34.602568 C36.19644,33.631752 36.65892,32.290104 36.65892,30.576392 C36.65892,28.826952 36.19275,27.469904 35.261025,26.505248 C34.3293,25.540592 32.959695,25.058264 31.15344,25.058264 C29.34657,25.058264 27.968355,25.540592 27.01818,26.505248 C26.068005,27.469904 25.59384,28.826336 25.59384,30.575776 Z M54.112005,30.557912 C54.112005,32.721304 53.380155,34.371568 51.916455,35.509936 C50.45214,36.648304 48.409725,37.217488 45.78921,37.217488 L41.08692,37.217488 L41.08692,23.92544 L45.478635,23.92544 C46.799655,23.92544 47.98107,24.055416 49.024725,24.3166 C50.066535,24.577168 50.97243,24.97264 51.739335,25.5024 C52.50747,26.032776 53.094795,26.724544 53.50131,27.578936 C53.90844,28.432096 54.112005,29.425704 54.112005,30.557912 Z M52.130475,30.60288 C52.130475,28.74564 51.55914,27.394752 50.41647,26.5496 C49.2738,25.705064 47.610225,25.282488 45.42513,25.282488 L42.9393,25.282488 L42.9393,35.86044 L45.73509,35.86044 C47.820555,35.86044 49.407255,35.418152 50.49642,34.534808 C51.585585,33.650848 52.130475,32.34 52.130475,30.60288 Z M56.928705,37.217488 L56.928705,23.92544 L67.1457,23.92544 L67.1457,25.300352 L58.7817,25.300352 L58.7817,29.649928 L65.5836,29.649928 L65.5836,31.006976 L58.7817,31.006976 L58.7817,35.84196 L67.146315,35.84196 L67.146315,37.217488 L56.928705,37.217488 Z M83.595105,37.217488 L81.319605,37.217488 L72.40395,26.756576 L71.822775,26.136264 C71.885505,27.394136 71.916255,28.51772 71.916255,29.5064 L71.916255,37.217488 L70.035585,37.217488 L70.035585,23.92544 L72.27603,23.92544 L81.21444,34.385736 L81.806685,35.006048 C81.752565,33.0946 81.725505,31.98888 81.725505,31.689504 L81.725505,23.92544 L83.59449,23.92544 L83.59449,37.217488 L83.595105,37.217488 Z M86.53788,35.024528 C88.18731,35.707672 89.95482,36.048936 91.839795,36.048936 C94.16019,36.048936 95.32131,35.162512 95.32131,33.389048 C95.32131,32.813704 95.137425,32.348008 94.769655,31.991344 C94.401885,31.63468 93.731535,31.355016 92.76045,31.15112 L89.61165,30.48584 C87.20577,29.976408 86.002215,28.898408 86.002215,27.250608 C86.002215,25.986576 86.520045,25.047176 87.55509,24.433024 C88.59075,23.819488 90.02247,23.512104 91.85025,23.512104 C92.807805,23.512104 93.703245,23.59896 94.538415,23.772672 C95.3742,23.946384 96.07407,24.180464 96.638025,24.47368 L96.102975,25.740792 C95.62389,25.519032 94.989825,25.321912 94.201395,25.1482 C93.41235,24.974488 92.61408,24.887632 91.8072,24.887632 C89.22174,24.887632 87.929625,25.639768 87.929625,27.143424 C87.929625,27.652856 88.127655,28.061264 88.523715,28.370496 C88.92039,28.679112 89.51448,28.913808 90.307215,29.075816 L93.317025,29.686888 C94.602375,29.944376 95.57715,30.35648 96.24135,30.922584 C96.90555,31.488688 97.23765,32.293184 97.23765,33.335456 C97.23765,34.69004 96.74319,35.70952 95.75427,36.395744 C94.76535,37.081968 93.42096,37.424464 91.7211,37.424464 C90.449895,37.424464 89.32014,37.315432 88.330605,37.096752 C87.3423,36.878072 86.558175,36.619352 85.980075,36.31936 L86.53788,35.024528 Z M110.42448,37.217488 L108.570255,33.0022 L102.25113,33.0022 L100.33356,37.217488 L98.4492,37.217488 L104.53278,23.898336 L106.428825,23.898336 L112.331595,37.217488 L110.42448,37.217488 L110.42448,37.217488 Z M107.971245,31.69936 C106.46388,28.026768 105.631785,25.962552 105.47496,25.507328 L102.87228,31.69936 L107.971245,31.69936 Z" id="Shape" fill="#000000"></path>
                <g id="Group" transform="translate(24.600000, 46.816000)" fill="#00559E">
                    <polygon id="Path" points="57.19008 0.34804 55.826625 0.34804 54.92811 1.92192 55.61937 1.92192"></polygon>
                    <polygon id="Path" points="14.90883 5.256944 17.604375 5.256944 17.604375 4.526984 14.90883 4.526984 14.90883 2.994376 17.74029 2.994376 17.77965 2.25764 13.98018 2.25764 13.98018 7.717864 17.798715 7.717864 17.84484 6.981128 14.90883 6.981128"></polygon>
                    <path d="M2.27181,3.177328 C2.59653,2.994376 2.990745,2.90136 3.444,2.90136 C3.952605,2.90136 4.43784,3.016552 4.886175,3.243856 L4.9692,3.285744 L5.352345,2.618616 L5.26563,2.5718 C4.76871,2.30384 4.153095,2.16832 3.43539,2.16832 C2.96184,2.16832 2.525805,2.237312 2.13774,2.373448 C1.747215,2.5102 1.416345,2.704856 1.15374,2.951872 C0.892365,3.198272 0.686955,3.497648 0.543045,3.84076 C0.400365,4.183256 0.327795,4.56148 0.327795,4.967424 C0.327795,5.386304 0.394215,5.77192 0.52521,6.114416 C0.656205,6.459376 0.85116,6.7606 1.105155,7.010696 C1.359765,7.261408 1.684485,7.45668 2.071935,7.592816 C2.45631,7.727104 2.89419,7.796096 3.375735,7.796096 C4.10697,7.796096 4.6986,7.679672 5.13279,7.449904 L5.198595,7.414792 L5.03193,6.709472 L4.92615,6.752592 C4.42308,6.95772 3.92985,7.06244 3.46122,7.06244 C3.097755,7.06244 2.773035,7.01008 2.49567,6.906592 C2.221995,6.804336 1.99629,6.659576 1.825935,6.476008 C1.654965,6.289976 1.524585,6.071296 1.4391,5.825512 C1.352385,5.577264 1.30872,5.296984 1.30872,4.99268 C1.30872,4.586736 1.389285,4.223296 1.54857,3.914064 C1.706625,3.607296 1.94955,3.359664 2.27181,3.177328 Z" id="Path"></path>
                    <path d="M24.32079,2.900128 C24.008985,2.683912 23.636295,2.521288 23.21256,2.415336 C22.79436,2.310616 22.31343,2.257024 21.7833,2.257024 L19.945065,2.257024 L19.945065,7.717248 L21.9063,7.717248 C22.962255,7.717248 23.79927,7.483168 24.395205,7.019936 C24.99729,6.551776 25.30233,5.865552 25.30233,4.981592 C25.30233,4.520208 25.218075,4.109336 25.05141,3.760064 C24.88413,3.408944 24.63813,3.119424 24.32079,2.900128 Z M20.874945,2.9876 L21.76239,2.9876 C22.603095,2.9876 23.248845,3.150224 23.68242,3.470544 C24.107385,3.784704 24.32325,4.299064 24.32325,5.000072 C24.32325,5.655496 24.117225,6.155072 23.711325,6.484632 C23.29989,6.81912 22.685505,6.98852 21.886005,6.98852 L20.87556,6.98852 L20.87556,2.9876 L20.874945,2.9876 Z" id="Shape"></path>
                    <polygon id="Path" points="17.760585 0.34804 16.397745 0.34804 15.498615 1.92192 16.18926 1.92192"></polygon>
                    <path d="M10.81416,5.416488 C10.736055,5.298216 10.66779,5.198424 10.610595,5.116496 C10.606905,5.110952 10.603215,5.105408 10.599525,5.10048 C10.937775,4.998224 11.208375,4.83252 11.405175,4.606448 C11.627805,4.349576 11.74035,4.040344 11.74035,3.685528 C11.74035,3.508736 11.71944,3.346728 11.677005,3.204432 C11.635185,3.06152 11.574915,2.934624 11.499885,2.828672 C11.42301,2.721488 11.32092,2.628472 11.19792,2.551472 C11.07861,2.477552 10.948845,2.417184 10.812315,2.370984 C10.67517,2.3254 10.514655,2.289672 10.33446,2.264416 C10.15857,2.23916 9.97653,2.221296 9.79326,2.212056 C9.61122,2.2022 9.40212,2.197888 9.172725,2.197888 L7.06758,2.197888 L7.06758,7.71848 L8.01345,7.71848 L8.01345,5.256328 L9.041115,5.2822 C9.298185,5.2822 9.528195,5.277272 9.724995,5.267416 C9.797565,5.381992 9.936555,5.632704 10.139505,6.014008 L11.032485,7.719096 L12.10443,7.719096 L10.999275,5.718328 C10.95561,5.637016 10.89411,5.536608 10.81416,5.416488 Z M10.828305,3.696 C10.828305,3.994144 10.737285,4.203584 10.55094,4.336024 C10.3566,4.474624 9.99498,4.544232 9.477765,4.544232 C9.279735,4.544232 8.999295,4.541768 8.63583,4.537456 C8.35416,4.53376 8.14629,4.531296 8.012835,4.53068 L8.012835,2.940784 L9.59646,2.940784 C10.052175,2.940784 10.378125,3.005464 10.56447,3.133592 C10.742205,3.256176 10.828305,3.439744 10.828305,3.696 Z" id="Shape"></path>
                    <rect id="Rectangle" x="66.398475" y="2.25764" width="1" height="5.460224"></rect>
                    <path d="M54.93426,2.247168 L52.4349,7.717864 L53.396145,7.717864 L54.15567,6.047272 L56.53326,6.047272 L57.268185,7.717864 L58.236195,7.717864 L55.81248,2.247168 L54.93426,2.247168 Z M56.215305,5.338872 L54.484695,5.338872 L55.366605,3.242008 C55.504365,3.596208 55.78911,4.298448 56.215305,5.338872 Z" id="Shape"></path>
                    <path d="M61.455105,3.177328 C61.779825,2.994376 62.17404,2.90136 62.62668,2.90136 C63.135285,2.90136 63.62052,3.016552 64.068855,3.243856 L64.15188,3.285744 L64.535025,2.618616 L64.44831,2.5718 C63.95262,2.30384 63.33639,2.16832 62.61807,2.16832 C62.14452,2.16832 61.708485,2.237312 61.32042,2.373448 C60.92928,2.510816 60.599025,2.705472 60.337035,2.951872 C60.07443,3.198888 59.86902,3.498264 59.72634,3.84076 C59.58366,4.183872 59.510475,4.562712 59.510475,4.967424 C59.510475,5.385688 59.576895,5.77192 59.70789,6.114416 C59.840115,6.459992 60.03507,6.761832 60.287835,7.01008 C60.54183,7.260176 60.86655,7.456064 61.253385,7.5922 C61.638375,7.726488 62.07687,7.79548 62.558415,7.79548 C63.28965,7.79548 63.880665,7.679056 64.314855,7.449288 L64.37943,7.414176 L64.21461,6.708856 L64.108215,6.751976 C63.60453,6.957104 63.1113,7.061824 62.642055,7.061824 C62.279205,7.061824 61.95387,7.009464 61.676505,6.905976 C61.4016,6.80372 61.17651,6.65896 61.007385,6.475392 C60.8358,6.28936 60.70542,6.07068 60.619935,5.824896 C60.532605,5.5748 60.48894,5.29452 60.48894,4.991448 C60.48894,4.58612 60.57012,4.223296 60.73002,3.912832 C60.88869,3.607296 61.131,3.359664 61.455105,3.177328 Z" id="Path"></path>
                    <polygon id="Path" points="70.70409 6.977432 70.70409 2.25764 69.769905 2.25764 69.769905 7.717864 73.437765 7.717864 73.47159 6.977432"></polygon>
                    <rect id="Rectangle" x="27.46959" y="2.25764" width="1" height="5.460224"></rect>
                    <polygon id="Path" points="47.851305 7.717864 48.78057 7.717864 48.78057 5.366592 51.37464 5.366592 51.37464 4.651416 48.78057 4.651416 48.78057 2.994376 51.495795 2.994376 51.537615 2.25764 47.851305 2.25764"></polygon>
                    <polygon id="Path" points="30.131925 2.994376 32.06364 2.994376 32.06364 7.717864 32.99721 7.717864 32.99721 2.994376 34.928925 2.994376 34.928925 2.25764 30.131925 2.25764"></polygon>
                    <path d="M39.37107,2.16524 C38.407365,2.16524 37.644765,2.419648 37.10418,2.921688 C36.56298,3.42496 36.288075,4.119808 36.288075,4.985904 C36.288075,5.545848 36.40554,6.041728 36.63801,6.45876 C36.87171,6.879488 37.22718,7.211512 37.693965,7.446208 C38.156445,7.67844 38.71917,7.796712 39.36615,7.796712 C39.84462,7.796712 40.2825,7.728336 40.66872,7.593432 C41.05617,7.457296 41.38335,7.263256 41.64042,7.015624 C41.89626,6.769224 42.094905,6.469232 42.231435,6.124888 C42.36735,5.783008 42.43623,5.401088 42.43623,4.988984 C42.43623,4.127816 42.161325,3.433584 41.61828,2.926616 C41.076465,2.421496 40.32063,2.16524 39.37107,2.16524 Z M39.37107,2.89828 C40.05618,2.89828 40.58016,3.081232 40.92825,3.442208 C41.278185,3.8038 41.45592,4.324936 41.45592,4.9896 C41.45592,5.641328 41.279415,6.155688 40.93194,6.519744 C40.585695,6.882568 40.059255,7.066752 39.36615,7.066752 C38.67243,7.066752 38.14353,6.881952 37.79421,6.517896 C37.44243,6.151992 37.26408,5.637632 37.26408,4.9896 C37.26408,4.324936 37.44489,3.805032 37.802205,3.442824 C38.15706,3.081232 38.685345,2.89828 39.37107,2.89828 Z" id="Shape"></path>
                </g>
                <rect id="Rectangle" fill="#000000" x="8.20287" y="42.241584" width="106.59426" height="1"></rect>
            </g>
        </g>
    </g>
</svg>