<?xml version="1.0" encoding="UTF-8"?>
<svg width="454px" height="125px" viewBox="0 0 454 125" version="1.1" xmlns="http://www.w3.org/2000/svg" xmlns:xlink="http://www.w3.org/1999/xlink">
    <!-- Generator: Sketch 64 (93537) - https://sketch.com -->
    <title>header-tuya</title>
    <desc>Created with Sketch.</desc>
    <g id="Welcome" stroke="none" stroke-width="1" fill="none" fill-rule="evenodd">
        <g id="HOME---Aliados---Tuya---Desktop-HD" transform="translate(-852.000000, -215.000000)" fill-rule="nonzero">
            <g id="header-tuya" transform="translate(852.000000, 215.000000)">
                <path d="M258.950007,62.5 C258.933433,28.2898699 231.190142,0.568960131 196.98001,0.579999929 C162.769877,0.591046325 135.044489,28.3298615 135.050008,62.5399952 C135.055528,96.7501288 162.789866,124.48 197,124.48 C213.435361,124.48 229.197134,117.949028 240.815875,106.32466 C252.434617,94.7002919 258.957959,78.9353588 258.950007,62.5" id="Path" fill="#FFEB00"></path>
                <path d="M168.98,58.81 C168.569143,57.0865953 167.814009,55.4640761 166.76,54.04 C165.73027,52.6285534 164.384343,51.477837 162.83,50.68 C161.076746,49.8180432 159.143387,49.3861226 157.19,49.42 C155.388272,49.3930446 153.600563,49.7403709 151.94,50.44 C150.402217,51.0924677 149.013859,52.0520684 147.86,53.26 C146.693534,54.469602 145.794121,55.9107077 145.22,57.49 C144.583844,59.1662859 144.268369,60.9471919 144.29,62.74 C144.271102,64.5494955 144.575898,66.3477927 145.19,68.05 C145.750322,69.6222461 146.628581,71.0621816 147.77,72.28 C148.918574,73.4580189 150.297124,74.3872636 151.82,75.01 C153.53657,75.6513241 155.357735,75.9667214 157.19,75.94 C159.768113,76.0191376 162.312924,75.3412166 164.51,73.99 C165.562239,73.3031282 166.469394,72.416359 167.18,71.38 C167.971049,70.1687089 168.596591,68.8570884 169.04,67.48 L169.04,66.97 C169.060211,66.9131548 169.0506,66.8499643 169.014401,66.8016992 C168.978202,66.7534342 168.920231,66.7265139 168.86,66.73 L162.53,66.73 C162.2,66.73 162.14,66.94 162.14,66.94 L162.14,67.15 C162.051899,67.4742221 161.887292,67.772573 161.66,68.02 C161.359372,68.3816332 161.005293,68.6952467 160.61,68.95 C159.723235,69.5448085 158.677744,69.8584557 157.61,69.85 C156.827372,69.8631979 156.047627,69.7518058 155.3,69.52 C154.702789,69.327491 154.158477,68.9988497 153.71,68.56 C153.258495,68.0872729 152.911033,67.5252008 152.69,66.91 C152.385627,66.2678832 152.154182,65.5936748 152,64.9 L169.07,64.9 C169.34,64.9 169.370123,64.57 169.370123,64.57 L169.370123,64.36 C169.370123,63.94 169.370123,63.49 169.370123,63.1 C169.375541,61.6527096 169.194038,60.21077 168.83,58.81 M152.99,57.19 C153.391007,56.6948598 153.905569,56.3037925 154.49,56.05 C155.221968,55.6761217 156.039033,55.5002976 156.86,55.54 C157.51205,55.5350046 158.160554,55.6363333 158.78,55.84 C159.257026,56.0232304 159.687393,56.3101412 160.04,56.68 C160.738107,57.5522879 161.211914,58.5823028 161.42,59.68 L152.15,59.68 C152.15,59.41 152.15,59.14 152.36,58.84 C152.51073,58.2903612 152.776609,57.779055 153.14,57.34" id="Shape" fill="#1E120C"></path>
                <path d="M193.67,75.13 L184.67,61.93 L192.95,50.14 C192.95,50.14 192.95,49.99 192.77,49.99 L184.25,49.99 C184.112653,49.9778771 183.978104,50.0339393 183.89,50.14 L180.14,55.78 L176.36,50.17 C176.265596,50.0519362 176.121091,49.9852415 175.97,49.99 L167.36,49.99 C167.12,49.99 167.36,50.17 167.36,50.17 L167.96,51.01 L175.61,62.08 L166.61,75.16 C166.61,75.16 166.46,75.4 166.61,75.4 L175.01,75.4 C175.205038,75.3943163 175.379739,75.2778491 175.46,75.1 L179.99,68.32 L184.49,75.1 C184.587264,75.2625733 184.752523,75.3727463 184.94,75.4 L193.46,75.4 C193.79,75.4 193.46,75.13 193.46,75.13" id="Path" fill="#1E120C"></path>
                <path d="M204.29,49.99 L194.63,49.99 C194.27,49.99 194.33,50.23 194.33,50.23 L195.74,75.1 C195.74,75.1 195.74,75.4 196.01,75.4 L203,75.4 C203.3,75.4 203.3,75.07 203.3,75.07 L204.68,50.29 C204.68,50.29 204.68,49.99 204.44,49.99" id="Path" fill="#1E120C"></path>
                <path d="M222.68,55.69 C222.68,55.69 222.92,55.69 222.92,55.39 L222.92,50.2299926 C222.930397,50.1637009 222.908482,50.0964254 222.861028,50.0489719 C222.813575,50.0015183 222.746299,49.9796026 222.68,49.99 L218,49.99 L218,43 C218,42.8508831 217.879117,42.7299926 217.73,42.7299926 L210.44,42.7299926 C210.370792,42.7294569 210.304719,42.7588171 210.258738,42.8105453 C210.212758,42.8622734 210.191347,42.9313332 210.2,43 L210.2,49.96 L206.48,49.96 C206.12,49.96 206.18,50.2 206.18,50.2 L206.18,55.39 C206.171347,55.4586668 206.192758,55.5277266 206.238738,55.5794547 C206.284719,55.6311829 206.350792,55.6605431 206.42,55.66 L210.2,55.66 L210.2,69.28 C210.157835,70.3875745 210.384277,71.4889072 210.86,72.49 C211.28589,73.3184424 211.942251,74.0060591 212.75,74.47 C213.576027,74.9340141 214.481629,75.2392729 215.42,75.37 C216.412076,75.5292401 217.415225,75.6094921 218.42,75.61 L220.46,75.61 C221.112688,75.5839534 221.763573,75.5238717 222.41,75.43 L222.68,75.43 C222.68,75.43 222.92,75.43 222.92,75.1 L222.92,69.1 C222.92,68.8 222.68,68.89 222.68,68.89 L222.17,68.89 L221.27,68.89 L220.25,68.89 C219.831802,68.9450176 219.408198,68.9450176 218.99,68.89 C218.791621,68.8602632 218.605007,68.7773239 218.45,68.65 C218.331274,68.4787343 218.249537,68.2846087 218.21,68.08 C218.094256,67.7304217 218.023684,67.3674789 218,67 L218,55.69 L222.68,55.69 Z" id="Path" fill="#1E120C"></path>
                <path d="M248.72,57.25 C247.592022,54.0741285 245.13967,51.5451403 242,50.32 C238.524302,49.0388398 234.705698,49.0388398 231.23,50.32 C229.677594,50.9229689 228.267692,51.8424704 227.09,53.02 C225.928796,54.2393791 225.021251,55.6771758 224.42,57.25 C223.219851,60.7910743 223.219851,64.6289257 224.42,68.17 C224.994418,69.7354831 225.871046,71.1727446 227,72.4 C228.186452,73.5810149 229.606885,74.5007197 231.17,75.1 C232.878756,75.7317054 234.688294,76.0468497 236.51,76.03 C238.381221,76.0550478 240.241426,75.7399311 242,75.1 C245.185322,73.9038854 247.685624,71.370685 248.84,68.17 C250.079422,64.635506 250.079422,60.784494 248.84,57.25 M239.12,69.25 C236.877631,70.6071387 233.96209,69.9281771 232.55,67.72 C232.140335,67.0112262 231.846628,66.2415113 231.68,65.44 C231.496638,64.5517945 231.406151,63.6469267 231.41,62.74 C231.410693,61.8332959 231.501134,60.9288868 231.68,60.04 C231.840925,59.2368304 232.134977,58.466211 232.55,57.76 C233.40966,56.3669343 234.966101,55.5598904 236.6,55.66 C237.475258,55.62781 238.343796,55.8242651 239.12,56.23 C239.766527,56.6031221 240.312297,57.1282969 240.71,57.76 C241.147245,58.4583956 241.452319,59.2312502 241.61,60.04 C241.764322,60.9318413 241.844596,61.8349214 241.85,62.74 C241.848643,63.6452656 241.768339,64.5486884 241.61,65.44 C241.447246,66.2472589 241.142522,67.0192284 240.71,67.72 C240.321382,68.3590407 239.77351,68.8862386 239.12,69.25" id="Shape" fill="#1E120C"></path>
                <path d="M204.14,81.46 C204.139962,79.5401272 202.981825,77.8098835 201.206922,77.0780141 C199.43202,76.3461448 197.390929,76.757208 196.037691,78.1190659 C194.684452,79.4809238 194.286356,81.5245833 195.02948,83.2948032 C195.772604,85.0650232 197.510166,86.2121511 199.43,86.2 C200.684385,86.2000956 201.886961,85.6996787 202.771125,84.8098833 C203.655288,83.9200879 204.14799,82.7143595 204.14,81.46" id="Path" fill="#E52D2B"></path>
                <path d="M158.15,43 L154.43,47.65 C154.43,47.65 154.19,47.92 154.43,47.92 L158.81,47.92 C159.015643,47.9319185 159.218497,47.8678594 159.38,47.74 L165.68,43 C165.68,43 165.89,42.82 165.68,42.82 L158.6,42.82 C158.429986,42.8055353 158.263138,42.8722746 158.15,43" id="Path" fill="#1E120C"></path>
                <path d="M255.8,52.48 C255.805282,53.0286224 255.660015,53.5681883 255.38,54.04 C255.115077,54.5019606 254.731961,54.8850768 254.27,55.15 C253.801246,55.4405361 253.261477,55.5962387 252.71,55.6 C252.158523,55.5962387 251.618754,55.4405361 251.15,55.15 C250.677018,54.8893529 250.283165,54.5058642 250.01,54.04 C249.729985,53.5681883 249.584718,53.0286224 249.59,52.48 C249.594716,51.9326974 249.739295,51.3956902 250.01,50.92 C250.269876,50.4438893 250.66713,50.0570899 251.15,49.81 C251.621812,49.5299854 252.161378,49.3847177 252.71,49.39 C253.258622,49.3847177 253.798188,49.5299854 254.27,49.81 C254.7376,50.0674851 255.122515,50.4524 255.38,50.92 C255.660015,51.3918117 255.805282,51.9313776 255.8,52.48 M255.2,52.48 C255.211777,51.8164337 254.951637,51.1769231 254.48,50.71 C254.016143,50.2302813 253.377303,49.9595862 252.71,49.9599995 C251.318242,49.9599995 250.19,51.0882424 250.19,52.48 C250.19,53.8717576 251.318242,55.0000005 252.71,55.0000005 C253.377303,55.0004138 254.016143,54.7297187 254.48,54.25 C254.951637,53.7830769 255.211777,53.1435663 255.2,52.48 M251.3,50.83 L252.77,50.83 C253.097526,50.8102031 253.422955,50.8941848 253.7,51.07 C253.884893,51.2505666 253.983242,51.5019022 253.97,51.76 C253.98352,51.9711136 253.907255,52.1781193 253.76,52.33 C253.58176,52.5143664 253.351508,52.6399583 253.1,52.69 C253.1,52.69 253.31,52.69 253.34,52.84 L253.64,53.17 L254.15,54.13 L253.19,54.13 C252.86,53.53 252.65,53.14 252.56,53.02 C252.476546,52.915103 252.36037,52.8411725 252.23,52.81 L252.23,52.81 L252.23,54.1 L251.3,54.1 L251.3,50.83 Z M252.11,52.24 L252.47,52.24 C252.637417,52.2819131 252.812583,52.2819131 252.98,52.24 C253.028082,52.1457796 253.028082,52.0342204 252.98,51.94 C253.03359,51.8471797 253.03359,51.7328203 252.98,51.64 C252.83242,51.601895 252.67758,51.601895 252.53,51.64 L252.11,51.64 L252.11,52.24 Z" id="Shape" fill="#1E120C"></path>
                <path d="M0.2,51.01 L3.8,51.01 L3.8,44.53 L8.54,44.53 L8.54,51.01 L12.86,51.01 L12.86,54.55 L8.54,54.55 L8.54,66.1 C8.54,66.58 8.54,67.03 8.54,67.39 C8.57989937,67.7067962 8.68184176,68.0126234 8.84,68.29 C8.99460844,68.556254 9.23934806,68.7584302 9.53,68.86 C9.93552093,68.9962849 10.3625401,69.0572877 10.79,69.04 L11.78,69.04 C12.1236739,69.0193575 12.4649334,68.9691723 12.8,68.89 L12.8,72.55 L11.24,72.73 C10.7304369,72.7598535 10.2195631,72.7598535 9.71,72.73 C8.69775368,72.7578343 7.68692205,72.6365345 6.71,72.37 C6.0286858,72.1829941 5.40814423,71.8210115 4.91,71.32 C4.46957947,70.8282621 4.169138,70.2273792 4.04,69.58 C3.87882098,68.7997415 3.78845378,68.0065183 3.77,67.21 L3.77,54.55 L0.2,54.55 L0.2,51.01 Z" id="Path" fill="#FFFFFF"></path>
                <path d="M34.34,67.81 C34.3124744,68.2338438 34.3951573,68.6575939 34.58,69.04 C34.7814864,69.330497 35.130258,69.4816313 35.48,69.43 L35.99,69.43 L36.65,69.43 L36.65,72.73 L35.99,72.91 L35.18,73.12 L34.34,73.12 L33.65,73.12 C32.8027524,73.1596921 31.9612255,72.9622969 31.22,72.55 C30.5276051,72.0678784 30.0702328,71.3164812 29.96,70.48 C28.9849355,71.4286203 27.7889305,72.1194163 26.48,72.49 C25.1887073,72.8971552 23.8439209,73.1094899 22.49,73.12 C21.5459389,73.127034 20.6059457,72.9956371 19.7,72.73 C18.8478775,72.4810329 18.0458147,72.0850778 17.33,71.56 C16.6504668,71.0398489 16.0967738,70.3733666 15.71,69.61 C15.3012388,68.7374572 15.0960745,67.7834432 15.11,66.82 C15.0607872,65.6858677 15.3089973,64.5585803 15.83,63.55 C16.302156,62.7537316 16.9611471,62.0844438 17.75,61.6 C18.5774421,61.11463 19.4796998,60.7699473 20.42,60.58 C21.41,60.37 22.4,60.22 23.42,60.1 C24.2720169,59.9403865 25.1340914,59.8401453 26,59.8 C26.7008435,59.7539927 27.3947742,59.6333091 28.07,59.44 C28.6023376,59.3134508 29.0899273,59.0437204 29.48,58.66 C29.8642279,58.2362561 30.0497164,57.6688795 29.99,57.1 C30.0206662,56.5672102 29.8728785,56.0393972 29.57,55.6 C29.2863659,55.2186932 28.916203,54.9102241 28.49,54.7 C28.0305972,54.4971776 27.5464057,54.3559551 27.05,54.28 L25.55,54.28 C24.3906686,54.2228901 23.2409343,54.5155498 22.25,55.12 C21.371559,55.6916295 20.8238788,56.6528641 20.78,57.7 L15.89,57.7 C15.9343867,56.4415592 16.3178951,55.2184783 17,54.16 C17.5487682,53.2507222 18.3107222,52.4887682 19.22,51.94 C20.136871,51.3635118 21.1549226,50.9664717 22.22,50.77 C23.3753803,50.5385081 24.5517191,50.4279122 25.73,50.44 C26.739031,50.4404696 27.7449936,50.5511254 28.73,50.77 C29.7074668,50.9610755 30.642442,51.3269353 31.49,51.85 C32.3030971,52.3236547 32.9839875,52.9942286 33.47,53.8 C34.0208117,54.6998127 34.282569,55.7468422 34.22,56.8 L34.34,67.81 Z M29.6,61.81 C28.7913496,62.3071217 27.8762893,62.6052875 26.93,62.68 C25.85,62.68 24.8,62.92 23.75,63.1 C23.2527268,63.188067 22.7616945,63.3083198 22.28,63.46 C21.8270933,63.5964763 21.400925,63.8095604 21.02,64.09 C20.655009,64.3626078 20.3658388,64.7240705 20.18,65.14 C19.9517798,65.6277979 19.8388666,66.1615696 19.85,66.7 C19.8492498,67.1919271 20.018908,67.6689298 20.33,68.05 C20.6290234,68.4131554 21.0092584,68.7009008 21.44,68.89 C21.8860884,69.1065904 22.3609155,69.258131 22.85,69.34 C23.3196419,69.365947 23.7903581,69.365947 24.26,69.34 C24.8362439,69.3370009 25.4101535,69.2665208 25.97,69.13 C26.5738844,68.9801163 27.1507804,68.7372127 27.68,68.41 C28.2210249,68.0883859 28.6906295,67.6596165 29.06,67.15 C29.4374095,66.5827021 29.6263652,65.9108595 29.6,65.23 L29.6,61.81 Z" id="Shape" fill="#FFFFFF"></path>
                <path d="M39.5,51.01 L44,51.01 L44,55.18 L44,55.18 C44.1695673,54.5676284 44.4435922,53.9891314 44.81,53.47 C45.2446412,52.9095597 45.7373865,52.3967023 46.28,51.94 C46.8529028,51.4881865 47.489887,51.1241955 48.17,50.86 C48.8442458,50.5772479 49.5688883,50.4343606 50.3,50.4398393 L51.47,50.4398393 L52.1,50.4398393 L52.1,55.03 L51.11,55 L50,55 C49.2140298,54.9912073 48.4357115,55.1550638 47.72,55.48 C47.0075362,55.8136267 46.3736717,56.2941369 45.86,56.89 C45.3102198,57.5928242 44.8841302,58.3841335 44.6,59.23 C44.2821606,60.2490996 44.1302221,61.3126693 44.15,62.38 L44.15,72.67 L39.5,72.67 L39.5,51.01 Z" id="Path" fill="#FFFFFF"></path>
                <path d="M54.32,51.01 L59,51.01 L59,74.44 C59.1060043,76.2022704 58.6087069,77.9481019 57.59,79.39 C56.3412378,80.6582993 54.5938283,81.3067092 52.82,81.16 L51.65,81.16 L50.69,81.01 L50.69,77.23 L51.56,77.23 L52.31,77.23 C53.17,77.23 53.71,76.96 53.93,76.42 C54.1828308,75.6565531 54.2946516,74.8534761 54.26,74.05 L54.32,51.01 Z M54.32,42.79 L59,42.79 L59,47.29 L54.32,47.29 L54.32,42.79 Z" id="Shape" fill="#FFFFFF"></path>
                <path d="M68,63.04 C68.0022557,63.8610155 68.1132201,64.6781174 68.33,65.47 C68.5545735,66.2134909 68.9213596,66.9063092 69.41,67.51 C69.9002241,68.0978067 70.515076,68.5691931 71.21,68.89 C73.1517549,69.7405386 75.3838741,69.6066115 77.21,68.53 C78.1074353,67.8503548 78.7685831,66.905858 79.1,65.83 L83.63,65.83 C83.3868435,66.9471492 82.9502729,68.0131937 82.34,68.98 C81.7350627,69.8692773 80.9845478,70.6502185 80.12,71.29 C79.2081102,71.9283068 78.1933571,72.4052408 77.12,72.7 C76.0303239,73.0272086 74.8977074,73.189011 73.76,73.18 C72.2177863,73.2174779 70.6848367,72.9313273 69.26,72.34 C67.9827542,71.8302708 66.8423963,71.0289382 65.93,70 C65.0039562,68.9685442 64.3084935,67.7514846 63.89,66.43 C63.4232391,64.9450685 63.1904528,63.3965334 63.2,61.84 C63.1927632,60.3499609 63.4361572,58.8693137 63.92,57.46 C64.3968577,56.1339532 65.1081653,54.9044072 66.02,53.83 C66.9256321,52.7823228 68.0391962,51.9343795 69.29,51.34 C70.6559667,50.7231255 72.1413962,50.4157952 73.64,50.44 C75.2235978,50.4060157 76.7907377,50.7668702 78.2,51.49 C79.5162144,52.1677742 80.6642218,53.1312804 81.56,54.31 C82.4743363,55.5048538 83.1376272,56.8722535 83.51,58.33 C83.9108571,59.8662764 84.0127044,61.4652801 83.81,63.04 L68,63.04 Z M79.1,60.04 C79.047135,59.290573 78.8854391,58.5528354 78.62,57.85 C78.3685695,57.1911981 78.0029756,56.5818749 77.54,56.05 C77.0683806,55.5235287 76.4974659,55.0953427 75.86,54.79 C75.1781251,54.4593687 74.4276555,54.2948822 73.67,54.31 C72.8869212,54.2992123 72.110259,54.4525009 71.39,54.76 C70.7275594,55.0248459 70.1329633,55.4349122 69.65,55.96 C69.1388116,56.4718996 68.7402869,57.0850145 68.48,57.76 C68.1725542,58.4813339 68.0094799,59.2559365 68,60.04 L79.1,60.04 Z" id="Shape" fill="#FFFFFF"></path>
                <path d="M85.28,51.01 L89,51.01 L89,44.53 L93.74,44.53 L93.74,51.01 L98,51.01 L98,54.55 L93.62,54.55 L93.62,66.1 C93.62,66.58 93.62,67.03 93.62,67.39 C93.6598994,67.7067962 93.7618418,68.0126234 93.92,68.29 C94.0746084,68.556254 94.3193481,68.7584302 94.61,68.86 C95.0155209,68.9962849 95.4425401,69.0572877 95.87,69.04 L96.86,69.04 C97.2036739,69.0193575 97.5449334,68.9691723 97.88,68.89 L97.88,72.55 L96.32,72.73 C95.810462,72.7607 95.299538,72.7607 94.79,72.73 C93.7777537,72.7578343 92.7669221,72.6365345 91.79,72.37 C91.1086858,72.1829941 90.4881442,71.8210115 89.99,71.32 C89.5495795,70.8282621 89.249138,70.2273792 89.12,69.58 C89.014374,68.8248779 88.9742246,68.062038 89,67.3 L89,54.55 L85.4,54.55 L85.28,51.01 Z" id="Path" fill="#FFFFFF"></path>
                <path d="M119.42,67.81 C119.392474,68.2338438 119.475157,68.6575939 119.66,69.04 C119.861486,69.330497 120.210258,69.4816313 120.56,69.43 L121.07,69.43 L121.73,69.43 L121.73,72.73 L121.07,72.91 L120.26,73.12 L119.42,73.12 L118.73,73.12 C117.882752,73.1596921 117.041226,72.9622969 116.3,72.55 C115.607605,72.0678784 115.150233,71.3164812 115.04,70.48 C114.064935,71.4286203 112.86893,72.1194163 111.56,72.49 C110.268707,72.8971552 108.923921,73.1094899 107.57,73.12 C106.625939,73.127034 105.685946,72.9956371 104.78,72.73 C103.927878,72.4810329 103.125815,72.0850778 102.41,71.56 C101.730467,71.0398489 101.176774,70.3733666 100.79,69.61 C100.381239,68.7374572 100.176075,67.7834432 100.19,66.82 C100.178872,65.6980773 100.457895,64.5923218 101,63.61 C101.472156,62.8137316 102.131147,62.1444438 102.92,61.66 C103.747442,61.17463 104.6497,60.8299473 105.59,60.64 C106.58,60.43 107.57,60.28 108.59,60.16 C109.401508,59.987795 110.223177,59.8675506 111.05,59.8 C111.750843,59.7539927 112.444774,59.6333091 113.12,59.44 C113.652338,59.3134508 114.139927,59.0437204 114.53,58.66 C114.925086,58.2413198 115.121696,57.6733356 115.07,57.1 C115.091938,56.5637492 114.933499,56.0356197 114.62,55.6 C114.336366,55.2186932 113.966203,54.9102241 113.54,54.7 C113.080597,54.4971776 112.596406,54.3559551 112.1,54.28 L110.6,54.28 C109.440669,54.2228901 108.290934,54.5155498 107.3,55.12 C106.421559,55.6916295 105.873879,56.6528641 105.83,57.7 L101,57.7 C101.033166,56.4807028 101.384813,55.2913082 102.02,54.25 C102.568768,53.3407222 103.330722,52.5787682 104.24,52.03 C105.156871,51.4535118 106.174923,51.0564717 107.24,50.86 C108.39538,50.6285081 109.571719,50.5179122 110.75,50.53 C111.80916,50.5192733 112.866059,50.6299961 113.9,50.86 C114.877467,51.0510755 115.812442,51.4169353 116.66,51.94 C117.473097,52.4136547 118.153988,53.0842286 118.64,53.89 C119.190812,54.7898127 119.452569,55.8368422 119.39,56.89 L119.42,67.81 Z M114.68,61.81 C113.87135,62.3071217 112.956289,62.6052875 112.01,62.68 C110.93,62.68 109.88,62.92 108.83,63.1 C108.332727,63.188067 107.841694,63.3083198 107.36,63.46 C106.916243,63.5962832 106.499905,63.8095297 106.13,64.09 C105.747947,64.3522284 105.446648,64.7158651 105.26,65.14 C105.043109,65.6305577 104.940526,66.1639876 104.96,66.7 C104.948315,67.1886574 105.107458,67.6660848 105.41,68.05 C105.709023,68.4131554 106.089258,68.7009008 106.52,68.89 C106.966088,69.1065904 107.440915,69.258131 107.93,69.34 C108.399642,69.365947 108.870358,69.365947 109.34,69.34 C109.916244,69.3370009 110.490154,69.2665208 111.05,69.13 C111.653884,68.9801163 112.23078,68.7372127 112.76,68.41 C113.306997,68.0965057 113.778174,67.6663008 114.14,67.15 C114.517409,66.5827021 114.706365,65.9108595 114.68,65.23 L114.68,61.81 Z" id="Shape" fill="#FFFFFF"></path>
                <path d="M302,61.18 C300.89,62.89 299.54,64.78 297.95,66.82 C296.36,68.86 294.71,70.78 293,72.61 C291.433265,74.2861266 289.704883,75.8034852 287.84,77.14 C286.498017,78.2241146 284.851894,78.863691 283.13,78.97 C282.292147,78.9091343 281.489841,78.606967 280.82,78.1 C279.876094,77.4633928 279.027587,76.6956964 278.3,75.82 C277.501129,74.9062181 276.81612,73.8988521 276.26,72.82 C275.729314,71.7672942 275.442227,70.6086957 275.42,69.43 C275.433037,67.5839725 275.736759,65.7515186 276.32,64 C276.904246,62.1256815 277.657333,60.3082326 278.57,58.57 C279.45039,56.8312259 280.452901,55.157032 281.57,53.56 C282.68,52.03 283.73,50.56 284.78,49.45 C285.629815,48.4629572 286.541662,47.5310691 287.51,46.66 C287.944903,46.1555021 288.51879,45.7903011 289.16,45.61 C290.049344,45.6433424 290.90743,45.946812 291.62,46.48 C292.505143,47.0888553 293.293924,47.8270729 293.96,48.67 C294.654068,49.4928336 295.257544,50.3879902 295.76,51.34 C296.171185,52.0349462 296.4175,52.814943 296.48,53.62 C296.392104,55.1721723 295.917736,56.6777773 295.1,58 C294.193716,59.6568563 293.117956,61.2152009 291.89,62.65 C290.719854,64.0193681 289.413092,65.2658179 287.99,66.37 C287.058645,67.2204706 285.88297,67.7558227 284.63,67.9 C284.259877,67.8929431 283.897983,67.789545 283.58,67.6 C283.247462,67.3796392 282.953522,67.1059707 282.71,66.79 C282.222778,68.0337608 281.812012,69.3061319 281.48,70.6 C281.208045,71.660426 281.047179,72.7462738 281,73.84 C280.969193,74.3933167 281.061404,74.9465838 281.27,75.46 C281.374396,75.7595982 281.644093,75.9706654 281.96,76 C283.661468,75.9194358 285.305139,75.3576747 286.7,74.38 C288.526675,73.2003978 290.216993,71.821984 291.74,70.27 C293.430472,68.603441 295.023132,66.8404968 296.51,64.99 C298.01,63.1 299.33,61.39 300.44,59.8 L302,61.18 Z M293.45,51.67 C292.619156,51.7866907 291.855161,52.1899102 291.29,52.81 C290.321681,53.7200247 289.447286,54.7250765 288.68,55.81 C287.78,57.07 286.88,58.48 285.95,60.1 C285.038601,61.6776142 284.227009,63.3108178 283.52,64.99 C285.083087,64.408024 286.497212,63.4857684 287.66,62.29 C289.097128,60.9145612 290.402787,59.4080319 291.56,57.79 C292.550039,56.4857721 293.357487,55.0525523 293.96,53.53 C294.41,52.27 294.23,51.64 293.45,51.64" id="Shape" fill="#FFFFFF"></path>
                <path d="M316.19,42.49 C316.19,42.82 316.19,43 315.98,43.06 C315.872406,43.0925387 315.757594,43.0925387 315.65,43.06 C315.497795,43.0657433 315.361432,42.9665703 315.32,42.82 C315.276049,42.6449706 315.109298,42.5295276 314.93,42.55 C314.105753,42.9097088 313.361304,43.4298034 312.74,44.08 C311.378025,45.2879466 310.114057,46.6020715 308.96,48.01 C307.623559,49.6214038 306.447961,51.3596819 305.45,53.2 C304.482676,54.8395304 303.946015,56.6972028 303.89,58.6 C303.865936,60.1599031 304.109463,61.7123873 304.61,63.19 C305.074639,64.4862995 305.605334,65.7579636 306.2,67 C306.77,68.17 307.31,69.34 307.79,70.51 C308.286665,71.7492709 308.53143,73.0750808 308.51,74.41 C308.518774,75.8323046 308.14581,77.2309178 307.43,78.46 C306.014257,80.92862 303.84989,82.882854 301.25,84.04 C300.194253,84.5665052 299.038815,84.8630335 297.86,84.9101603 C296.913146,84.9163714 295.974634,84.7327494 295.1,84.37 C294.352984,84.030537 293.664453,83.5748914 293.06,83.02 C292.543025,82.5168078 292.116769,81.9281693 291.8,81.28 C291.521577,80.7410223 291.367791,80.1463825 291.35,79.54 C291.35,78.7 291.59,78.28 292.07,78.28 C292.34,78.28 292.49,78.28 292.55,78.52 C292.61,78.76 293.09,78.76 293.99,78.76 C295.007377,78.7394044 296.016987,78.5778668 296.99,78.28 C298.135518,77.9374664 299.241654,77.4749006 300.29,76.9 C301.290946,76.316862 302.175747,75.5541022 302.9,74.65 C303.604601,73.8098479 303.987414,72.7464773 303.98,71.65 C303.906143,70.6848616 303.662399,69.7403536 303.26,68.86 C302.78,67.69 302.27,66.34 301.67,64.87 C301.055742,63.2482611 300.525045,61.596092 300.08,59.92 C299.593449,58.0593366 299.351411,56.1432074 299.36,54.22 C299.411741,52.4242058 299.798367,50.6538639 300.5,49 C301.214291,47.1020635 302.140129,45.2906402 303.26,43.6 C304.260291,42.0492224 305.460629,40.6370599 306.83,39.4 C307.76899,38.414583 309.042192,37.8154294 310.4,37.72 C311.044496,37.7505321 311.672175,37.9357487 312.23,38.26 C312.912321,38.6078327 313.547453,39.0413357 314.12,39.55 C314.677401,39.9906637 315.171976,40.505425 315.59,41.08 C315.915784,41.4394748 316.124977,41.8892411 316.19,42.37" id="Path" fill="#FFFFFF"></path>
                <path d="M451.76,28.93 C451.37,30.73 451.01,32.41 450.62,34.03 C450.23,35.65 449.84,37.03 449.39,38.41 C449.032274,39.5403899 448.570289,40.6350953 448.01,41.68 C447.642628,42.4322173 447.028492,43.0357644 446.27,43.39 C445.97,43.39 445.73,43.39 445.55,42.91 C445.313095,42.0820326 445.221738,41.2192203 445.28,40.36 C445.28,39.16 445.28,37.9 445.28,36.58 C445.28,35.26 445.28,34.06 445.43,32.92 C445.549721,32.2049768 445.549721,31.4750232 445.43,30.76 C445.2717,30.3778976 445.012445,30.0460513 444.68,29.8 C443.316465,27.326099 441.220529,25.3349599 438.68,24.1 C436.532949,23.0992101 434.066921,23.0340288 431.87,23.92 C430.796061,24.4819331 429.932998,25.3765708 429.41,26.47 C428.55693,28.0299201 427.85378,29.667256 427.31,31.36 C426.67,33.26 426.1,35.33 425.6,37.57 C425.12,39.82 424.73,41.98 424.46,44.05 C424.193756,45.9382181 424.06342,47.843115 424.07,49.75 C424.013376,51.0401655 424.186051,52.3301475 424.58,53.56 C424.89535,54.2584378 425.298612,54.9137395 425.78,55.51 C426.273924,56.1250236 426.849195,56.6700176 427.49,57.13 C428.052851,57.5748193 428.693845,57.9105782 429.38,58.12 C429.935627,58.3010287 430.534373,58.3010287 431.09,58.12 C432.209749,57.4241265 433.056898,56.365191 433.49,55.12 C434.365398,53.3239478 435.087952,51.4573491 435.65,49.54 C436.31,47.38 436.91,45.13 437.42,42.79 C437.93,40.45 438.35,38.38 438.68,36.55 C438.781521,37.9176871 438.951736,39.2794057 439.19,40.63 C439.342089,41.7458675 439.613648,42.842161 440,43.9 C440.222698,44.46122 440.609559,44.9421823 441.11,45.28 C441.647202,45.6385649 442.220294,45.9401927 442.82,46.18 C443.387781,46.4067621 443.982859,46.5580531 444.59,46.63 C445.002504,46.7422176 445.437496,46.7422176 445.85,46.63 C447.055441,46.0986253 448.092791,45.2479986 448.85,44.17 C449.738921,42.9266642 450.446036,41.5629428 450.95,40.12 C451.555308,38.4629571 452.056288,36.7696455 452.45,35.05 C452.9,33.22 453.32,31.36 453.71,29.44 L451.76,28.93 Z M438.29,32.29 C438.02,33.37 437.69,34.66 437.3,36.13 C436.91,37.6 436.49,39.13 436.01,40.87 C435.53,42.61 435.11,44.08 434.69,45.49 C434.27,46.9 433.88,48.07 433.52,49.03 C433.16,49.99 432.86,50.5 432.65,50.59 C432.44,50.68 431.93,50.59 431.72,49.99 C431.360475,48.9603315 431.217489,47.8675049 431.3,46.78 C431.324945,45.2739073 431.445185,43.7709031 431.66,42.28 C431.86,40.64 432.16,38.96 432.56,37.24 C432.899969,35.6595465 433.320518,34.0975077 433.82,32.56 C434.061688,31.7040907 434.352163,30.862715 434.69,30.04 C435.11,29.08 435.62,28.21 436.1,28.06 C436.99292,27.8661493 437.907319,28.2806769 438.35,29.08 C438.35,29.32 438.62,29.71 438.8,30.07 C438.98,30.43 438.8,30.07 438.8,30.25 C438.8,30.43 438.59,31.21 438.32,32.29" id="Shape" fill="#FFFFFF"></path>
                <path d="M378.44,69.7 C377.358503,65.4906051 377.483257,61.0618388 378.8,56.92 C379.762598,52.8033178 381.10847,48.7857897 382.82,44.92 C383.392135,43.6504023 384.043416,42.417978 384.77,41.23 L384.77,41.23 C384.404779,40.6547316 383.854599,40.2209352 383.21,40 C382.306432,39.5916484 381.373886,39.2507175 380.42,38.98 C379.438601,38.7025991 378.43475,38.5118673 377.42,38.41 C376.795437,38.2929458 376.154563,38.2929458 375.53,38.41 C374.852981,39.187091 374.305935,40.0684428 373.91,41.02 C373.07,42.67 372.11,44.77 370.91,47.29 C369.71,49.81 368.54,52.66 367.19,55.78 C365.84,58.9 364.49,61.93 363.17,64.93 C361.85,67.93 360.65,70.72 359.6,73.3 L356.6,80.23 C356.72575,77.5799886 357.046619,74.9428471 357.56,72.34 C357.98,69.67 358.52,66.85 359.21,63.94 C359.9,61.03 360.68,57.94 361.55,55.12 C362.42,52.3 363.26,49.45 364.07,46.93 C364.46,45.73 364.85,44.59 365.21,43.54 C363.238033,42.4160846 360.936541,42.0130584 358.7,42.4 C356.670587,42.5880757 354.662382,42.9595937 352.7,43.51 C352.34,44.62 351.98,45.79 351.59,47.05 C350.72,50.05 349.88,53.38 349.13,56.89 C348.38,60.4 347.72,63.82 347.21,67.12 C346.741701,69.9900453 346.441191,72.8849607 346.31,75.79 C346.117755,77.540891 346.260288,79.3123699 346.73,81.01 C347.126391,81.9615812 347.794149,82.7754119 348.65,83.35 C349.567799,84.0300325 350.577993,84.5755371 351.65,84.97 C352.723356,85.3388485 353.827847,85.6099509 354.95,85.78 C355.791093,85.9446423 356.660847,85.882517 357.47,85.6 C357.607017,85.5624068 357.718232,85.4623134 357.77,85.33 C359.047868,83.8652729 360.062822,82.1905996 360.77,80.38 C362.06,77.74 363.41,74.74 364.85,71.38 C366.29,68.02 367.85,64.51 369.29,60.82 C370.73,57.13 372.11,53.89 373.22,51.07 C373.01,52.9 372.86,54.73 372.77,56.59 C372.68,58.45 372.77,60.19 372.62,61.78 C372.47,63.37 372.62,64.78 372.62,66.04 C372.62,67.3 373.22,72.4 376.55,72.37 C377.328502,72.3622994 378.080631,72.0868721 378.68,71.59 C378.40909,70.992618 378.168779,70.381827 377.96,69.76" id="Path" fill="#FFFFFF"></path>
                <path d="M419.48,34.24 C418.969587,32.8209665 418.125944,31.5452147 417.02,30.52 C416.228393,29.8197845 415.282794,29.31615 414.26,29.05 C413.449466,28.8737921 412.610534,28.8737921 411.8,29.05 C411.276393,29.1191501 410.762817,29.2500616 410.27,29.44 C409.4,29.77 409.19,30.1 409.61,30.4 C410.0355,30.7083114 410.359316,31.1365841 410.54,31.63 C410.888026,32.9778975 410.888026,34.3921025 410.54,35.74 C410.086096,38.0304994 409.505199,40.2939922 408.8,42.52 C408.02,45.07 407.03,47.74 405.8,50.53 C404.717068,53.2214387 403.495431,55.8549679 402.14,58.42 C400.996827,60.6196572 399.714212,62.7439887 398.3,64.78 C397.421413,66.201248 396.178392,67.3614006 394.7,68.14 C394.365971,66.3353263 394.365971,64.4846737 394.7,62.68 C395.06,60.16 395.57,57.31 396.29,54.16 C397.01,51.01 397.79,47.68 398.72,44.29 C399.65,40.9 400.25,38.29 400.91,35.71 C400.513452,35.390265 400.067662,35.1369753 399.59,34.96 C398.265064,34.5099987 396.839204,34.4475523 395.48,34.78 C394.01,35.05 392.48,35.5 391.07,35.8 C390.47,38.08 385.88,56.8 385.31,59.8 C384.813099,62.4405487 384.92597,65.1597163 385.64,67.75 C385.987877,68.5597459 386.601716,69.2265019 387.38,69.64 C388.258234,70.1586032 389.194744,70.5714731 390.17,70.87 C391.15186,71.139261 392.155876,71.3199839 393.17,71.41 C393.89458,71.5054595 394.631214,71.4440733 395.33,71.23 L395.33,71.23 L395.72,71.02 L396.02,70.84 C398.03126,69.6497956 399.736593,68.0061015 401,66.04 C402.686704,63.6157052 404.171685,61.0571244 405.44,58.39 C406.832906,55.4594037 408.064739,52.4549307 409.13,49.39 C410.21,46.39 411.14,43.57 411.86,41.05 C411.705216,45.5682467 411.051242,50.0555196 409.91,54.43 C408.745309,59.1700535 407.138261,63.7903185 405.11,68.23 C403.983458,70.7046822 402.690495,73.100171 401.24,75.4 L401.24,75.4 C400.13,77.53 384.59,106.84 365.24,111.16 C355.04,113.44 348.44,110.89 343.67,107.02 C339.38,103.54 336.14,97.45 334.97,86.83 C334.628119,80.0740235 335.050801,73.3010503 336.23,66.64 C337.31,59.8 337.97,54.04 338.99,47.59 C340.01,41.14 341.21,34.87 342.68,28.9 C345.47,28.15 347.66,27.64 349.34,27.34 L353.45,26.71 L356.24,26.38 C357.158338,26.2582608 358.062617,26.0472624 358.94,25.75 C360.23,25.39 360.77,24.73 360.59,23.8 C360.362322,22.7446429 359.805601,21.7887644 359,21.07 C358.060562,20.1491208 356.976096,19.3889808 355.79,18.82 C354.831807,18.2260896 353.675083,18.0423111 352.58,18.31 C351.71,18.58 350.6,18.97 349.28,19.48 C347.96,19.99 346.46,20.56 344.81,21.25 C345.56,18.55 346.37,16.06 347.21,13.75 L347.84,12.1 C343.79,12.79 339.8,14.23 335.84,14.95 C335.51,15.91 335.18,16.96 334.85,17.95 C334.13,20.38 333.44,23.05 332.78,25.93 L322.43,30.4 C322.246565,30.7701068 322.115316,31.1638535 322.04,31.57 C321.917549,32.3434426 321.978736,33.1348613 322.22,33.88 C322.405727,34.3079204 322.734511,34.6579169 323.15,34.87 C325.61,34.06 328.37,33.16 331.49,32.23 C330.41,37.42 329.54,42.91 328.82,48.7 C328.1,54.49 327.59,60.1 327.35,65.53 C327.030901,70.5749592 327.030901,75.6350408 327.35,80.68 C327.35,81.79 327.56,82.84 327.71,83.86 C327.818387,84.9527788 328.008926,86.0358421 328.28,87.1 C330.35,95.8 338.48,118.39 366.77,111.1 C395.06,103.81 409.91,78.1 409.91,78.1 C410.54,77.08 411.17,76.03 411.77,74.92 C413.692205,71.4138448 415.337222,67.7627099 416.69,64 C417.957686,60.2245412 418.960126,56.3651502 419.69,52.45 C420.354101,48.9996954 420.686278,45.4936307 420.68,41.98 C420.743357,39.3075248 420.326758,36.6453581 419.45,34.12" id="Path" fill="#FFFFFF"></path>
            </g>
        </g>
    </g>
</svg>