<?xml version="1.0" encoding="UTF-8"?>
<svg width="120px" height="105px" viewBox="0 0 120 105" version="1.1" xmlns="http://www.w3.org/2000/svg" xmlns:xlink="http://www.w3.org/1999/xlink">
    <!-- Generator: Sketch 64 (93537) - https://sketch.com -->
    <title>head-ventas-empresariales</title>
    <desc>Created with Sketch.</desc>
    <g id="Welcome" stroke="none" stroke-width="1" fill="none" fill-rule="evenodd">
        <g id="HOME---Servicios---Ventas-Empresariales---Desktop-HD" transform="translate(-1177.000000, -223.000000)" fill="#E2241C" fill-rule="nonzero">
            <g id="head-ventas-empresariales" transform="translate(1177.000000, 223.000000)">
                <path d="M108.054036,20.1881062 L82.1969124,20.1881062 L82.1969124,9.80959815 C82.1969124,4.8678807 78.1607854,0.847753693 73.1996928,0.847753693 L46.8000691,0.847753693 C41.8389764,0.847753693 37.8028494,4.8678807 37.8028494,9.80959815 L37.8028494,20.1881062 L11.9459643,20.1881062 C5.35879926,20.1881062 0,25.5262143 0,32.0874165 L0,92.9486807 C0,99.5098828 5.35879926,104.847754 11.9459643,104.847754 L108.054036,104.847754 C114.640963,104.847754 120,99.5098828 120,92.9486807 L120,32.0874165 C120,25.5262143 114.640963,20.1881062 108.054036,20.1881062 Z M45.4235754,9.80959815 C45.4235754,9.0535856 46.0410924,8.43871753 46.8000691,8.43871753 L73.1996928,8.43871753 C73.9586695,8.43871753 74.5761864,9.05382281 74.5761864,9.80959815 L74.5761864,20.1881062 L45.4235754,20.1881062 L45.4235754,9.80959815 Z M7.62072599,32.0874165 C7.62072599,29.711682 9.5609152,27.7790701 11.9459643,27.7790701 L108.054036,27.7790701 C110.438847,27.7790701 112.379274,29.711682 112.379274,32.0874165 L112.379274,37.7049669 C112.379274,42.9740447 108.832302,47.6825772 103.753565,49.1554614 L63.90074,60.7134155 C61.3489876,61.4537717 58.6512506,61.4537717 56.0990218,60.7134155 L16.2464352,49.1552242 C11.1676976,47.68234 7.62072599,42.9740447 7.62072599,37.7049669 L7.62072599,32.0874165 Z M108.054036,97.2570271 L11.9459643,97.2570271 C9.56115335,97.2570271 7.62072599,95.3244151 7.62072599,92.9489179 L7.62072599,53.1594576 C9.5409108,54.6377979 11.7297262,55.7515346 14.115966,56.4437356 C58.1397093,69.2112623 55.8770682,68.859943 59.9998809,68.859943 C64.1772295,68.859943 61.8086126,69.226207 105.883796,56.4437356 C108.270274,55.7515346 110.459089,54.6377979 112.379036,53.1594576 L112.379036,92.9486807 C112.379036,95.3241779 110.438847,97.2570271 108.054036,97.2570271 L108.054036,97.2570271 Z" id="Shape"></path>
            </g>
        </g>
    </g>
</svg>