<?xml version="1.0" encoding="UTF-8"?>
<svg width="50px" height="47px" viewBox="0 0 50 47" version="1.1" xmlns="http://www.w3.org/2000/svg" xmlns:xlink="http://www.w3.org/1999/xlink">
    <!-- Generator: Sketch 64 (93537) - https://sketch.com -->
    <title>img-03</title>
    <desc>Created with Sketch.</desc>
    <g id="Welcome" stroke="none" stroke-width="1" fill="none" fill-rule="evenodd">
        <g id="HOME---Servicios---Ventas-Empresariales---Desktop-HD" transform="translate(-698.000000, -1285.000000)" fill="#E2241C" fill-rule="nonzero">
            <g id="img-03" transform="translate(698.000000, 1285.000000)">
                <path d="M46.875,15 L34.375,15 C33.5125,15 32.8125,15.7168 32.8125,16.6 C32.8125,17.4832 33.5125,18.2 34.375,18.2 L46.875,18.2 L46.875,43.8 L3.125,43.8 L3.125,18.2 L9.375,18.2 C10.2375,18.2 10.9375,17.4832 10.9375,16.6 C10.9375,15.7168 10.2375,15 9.375,15 L3.125,15 C1.4,15 0,16.4368 0,18.2 L0,43.8 C0,45.5632 1.4,47 3.125,47 L46.875,47 C48.6,47 50,45.5632 50,43.8 L50,18.2 C50,16.4368 48.6,15 46.875,15 Z" id="Path"></path>
                <path d="M39.375,25 L29.625,25 C28.728,25 28,25.669 28,26.5 C28,27.331 28.728,28 29.625,28 L39.375,28 C40.272,28 41,27.328 41,26.5 C41,25.672 40.272,25 39.375,25 Z" id="Path"></path>
                <path d="M39.4444444,34 L14.5555556,34 C13.6968889,34 13,34.669 13,35.5 C13,36.331 13.6968889,37 14.5555556,37 L39.4444444,37 C40.3031111,37 41,36.328 41,35.5 C41,34.672 40.3031111,34 39.4444444,34 Z" id="Path"></path>
                <path d="M38.552891,4.93528745 L34.2300735,0.462609062 C33.6339282,-0.154203021 32.66481,-0.154203021 32.0686647,0.462609062 L12.6129284,20.5896618 C12.4447849,20.7636344 12.3163844,20.9755648 12.2399555,21.209637 L10.0785467,27.9186546 C9.89511738,28.4880196 10.0388037,29.1143211 10.4484625,29.5381817 C10.7419494,29.8386799 11.1302081,30 11.5306955,30 C11.6927247,30 11.8547539,29.9746949 12.013726,29.9177584 L18.4979524,27.6814192 C18.7241818,27.6055039 18.9290112,27.4758152 19.0971548,27.3018425 L34.2270163,11.6474682 C34.2270163,11.6474682 34.2270163,11.6474682 34.2300735,11.644305 L34.2331306,11.6411419 L38.552891,7.17162664 C39.1490363,6.55481456 39.1490363,5.55209953 38.552891,4.93528745 Z M17.1894899,24.7997997 L13.9458481,25.9195508 L15.0280811,22.5634605 L28.8250229,8.28821467 L30.9864317,10.5245539 L17.1894899,24.7997997 Z M33.1478405,8.28821467 L30.9864317,6.05187548 L33.1478405,3.81553628 L35.3092493,6.05187548 L33.1478405,8.28821467 Z" id="Shape"></path>
            </g>
        </g>
    </g>
</svg>