<?xml version="1.0" encoding="UTF-8"?>
<svg width="45px" height="62px" viewBox="0 0 45 62" version="1.1" xmlns="http://www.w3.org/2000/svg" xmlns:xlink="http://www.w3.org/1999/xlink">
    <!-- Generator: Sketch 64 (93537) - https://sketch.com -->
    <title>img-05</title>
    <desc>Created with Sketch.</desc>
    <g id="Welcome" stroke="none" stroke-width="1" fill="none" fill-rule="evenodd">
        <g id="HOME---Servicios---Ventas-Empresariales---Desktop-HD" transform="translate(-1177.000000, -1280.000000)" fill="#E2241C" fill-rule="nonzero">
            <g id="img-05" transform="translate(1179.000000, 1282.000000)">
                <path d="M21.236,4.58 L21.0952651,4.7642747 C19.0722162,7.48459746 18.976157,10.7182922 20.900118,14.2524366 L21.0124092,14.4479892 C21.0699713,14.5427435 21.1331268,14.6387529 21.2174848,14.7620636 L21.5250072,15.2131892 C21.5868282,15.3100873 21.5980985,15.3414164 21.5963422,15.3655035 L21.5945522,15.3772136 C21.1792238,17.2325463 21.6132902,18.7230419 22.889084,19.592646 C23.7330603,20.1679154 24.7622624,20.3700186 26.0603341,20.3627421 L26.3647,20.3574207 C28.7466326,20.2822902 30.0407021,20.6740922 31.3750389,22.0502195 L31.5421223,22.2273995 C32.8092214,23.6084787 33.9823669,23.7767847 36.5701651,23.496632 L37.4711046,23.3969834 C37.5872022,23.385318 37.6924729,23.3756512 37.7904689,23.3677669 L37.899,23.359 L37.8522906,23.47762 C36.8313872,26.1529072 37.2082681,28.7689435 38.5853172,33.0533632 L39.0122534,34.3654232 L39.2640779,35.1723455 L39.336,35.413 L39.0633178,35.5226139 C38.2062302,35.8934537 37.3607124,36.0699246 36.1227953,36.1717229 L35.6322033,36.2072225 L34.0962268,36.3019717 C33.9727835,36.3111309 33.8565274,36.3206557 33.7307007,36.3317759 C33.3029185,36.3719935 32.7818652,36.4954243 32.2826251,36.6551032 C32.0614249,36.7258527 31.8592574,36.7996487 31.6988415,36.8698351 C31.6141937,36.9068708 31.5378804,36.9436483 31.4629775,36.9862718 L31.270997,37.1086068 C31.1919621,37.1651674 31.1430602,37.2208997 30.9230015,37.4716952 L30.8382627,37.6068514 C30.7339867,37.7825135 30.7214921,37.8727608 30.6527716,38.3691209 L30.7393988,38.769325 C30.8246764,39.1166134 30.8993147,39.1914929 31.2227474,39.5159708 L31.4159479,39.659449 L31.4918439,39.7216711 C31.7603619,39.9539083 31.7822882,39.9898695 31.2582674,40.936871 L31.0843834,41.2494099 C29.8074446,43.5380969 29.5946998,45.1725034 31.2034906,47.0446753 L31.4510781,47.3259066 C32.0964547,48.1180755 32.1108804,49.3391176 31.5086675,51.6281773 L31.386,52.075 L31.3407992,51.9871344 C31.2320498,51.7940964 31.0927497,51.6083859 30.9215108,51.4306923 C30.1945826,50.6763627 29.1881237,50.3849807 27.6346696,50.24053 L27.3369216,50.2150902 C26.6413484,50.1586484 25.9996392,50.1728074 25.0987223,50.2494204 L23.2750115,50.4256005 L23.1763923,50.4337153 C22.0375472,50.5304735 21.5178515,50.3272126 20.7776762,49.3771884 L20.6521282,49.21186 C16.6677397,43.8317973 12.9564692,41.2239714 7.36633956,41.0966041 C5.97430558,41.0662101 4.37913644,40.0377918 1.58610528,37.6227259 L1.5019395,37.5614159 C1.48845962,37.5481601 1.50693698,37.5377598 1.55758915,37.4670076 L1.60161446,37.4016398 C1.82186266,37.0555989 2.18672009,36.7168975 2.79391076,36.2448337 L3.0780273,36.0322965 L3.87762131,35.4699499 C6.08842031,33.9297697 7.0319922,32.9356671 6.99208508,31.2160181 L6.95874547,30.505516 C6.94008711,29.9412375 6.94944386,29.3524378 6.98570717,28.4591569 L7.03998941,27.2604249 C7.21554503,23.5042878 7.04770935,21.5392461 6.00043692,19.2668724 C5.61123919,18.424477 6.56679399,16.0810609 7.7831907,15.0903125 L7.96796151,14.943828 C8.0635522,14.8694201 8.1662779,14.7914695 8.2866105,14.7019019 L8.91111507,14.2445574 C11.3961335,12.4346231 12.5110128,11.1518199 12.8496551,8.81348973 L12.8841178,8.54925112 C13.0608112,7.05120024 14.2059332,6.29701207 16.5813515,5.89183306 L16.8503632,5.84822936 C18.3978169,5.60978041 19.778224,5.23062095 21.0270643,4.67686511 L21.236,4.58 Z M29.3792336,58.800378 L29.5576844,58.8624728 C29.4916669,58.8398835 29.4750269,58.8378889 29.4879461,58.8516492 L29.6004842,58.938635 C30.1879409,59.3780902 30.5129347,59.551982 31.1781819,59.4930437 C32.1529508,59.406683 32.6533722,58.7459541 32.8729378,57.836233 L32.9979477,57.2494334 C33.1018186,56.7900779 33.235699,56.3066412 33.4627069,55.5594816 L33.9342465,54.0383136 C35.2765263,49.7046217 35.4660106,47.3935279 33.7270601,45.3689838 L33.5818228,45.2054253 C32.9332797,44.4977075 32.9410593,44.1123022 33.6004149,42.8993873 L33.8267437,42.4887359 C34.5418398,41.173693 34.8914715,40.1986113 34.7160668,39.3155033 L34.705,39.267 L36.0115568,39.1885603 C37.6035202,39.0786397 38.7647433,38.8730548 39.9549954,38.400306 L40.2534293,38.2764536 C40.3365695,38.2405662 40.4182537,38.2083474 40.5080495,38.175756 L41.076893,37.9812731 C42.4729162,37.466699 42.7375919,36.4363932 42.292097,34.8391731 L42.1386456,34.3139694 C42.084617,34.1343703 42.0272789,33.9486797 41.9653368,33.752217 L41.5722711,32.5382742 C39.962848,27.6314209 39.8107119,25.5795574 41.5027547,22.907323 L42.5168657,21.3057428 L40.725034,20.6870191 C40.0064612,20.4388942 39.2582204,20.3355378 38.4330264,20.3387045 L38.1022249,20.3446985 C37.7212349,20.3574118 37.3399132,20.3910093 36.7730404,20.454554 L36.0671489,20.5331527 C34.6583931,20.6773744 34.1703729,20.6109873 33.8061256,20.2545022 L33.7523172,20.1988438 C31.7684788,18.0381877 29.7024692,17.3057973 26.6096495,17.3509972 L26.2743038,17.3587858 C25.415522,17.3834678 24.8322922,17.286548 24.5787558,17.113733 C24.4215327,17.0065669 24.3551033,16.7784619 24.5241926,16.0230568 C24.7493493,14.9859324 24.5294135,14.318344 23.9233044,13.4042146 L23.5857944,12.9048594 C23.5658046,12.8727165 23.5496676,12.8449847 23.5346252,12.8173856 C21.6434748,9.34351103 22.359334,6.71723622 25.8992725,4.3902409 L26.1450107,4.23203946 C26.1591464,4.22325015 26.1988831,4.20535723 26.2739886,4.175924 L26.6267309,4.04604715 C27.4376377,3.75329949 27.8515952,3.54050335 28.2621784,3.0174516 C28.9150602,2.18572985 28.8631437,1.15816963 28.2797294,0.139321532 C26.9714942,-2.12502053 24.6196991,-1.89183009 22.9504789,-0.302707604 L22.8129942,-0.167166468 C21.2245765,1.46363657 19.3443796,2.37139695 16.7666684,2.82192109 L16.3936352,2.88319993 C12.7515348,3.44403005 10.4175705,4.83585584 9.93923988,7.94406552 L9.90453353,8.19986125 C9.74374594,9.57911618 9.15103158,10.3322692 7.38233938,11.6450725 L6.47914592,12.3074098 C6.25536518,12.4741833 6.0788271,12.6106058 5.89343159,12.7603399 C3.72223823,14.5287484 2.21472957,18.2257839 3.27645978,20.5238316 C4.03111298,22.1612811 4.18603188,23.6982403 4.05974464,26.7471349 L3.97591945,28.6529485 C3.93669912,29.7287479 3.93947586,30.4015466 3.98913406,31.2039298 C4.01010177,31.5276876 3.60072115,31.9893778 2.35580699,32.8727038 L1.50524896,33.4682055 C1.29877766,33.615155 1.12117811,33.7459099 0.955183919,33.8743754 C0.0774603673,34.5567619 -0.463306579,35.0587621 -0.92923631,35.7908033 C-1.80371157,37.1647269 -1.72843161,38.7206305 -0.377099424,39.8911671 L0.259245441,40.435844 C3.14794915,42.8803173 4.93824846,43.9708942 7.0696895,44.0871163 L7.29942915,44.0958575 C11.7795123,44.1979338 14.7533194,46.2875609 18.2419568,50.9982173 C19.6160099,52.8506282 21.0735989,53.5584782 23.1691698,53.4414733 L23.8588085,53.3851134 L24.7571057,53.2945374 C25.8483863,53.1845525 26.4737823,53.1549104 27.0982948,53.205582 L27.2917235,53.2221289 C27.7931822,53.268672 28.1790481,53.3336022 28.4304655,53.3939697 L28.518,53.416 L28.4637654,53.5156427 C28.3772351,53.6657996 28.2552571,53.8468638 28.0944123,54.0556215 L27.9664377,54.217332 C26.313158,56.2668174 27.2122924,58.0087043 29.3792336,58.800378 Z" id="Path"></path>
            </g>
        </g>
    </g>
</svg>