<?xml version="1.0" encoding="UTF-8"?>
<svg width="80px" height="57px" viewBox="0 0 80 57" version="1.1" xmlns="http://www.w3.org/2000/svg" xmlns:xlink="http://www.w3.org/1999/xlink">
    <!-- Generator: Sketch 64 (93537) - https://sketch.com -->
    <title>img-02</title>
    <desc>Created with Sketch.</desc>
    <g id="Welcome" stroke="none" stroke-width="1" fill="none" fill-rule="evenodd">
        <g id="HOME---Servicios---Ventas-Empresariales---Desktop-HD" transform="translate(-440.000000, -1279.000000)" fill="#E2241C" fill-rule="nonzero">
            <g id="img-02" transform="translate(440.000000, 1278.000000)">
                <path d="M27.2512737,29 L26.0565267,30.1947317 C24.6154475,29.4447509 22.8551911,29.7198601 21.6506123,30.9245129 C20.856021,31.719094 20.5141412,32.5692689 20.5753668,33.6078552 C20.6424914,34.5076355 20.7905946,35.1223857 21.2063026,36.2306877 C21.8070278,37.9237978 21.8231163,38.6819122 21.2700308,39.2350801 C20.9185873,39.5865191 20.5353244,39.7858347 20.1306996,39.8275748 C19.62436,39.8666335 19.1860388,39.6823336 18.7518291,39.2481294 C17.9298875,38.4261983 17.9565228,37.4835159 18.8470192,35.8858628 L19.1620849,35.3206287 L16.5934727,34.6889859 L16.4017519,34.9802727 C15.3387515,36.5953548 15.2661746,38.5086953 16.1829488,40.0685411 L15,41.2514748 L16.7485476,43 L17.9413282,41.8072346 C18.6375117,42.222401 19.4076127,42.4131362 20.2342914,42.3750607 C21.3422501,42.3308179 22.3232887,41.8891953 23.1500568,41.0623484 L23.1646258,41.0470645 C24.0961477,40.0322531 24.412286,39.0433617 24.222174,37.744235 C24.1095548,36.9283817 23.978255,36.5134835 23.7178901,35.7326668 L23.3782448,34.6610996 C23.3229184,34.472152 23.2755468,34.2160806 23.215662,33.8925279 L23.2102098,33.8632115 C23.1380799,33.274292 23.297445,32.9851503 23.5964222,32.6861769 C24.041,32.2416047 24.7407587,32.218098 25.1562879,32.6336219 C25.61034,33.0876682 25.8000051,33.5343855 25.5026367,34.5928139 L25.3603432,35.0992364 L27.8455635,35.630417 L27.983388,35.2077428 C28.3758571,34.0042519 28.3124864,32.9113231 27.7957787,31.9526418 L29,30.7484359 L27.2512737,29 Z" id="Path"></path>
                <path d="M47,12.953127 L45.0594525,11 L39.7526472,16.280806 L22.5481657,14.2826012 L0,36.8183859 L21.138051,58 L43.686125,35.4642153 L41.7089738,18.2182339 L47,12.953127 Z M40.8003025,34.455978 L21.140528,54.1049465 L3.89219538,36.8208647 L23.5518782,17.1718962 L37.2575396,18.763758 L34.5014356,21.5063436 C34.0100834,21.2877483 33.474238,21.1717028 32.9203201,21.1717028 C31.8811048,21.1717028 30.903813,21.5763932 30.1685278,22.3113176 C28.6492441,23.829733 28.6475928,26.302127 30.16495,27.8225622 C30.9006939,28.5597818 31.87927,28.9657575 32.9203201,28.9657575 C33.9595355,28.9657575 34.9367355,28.5610671 35.6721124,27.8261427 C36.8554492,26.643378 37.11773,24.8820382 36.4590465,23.4424861 L39.2223979,20.6926477 L40.8003025,34.455978 Z M33.7272532,25.8773306 C33.5116674,26.0928044 33.2250759,26.2115124 32.9203201,26.2115124 C32.6149222,26.2115124 32.3279637,26.0924372 32.1122861,25.8763207 C31.6673537,25.4305002 31.6678124,24.7053993 32.1132953,24.2601297 C32.3289728,24.0445641 32.6155643,23.9259479 32.9203201,23.9259479 C33.2256263,23.9259479 33.5125848,24.0450231 33.7283541,24.2611396 C34.1732865,24.70696 34.1727361,25.432061 33.7272532,25.8773306 L33.7272532,25.8773306 Z" id="Shape"></path>
                <path d="M67.973012,28.6096995 L66.778265,29.8044313 C65.3371858,29.0544504 63.5769294,29.3295596 62.3723506,30.5342124 C61.5777594,31.3287935 61.2358796,32.1789684 61.2971051,33.2175547 C61.3642298,34.1173351 61.512333,34.7320852 61.9280409,35.8403872 C62.5287662,37.5334974 62.5448547,38.2916117 61.9917691,38.8447796 C61.6403256,39.1962186 61.2570627,39.3955342 60.8524379,39.4372743 C60.3460983,39.476333 59.9077771,39.2920331 59.4735675,38.8578289 C58.6516259,38.0358978 58.6782612,37.0932155 59.5687575,35.4955623 L59.8838232,34.9303282 L57.315211,34.2986855 L57.1234902,34.5899723 C56.0604898,36.2050544 55.987913,38.1183948 56.9046871,39.6782406 L55.7217384,40.8611743 L57.4702859,42.6096995 L58.6630665,41.4169341 C59.35925,41.8321005 60.129351,42.0228357 60.9560298,41.9847602 C62.0639884,41.9405175 63.045027,41.4988949 63.8717952,40.6720479 L63.8863642,40.6567641 C64.8178861,39.6419527 65.1340243,38.6530612 64.9439123,37.3539346 C64.8312931,36.5380813 64.6999934,36.123183 64.4396285,35.3423663 L64.0999832,34.2707991 C64.0446568,34.0818515 63.9972852,33.8257801 63.9374003,33.5022274 L63.9319481,33.4729111 C63.8598182,32.8839915 64.0191834,32.5948498 64.3181606,32.2958764 C64.7627384,31.8513043 65.4624971,31.8277975 65.8780263,32.2433214 C66.3320784,32.6973678 66.5217435,33.144085 66.2243751,34.2025134 L66.0820816,34.708936 L68.5673019,35.2401165 L68.7051264,34.8174423 C69.0975954,33.6139514 69.0342248,32.5210226 68.517517,31.5623413 L69.7217384,30.3581354 L67.973012,28.6096995 Z" id="Path" transform="translate(62.721738, 35.609700) rotate(-51.000000) translate(-62.721738, -35.609700) "></path>
                <path d="M86,11.953127 L84.0594525,10 L78.7526472,15.280806 L61.5481657,13.2826012 L39,35.8183859 L60.138051,57 L82.686125,34.4642153 L80.7089738,17.2182339 L86,11.953127 Z M79.8003025,33.455978 L60.140528,53.1049465 L42.8921954,35.8208647 L62.5518782,16.1718962 L76.2575396,17.763758 L73.5014356,20.5063436 C73.0100834,20.2877483 72.474238,20.1717028 71.9203201,20.1717028 C70.8811048,20.1717028 69.903813,20.5763932 69.1685278,21.3113176 C67.6492441,22.829733 67.6475928,25.302127 69.16495,26.8225622 C69.9006939,27.5597818 70.87927,27.9657575 71.9203201,27.9657575 C72.9595355,27.9657575 73.9367355,27.5610671 74.6721124,26.8261427 C75.8554492,25.643378 76.11773,23.8820382 75.4590465,22.4424861 L78.2223979,19.6926477 L79.8003025,33.455978 Z M72.7272532,24.8773306 C72.5116674,25.0928044 72.2250759,25.2115124 71.9203201,25.2115124 C71.6149222,25.2115124 71.3279637,25.0924372 71.1122861,24.8763207 C70.6673537,24.4305002 70.6678124,23.7053993 71.1132953,23.2601297 C71.3289728,23.0445641 71.6155643,22.9259479 71.9203201,22.9259479 C72.2256263,22.9259479 72.5125848,23.0450231 72.7283541,23.2611396 C73.1732865,23.70696 73.1727361,24.432061 72.7272532,24.8773306 L72.7272532,24.8773306 Z" id="Shape" transform="translate(62.500000, 33.500000) rotate(-51.000000) translate(-62.500000, -33.500000) "></path>
            </g>
        </g>
    </g>
</svg>