<?xml version="1.0" encoding="UTF-8"?>
<svg width="48px" height="49px" viewBox="0 0 48 49" version="1.1" xmlns="http://www.w3.org/2000/svg" xmlns:xlink="http://www.w3.org/1999/xlink">
    <!-- Generator: Sketch 64 (93537) - https://sketch.com -->
    <title>img-04</title>
    <desc>Created with Sketch.</desc>
    <g id="Welcome" stroke="none" stroke-width="1" fill="none" fill-rule="evenodd">
        <g id="HOME---Servicios---Ventas-Empresariales---Desktop-HD" transform="translate(-940.000000, -1287.000000)" fill="#E2241C" fill-rule="nonzero">
            <g id="img-04" transform="translate(940.000000, 1287.000000)">
                <path d="M21.8292968,34.6947555 C22.10333,34.974594 22.4747469,35.1320755 22.8623943,35.1320755 C23.2496644,35.1320755 23.6210812,34.9749799 23.8951144,34.6947555 L29.1104262,29.3616138 C29.68114,28.778006 29.68114,27.8323451 29.1104262,27.2487372 C28.54009,26.6655153 27.6149449,26.6655153 27.0446086,27.2487372 L22.8623943,31.5254405 L20.9554857,29.5754491 C20.384772,28.9922271 19.4600044,28.9922271 18.8892907,29.5754491 C18.3189544,30.1586709 18.3189544,31.1047178 18.8892907,31.6883257 L21.8292968,34.6947555 Z" id="Path"></path>
                <path d="M24.4617263,42.5283019 C30.8240573,42.5283019 36,37.3438447 36,30.9715101 C36,24.5991754 30.8240573,19.4150943 24.4617263,19.4150943 C18.0990196,19.4150943 12.9230769,24.5991754 12.9230769,30.9715101 C12.9230769,37.3438447 18.0993952,42.5283019 24.4617263,42.5283019 Z M24.4617263,22.3264851 C29.221175,22.3264851 33.0931798,26.2045779 33.0931798,30.9715101 C33.0931798,35.7384422 29.221175,39.6169112 24.4617263,39.6169112 C19.7022776,39.6169112 15.8298972,35.7384422 15.8298972,30.9715101 C15.8298972,26.2045779 19.7022776,22.3264851 24.4617263,22.3264851 Z" id="Shape"></path>
                <path d="M43.308699,3.08081815 L40.6628143,3.08081815 L40.6628143,1.44676213 C40.6628143,0.647865271 40.0132438,0 39.2122443,0 C38.4112448,0 37.7616742,0.647865271 37.7616742,1.44676213 L37.7616742,3.08081815 L34.9111354,3.08081815 L34.9111354,1.44676213 C34.9111354,0.647865271 34.2615649,0 33.4601905,0 C32.659191,0 32.0096205,0.647865271 32.0096205,1.44676213 L32.0096205,3.08081815 L15.9911292,3.08081815 L15.9911292,1.44676213 C15.9911292,0.647865271 15.3415586,0 14.5401843,0 C13.7391848,0 13.0896142,0.647865271 13.0896142,1.44676213 L13.0896142,3.08081815 L10.2390754,3.08081815 L10.2390754,1.44676213 C10.2390754,0.647865271 9.58950492,0 8.78813061,0 C7.98713101,0 7.33756052,0.647865271 7.33756052,1.44676213 L7.33756052,3.08081815 L4.69130095,3.08081815 C2.10463847,3.08081815 0,5.17993164 0,7.76017766 L0,44.3210144 C0,46.9008865 2.10463847,49 4.69130095,49 L43.308699,49 C45.8957364,49 48,46.9008865 48,44.3210144 L48,7.76017766 C48,5.17993164 45.8953615,3.08081815 43.308699,3.08081815 Z M45.0984851,44.3210144 C45.0984851,45.305336 44.2956114,46.1064758 43.308699,46.1064758 L4.69130095,46.1064758 C3.70438859,46.1064758 2.90114009,45.305336 2.90114009,44.3210144 L2.90114009,15.1113739 L45.0984851,15.1113739 L45.0984851,44.3210144 Z M2.90114009,7.76017766 C2.90114009,6.77548218 3.70438859,5.97471623 4.69130095,5.97471623 L7.33756052,5.97471623 L7.33756052,7.60877225 C7.33756052,8.40766902 7.98713101,9.05553439 8.78850541,9.05553439 C9.58950492,9.05553439 10.2390754,8.40766902 10.2390754,7.60877225 L10.2390754,5.97471623 L13.0896142,5.97471623 L13.0896142,7.60877225 C13.0896142,8.40766902 13.7391848,9.05553439 14.5405591,9.05553439 C15.3415586,9.05553439 15.9911292,8.40766902 15.9911292,7.60877225 L15.9911292,5.97471623 L32.0096205,5.97471623 L32.0096205,7.60877225 C32.0096205,8.40766902 32.659191,9.05553439 33.4605654,9.05553439 C34.2615649,9.05553439 34.9111354,8.40766902 34.9111354,7.60877225 L34.9111354,5.97471623 L37.7616742,5.97471623 L37.7616742,7.60877225 C37.7616742,8.40766902 38.4112448,9.05553439 39.2122443,9.05553439 C40.0136186,9.05553439 40.6631892,8.40766902 40.6631892,7.60877225 L40.6631892,5.97471623 L43.308699,5.97471623 C44.2956114,5.97471623 45.0988599,6.77548218 45.0988599,7.76017766 L45.0988599,12.2174759 L2.90114009,12.2174759 L2.90114009,7.76017766 Z" id="Shape"></path>
            </g>
        </g>
    </g>
</svg>