<?xml version="1.0" encoding="UTF-8"?>
<svg width="71px" height="47px" viewBox="0 0 71 47" version="1.1" xmlns="http://www.w3.org/2000/svg" xmlns:xlink="http://www.w3.org/1999/xlink">
    <!-- Generator: Sketch 64 (93537) - https://sketch.com -->
    <title>img-01</title>
    <desc>Created with Sketch.</desc>
    <g id="Welcome" stroke="none" stroke-width="1" fill="none" fill-rule="evenodd">
        <g id="HOME---Servicios---Ventas-Empresariales---Desktop-HD" transform="translate(-203.000000, -1286.000000)" fill="#E2241C" fill-rule="nonzero">
            <g id="img-01" transform="translate(203.000000, 1286.000000)">
                <path d="M71.0000047,12.1309138 C70.9983359,11.0483237 70.6813321,9.95041335 69.9803458,9.04539983 L64.354706,1.81587662 C63.4124307,0.614205851 61.9787024,0.00236768696 60.5459447,0 C59.6932515,0 58.825027,0.219498508 58.0578943,0.699999685 L52.5725903,4.12757474 C51.9957154,4.49707318 51.0067077,4.75069424 50.0513973,4.74414828 C49.3092255,4.74735162 48.5920147,4.59818734 48.1184503,4.36322923 L42.7468573,1.74999921 C41.8804355,1.3310579 40.914586,1.15933095 39.9433283,1.15765965 C38.5484281,1.1642056 37.1357779,1.50849514 36.0006101,2.29860621 L35.3738133,2.74024946 C34.8727919,2.48913537 34.1071846,2.10654501 33.2399308,1.67311902 C32.1998919,1.16100226 30.9769448,0.954456395 29.7416559,0.950417399 C28.6257634,0.95362074 27.5101484,1.12632261 26.5305704,1.54192131 L22.8718521,3.10988718 C22.2763951,3.36921854 21.3292664,3.53857779 20.3885165,3.53439952 C19.4477666,3.53843852 18.5023019,3.36907926 17.9068449,3.10988718 L14.2447986,1.54108566 C13.5768162,1.25501336 12.8627948,1.13272929 12.1551524,1.13189364 C11.3403165,1.13272929 10.5303342,1.29401056 9.7774847,1.60027783 C9.0256059,1.90821641 8.32767044,2.36281231 7.77187364,2.98662818 L1.10453078,10.4860677 C0.365548454,11.3148974 -0.00151595064,12.3586295 4.70525057e-06,13.3860664 C-0.00151595064,14.6112748 0.520444917,15.8403828 1.5272026,16.7018031 L7.74663536,22.0310486 L4.79625294,25.1222728 C3.9829425,25.9747794 3.57802068,27.0800714 3.57802068,28.1729678 C3.57649529,29.3357807 4.03633117,30.5098748 4.94712792,31.3743591 L5.54563566,31.9455288 C6.1096141,32.4828544 6.78730346,32.824637 7.49647133,33.0069489 C7.14077802,33.6640517 6.94636008,34.3845249 6.94788547,35.1063909 C6.94636008,36.2700394 7.40619596,37.4432979 8.31532865,38.3087571 L8.31380326,38.3079215 L8.91411372,38.8815981 C9.7686097,39.6951075 10.8763205,40.1002605 11.967668,40.0995641 C12.55425,40.1003998 13.1415253,39.9820154 13.6934393,39.7502606 C13.8871638,40.5395361 14.2872321,41.2898143 14.916525,41.8893962 L15.5168355,42.4630728 C16.3713315,43.2765822 17.4772395,43.6817352 18.5703898,43.6810388 C19.4248858,43.6818745 20.2832646,43.4289498 21.0222469,42.9380029 C21.2384363,43.6364706 21.6088288,44.298448 22.1726686,44.8364701 L22.7729791,45.4101467 C23.6256723,46.2236561 24.7333831,46.6288091 25.825008,46.6281127 C26.9874941,46.6289484 28.1614901,46.1703135 29.0286052,45.2611217 L31.6361908,42.526304 L35.1788407,45.8193387 C36.0268191,46.6093105 37.1152545,47.0023465 38.189684,46.9999895 C39.3700589,47.0024858 40.5608341,46.5275556 41.429752,45.5932942 L41.9952558,44.9847987 C42.4833807,44.4581972 42.8020487,43.8349385 42.9868983,43.1843817 L44.3591949,44.4565259 C45.2086987,45.2432944 46.2956088,45.6346591 47.3685129,45.6338235 C48.5504131,45.6346591 49.7445165,45.159729 50.6142664,44.2247712 L51.1765808,43.616972 C51.8259811,42.9201757 52.1915201,42.0570841 52.304399,41.1756082 C52.6666099,41.2687836 53.0336743,41.3320148 53.4039281,41.3320148 C54.5858284,41.3320148 55.7766036,40.8579203 56.6471855,39.9237982 L57.2111639,39.315999 C57.9993748,38.4675314 58.3915388,37.3793703 58.3898747,36.3065296 C58.3898747,35.9735214 58.3423103,35.6421845 58.2688142,35.3147473 C59.2490855,35.184246 60.1995425,34.7451097 60.9223002,33.9655836 L61.487804,33.357088 C62.2760148,32.5086205 62.6665148,31.4204594 62.6665148,30.346783 C62.6680402,29.1654465 62.1937824,27.9733857 61.2578861,27.1048624 L60.2002358,26.1236651 L69.7461291,15.5233913 C70.6031211,14.5690742 70.9984746,13.3406625 71.0000047,12.1309138 Z M8.59960595,30.7513789 C8.09386969,30.7498469 7.59922718,30.5682314 7.21274872,30.2004042 L6.61327028,29.6292346 C6.19850276,29.2353629 5.99368442,28.7112684 5.99202036,28.1731071 C5.99368442,27.6683719 6.17354182,27.1756145 6.54393435,26.7874531 L12.5866992,20.4541691 C12.9803886,20.0416344 13.5056776,19.8350886 14.0445564,19.8343922 C14.5487673,19.8352278 15.0417457,20.0175397 15.4314136,20.3862025 L16.028396,20.9582078 C16.028396,20.9582078 16.6464564,21.876174 16.6479818,22.4150317 C16.6464564,22.8185134 16.5253959,23.2115494 16.2906245,23.5519393 C16.270517,23.5721342 9.7686097,30.3778415 9.7686097,30.3778415 C9.42331678,30.6232453 9.01506683,30.7495683 8.59960595,30.7513789 Z M13.4256639,37.068507 C13.0328065,37.4793703 12.5083496,37.6850805 11.9694707,37.6867518 C11.4637345,37.6859162 10.9706174,37.5036043 10.5826135,37.1357771 L9.98230303,36.5627969 L9.98077764,36.5619612 C9.56933825,36.1697609 9.36271718,35.6439951 9.36271718,35.1058338 C9.36271718,34.6010986 9.54423864,34.1083412 9.91282843,33.7201798 C9.91282843,33.7201798 17.9677219,25.2988744 18.0355324,25.2176767 C18.4204855,24.8458105 18.9165147,24.6537493 19.4287686,24.6529137 C19.9345048,24.6537493 20.427622,24.8352256 20.8156258,25.2038884 L21.4159363,25.777565 C21.8289011,26.1697654 22.0339967,26.6948348 22.0355221,27.2336925 C22.0338581,27.7384276 21.8524753,28.2318814 21.4836081,28.6200428 L13.4256639,37.068507 Z M20.027415,40.6490068 C19.6353896,41.060845 19.1110714,41.2668338 18.5720538,41.2683658 C18.0663176,41.2675302 17.5732005,41.0852183 17.1851966,40.7165555 L16.5832221,40.1435752 C16.1702573,39.7505392 15.9636362,39.2256091 15.9636362,38.6874478 C15.9636362,38.2370301 16.1161753,37.8001222 16.4080795,37.4363341 L22.0176335,31.5559746 C22.396069,31.2132171 22.8703267,31.0325766 23.3617798,31.0325766 C23.867516,31.0334122 24.3606332,31.2148884 24.748637,31.5835512 L25.3506115,32.1572279 C25.7620509,32.5494282 25.968672,33.0744976 25.9701974,33.6125197 C25.9685333,34.1182298 25.7854865,34.6116836 25.4182834,34.99887 L20.027415,40.6490068 Z M30.6860112,40.0283942 L27.2821718,43.5963592 C26.8900078,44.0079189 26.3648575,44.2139077 25.8259787,44.2154397 C25.3202424,44.214604 24.8271253,44.0322921 24.4391214,43.6636294 L23.838811,43.0906491 C23.4273716,42.6984487 23.2207505,42.172683 23.2192251,41.6345216 C23.2207505,41.1288116 23.402272,40.6353577 23.7711391,40.2488677 L27.1734531,36.681042 C27.5671425,36.2694823 28.0924315,36.0627971 28.6313103,36.0619615 C29.1355212,36.0627971 29.6301637,36.2442734 30.0181676,36.6137718 L30.6201421,37.1867521 C31.0315815,37.5789524 31.2365385,38.1040218 31.2382026,38.6420439 C31.2362611,39.1476147 31.0547397,39.6410685 30.6860112,40.0283942 Z M60.2561206,30.3499863 C60.2554272,30.8455293 60.0786206,31.3309051 59.7204312,31.7165595 L59.1564527,32.3243587 C58.7627633,32.747339 58.2285994,32.9612665 57.6816776,32.9621021 C57.1855096,32.9612665 56.6997421,32.7861969 56.3142344,32.4282584 L46.8103587,23.600825 L45.1669585,25.3680944 L55.3396486,34.8331319 C55.7632911,35.2270036 55.9761524,35.7618223 55.9793418,36.3079224 C55.9761524,36.8054152 55.8010098,37.2899553 55.4436525,37.675749 L54.8813381,38.2835482 C54.4876487,38.7065285 53.9534847,38.9196204 53.4065629,38.9212917 C52.910395,38.9197596 52.4231021,38.7438544 52.0406451,38.3881443 L42.5342733,29.5608502 L40.8925372,31.3281196 L49.3290556,39.1637707 C49.7356415,39.5551354 49.9439266,40.0761658 49.9439266,40.6108452 C49.9439266,41.106806 49.7687841,41.5920425 49.4114267,41.9770006 L48.8474483,42.5847998 C48.4552842,43.0077801 47.9195949,43.2217075 47.3711477,43.2232396 C46.8733157,43.2217075 46.3876869,43.0458023 46.0037045,42.6900922 L37.5841041,34.8828534 L37.5825787,34.8828534 L37.5810533,34.8813213 L35.9425066,36.6517941 L35.9441707,36.6533261 L35.9756492,36.6832704 L40.1926603,40.5921823 C40.5662423,40.9778367 40.7598282,41.4721262 40.7613536,41.9834073 C40.7598282,42.4768611 40.5862111,42.95973 40.2288537,43.3448273 L39.6648753,43.9533228 C39.2711859,44.3763031 38.7386859,44.5885593 38.1932895,44.5902306 C37.6971216,44.5886986 37.2113541,44.413629 36.8273717,44.0563868 L33.155757,40.6417644 C33.4752569,40.0122382 33.6535889,39.3290909 33.6535889,38.6435759 C33.6551143,37.4807631 33.1952785,36.3083402 32.2861458,35.4421846 L31.6841712,34.868508 C30.831478,34.055695 29.7252926,33.6498456 28.6338064,33.6513776 C28.5490779,33.6513776 28.463656,33.6708762 28.3805916,33.6757508 C28.3805916,33.6555559 28.3853064,33.634386 28.3853064,33.614191 C28.3868318,32.4513781 27.0178633,30.4111284 27.0178633,30.4111284 L26.4175528,29.839123 C25.7793849,29.2313239 25.0007424,28.8522154 24.1908988,28.6998478 C24.3578597,28.2250569 24.4522953,27.7307675 24.4522953,27.2356423 C24.4522953,26.0728295 23.9939848,24.8994317 23.0848521,24.034251 L22.4845416,23.4605744 C21.6300456,22.647065 20.5241376,22.2410763 19.4325127,22.241912 C19.3050733,22.241912 19.1792979,22.2678173 19.0525518,22.2792379 C19.0178839,21.1626646 18.5701124,20.0469269 17.6988372,19.2155902 L17.6988372,19.2147546 L17.1001908,18.6435849 C16.2456948,17.8292399 15.1397867,17.4232512 14.0481619,17.4240869 C12.883873,17.4232512 11.7116798,17.8818861 10.8445646,18.7910779 L9.41818592,20.2860633 L3.09946411,14.8732524 C2.64531378,14.4827233 2.41858529,13.9430299 2.41692123,13.3888519 C2.41844662,12.9245067 2.57583918,12.4699108 2.91142507,12.0924737 L9.57862926,4.59317342 C9.84321516,4.29498414 10.2345471,4.0252071 10.6928576,3.83788128 C11.1511681,3.65069473 11.6714649,3.54790927 12.1579258,3.54860564 C12.5815683,3.54860564 12.9791405,3.62562511 13.2971151,3.76336878 L16.9574974,5.33203102 C17.9893547,5.76879963 19.1873409,5.94790818 20.3912899,5.9518079 C21.5966257,5.94776891 22.7930865,5.76866035 23.8250824,5.33203102 L27.4838007,3.76406516 C28.0477791,3.51699006 28.8988083,3.36378679 29.7451227,3.36686768 C30.681019,3.36127982 31.6184408,3.55584798 32.1621731,3.83453866 C32.5074661,4.00710126 32.835009,4.17088949 33.1391164,4.32395348 L29.407734,6.95835341 C28.2087772,7.80514969 27.5625663,9.15180646 27.5642304,10.5107195 C27.562705,11.410162 27.8465663,12.3257605 28.4242732,13.1027796 L28.4227478,13.1011083 L28.9155876,13.7662891 C29.851484,15.0158707 31.3108666,15.6583495 32.7695559,15.6615528 C33.5932667,15.6615528 34.4323701,15.4525 35.1802274,15.0019431 L37.4117349,13.6559827 C37.866856,13.3764564 38.5541137,13.1998548 39.264807,13.2030581 C40.0998889,13.1981835 40.9413497,13.4462335 41.4472246,13.8196317 L47.620757,18.2648943 C48.9947178,19.2534732 51.2326042,21.0871771 52.4727466,22.2410763 L59.6183687,28.8765887 C60.0414565,29.2705996 60.2544565,29.8030506 60.2561206,30.3499863 Z M67.9544887,13.9103001 L58.4352204,24.4821617 L54.1132347,20.4696287 C52.75952,19.214476 50.5271805,17.3841147 49.0298017,16.3038924 L42.8579334,11.8586298 C41.8115156,11.1140618 40.5303263,10.7921957 39.2636976,10.7874603 C38.1858012,10.7906637 37.0998619,11.0265967 36.1624402,11.5871814 L33.9325967,12.9331418 C33.5904933,13.1396877 33.1872355,13.2451194 32.7683078,13.245955 C32.0194798,13.248462 31.2700971,12.8974872 30.8522788,12.3261783 L30.3609644,11.6618332 L30.3593003,11.6601619 C30.0979039,11.306123 29.97615,10.909048 29.9743473,10.5070983 C29.9775367,9.89929916 30.2566832,9.30946656 30.7973647,8.92617982 L37.395233,4.27019306 C37.965729,3.85543002 38.9806683,3.56448307 39.9447151,3.57172541 C40.6143615,3.56852207 41.2540547,3.70375878 41.6921191,3.92102887 L47.0635735,6.5342589 C47.9793624,6.97590215 49.0128838,7.15654274 50.0526454,7.1590497 C51.38861,7.15250374 52.7391352,6.86086042 53.8518382,6.17450975 L59.3388062,2.74623832 C59.6889527,2.52673981 60.1092671,2.41322491 60.5474701,2.41322491 C61.2881165,2.41169808 62.0302883,2.74874528 62.4506027,3.29888431 L68.0762426,10.5284075 C68.400596,10.9424742 68.5884994,11.5265965 68.5884994,12.132028 C68.5894671,12.8090472 68.3513675,13.4752028 67.9544887,13.9103001 Z" id="Shape"></path>
            </g>
        </g>
    </g>
</svg>