<?xml version="1.0" encoding="UTF-8"?>
<svg width="58px" height="58px" viewBox="0 0 58 58" version="1.1" xmlns="http://www.w3.org/2000/svg" xmlns:xlink="http://www.w3.org/1999/xlink">
    <!-- Generator: Sketch 64 (93537) - https://sketch.com -->
    <title>item-02</title>
    <desc>Created with Sketch.</desc>
    <g id="Welcome" stroke="none" stroke-width="1" fill="none" fill-rule="evenodd">
        <g id="HOME---Servicios---Ventas-Empresariales---Desktop-HD" transform="translate(-450.000000, -680.000000)" fill="#E2241C" fill-rule="nonzero">
            <g id="item-02" transform="translate(450.000000, 680.000000)">
                <path d="M12,30 C11.4480468,30 11,30.4480469 11,31 C11,31.5519531 11.4480468,32 12,32 C12.5519531,32 13,31.5519531 13,31 C13,30.4480469 12.5519531,30 12,30 Z" id="Path"></path>
                <path d="M55.5157775,23.1823883 C55.4082489,22.6389923 55.592331,21.8562012 55.7697754,21.0990753 C56.0379334,19.9578553 56.3410492,18.664856 55.8507538,17.4802704 C55.3502808,16.2744445 54.2086182,15.5690918 53.2010346,14.9469299 C52.5501099,14.544693 51.8766174,14.1287384 51.5819092,13.6880035 C51.2805634,13.2375336 51.1509094,12.4503174 51.026123,11.689209 C50.8354034,10.5271912 50.6190186,9.2098541 49.7043609,8.29519648 C48.7897033,7.38053897 47.4719238,7.16459659 46.3099061,6.97387695 C45.5487977,6.84909063 44.7620239,6.71987909 44.3128814,6.41986084 C43.8712616,6.12426758 43.4557495,5.4507752 43.0535126,4.79940802 C42.4309082,3.79182431 41.7255555,2.64927676 40.5192871,2.14924619 C39.3355865,1.6585083 38.0425873,1.96206659 36.9018097,2.22978213 C36.1442413,2.40766904 35.3610077,2.59130859 34.8180542,2.48422247 C34.2777558,2.37713623 33.5002746,1.91427618 32.7484589,1.46646112 C31.538208,0.745620699 30.2863617,0 29,0 C27.7127533,0 26.4604644,0.745620699 25.2493286,1.46646112 C24.4975128,1.91427618 23.7200317,2.37713623 23.1797333,2.48422247 C22.6372223,2.59130859 21.8544312,2.40766904 21.0973053,2.22978213 C19.9560851,1.96206659 18.6630859,1.6585083 17.4789429,2.14924619 C16.2731171,2.64971924 15.5677643,3.79182431 14.94516,4.79940802 C14.5433654,5.4507752 14.1274109,6.12426758 13.686676,6.41941836 C13.2375336,6.71987909 12.4507599,6.84909063 11.6896515,6.97387695 C10.5271912,7.16459659 9.2098541,7.38098145 8.29431152,8.29563907 C7.38053897,9.20941162 7.16459659,10.5254211 6.97387695,11.6869965 C6.84909063,12.4485474 6.71987909,13.2362061 6.41720587,13.687561 C6.12205508,14.1291809 5.44900507,14.544693 4.79808047,14.9469299 C3.79093936,15.5695343 2.64927676,16.2744445 2.14924619,17.4811554 C1.65895078,18.664856 1.96162412,19.9574127 2.22889707,21.0977479 C2.40634161,21.8548736 2.58998105,22.6381073 2.48200986,23.1823883 C2.37536621,23.7231293 1.91250605,24.5006104 1.46469122,25.2528687 C0.744735746,26.4631195 0,27.7140809 0,29 C0,30.2868042 0.744735746,31.5386505 1.4651337,32.7493438 C1.91250605,33.5016021 2.37536621,34.2790832 2.48200986,34.8211518 C2.58953857,35.3636627 2.40634161,36.1468964 2.22889707,36.9040223 C1.96162412,38.0447998 1.65895078,39.3373565 2.14924619,40.5206147 C2.64971924,41.7268829 3.79093936,42.4317932 4.79808047,43.0543976 C5.44900507,43.456192 6.12205508,43.8721466 6.4185333,44.3150939 C6.71987909,44.7642364 6.84953311,45.5518951 6.97431943,46.3134461 C7.16459659,47.4745789 7.38053897,48.7905884 8.29431152,49.7056885 C9.20852655,50.619461 10.5245361,50.8354034 11.6856689,51.026123 C12.4476623,51.1509094 13.2353211,51.2801209 13.686676,51.5827941 C14.1278534,51.8779449 14.543808,52.5509949 14.9460449,53.2019195 C15.5682068,54.2090606 16.2735596,55.3502808 17.4798279,55.8507538 C18.6626435,56.3410492 19.9552002,56.0379334 21.0959777,55.7711029 C21.8531036,55.5936584 22.6367798,55.4104614 23.1801758,55.5179901 C23.7204742,55.6246338 24.4983979,56.087494 25.2506562,56.5348663 C26.4613495,57.2552643 27.7131958,58 29,58 C30.2859191,58 31.5373231,57.2552643 32.7471313,56.5353088 C33.4993896,56.087494 34.2773133,55.6246338 34.8184967,55.5179901 C35.3618927,55.4104614 36.1451264,55.5936584 36.9031372,55.7711029 C38.0434723,56.0383759 39.3360291,56.3410492 40.5197296,55.8507538 C41.7255555,55.3507232 42.4309082,54.2090606 43.0530701,53.2019195 C43.455307,52.5509949 43.8708191,51.8779449 44.313324,51.5823517 C44.7637939,51.2801209 45.5514526,51.1509094 46.3130035,51.026123 C47.4741363,50.8354034 48.7905884,50.619461 49.7043609,49.7056885 C50.6190186,48.7914734 50.8354034,47.4741363 51.026123,46.3121186 C51.1509094,45.5505676 51.2805634,44.7637939 51.5814667,44.313324 C51.8766174,43.8721466 52.5501099,43.456192 53.2010346,43.0539551 C54.2086182,42.4317932 55.3502808,41.7264404 55.8507538,40.5201721 C56.3410492,39.3364716 56.0379334,38.0434723 55.7697754,36.9026947 C55.592331,36.1455688 55.4086914,35.3632202 55.5157775,34.8207092 C55.6224213,34.2799683 56.0857238,33.5024872 56.5330963,32.7506714 C57.2543793,31.5395356 58,30.2872467 58,29 C58,27.7136383 57.2543793,26.461792 56.5335389,25.2515411 C56.0857238,24.4997254 55.6228638,23.7222442 55.5157775,23.1823883 Z M54.5865174,31.5917511 C54.0409088,32.5086212 53.4762726,33.4569092 53.2930756,34.3804169 L53.2930756,34.3808594 C53.0908508,35.4039307 53.3315734,36.428772 53.5643311,37.4204254 C53.7634582,38.2678223 53.9687805,39.1439819 53.7581482,39.6528625 C53.5382232,40.1834259 52.7616271,40.6626587 52.0106964,41.1268463 C51.1535645,41.6560821 50.2676697,42.2030182 49.6986084,43.0539551 C49.1246796,43.9124146 48.9547577,44.9456635 48.7905884,45.9448394 C48.6485443,46.8099365 48.5016327,47.7046815 48.1024933,48.1033783 C47.7042389,48.5016327 46.8108215,48.6485443 45.9466095,48.7901459 C44.9456635,48.9543152 43.911087,49.1242371 43.0526275,49.6999359 C42.2021332,50.2685547 41.6551972,51.1544494 41.1255187,52.0111389 C40.6617736,52.7616271 40.1825409,53.5377808 39.6519775,53.7577057 C39.1426544,53.9687805 38.2669373,53.7634582 37.4195404,53.565216 C36.4278869,53.332901 35.4021606,53.0926209 34.3790894,53.2952881 C33.4546967,53.4776001 32.5059662,54.0422363 31.5886535,54.5882873 C30.6859435,55.1254883 29.6628723,55.734375 29,55.734375 C28.3362427,55.734375 27.3127289,55.1250458 26.4091339,54.5878448 C25.4918213,54.0417939 24.5430908,53.4776001 23.6200256,53.2952881 C22.6018219,53.0935059 21.5853882,53.3293609 20.579132,53.565216 C19.7321777,53.7634582 18.8560181,53.9687805 18.3471375,53.7581482 C17.8165741,53.5377808 17.3373413,52.7616271 16.8731537,52.0111389 C16.3439179,51.1544494 15.7969818,50.2685547 14.9473725,49.7003784 C14.0880279,49.1242371 13.0534516,48.9543152 12.0525055,48.7901459 C11.1887359,48.6485443 10.2948761,48.5020752 9.89706427,48.1038208 C9.49836728,47.7051239 9.35189825,46.8112641 9.2098541,45.9466095 C9.04568476,44.946106 8.87620547,43.911087 8.30050665,43.0535126 C7.73144531,42.2034607 6.84599307,41.6560821 5.98930362,41.1268463 C5.23837286,40.6631012 4.46221924,40.1834259 4.24229434,39.6533051 C4.03121954,39.1439819 4.2365418,38.2678223 4.43478399,37.420868 C4.66709903,36.428772 4.90737909,35.4034882 4.70471191,34.3813019 C4.5223999,33.4569092 3.95820615,32.5081787 3.41215518,31.5908661 C2.8749542,30.6877137 2.265625,29.6637573 2.265625,29 C2.265625,28.3371277 2.87451172,27.3140565 3.4117127,26.4113465 C3.95776367,25.4940338 4.5223999,24.5453033 4.70426944,23.6217957 C4.90737909,22.5982818 4.66709903,21.5725556 4.43478399,20.5809022 C4.2365418,19.7335053 4.03121954,18.8577881 4.24185175,18.3484649 C4.46221924,17.8174591 5.23837286,17.3382264 5.98886114,16.8744813 C6.84555059,16.3448028 7.73144531,15.7978668 8.29962158,14.9482574 C8.87576288,14.088913 9.04568476,13.0543365 9.2098541,12.0533905 C9.35145566,11.1891785 9.4979248,10.2957611 9.8961792,9.89794922 C10.2957611,9.49880976 11.1909484,9.35189825 12.0569306,9.2098541 C13.0561065,9.04568476 14.088913,8.87620547 14.9469299,8.30227655 C15.7969818,7.73277286 16.3439179,6.84687802 16.8731537,5.99018857 C17.3368988,5.23881534 17.8165741,4.46221924 18.3466949,4.24229434 C18.8560181,4.03121954 19.7321777,4.2365418 20.5795746,4.43566895 C21.5707856,4.66842657 22.5960693,4.90914923 23.6195831,4.70692441 C24.5430908,4.52416992 25.4913788,3.95953369 26.4082489,3.41348261 C27.3118438,2.87539667 28.3362427,2.265625 29,2.265625 C29.6628723,2.265625 30.6863861,2.87539667 31.5890961,3.41304013 C32.5059662,3.95909121 33.4542541,4.52372745 34.3786469,4.70692441 C35.4021606,4.90914923 36.4274444,4.66842657 37.4190978,4.43566895 C38.2664947,4.23698428 39.1426544,4.03121954 39.6515351,4.24185175 C40.1820984,4.46221924 40.6617736,5.23881534 41.1255187,5.99018857 C41.6547547,6.84687802 42.2021332,7.73277286 43.0530701,8.30316162 C43.911087,8.87620547 44.9438935,9.04568476 45.9430694,9.20941162 C46.808609,9.35145566 47.7033539,9.49836728 48.1024933,9.89750674 C48.5011902,10.2962036 48.6485443,11.1909484 48.7905884,12.0560455 C48.9547577,13.0556641 49.1242371,14.088913 49.6986084,14.9473725 C50.2676697,15.7978668 51.1535645,16.3448028 52.0106964,16.8744813 C52.7616271,17.3382264 53.5377808,17.8174591 53.7577057,18.34758 C53.9687805,18.8573456 53.7630157,19.7335053 53.5643311,20.5809022 C53.3315734,21.5725556 53.0908508,22.5978394 53.2930756,23.6213531 C53.4762726,24.5457459 54.0409088,25.4940338 54.5869599,26.4109039 C55.1246033,27.3136139 55.734375,28.3371277 55.734375,29 C55.734375,29.6637573 55.1246033,30.6881562 54.5865174,31.5917511 L54.5865174,31.5917511 Z" id="Shape"></path>
                <path d="M29,7 C17.2673389,7 7,17.2287548 7,29 C7,40.7326611 17.2287548,51 29,51 C40.7326609,51 51,40.7712452 51,29 C51,17.2673389 40.7712451,7 29,7 Z M29,48.755102 C18.4761638,48.755102 9.24489796,39.523836 9.24489796,29 C9.24489796,18.476164 18.4761638,9.24489796 29,9.24489796 C39.523836,9.24489796 48.755102,18.476164 48.755102,29 C48.755102,39.523836 39.523836,48.755102 29,48.755102 Z" id="Shape"></path>
                <path d="M28.8455693,13.3284556 C29.4832118,13.3284556 30,12.8072818 30,12.1642278 C30,11.5211738 29.4832118,11 28.8455693,11 C20.1602818,11 12.2208649,18.1731896 11.0118693,26.6706883 C10.9212284,27.3069206 11.3595514,27.8967657 11.9908807,27.9881759 C12.0463474,27.9963618 12.1013633,28 12.1563791,28 C12.7209678,28 13.2147576,27.5816056 13.2972814,27.0008561 C14.3516012,19.5898184 21.471643,13.3284556 28.8455693,13.3284556 Z" id="Path"></path>
                <path d="M39.016252,26.5369482 L32.4606664,25.5841709 L29.5300289,19.6404207 C29.3367163,19.2481799 28.9375324,19 28.5002242,19 C28.0633647,19 27.6641808,19.2481799 27.4708682,19.6404207 L24.5388852,25.5841709 L17.982851,26.5369482 C17.5504766,26.5997785 17.1912112,26.9031593 17.0562062,27.3191859 C16.9212014,27.7347637 17.0337802,28.1916301 17.3468479,28.496806 L22.090408,33.123363 L20.9708991,39.6572695 C20.8968931,40.0881061 21.074059,40.5238794 21.4279422,40.7805862 C21.7813769,41.0377419 22.2500816,41.071401 22.6371553,40.8681 L28.5002242,37.7831302 L34.3623962,40.8681 C34.7454332,41.0691571 35.2145864,41.0404346 35.5720578,40.7805862 C35.9254925,40.5238794 36.1026584,40.0881061 36.0286524,39.6568207 L34.9091435,33.123363 L39.6531521,28.496806 C39.9662198,28.1911812 40.0787986,27.7347637 39.9437938,27.3187371 C39.8083403,26.9031593 39.4490749,26.5997785 39.016252,26.5369482 L39.016252,26.5369482 Z M32.8737543,31.8995177 C32.603296,32.1634051 32.4795042,32.5439775 32.5436427,32.9164717 L33.3720614,37.7508175 L29.0348615,35.468281 C28.7002648,35.2923561 28.3006323,35.2923561 27.9660356,35.468281 L23.6274901,37.7508175 L24.4559088,32.9164717 C24.5195987,32.5439775 24.3962555,32.1638539 24.1257972,31.8995177 L20.6156703,28.4766105 L25.466427,27.7715644 C25.8404937,27.7172609 26.1638774,27.4820959 26.3311758,27.1428121 L28.5002242,22.7451372 L30.6683757,27.1428121 C30.8356741,27.4820959 31.1590578,27.7172609 31.5331245,27.7715644 L36.3838812,28.4766105 L32.8737543,31.8995177 Z" id="Shape"></path>
            </g>
        </g>
    </g>
</svg>