<?xml version="1.0" encoding="UTF-8"?>
<svg width="58px" height="54px" viewBox="0 0 58 54" version="1.1" xmlns="http://www.w3.org/2000/svg" xmlns:xlink="http://www.w3.org/1999/xlink">
    <!-- Generator: Sketch 64 (93537) - https://sketch.com -->
    <title>item-01</title>
    <desc>Created with Sketch.</desc>
    <g id="Welcome" stroke="none" stroke-width="1" fill="none" fill-rule="evenodd">
        <g id="HOME---Servicios---Ventas-Empresariales---Desktop-HD" transform="translate(-450.000000, -580.000000)" fill="#E2241C" fill-rule="nonzero">
            <g id="item-01" transform="translate(450.000000, 580.000000)">
                <path d="M25.7073529,35.7076172 C26.097549,35.3166016 26.097549,34.6833984 25.7073529,34.2923828 C25.3163753,33.9025391 24.6836246,33.9025391 24.2926472,34.2923828 C23.9024509,34.6833984 23.9024509,35.3166016 24.2926472,35.7076172 C24.6836246,36.0974609 25.3163753,36.0974609 25.7073529,35.7076172 L25.7073529,35.7076172 Z" id="Path"></path>
                <path d="M26.1428252,9.2 L26.1428252,11.4 C26.1428252,15.0463282 29.2114897,18 32.9997767,18 C36.7809213,18 39.8571748,15.0394532 39.8571748,11.4 L39.8571748,9.2 C40.4884071,9.2 41,8.70757818 41,8.1 C41,7.49242193 40.4884071,7 39.8571748,7 L37.5715243,7 C36.9402918,7 36.428699,7.49242193 36.428699,8.1 C36.428699,8.70757818 36.9402918,9.2 37.5715243,9.2 L37.5715243,11.4 C37.5715243,13.8260157 35.5206886,15.8 32.9997767,15.8 C30.4752937,15.8 28.4284757,13.8307422 28.4284757,11.4 L28.4284757,9.2 C29.0597082,9.2 29.571301,8.70757818 29.571301,8.1 C29.571301,7.49242193 29.0597082,7 28.4284757,7 L26.1428252,7 C25.5115929,7 25,7.49242193 25,8.1 C25,8.70757818 25.5115929,9.2 26.1428252,9.2 L26.1428252,9.2 Z" id="Path"></path>
                <path d="M13.1654067,53.6684316 C13.3866592,53.889625 13.6760573,54 13.965898,54 C14.2557388,54 14.5455795,53.8891817 14.766832,53.6679883 L18.2453629,50.1834167 C19.3786179,49.0490802 19.9242264,47.4954072 19.7666947,45.9253331 L21.0141159,44.7187431 C22.0039995,43.7630458 23.3054063,43.2364371 24.6780564,43.2364371 L39.5931263,43.2364371 C42.2649708,43.2364371 44.7903463,42.2084862 46.7037374,40.3418622 C46.7320577,40.3143793 46.758608,40.2855665 46.7838308,40.2549807 L56.932238,28.0472332 C58.5447258,26.1358386 58.3035607,23.2660872 56.3937094,21.6490261 C54.4962485,20.0470362 51.6527121,20.2775383 50.0353567,22.1570172 L48.9392721,23.2926836 L48.9392721,1.13477972 C48.9392721,0.507991177 48.431719,0 47.8064596,0 L18.6918503,0 C18.0665909,0 17.5590378,0.507991177 17.5590378,1.13477972 L17.5590378,26.5596079 C13.1720443,27.4820598 9.69262835,30.2099638 7.81862011,34.1976507 C6.34065377,34.1209644 4.89941537,34.6653041 3.82988108,35.7380255 L0.333649851,39.2230404 C0.120362551,39.4358116 0,39.7248258 0,40.0262516 C0,40.3281207 0.119477597,40.6171351 0.332322422,40.8303495 L13.1654067,53.6684316 Z M46.6736471,2.26955944 L46.6736471,25.6393725 L43.3951284,29.0348462 C42.5512715,27.9962569 41.2653524,27.3490777 39.8763295,27.3490777 L26.7418993,27.3490777 C26.6693284,27.3490777 26.5905626,27.3322334 26.5113542,27.3003177 C24.7466447,26.5795552 22.8779465,26.214298 20.9579178,26.214298 C20.5786911,26.214298 20.200792,26.2280395 19.8251053,26.2528628 L19.8251053,2.26955944 L46.6736471,2.26955944 Z M18.8542496,28.6332406 C21.1459825,28.3012289 23.4377153,28.4962692 25.6604173,29.4036496 C26.0135363,29.5463837 26.3777177,29.6190805 26.7418993,29.6190805 L39.8763295,29.6190805 C41.104723,29.6190805 42.1419545,30.6226513 42.1419545,31.8886399 C42.1419545,33.1400005 41.1255207,34.1581994 39.8763295,34.1581994 L30.020418,34.1581994 C29.3951586,34.1581994 28.8876054,34.6661905 28.8876054,35.2929791 C28.8876054,35.9197675 29.3951586,36.4277588 30.020418,36.4277588 L39.8763295,36.4277588 C42.3751545,36.4277588 44.4075796,34.3913611 44.4075796,31.8886399 C44.4075796,31.6882804 44.3929768,31.4892507 44.3673116,31.2928806 C44.6036092,31.05041 51.4509299,23.9562637 51.6881125,23.710247 C51.7053702,23.6920728 51.7226279,23.6734554 51.738558,23.6543946 C52.5456869,22.6995838 53.9789603,22.5790135 54.9325584,23.3839978 C55.8870414,24.1920851 56.0078452,25.6269609 55.1962913,26.588864 L45.081957,38.7558303 C43.5991231,40.1822838 41.6521016,40.9668777 39.5931263,40.9668777 L24.6780564,40.9668777 C22.7155473,40.9668777 20.8561417,41.7186692 19.4410111,43.0852809 L18.941423,43.5684488 C18.7414108,43.2603738 18.5086533,42.9726895 18.2458053,42.7098284 L11.2878584,35.7397986 C10.9161543,35.367449 10.4944472,35.0580442 10.0382246,34.8138005 C11.7688613,31.3943901 14.8602005,29.2148152 18.8542496,28.6332406 L18.8542496,28.6332406 Z M5.43042124,37.344448 C6.62075934,36.1502696 8.52308789,36.1795257 9.68554827,37.3448913 L16.6443802,44.3153643 C17.810823,45.4816165 17.8316208,47.3894649 16.6439376,48.5778807 L13.9650131,51.2610141 L2.73733642,40.0289113 L5.43042124,37.344448 Z" id="Shape"></path>
            </g>
        </g>
    </g>
</svg>