<?xml version="1.0" encoding="UTF-8"?>
<svg width="58px" height="58px" viewBox="0 0 58 58" version="1.1" xmlns="http://www.w3.org/2000/svg" xmlns:xlink="http://www.w3.org/1999/xlink">
    <!-- Generator: Sketch 64 (93537) - https://sketch.com -->
    <title>item-03</title>
    <desc>Created with Sketch.</desc>
    <g id="Welcome" stroke="none" stroke-width="1" fill="none" fill-rule="evenodd">
        <g id="HOME---Servicios---Ventas-Empresariales---Desktop-HD" transform="translate(-450.000000, -766.000000)" fill="#E2241C" fill-rule="nonzero">
            <g id="item-03" transform="translate(450.000000, 766.000000)">
                <path d="M52.3359375,43.7265625 C52.9611969,43.7265625 53.46875,43.2190094 53.46875,42.59375 C53.46875,41.9684906 52.9611969,41.4609375 52.3359375,41.4609375 C51.7106781,41.4609375 51.203125,41.9684906 51.203125,42.59375 C51.203125,43.2190094 51.7106781,43.7265625 52.3359375,43.7265625 Z" id="Path"></path>
                <path d="M52.3359375,39.1953125 C52.9616395,39.1953125 53.46875,38.688202 53.46875,38.0625 L53.46875,29 C53.46875,28.374298 52.9616395,27.8671875 52.3359375,27.8671875 C51.7102355,27.8671875 51.203125,28.374298 51.203125,29 L51.203125,38.0625 C51.203125,38.688202 51.7102355,39.1953125 52.3359375,39.1953125 Z" id="Path"></path>
                <path d="M1.1328125,41.4609375 L2.265625,41.4609375 L2.265625,56.8671875 C2.265625,57.4928895 2.77273554,58 3.3984375,58 L54.6015625,58 C56.4755707,58 58,56.4755707 58,54.6015625 L58,12.4609375 C58,11.8352355 57.4928895,11.328125 56.8671875,11.328125 L48.2578125,11.328125 L48.2578125,10.1953125 C48.2578125,4.57373047 43.684082,0 38.0625,0 C32.4515381,0 27.8671875,4.53965762 27.8671875,10.1953125 L27.8671875,11.328125 L19.2578125,11.328125 C18.6321105,11.328125 18.125,11.8352355 18.125,12.4609375 L18.125,24.4709625 C17.0151978,25.3064117 16.2496642,26.5228576 15.9735412,27.8742676 C15.9354858,27.8702851 15.8974305,27.8671875 15.859375,27.8671875 C15.8213195,27.8671875 15.7837066,27.8698426 15.7460938,27.8707275 C15.221283,25.2869415 12.9317627,23.3359375 10.1953125,23.3359375 C7.07211309,23.3359375 4.53125,25.8768006 4.53125,29 C4.53125,30.2739716 4.95428467,31.4510346 5.66716006,32.3984375 L1.1328125,32.3984375 C0.507110539,32.3984375 0,32.905548 0,33.53125 L0,40.328125 C0,40.953827 0.507110539,41.4609375 1.1328125,41.4609375 Z M4.53125,41.4609375 L10.1953125,41.4609375 L10.1953125,55.734375 L4.53125,55.734375 L4.53125,41.4609375 Z M12.4609375,41.4609375 L19.2578125,41.4609375 L19.2578125,55.734375 L12.4609375,55.734375 L12.4609375,41.4609375 Z M27.1875,55.734375 C24.7577057,55.734375 24.1784668,55.734375 21.5234375,55.734375 L21.5234375,41.4609375 L27.1875,41.4609375 L27.1875,55.734375 Z M21.5234375,39.1953125 L21.5234375,34.6640625 L29.453125,34.6640625 L29.453125,39.1953125 L21.5234375,39.1953125 Z M21.5234375,32.3984375 C21.4844971,32.3984375 21.4459991,32.396225 21.4075012,32.3948975 C21.2406769,31.5749359 20.8950806,30.8036499 20.390625,30.1328125 L20.390625,25.7967071 C20.7530365,25.6688232 21.1358032,25.6015625 21.5234375,25.6015625 C23.3974457,25.6015625 24.921875,27.1259918 24.921875,29 C24.921875,30.8740082 23.3974457,32.3984375 21.5234375,32.3984375 Z M15.7934418,30.133255 L16.7740326,30.2571563 C17.8201142,30.5487671 18.6896362,31.3417358 19.0639953,32.3984375 L12.6582947,32.3984375 C13.1251373,31.0899506 14.3513184,30.1606903 15.7934418,30.133255 Z M19.2578125,34.6640625 L19.2578125,39.1953125 L12.4609375,39.1953125 L12.4609375,34.6640625 L19.2578125,34.6640625 Z M54.6015625,55.734375 L29.453125,55.734375 L29.453125,51.203125 L55.734375,51.203125 L55.734375,54.6015625 C55.734375,55.2263794 55.2263794,55.734375 54.6015625,55.734375 Z M30.1328125,10.1953125 C30.1328125,5.82159424 33.6724091,2.265625 38.0625,2.265625 C42.4348907,2.265625 45.9921875,5.82292178 45.9921875,10.1953125 L45.9921875,11.328125 L30.1328125,11.328125 L30.1328125,10.1953125 Z M27.8671875,13.59375 L27.8671875,18.8046875 L26.734375,18.8046875 C26.108673,18.8046875 25.6015625,19.311798 25.6015625,19.9375 C25.6015625,20.563202 26.108673,21.0703125 26.734375,21.0703125 L31.265625,21.0703125 C31.891327,21.0703125 32.3984375,20.563202 32.3984375,19.9375 C32.3984375,19.311798 31.891327,18.8046875 31.265625,18.8046875 L30.1328125,18.8046875 L30.1328125,13.59375 L45.9921875,13.59375 L45.9921875,18.8046875 L44.859375,18.8046875 C44.233673,18.8046875 43.7265625,19.311798 43.7265625,19.9375 C43.7265625,20.563202 44.233673,21.0703125 44.859375,21.0703125 L49.390625,21.0703125 C50.016327,21.0703125 50.5234375,20.563202 50.5234375,19.9375 C50.5234375,19.311798 50.016327,18.8046875 49.390625,18.8046875 L48.2578125,18.8046875 L48.2578125,13.59375 L55.734375,13.59375 L55.734375,48.9375 L29.453125,48.9375 L29.453125,41.4609375 L30.5859375,41.4609375 C31.2116395,41.4609375 31.71875,40.953827 31.71875,40.328125 L31.71875,33.53125 C31.71875,32.905548 31.2116395,32.3984375 30.5859375,32.3984375 L26.0515899,32.3984375 C26.7644653,31.4510346 27.1875,30.2739716 27.1875,29 C27.1875,25.8768006 24.6466369,23.3359375 21.5234375,23.3359375 C21.1415558,23.3359375 20.7623291,23.3753204 20.390625,23.4509888 L20.390625,13.59375 L27.8671875,13.59375 Z M6.796875,29 C6.796875,27.1259918 8.32130429,25.6015625 10.1953125,25.6015625 C11.8529357,25.6015625 13.2366485,26.7949981 13.5340118,28.3676606 C11.8870087,29.1132812 10.6802979,30.6213379 10.3125763,32.3948975 C10.2736358,32.396225 10.2346954,32.3984375 10.1953125,32.3984375 C8.32130429,32.3984375 6.796875,30.8740082 6.796875,29 Z M2.265625,34.6640625 L10.1953125,34.6640625 L10.1953125,39.1953125 L2.265625,39.1953125 L2.265625,34.6640625 Z" id="Shape"></path>
            </g>
        </g>
    </g>
</svg>