<?xml version="1.0" encoding="UTF-8"?>
<svg width="315px" height="129px" viewBox="0 0 315 129" version="1.1" xmlns="http://www.w3.org/2000/svg" xmlns:xlink="http://www.w3.org/1999/xlink">
    <!-- Generator: Sketch 64 (93537) - https://sketch.com -->
    <title>header-viajes</title>
    <desc>Created with Sketch.</desc>
    <g id="Welcome" stroke="none" stroke-width="1" fill="none" fill-rule="evenodd">
        <g id="HOME---Aliados---Viajes-Éxito---Desktop-HD" transform="translate(-992.000000, -212.000000)" fill-rule="nonzero">
            <g id="header-viajes" transform="translate(992.000000, 212.000000)">
                <path d="M314.237209,64.6348837 C314.237209,29.2372844 285.541785,0.541860465 250.144186,0.541860465 C214.746587,0.541860465 186.051163,29.2372844 186.051163,64.6348837 C186.051163,100.032483 214.746587,128.727907 250.144186,128.727907 C285.541785,128.727907 314.237209,100.032483 314.237209,64.6348837" id="Path" fill="#FFEB00"></path>
                <path d="M221.181395,60.7953488 C220.733515,59.022375 219.953884,57.3502718 218.883721,55.8674419 C217.766177,54.3915487 216.315995,53.2003274 214.651163,52.3906977 C212.851302,51.4903225 210.858474,51.044012 208.846512,51.0906977 C206.978217,51.0554957 205.123626,51.4161106 203.404651,52.1488372 C201.798546,52.8506466 200.356866,53.880418 199.172093,55.172093 C198.014394,56.4163673 197.110677,57.8746364 196.511628,59.4651163 C195.861088,61.1946971 195.533186,63.0288992 195.544186,64.8767442 C195.54872,66.7527627 195.875973,68.6140175 196.511628,70.3790698 C197.108551,71.9886359 198.012064,73.4671119 199.172093,74.7325581 C200.3593,75.9692801 201.804406,76.9292433 203.404651,77.544186 C205.167226,78.230476 207.045936,78.5692598 208.937209,78.5418605 C211.599761,78.6143218 214.225874,77.9105233 216.495349,76.5162791 C217.594455,75.7911496 218.539646,74.8562324 219.276744,73.7651163 C220.09577,72.5308634 220.736946,71.1874464 221.181395,69.7744186 L221.181395,69.2604651 C221.181395,69.2604651 221.181395,69.0186047 221,69.0186047 L214.469767,69.0186047 C214.137209,69.0186047 214.106977,69.2 214.106977,69.2 L214.106977,69.4418605 C214.012585,69.7753531 213.84762,70.0846633 213.623256,70.3488372 C213.292771,70.6969052 212.928149,71.0108854 212.534884,71.2860465 C211.567498,71.9239907 210.428231,72.2510027 209.269767,72.2232558 C208.46877,72.2378858 207.671187,72.1151807 206.911628,71.8604651 C206.29174,71.6669597 205.723408,71.3362936 205.248837,70.8930233 C204.776694,70.406479 204.42471,69.8163882 204.22093,69.1697674 C203.990067,68.4956918 203.84779,67.7944701 203.797674,67.0837209 L221.423256,67.0837209 C221.725581,67.0837209 221.755814,66.7511628 221.755814,66.7511628 L221.755814,66.5395349 C221.755814,66.0860465 221.755814,65.6325581 221.755814,65.2093023 C221.754313,63.7231446 221.581862,62.2420921 221.24186,60.7953488 M204.825581,59.1325581 C205.245943,58.6226045 205.772014,58.2099998 206.367442,57.9232558 C207.782519,57.3471339 209.354305,57.2829794 210.811628,57.7418605 C211.311212,57.9061581 211.759297,58.1979344 212.111628,58.5883721 C212.823898,59.4656907 213.311615,60.5033857 213.532558,61.6116279 L203.737209,61.6116279 C203.737209,61.3395349 203.737209,61.0372093 203.948837,60.7348837 C204.117127,60.1723495 204.394491,59.648439 204.765116,59.1930233" id="Shape" fill="#1E120C"></path>
                <path d="M246.697674,77.6046512 L237.234884,63.9697674 L245.790698,51.8767442 C245.790698,51.8767442 245.790698,51.7255814 245.609302,51.7255814 L236.932558,51.7255814 C236.803601,51.718261 236.679279,51.7747711 236.6,51.8767442 L232.790698,57.6813953 L228.890698,51.8767442 C228.781083,51.7598991 228.62765,51.6941423 228.467442,51.6953325 L219.488372,51.6953325 C219.246512,51.6953325 219.488372,51.8465116 219.488372,51.8465116 L220.062791,52.7232558 L228.013953,64.1813953 L218.64186,77.6046512 C218.64186,77.6046512 218.64186,77.8767442 218.793023,77.8767442 L227.469767,77.8767442 C227.677267,77.882907 227.868101,77.7636358 227.953488,77.5744186 L232.790698,70.6209302 L237.265116,77.6046512 C237.385198,77.7744168 237.572345,77.8845035 237.77907,77.9069767 L246.576744,77.9069767 C246.909302,77.9069767 246.576744,77.6046512 246.576744,77.6046512" id="Path" fill="#1E120C"></path>
                <path d="M257.672093,51.6953488 L247.665116,51.6953488 C247.332558,51.6953488 247.393023,51.9069767 247.393023,51.9069767 L248.813953,77.6046512 C248.813953,77.6046512 248.813953,77.9372093 249.116279,77.9372093 L256.190698,77.9372093 C256.493023,77.9372093 256.493023,77.6046512 256.493023,77.6046512 L257.944186,51.9372093 C257.944186,51.7869365 257.822366,51.6651163 257.672093,51.6651163" id="Path" fill="#1E120C"></path>
                <path d="M276.688372,57.5906977 C276.688372,57.5906977 276.960465,57.5906977 276.960465,57.2581395 L276.960465,51.9372093 C276.960465,51.9372093 276.960465,51.6953488 276.688372,51.6953488 L272.093023,51.6953488 L272.093023,44.5 C272.101661,44.4227593 272.076854,44.345512 272.024861,44.2877416 C271.972867,44.2299712 271.898651,44.197193 271.82093,44.1976744 L264.202326,44.1976744 C264.127515,44.1875569 264.052271,44.212951 263.99889,44.2663317 C263.945509,44.3197125 263.920115,44.3949567 263.930233,44.4697674 L263.930233,51.6953488 L260,51.6953488 C259.637209,51.6953488 259.697674,51.9069767 259.697674,51.9069767 L259.697674,57.2883721 C259.697674,57.2883721 259.697674,57.5906977 259.939535,57.5906977 L263.839535,57.5906977 L263.839535,71.5581395 C263.786352,72.7207334 264.036394,73.8771769 264.565116,74.9139535 C265.003371,75.7600934 265.674809,76.463005 266.5,76.9395349 C267.346162,77.430559 268.281214,77.7490932 269.251163,77.8767442 C270.252288,78.0220128 271.262818,78.0927499 272.274419,78.0885635 L274.390698,78.0885635 C275.058569,78.0634655 275.724633,78.0029142 276.386047,77.9069767 L276.688372,77.9069767 C276.688372,77.9069767 276.930233,77.9069767 276.930233,77.5744186 L276.930233,71.5581395 C276.930233,71.2255814 276.65814,71.3465116 276.65814,71.3465116 L276.144186,71.3465116 L275.116279,71.5581395 L274.05814,71.5581395 C273.636844,71.6157495 273.209668,71.6157495 272.788372,71.5581395 C272.572356,71.5324906 272.370642,71.436942 272.213953,71.2860465 C272.074383,71.1370429 271.989167,70.9453072 271.972093,70.7418605 C271.912544,70.3206992 271.912544,69.8932543 271.972093,69.472093 L271.972093,57.5906977 L276.688372,57.5906977 Z" id="Path" fill="#1E120C"></path>
                <path d="M303.625581,59.1930233 C303.033697,57.5582845 302.106937,56.0651714 300.904651,54.8093023 C299.665274,53.593428 298.195406,52.6374995 296.581395,51.9976744 C294.794867,51.3249219 292.897076,50.9966553 290.988372,51.0302326 C289.089462,50.9960795 287.201465,51.3244269 285.425581,51.9976744 C283.820716,52.6207708 282.367388,53.5793486 281.162791,54.8093023 C279.951742,56.0640096 279.014853,57.556854 278.411628,59.1930233 C277.741143,61.0011645 277.413075,62.9183111 277.444186,64.8465116 C277.407339,66.7751485 277.735588,68.6933545 278.411628,70.5 C279.014594,72.1273664 279.951774,73.6103766 281.162791,74.8534884 C282.368554,76.0890679 283.83535,77.0393863 285.455814,77.6348837 C287.225036,78.2940325 289.100453,78.6219742 290.988372,78.6023256 C292.897831,78.6121951 294.793115,78.2741175 296.581395,77.6046512 C298.199405,76.9866353 299.671535,76.0395302 300.904651,74.8232558 C302.10621,73.5784299 303.033162,72.0953056 303.625581,70.4697674 C304.286758,68.6591394 304.614528,66.7437296 304.593023,64.8162791 C304.609272,62.8892492 304.28166,60.97477 303.625581,59.1627907 M293.588372,71.5581395 C292.787162,71.9773402 291.892337,72.185439 290.988372,72.1627907 C290.094031,72.1856536 289.208918,71.9773917 288.418605,71.5581395 C287.756179,71.172667 287.196233,70.6334593 286.786047,69.9860465 C286.362721,69.2520483 286.056703,68.4564023 285.87907,67.627907 C285.695815,66.7121732 285.604663,65.7803987 285.606934,64.8465116 C285.607538,63.9027569 285.698653,62.9612332 285.87907,62.0348837 C286.059689,61.2168316 286.365624,60.431599 286.786047,59.7069767 C287.206475,59.0494433 287.776188,58.5004466 288.448837,58.1046512 C289.222785,57.6712111 290.102138,57.4618413 290.988372,57.5 C292.706824,57.3967814 294.343505,58.2441407 295.251163,59.7069767 C295.697167,60.419017 296.004871,61.2087904 296.15814,62.0348837 C296.338556,62.9612332 296.429671,63.9027569 296.430276,64.8465116 C296.432546,65.7803987 296.341394,66.7121732 296.15814,67.627907 C295.993676,68.4602631 295.686851,69.2580079 295.251163,69.9860465 C294.829705,70.6347695 294.259691,71.1736923 293.588372,71.5581395" id="Shape" fill="#1E120C"></path>
                <path d="M257.551163,84.2255814 C257.551163,81.5206705 255.358399,79.327907 252.653488,79.327907 C249.948577,79.327907 247.755814,81.5206705 247.755814,84.2255814 C247.755814,86.9304923 249.948577,89.1232558 252.653488,89.1232558 C253.952432,89.1232558 255.198175,88.6072523 256.116667,87.6887602 C257.035159,86.7702681 257.551163,85.5245254 257.551163,84.2255814" id="Path" fill="#E52F2A"></path>
                <path d="M209.934884,44.3488372 L206.095349,49.1860465 C206.095349,49.1860465 205.883721,49.4581395 206.095349,49.4581395 L210.630233,49.4581395 C210.83645,49.4625317 211.038356,49.3987718 211.204651,49.2767442 L217.674419,44.3488372 C217.674419,44.3488372 217.886047,44.1372093 217.674419,44.1372093 L210.418605,44.1372093 C210.231651,44.1195671 210.04881,44.1995597 209.934884,44.3488372" id="Path" fill="#010101"></path>
                <path d="M310.972093,54.2651163 C310.983013,54.828223 310.83642,55.3831849 310.548837,55.8674419 C310.260244,56.3526055 309.854931,56.757918 309.369767,57.0465116 C308.376602,57.6128037 307.158281,57.6128037 306.165116,57.0465116 C305.669336,56.7717868 305.260771,56.363222 304.986047,55.8674419 C304.419754,54.8742767 304.419754,53.6559559 304.986047,52.6627907 C305.249239,52.1584345 305.66076,51.7469136 306.165116,51.4837209 C307.157581,50.9107186 308.380485,50.9112976 309.372406,51.4852395 C310.364328,52.0591815 310.974271,53.1191177 310.972093,54.2651163 M310.367467,54.2651163 C310.370473,53.5743959 310.098531,52.9108579 309.611628,52.4209302 C309.125575,51.9282167 308.45948,51.6552271 307.767442,51.6651163 C307.074048,51.6479736 306.405184,51.9220983 305.923256,52.4209302 C304.920373,53.4341039 304.920373,55.0658961 305.923256,56.0790698 C306.405184,56.5779017 307.074048,56.8520264 307.767442,56.8348837 C308.45948,56.8447729 309.125575,56.5717833 309.611628,56.0790698 C310.091165,55.5965765 310.362506,54.94536 310.367467,54.2651163 M306.286047,52.5418605 L307.827907,52.5418605 C308.172766,52.5116827 308.516779,52.6084366 308.795349,52.8139535 C308.996321,52.987923 309.107517,53.243674 309.097674,53.5093023 C309.094688,53.7338443 309.008508,53.9492947 308.855814,54.1139535 C308.656275,54.2885991 308.41786,54.4129893 308.160465,54.4767442 L308.432558,54.4767442 C308.544794,54.5799133 308.637035,54.7029014 308.704651,54.8395349 L309.27907,55.8069767 L308.372093,55.8069767 C308.009302,55.172093 307.797674,54.7790698 307.706977,54.6581395 C307.631198,54.5435808 307.51029,54.4666394 307.374419,54.4465116 L307.374419,54.4465116 L307.374419,55.7767442 L306.497674,55.7767442 L306.286047,52.5418605 Z M307.162791,53.9930233 L307.525581,53.9930233 C307.702701,54.0487247 307.892648,54.0487247 308.069767,53.9930233 C308.223738,53.8208787 308.223738,53.5605167 308.069767,53.3883721 C307.912881,53.335382 307.742933,53.335382 307.586047,53.3883721 L307.162791,53.3883721 L307.162791,53.9930233 Z" id="Shape" fill="#1E120C"></path>
                <polygon id="Path" fill="#FFFFFF" points="68.2953488 77.2116279 63.8209302 77.2116279 54.4186047 51.6651163 59.1046512 51.6651163 66.2697674 72.827907 66.2697674 72.827907 73.2534884 51.6651163 77.6372093 51.6651163"></polygon>
                <path d="M84.9534884,47.0697674 L80.7511628,47.0697674 L80.7511628,41.9302326 L84.9534884,41.9302326 L84.9534884,47.0697674 Z M80.7511628,51.6651163 L84.9534884,51.6651163 L84.9534884,77.2116279 L80.7511628,77.2116279 L80.7511628,51.6651163 Z" id="Shape" fill="#FFFFFF"></path>
                <path d="M113.22093,77.1209302 C112.300111,77.6362826 111.251117,77.8775513 110.197674,77.8162791 C108.02093,77.8162791 106.660465,76.6372093 106.660465,73.855814 C104.400696,76.4918133 101.06014,77.9505229 97.5906977,77.8162791 C92.9651163,77.8162791 89.155814,75.7302326 89.155814,70.6511628 C89.155814,64.8767442 93.4488372,63.6372093 97.8023256,62.7906977 C102.155814,61.944186 106.388372,62.1860465 106.388372,59.0418605 C106.388372,55.3837209 103.365116,54.7790698 100.704651,54.7790698 C97.1372093,54.7790698 94.6581395,55.8674419 94.3255814,59.6162791 L90.1837209,59.6162791 C90.455814,53.2976744 95.3232558,51.0604651 101.006977,51.0604651 C105.602326,51.0604651 110.62093,52.1186047 110.62093,58.1046512 L110.62093,71.2255814 C110.62093,73.2209302 110.62093,74.0976744 111.951163,74.0976744 C112.386307,74.1024763 112.818021,74.0202451 113.22093,73.855814 L113.22093,77.1209302 Z M106.418605,64.0302326 C104.004576,65.0618806 101.42302,65.6458039 98.8,65.7534884 C96.0186047,66.2372093 93.6604651,67.2348837 93.6604651,70.3488372 C93.6604651,73.4627907 96.0186047,74.0976744 98.5883721,74.0976744 C104.12093,74.0976744 106.418605,70.6511628 106.418605,68.3232558 L106.418605,64.0302326 Z" id="Shape" fill="#FFFFFF"></path>
                <path d="M120.688372,80.627907 C120.951436,82.3409724 120.418509,84.0804561 119.240995,85.3521706 C118.063482,86.6238852 116.370071,87.2888467 114.64186,87.1581395 C113.911061,87.1598499 113.1819,87.0889592 112.465116,86.9465116 L112.465116,83.1976744 C113.048741,83.2428225 113.63498,83.2428225 114.218605,83.1976744 C116.032558,83.1976744 116.576744,82.3209302 116.576744,79.6906977 L116.576744,51.5744186 L120.77907,51.5744186 L120.688372,80.627907 Z M120.688372,47.372093 L116.486047,47.372093 L116.486047,41.9302326 L120.688372,41.9302326 L120.688372,47.372093 Z" id="Shape" fill="#FFFFFF"></path>
                <path d="M148.139535,69.1093023 C147.306086,74.4004848 142.569701,78.1790968 137.225581,77.8162791 C129.062791,77.8162791 125.132558,72.1627907 125.132558,64.3627907 C125.132558,56.5627907 130.151163,51.0604651 137.225581,51.0604651 C146.295349,51.0604651 149.016279,59.5255814 148.774419,65.6930233 L129.395349,65.6930233 C129.130558,67.9123857 129.865675,70.1346532 131.401721,71.7583058 C132.937766,73.3819585 135.115887,74.2390831 137.346512,74.0976744 C140.525411,74.4474938 143.426966,72.2613903 143.967442,69.1093023 L148.139535,69.1093023 Z M144.088372,62.0046512 C144.022196,57.9827927 140.733994,54.7619723 136.711628,54.779002 C134.787261,54.7710349 132.938522,55.5277893 131.572119,56.8828523 C130.205717,58.2379153 129.433583,60.0802845 129.425581,62.0046512 L144.088372,62.0046512 Z" id="Shape" fill="#FFFFFF"></path>
                <path d="M154.337209,69.1697674 C154.337209,72.9186047 157.753488,74.0976744 161.2,74.0976744 C163.830233,74.0976744 167.397674,73.5232558 167.397674,70.2883721 C167.397674,67.0534884 163.255814,66.4790698 159.023256,65.5116279 C154.790698,64.544186 150.67907,63.2139535 150.67907,58.3162791 C150.67907,53.4186047 155.788372,51.0302326 160.232558,51.0302326 C165.855814,51.0302326 170.360465,52.8139535 170.693023,59.0418605 L166.490698,59.0418605 C166.188372,55.7767442 163.467442,54.7488372 160.444186,54.7488372 C157.42093,54.7488372 155.002326,55.444186 155.002326,58.0139535 C155.002326,60.5837209 159.446512,61.5209302 163.346512,62.4581395 C167.246512,63.3953488 171.72093,64.7860465 171.72093,69.7139535 C171.72093,75.7604651 166.037209,77.7860465 160.837209,77.7860465 C155.123256,77.7860465 150.255814,75.4581395 150.013953,69.1395349 L154.337209,69.1697674 Z" id="Path" fill="#FFFFFF"></path>
                <path d="M7.31627907,65.2093023 C7.77607039,64.8825343 8.32434874,64.7032895 8.88837209,64.6953488 C10.1180853,64.6812312 11.2008737,65.5026569 11.5186047,66.6906977 C14.5783911,66.4409625 17.5840837,65.7379361 20.4372093,64.6046512 C20.4372093,64.6046512 20.4372093,64.3325581 20.4372093,64.1813953 C20.4372093,64.0302326 20.4372093,64.1813953 20.4372093,63.9697674 C13.6792332,61.2787334 8.02424407,56.3905225 4.38372093,50.0930233 C2.59106709,52.6566044 1.33637235,55.5568004 0.695348837,58.6186047 C1.71916043,59.9966537 2.85144566,61.2906939 4.08139535,62.4883721 C5.09052026,63.4561047 6.17194789,64.3455031 7.31627907,65.1488372 M47.0116279,64.755814 L46.4372093,64.755814 C40.7316255,69.8803142 33.3936747,72.8154946 25.727907,73.0395349 C20.4683749,73.02273 15.2878271,71.7586763 10.6116279,69.3511628 C9.86919813,69.9224581 8.88509352,70.0716579 8.00669158,69.7460963 C7.12828963,69.4205348 6.47913514,68.6660012 6.28837209,67.7488372 C4.33953211,67.6087155 2.40707131,67.2950701 0.513953488,66.8116279 C2.31011307,79.1708136 13.2209893,88.1300297 25.6934562,87.4871999 C38.165923,86.84437 48.0979186,76.8109141 48.6139535,64.3325581 C48.1515116,64.6503414 47.6029581,64.8191271 47.0418605,64.8162791 M6.34883721,66.6906977 C4.09185966,65.08229 2.05856812,63.1811624 0.302325581,61.0372093 C0.204898514,61.8195325 0.154420519,62.6069892 0.151162791,63.3953488 C0.105131908,64.140375 0.105131908,64.887532 0.151162791,65.6325581 C2.12797949,66.1845838 4.15244284,66.5489872 6.19767442,66.7209302 L6.19767442,66.7209302 M21.1627907,62.4883721 C22.2475479,61.4594945 23.9478009,61.4594945 25.0325581,62.4883721 C27.0305323,61.292587 28.8778391,59.8614317 30.5348837,58.2255814 L30.7162791,58.0744186 C30.3719737,57.6021121 30.2011248,57.025497 30.2325581,56.4418605 C30.2325581,56.4418605 30.2325581,56.4418605 30.2325581,56.2906977 C24.4860629,54.1395723 19.5301392,50.290823 16.0232558,45.255814 C15.7621787,45.2871754 15.4982864,45.2871754 15.2372093,45.255814 C13.8132879,45.2742899 12.6273032,44.1682593 12.5465116,42.7465116 C9.89344641,44.202277 7.52707944,46.1281514 5.5627907,48.4302326 C7.24199468,51.5497259 9.45176859,54.352865 12.0930233,56.7139535 C14.7469746,59.1652147 17.8187994,61.1209432 21.1627907,62.4883721 M44.6232558,63.4860465 C41.3545517,65.2695815 37.7295034,66.3023588 34.0116279,66.5093023 L32.7116279,66.5093023 C30.2428862,66.4557664 27.7882881,66.1210485 25.3953488,65.5116279 C24.909275,66.3167248 24.0381237,66.8096131 23.0976744,66.8116279 C22.2263895,66.8092687 21.4077226,66.3943279 20.8906977,65.6930233 C17.888678,66.8133915 14.743851,67.505457 11.5488372,67.7488372 C11.5488372,67.7488372 11.5488372,67.7488372 11.5488372,67.7488372 C22.509499,73.3650847 35.7473221,72.015253 45.3488372,64.3023256 C45.0154888,64.0450161 44.7464129,63.7138458 44.5627907,63.3348837 M35.1906977,57.8023256 C34.6947644,58.6122122 33.8124535,59.1049313 32.8627907,59.1023256 C32.5099881,59.096209 32.1614099,59.0244429 31.8348837,58.8906977 C29.9434448,60.6579713 27.8535291,62.200045 25.6069767,63.4860465 C25.6210415,63.586331 25.6210415,63.6880876 25.6069767,63.7883721 C27.8971296,64.320219 30.2396239,64.594017 32.5906977,64.6046512 L33.8302326,64.6046512 C37.4348555,64.5277761 40.9971665,63.8112193 44.3511628,62.4883721 L44.3511628,62.1860465 C44.359135,61.4884508 44.6439233,60.8225991 45.1428674,60.3349947 C45.6418115,59.8473902 46.3140333,59.5779821 47.0116279,59.5860465 C47.4756886,59.5854227 47.9326887,59.6996727 48.3418605,59.9186047 C48.3418605,59.1930233 48.0697674,58.4976744 47.8883721,57.8023256 C45.8059283,58.202525 43.6903163,58.4049759 41.5697674,58.4069767 C39.4490163,58.4092157 37.3330011,58.2067263 35.2511628,57.8023256 M35.5837209,56.0488372 C37.5756029,56.4409138 39.6001549,56.643369 41.6302326,56.6534884 C43.5890325,56.6479514 45.5428398,56.4556076 47.4651163,56.0790698 C46.0582694,51.9307541 43.5376814,48.2492314 40.1790698,45.4372093 C39.1428996,48.930829 37.4836583,52.2083427 35.2813953,55.1116279 C35.458843,55.3991065 35.5818246,55.7168091 35.644186,56.0488372 M19.9534884,47.9465116 C23.1022221,50.9702284 26.851544,53.298104 30.9581395,54.7790698 C31.4689746,54.1961085 32.2086436,53.8649134 32.9837209,53.872093 C33.3444313,53.8689472 33.7027935,53.9303807 34.0418605,54.0534884 C36.1425325,51.1279978 37.6803476,47.8370734 38.5767442,44.3488372 C34.4283319,41.4239116 29.4735306,39.8603495 24.3976744,39.8743245 C21.9460474,39.8747039 19.5090422,40.2519809 17.172093,40.9930233 C17.6561992,41.4848013 17.9276469,42.1471337 17.927907,42.8372093 C17.9201006,43.5745125 17.5884078,44.2710673 17.0209302,44.7418605 C17.9134085,45.8856365 18.872431,46.9758936 19.8930233,48.0069767" id="Shape" fill="#FFFFFF"></path>
            </g>
        </g>
    </g>
</svg>