<?xml version="1.0" encoding="UTF-8"?>
<svg width="50px" height="50px" viewBox="0 0 50 50" version="1.1" xmlns="http://www.w3.org/2000/svg" xmlns:xlink="http://www.w3.org/1999/xlink">
    <!-- Generator: Sketch 64 (93537) - https://sketch.com -->
    <title>img-03</title>
    <desc>Created with Sketch.</desc>
    <g id="Welcome" stroke="none" stroke-width="1" fill="none" fill-rule="evenodd">
        <g id="HOME---Dónde-Comprar---exito.com---Desktop-HD" transform="translate(-846.000000, -973.000000)" fill-rule="nonzero">
            <g id="img-03" transform="translate(846.000000, 973.000000)">
                <g id="ico-almacenes-2-copy-2" fill="#FFEB00">
                    <g id="ico-almacenes">
                        <rect id="Rectangle" x="0" y="0" width="50" height="50" rx="10"></rect>
                    </g>
                </g>
                <g id="preview-2" transform="translate(6.000000, 6.000000)" fill="#000000">
                    <g id="preview">
                        <path d="M23.5273438,0 C15.5470886,0 9.0546875,6.49240109 9.0546875,14.4726562 C9.0546875,18.0629883 10.3694611,21.3515167 12.5418091,23.8839417 L11.0739593,25.3517914 L9.4994202,23.7772522 L0,33.2766724 L4.72332764,38 L14.2227478,28.5005798 L12.6482086,26.9260407 L14.1160583,25.4581909 C16.6484833,27.6308288 19.9370117,28.9453125 23.5273438,28.9453125 C31.5075989,28.9453125 38,22.4529114 38,14.4726562 C38,6.49240109 31.5075989,0 23.5273438,0 Z M4.72332764,34.8512116 L3.14878843,33.2766724 L9.4994202,26.9260407 L11.0736694,28.5005798 L4.72332764,34.8512116 Z M23.5273438,26.71875 C16.7748871,26.71875 11.28125,21.2251129 11.28125,14.4726562 C11.28125,7.72019957 16.7748871,2.2265625 23.5273438,2.2265625 C30.2798004,2.2265625 35.7734375,7.72019957 35.7734375,14.4726562 C35.7734375,21.2251129 30.2798004,26.71875 23.5273438,26.71875 Z" id="Shape"></path>
                        <path d="M16.8476562,6.6796875 L16.8476562,22.265625 L30.2070312,22.265625 L30.2070312,11.7848358 L25.101883,6.6796875 L16.8476562,6.6796875 Z M25.7539063,10.4807892 L26.4059295,11.1328125 L25.7539063,11.1328125 L25.7539063,10.4807892 Z M19.0742188,20.0390625 L19.0742188,8.90625 L23.5273438,8.90625 L23.5273438,13.359375 L27.9804688,13.359375 L27.9804688,20.0390625 L19.0742188,20.0390625 Z" id="Shape"></path>
                    </g>
                </g>
            </g>
        </g>
    </g>
</svg>