<?xml version="1.0" encoding="UTF-8"?>
<svg width="50px" height="50px" viewBox="0 0 50 50" version="1.1" xmlns="http://www.w3.org/2000/svg" xmlns:xlink="http://www.w3.org/1999/xlink">
    <!-- Generator: Sketch 64 (93537) - https://sketch.com -->
    <title>img-01</title>
    <desc>Created with Sketch.</desc>
    <g id="Welcome" stroke="none" stroke-width="1" fill="none" fill-rule="evenodd">
        <g id="HOME---Dónde-Comprar---exito.com---Desktop-HD" transform="translate(-244.000000, -973.000000)" fill-rule="nonzero">
            <g id="img-01" transform="translate(244.000000, 973.000000)">
                <g id="ico-almacenes">
                    <rect id="Rectangle" fill="#FFEB00" x="0" y="0" width="50" height="50" rx="10"></rect>
                    <g id="place" transform="translate(12.195122, 8.536585)" fill="#000000">
                        <path d="M24.4222402,5.93699505 C21.8906033,2.16422446 17.8783405,0 13.4150244,0 C8.95170834,0 4.93944555,2.16422446 2.40780857,5.93699505 C-0.111392696,9.6906917 -0.693085628,14.4429688 0.84868239,18.6415682 C1.26106841,19.7881383 1.91659833,20.9020961 2.79240859,21.9459604 L12.5322839,33.726048 C12.7525641,33.9926829 13.0753095,34.1463415 13.4150244,34.1463415 C13.7547393,34.1463415 14.0774846,33.9927496 14.297765,33.726048 L24.03492,21.9491616 C24.9146163,20.899295 25.5693043,19.7865377 25.9782576,18.6491711 C27.5231345,14.4429688 26.9414416,9.6906917 24.4222402,5.93699505 Z M23.8069321,17.8129859 C23.4915705,18.6905202 22.9767194,19.5581174 22.277535,20.3926352 C22.275592,20.3946361 22.2736488,20.3966368 22.2720944,20.3990377 L13.4150244,31.1109851 L4.55251385,20.3923018 C3.85371806,19.5585176 3.33886702,18.6909871 3.02039646,17.8050495 C1.74534835,14.3327267 2.22923966,10.4034966 4.3151992,7.29491235 C6.40770044,4.17639101 9.72466496,2.38784299 13.4150244,2.38784299 C17.1053191,2.38784299 20.421895,4.17632432 22.514461,7.29491235 C24.6008091,10.4034966 25.0850891,14.3327267 23.8069321,17.8129859 Z" id="Shape"></path>
                        <path d="M13.4146341,6.82926829 C9.71641707,6.82926829 6.70731707,9.89267048 6.70731707,13.6585366 C6.70731707,17.4244027 9.71601565,20.4878049 13.4146341,20.4878049 C17.1132527,20.4878049 20.1219512,17.4244027 20.1219512,13.6585366 C20.1219512,9.8930792 17.1128512,6.82926829 13.4146341,6.82926829 Z M13.4146341,18.0487318 C11.0371133,18.0487318 9.10276834,16.079217 9.10276834,13.6584684 C9.10276834,11.23772 11.0371133,9.2682051 13.4146341,9.2682051 C15.792155,9.2682051 17.7265,11.23772 17.7265,13.6584684 C17.7265,16.079217 15.792155,18.0487318 13.4146341,18.0487318 Z" id="Shape"></path>
                    </g>
                </g>
            </g>
        </g>
    </g>
</svg>