<?xml version="1.0" encoding="UTF-8"?>
<svg width="119px" height="50px" viewBox="0 0 119 50" version="1.1" xmlns="http://www.w3.org/2000/svg" xmlns:xlink="http://www.w3.org/1999/xlink">
    <!-- Generator: Sketch 64 (93537) - https://sketch.com -->
    <title>img-04</title>
    <desc>Created with Sketch.</desc>
    <g id="Welcome" stroke="none" stroke-width="1" fill="none" fill-rule="evenodd">
        <g id="HOME---Dónde-Comprar---exito.com---Desktop-HD" transform="translate(-1113.000000, -973.000000)" fill-rule="nonzero">
            <g id="img-04" transform="translate(1113.000000, 973.000000)">
                <path d="M118.127907,25.244186 C118.127907,11.6297248 107.091205,0.593023256 93.4767442,0.593023256 C79.8622829,0.593023256 68.8255814,11.6297248 68.8255814,25.244186 C68.8255814,38.8586473 79.8622829,49.8953488 93.4767442,49.8953488 C107.091205,49.8953488 118.127907,38.8586473 118.127907,25.244186" id="Path" fill="#FFEB00"></path>
                <path d="M82.3255814,23.7674419 C82.1391794,23.0821293 81.82343,22.43879 81.3953488,21.872093 C80.9829653,21.3105677 80.4455267,20.8527496 79.8255814,20.5348837 C79.1328538,20.1899175 78.3667153,20.0183344 77.5930233,20.0348837 C76.8744484,20.0213445 76.1611443,20.1600425 75.5,20.4418605 C74.8822671,20.7117871 74.3277749,21.1078531 73.872093,21.6046512 C73.4146105,22.0914861 73.0588322,22.6646845 72.8255814,23.2906977 C72.5753737,23.9559211 72.4492575,24.6613834 72.4534884,25.372093 C72.4442945,26.0973326 72.5664172,26.8182503 72.8139535,27.5 C73.0435394,28.1190639 73.3910445,28.6877085 73.8372093,29.1744186 C74.2894796,29.649843 74.8414665,30.0191579 75.4534884,30.255814 C76.135434,30.5198356 76.8618287,30.6501129 77.5930233,30.6395349 C78.6136338,30.6692061 79.620462,30.3982925 80.4883721,29.8604651 C80.9135069,29.5845408 81.2775856,29.2244195 81.5581395,28.8023256 C81.8822778,28.3328418 82.129562,27.8147224 82.2906977,27.2674419 L82.3604651,27.0697674 C82.3682989,27.0477344 82.3645736,27.023242 82.350543,27.0045346 C82.3365125,26.9858272 82.3140429,26.975393 82.2906977,26.9767442 L79.755814,26.9767442 C79.6162791,26.9767442 79.6046512,27.0465116 79.6046512,27.0465116 L79.6046512,27.1395349 C79.5635916,27.2682325 79.4962822,27.3870138 79.4069767,27.4883721 C79.2822589,27.6247318 79.1417329,27.7457403 78.9883721,27.8488372 C78.6211818,28.0953717 78.1862974,28.2213663 77.744186,28.2093023 C77.4360481,28.215864 77.1291258,28.1686452 76.8372093,28.0697674 C76.5987908,27.9953423 76.3802015,27.868163 76.1976744,27.6976744 C76.0125533,27.5112149 75.8732387,27.284331 75.7906977,27.0348837 C75.7073613,26.7741725 75.6527735,26.5051328 75.627907,26.2325581 L82.4186047,26.2325581 C82.5349022,26.2325581 82.5349022,26.1046512 82.5349022,26.1046512 L82.5349022,26.0232558 C82.5349022,25.8488372 82.5349022,25.6744186 82.5349022,25.5116279 C82.5362129,24.9392207 82.4658991,24.3688973 82.3255814,23.8139535 M76.0232558,23.1744186 C76.1849333,22.9782826 76.3872683,22.8195885 76.6162791,22.7093023 C76.9118344,22.5759522 77.2340791,22.5122989 77.5581395,22.5232558 C77.818857,22.5156734 78.0788119,22.5550605 78.3255814,22.6395349 C78.5161888,22.7059008 78.6877895,22.8176408 78.8255814,22.9651163 C79.0995315,23.3025465 79.2871148,23.70166 79.372093,24.127907 L75.5813953,24.127907 L75.6511628,23.7906977 C75.7252273,23.5759691 75.8353292,23.3754263 75.9767442,23.1976744" id="Shape" fill="#1E120C"></path>
                <path d="M92.1511628,30.2325581 L88.5,24.9883721 L91.8023256,20.3372093 C91.8023256,20.3372093 91.8023256,20.2790698 91.7325581,20.2790698 L88.372093,20.2790698 C88.322494,20.2762542 88.2746778,20.2979889 88.244186,20.3372093 L86.744186,22.5813953 L85.244186,20.3488372 C85.2020265,20.3038968 85.143014,20.2786057 85.0813953,20.2790698 L81.6860465,20.2790698 C81.5813953,20.2790698 81.6860465,20.3372093 81.6860465,20.3372093 L81.9302326,20.6744186 L84.8837209,25.0697674 L81.3953488,30.2325581 C81.3953488,30.2325581 81.3255814,30.3372093 81.3953488,30.3372093 L84.744186,30.3372093 C84.8224249,30.3341558 84.8932034,30.2899193 84.9302326,30.2209302 L86.7209302,27.5116279 L88.5232558,30.2325581 C88.5667959,30.2950919 88.6340128,30.3371025 88.7093023,30.3488372 L92.1046512,30.3488372 C92.2325581,30.3488372 92.1046512,30.2325581 92.1046512,30.2325581" id="Path" fill="#1E120C"></path>
                <path d="M96.372093,20.2674419 L92.5232558,20.2674419 C92.3837209,20.2674419 92.4069767,20.3488372 92.4069767,20.3488372 L93.0232558,30.2325581 C93.0232558,30.2325581 93.0232558,30.3604651 93.1395349,30.3604651 L95.8604651,30.3604651 C95.9767442,30.3604651 95.9651163,30.2325581 95.9651163,30.2325581 L96.5232558,20.3604651 C96.5232558,20.3604651 96.5232558,20.255814 96.4302326,20.255814" id="Path" fill="#1E120C"></path>
                <path d="M103.686047,22.5348837 C103.686047,22.5348837 103.790701,22.5348837 103.790701,22.4069767 L103.790701,20.3604651 C103.790908,20.3336404 103.779528,20.3080306 103.759479,20.2902087 C103.739429,20.2723868 103.712662,20.2640878 103.686047,20.2674419 L101.860465,20.2674419 L101.860465,17.5 C101.863787,17.4702921 101.854246,17.4405815 101.834249,17.4183621 C101.814251,17.3961428 101.785706,17.3835358 101.755814,17.3837209 L98.8372093,17.3837209 C98.8075014,17.3803989 98.7777908,17.3899398 98.7555715,17.4099373 C98.7333521,17.4299347 98.7207451,17.4584796 98.7209302,17.4883721 L98.7209302,20.2674419 L97.244186,20.2674419 C97.1162791,20.2674419 97.127907,20.3488372 97.127907,20.3488372 L97.127907,22.4186047 C97.1245849,22.4483126 97.1341259,22.4780231 97.1541233,22.5002425 C97.1741208,22.5224619 97.2026656,22.5350689 97.2325581,22.5348837 L98.7209302,22.5348837 L98.7209302,27.9069767 C98.7065581,28.3535977 98.8024038,28.7968844 99,29.1976744 C99.1767511,29.5210082 99.4379834,29.7902785 99.755814,29.9767442 C100.080471,30.1673288 100.440466,30.2899644 100.813953,30.3372093 C101.198983,30.3932532 101.587661,30.4204607 101.976744,30.4186936 L102.790698,30.4186936 C103.047571,30.4090252 103.30375,30.3857362 103.55814,30.3488372 L103.686047,30.3488372 C103.686047,30.3488372 103.77907,30.3488372 103.77907,30.2209302 L103.77907,27.9069767 C103.77907,27.7790698 103.674419,27.8255814 103.674419,27.8255814 L103.476744,27.8255814 L103.116279,27.8255814 L102.709302,27.8255814 C102.547374,27.8492829 102.382858,27.8492829 102.22093,27.8255814 C102.137074,27.8184888 102.058609,27.7813211 102,27.7209302 C101.945928,27.66253 101.909626,27.5899253 101.895349,27.5116279 C101.873335,27.3495815 101.873335,27.1853023 101.895349,27.0232558 L101.895349,22.5348837 L103.686047,22.5348837 Z" id="Path" fill="#1E120C"></path>
                <path d="M114.046512,23.1511628 C113.810084,22.5240487 113.450274,21.950726 112.988372,21.4651163 C112.513707,20.9949626 111.94783,20.6269444 111.325581,20.3837209 C109.942366,19.8875969 108.429727,19.8875969 107.046512,20.3837209 C106.429256,20.6233734 105.870284,20.9920572 105.406977,21.4651163 C104.937542,21.9470382 104.573267,22.5211674 104.337209,23.1511628 C104.08883,23.8487986 103.966766,24.5851163 103.976744,25.3255814 C103.964747,26.0661977 104.08687,26.8028726 104.337209,27.5 C104.573478,28.126459 104.937827,28.6967446 105.406977,29.1744186 C105.868604,29.6467092 106.42829,30.0118944 107.046512,30.244186 C108.429727,30.7403101 109.942366,30.7403101 111.325581,30.244186 C111.950108,30.0108869 112.517182,29.6460557 112.988372,29.1744186 C113.450217,28.6932097 113.810125,28.123686 114.046512,27.5 C114.30081,26.8036046 114.426876,26.0669085 114.418605,25.3255814 C114.424854,24.584416 114.29885,23.8480779 114.046512,23.1511628 M110.174419,27.9069767 C109.870452,28.0682276 109.530024,28.1483283 109.186047,28.1395349 C108.841905,28.149938 108.50107,28.0697415 108.197674,27.9069767 C107.942895,27.7587181 107.727531,27.5513305 107.569767,27.3023256 C107.402195,27.0223107 107.284185,26.7154858 107.22093,26.3953488 C107.150448,26.0431436 107.115389,25.6847687 107.116263,25.3255814 C107.116495,24.9625988 107.151539,24.6004743 107.22093,24.244186 C107.27988,23.9264578 107.398227,23.6226988 107.569767,23.3488372 C107.730425,23.0991013 107.944979,22.8885205 108.197674,22.7325581 C108.499635,22.5660342 108.841513,22.4855924 109.186047,22.5 C109.530467,22.4867739 109.872032,22.5671423 110.174419,22.7325581 C110.435667,22.8814212 110.65552,23.0932798 110.813953,23.3488372 C110.991295,23.6197479 111.11011,23.9247063 111.162791,24.244186 C111.232182,24.6004743 111.267226,24.9625988 111.267458,25.3255814 C111.268332,25.6847687 111.233273,26.0431436 111.162791,26.3953488 C111.104977,26.7170318 110.986601,27.0248097 110.813953,27.3023256 C110.658067,27.5569423 110.43737,27.7656019 110.174419,27.9069767" id="Shape" fill="#1E120C"></path>
                <path d="M96.3139535,32.7790698 C96.3139535,31.7387194 95.4705829,30.8953488 94.4302326,30.8953488 C93.3898822,30.8953488 92.5465116,31.7387194 92.5465116,32.7790698 C92.5465116,33.8194201 93.3898822,34.6627907 94.4302326,34.6627907 C95.4705829,34.6627907 96.3139535,33.8194201 96.3139535,32.7790698" id="Path" fill="#E52F2A"></path>
                <path d="M78.0116279,17.4418605 L76.5348837,19.3023256 C76.5348837,19.3023256 76.4418605,19.4069767 76.5348837,19.4069767 L78.2790698,19.4069767 C78.3587765,19.4115963 78.437402,19.3867672 78.5,19.3372093 L81,17.4418605 C81,17.4418605 81.0930233,17.3604651 81,17.3604651 L78.2093023,17.3604651 C78.1409878,17.355548 78.074996,17.3863441 78.0348837,17.4418605" id="Path" fill="#010101"></path>
                <path d="M116.860465,21.255814 C116.86419,21.4708526 116.812108,21.6831845 116.709302,21.872093 C116.595066,22.0561511 116.439872,22.2113452 116.255814,22.3255814 C116.063223,22.4310083 115.847461,22.4869467 115.627907,22.4883721 C115.190878,22.4850719 114.788276,22.2505893 114.569767,21.872093 C114.334105,21.495034 114.334105,21.0165939 114.569767,20.6395349 C114.670995,20.4455517 114.829273,20.2872745 115.023256,20.1860465 C115.206129,20.0775137 115.415263,20.0212084 115.627907,20.0232558 C116.07324,20.0182249 116.48665,20.2538243 116.709302,20.6395349 C116.812108,20.8284434 116.86419,21.0407753 116.860465,21.255814 M116.627907,21.255814 C116.6345,20.9891242 116.529068,20.7318687 116.337209,20.5465116 C115.947527,20.1607873 115.319915,20.1607873 114.930233,20.5465116 C114.544508,20.9361938 114.544508,21.5638062 114.930233,21.9534884 C115.319915,22.3392127 115.947527,22.3392127 116.337209,21.9534884 C116.526079,21.7709047 116.631253,21.5184876 116.627907,21.255814 M115.116279,20.5930233 L115.709302,20.5930233 C115.838376,20.5809805 115.96721,20.6183837 116.069767,20.6976744 C116.151803,20.7609998 116.195687,20.8619317 116.186047,20.9651163 C116.189221,21.0501276 116.160146,21.1331974 116.104651,21.1976744 C116.027905,21.2648458 115.936207,21.3126882 115.837209,21.3372093 L115.94186,21.3372093 C115.985028,21.3768897 116.020505,21.4241928 116.046512,21.4767442 L116.267442,21.8488372 L115.872093,21.8488372 C115.800679,21.6939516 115.71504,21.5460301 115.616279,21.4069767 C115.591315,21.3588799 115.542515,21.3278255 115.488372,21.3255814 L115.488372,21.3255814 L115.488372,21.8372093 L115.116279,21.8372093 L115.116279,20.5930233 Z M115.453488,21.1511628 L115.593023,21.1511628 C115.657196,21.1724475 115.726525,21.1724475 115.790698,21.1511628 C115.825271,21.1224439 115.845272,21.0798293 115.845272,21.0348837 C115.845272,20.9899382 115.825271,20.9473236 115.790698,20.9186047 C115.73088,20.8952543 115.664469,20.8952543 115.604651,20.9186047 L115.453488,20.9186047 L115.453488,21.1511628 Z" id="Shape" fill="#1E120C"></path>
                <path d="M9.62790698,15.4069693 C5.92084657,15.4069693 2.57902731,17.6406822 1.16148543,21.0660102 C-0.256056461,24.4913382 0.530006586,28.4333286 3.15295792,31.0529513 C5.77590925,33.672574 9.71889458,34.4536307 13.1424198,33.0317403 C16.5659449,31.60985 18.7954021,28.265197 18.7907051,24.5581395 C18.7907051,22.1290843 17.824966,19.7996863 16.1062744,18.0831757 C14.3875827,16.3666651 12.0569603,15.4038903 9.62790698,15.4069693 L9.62790698,15.4069693 Z M15.1627907,22.3837209 C15.4742424,22.3837567 15.7547871,22.5720211 15.8728589,22.8602245 C15.9909307,23.148428 15.9231121,23.4794105 15.7012078,23.6979527 C15.4793035,23.9164948 15.1473242,23.9792526 14.8609568,23.8567948 C14.5745894,23.7343369 14.3906299,23.4509509 14.3953488,23.1395349 C14.3826671,22.937074 14.4519036,22.7380137 14.5874874,22.5871221 C14.7230711,22.4362305 14.9136196,22.3461752 15.1162791,22.3372093 L15.1627907,22.3837209 Z M9.34883721,18.5697674 C9.99102878,18.5697674 10.5116279,19.0903666 10.5116279,19.7325581 C10.5116279,20.3747497 9.99102878,20.8953488 9.34883721,20.8953488 C8.70664564,20.8953488 8.18604651,20.3747497 8.18604651,19.7325581 C8.17278021,19.4079458 8.29592301,19.0925867 8.52565019,18.8628595 C8.75537736,18.6331323 9.07073652,18.5099895 9.39534884,18.5232558 L9.34883721,18.5697674 Z M3.91860465,22.3953488 C4.15480515,22.3953961 4.36750148,22.5383397 4.4567664,22.7570232 C4.54603131,22.9757067 4.49412102,23.2266607 4.32542358,23.3919842 C4.15672615,23.5573077 3.90477471,23.6041381 3.68793902,23.510474 C3.47110333,23.4168099 3.3324853,23.2012695 3.3372093,22.9651163 C3.32235033,22.7954643 3.38415875,22.6280602 3.50570016,22.5087695 C3.62724156,22.3894789 3.79577169,22.33081 3.96511628,22.3488372 L3.91860465,22.3953488 Z M5.19767442,27.4186047 C5.19156656,27.6536391 5.0024763,27.8427294 4.76744186,27.8488372 L2.79069767,27.8488372 C2.55566323,27.8427294 2.36657297,27.6536391 2.36046512,27.4186047 L2.36046512,22.7674419 C2.36046512,22.5747844 2.51664485,22.4186047 2.70930233,22.4186047 C2.9019598,22.4186047 3.05813953,22.5747844 3.05813953,22.7674419 L3.05813953,23.872093 L4.76744186,23.872093 C5.0024763,23.8782009 5.19156656,24.0672911 5.19767442,24.3023256 L5.19767442,27.4186047 Z M11.9651163,28.8372093 C11.9587544,29.3143059 11.5701623,29.6976744 11.0930233,29.6976744 L7.09302326,29.6976744 C6.61588426,29.6976744 6.22729208,29.3143059 6.22093014,28.8372093 L6.22093014,19.2209302 C6.22083024,19.0225465 6.30119439,18.8326045 6.44364738,18.6945347 C6.58610038,18.5564649 6.77846038,18.4820742 6.97674419,18.4883721 C7.1679548,18.4914313 7.35011572,18.570336 7.48314102,18.7077228 C7.61616631,18.8451096 7.68915542,19.0297204 7.68604651,19.2209302 L7.68604651,21.4883721 L11.1744186,21.4883721 C11.6560623,21.4883721 12.0465116,21.8788214 12.0465116,22.3604651 L11.9651163,28.8372093 Z M16.244186,29.6046512 L13.6744186,29.6046512 C13.5233069,29.6046512 13.3783843,29.5446223 13.2715322,29.4377701 C13.1646801,29.330918 13.1046512,29.1859954 13.1046512,29.0348837 L13.1046512,22.7790698 C13.0756756,22.5975345 13.1563417,22.4159649 13.3104771,22.3157806 C13.4646125,22.2155962 13.6632945,22.2155962 13.8174299,22.3157806 C13.9715653,22.4159649 14.0522314,22.5975345 14.0232558,22.7790698 L14.0232558,24.255814 L16.2790698,24.255814 C16.589258,24.2557494 16.8425068,24.5038298 16.8488372,24.8139535 L16.8488372,28.9883721 C16.8488372,29.303046 16.5937436,29.5581395 16.2790698,29.5581395 L16.244186,29.6046512 Z" id="Shape" fill="#975DA1"></path>
                <path d="M21.5116279,20.4651163 L23.0232558,20.4651163 L23.0232558,21.9069767 L23.0232558,21.9069767 C23.7085816,20.8243009 24.9171408,20.1868191 26.1976744,20.2325581 C27.3715074,20.1188999 28.4762824,20.8046223 28.8953488,21.9069767 C29.5643682,20.8599972 30.7226453,20.2282097 31.9651163,20.2325581 C33.9302326,20.2325581 35.244186,21.0581395 35.244186,23.0813953 L35.244186,30.2906977 L33.7209302,30.2906977 L33.7209302,23.8488372 C33.7209302,22.627907 33.3953488,21.6627907 31.8139535,21.6627907 C31.1242441,21.5909137 30.4384399,21.8305741 29.9436229,22.3163945 C29.4488058,22.8022149 29.1966032,23.4835065 29.255814,24.1744186 L29.255814,30.2906977 L27.5930233,30.2906977 L27.5930233,23.8488372 C27.5930233,22.5697674 27.1860465,21.6627907 25.744186,21.6627907 C24.3417855,21.673151 23.1900534,22.7739216 23.1162791,24.1744186 L23.1162791,30.2906977 L21.5116279,30.2906977 L21.5116279,20.4651163 Z" id="Path" fill="#975DA1"></path>
                <path d="M41.6162791,20.2325581 C44.7325581,20.2325581 46.3837209,22.5581395 46.3837209,25.3837209 C46.3837209,28.2093023 44.7325581,30.5232558 41.6162791,30.5232558 C38.5,30.5232558 36.8488372,28.255814 36.8488372,25.3837209 C36.8488372,22.5116279 38.5,20.2325581 41.6162791,20.2325581 Z M41.6162791,29.0930233 C43.3023256,29.0930233 44.6744186,27.7674419 44.6744186,25.3837209 C44.6744186,23 43.3023256,21.6627907 41.6162791,21.6627907 C39.9302326,21.6627907 38.5581395,22.9883721 38.5581395,25.3837209 C38.5581395,27.7790698 39.9186047,29.0697674 41.6162791,29.0697674 L41.6162791,29.0930233 Z M42.0930233,16.3953488 L44.1860465,16.3953488 L41.6976744,19.1162791 L40.4534884,19.1162791 L42.0930233,16.3953488 Z" id="Shape" fill="#975DA1"></path>
                <polygon id="Path" fill="#975DA1" points="52.3255814 30.2906977 50.6395349 30.2906977 46.9883721 20.4651163 48.8372093 20.4651163 51.5930233 28.6046512 51.5930233 28.6046512 54.2790698 20.4651163 55.9651163 20.4651163"></polygon>
                <path d="M58.7906977,18.6976744 L57.1860465,18.6976744 L57.1860465,16.7209302 L58.7906977,16.7209302 L58.7906977,18.6976744 Z M57.1860465,20.4651163 L58.7906977,20.4651163 L58.7906977,30.2906977 L57.1860465,30.2906977 L57.1860465,20.4651163 Z" id="Shape" fill="#975DA1"></path>
                <polygon id="Path" fill="#975DA1" points="61 16.7209302 62.6162791 16.7209302 62.6162791 30.2906977 61 30.2906977"></polygon>
            </g>
        </g>
    </g>
</svg>