<?xml version="1.0" encoding="UTF-8"?>
<svg width="59px" height="54px" viewBox="0 0 59 54" version="1.1" xmlns="http://www.w3.org/2000/svg" xmlns:xlink="http://www.w3.org/1999/xlink">
    <!-- Generator: Sketch 64 (93537) - https://sketch.com -->
    <title>img-11</title>
    <desc>Created with Sketch.</desc>
    <g id="Welcome" stroke="none" stroke-width="1" fill="none" fill-rule="evenodd">
        <g id="HOME---Dónde-Comprar---exito.com---Desktop-HD" transform="translate(-389.000000, -1680.000000)" fill="#000000" fill-rule="nonzero">
            <g id="img-11" transform="translate(389.000000, 1680.000000)">
                <path d="M51.0730415,7.90982503 C45.9623991,2.8102288 39.1643948,0 31.9415154,0 C24.5851036,0 17.7021244,2.89502019 12.5672033,8.15208614 C12.0087958,8.72139973 12.0209351,9.64199192 12.5914819,10.2113055 C13.1620287,10.7685061 14.084615,10.756393 14.6551618,10.1870794 C19.2438146,5.49932705 25.3741577,2.9192463 31.9415154,2.9192463 C45.25832,2.90713324 56.0865696,13.7119785 56.0865696,27 C56.0865696,40.2880215 45.25832,51.0928668 31.9415154,51.0928668 C18.6247107,51.0928668 7.79646109,40.2880215 7.79646109,27 L7.79646109,26.6971736 L10.2000412,29.0955585 C10.4792449,29.3741588 10.855563,29.5195155 11.2318811,29.5195155 C11.6081992,29.5195155 11.972378,29.3741588 12.263721,29.0955585 C12.8342678,28.526245 12.8342678,27.6056528 12.263721,27.0363392 L7.38372512,22.1547779 C6.81317833,21.5854643 5.89059205,21.5854643 5.32004527,22.1547779 L0.427910087,27.0363392 C-0.142636696,27.6056528 -0.142636696,28.526245 0.427910087,29.0955585 C0.707113832,29.3741588 1.08343192,29.5195155 1.45975001,29.5195155 C1.8360681,29.5195155 2.2002469,29.3741588 2.49158994,29.0955585 L4.89517,26.6971736 L4.89517,27 C4.89517,34.2072678 7.71148603,40.9905787 12.8221285,46.090175 C17.9327709,51.1897712 24.7307752,54 31.9536546,54 C39.1765341,54 45.9745383,51.1897712 51.0851808,46.090175 C56.1958233,40.9905787 59,34.2072678 59,27 C59,19.7927322 56.183684,13.0094213 51.0730415,7.90982503 Z" id="Path"></path>
                <path d="M31.9937947,11 C27.1536993,11 23.2195704,14.9545272 23.2195704,19.8197183 L23.2195704,24.0736419 L20.4892601,24.0736419 C19.6701671,24.0736419 19,24.7472837 19,25.5706237 L19,40.5030181 C19,41.3263581 19.6701671,42 20.4892601,42 L43.5107399,42 C44.3298329,42 45,41.3263581 45,40.5030181 L45,25.5830986 C45,24.7597586 44.3298329,24.0861167 43.5107399,24.0861167 L40.7804296,24.0861167 L40.7804296,19.8321932 C40.7804296,14.967002 36.8338902,11 31.9937947,11 Z M26.1980907,19.8321932 C26.1980907,16.6136821 28.8042959,14.0064386 31.9937947,14.0064386 C35.1832936,14.0064386 37.7894988,16.6261569 37.7894988,19.8321932 L37.7894988,24.0861167 L26.1980907,24.0861167 L26.1980907,19.8321932 L26.1980907,19.8321932 Z M42.0214797,39.0060362 L21.9785203,39.0060362 L21.9785203,27.0676056 L42.0214797,27.0676056 L42.0214797,39.0060362 Z" id="Shape"></path>
            </g>
        </g>
    </g>
</svg>