<?xml version="1.0" encoding="UTF-8"?>
<svg width="50px" height="50px" viewBox="0 0 50 50" version="1.1" xmlns="http://www.w3.org/2000/svg" xmlns:xlink="http://www.w3.org/1999/xlink">
    <!-- Generator: Sketch 64 (93537) - https://sketch.com -->
    <title>img-07</title>
    <desc>Created with Sketch.</desc>
    <g id="Welcome" stroke="none" stroke-width="1" fill="none" fill-rule="evenodd">
        <g id="HOME---Dónde-Comprar---exito.com---Desktop-HD" transform="translate(-846.000000, -1202.000000)" fill-rule="nonzero">
            <g id="img-07" transform="translate(846.000000, 1202.000000)">
                <g id="ico-almacenes-2-copy-3" fill="#FFEB00">
                    <g id="ico-almacenes">
                        <rect id="Rectangle" x="0" y="0" width="50" height="50" rx="10"></rect>
                    </g>
                </g>
                <g id="cart" transform="translate(4.000000, 7.000000)" fill="#000000">
                    <path d="M35.0751136,9.3852152 L35.0751136,2.91706736 L28.8249806,2.91706736 L28.8249806,0.910552322 L18.2313448,0.910552322 L18.2313448,3.84104322 L11.9812118,3.84104322 L11.9812118,9.3852152 L9.1672773,9.3852152 L7.49853516,3.84104322 L0.234247543,3.84104322 L0.234247543,6.21711693 L5.55463183,6.21711693 L10.5284345,27 L36.1810488,27 L40,9.3852152 L35.0751136,9.3852152 Z M28.8250608,5.29314107 L32.6704641,5.29314107 L32.6704641,9.3852152 L28.8250608,9.3852152 L28.8250608,5.29314107 Z M20.6360745,3.28662603 L26.420251,3.28662603 L26.420251,9.3852152 L20.6360745,9.3852152 L20.6360745,3.28662603 Z M14.3861018,6.21711693 L18.2315051,6.21711693 L18.2315051,9.3852152 L14.3861018,9.3852152 L14.3861018,6.21711693 L14.3861018,6.21711693 Z M34.2369851,24.6239263 L12.4724179,24.6239263 L9.68269103,11.7612889 L37.0254295,11.7612889 L34.2369851,24.6239263 Z" id="Shape"></path>
                    <path d="M16.5,30 C14.5701524,30 13,31.5700823 13,33.5 C13,35.4299177 14.5700823,37 16.5,37 C18.4299177,37 20,35.4299177 20,33.5 C20,31.5700122 18.4298476,30 16.5,30 Z M16.5,34.8968594 C15.7297855,34.8968594 15.1030705,34.2702145 15.1030705,33.4999299 C15.1030705,32.7296453 15.7297154,32.1030004 16.5,32.1030004 C17.2702145,32.1030004 17.8969295,32.7296453 17.8969295,33.4999299 C17.8969295,34.2702145 17.2702145,34.8968594 16.5,34.8968594 Z" id="Shape"></path>
                    <path d="M30.5,30 C28.5701524,30 27,31.5700823 27,33.5 C27,35.4299177 28.5700823,37 30.5,37 C32.4299177,37 34,35.4299177 34,33.5 C34,31.5700122 32.4299177,30 30.5,30 Z M30.5,34.8968594 C29.7297855,34.8968594 29.1030705,34.2702145 29.1030705,33.4999299 C29.1030705,32.7296453 29.7297154,32.1030004 30.5,32.1030004 C31.2702846,32.1030004 31.8969295,32.7296453 31.8969295,33.4999299 C31.8969295,34.2702145 31.2703547,34.8968594 30.5,34.8968594 Z" id="Shape"></path>
                    <rect id="Rectangle" x="17" y="15" width="2" height="7"></rect>
                    <rect id="Rectangle" x="23" y="15" width="2" height="7"></rect>
                    <rect id="Rectangle" x="29" y="15" width="2" height="7"></rect>
                </g>
            </g>
        </g>
    </g>
</svg>