<?xml version="1.0" encoding="UTF-8"?>
<svg width="217px" height="61px" viewBox="0 0 217 61" version="1.1" xmlns="http://www.w3.org/2000/svg" xmlns:xlink="http://www.w3.org/1999/xlink">
    <!-- Generator: Sketch 64 (93537) - https://sketch.com -->
    <title>img-09</title>
    <desc>Created with Sketch.</desc>
    <g id="Welcome" stroke="none" stroke-width="1" fill="none" fill-rule="evenodd">
        <g id="HOME---Dónde-Comprar---exito.com---Desktop-HD" transform="translate(-1054.000000, -1405.000000)" fill-rule="nonzero">
            <g id="img-09" transform="translate(1054.000000, 1404.000000)">
                <path d="M39.1668966,12.8275862 C38.3249953,11.566684 36.9095846,10.8088579 35.3934483,10.8072414 L20.427931,10.8072414 C20.427931,10.6682759 20.427931,10.5293103 20.427931,10.3903448 C20.1303569,7.53017156 18.6439512,4.92689925 16.3320448,3.21686118 C14.0201384,1.5068231 11.0957819,0.847605498 8.2737931,1.40034483 C3.49658103,2.2922613 0.025104689,6.44995972 0,11.3096552 C0.0125112521,12.6015832 0.247559722,13.8816933 0.694827586,15.0937931 C2.09636895,18.8561522 3.92941268,22.443322 6.15724138,25.7834483 C7.08724138,27.2265517 8.07068966,28.6375862 9.05413793,30.0593103 L9.05413793,30.0593103 L8.84034483,29.76 L8.84034483,47.1093103 L40.6206897,47.1093103 L40.6206897,26.04 C42.0397165,25.1753726 42.9002325,23.6288791 42.8870493,21.9672414 L42.8870493,18.4075862 L39.1668966,12.8275862 Z M20.3103448,13.084135 L35.3934483,13.084135 C36.1521618,13.0829199 36.8616355,13.4597025 37.2855172,14.0889655 L39.6372414,17.6165517 L18.7603448,17.6165517 C18.942069,17.1996552 19.1237931,16.7827586 19.2948276,16.3551724 C19.7413902,15.301356 20.0815844,14.2055727 20.3103448,13.084135 Z M33.8113793,19.8827586 L33.8113793,22.1596552 C33.8113793,23.4112466 32.7967639,24.425862 31.5451724,24.425862 C30.2935809,24.425862 29.2789655,23.4112466 29.2789655,22.1596552 L29.2789655,19.8827586 L33.8113793,19.8827586 Z M27.002069,19.8827586 L27.002069,22.1596552 C27.002069,23.4112467 25.9874536,24.4258621 24.7358621,24.4258621 C23.4842706,24.4258621 22.4696552,23.4112467 22.4696552,22.1596552 L22.4696552,19.8827586 L27.002069,19.8827586 Z M20.2034483,19.8827586 L20.2034483,22.1596552 C20.1705194,23.1900187 19.4463195,24.0683277 18.4411146,24.2970118 C17.4359097,24.525696 16.4030195,24.0471249 15.9275862,23.1324138 C16.5582759,22.0634483 17.1675862,20.9944828 17.7234483,19.9255172 L20.2034483,19.9255172 L20.2034483,19.8827586 Z M18.1937931,18.8137931 L18.3113793,18.567931 C18.2686207,18.6855172 18.2365517,18.7710345 18.1724138,18.8458621 L18.1937931,18.8137931 Z M3.13206897,15.157931 C2.25578366,13.288021 2.05920415,11.1710109 2.5762069,9.17172414 C3.75450036,5.35441061 7.55431305,2.97895884 11.502069,3.59172414 C15.5537673,4.23984768 18.4448239,7.86756783 18.1724138,11.9617241 C17.9156542,13.834593 17.3216939,15.6454475 16.4193103,17.3065517 C14.7003726,20.8211263 12.7021177,24.1920645 10.4437931,27.3868966 L10.2406897,27.6755172 C9.83448276,27.1089655 9.49241379,26.6065517 9.17172414,26.1682759 C6.76617326,22.7274276 4.74110175,19.0357043 3.13206897,15.157931 L3.13206897,15.157931 Z M20.2034483,44.8965517 L15.6603448,44.8965517 L15.6603448,33.5013793 L20.2034483,33.5013793 L20.2034483,44.8965517 Z M22.4482759,44.8965517 L22.4482759,31.2351724 L13.3941379,31.2351724 L13.3941379,44.8965517 L11.127931,44.8965517 L11.127931,30.3051724 C11.1971908,30.2273591 11.2614572,30.145241 11.3203448,30.0593103 C11.8334483,29.3003448 12.3893103,28.552069 12.8917241,27.7931034 C13.3941379,27.0341379 14.0462069,26.072069 14.602069,25.2062069 L14.602069,25.2062069 C15.4652189,26.1799179 16.7091475,26.7301327 18.0102514,26.713715 C19.3113553,26.6972973 20.5410045,26.1158702 21.3793103,25.1206897 C22.2262616,26.1191349 23.4693387,26.6947426 24.7786207,26.6947426 C26.0879026,26.6947426 27.3309798,26.1191349 28.177931,25.1206897 C29.0288866,26.1162149 30.2729314,26.6894223 31.5825862,26.6894223 C32.892241,26.6894223 34.1362859,26.1162149 34.9872414,25.1206897 C35.0834483,25.2275862 35.1689655,25.3451724 35.2651724,25.4413793 C36.0892175,26.247476 37.191172,26.7066237 38.3437931,26.7241379 L38.3437931,26.7241379 L38.3437931,44.8965517 L22.4482759,44.8965517 Z M40.6206897,22.0206897 C40.6561921,23.271623 39.726503,24.3407655 38.4827586,24.4793103 C37.8622544,24.5053609 37.2576205,24.2791807 36.8065554,23.8522798 C36.3554902,23.4253789 36.0963951,22.8341012 36.0882759,22.2131034 L36.0882759,19.8827586 L40.6206897,19.8827586 L40.6206897,22.0206897 Z" id="Shape" fill="#E2241C"></path>
                <path d="M9.62068966,16.3658621 C9.81883043,16.4559528 10.0337241,16.5033022 10.2513793,16.5048276 L10.2513793,16.5048276 C10.6604777,16.4962699 11.0476424,16.3181741 11.3203448,16.0131034 L11.5127586,15.8206897 L13.8965517,13.3086207 C14.1537061,13.0815915 14.3769061,12.8187914 14.5593103,12.5282759 C14.9657593,11.8545084 15.0851227,11.0459174 14.8906897,10.2834483 C14.6124809,9.09721053 13.5940796,8.23048601 12.3786207,8.14551724 C11.6306267,8.09075358 10.8950465,8.35929875 10.3582759,8.88310345 L10.2406897,8.99 C9.82147025,8.53146987 9.26070454,8.22662408 8.64793103,8.12413793 C8.12740216,8.04746907 7.59581913,8.12553371 7.11931034,8.34862069 C6.55753231,8.61534431 6.10191097,9.06343473 5.82586207,9.62068966 C5.51807606,10.2081824 5.41643908,10.8819978 5.53724138,11.5341379 C5.64057947,12.1127292 5.91197821,12.6480911 6.31758621,13.0734483 L7.92103448,14.7624138 L9.07551724,16.0344828 C9.23405853,16.1792162 9.41921442,16.2917619 9.62068966,16.3658621 L9.62068966,16.3658621 Z" id="Path" fill="#E2241C"></path>
                <path d="M24.7358621,40.3106897 L36.0775862,40.3106897 L36.0775862,31.2351724 L24.7358621,31.2351724 L24.7358621,40.3106897 Z M27.002069,33.5013793 L33.8113793,33.5013793 L33.8113793,38.0337931 L27.002069,38.0337931 L27.002069,33.5013793 Z" id="Shape" fill="#E2241C"></path>
                <path d="M57.4462069,20.0217241 L61.0593103,20.8127586 C60.777975,22.2109171 59.9899234,23.4558102 58.8465517,24.3082759 C57.6736871,25.200046 56.2363671,25.6741358 54.7631034,25.6551724 C52.9863287,25.7004237 51.2641223,25.0392195 49.9741379,23.8165517 C48.6708266,22.6021435 47.9573533,20.8827896 48.017931,19.1024138 C47.9649912,17.3296649 48.6777126,15.6199124 49.9741379,14.4096552 C51.263045,13.1840981 52.9850221,12.5191382 54.7631034,12.5603448 C56.217376,12.5469609 57.6349087,13.0169651 58.7931034,13.8965517 C59.9383462,14.7335829 60.74304,15.9558065 61.0593103,17.3386207 L57.3713793,18.1724138 C57.2539171,17.5357665 56.9219295,16.9585607 56.4306897,16.5368966 C55.9488105,16.1833071 55.3601114,16.0059427 54.7631034,16.0344828 C53.9580203,16.0081577 53.1800582,16.3271221 52.6251724,16.9110345 C52.0807219,17.5214557 51.7900979,18.3168478 51.8127586,19.1344828 C51.7845723,19.9594276 52.0755604,20.7634735 52.6251724,21.3793103 C53.1819451,21.9592897 53.9596574,22.2742632 54.7631034,22.2451724 C56.0923157,22.2928701 57.246195,21.3366673 57.4462069,20.0217241 Z" id="Path" fill="#1E120C"></path>
                <path d="M72.9568966,14.4096552 C74.2586151,15.6080942 74.9762282,17.3124255 74.9237931,19.0810345 C74.9827767,20.8601771 74.2648464,22.5769669 72.9568966,23.7844828 C71.6637066,25.0125025 69.9403653,25.6841834 68.1572414,25.6551724 C66.3596383,25.7034428 64.6143058,25.0475047 63.2934483,23.8272414 C61.9715773,22.627879 61.2443863,20.9076423 61.3051724,19.1237931 C61.2509768,17.3504665 61.9778461,15.6427144 63.2934483,14.4524138 C64.6143058,13.2321505 66.3596383,12.5762123 68.1572414,12.6244828 C69.9284608,12.5723663 71.6502323,13.212758 72.9568966,14.4096552 Z M70.2417241,21.3793103 C70.8428243,20.7646807 71.1638108,19.9293424 71.1289655,19.0703448 C71.1580084,18.2134432 70.8332917,17.3823231 70.2310345,16.772069 C69.692752,16.2001868 68.9426048,15.8753808 68.1572414,15.874123 C67.3524066,15.8715885 66.5809564,16.1955976 66.0193103,16.772069 C65.4098551,17.3783694 65.0805966,18.2111997 65.1106897,19.0703448 C65.0758444,19.9293424 65.3968308,20.7646807 65.997931,21.3793103 C66.5574324,21.958922 67.3302865,22.2835207 68.1358621,22.2772414 C68.9331484,22.288876 69.6981469,21.9626838 70.2417241,21.3793103 Z" id="Shape" fill="#1E120C"></path>
                <path d="M95.3517241,13.8965517 C96.2739738,14.8636165 96.7639388,16.1637598 96.7093103,17.4989655 L96.7093103,25.2275862 L92.7968966,25.2275862 L92.7968966,18.3755172 C92.8246933,17.7625207 92.609588,17.1632988 92.1982759,16.707931 C91.8207215,16.2957072 91.2817848,16.0691976 90.7231034,16.087931 C90.0464257,16.0590329 89.3960788,16.3524821 88.97,16.8789655 C88.4832298,17.5660298 88.2525141,18.4019014 88.317931,19.2413793 L88.317931,25.2917241 L84.3734483,25.2917241 L84.3734483,18.3755172 C84.4053238,17.7638334 84.1939743,17.1643695 83.7855172,16.707931 C83.4023277,16.3037825 82.8672005,16.078874 82.3103448,16.087931 C81.6386746,16.0535866 80.9924229,16.348788 80.5786207,16.8789655 C80.0976592,17.569187 79.8641017,18.4017064 79.9158621,19.2413793 L79.9158621,25.2917241 L75.982069,25.2917241 L75.982069,12.9024138 L79.9158621,12.9024138 L79.9158621,14.0355172 C80.8524803,13.0259893 82.1852504,12.478811 83.5610345,12.5389655 C85.2012895,12.4420531 86.759098,13.2662904 87.6017241,14.6768966 C88.6179048,13.2817776 90.259484,12.4810073 91.9844828,12.5389655 C93.2482083,12.4959032 94.4712595,12.9890064 95.3517241,13.8965517 L95.3517241,13.8965517 Z" id="Path" fill="#1E120C"></path>
                <path d="M110.456207,14.3882759 C111.654808,15.6509019 112.297741,17.3410081 112.241379,19.0810345 C112.309262,20.8253358 111.673774,22.5238228 110.477586,23.7951724 C109.380655,24.9910926 107.824308,25.6603218 106.201724,25.6337931 C104.792583,25.6898533 103.415491,25.2040458 102.353448,24.2762069 L102.353448,29.45 L98.4089655,29.45 L98.4089655,12.9024138 L102.342759,12.9024138 L102.342759,13.8965517 C103.404802,12.9687128 104.781894,12.4829053 106.191034,12.5389655 C107.811296,12.5196099 109.362872,13.1923486 110.456207,14.3882759 L110.456207,14.3882759 Z M107.516552,21.3793103 C108.092415,20.7480498 108.392544,19.9130764 108.350345,19.0596552 C108.386798,18.2135186 108.087059,17.3873163 107.516552,16.7613793 C106.967931,16.1660703 106.187787,15.8384097 105.378621,15.8634483 C104.570428,15.8548169 103.795376,16.1842138 103.24069,16.772069 C102.643295,17.3811163 102.319172,18.2068585 102.342759,19.0596552 C102.307751,19.923886 102.632917,20.7638977 103.24069,21.3793103 C103.799462,21.9599854 104.572796,22.2847854 105.378621,22.2772414 C106.186999,22.2980602 106.96547,21.9711023 107.516552,21.3793103 Z" id="Shape" fill="#1E120C"></path>
                <path d="M122.364483,12.8275862 L122.182759,16.7613793 L121.477241,16.7613793 C118.626667,16.7613793 117.201379,18.3042529 117.201379,21.39 L117.201379,25.2489655 L113.310345,25.2489655 L113.310345,12.9024138 L117.244138,12.9024138 L117.244138,15.2755172 C118.073203,13.6867108 119.728131,12.7020286 121.52,12.7313793 C121.804457,12.7270658 122.088285,12.7594007 122.364483,12.8275862 Z" id="Path" fill="#1E120C"></path>
                <path d="M136.047241,25.2596552 L132.113448,25.2596552 L132.113448,24.2762069 C131.057364,25.2091944 129.684241,25.7026007 128.275862,25.6551724 C126.653006,25.6830826 125.096116,25.0136199 124,23.8165517 C122.803812,22.5452021 122.168324,20.8467151 122.236207,19.1024138 C122.168324,17.3581125 122.803812,15.6596255 124,14.3882759 C125.095009,13.1884033 126.651617,12.5151701 128.275862,12.5389655 C129.685003,12.4829053 131.062095,12.9687128 132.124138,13.8965517 L132.124138,12.9024138 L136.057931,12.9024138 L136.047241,25.2596552 Z M131.204828,21.3793103 C131.817065,20.7704524 132.146556,19.9331581 132.113448,19.0703448 C132.137976,18.2153226 131.809338,17.3879293 131.204828,16.7827586 C130.65168,16.1926968 129.87561,15.8628671 129.066897,15.8741379 C128.25773,15.8490993 127.477586,16.1767599 126.928966,16.772069 C126.358458,17.3980059 126.05872,18.2242083 126.095172,19.0703448 C126.052974,19.923766 126.353102,20.7587394 126.928966,21.39 C127.481954,21.97785 128.260169,22.3008092 129.066897,22.2772414 C129.873476,22.2886459 130.648283,21.9632266 131.204828,21.3793103 L131.204828,21.3793103 Z" id="Shape" fill="#1E120C"></path>
                <path d="M59.862069,44.5651724 C58.4292483,45.5956881 56.6984644,46.1288146 54.9341379,46.0831034 C53.2558492,46.1528078 51.6029179,45.6557988 50.2413793,44.672069 C49.0538949,43.7966033 48.3709181,42.3947035 48.4134483,40.92 C48.4332094,39.0892599 49.5254029,37.4405079 51.2034483,36.7082759 C50.4687447,35.7989074 50.058676,34.670278 50.0382759,33.5013793 C50.0043272,32.2136948 50.5736876,30.9840345 51.5775862,30.1768966 C52.6799642,29.2877459 54.0636204,28.8214727 55.4793103,28.862069 C56.859091,28.7843592 58.2153398,29.2441045 59.2634483,30.1448276 C60.1926579,31.0488417 60.7816372,32.2456779 60.9310345,33.5334483 L57.2858621,34.1748276 C57.1789655,32.7317241 56.5589655,32.0368966 55.4472414,32.0368966 C55.0084785,32.0200773 54.5787563,32.1645857 54.2393103,32.4431034 C53.9175376,32.7335598 53.7446034,33.1541044 53.7689655,33.5868966 C53.7695622,34.0444138 53.9073341,34.4912414 54.1644828,34.8696552 C54.5940671,35.4234116 55.0935011,35.9192527 55.6503448,36.3448276 L59.1458621,39.37 C59.2485713,38.9031495 59.2987681,38.42628 59.2955172,37.9482759 L59.2955172,36.8793103 L62.8551724,36.8793103 L62.8551724,37.9482759 C62.8801072,39.3105155 62.6026419,40.6613334 62.0427586,41.9034483 L64.2662069,43.8275862 L62,46.4037931 L59.862069,44.5651724 Z M57.2217241,42.2668966 L53.4482759,38.9424138 C52.7527359,39.2921788 52.3023093,39.9923875 52.2724138,40.7703448 C52.2583498,41.3821668 52.5461466,41.9617575 53.042069,42.3203448 C53.6531908,42.7405282 54.3859379,42.9472005 55.1265517,42.9082759 C55.8798161,42.9074471 56.6160846,42.6843355 57.2431034,42.2668966 L57.2217241,42.2668966 Z" id="Shape" fill="#1E120C"></path>
                <path d="M78.8362069,33.2875862 L78.6651724,37.2213793 L77.9489655,37.2213793 C75.1162069,37.2213793 73.6731034,38.7713793 73.6731034,41.85 L73.6731034,45.7196552 L69.75,45.7196552 L69.75,33.3624138 L73.6944828,33.3624138 L73.6944828,35.7248276 C74.5264842,34.1401647 76.1808208,33.1599703 77.9703448,33.1913793 C78.2617477,33.1892261 78.552384,33.221519 78.8362069,33.2875862 L78.8362069,33.2875862 Z" id="Path" fill="#1E120C"></path>
                <path d="M91.6424138,40.5458621 L82.5775862,40.5458621 C82.7032232,41.2178354 83.0403072,41.8320774 83.5396552,42.2989655 C84.0023819,42.7238047 84.6112743,42.9535754 85.2393103,42.9403448 C86.3207273,43.0189912 87.3485238,42.4591346 87.8689655,41.507931 L91.3644828,42.2241379 C90.9117947,43.4206668 90.0778489,44.4349252 88.9913793,45.1103448 C87.8571504,45.7812223 86.5566205,46.1183967 85.2393103,46.0831034 C83.5133012,46.1215827 81.844664,45.4626059 80.6106897,44.2551724 C79.348769,43.0217624 78.6623488,41.3154071 78.7186207,39.5517241 C78.6610203,37.7878062 79.3476478,36.0809355 80.6106897,34.8482759 C81.8463482,33.6276447 83.5242274,32.9603502 85.2606897,32.9989655 C86.951996,32.9494728 88.5898266,33.5945618 89.7931034,34.7841379 C91.0235286,36.0612974 91.6897808,37.7789188 91.6424138,39.5517241 L91.6424138,40.5458621 Z M83.6572414,36.7082759 C83.1687297,37.0524895 82.8138435,37.5546157 82.6524138,38.13 L87.7513793,38.13 C87.6118891,37.555624 87.2799097,37.0463375 86.8106897,36.6868966 C86.3628313,36.3556708 85.8175845,36.182696 85.2606897,36.1951724 C84.6856803,36.1941877 84.1248558,36.3736515 83.6572414,36.7082759 Z" id="Shape" fill="#1E120C"></path>
                <path d="M101.316552,40.4710345 L104.929655,41.262069 C104.64832,42.6602274 103.860268,43.9051205 102.716897,44.7575862 C101.542824,45.6446881 100.104703,46.1115128 98.6334483,46.0831034 C96.8587808,46.1277253 95.1380662,45.4709346 93.8444828,44.2551724 C92.5931098,43.0076636 91.8897701,41.3133576 91.8897701,39.5463793 C91.8897701,37.779401 92.5931098,36.085095 93.8444828,34.8375862 C95.1333898,33.6120292 96.8553669,32.9470693 98.6334483,32.9882759 C100.069164,32.9766722 101.46933,33.4346353 102.62069,34.2924138 C103.76665,35.133433 104.57119,36.3592189 104.886897,37.7451724 L101.198966,38.6324138 C101.079731,37.9934028 100.748274,37.413353 100.258276,36.9862069 C99.7820411,36.6173776 99.1928271,36.4247499 98.5906897,36.4410345 C97.7872436,36.4119437 97.0095313,36.7269172 96.4527586,37.3068966 C95.9147415,37.9276153 95.6354269,38.7311231 95.6724138,39.5517241 C95.6390918,40.3742634 95.9309424,41.1768527 96.4848276,41.7858621 C97.0416002,42.3658414 97.8193126,42.6808149 98.6227586,42.6517241 C99.9420377,42.707871 101.096769,41.7730887 101.316552,40.4710345 Z" id="Path" fill="#1E120C"></path>
                <path d="M116.816552,34.8589655 C118.082094,36.0923395 118.795837,37.7845767 118.795837,39.5517241 C118.795837,41.3188716 118.082094,43.0111087 116.816552,44.2444828 C115.514912,45.453036 113.79256,46.1051512 112.016897,46.0617241 C110.225005,46.1067055 108.485441,45.455327 107.163793,44.2444828 C105.892771,43.0140797 105.175203,41.3207319 105.175203,39.5517241 C105.175203,37.7827164 105.892771,36.0893686 107.163793,34.8589655 C108.485441,33.6481213 110.225005,32.9967428 112.016897,33.0417241 C113.79256,32.9982971 115.514912,33.6504123 116.816552,34.8589655 Z M114.112069,41.8393103 C115.301355,40.5338098 115.301355,38.5375695 114.112069,37.232069 C113.570493,36.6585468 112.816403,36.3337077 112.027586,36.3341052 C111.222506,36.3303558 110.450593,36.6545591 109.889655,37.232069 C108.685057,38.5316028 108.685057,40.5397765 109.889655,41.8393103 C110.448428,42.4199854 111.221761,42.7447854 112.027586,42.7372414 C112.817193,42.7415326 113.572756,42.4160591 114.112069,41.8393103 L114.112069,41.8393103 Z" id="Shape" fill="#1E120C"></path>
                <path d="M132.551724,44.4903448 C132.628492,46.1544893 131.92492,47.7592658 130.648966,48.8303448 C129.215421,49.9279675 127.438771,50.4810399 125.635517,50.3910345 C122.699425,50.3910345 120.632759,49.4004598 119.435517,47.4193103 L122.706552,45.6448276 C123.077204,46.1241516 123.533974,46.5301692 124.053448,46.842069 C124.540154,47.0743904 125.075023,47.1879585 125.614138,47.1734483 C126.429906,47.2086211 127.227338,46.9249192 127.837586,46.3824138 C128.428983,45.8030441 128.740822,44.9961593 128.692759,44.1696552 L128.692759,43.8275862 C127.635553,44.6561172 126.314099,45.0738182 124.972759,45.0034483 C123.401705,45.0202182 121.89194,44.3946891 120.793103,43.2717241 C119.651395,42.1450958 119.021601,40.5995901 119.05069,38.9958621 C119.002077,37.3885533 119.634929,35.835543 120.793103,34.72 C121.907493,33.6030942 123.427241,32.985938 125.004828,33.0096552 C126.345895,32.9430277 127.66508,33.3688163 128.714138,34.2068966 L128.714138,33.3944828 L132.551724,33.3944828 L132.551724,44.4903448 Z M127.848276,40.9841379 C128.40993,40.4564277 128.717551,39.7126858 128.692759,38.9424138 C128.712135,38.1855959 128.404393,37.4571434 127.848276,36.9434483 C127.302318,36.4138934 126.566961,36.1251407 125.806552,36.1417241 C125.017089,36.1107203 124.247777,36.3953657 123.668621,36.9327586 C123.122167,37.4559416 122.823063,38.1862207 122.845517,38.9424138 C122.822085,39.7102992 123.125048,40.4521696 123.67931,40.9841379 C124.258466,41.5215308 125.027778,41.8061763 125.817241,41.7751724 C126.579177,41.793914 127.317386,41.509396 127.869655,40.9841379 L127.848276,40.9841379 Z" id="Shape" fill="#1E120C"></path>
                <path d="M146.587241,40.5458621 L137.522414,40.5458621 C137.648051,41.2178354 137.985135,41.8320774 138.484483,42.2989655 C138.948378,42.7219032 139.556481,42.9513761 140.184138,42.9403448 C141.265555,43.0189912 142.293351,42.4591346 142.813793,41.507931 L146.30931,42.2241379 C145.856622,43.4206668 145.022676,44.4349252 143.936207,45.1103448 C142.801978,45.7812223 141.501448,46.1183967 140.184138,46.0831034 C138.458129,46.1215827 136.789492,45.4626059 135.555517,44.2551724 C134.277882,43.029178 133.575553,41.3218586 133.62069,39.5517241 C133.563089,37.7878062 134.249717,36.0809355 135.512759,34.8482759 C136.748417,33.6276447 138.426296,32.9603502 140.162759,32.9989655 C141.848499,32.9569315 143.478178,33.6057139 144.673793,34.7948276 C145.929141,36.056132 146.619533,37.7724704 146.587241,39.5517241 L146.587241,40.5458621 Z M138.612759,36.7082759 C138.117691,37.0481143 137.758148,37.5514752 137.597241,38.13 L142.696207,38.13 C142.556717,37.555624 142.224737,37.0463375 141.755517,36.6868966 C141.307659,36.3556708 140.762412,36.182696 140.205517,36.1951724 C139.633819,36.1942583 139.076419,36.3738233 138.612759,36.7082759 L138.612759,36.7082759 Z" id="Shape" fill="#1E120C"></path>
                <path d="M216.818278,31.4596552 C216.818278,14.669437 203.207115,1.05827586 186.416897,1.05827586 C169.626678,1.05827586 156.015517,14.669437 156.015517,31.4596552 C156.015517,48.2498733 169.626678,61.8610364 186.416897,61.8610364 C194.480713,61.8638714 202.215071,58.6617891 207.917051,52.9598094 C213.61903,47.2578298 216.821113,39.5234716 216.818278,31.4596552" id="Path" fill="#FFEB00"></path>
                <path d="M172.68069,29.6531034 C172.478169,28.8112978 172.115221,28.0164422 171.611724,27.312069 C171.095804,26.612506 170.421854,26.044777 169.644828,25.6551724 C168.787277,25.2349954 167.841648,25.0260772 166.886897,25.0458621 C166.002486,25.0314496 165.124876,25.2026017 164.31069,25.5482759 C162.782932,26.1943244 161.591001,27.4443047 161.018276,29.0010345 C160.705987,29.8236591 160.550096,30.6973762 160.558621,31.5772414 C160.55093,32.465617 160.699274,33.3484441 160.996897,34.1855172 C161.276103,34.9533836 161.704834,35.6582471 162.258276,36.2593103 C162.822447,36.8462431 163.508435,37.3023525 164.267931,37.5955172 C165.103185,37.9169941 165.991977,38.076614 166.886897,38.0658621 C168.148671,38.0997118 169.392999,37.7654147 170.467931,37.1037931 C170.989281,36.7661377 171.436602,36.3260898 171.782759,35.8103448 C172.180089,35.2256773 172.486447,34.5841291 172.691379,33.9075862 L172.776897,33.6617241 C172.776897,33.6617241 172.776897,33.5441379 172.68069,33.5441379 L169.473793,33.5441379 C169.302759,33.5441379 169.292069,33.6403448 169.292069,33.6403448 L169.292069,33.7472414 C169.24097,33.9054183 169.157207,34.0510939 169.046207,34.1748276 C168.899518,34.3502133 168.726409,34.5016835 168.533103,34.6237931 C168.080417,34.9228662 167.546867,35.0758422 167.004483,35.062069 C166.620628,35.0697075 166.238043,35.0155681 165.871379,34.9017241 C165.58049,34.8028349 165.314331,34.6424107 165.091034,34.4313793 C164.867219,34.1997543 164.695869,33.9226778 164.588621,33.6189655 C164.484663,33.3002109 164.420046,32.9699472 164.396207,32.6355172 L172.766207,32.6355172 C172.905172,32.6355172 172.905172,32.4751724 172.905172,32.4751724 L172.905172,32.3682759 C172.905172,32.1544828 172.905172,31.9513793 172.905172,31.7482759 C172.914611,31.0280692 172.831988,30.3096081 172.65931,29.6103448 M164.898621,28.862069 C165.095722,28.6187434 165.343868,28.4216858 165.625517,28.2848276 C165.990016,28.1159184 166.389211,28.035347 166.79069,28.0496552 C167.114109,28.0437967 167.436068,28.0944419 167.742069,28.1993103 C167.977837,28.2778006 168.188247,28.4180735 168.351379,28.6055172 C168.694165,29.0069413 168.929548,29.4887412 169.035517,30.0058621 L164.417586,30.0058621 C164.441812,29.8652023 164.473931,29.7260169 164.513793,29.5889655 C164.590296,29.3226111 164.721346,29.0750734 164.898621,28.862069" id="Shape" fill="#221E20"></path>
                <path d="M184.792069,37.6489655 L180.302414,31.2351724 L184.353793,25.452069 C184.353793,25.452069 184.353793,25.387931 184.268276,25.387931 L180.163448,25.387931 C180.097345,25.3816931 180.032696,25.409977 179.992414,25.4627586 L178.153793,28.2206897 L176.293793,25.4734483 C176.245724,25.4175306 176.175096,25.3861402 176.101379,25.387931 L171.825517,25.387931 C171.707931,25.387931 171.825517,25.4627586 171.825517,25.4627586 L172.103448,25.8689655 L175.876897,31.2993103 L171.483448,37.7131034 C171.483448,37.7131034 171.397931,37.8307885 171.547586,37.8307885 L175.663103,37.8307885 C175.761688,37.8334204 175.853112,37.7793976 175.898276,37.6917241 L178.111034,34.3565517 L180.313103,37.6917241 C180.367868,37.7697037 180.453551,37.8203345 180.548276,37.8307885 L184.727931,37.8307885 C184.888276,37.8307885 184.792069,37.6917241 184.792069,37.6917241" id="Path" fill="#221E20"></path>
                <path d="M189.987241,25.3237931 L185.241034,25.3237931 C185.08069,25.3237931 185.112759,25.4413793 185.112759,25.4413793 L185.786207,37.6382759 C185.786207,37.6382759 185.786207,37.787931 185.935862,37.787931 L189.281724,37.787931 C189.431379,37.787931 189.431379,37.6275862 189.431379,37.6275862 L190.104828,25.4627586 C190.104828,25.4627586 190.104828,25.3237931 189.987241,25.3237931" id="Path" fill="#221E20"></path>
                <path d="M199.00931,28.1244828 C199.047381,28.1250159 199.083722,28.1086089 199.108501,28.0797003 C199.13328,28.0507917 199.143936,28.0123693 199.137586,27.9748276 L199.137586,25.452069 C199.137586,25.452069 199.137586,25.3344828 199.00931,25.3344828 L196.753793,25.3344828 L196.753793,21.9137931 C196.75679,21.8779614 196.74461,21.8425169 196.720221,21.8160957 C196.695832,21.7896745 196.661474,21.7748268 196.625517,21.7748268 L193.012414,21.7748268 C192.976457,21.7748268 192.942099,21.7896745 192.91771,21.8160957 C192.893321,21.8425169 192.881141,21.8779614 192.884138,21.9137931 L192.884138,25.3344828 L191.056207,25.3344828 C190.895862,25.3344828 190.917241,25.4413793 190.917241,25.4413793 L190.917241,27.9855172 C190.910823,28.0202033 190.920315,28.0559385 190.943101,28.0828668 C190.965886,28.1097952 190.999558,28.1250716 191.034828,28.1244828 L192.884138,28.1244828 L192.884138,34.7948276 C192.865741,35.3445989 192.979374,35.8907728 193.215517,36.3875862 C193.432835,36.7864592 193.754238,37.1189447 194.145517,37.3496552 C194.546785,37.5809606 194.990137,37.7299558 195.449655,37.787931 C195.937807,37.8622687 196.431059,37.8980116 196.924828,37.8948276 C197.256207,37.8948276 197.587586,37.8948276 197.918966,37.8948276 C198.24105,37.8851291 198.562289,37.8565745 198.881034,37.8093103 L199.02,37.8093103 C199.02,37.8093103 199.137586,37.8093103 199.137586,37.6596552 L199.137586,34.6986207 C199.137586,34.5382759 199.00931,34.5917241 199.00931,34.5917241 L198.763448,34.6451724 L198.314483,34.7093103 L197.822759,34.7093103 C197.617678,34.7158781 197.412666,34.6942978 197.213448,34.6451724 C197.11287,34.6323367 197.019132,34.5873426 196.946207,34.5168966 C196.875185,34.4486996 196.829875,34.3580807 196.817931,34.2603448 C196.774833,34.060118 196.75333,33.8558467 196.753793,33.6510345 L196.753793,28.1244828 L199.00931,28.1244828 Z" id="Path" fill="#221E20"></path>
                <path d="M211.783448,28.862069 C211.505214,28.0650303 211.06067,27.3362696 210.47931,26.7241379 C209.89596,26.1739787 209.204197,25.7516392 208.448276,25.4841379 C207.603056,25.1583708 206.702941,24.9986729 205.797241,25.0137931 C204.898497,24.9987381 204.005391,25.1584807 203.167586,25.4841379 C201.611742,26.0662729 200.388992,27.3007427 199.821724,28.862069 C199.211236,30.5913805 199.211236,32.477585 199.821724,34.2068966 C200.092827,35.0072877 200.538258,35.7375021 201.125862,36.3448276 C201.702187,36.9245038 202.394248,37.3761645 203.156897,37.6703448 C204.862513,38.2692726 206.72128,38.2692726 208.426897,37.6703448 C209.198529,37.3815078 209.898642,36.9293518 210.47931,36.3448276 C211.063051,35.7345231 211.507929,35.0052161 211.783448,34.2068966 C212.393937,32.477585 212.393937,30.5913805 211.783448,28.862069 M207.015862,34.72 C206.638081,34.9202674 206.213742,35.016205 205.786552,34.997931 C205.366152,35.0165689 204.948601,34.9204951 204.578621,34.72 C204.258694,34.5415493 203.989987,34.2838854 203.798276,33.9717241 C203.595816,33.6424007 203.4512,33.2808618 203.37069,32.9027586 C203.284104,32.4662632 203.241134,32.02224 203.242386,31.5772414 C203.242214,31.1287556 203.28517,30.6812912 203.37069,30.2410345 C203.447566,29.861836 203.592429,29.4996791 203.798276,29.172069 C204.212409,28.4755322 204.977125,28.0643944 205.786552,28.1031034 C206.214714,28.088107 206.639111,28.187748 207.015862,28.3917241 C207.333526,28.5816592 207.603985,28.8411539 207.806897,29.1506897 C208.007707,29.4808399 208.152207,29.8420908 208.234483,30.2196552 C208.320002,30.6599118 208.362959,31.1073763 208.362786,31.5558621 C208.364039,32.0008606 208.321069,32.4448839 208.234483,32.8813793 C208.149481,33.258102 208.005152,33.6189234 207.806897,33.9503448 C207.606643,34.2592659 207.335423,34.5158248 207.015862,34.6986207" id="Shape" fill="#221E20"></path>
                <path d="M189.933818,40.7596552 C189.938121,39.816158 189.373103,38.9631544 188.502665,38.5990908 C187.632226,38.2350272 186.628155,38.4317544 185.959463,39.0973792 C185.29077,39.763004 185.089429,40.76616 185.449487,41.6382633 C185.809544,42.5103666 186.659941,43.0793103 187.603448,43.0793103 C188.886299,43.0793103 189.927908,42.0424925 189.933818,40.7596552" id="Path" fill="#E2241C"></path>
                <path d="M167.357241,21.8710345 L165.52931,24.147931 C165.52931,24.147931 165.422414,24.2868966 165.52931,24.2868966 L167.667241,24.2868966 C167.765161,24.2890225 167.860387,24.2547412 167.934483,24.1906897 L171.034483,21.8710345 C171.034483,21.8710345 171.141379,21.7748276 171.034483,21.7748276 L167.592414,21.7748276 C167.509105,21.7665569 167.427681,21.8031978 167.378621,21.8710345" id="Path" fill="#000000"></path>
                <path d="M215.268276,26.5424138 C215.266807,26.8120205 215.196923,27.0768422 215.065172,27.312069 C214.930218,27.5453008 214.734381,27.7374436 214.498621,27.867931 C214.269732,28.005579 214.006699,28.0759682 213.739655,28.0710345 C213.472958,28.0731872 213.210666,28.0029965 212.98069,27.867931 C212.750416,27.733876 212.558883,27.5423429 212.424828,27.312069 C212.153952,26.8385287 212.153952,26.2569885 212.424828,25.7834483 C212.558883,25.5531744 212.750416,25.3616412 212.98069,25.2275862 C213.210666,25.0925208 213.472958,25.02233 213.739655,25.0244828 C214.006699,25.0195491 214.269732,25.0899382 214.498621,25.2275862 C214.734381,25.3580736 214.930218,25.5502164 215.065172,25.7834483 C215.195614,26.0153342 215.265469,26.2763719 215.268276,26.5424138 M214.968966,26.5424138 C214.975168,25.8815989 214.453542,25.3362618 213.793103,25.3131034 C213.465764,25.3047278 213.150532,25.4370474 212.927241,25.6765517 C212.694272,25.9043417 212.563206,26.2165873 212.563787,26.5424138 C212.562746,26.8714646 212.69366,27.1871998 212.927241,27.4189655 C213.151003,27.6590468 213.464918,27.794689 213.793103,27.7931034 C214.120897,27.7989583 214.43699,27.671323 214.668812,27.4395013 C214.900633,27.2076795 215.028269,26.8915863 215.022414,26.5637931 M213.108966,25.7513793 L213.793103,25.7513793 C213.953364,25.7382586 214.11293,25.7838488 214.242069,25.8796552 C214.336061,25.9634582 214.387138,26.0852559 214.381034,26.2110345 C214.377972,26.316352 214.340417,26.4177514 214.274138,26.4996552 C214.182683,26.5877102 214.067513,26.6471529 213.942759,26.6706897 L214.071034,26.7455172 L214.21,26.9165517 L214.466552,27.3868966 L213.996207,27.3868966 C213.906743,27.1920838 213.799386,27.0059979 213.675517,26.8310345 C213.639671,26.7760524 213.580555,26.7405831 213.515172,26.7348276 L213.515172,26.7348276 L213.515172,27.3762069 L213.108966,27.3762069 L213.108966,25.7513793 Z M213.515172,26.4462069 L213.686207,26.4462069 C213.773283,26.45611 213.860927,26.4332463 213.932069,26.382069 C213.981396,26.3537334 214.010393,26.2998821 214.006897,26.2431034 C214.009723,26.1835903 213.981375,26.1268951 213.932069,26.0934483 C213.86447,26.0530886 213.786119,26.0344336 213.707586,26.04 L213.515172,26.04 L213.515172,26.4462069 Z" id="Shape" fill="#221E20"></path>
            </g>
        </g>
    </g>
</svg>