<?xml version="1.0" encoding="UTF-8"?>
<svg width="65px" height="65px" viewBox="0 0 65 65" version="1.1" xmlns="http://www.w3.org/2000/svg" xmlns:xlink="http://www.w3.org/1999/xlink">
    <!-- Generator: Sketch 64 (93537) - https://sketch.com -->
    <title>img-13</title>
    <desc>Created with Sketch.</desc>
    <g id="Welcome" stroke="none" stroke-width="1" fill="none" fill-rule="evenodd">
        <g id="HOME---Dónde-Comprar---exito.com---Desktop-HD" transform="translate(-787.000000, -1674.000000)" fill="#000000" fill-rule="nonzero">
            <g id="img-13" transform="translate(787.000000, 1674.000000)">
                <path d="M63.7245972,10 L35.3961146,10 C34.6917096,10 34.1207118,10.5616205 34.1207118,11.2544572 L34.1207118,15.9614317 C33.5332612,15.9028486 32.9408366,15.870609 32.3496874,15.870609 C22.7830183,15.870609 15,23.5258089 15,32.9353672 C15,42.3449256 22.7830183,50 32.3496874,50 C39.5952509,50 46.0422847,45.590081 48.5831422,38.9659195 L61.1737915,38.9659195 C63.2835629,38.9659195 65,37.277671 65,35.2025478 L65,11.2544572 C65,10.5616205 64.4290022,10 63.7245972,10 Z M36.6715174,12.5089145 L39.2223231,12.5089145 L39.2223231,35.2025478 C39.2223231,35.6423605 39.3001227,36.0643599 39.4416924,36.457005 L37.9469203,36.457005 C37.2436632,36.457005 36.6715174,35.8942555 36.6715174,35.2025478 L36.6715174,12.5089145 Z M32.3496874,47.4910855 C24.1896601,47.4910855 17.5508057,40.9613847 17.5508057,32.9352418 C17.5508057,24.9090989 24.1895325,18.3795235 32.3496874,18.3795235 C32.9416019,18.3795235 33.5351743,18.4152755 34.1207118,18.4837689 L34.1207118,35.2025478 C34.1207118,37.277671 35.8371489,38.9659195 37.9469203,38.9659195 L43.0485316,38.9659195 L45.8210023,38.9659195 C43.4402078,44.118979 38.2009805,47.4910855 32.3496874,47.4910855 Z M62.4491943,35.2025478 C62.4491943,35.8942555 61.8770486,36.457005 61.1737915,36.457005 L46.5051284,36.457005 L43.0485316,36.457005 C42.3452745,36.457005 41.7731288,35.8942555 41.7731288,35.2025478 L41.7731288,12.5089145 L62.4491943,12.5089145 L62.4491943,35.2025478 Z" id="Shape"></path>
                <path d="M56.7761097,17 C56.100155,17 55.5522193,17.5787453 55.5522193,18.2927078 L55.5522193,20.6626291 C55.5522193,22.7314787 53.9585917,24.4145843 52,24.4145843 C50.0414083,24.4145843 48.4477807,22.7313495 48.4477807,20.6626291 L48.4477807,18.2927078 C48.4477807,17.5787453 47.899845,17 47.2238903,17 C46.5479357,17 46,17.5787453 46,18.2927078 L46,20.6626291 C45.9998776,24.1570769 48.6915796,27 52,27 C55.3084204,27 58,24.1570769 58,20.6626291 L58,18.2927078 C58,17.5787453 57.4520643,17 56.7761097,17 Z" id="Path"></path>
                <path d="M52.5,0 C51.67155,0 51,0.568291445 51,1.26935771 L51,4.73064229 C51,5.43170856 51.6717,6 52.5,6 C53.32845,6 54,5.43170856 54,4.73064229 L54,1.26935771 C54,0.568291445 53.32845,0 52.5,0 Z" id="Path"></path>
                <path d="M59.6003943,3.39959205 C59.0675867,2.86680265 58.2036335,2.86680265 57.6708259,3.39959205 L55.3996057,5.67087122 C54.8667981,6.20366062 54.8667981,7.06758444 55.3996057,7.60037384 C55.6660777,7.86683676 56.0152338,8 56.3643899,8 C56.713546,8 57.0628385,7.86670032 57.3291741,7.60037384 L59.6003943,5.32909467 C60.1332019,4.79630527 60.1332019,3.93238145 59.6003943,3.39959205 Z" id="Path"></path>
                <path d="M48.6004052,5.67073479 L46.329247,3.39959205 C45.796454,2.86680265 44.9325243,2.86680265 44.3995948,3.39959205 C43.8668017,3.93238145 43.8668017,4.79630527 44.3995948,5.32923111 L46.6708894,7.60037384 C46.9373542,7.86683676 47.2865008,8 47.6356473,8 C47.9847939,8 48.3340769,7.86683676 48.6004052,7.60037384 C49.1331983,7.06758444 49.1331983,6.20366062 48.6004052,5.67073479 Z" id="Path"></path>
                <path d="M52.3568602,42.1611888 C51.746915,41.8133657 50.9721677,42.0282351 50.6259311,42.6410724 C46.9290586,49.1873179 39.9849006,53.2537606 32.503295,53.2537606 C21.0217488,53.2537606 11.6808513,43.8666194 11.6808513,32.3282318 C11.6808513,22.617638 18.5134061,14.0301327 27.9270551,11.9093814 C28.6327328,11.7503984 29.3551701,11.6273972 30.0745601,11.5434398 C30.7710962,11.4622896 31.2702001,10.8289096 31.1893226,10.1289251 C31.1085722,9.42894068 30.4790742,8.92787634 29.7817762,9.00851618 C28.9745256,9.10268106 28.163593,9.24086611 27.3717053,9.41924348 C22.2765549,10.5672129 17.6500365,13.457105 14.3440926,17.5567223 C10.9891399,21.7170747 9.14152891,26.9630027 9.14152891,32.3282318 C9.14152891,37.1164776 10.5765,41.5737429 13.0353259,45.2907037 L0.371852024,58.0168703 C-0.123950675,58.5151276 -0.123950675,59.3230571 0.371852024,59.821442 C0.619816857,60.0706344 0.944723158,60.1951668 1.26962946,60.1951668 C1.59453576,60.1951668 1.91956903,60.0706344 2.1674069,59.821442 L10.4830529,51.4646279 L13.4685343,54.4648894 L5.15288824,62.8217035 C4.65708554,63.3199607 4.65708554,64.1278903 5.15288824,64.6262752 C5.40085308,64.8754676 5.72575938,65 6.05066568,65 C6.37557198,65 6.70060525,64.8754676 6.94844311,64.6262752 L19.6134406,51.8985774 C23.31044,54.3658759 27.7423194,55.8056544 32.503168,55.8056544 C40.8967713,55.8056544 48.6872854,51.2438891 52.8342529,43.9006872 C53.1804895,43.2877223 52.9666785,42.5088843 52.3568602,42.1611888 Z M15.2642161,52.6603177 L12.2787348,49.6600562 L14.5702193,47.3572273 C15.4740911,48.4447168 16.4738223,49.4490146 17.5563355,50.3568508 L15.2642161,52.6603177 Z" id="Shape"></path>
                <path d="M32.7364244,41.3828009 C29.1414058,41.3828009 25.8765265,39.1829141 24.4187587,35.7783306 C24.1358724,35.1176187 23.3895529,34.8197815 22.751511,35.112646 C22.1137218,35.4056415 21.8259081,36.1786312 22.1087944,36.8393432 C23.9713713,41.189259 28.1430282,44 32.7365507,44 C33.4343538,44 34,43.41414 34,42.6914004 C34,41.9686609 33.4342274,41.3828009 32.7364244,41.3828009 Z" id="Path"></path>
                <path d="M22.5,31 C21.6715465,31 21,31.6607468 21,32.4758695 L21,32.5307719 C21.00375,33.3435332 21.6745465,34 22.4998422,34 C22.5020921,34 22.5044921,34 22.5067421,34 C23.3351878,33.9963103 24.0037343,33.3326118 24,32.5174891 L24,32.4758695 C24,31.6607468 23.3284378,31 22.5,31 Z" id="Path"></path>
            </g>
        </g>
    </g>
</svg>