<?xml version="1.0" encoding="UTF-8"?>
<svg width="53px" height="53px" viewBox="0 0 53 53" version="1.1" xmlns="http://www.w3.org/2000/svg" xmlns:xlink="http://www.w3.org/1999/xlink">
    <!-- Generator: Sketch 64 (93537) - https://sketch.com -->
    <title>img-12</title>
    <desc>Created with Sketch.</desc>
    <g id="Welcome" stroke="none" stroke-width="1" fill="none" fill-rule="evenodd">
        <g id="HOME---Dónde-Comprar---exito.com---Desktop-HD" transform="translate(-596.000000, -1680.000000)" fill="#000000" fill-rule="nonzero">
            <g id="img-12" transform="translate(596.000000, 1680.000000)">
                <path d="M0,53 L53,53 L53,13 L0,13 L0,53 Z M3.10546875,16.0612245 L49.8945313,16.0612245 L49.8945313,49.9387755 L3.10546875,49.9387755 L3.10546875,16.0612245 Z" id="Shape"></path>
                <path d="M21.7440758,22.6494465 C21.7440758,20.0857417 19.6392701,18 17.0521327,18 C14.4649953,18 12.3601896,20.0857417 12.3601896,22.6494465 L12.3601896,24.199262 L6,24.199262 L6,46 L28,46 L28,24.199262 L21.7440758,24.199262 L21.7440758,22.6494465 Z M15.4881517,22.6494465 C15.4881517,21.7948782 16.1897536,21.099631 17.0521327,21.099631 C17.9145118,21.099631 18.6161137,21.7948782 18.6161137,22.6494465 L18.6161137,24.199262 L15.4881517,24.199262 L15.4881517,22.6494465 Z M24.8720379,27.298893 L24.8720379,42.900369 L9.12796209,42.900369 L9.12796209,27.298893 L12.3601896,27.298893 L12.3601896,30.398524 L15.4881517,30.398524 L15.4881517,27.298893 L18.6161137,27.298893 L18.6161137,30.398524 L21.7440758,30.398524 L21.7440758,27.298893 L24.8720379,27.298893 Z" id="Shape"></path>
                <polygon id="Path" points="31 34 46 34 46 37 31 37"></polygon>
                <polygon id="Path" points="31 41 46 41 46 44 31 44"></polygon>
                <polygon id="Path" points="31 28 34 28 34 31 31 31"></polygon>
                <polygon id="Path" points="37 28 40 28 40 31 37 31"></polygon>
                <polygon id="Path" points="44 28 47 28 47 31 44 31"></polygon>
                <polygon id="Path" points="27.0000496 4.15850577 31.8969217 9 34 6.92074711 27.0000496 0 20 6.92074711 22.1030783 9"></polygon>
            </g>
        </g>
    </g>
</svg>