<?xml version="1.0" encoding="UTF-8"?>
<svg width="180px" height="50px" viewBox="0 0 180 50" version="1.1" xmlns="http://www.w3.org/2000/svg" xmlns:xlink="http://www.w3.org/1999/xlink">
    <!-- Generator: Sketch 64 (93537) - https://sketch.com -->
    <title>img-06</title>
    <desc>Created with Sketch.</desc>
    <g id="Welcome" stroke="none" stroke-width="1" fill="none" fill-rule="evenodd">
        <g id="HOME---Dónde-Comprar---exito.com---Desktop-HD" transform="translate(-479.000000, -1202.000000)" fill-rule="nonzero">
            <g id="img-06" transform="translate(479.000000, 1202.000000)">
                <path d="M26.612069,14.8620479 L20.4051724,14.8620479 C19.9171622,14.8620479 19.5215517,15.2576794 19.5215517,15.7456897 C19.5215517,16.2336999 19.9171622,16.6293103 20.4051724,16.6293103 L26.612069,16.6293103 L26.612069,19.2931034 L1.77586207,19.2931034 L1.77586207,16.6293103 L7.98275862,16.6293103 C8.47076885,16.6293103 8.86637931,16.2336999 8.86637931,15.7456897 C8.86637931,15.2576794 8.47076885,14.8620479 7.98275862,14.8620479 L1.77586207,14.8620479 C1.30566865,14.8597753 0.853946046,15.0449532 0.520657164,15.3766242 C0.187368282,15.7082952 0,16.1591113 0,16.6293103 L0,19.2931034 C0,20.273885 0.79508053,21.0689655 1.77586207,21.0689655 L2.78448276,21.0689655 L4.44827586,31.8448276 C4.50088225,32.2801423 4.87187442,32.6066154 5.31034483,32.6034711 L23.0689655,32.6034711 C23.5074359,32.6066154 23.8784281,32.2801423 23.9310345,31.8448276 L25.5948276,21.0689655 L26.6034483,21.0689655 C27.0744362,21.0689655 27.5261336,20.8818663 27.8591724,20.5488276 C28.1922111,20.2157888 28.3793103,19.7640914 28.3793103,19.2931034 L28.3793103,16.6293103 C28.3793103,16.1606088 28.1931194,15.711104 27.8616973,15.379682 C27.5302753,15.0482599 27.0807705,14.8620479 26.612069,14.8620479 Z M22.3017241,30.8275862 L6.0862069,30.8275862 L4.5862069,21.0689655 L23.8017241,21.0689655 L22.3017241,30.8275862 Z" id="Shape" fill="#E2241C"></path>
                <path d="M14.1982759,18.4051829 C16.1550779,18.4051829 17.7413793,16.818871 17.7413793,14.862069 L17.7413793,7.75862069 C17.6481183,5.86735333 16.0875309,4.38182434 14.1939655,4.38182434 C12.3004001,4.38182434 10.7398127,5.86735333 10.6465517,7.75862069 L10.6465517,14.862069 C10.6465517,15.803254 11.0210223,16.7057651 11.6873487,17.3704742 C12.3536752,18.0351834 13.2570936,18.4074624 14.1982759,18.4051829 Z M12.4224138,7.75862069 C12.4873652,6.82809119 13.261172,6.10641369 14.1939655,6.10641369 C15.1267591,6.10641369 15.9005659,6.82809119 15.9655172,7.75862069 L15.9655172,14.862069 C15.9005659,15.7925985 15.1267591,16.514276 14.1939655,16.514276 C13.261172,16.514276 12.4873652,15.7925985 12.4224138,14.862069 L12.4224138,7.75862069 Z" id="Shape" fill="#E2241C"></path>
                <path d="M14.1982759,13.0862069 L14.1982759,13.0862069 C13.7221683,13.0862069 13.3362069,13.4721683 13.3362069,13.9482759 L13.3362069,13.9482759 C13.3362069,14.4243834 13.7221683,14.8103448 14.1982759,14.8103448 L14.1982759,14.8103448 C14.6743834,14.8103448 15.0603448,14.4243834 15.0603448,13.9482759 L15.0603448,13.9482759 C15.0603448,13.4721683 14.6743834,13.0862069 14.1982759,13.0862069 Z" id="Path" fill="#E2241C"></path>
                <path d="M12.4224138,29.0517241 C12.8985213,29.0517241 13.2844828,28.6657627 13.2844828,28.1896552 L13.2844828,23.7327586 C13.2844828,23.2423679 12.8869425,22.8448276 12.3965517,22.8448276 C11.906161,22.8448276 11.5086207,23.2423679 11.5086207,23.7327586 L11.5086207,28.1637931 C11.5009025,28.4061359 11.5955976,28.640525 11.7694897,28.8094957 C11.9433819,28.9784664 12.1803924,29.066395 12.4224138,29.0517241 L12.4224138,29.0517241 Z" id="Path" fill="#E2241C"></path>
                <path d="M8.87068966,29.0517241 C9.3467972,29.0517241 9.73275862,28.6657627 9.73275862,28.1896552 L9.73275862,23.7327586 C9.73275862,23.2423679 9.33521836,22.8448276 8.84482759,22.8448276 C8.35443682,22.8448276 7.95689655,23.2423679 7.95689655,23.7327586 L7.95689655,28.1637931 C7.94917833,28.4061359 8.04387342,28.640525 8.2177656,28.8094957 C8.39165777,28.9784664 8.62866826,29.066395 8.87068966,29.0517241 L8.87068966,29.0517241 Z" id="Path" fill="#E2241C"></path>
                <path d="M15.9655172,29.0517241 C16.4416248,29.0517241 16.8275862,28.6657627 16.8275862,28.1896552 L16.8275862,23.7327586 C16.8275862,23.2423679 16.4300459,22.8448276 15.9396552,22.8448276 C15.4492644,22.8448276 15.0517241,23.2423679 15.0517241,23.7327586 L15.0517241,28.1637931 C15.0440059,28.4061359 15.138701,28.640525 15.3125932,28.8094957 C15.4864854,28.9784664 15.7234959,29.066395 15.9655172,29.0517241 Z" id="Path" fill="#E2241C"></path>
                <path d="M19.5172414,29.0517241 C19.9933489,29.0517241 20.3793103,28.6657627 20.3793103,28.1896552 L20.3793103,23.7327586 C20.3793103,23.2423679 19.9817701,22.8448276 19.4913793,22.8448276 C19.0009885,22.8448276 18.6034483,23.2423679 18.6034483,23.7327586 L18.6034483,28.1637931 C18.5957301,28.4061359 18.6904251,28.640525 18.8643173,28.8094957 C19.0382095,28.9784664 19.27522,29.066395 19.5172414,29.0517241 Z" id="Path" fill="#E2241C"></path>
                <path d="M42.1206897,30.3017241 L38.9482759,30.3017241 L38.9482759,29.5086207 C38.0917896,30.2568779 36.9812314,30.6486581 35.8448276,30.6034483 C34.5362921,30.6248424 33.2811735,30.0851414 32.3965517,29.1206897 C31.4318841,28.0954077 30.9193935,26.7256601 30.9741379,25.3189655 C30.9310132,23.9228518 31.4460103,22.5671065 32.4051724,21.5517241 C33.2869184,20.5822286 34.5431283,20.0389178 35.8534483,20.0603448 C36.9898521,20.015135 38.1004103,20.4069152 38.9568966,21.1551724 L38.9568966,16.0172414 L42.1293103,16.0172414 L42.1206897,30.3017241 Z M38.2241379,27.1810345 C39.1902719,26.134256 39.1902719,24.5209164 38.2241379,23.4741379 C37.7768102,23.0000612 37.1517687,22.7344185 36.5,22.7413793 C35.8474465,22.7211869 35.2182978,22.9854293 34.7758621,23.4655172 C33.8790451,24.5449234 33.8790451,26.1102491 34.7758621,27.1896552 C35.2218208,27.6637277 35.8494135,27.9241787 36.5,27.9051724 C37.1498587,27.9112563 37.7735147,27.6493208 38.2241379,27.1810345 L38.2241379,27.1810345 Z" id="Shape" fill="#1E120C"></path>
                <path d="M52.362069,21.5517241 C53.4169448,22.5152869 53.9992911,23.8908832 53.9568966,25.3189655 C54.0045855,26.7555394 53.4219819,28.1411913 52.362069,29.112069 C51.3152066,30.092235 49.9250419,30.6216741 48.4913793,30.5862069 C47.0445005,30.6237882 45.6401487,30.0948363 44.5775862,29.112069 C43.5115612,28.1448413 42.9251169,26.7575536 42.9741379,25.3189655 C42.9304318,23.8888634 43.5166167,22.5116439 44.5775862,21.5517241 C45.641012,20.5712971 47.0455425,20.0453716 48.4913793,20.0862069 C49.9239946,20.0474822 51.3143408,20.5738939 52.362069,21.5517241 Z M50.1810345,27.1810345 C50.6464036,26.675466 50.891444,26.0054821 50.862069,25.3189655 C50.8854907,24.6279158 50.6236224,23.9576577 50.137931,23.4655172 C49.6909556,22.9919394 49.0648764,22.7289861 48.4137931,22.7413793 C47.7645346,22.7383292 47.1420245,22.9997834 46.6896552,23.4655172 C46.198159,23.9544692 45.9326279,24.6261066 45.9568966,25.3189655 C45.9310762,26.012972 46.193125,26.6868118 46.6810345,27.1810345 C47.1316577,27.6493208 47.7553137,27.9112563 48.4051724,27.9051724 C49.0746909,27.9359831 49.7239653,27.6712305 50.1810345,27.1810345 L50.1810345,27.1810345 Z" id="Shape" fill="#1E120C"></path>
                <path d="M70.4310345,21.1637931 C71.1808176,21.9416017 71.584906,22.989123 71.5517241,24.0689655 L71.5517241,30.3017241 L68.362069,30.3017241 L68.362069,24.75 C68.387775,24.2567065 68.2173319,23.7732679 67.887931,23.4051724 C67.5814469,23.075592 67.1481864,22.893497 66.6982759,22.9051724 C66.1495876,22.8790853 65.6213063,23.1160114 65.2758621,23.5431034 C64.8929508,24.0919796 64.7075616,24.7545178 64.75,25.4224138 L64.75,30.3017241 L61.5775862,30.3017241 L61.5775862,24.75 C61.6032922,24.2567065 61.4328491,23.7732679 61.1034483,23.4051724 C60.7883357,23.0724749 60.3459355,22.8904947 59.887931,22.9051724 C59.3462615,22.8774753 58.8250908,23.1155409 58.4913793,23.5431034 C58.1182348,24.095854 57.9393227,24.756919 57.9827586,25.4224138 L57.9827586,30.3017241 L54.8103448,30.3017241 L54.8103448,20.3448276 L57.9827586,20.3448276 L57.9827586,21.2068966 C58.7380959,20.3927611 59.8129105,19.9514883 60.9224138,20 C62.2443421,19.9257824 63.4987246,20.5894768 64.1810345,21.7241379 C64.9967911,20.5992238 66.3181235,19.9530955 67.7068966,20 C68.738922,19.9839207 69.7291994,20.4069823 70.4310345,21.1637931 L70.4310345,21.1637931 Z" id="Path" fill="#1E120C"></path>
                <path d="M75.9568966,16.1293103 C76.30216,16.4628439 76.4927349,16.9252225 76.4827586,17.4051724 C76.4954114,17.8805877 76.3040117,18.3386918 75.9568966,18.6637931 C75.2176605,19.3146093 74.1099257,19.3146093 73.3706897,18.6637931 C73.0330068,18.3329125 72.8460089,17.8778841 72.8534483,17.4051724 C72.838798,16.9235449 73.0263615,16.4577621 73.3706897,16.1206897 C73.716602,15.7727122 74.1905326,15.5825163 74.6810345,15.5948276 C75.1622821,15.5870941 75.624855,15.7808746 75.9568966,16.1293103 Z M73.0517241,30.3017241 L73.0517241,20.3448276 L76.2327586,20.3448276 L76.2327586,30.3017241 L73.0517241,30.3017241 Z" id="Shape" fill="#1E120C"></path>
                <path d="M84.8448276,26.0775862 L87.7586207,26.7155172 C87.5317374,27.8430644 86.8962119,28.8470104 85.9741379,29.5344828 C85.0260614,30.247498 83.8671331,30.6236946 82.6810345,30.6034483 C81.2481516,30.6399413 79.8592755,30.106712 78.8189655,29.1206897 C77.767908,28.1413282 77.1925263,26.7547525 77.2413793,25.3189655 C77.2036776,23.8952784 77.7780375,22.5237196 78.8189655,21.5517241 C79.8558117,20.55928 81.2462694,20.0223399 82.6810345,20.0603448 C83.8534754,20.0421494 84.9990701,20.4118916 85.9396552,21.112069 C86.8611547,21.7874716 87.5072275,22.7734215 87.7586207,23.887931 L84.7844828,24.6034483 C84.6945736,24.0878449 84.4296991,23.6189867 84.0344828,23.2758621 C83.6482504,22.9753474 83.1702925,22.8170429 82.6810345,22.8275862 C82.0311696,22.8029767 81.402443,23.0607546 80.9568966,23.5344828 C80.0820174,24.5763236 80.0820174,26.0960902 80.9568966,27.137931 C81.4033322,27.6094435 82.0323077,27.8641786 82.6810345,27.8362069 C83.7430419,27.8809257 84.6715148,27.1263103 84.8448276,26.0775862 L84.8448276,26.0775862 Z" id="Path" fill="#1E120C"></path>
                <path d="M91.6810345,16.1293103 C92.0262979,16.4628439 92.2168728,16.9252225 92.2068966,17.4051724 C92.2195493,17.8805877 92.0281496,18.3386918 91.6810345,18.6637931 C90.9417984,19.3146093 89.8340636,19.3146093 89.0948276,18.6637931 C88.7571447,18.3329125 88.5701468,17.8778841 88.5775862,17.4051724 C88.5629359,16.9235449 88.7504994,16.4577621 89.0948276,16.1206897 C89.4407399,15.7727122 89.9146705,15.5825163 90.4051724,15.5948276 C90.88642,15.5870941 91.3489929,15.7808746 91.6810345,16.1293103 Z M88.7931034,30.3017241 L88.7931034,20.3448276 L91.9655172,20.3448276 L91.9655172,30.3017241 L88.7931034,30.3017241 Z" id="Shape" fill="#1E120C"></path>
                <polygon id="Path" fill="#1E120C" points="93.6206897 30.3017241 93.6206897 16.0172414 96.7931034 16.0172414 96.7931034 30.3017241"></polygon>
                <path d="M101.37069,16.1293103 C101.715953,16.4628439 101.906528,16.9252225 101.896552,17.4051724 C101.909204,17.8805877 101.717805,18.3386918 101.37069,18.6637931 C101.017057,19.0033898 100.541805,19.1866569 100.051724,19.1724138 C99.5642661,19.1862782 99.0918295,19.0028982 98.7413793,18.6637931 C98.4036964,18.3329125 98.2166985,17.8778841 98.2241379,17.4051724 C98.2094876,16.9235449 98.3970511,16.4577621 98.7413793,16.1206897 C99.4697816,15.441779 100.599184,15.441779 101.327586,16.1206897 L101.37069,16.1293103 Z M98.4655172,30.3017241 L98.4655172,20.3448276 L101.637931,20.3448276 L101.637931,30.3017241 L98.4655172,30.3017241 Z" id="Shape" fill="#1E120C"></path>
                <path d="M112.068966,21.5517241 C113.12162,22.5161796 113.700923,23.8920238 113.655172,25.3189655 C113.706225,26.7543952 113.126665,28.140299 112.068966,29.112069 C111.020612,30.0898453 109.631462,30.6188982 108.198276,30.5862069 C106.74875,30.6242172 105.341558,30.0953604 104.275862,29.112069 C103.215949,28.1411913 102.633345,26.7555394 102.681034,25.3189655 C102.632042,23.8949425 103.204676,22.5199905 104.25,21.5517241 C105.317044,20.5715655 106.724081,20.0458594 108.172414,20.0862069 C109.613424,20.0434317 111.0133,20.5699337 112.068966,21.5517241 L112.068966,21.5517241 Z M109.887931,27.1810345 C110.362707,26.679609 110.617238,26.0091374 110.594828,25.3189655 C110.618249,24.6279158 110.356381,23.9576577 109.87069,23.4655172 C109.437803,23.0025988 108.832061,22.7403187 108.198276,22.7413793 C107.548417,22.7352954 106.924761,22.9972309 106.474138,23.4655172 C105.979481,23.9529958 105.710751,24.6248211 105.732759,25.3189655 C105.706938,26.012972 105.968987,26.6868118 106.456897,27.1810345 C106.908689,27.6476124 107.531577,27.9092251 108.181034,27.9052188 C108.817177,27.9055194 109.425315,27.6435524 109.862069,27.1810345 L109.887931,27.1810345 Z" id="Shape" fill="#1E120C"></path>
                <path d="M116.905172,27.0689655 C117.043103,27.8534483 117.62931,28.2413793 118.62931,28.2413793 C118.958776,28.2597008 119.286146,28.1786091 119.568966,28.0086207 C119.779495,27.8995547 119.91467,27.6852529 119.922414,27.4482759 C119.922414,27.0775862 119.586207,26.8275862 118.931034,26.7155172 L116.905172,26.3189655 C114.974138,25.9568966 114.008621,24.9885057 114.008621,23.4137931 C113.980689,22.4522058 114.425016,21.5377937 115.198276,20.9655172 C116.097105,20.3193824 117.187201,19.9944789 118.293103,20.0431034 C119.355672,20.0023486 120.407108,20.2719476 121.318966,20.8189655 C122.082903,21.280322 122.624871,22.0340937 122.818966,22.9051724 L119.922414,23.4741379 C119.872167,23.1270412 119.682178,22.8155844 119.396552,22.612069 C119.064538,22.3704155 118.660232,22.2488196 118.25,22.2672414 C117.944188,22.2407598 117.638856,22.3231995 117.387931,22.5 C117.219921,22.6301821 117.121322,22.8305606 117.12069,23.0431034 C117.12069,23.4051724 117.37069,23.637931 117.87931,23.7413793 L120.215517,24.2155172 C121.003846,24.3462389 121.729223,24.7270616 122.284483,25.3017241 C122.75054,25.8280519 122.997326,26.5128848 122.974138,27.2155172 C123.015982,28.2038251 122.542982,29.1433004 121.724138,29.6982759 C120.746815,30.3156653 119.602899,30.616696 118.448276,30.5603448 C117.348809,30.5965501 116.25874,30.347052 115.284483,29.8362069 C114.480735,29.3998242 113.928511,28.611388 113.793103,27.7068966 L116.905172,27.0689655 Z" id="Path" fill="#1E120C"></path>
                <path d="M179.077588,25.3706897 C179.077588,15.4536068 173.103218,6.51318604 163.940695,2.71888857 C154.778171,-1.0754089 144.232192,1.02376273 137.220989,8.03743221 C130.209786,15.0511017 128.114323,25.597818 131.911843,34.7590066 C135.709362,43.9201953 144.651883,49.8914181 154.568966,49.8879326 C161.07055,49.8879326 167.30572,47.3045973 171.902226,42.7064746 C176.498732,38.108352 179.079873,31.8722735 179.077588,25.3706897" id="Path" fill="#FFEB00"></path>
                <path d="M143.482759,23.9137931 C143.319436,23.2349176 143.026736,22.593905 142.62069,22.0258621 C142.207786,21.4620724 141.667152,21.0041584 141.043103,20.6896552 C140.348485,20.3507258 139.583075,20.1822763 138.810345,20.1982759 C138.099915,20.1868362 137.395016,20.324879 136.741379,20.6034483 C136.129767,20.857536 135.577807,21.2362744 135.12069,21.7155172 C134.665097,22.1979704 134.310458,22.7665643 134.077586,23.387931 C133.600395,24.740762 133.600395,26.2161346 134.077586,27.5689655 C134.299342,28.1898438 134.645487,28.7589288 135.094828,29.2413793 C135.546587,29.7145321 136.096968,30.0824335 136.706897,30.3189655 C137.380488,30.578221 138.097257,30.7069468 138.818966,30.6982759 C139.839261,30.725759 140.845565,30.4562134 141.715517,29.9224138 C142.132125,29.6453585 142.492015,29.2913209 142.775862,28.8793103 C143.090062,28.4054612 143.333974,27.8886015 143.5,27.3448276 L143.568966,27.1465517 C143.577985,27.1244449 143.574928,27.0992458 143.560885,27.0799365 C143.546842,27.0606273 143.52381,27.0499551 143.5,27.0517241 L140.913793,27.0517241 C140.784483,27.0517241 140.767241,27.1293103 140.767241,27.1293103 L140.767241,27.2155172 C140.729564,27.3427644 140.664874,27.4603834 140.577586,27.5603448 C140.453949,27.6997306 140.311828,27.8215494 140.155172,27.9224138 C139.791061,28.1656759 139.360106,28.2892363 138.922414,28.2758621 C138.630061,28.2781418 138.339163,28.2345071 138.060345,28.1465517 C137.564401,27.9961136 137.1763,27.6080128 137.025862,27.112069 C136.938842,26.8554469 136.883828,26.5890654 136.862069,26.3189655 L143.612069,26.3189655 C143.724138,26.3189655 143.724138,26.1896552 143.724138,26.1896552 L143.724138,26.1034483 C143.724138,25.9310345 143.724138,25.7672414 143.724138,25.6034483 C143.728931,25.0222669 143.659402,24.4428573 143.517241,23.8793103 M137.206897,23.2758621 C137.368327,23.0786316 137.571478,22.9196444 137.801724,22.8103448 C138.095365,22.6731847 138.417526,22.6081615 138.741379,22.6206897 C138.999389,22.615903 139.256214,22.6567614 139.5,22.7413793 C139.691499,22.8069205 139.863439,22.919571 140,23.0689655 C140.270875,23.395188 140.457384,23.7830088 140.543103,24.1982759 L136.818966,24.1982759 C136.838502,24.0848406 136.864405,23.9725943 136.896552,23.862069 C136.961084,23.6484221 137.066483,23.4493364 137.206897,23.2758621" id="Shape" fill="#221E20"></path>
                <path d="M153.25,30.362069 L149.62931,25.1896552 L152.905172,20.5258621 C152.905172,20.5258621 152.905172,20.4741379 152.827586,20.4741379 L149.517241,20.4741379 C149.463932,20.4691073 149.411796,20.4919169 149.37931,20.5344828 L147.896552,22.7586207 L146.405172,20.5431034 C146.363732,20.4966423 146.303572,20.4713121 146.241379,20.4741379 L142.836207,20.4741379 C142.741379,20.4741379 142.793103,20.5344828 142.793103,20.5344828 L143.017241,20.862069 L146.060345,25.2413793 L142.517241,30.4137931 C142.517241,30.4137931 142.456897,30.5086207 142.568966,30.5086207 L145.896552,30.5086207 C145.972962,30.5075639 146.042569,30.4644743 146.077586,30.3965517 L147.862069,27.7068966 L149.646552,30.3965517 C149.686271,30.4599421 149.753136,30.5013348 149.827586,30.5086207 L153.198276,30.5086207 C153.327586,30.5086207 153.25,30.3965517 153.25,30.3965517" id="Path" fill="#221E20"></path>
                <path d="M157.439655,20.4224138 L153.62069,20.4224138 C153.482759,20.4224138 153.508621,20.5172414 153.508621,20.5172414 L154.060345,30.3534483 C154.060345,30.3534483 154.060345,30.4741379 154.172414,30.4741379 L156.896552,30.4741379 C157.008621,30.4741379 157.008621,30.3448276 157.008621,30.3448276 L157.560345,20.5344828 C157.560345,20.5344828 157.560345,20.4224138 157.456897,20.4224138" id="Path" fill="#221E20"></path>
                <path d="M164.724138,22.6810345 C164.724138,22.6810345 164.818966,22.6810345 164.818966,22.5603448 L164.818966,20.5258621 C164.818966,20.5258621 164.818966,20.4310345 164.715517,20.4310345 L162.931034,20.4310345 L162.931034,17.6724138 C162.933699,17.6419522 162.922751,17.6118725 162.901129,17.5902506 C162.879507,17.5686288 162.849427,17.5576804 162.818966,17.5603448 L159.905172,17.5603448 C159.876175,17.560244 159.848467,17.5723181 159.828798,17.5936256 C159.80913,17.614933 159.799308,17.6435172 159.801724,17.6724138 L159.801724,20.4310345 L158.336207,20.4310345 C158.198276,20.4310345 158.215517,20.5172414 158.215517,20.5172414 L158.215517,22.5689655 C158.210341,22.5969381 158.217996,22.6257568 158.236372,22.6474733 C158.254747,22.6691897 158.281901,22.6815094 158.310345,22.6810345 L159.801724,22.6810345 L159.801724,28.0603448 C159.785363,28.5047901 159.880182,28.9462916 160.077586,29.3448276 C160.250306,29.6683546 160.510098,29.9371049 160.827586,30.1206897 C161.147494,30.3085194 161.502496,30.4288091 161.87069,30.4741379 C162.26722,30.5343975 162.667893,30.5632229 163.068966,30.5603448 C163.327586,30.5603448 163.594828,30.5603448 163.87069,30.5603448 C164.127552,30.5521509 164.383725,30.529124 164.637931,30.4913793 L164.75,30.4913793 C164.75,30.4913793 164.844828,30.4913793 164.844828,30.3706897 L164.844828,27.9827586 C164.844828,27.8534483 164.75,27.8965517 164.75,27.8965517 L164.543103,27.9396552 L164.189655,27.9913793 L163.784483,27.9913793 C163.619096,27.9966759 163.453763,27.9792724 163.293103,27.9396552 C163.211992,27.9293038 163.136397,27.8930182 163.077586,27.8362069 C163.023473,27.7799608 162.990042,27.7070203 162.982759,27.6293103 C162.943766,27.4685421 162.926372,27.3032946 162.931034,27.137931 L162.931034,22.6810345 L164.724138,22.6810345 Z" id="Path" fill="#221E20"></path>
                <path d="M175,23.2758621 C174.550954,22.0056191 173.563213,20.9989439 172.301724,20.5258621 C170.927268,20.0199008 169.417559,20.0199008 168.043103,20.5258621 C167.428064,20.7631043 166.869951,21.1273468 166.405172,21.5948276 C165.936334,22.0884822 165.57783,22.6761924 165.353448,23.3189655 C164.872653,24.7155245 164.872653,26.2327514 165.353448,27.6293103 C165.589702,28.2575412 165.95369,28.8299417 166.422414,29.3103448 C166.901383,29.7746871 167.474721,30.1304509 168.103448,30.3534483 C168.782262,30.6027851 169.50105,30.725505 170.224138,30.7155172 C170.949907,30.7238645 171.671228,30.6012106 172.353448,30.3534483 C173.596261,29.8600694 174.562496,28.8497718 175,27.5862069 C175.492329,26.1916008 175.492329,24.6704681 175,23.2758621 M171.163793,28 C170.858422,28.1595824 170.516735,28.2368332 170.172414,28.2241379 C169.830568,28.2398738 169.490873,28.1623996 169.189655,28 C168.933137,27.857142 168.718991,27.6489451 168.568966,27.3965517 C168.402974,27.1313907 168.283443,26.839851 168.215517,26.5344828 C168.14569,26.1824703 168.111037,25.8243871 168.112047,25.4655172 C168.111907,25.1038352 168.14655,24.7429767 168.215517,24.387931 C168.281868,24.0834436 168.398401,23.7921123 168.560345,23.5258621 C168.723073,23.2784734 168.937843,23.0695882 169.189655,22.9137931 C169.490337,22.7492107 169.829854,22.668799 170.172414,22.6810345 C170.51489,22.669647 170.854185,22.7500064 171.155172,22.9137931 C171.415131,23.0619614 171.63431,23.2722546 171.793103,23.5258621 C171.959109,23.7900638 172.075934,24.0821258 172.137931,24.387931 C172.206898,24.7429767 172.241541,25.1038352 172.241402,25.4655172 C172.242412,25.8243871 172.207759,26.1824703 172.137931,26.5344828 C172.073003,26.8394047 171.956378,27.1309683 171.793103,27.3965517 C171.638498,27.6482947 171.421799,27.8560881 171.163793,28" id="Shape" fill="#221E20"></path>
                <path d="M157.396552,32.8706897 C157.396552,31.8375363 156.559015,31 155.525862,31 C154.492709,31 153.655172,31.8375363 153.655172,32.8706897 C153.655172,33.903843 154.492709,34.7413793 155.525862,34.7413793 C156.559015,34.7413793 157.396552,33.903843 157.396552,32.8706897" id="Path" fill="#E2241C"></path>
                <path d="M139.189655,17.637931 L137.724138,19.4741379 C137.724138,19.4741379 137.62931,19.5862069 137.724138,19.5862069 L139.448276,19.5862069 C139.527665,19.5906482 139.605452,19.562645 139.663793,19.5086207 L142.12931,17.637931 C142.12931,17.637931 142.215517,17.5603448 142.12931,17.5603448 L139.362069,17.5603448 C139.292237,17.5522872 139.223359,17.5818063 139.181034,17.637931" id="Path" fill="#000000"></path>
                <path d="M177.827586,21.4051724 C177.830455,21.6231151 177.773825,21.8377127 177.663793,22.0258621 C177.555684,22.2115668 177.401222,22.366029 177.215517,22.4741379 C177.030052,22.5830617 176.818527,22.6396671 176.603448,22.637931 C176.385612,22.6399398 176.17124,22.5833693 175.982759,22.4741379 C175.797054,22.366029 175.642592,22.2115668 175.534483,22.0258621 C175.316034,21.6439748 175.316034,21.1749908 175.534483,20.7931034 C175.642592,20.6073987 175.797054,20.4529365 175.982759,20.3448276 C176.17124,20.2355963 176.385612,20.1790257 176.603448,20.1810345 C176.818527,20.1792984 177.030052,20.2359038 177.215517,20.3448276 C177.401222,20.4529365 177.555684,20.6073987 177.663793,20.7931034 C177.772717,20.9785685 177.829322,21.1900941 177.827586,21.4051724 M177.594833,21.4051724 C177.595301,21.1424091 177.489603,20.8905982 177.301724,20.7068966 C177.120383,20.5155747 176.867016,20.4092233 176.603448,20.4137931 C176.339813,20.4114702 176.0863,20.5151727 175.899874,20.7015983 C175.713449,20.8880239 175.609746,21.141537 175.612069,21.4051724 C175.602556,21.6724713 175.703368,21.9319231 175.890859,22.1226749 C176.07835,22.3134268 176.336025,22.4186963 176.603448,22.4137931 C176.865144,22.4175255 177.117143,22.3148592 177.301724,22.1293103 C177.490096,21.9424025 177.595672,21.6877773 177.594833,21.4224138 M176.043103,20.7672414 L176.62931,20.7672414 C176.758553,20.7566602 176.887235,20.7934264 176.991379,20.8706897 C177.06718,20.9382728 177.10837,21.0364967 177.103448,21.137931 C177.105452,21.2236728 177.074613,21.306939 177.017241,21.3706897 C176.944766,21.4434665 176.851307,21.4917034 176.75,21.5086207 C176.790137,21.5230788 176.827905,21.5434154 176.862069,21.5689655 C176.89999,21.6122603 176.934572,21.6583696 176.965517,21.7068966 L177.181034,22.0862069 L176.793103,22.0862069 C176.720956,21.9290999 176.634377,21.7790305 176.534483,21.637931 C176.506556,21.5925848 176.458326,21.5636469 176.405172,21.5603448 L176.405172,21.5603448 L176.405172,22.0775862 L176.077586,22.0775862 L176.043103,20.7672414 Z M176.37069,21.3275862 L176.508621,21.3275862 C176.581425,21.3339047 176.654252,21.3156981 176.715517,21.2758621 C176.750625,21.249676 176.770092,21.2074984 176.767241,21.1637931 C176.768709,21.1178912 176.749769,21.0736969 176.715517,21.0431034 C176.657413,21.0117073 176.591828,20.9968017 176.525862,21 L176.37069,21 L176.37069,21.3275862 Z" id="Shape" fill="#221E20"></path>
            </g>
        </g>
    </g>
</svg>