<?xml version="1.0" encoding="UTF-8"?>
<svg width="64px" height="57px" viewBox="0 0 64 57" version="1.1" xmlns="http://www.w3.org/2000/svg" xmlns:xlink="http://www.w3.org/1999/xlink">
    <!-- Generator: Sketch 64 (93537) - https://sketch.com -->
    <title>img-14</title>
    <desc>Created with Sketch.</desc>
    <g id="Welcome" stroke="none" stroke-width="1" fill="none" fill-rule="evenodd">
        <g id="HOME---Dónde-Comprar---exito.com---Desktop-HD" transform="translate(-991.000000, -1678.000000)" fill="#000000" fill-rule="nonzero">
            <g id="img-14" transform="translate(991.000000, 1678.000000)">
                <path d="M32.9926187,23.033905 C32.851756,23.0049134 32.7072344,22.9996947 32.5645424,23.019989 C31.1345727,22.8616943 30.0558451,21.7113037 30.0534058,20.3428955 C30.0534058,19.6871032 29.4942236,19.1553955 28.8045452,19.1553955 C28.114867,19.1553955 27.5556847,19.6871032 27.5556847,20.3428955 C27.5593435,22.6280212 29.1667636,24.6296081 31.4839853,25.234375 L31.4839853,26.421875 C31.4839853,27.0776673 32.0431675,27.609375 32.7328459,27.609375 C33.4225243,27.609375 33.9817064,27.0776673 33.9817064,26.421875 L33.9817064,25.3062744 C36.6562682,24.7739869 38.4740676,22.405365 38.1929521,19.8210449 C37.9112266,17.2367249 35.6214456,15.2728271 32.8889534,15.2722474 C31.3229994,15.2722474 30.0534058,14.0650329 30.0534058,12.5760192 C30.0534058,11.0870056 31.3229994,9.8797913 32.8889534,9.8797913 C34.4549075,9.8797913 35.7245011,11.0870056 35.7245011,12.5760192 C35.7245011,13.2318115 36.2836833,13.7635192 36.9733617,13.7635192 C37.6630399,13.7635192 38.2222222,13.2318115 38.2222222,12.5760192 C38.2185634,10.1766663 36.4507671,8.10723884 33.9817064,7.61206055 L33.9817064,6.53125 C33.9817064,5.87545773 33.4225243,5.34375 32.7328459,5.34375 C32.0431675,5.34375 31.4839853,5.87545773 31.4839853,6.53125 L31.4839853,7.68453976 C28.9069908,8.35366825 27.2483479,10.7327271 27.6032488,13.2503662 C27.9581496,15.7680053 30.2174408,17.6472474 32.8889534,17.6466674 C34.4341744,17.6466674 35.6946211,18.8231507 35.7226717,20.2918701 C35.751332,21.7605896 34.53662,22.9805603 32.9926187,23.033905 L32.9926187,23.033905 Z" id="Path"></path>
                <path d="M16,17.3671875 C16,26.958965 23.5612723,34.734375 32.8888889,34.734375 C42.2165054,34.734375 49.7777778,26.958965 49.7777778,17.3671875 C49.7777778,7.77540999 42.2165054,0 32.8888889,0 C23.5658218,0.0105262022 16.0108051,7.78008834 16,17.3671875 Z M32.8888889,2.39531283 C40.9301337,2.39531283 47.4484328,9.09821207 47.4484328,17.3671875 C47.4484328,25.6361629 40.9301337,32.3390622 32.8888889,32.3390622 C24.8476441,32.3390622 18.329345,25.6361629 18.329345,17.3671875 C18.338444,9.10230566 24.8516249,2.40466952 32.8888889,2.39531283 Z" id="Shape"></path>
                <path d="M55.8970426,37.7031383 L46.5630782,42.1156442 C45.2743709,39.7172901 42.8022638,38.1909588 40.0817241,38.1141183 L31.4651304,37.8771936 C30.1007879,37.8381912 28.7620451,37.492409 27.5489729,36.8654606 L26.6721866,36.4108212 C22.1829471,34.0695152 16.8320483,34.0753365 12.3474631,36.4259564 L12.4021532,34.4385824 C12.4201894,33.7801992 11.9017974,33.2318375 11.2437712,33.2137918 L1.79519037,32.953582 C1.13716432,32.9355361 0.589681783,33.4542093 0.571645662,34.1125925 L0.000434199372,54.8583561 C-0.0171450609,55.5167392 0.501246791,56.0651007 1.15927299,56.0831466 L10.6078538,56.3433565 L10.6404351,56.3433565 C11.2862432,56.3433565 11.8145261,55.8293402 11.8319803,55.1837639 L11.8593253,54.1912411 L14.3139782,52.8762211 C15.2774542,52.3575479 16.4038367,52.2341375 17.4563295,52.5321853 L32.1144294,56.6483899 C32.140029,56.6559574 32.1656286,56.6617788 32.1918101,56.6675999 C33.2512846,56.8893894 34.3311224,57.0005753 35.4132874,56.9999955 C37.7056155,57.0011574 39.9711803,56.5069335 42.054639,55.5499203 C42.1058383,55.5266353 42.155292,55.4992756 42.2024185,55.4684228 L63.4553253,41.7139781 C63.9847717,41.3711066 64.1558236,40.6754674 63.8457193,40.1259416 C62.2678529,37.3247571 58.7682707,36.2577223 55.8970426,37.7031383 L55.8970426,37.7031383 Z M2.41598078,53.7325268 L2.92099113,35.3699821 L9.98706336,35.5644117 L9.48205301,53.9275385 L2.41598078,53.7325268 Z M40.981201,53.4205079 C38.3927321,54.5894145 35.5017224,54.9119115 32.7195109,54.3431756 L18.100974,50.2374495 C16.4556177,49.7723317 14.6944813,49.9650151 13.189341,50.7747505 L11.9349604,51.4471047 L12.2706644,39.2382013 C16.2455846,36.5930262 21.3433964,36.3211739 25.5766399,38.5280091 L26.4534263,38.9826485 C27.9859116,39.7743382 29.6760672,40.2109319 31.3999678,40.2609946 L40.0171433,40.4979194 C42.4374694,40.5677744 44.4930011,42.2920281 44.9840481,44.6647686 L32.1487562,44.3102547 C31.49073,44.2922088 30.9432476,44.8114642 30.9246297,45.4692652 C30.9065936,46.1276484 31.4255674,46.6760099 32.0830118,46.6940558 L46.2477376,47.0840795 L46.2809008,47.0840795 C46.9261271,47.0834972 47.4538281,46.569481 47.4712823,45.9244868 C47.4858275,45.4063957 47.4474281,44.8877225 47.3560841,44.3777811 L56.9297538,39.8517609 C56.9390627,39.847686 56.9483717,39.843029 56.9576806,39.838372 C58.3156233,39.1508825 59.9574887,39.3808219 61.0745622,40.4152577 L40.981201,53.4205079 Z" id="Shape"></path>
            </g>
        </g>
    </g>
</svg>