<?xml version="1.0" encoding="UTF-8"?>
<svg width="148px" height="50px" viewBox="0 0 148 50" version="1.1" xmlns="http://www.w3.org/2000/svg" xmlns:xlink="http://www.w3.org/1999/xlink">
    <!-- Generator: Sketch 64 (93537) - https://sketch.com -->
    <title>img-05</title>
    <desc>Created with Sketch.</desc>
    <g id="Welcome" stroke="none" stroke-width="1" fill="none" fill-rule="evenodd">
        <g id="HOME---Dónde-Comprar---exito.com---Desktop-HD" transform="translate(-192.000000, -1202.000000)" fill-rule="nonzero">
            <g id="img-05" transform="translate(192.000000, 1202.000000)">
                <path d="M148.011631,25.244186 C148.016331,15.2669036 142.009159,6.26965183 132.792251,2.44933835 C123.575343,-1.37097513 112.964618,0.738329482 105.909613,7.79333433 C98.8546086,14.8483392 96.7453039,25.4590642 100.565617,34.6759721 C104.385931,43.8928801 113.383183,49.9000518 123.360465,49.8953516 C136.974926,49.8953516 148.011631,38.8586473 148.011631,25.244186" id="Path" fill="#FFEB00"></path>
                <path d="M112.209302,23.7674419 C112.037041,23.0855289 111.737182,22.4424122 111.325581,21.872093 C110.913198,21.3105677 110.375759,20.8527496 109.755814,20.5348837 C109.063086,20.1899175 108.296948,20.0183344 107.523256,20.0348837 C106.804681,20.0213445 106.091377,20.1600425 105.430233,20.4418605 C104.8125,20.7117871 104.258007,21.1078531 103.802326,21.6046512 C103.344843,22.0914861 102.989065,22.6646845 102.755814,23.2906977 C102.505606,23.9559211 102.37949,24.6613834 102.383721,25.372093 C102.374527,26.0973326 102.49665,26.8182503 102.744186,27.5 C102.969341,28.1212042 103.317351,28.6906752 103.767442,29.1744186 C104.219712,29.649843 104.771699,30.0191579 105.383721,30.255814 C106.065667,30.5198356 106.792061,30.6501129 107.523256,30.6395349 C108.543866,30.6692061 109.550695,30.3982925 110.418605,29.8604651 C110.841338,29.5815692 111.204873,29.2219856 111.488372,28.8023256 C111.81251,28.3328418 112.059795,27.8147224 112.22093,27.2674419 L112.290698,27.0697674 C112.298531,27.0477344 112.294806,27.023242 112.280776,27.0045346 C112.266745,26.9858272 112.244275,26.975393 112.22093,26.9767442 L109.639535,26.9767442 C109.5,26.9767442 109.488372,27.0465116 109.488372,27.0465116 L109.488372,27.1395349 C109.447313,27.2682325 109.380003,27.3870138 109.290698,27.4883721 C109.16598,27.6247318 109.025454,27.7457403 108.872093,27.8488372 C108.504903,28.0953717 108.070018,28.2213663 107.627907,28.2093023 C107.319769,28.215864 107.012847,28.1686452 106.72093,28.0697674 C106.482512,27.9953423 106.263922,27.868163 106.081395,27.6976744 C105.899991,27.50832 105.761223,27.2823263 105.674419,27.0348837 C105.585625,26.7756239 105.530903,26.5059232 105.511628,26.2325581 L112.302326,26.2325581 C112.418623,26.2325581 112.418623,26.1046512 112.418623,26.1046512 L112.418623,26.0232558 C112.418623,25.8488372 112.418623,25.6744186 112.418623,25.5116279 C112.419934,24.9392207 112.34962,24.3688973 112.209302,23.8139535 M105.906977,23.1744186 C106.064244,22.9785425 106.262751,22.8197368 106.488372,22.7093023 C106.788461,22.5773118 107.114164,22.5137601 107.44186,22.5232558 C107.702578,22.5156734 107.962533,22.5550605 108.209302,22.6395349 C108.40145,22.7027263 108.573791,22.8149479 108.709302,22.9651163 C108.983252,23.3025465 109.170836,23.70166 109.255814,24.127907 L105.511628,24.127907 C105.529056,24.0133809 105.556288,23.9005633 105.593023,23.7906977 C105.65775,23.5743384 105.764429,23.3728343 105.906977,23.1976744" id="Shape" fill="#1E120C"></path>
                <path d="M122.093023,30.2325581 L118.453488,24.9883721 L121.744186,20.3372093 C121.744186,20.3372093 121.744186,20.2790698 121.662791,20.2790698 L118.337209,20.2790698 C118.283974,20.274371 118.231823,20.2961005 118.197674,20.3372093 L116.709302,22.5813953 L115.116279,20.3372093 C115.079688,20.2914481 115.023679,20.2655975 114.965116,20.2673494 L111.627907,20.2673494 C111.523256,20.2673494 111.627907,20.3255814 111.627907,20.3255814 L111.860465,20.6627907 L114.918605,25.0697674 L111.244186,30.2325581 C111.244186,30.2325581 111.174419,30.3372093 111.244186,30.3372093 L114.581395,30.3372093 C114.663146,30.3358929 114.7382,30.2917436 114.77907,30.2209302 L116.569767,27.5116279 L118.406977,30.2325581 C118.447109,30.2985639 118.516106,30.3416875 118.593023,30.3488372 L121.976744,30.3488372 C122.104651,30.3488372 121.976744,30.2325581 121.976744,30.2325581" id="Path" fill="#1E120C"></path>
                <path d="M126.255814,20.2674419 L122.406977,20.2674419 C122.267442,20.2674419 122.290698,20.3488372 122.290698,20.3488372 L122.837209,30.244186 C122.837209,30.244186 122.837209,30.3720945 122.953488,30.3720945 L125.674419,30.3720945 C125.707382,30.3722583 125.738867,30.3584246 125.761041,30.3340332 C125.783215,30.3096417 125.793994,30.2769849 125.790698,30.244186 L126.348837,20.372093 C126.348837,20.372093 126.348837,20.2674419 126.255814,20.2674419" id="Path" fill="#1E120C"></path>
                <path d="M133.569767,22.5348837 C133.569767,22.5348837 133.674421,22.5348837 133.674421,22.4069767 L133.674421,20.3604651 C133.674629,20.3336404 133.663249,20.3080306 133.6432,20.2902087 C133.62315,20.2723868 133.596382,20.2640878 133.569767,20.2674419 L131.744186,20.2674419 L131.744186,17.5 C131.747508,17.4702921 131.737967,17.4405815 131.71797,17.4183621 C131.697972,17.3961428 131.669427,17.3835358 131.639535,17.3837181 L128.697674,17.3837181 C128.67085,17.3835104 128.64524,17.3948904 128.627418,17.41494 C128.609596,17.4349897 128.601297,17.461757 128.604651,17.4883721 L128.604651,20.2674419 L127.116279,20.2674419 C126.988372,20.2674419 127.011628,20.3488372 127.011628,20.3488372 L127.011628,22.4186047 C127.011628,22.4186047 127.011628,22.5348837 127.104651,22.5348837 L128.604651,22.5348837 L128.604651,27.9069767 C128.586666,28.3526261 128.678508,28.7958638 128.872093,29.1976744 C129.047922,29.5178541 129.304484,29.7864425 129.616279,29.9767442 C129.942593,30.1636875 130.301842,30.286069 130.674419,30.3372093 C131.059507,30.3927037 131.448145,30.4199083 131.837209,30.4186494 L132.651163,30.4186494 C132.911861,30.4084671 133.171881,30.3851816 133.430233,30.3488372 L133.534884,30.3488372 C133.534884,30.3488372 133.639535,30.3488372 133.639535,30.2209302 L133.639535,27.9069767 C133.639535,27.7790698 133.534884,27.8255814 133.534884,27.8255814 L133.325581,27.8255814 L132.965116,27.8255814 L132.55814,27.9069767 C132.392252,27.929762 132.224027,27.929762 132.05814,27.9069767 C131.978117,27.8981951 131.903876,27.8610747 131.848837,27.8023256 C131.794766,27.7439253 131.758463,27.6713206 131.744186,27.5930233 C131.722172,27.4309768 131.722172,27.2666976 131.744186,27.1046512 L131.744186,22.5348837 L133.569767,22.5348837 Z" id="Path" fill="#1E120C"></path>
                <path d="M143.930233,23.1511628 C143.693804,22.5240487 143.333995,21.950726 142.872093,21.4651163 C142.397428,20.9949626 141.831551,20.6269444 141.209302,20.3837209 C139.826087,19.8875969 138.313448,19.8875969 136.930233,20.3837209 C136.312977,20.6233734 135.754004,20.9920572 135.290698,21.4651163 C134.821263,21.9470382 134.456988,22.5211674 134.22093,23.1511628 C133.968592,23.8480779 133.842588,24.584416 133.848837,25.3255814 C133.840566,26.0669085 133.966632,26.8036046 134.22093,27.5 C134.457199,28.126459 134.821548,28.6967446 135.290698,29.1744186 C135.754453,29.6496415 136.318605,30.0151486 136.94186,30.244186 C137.618041,30.498629 138.335721,30.6248147 139.05814,30.6162791 C139.791831,30.6237946 140.520764,30.4977089 141.209302,30.244186 C141.833829,30.0108869 142.400903,29.6460557 142.872093,29.1744186 C143.333938,28.6932097 143.693846,28.123686 143.930233,27.5 C144.180572,26.8028726 144.302694,26.0661977 144.290698,25.3255814 C144.300675,24.5851163 144.178612,23.8487986 143.930233,23.1511628 M140.05814,27.9069767 C139.750532,28.0696857 139.405977,28.1498148 139.05814,28.1395349 C138.717857,28.1484392 138.381154,28.0682719 138.081395,27.9069767 C137.821709,27.7653116 137.604849,27.5564835 137.453488,27.3023256 C137.285916,27.0223107 137.167906,26.7154858 137.104651,26.3953488 C137.034169,26.0431436 136.99911,25.6847687 136.999983,25.3255814 C137.000216,24.9625988 137.03526,24.6004743 137.104651,24.244186 C137.1636,23.9264578 137.281948,23.6226988 137.453488,23.3488372 C137.607498,23.093768 137.823492,22.8817737 138.081395,22.7325581 C138.379068,22.5658504 138.71728,22.4853236 139.05814,22.5 C139.721521,22.4635816 140.352881,22.7881541 140.709302,23.3488372 C140.87199,23.6258502 140.986041,23.9286758 141.046512,24.244186 C141.115903,24.6004743 141.150947,24.9625988 141.151179,25.3255814 C141.152053,25.6847687 141.116994,26.0431436 141.046512,26.3953488 C140.982018,26.7133879 140.868244,27.0194017 140.709302,27.3023256 C140.545735,27.5547454 140.321967,27.76253 140.05814,27.9069767" id="Shape" fill="#1E120C"></path>
                <path d="M126.197711,32.7790698 C126.19766,32.0161207 125.737438,31.3285235 125.032111,31.0376538 C124.326784,30.746784 123.515658,30.9100899 122.977844,31.451244 C122.440031,31.9923981 122.28175,32.8045198 122.576982,33.5080321 C122.872213,34.2115444 123.562647,34.6675003 124.325581,34.6628268 C124.824113,34.6628268 125.302057,34.4639671 125.653479,34.1103627 C126.004901,33.7567582 126.200771,33.2775913 126.197711,32.7790698" id="Path" fill="#E52F2A"></path>
                <path d="M107.895349,17.4418605 L106.418605,19.2906977 C106.418605,19.2906977 106.325581,19.3953488 106.418605,19.3953488 L108.139535,19.3953488 C108.219242,19.3999684 108.297867,19.3751393 108.360465,19.3255814 L110.883721,17.4418605 C110.883721,17.4418605 110.976744,17.3604651 110.883721,17.3604651 L108.093023,17.3604651 C108.024709,17.355548 107.958717,17.3863441 107.918605,17.4418605" id="Path" fill="#010101"></path>
                <path d="M146.744186,21.255814 C146.747911,21.4708526 146.695829,21.6831845 146.593023,21.872093 C146.478787,22.0561511 146.323593,22.2113452 146.139535,22.3255814 C145.753339,22.5431457 145.281544,22.5431457 144.895349,22.3255814 C144.711291,22.2113452 144.556097,22.0561511 144.44186,21.872093 C144.224056,21.4901064 144.224056,21.0215215 144.44186,20.6395349 C144.547524,20.4488502 144.704664,20.2917099 144.895349,20.1860465 C145.281544,19.9684822 145.753339,19.9684822 146.139535,20.1860465 C146.33022,20.2917099 146.48736,20.4488502 146.593023,20.6395349 C146.695829,20.8284434 146.747911,21.0407753 146.744186,21.255814 M146.511628,21.255814 C146.512783,20.784222 146.180603,20.3775057 145.718281,20.2844523 C145.25596,20.1913989 144.792297,20.4379326 144.610915,20.8732496 C144.429533,21.3085666 144.580964,21.8113891 144.972577,22.074142 C145.364191,22.336895 145.886886,22.2863764 146.22093,21.9534884 C146.4098,21.7709047 146.514974,21.5184876 146.511628,21.255814 M144.953488,20.5930233 L145.546512,20.5930233 C145.678749,20.5853723 145.809742,20.6222139 145.918605,20.6976744 C145.991604,20.7667694 146.029974,20.8648274 146.023256,20.9651163 C146.020805,21.0491838 145.99237,21.1304275 145.94186,21.1976744 C145.860564,21.264657 145.765155,21.3123614 145.662791,21.3372093 L145.77907,21.3372093 C145.81859,21.3800562 145.853653,21.426808 145.883721,21.4767442 L146.104651,21.8488372 L145.709302,21.8488372 C145.63305,21.6965098 145.547622,21.5489516 145.453488,21.4069767 C145.453488,21.3488372 145.372093,21.3255814 145.325581,21.3255814 L145.325581,21.3255814 L145.325581,21.8372093 L145,21.8372093 L144.953488,20.5930233 Z M145.27907,21.1511628 L145.430233,21.1511628 C145.494101,21.1742537 145.564038,21.1742537 145.627907,21.1511628 C145.66248,21.1224439 145.682481,21.0798293 145.682481,21.0348837 C145.682481,20.9899382 145.66248,20.9473236 145.627907,20.9186047 C145.568089,20.8952543 145.501678,20.8952543 145.44186,20.9186047 L145.27907,20.9186047 L145.27907,21.1511628 Z" id="Shape" fill="#1E120C"></path>
                <path d="M30.7209302,26.9883721 C30.7209302,28.4302326 32.0348837,28.8837209 33.3604651,28.8837209 C34.372093,28.8837209 35.6860465,28.6627907 35.6860465,27.4186047 C35.6860465,26.1744186 34.1395349,25.9534884 32.5581395,25.5813953 C30.9767442,25.2093023 29.3488372,24.6976744 29.3488372,22.8139535 C29.3488372,20.9302326 31.3023256,20.0116279 33.0116279,20.0116279 C35.1860465,20.0116279 36.9069767,20.6976744 37.0465116,23.0930233 L35.3953488,23.0930233 C35.2790698,21.8372093 34.2325581,21.4418605 33.0697674,21.4418605 C31.9069767,21.4418605 30.9767442,21.7093023 30.9767442,22.6976744 C30.9767442,23.6860465 32.6860465,24.0465116 34.1860465,24.4069767 C35.6860465,24.7674419 37.4069767,25.3023256 37.4069767,27.1976744 C37.4069767,29.5232558 35.2209302,30.3023256 33.2209302,30.3023256 C31.0116279,30.3023256 29.1511628,29.4069767 29.0581395,26.9767442 L30.7209302,26.9883721 Z" id="Path" fill="#27B1C4"></path>
                <path d="M47.2790698,26.9651163 C46.9570696,29.0240731 45.1001895,30.4852246 43.0232558,30.3139535 C39.8953488,30.3139535 38.372093,28.1395349 38.372093,25.1395349 C38.372093,22.1395349 40.3139535,20.0232558 43.0232558,20.0232558 C46.5116279,20.0232558 47.5697674,23.2790698 47.4767442,25.6511628 L40.0697674,25.6511628 C39.9679248,26.5047637 40.2506623,27.359482 40.841449,27.9839638 C41.4322358,28.6084456 42.2699743,28.9381089 43.127907,28.8837209 C44.3505604,29.0182668 45.4665433,28.1774578 45.6744186,26.9651163 L47.2790698,26.9651163 Z M45.7209302,24.2325581 C45.7209302,22.6720326 44.4558744,21.4069767 42.8953488,21.4069767 C41.3348233,21.4069767 40.0697674,22.6720326 40.0697674,24.2325581 L45.7209302,24.2325581 Z" id="Shape" fill="#27B1C4"></path>
                <path d="M57.2325581,29.244186 C57.2325581,32.4418605 55.7674419,34.0697674 52.6744186,34.0697674 C50.8255814,34.0697674 48.6976744,33.3372093 48.6046512,31.1860465 L50.2209302,31.1860465 C50.2906977,32.3488372 51.6976744,32.7790698 52.7674419,32.7790698 C54.872093,32.7790698 55.7093023,31.255814 55.7093023,29.0581395 L55.7093023,28.4069767 L55.7093023,28.4069767 C55.1328497,29.5762374 53.9185151,30.2929688 52.6162791,30.2325581 C49.6860465,30.2325581 48.2209302,27.9069767 48.2209302,25.255814 C48.2209302,22.9302326 49.3837209,20.0581395 52.7674419,20.0581395 C53.973681,20.0147239 55.103629,20.6469567 55.6976744,21.6976744 L55.6976744,21.6976744 L55.6976744,20.255814 L57.2209302,20.255814 L57.2325581,29.244186 Z M55.6395349,24.9651163 C55.6395349,23.244186 54.872093,21.4767442 52.8372093,21.4767442 C50.8023256,21.4767442 49.9302326,23.1744186 49.9302326,25.0465116 C49.9302326,26.9186047 50.5813953,28.7906977 52.7093023,28.7906977 C54.8372093,28.7906977 55.6395349,26.8139535 55.6395349,24.9651163 Z" id="Shape" fill="#27B1C4"></path>
                <path d="M67.4418605,30.0813953 L65.8837209,30.0813953 L65.8837209,28.5232558 L65.8837209,28.5232558 C65.254861,29.6893433 64.008875,30.3870955 62.6860465,30.3139535 C60.0697674,30.3139535 59.3023256,28.8255814 59.3023256,26.744186 L59.3023256,20.255814 L60.9186047,20.255814 L60.9186047,26.9069767 C60.8792503,27.4464867 61.0781497,27.9761688 61.4628847,28.3564302 C61.8476198,28.7366916 62.3795919,28.9293824 62.9186047,28.8837209 C63.7342893,28.9303426 64.5288907,28.6141558 65.0895438,28.0198636 C65.6501968,27.4255714 65.9195994,26.613914 65.8255814,25.8023256 L65.8255814,20.255814 L67.4418605,20.255814 L67.4418605,30.0813953 Z" id="Path" fill="#27B1C4"></path>
                <path d="M69.4186047,20.255814 L70.9302326,20.255814 L70.9302326,22.3255814 L70.9302326,22.3255814 C71.4876782,20.8351189 72.9591007,19.8888665 74.5465116,20 L74.5465116,21.744186 C71.9418605,21.744186 70.9883721,23.2209302 70.9883721,25.7093023 L70.9883721,30.0813953 L69.4186047,30.0813953 L69.4186047,20.255814 Z" id="Path" fill="#27B1C4"></path>
                <path d="M79.6395349,20.0232558 C82.755814,20.0232558 84.4186047,22.3488372 84.4186047,25.1744186 C84.4186047,28 82.755814,30.3139535 79.6395349,30.3139535 C76.5232558,30.3139535 74.872093,28.0465116 74.872093,25.1744186 C74.872093,22.3023256 76.5232558,20.0232558 79.6395349,20.0232558 Z M79.6395349,28.8837209 C81.3372093,28.8837209 82.6976744,27.5581395 82.6976744,25.1744186 C82.6976744,22.7906977 81.3372093,21.4534884 79.6395349,21.4534884 C77.9418605,21.4534884 76.5813953,22.7790698 76.5813953,25.1744186 C76.5813953,27.5697674 77.9069767,28.8837209 79.6395349,28.8837209 Z" id="Shape" fill="#27B1C4"></path>
                <path d="M86.9418605,26.9883721 C86.9418605,28.4302326 88.255814,28.8837209 89.5813953,28.8837209 C90.5930233,28.8837209 91.9069767,28.6627907 91.9069767,27.4186047 C91.9069767,26.1744186 90.3604651,25.9534884 88.744186,25.5813953 C87.127907,25.2093023 85.5348837,24.6976744 85.5348837,22.8139535 C85.5348837,20.9302326 87.4883721,20.0116279 89.1976744,20.0116279 C91.372093,20.0116279 93.0930233,20.6976744 93.2325581,23.0930233 L91.6162791,23.0930233 C91.5,21.8372093 90.3953488,21.4418605 89.2906977,21.4418605 C88.1860465,21.4418605 87.1976744,21.7093023 87.1976744,22.6976744 C87.1976744,23.6860465 88.9534884,24.0581395 90.4534884,24.4186047 C91.9534884,24.7790698 93.6744186,25.3139535 93.6744186,27.2093023 C93.6744186,29.5348837 91.4883721,30.3139535 89.4883721,30.3139535 C87.2790698,30.3139535 85.4186047,29.4186047 85.3255814,26.9883721 L86.9418605,26.9883721 Z" id="Path" fill="#27B1C4"></path>
                <path d="M13.3604651,19.0232558 C9.92486831,19.1063006 7.19952638,21.9451704 7.25668704,25.3812954 C7.31384769,28.8174203 10.1321059,31.5640712 13.568564,31.5327979 C17.005022,31.5015246 19.7728261,28.704038 19.7674497,25.2674419 C19.7164194,21.7719397 16.8444186,18.9779823 13.3488372,19.0232558" id="Path" fill="#27B1C4"></path>
                <path d="M23.9302326,18.4418605 L19.0813953,18.4418605 C20.9766059,20.191573 22.060229,22.6496525 22.0734565,25.229021 C22.0866841,27.8083895 21.0283283,30.2774536 19.1511628,32.0465116 L23.9651163,32.0465116 C26.5463824,27.8789435 26.5463824,22.6094286 23.9651163,18.4418605" id="Path" fill="#27B1C4"></path>
                <path d="M4.65116279,25.2674419 C4.65979707,22.6767345 5.74176563,20.2054678 7.63953488,18.4418605 L2.77906977,18.4418605 C0.197803685,22.6094286 0.197803685,27.8789435 2.77906977,32.0465116 L7.55813953,32.0465116 C5.69638657,30.2839516 4.64459318,27.8311694 4.65116279,25.2674419" id="Path" fill="#27B1C4"></path>
            </g>
        </g>
    </g>
</svg>