<?xml version="1.0" encoding="UTF-8"?>
<svg width="50px" height="50px" viewBox="0 0 50 50" version="1.1" xmlns="http://www.w3.org/2000/svg" xmlns:xlink="http://www.w3.org/1999/xlink">
    <!-- Generator: Sketch 64 (93537) - https://sketch.com -->
    <title>img-02</title>
    <desc>Created with Sketch.</desc>
    <g id="Welcome" stroke="none" stroke-width="1" fill="none" fill-rule="evenodd">
        <g id="HOME---Dónde-Comprar---exito.com---Desktop-HD" transform="translate(-544.000000, -973.000000)" fill-rule="nonzero">
            <g id="img-02" transform="translate(544.000000, 973.000000)">
                <g id="ico-almacenes-2-copy" fill="#FFEB00">
                    <g id="ico-almacenes">
                        <rect id="Rectangle" x="0" y="0" width="50" height="50" rx="10"></rect>
                    </g>
                </g>
                <g id="Group-4" transform="translate(6.000000, 6.000000)" fill="#000000">
                    <path d="M37.6790872,31.4824751 L31.3615738,25.1649737 L34.4599363,22.0666902 C34.7283875,21.7982394 34.838733,21.4099499 34.7514644,21.0404285 C34.6641958,20.6709071 34.3919472,20.3729531 34.0317726,20.2528951 L15.4418899,14.056255 C15.0483416,13.9250238 14.6142627,14.027482 14.3209089,14.3209083 C14.027482,14.6143345 13.9250236,15.0482666 14.0562551,15.4418872 L20.252907,34.0318076 C20.3730382,34.3919814 20.6709928,34.6643026 21.0404418,34.751498 C21.4098909,34.8389124 21.7982543,34.7284942 22.0667055,34.4599704 L25.165068,31.3616869 L31.4825814,37.6791152 C31.6964806,37.8930141 31.9768354,38 32.2571172,38 C32.537399,38 32.8178268,37.8930871 33.0316531,37.6791152 L37.6791602,33.0316169 C38.1069588,32.6038192 38.1069588,31.9102728 37.6790872,31.4824751 Z M32.2570442,35.355366 L25.9395308,29.0379377 C25.5118053,28.61014 24.8181115,28.61014 24.3903861,29.0379377 L21.7707957,31.6575231 L16.8274518,16.8275194 L31.6574836,21.770854 L29.0378933,24.3904393 C28.6104599,24.8177989 28.6100947,25.5118564 29.0378933,25.9395811 L35.3554066,32.2570825 L32.2570442,35.355366 Z" id="Shape"></path>
                    <path d="M14,9 C14.5522667,9 15,8.4963 15,7.875 L15,1.125 C15,0.5037 14.5522667,0 14,0 C13.4477333,0 13,0.5037 13,1.125 L13,7.875 C13,8.4963 13.4477333,9 14,9 Z" id="Path"></path>
                    <path d="M5.91419799,4.32843336 C5.4763616,3.89052221 4.76634451,3.89052221 4.32843336,4.32843336 C3.89052221,4.76634451 3.89052221,5.47628684 4.32843336,5.91419799 L9.08580201,10.6715666 C9.5236384,11.1094778 10.2337302,11.1094778 10.6715666,10.6715666 C11.1094778,10.2336555 11.1094778,9.52371316 10.6715666,9.08580201 L5.91419799,4.32843336 Z" id="Path"></path>
                    <path d="M9.08580201,18.3284334 L4.32843336,23.085802 C3.89052221,23.5237132 3.89052221,24.2336555 4.32843336,24.6715666 C4.76626976,25.1094778 5.4763616,25.1094778 5.91419799,24.6715666 L10.6715666,19.914198 C11.1094778,19.4762868 11.1094778,18.7663445 10.6715666,18.3284334 C10.2336555,17.8905222 9.5236384,17.8905222 9.08580201,18.3284334 Z" id="Path"></path>
                    <path d="M19.914198,10.6715666 L24.6715666,5.91419799 C25.1094778,5.47628684 25.1094778,4.76634451 24.6715666,4.32843336 C24.2337302,3.89052221 23.5237132,3.89052221 23.085802,4.32843336 L18.3284334,9.08580201 C17.8905222,9.52371316 17.8905222,10.2336555 18.3284334,10.6715666 C18.7662698,11.1094778 19.4763616,11.1094778 19.914198,10.6715666 Z" id="Path"></path>
                    <path d="M9,14 C9,13.4477333 8.4963,13 7.875,13 L1.125,13 C0.5037,13 0,13.4477333 0,14 C0,14.5522667 0.5037,15 1.125,15 L7.875,15 C8.4963,15 9,14.5522667 9,14 Z" id="Path"></path>
                </g>
            </g>
        </g>
    </g>
</svg>