<?xml version="1.0" encoding="UTF-8"?>
<svg width="50px" height="51px" viewBox="0 0 50 51" version="1.1" xmlns="http://www.w3.org/2000/svg" xmlns:xlink="http://www.w3.org/1999/xlink">
    <!-- Generator: Sketch 64 (93537) - https://sketch.com -->
    <title>img-15</title>
    <desc>Created with Sketch.</desc>
    <g id="Welcome" stroke="none" stroke-width="1" fill="none" fill-rule="evenodd">
        <g id="HOME---Dónde-Comprar---exito.com---Desktop-HD" transform="translate(-1192.000000, -1681.000000)" fill="#000000" fill-rule="nonzero">
            <g id="img-15" transform="translate(1192.000000, 1681.000000)">
                <path d="M48.6489501,42.9127479 L44.1104701,38.2872042 C46.7764067,34.2662278 48.2102602,29.5304496 48.2102602,24.5693795 C48.2102602,18.0066364 45.7030022,11.8366037 41.1501583,7.19607492 C36.5973145,2.55571842 30.5440363,0 24.1051301,0 C17.6665619,0 11.6129457,2.55571842 7.06010187,7.19607492 C2.50742697,11.8369482 0,18.0068086 0,24.5693795 C0,31.1321227 2.50759596,37.3019831 7.06043984,41.9423396 C11.6131147,46.5830406 17.6665619,49.1387591 24.1052991,49.1387591 C28.9555598,49.1387591 33.5868136,47.6877972 37.5230245,44.9884294 L42.067926,49.6208628 C42.9409121,50.5101454 44.1010068,51 45.3349488,51 C46.5690599,51 47.7291546,50.5101454 48.6019717,49.6206906 L48.6489501,49.5729797 C50.45035,47.736886 50.45035,44.7493583 48.6489501,42.9127479 Z M46.7372018,47.6242401 L46.6903924,47.671951 C46.3282536,48.0408921 45.846979,48.244137 45.3349488,48.244137 C44.8229187,48.244137 44.3416441,48.0407199 43.9796743,47.671951 L39.6972094,43.3071808 C40.1962275,42.8741658 40.6815578,42.4201374 41.1501583,41.9425119 C41.6070988,41.476771 42.04224,40.9950118 42.4574407,40.4996454 L46.7368638,44.8613152 C47.4842927,45.6233114 47.4842927,46.8625885 46.7372018,47.6242401 Z M39.238241,9.14498676 C43.2805756,13.2650019 45.5066395,18.7429685 45.5066395,24.5695518 C45.5066395,30.396135 43.2805756,35.8741016 39.238241,39.9939445 C35.1960754,44.1141319 29.8217865,46.3832406 24.1052991,46.3832406 C18.3888117,46.3832406 13.0143537,44.1141319 8.97235713,39.9939445 C4.93002254,35.8739294 2.70362071,30.3959628 2.70362071,24.5693795 C2.70362071,18.7429685 4.92968457,13.2650019 8.97201916,9.14498676 C13.0141848,5.02479939 18.3886427,2.75586296 24.1051301,2.75586296 C29.8216175,2.75586296 35.1960754,5.02479939 39.238241,9.14498676 Z" id="Shape"></path>
                <path d="M11.4123753,37.4352948 C14.9081629,41.0237253 19.5561822,43 24.5000948,43 C29.4440074,43 34.0918581,41.0237253 37.5876458,37.4354678 C44.8040057,30.0271621 44.8041742,17.9730109 37.5878143,10.5647052 C34.0920266,6.97627469 29.4440074,5 24.5000948,5 C19.5560137,5 14.9079944,6.97627469 11.4120383,10.5648782 C4.19584683,17.9731838 4.19601533,30.0271621 11.4123753,37.4352948 Z M35.6815265,12.5217793 C41.8467574,18.8510477 41.8465889,29.1492983 35.681358,35.4783937 C32.6946215,38.5440844 28.723989,40.2323505 24.5002633,40.2323505 C20.2765376,40.2323505 16.3055681,38.5439114 13.3191685,35.4782207 C7.15376917,29.1492983 7.15360067,18.8510477 13.318663,12.5219523 C16.3055681,9.4560886 20.2765376,7.76782243 24.5002633,7.76782243 C28.723989,7.76782243 32.6949585,9.4560886 35.6815265,12.5217793 Z" id="Shape"></path>
                <path d="M23.3774479,33.8556097 C23.5730971,33.9519255 23.7866421,34 24.000015,34 C24.2133879,34 24.4269329,33.9519255 24.6225821,33.8556097 C32.247911,30.1042988 34.7350822,24.3962903 33.8191273,20.6800338 C33.2597116,18.4100175 31.5078167,17 29.2474403,17 C26.6742316,17 25.0152571,18.0457866 24.000015,19.3202608 C22.9847728,18.0456197 21.3257983,17 18.7525897,17 C16.4920412,17 14.7403183,18.4100175 14.1809027,20.6800338 C13.6863593,22.6869759 14.2168664,25.1252528 15.6364846,27.3692288 C17.2457295,29.9130025 19.9226993,32.1561438 23.3774479,33.8556097 Z M16.8585608,21.3011626 C17.0086102,20.6922193 17.4542843,19.6708038 18.7525897,19.6708038 C20.245684,19.6708038 21.3015358,20.1672394 21.9812318,21.1883211 C22.5322157,22.0166042 22.6282336,22.8951317 22.6284056,22.8951317 C22.6884598,23.5868699 23.2845274,24.1185267 24.0001871,24.1185267 C24.7156747,24.1185267 25.3119143,23.5867029 25.3719685,22.8951317 C25.3833254,22.7634277 25.6925441,19.6709707 29.2476123,19.6709707 C30.5459178,19.6709707 30.9915919,20.6923862 31.1416412,21.3013295 C31.6852259,23.5069127 30.1981543,27.8793523 24.0001871,31.1562617 C17.8022198,27.8791854 16.3149761,23.5067457 16.8585608,21.3011626 Z" id="Shape"></path>
            </g>
        </g>
    </g>
</svg>