<?xml version="1.0" encoding="UTF-8"?>
<svg width="309px" height="130px" viewBox="0 0 309 130" version="1.1" xmlns="http://www.w3.org/2000/svg" xmlns:xlink="http://www.w3.org/1999/xlink">
    <!-- Generator: Sketch 64 (93537) - https://sketch.com -->
    <title>head-movil</title>
    <desc>Created with Sketch.</desc>
    <g id="Welcome" stroke="none" stroke-width="1" fill="none" fill-rule="evenodd">
        <g id="HOME---Aliados---Móvil-Éxito---Desktop-HD" transform="translate(-999.000000, -213.000000)" fill-rule="nonzero">
            <g id="head-movil" transform="translate(999.000000, 213.000000)">
                <g id="Group-5" transform="translate(178.983574, 0.000000)">
                    <path d="M129.084444,64.5422222 C129.084444,28.8965372 100.187907,-3.15796771e-14 64.5422222,-3.15796771e-14 C28.8965372,-3.15796771e-14 -3.3158661e-13,28.8965372 -3.3158661e-13,64.5422222 C-3.3158661e-13,100.187907 28.8965372,129.084444 64.5422222,129.084444 C100.187907,129.084444 129.084444,100.187907 129.084444,64.5422222" id="Path" fill="#FFEB00"></path>
                    <path d="M35.346,60.6757778 C34.8579581,58.8814773 34.0312561,57.197072 32.9104444,55.7133333 C31.8307328,54.2431352 30.423599,53.0444657 28.8004444,52.2122222 C26.9867295,51.3090241 24.9808088,50.8597814 22.9551111,50.9031111 C21.0737226,50.8676624 19.2061337,51.2308047 17.4751111,51.9686667 C15.8577492,52.6753947 14.4059652,53.7123833 13.2128889,55.0131111 C12.0150981,56.2877531 11.0835914,57.7885139 10.4728889,59.4275556 C9.81778952,61.1692583 9.48758936,63.0163154 9.49866667,64.8771111 C9.47459509,66.7759494 9.79433937,68.6634721 10.4424444,70.4484444 C11.0435514,72.0692913 11.9533968,73.5581293 13.1215556,74.8324444 C14.3056998,76.0772111 15.7509242,77.0441597 17.3533333,77.6637778 C19.1388187,78.3550452 21.0406813,78.6961402 22.9551111,78.6684444 C25.6272963,78.7461304 28.2633963,78.0368183 30.5357778,76.6286667 C31.6488751,75.9062355 32.602114,74.9633579 33.3366667,73.8582222 C34.1853326,72.6290093 34.8327778,71.2724575 35.2546667,69.8395556 L35.4373333,69.322 C35.457844,69.2643126 35.4480902,69.200186 35.4113551,69.1512059 C35.37462,69.1022258 35.3157895,69.0749066 35.2546667,69.0784444 L28.6177778,69.0784444 C28.2524444,69.0784444 28.222,69.2611111 28.222,69.2611111 L28.222,69.5046667 C28.1144971,69.8416257 27.9382661,70.1526216 27.7044444,70.418 C27.3779054,70.7750199 27.009977,71.0918472 26.6084444,71.3617778 C25.6470586,72.00726 24.5084347,72.3371417 23.3508889,72.3055556 C22.5441152,72.3227356 21.7405245,72.1991063 20.9762222,71.9402222 C20.3519897,71.7453606 19.7796741,71.412377 19.3017778,70.966 C18.8170897,70.4778075 18.452333,69.8837751 18.2362222,69.2306667 C18.0180291,68.5480668 17.8751062,67.843661 17.81,67.13 L35.5895556,67.13 C35.8940484,67.13 35.8940484,66.7951111 35.8940484,66.7951111 L35.8940484,66.582 C35.8940484,66.1253333 35.8940484,65.6686667 35.8940484,65.2424444 C35.8974802,63.7437553 35.7133829,62.2505219 35.346,60.7975556 M18.8451111,59.1231111 C19.2684188,58.6095834 19.7981767,58.194087 20.3977778,57.9053333 C21.1716073,57.556193 22.0153156,57.3895345 22.8637778,57.4182222 C23.5463941,57.3983697 24.2270138,57.5014939 24.8731111,57.7226667 C25.3721636,57.8964274 25.8214524,58.1889876 26.1822222,58.5751111 C26.8994844,59.4585784 27.3906192,60.5035462 27.6131111,61.6195556 L17.6882222,61.6195556 L17.8708889,60.7366667 C18.0648061,60.1744595 18.3530775,59.6493938 18.7233333,59.184" id="Shape" fill="#1E120C"></path>
                    <path d="M61.0715556,77.6028889 L51.512,63.8724444 L60.1582222,51.6946667 C60.1582222,51.6946667 60.1582222,51.5424444 59.9755556,51.5424444 L51.1771111,51.5424444 C51.0472499,51.5350728 50.9220564,51.5919789 50.8422222,51.6946667 L46.9148889,57.5704444 L42.9875556,51.7251111 C42.8771725,51.6074471 42.7226646,51.5412294 42.5613333,51.5424444 L33.6715556,51.5424444 C33.3975556,51.5424444 33.6715556,51.6946667 33.6715556,51.6946667 L34.3108889,52.5775556 L42.0437778,64.0855556 L32.9104444,77.6028889 C32.9104444,77.6028889 32.7277778,77.8768889 32.9104444,77.8768889 L41.6784444,77.8768889 C41.8832913,77.8688941 42.0686049,77.7530731 42.1655556,77.5724444 L46.854,70.4788889 L51.5728889,77.6028889 C51.6868866,77.7666162 51.8628754,77.8766091 52.06,77.9073333 L60.9497778,77.9073333 C61.2846667,77.9073333 60.9497778,77.6028889 60.9497778,77.6028889" id="Path" fill="#1E120C"></path>
                    <path d="M72.1228889,51.512 L62.0457778,51.512 C61.6804444,51.512 61.7413333,51.7251111 61.7413333,51.7251111 L63.3548889,77.6028889 C63.3548889,77.6028889 63.3548889,77.9377778 63.6593333,77.9377778 L70.7833333,77.9377778 C71.0877778,77.9377778 71.0573333,77.6028889 71.0573333,77.6028889 L72.5186667,51.7555556 C72.5186667,51.7555556 72.5186667,51.4815556 72.2751111,51.4815556" id="Path" fill="#1E120C"></path>
                    <path d="M91.2724444,57.4486667 C91.2724444,57.4486667 91.546452,57.4486667 91.546452,57.1137778 L91.546452,51.7555556 C91.5469956,51.6853224 91.5172004,51.6182704 91.4647059,51.5716086 C91.4122114,51.5249469 91.3421286,51.5032184 91.2724444,51.512 L86.4926667,51.512 L86.4926667,44.2662222 C86.5013645,44.1884402 86.4763842,44.1106514 86.4240265,44.0524762 C86.3716687,43.9943009 86.296932,43.961293 86.2186667,43.9617778 L78.5771111,43.9617778 C78.4993291,43.95308 78.4215403,43.9780602 78.3633651,44.030418 C78.3051898,44.0827757 78.2721819,44.1575125 78.2726667,44.2357778 L78.2726667,51.512 L74.4062222,51.512 C74.0713333,51.512 74.1017778,51.7251111 74.1017778,51.7251111 L74.1017778,57.1442222 C74.09308,57.2220042 74.1180602,57.299793 74.170418,57.3579683 C74.2227757,57.4161435 74.2975125,57.4491515 74.3757778,57.4486667 L78.2726667,57.4486667 L78.2726667,71.514 C78.2350371,72.683353 78.4859827,73.8439761 79.0033333,74.8933333 C79.4661069,75.7398931 80.1500713,76.4449025 80.9822222,76.9331111 C81.8322475,77.4321041 82.7747936,77.7531912 83.7526667,77.8768889 C84.7607603,78.0236242 85.7784058,78.0948594 86.7971111,78.0902328 L88.9282222,78.0902328 C89.6007739,78.0649188 90.2715065,78.0039431 90.9375556,77.9073333 L91.2724444,77.9073333 C91.2724444,77.9073333 91.516,77.9073333 91.516,77.5724444 L91.516,71.514 C91.516,71.1791111 91.242,71.3008889 91.242,71.3008889 L90.7244444,71.3008889 L89.7806667,71.3008889 L88.7151111,71.3008889 C88.2911476,71.3629448 87.8604079,71.3629448 87.4364444,71.3008889 C87.2168912,71.282319 87.0114521,71.1850057 86.858,71.0268889 C86.7164287,70.873984 86.6213811,70.6838888 86.584,70.4788889 C86.5263616,70.0546153 86.5263616,69.6244958 86.584,69.2002222 L86.584,57.4486667 L91.2724444,57.4486667 Z" id="Path" fill="#1E120C"></path>
                    <path d="M118.398444,59.0622222 C117.779423,57.4202982 116.837362,55.9192121 115.628,54.6477778 C114.385222,53.4168111 112.90363,52.4532576 111.274444,51.8164444 C107.652879,50.5174815 103.692454,50.5174815 100.070889,51.8164444 C98.4547758,52.4439078 96.9912624,53.4092039 95.7782222,54.6477778 C94.5491384,55.9095565 93.5953853,57.4127543 92.9773333,59.0622222 C92.3270204,60.8887879 92.0074315,62.8166311 92.0335556,64.7553333 C92.0021454,66.6944313 92.3218895,68.62321 92.9773333,70.4484444 C93.5959373,72.0886534 94.5498843,73.5817877 95.7782222,74.8324444 C96.9868642,76.0690061 98.4522464,77.0251421 100.070889,77.6333333 C103.692454,78.9322963 107.652879,78.9322963 111.274444,77.6333333 C112.909593,77.0225042 114.39432,76.0672952 115.628,74.8324444 C116.837213,73.5725325 117.779531,72.081393 118.398444,70.4484444 C119.064255,68.6251265 119.394322,66.6962925 119.372667,64.7553333 C119.389029,62.8147977 119.059121,60.8869008 118.398444,59.0622222 M108.260444,71.514 C107.464592,71.9361905 106.573275,72.145912 105.672667,72.1228889 C104.771628,72.1501265 103.879247,71.9401544 103.084889,71.514 C102.417821,71.1258259 101.85395,70.5828391 101.440889,69.9308889 C101.002147,69.1977477 100.693171,68.3944119 100.527556,67.5562222 C100.343017,66.6340705 100.251226,65.6957656 100.253512,64.7553333 C100.254121,63.8049642 100.345875,62.8568418 100.527556,61.924 C100.681898,61.092117 100.991758,60.2968084 101.440889,59.5797778 C101.861527,58.9259136 102.423277,58.3745664 103.084889,57.9662222 C103.87549,57.5302256 104.770602,57.3196109 105.672667,57.3573333 C106.574435,57.3227045 107.468729,57.5331267 108.260444,57.9662222 C108.94445,58.3559789 109.520075,58.9106718 109.934889,59.5797778 C110.399208,60.2890821 110.710292,61.0875309 110.848222,61.924 C111.029903,62.8568418 111.121657,63.8049642 111.122265,64.7553333 C111.124552,65.6957656 111.032761,66.6340705 110.848222,67.5562222 C110.696854,68.3984598 110.386919,69.2042907 109.934889,69.9308889 C109.526744,70.597532 108.948909,71.1438492 108.260444,71.514" id="Shape" fill="#1E120C"></path>
                    <path d="M71.9706667,84.2702222 C71.9706667,81.5463538 69.7625351,79.3382222 67.0386667,79.3382222 C64.3147983,79.3382222 62.1066667,81.5463538 62.1066667,84.2702222 C62.1066667,86.9940906 64.3147983,89.2022222 67.0386667,89.2022222 C69.7625351,89.2022222 71.9706667,86.9940906 71.9706667,84.2702222" id="Path" fill="#E52F2A"></path>
                    <path d="M24.0511111,44.114 L20.1846667,48.9851111 C20.1846667,48.9851111 19.9411111,49.2591111 20.1846667,49.2591111 L24.7513333,49.2591111 C24.9600232,49.2712061 25.1658822,49.206198 25.3297778,49.0764444 L31.8753333,44.114 C31.8753333,44.114 32.1188889,43.9008889 31.8753333,43.9008889 L24.5686667,43.9008889 C24.389804,43.8880147 24.2170228,43.9686459 24.112,44.114" id="Path" fill="#010101"></path>
                    <path d="M125.766,54.0997778 C125.775752,54.6627966 125.639391,55.2187289 125.370222,55.7133333 C125.071127,56.1952383 124.664794,56.601571 124.182889,56.9006667 C123.678643,57.1766979 123.11373,57.3231568 122.538889,57.3268889 C121.39465,57.3182482 120.340548,56.7043206 119.768444,55.7133333 C119.151427,54.7261089 119.151427,53.4734466 119.768444,52.4862222 C120.033482,51.9783312 120.447887,51.5639262 120.955778,51.2988889 C121.434579,51.014726 121.982139,50.8673061 122.538889,50.8726667 C123.704869,50.8594946 124.787269,51.4763461 125.370222,52.4862222 C125.639391,52.9808267 125.775752,53.5367589 125.766,54.0997778 M125.157111,54.0997778 C125.174374,53.4015247 124.898328,52.7279726 124.396,52.2426667 C123.375725,51.2327547 121.732497,51.2327547 120.712222,52.2426667 C119.70231,53.2629412 119.70231,54.9061699 120.712222,55.9264444 C121.732497,56.9363564 123.375725,56.9363564 124.396,55.9264444 C124.890503,55.4483997 125.165872,54.7875157 125.157111,54.0997778 M121.199333,52.3644444 L122.752,52.3644444 C123.089945,52.3329138 123.427258,52.4308437 123.695778,52.6384444 C123.910566,52.8042444 124.025463,53.0685065 124.000222,53.3386667 C124.008533,53.5612452 123.93241,53.7787403 123.787111,53.9475556 C123.586174,54.1234252 123.346088,54.2486872 123.086889,54.3128889 L123.360889,54.3128889 C123.473911,54.416781 123.566799,54.5406311 123.634889,54.6782222 L124.213333,55.6524444 L123.178222,55.6524444 C122.991244,55.2469195 122.767022,54.8596281 122.508444,54.4955556 C122.443083,54.3696273 122.315314,54.28832 122.173556,54.2824444 L122.173556,54.2824444 L122.173556,55.622 L121.199333,55.622 L121.199333,52.3644444 Z M122.082222,53.8257778 L122.447556,53.8257778 C122.615574,53.881506 122.797093,53.881506 122.965111,53.8257778 C123.055632,53.7505853 123.107998,53.6390108 123.107998,53.5213333 C123.107998,53.4036559 123.055632,53.2920814 122.965111,53.2168889 C122.808496,53.1557524 122.634616,53.1557524 122.478,53.2168889 L122.082222,53.2168889 L122.082222,53.8257778 Z" id="Shape" fill="#1E120C"></path>
                </g>
                <g id="Group-4" transform="translate(0.000000, 38.786184)" fill="#FFFFFF">
                    <path d="M23.9909075,1.92773735e-05 C14.2849996,1.92773735e-05 5.53537415,5.84837602 1.82393447,14.8166459 C-1.8875052,23.7849158 0.170582543,34.1059224 7.03805201,40.9646768 C13.9055215,47.8234312 24.2291333,49.8684113 33.192683,46.1455863 C42.1562327,42.4227614 47.9934469,33.6657165 47.9811492,23.9598164 C47.9811492,17.6000099 45.4526297,11.5011284 40.952713,7.00692226 C36.4527963,2.51271613 30.3507089,-0.00804242827 23.9909075,1.92773735e-05 L23.9909075,1.92773735e-05 Z M38.4824631,18.2667053 C39.2979129,18.2667989 40.0324412,18.7597169 40.3415794,19.5142976 C40.6507175,20.2688784 40.4731535,21.1354642 39.8921587,21.7076561 C39.3111639,22.2798479 38.4419683,22.4441617 37.6921949,22.12354 C36.9424215,21.8029182 36.4607744,21.0609505 36.4731297,20.2455942 C36.439926,19.7155067 36.6212027,19.1943225 36.9761911,18.7992548 C37.3311795,18.4041871 37.8300779,18.1684022 38.3606853,18.1449275 L38.4824631,18.2667053 Z M23.2602409,8.28092754 C24.9416411,8.28092754 26.3046853,9.64397174 26.3046853,11.325372 C26.3046853,13.0067722 24.9416411,14.3698164 23.2602409,14.3698164 C21.5788406,14.3698164 20.2157964,13.0067722 20.2157964,11.325372 C20.1810623,10.4754648 20.5034775,9.64978445 21.1049543,9.04830765 C21.7064311,8.44683085 22.5321115,8.12441563 23.3820186,8.15914976 L23.2602409,8.28092754 Z M9.0426853,18.2971498 C9.6611107,18.2972735 10.217997,18.6715317 10.4517123,19.2440936 C10.6854277,19.8166555 10.549515,20.473709 10.1078277,20.9065626 C9.66614029,21.3394162 9.00647544,21.4620287 8.43875142,21.2167953 C7.8710274,20.9715619 7.50809458,20.4072293 7.52046308,19.7889275 C7.48155899,19.3447411 7.64338717,18.9064397 7.96160957,18.5941103 C8.27983198,18.2817809 8.72108131,18.1281729 9.16446308,18.175372 L9.0426853,18.2971498 Z M12.3915742,31.4491498 C12.3755825,32.0645222 11.8805021,32.5596025 11.2651297,32.5755942 L6.08957419,32.5755942 C5.47420179,32.5596025 4.97912147,32.0645222 4.96312974,31.4491498 L4.96312974,19.271372 C4.96312974,18.7669519 5.372043,18.3580386 5.87646308,18.3580386 C6.38088315,18.3580386 6.78979641,18.7669519 6.78979641,19.271372 L6.78979641,22.1635942 L11.2651297,22.1635942 C11.8805021,22.1795859 12.3755825,22.6746662 12.3915742,23.2900386 L12.3915742,31.4491498 Z M30.1102409,35.163372 C30.0935841,36.4125169 29.0761634,37.4162609 27.8269075,37.4162609 L17.3540186,37.4162609 C16.1047627,37.4162609 15.087342,36.4125169 15.0706851,35.163372 L15.0706851,9.98581643 C15.0704235,9.46640362 15.2808347,8.96909337 15.6538083,8.60759588 C16.0267819,8.2460984 16.5304231,8.05132706 17.0495742,8.06781643 C17.5502061,8.075826 18.0271438,8.28241625 18.3754336,8.64212537 C18.7237234,9.00183449 18.9148251,9.48518666 18.9066853,9.98581643 L18.9066853,15.9224831 L28.0400186,15.9224831 C29.3010688,15.9224831 30.323352,16.9447662 30.323352,18.2058164 L30.1102409,35.163372 Z M41.3137964,37.1727053 L34.5855742,37.1727053 C34.1899301,37.1727053 33.8104906,37.0155363 33.530728,36.7357737 C33.2509654,36.4560111 33.0937964,36.0765716 33.0937964,35.6809275 L33.0937964,19.3018164 C33.0179319,18.8265168 33.2291336,18.3511272 33.6326944,18.0888224 C34.0362551,17.8265175 34.5564488,17.8265175 34.9600096,18.0888224 C35.3635703,18.3511272 35.5747721,18.8265168 35.4989075,19.3018164 L35.4989075,23.1682609 L41.4051297,23.1682609 C42.2172715,23.1680917 42.8803332,23.8176215 42.8969075,24.6295942 L42.8969075,35.5591498 C42.8969075,36.3830359 42.2290159,37.0509275 41.4051297,37.0509275 L41.3137964,37.1727053 Z" id="Shape"></path>
                    <path d="M55.1051297,13.243372 L59.0629075,13.243372 L59.0629075,17.0184831 L59.0629075,17.0184831 C60.8572427,14.1837971 64.0215193,12.5147282 67.3742409,12.6344831 C70.4475964,12.3369005 73.3401429,14.1322742 74.437352,17.0184831 C76.1889932,14.2772579 79.2216201,12.6230978 82.4746853,12.6344831 C87.6197964,12.6344831 91.0600186,14.7960386 91.0600186,20.093372 L91.0600186,38.9689275 L87.0717964,38.9689275 L87.0717964,22.1027053 C87.0717964,18.9060386 86.219352,16.3791498 82.0789075,16.3791498 C80.273095,16.1909599 78.4775074,16.8184441 77.1819663,18.0904298 C75.8864253,19.3624156 75.2261029,21.1461884 75.3811297,22.9551498 L75.3811297,38.9689275 L71.0275742,38.9689275 L71.0275742,22.1027053 C71.0275742,18.7538164 69.9620186,16.3791498 66.1869075,16.3791498 C62.5151114,16.4062754 59.4996206,19.2883374 59.3064631,22.9551498 L59.3064631,38.9689275 L55.1051297,38.9689275 L55.1051297,13.243372 Z" id="Path"></path>
                    <path d="M107.743574,12.6344831 C115.902685,12.6344831 120.225796,18.723372 120.225796,26.121372 C120.225796,33.519372 115.902685,39.5778164 107.743574,39.5778164 C99.5844631,39.5778164 95.261352,33.6411498 95.261352,26.121372 C95.261352,18.6015942 99.5844631,12.6344831 107.743574,12.6344831 Z M107.743574,35.8331498 C112.158019,35.8331498 115.750463,32.3624831 115.750463,26.121372 C115.750463,19.8802609 112.158019,16.3791498 107.743574,16.3791498 C103.32913,16.3791498 99.7366853,19.8498164 99.7366853,26.121372 C99.7366853,32.3929275 103.298685,35.7722609 107.743574,35.7722609 L107.743574,35.8331498 Z M108.991796,2.58781643 L114.471796,2.58781643 L107.956685,9.71181643 L104.69913,9.71181643 L108.991796,2.58781643 Z" id="Shape"></path>
                    <polygon id="Path" points="135.782908 38.9689275 131.368463 38.9689275 121.808908 13.243372 126.649574 13.243372 133.864908 34.5544831 133.864908 34.5544831 140.897574 13.243372 145.312019 13.243372"></polygon>
                    <path d="M152.710019,8.61581643 L148.508685,8.61581643 L148.508685,3.44026087 L152.710019,3.44026087 L152.710019,8.61581643 Z M148.508685,13.243372 L152.710019,13.243372 L152.710019,38.9689275 L148.508685,38.9689275 L148.508685,13.243372 Z" id="Shape"></path>
                    <polygon id="Path" points="158.494463 3.44026087 162.726241 3.44026087 162.726241 38.9689275 158.494463 38.9689275"></polygon>
                </g>
            </g>
        </g>
    </g>
</svg>