<?xml version="1.0" encoding="UTF-8"?>
<svg width="50px" height="50px" viewBox="0 0 50 50" version="1.1" xmlns="http://www.w3.org/2000/svg" xmlns:xlink="http://www.w3.org/1999/xlink">
    <!-- Generator: Sketch 64 (93537) - https://sketch.com -->
    <title>img-03</title>
    <desc>Created with Sketch.</desc>
    <g id="Welcome" stroke="none" stroke-width="1" fill="none" fill-rule="evenodd">
        <g id="HOME---Aliados---Móvil-Éxito---Desktop-HD" transform="translate(-943.000000, -937.000000)">
            <g id="img-03" transform="translate(943.000000, 937.000000)">
                <rect id="Rectangle-Copy-5" fill="#FFEB00" x="0" y="0" width="50" height="50" rx="10"></rect>
                <g id="Shape-3" transform="translate(12.000000, 10.000000)" fill="#61268B" fill-rule="nonzero">
                    <path d="M19.3245033,16.1507692 L16.2906571,19.1623077 C13.1803962,17.4051065 10.6082429,14.8329532 8.85104175,11.7226923 L11.8848879,8.68884615 L7.52373406,5.86197757e-14 L0.162195598,2.96692308 L0.0841186749,3.46884615 C0.0283494441,3.83692308 -1.12049671,12.6707692 7.14450329,20.9357692 C13.4687341,27.3046154 20.1610418,28.0853846 23.0833494,28.0853846 C23.5826792,28.0897981 24.0818127,28.063724 24.5779648,28.0073077 L25.0798879,27.9292308 L28.046811,20.5119231 L19.3245033,16.1507692 Z M23.7860418,26.3119231 C21.8898879,26.4011538 14.8629648,26.3119231 8.29334944,19.6976923 C1.72373406,13.0834615 1.60104175,6.09 1.67911867,4.205 L6.63142637,2.21961538 L9.69873406,8.37653846 L6.65373406,11.4215385 L6.94373406,11.9903846 C7.93160828,13.9271227 9.22321293,15.6931943 10.7695033,17.2215385 C12.2956896,18.7703306 14.0621889,20.062248 16.0006571,21.0473077 L16.5695033,21.3373077 L19.6145033,18.2923077 L25.8160418,21.3930769 L23.7860418,26.3119231 Z" id="Shape"></path>
                </g>
            </g>
        </g>
    </g>
</svg>