<?xml version="1.0" encoding="UTF-8"?>
<svg width="81px" height="81px" viewBox="0 0 81 81" version="1.1" xmlns="http://www.w3.org/2000/svg" xmlns:xlink="http://www.w3.org/1999/xlink">
    <!-- Generator: Sketch 64 (93537) - https://sketch.com -->
    <title>img-05</title>
    <desc>Created with Sketch.</desc>
    <g id="Welcome" stroke="none" stroke-width="1" fill="none" fill-rule="evenodd">
        <g id="HOME---Aliados---Móvil-Éxito---Desktop-HD" transform="translate(-680.000000, -1210.000000)" fill-rule="nonzero">
            <g id="img-05" transform="translate(680.000000, 1210.000000)">
                <path d="M58.2453191,80.5059574 L22.2606383,80.5059574 C9.96702128,80.5059574 0,71.1478723 0,59.6125532 L0,20.8934043 C0,9.35234043 9.96702128,0 22.2606383,0 L58.2453191,0 C70.5389362,0 80.5059574,9.35234043 80.5059574,20.8934043 L80.5059574,59.6125532 C80.5059574,71.1478723 70.5389362,80.5059574 58.2453191,80.5059574 Z" id="Path" fill="#541F7F"></path>
                <path d="M51.2195745,18.1129787 L29.2978723,18.1129787 C26.521857,18.064915 24.2301859,20.2718046 24.173617,23.0476596 L24.173617,59.9744681 C24.2270634,62.7525829 26.5196587,64.9629327 29.2978723,64.9148936 L51.2195745,64.9148936 C53.9946156,64.9629332 56.2846393,62.7551551 56.3380851,59.9802128 L56.3380851,23.0476596 C56.2846393,20.2727173 53.9946156,18.0649391 51.2195745,18.1129787 Z M27.0919149,26.8851064 L53.4255319,26.8851064 L53.4255319,56.1370213 L27.0919149,56.1370213 L27.0919149,26.8851064 Z M29.2978723,21.0370213 L51.2195745,21.0370213 C51.7788858,21.0105118 52.3257685,21.2075864 52.739602,21.5847784 C53.1534354,21.9619703 53.4002226,22.4882927 53.4255319,23.0476596 L53.4255319,23.9610638 L27.0919149,23.9610638 L27.0919149,23.0476596 C27.1172243,22.4882927 27.3640114,21.9619703 27.7778449,21.5847784 C28.1916783,21.2075864 28.738561,21.0105118 29.2978723,21.0370213 L29.2978723,21.0370213 Z M51.2195745,61.9851064 L29.2978723,61.9851064 C28.1374266,62.0337776 27.1561849,61.1347342 27.1034043,59.9744681 L27.1034043,59.0610638 L53.4255319,59.0610638 L53.4255319,59.9744681 C53.4002226,60.533835 53.1534354,61.0601574 52.739602,61.4373493 C52.3257685,61.8145413 51.7788858,62.0116159 51.2195745,61.9851064 Z" id="Shape" fill="#FFFFFF"></path>
                <path d="M37.2082979,32.371265 C36.8198374,32.369729 36.4469236,32.523754 36.1727786,32.7989784 C35.8986336,33.0742027 35.746075,33.4477188 35.7491489,33.8361702 L35.7893617,48.8297872 C35.7937507,49.4040421 36.1332786,49.9227691 36.6577993,50.1565767 C37.18232,50.3903843 37.7950807,50.2961444 38.2251064,49.9155319 C38.5330422,49.6381896 38.7102358,49.2441942 38.7134043,48.8297872 L38.6731915,33.8189362 C38.663752,33.0166361 38.0106535,32.371265 37.2082979,32.371265 L37.2082979,32.371265 Z" id="Path" fill="#FFFFFF"></path>
                <path d="M43.2574468,32.7446693 C42.8689863,32.7431333 42.4960726,32.8971583 42.2219275,33.1723826 C41.9477825,33.447607 41.7952239,33.8211231 41.7982979,34.2095745 L41.832766,49.2204255 C41.7986365,49.7646273 42.0695919,50.2827497 42.536016,50.5651838 C43.00244,50.8476179 43.5871344,50.8476179 44.0535585,50.5651838 C44.5199825,50.2827497 44.790938,49.7646273 44.7568085,49.2204255 L44.7223404,34.2095745 C44.7223404,33.4005361 44.0664852,32.7446693 43.2574468,32.7446693 Z" id="Path" fill="#FFFFFF"></path>
                <path d="M49.4042669,38.4893617 C49.4058029,38.1009012 49.2517779,37.7279874 48.9765535,37.4538424 C48.7013292,37.1796974 48.3278131,37.0271388 47.9393617,37.0302128 L32.922766,37.0704255 C32.1508468,37.1188362 31.5495626,37.7590111 31.5495626,38.5324468 C31.5495626,39.3058825 32.1508468,39.9460574 32.922766,39.9944681 L47.9393617,39.9542553 C48.3278756,39.9542553 48.7004771,39.7999188 48.9751979,39.5251979 C49.2499188,39.2504771 49.4042669,38.8778756 49.4042669,38.4893617 L49.4042669,38.4893617 Z" id="Path" fill="#FFFFFF"></path>
                <path d="M49.0480851,44.5097872 C49.0354858,43.7124978 48.3805228,43.0755141 47.5831915,43.0851064 L32.5723404,43.0851064 C32.0281386,43.0509769 31.5100163,43.3219323 31.2275822,43.7883564 C30.9451481,44.2547804 30.9451481,44.8394749 31.2275822,45.3058989 C31.5100163,45.772323 32.0281386,46.0432784 32.5723404,46.0091489 L47.5889362,45.9574468 C48.3890529,45.9543644 49.0386778,45.3098546 49.0480851,44.5097872 L49.0480851,44.5097872 Z" id="Path" fill="#FFFFFF"></path>
            </g>
        </g>
    </g>
</svg>