<?xml version="1.0" encoding="UTF-8"?>
<svg width="80px" height="80px" viewBox="0 0 80 80" version="1.1" xmlns="http://www.w3.org/2000/svg" xmlns:xlink="http://www.w3.org/1999/xlink">
    <!-- Generator: Sketch 64 (93537) - https://sketch.com -->
    <title>img-06</title>
    <desc>Created with Sketch.</desc>
    <g id="Welcome" stroke="none" stroke-width="1" fill="none" fill-rule="evenodd">
        <g id="HOME---Aliados---Móvil-Éxito---Desktop-HD" transform="translate(-1077.000000, -1210.000000)" fill-rule="nonzero">
            <g id="img-06" transform="translate(1077.000000, 1210.000000)">
                <path d="M57.88,80 L22.12,80 C9.90285714,80 0,70.7028571 0,59.2342857 L0,20.7657143 C0,9.29714286 9.90285714,0 22.12,0 L57.88,0 C70.0971429,0 80,9.29714286 80,20.7657143 L80,59.2342857 C80,70.7028571 70.0971429,80 57.88,80 Z" id="Path" fill="#541F7F"></path>
                <path d="M50.8971429,18 L29.1028571,18 C26.3402597,17.9458051 24.0562451,20.1403007 24,22.9028571 L24,59.6 C24.0562689,62.3580122 26.3332568,64.5506671 29.0914286,64.5028571 L50.8971429,64.5028571 C53.6597403,64.557052 55.9437549,62.3625565 56,59.6 L56,22.9028571 C55.9437549,20.1403007 53.6597403,17.9458051 50.8971429,18 L50.8971429,18 Z M26.8971429,26.72 L53.08,26.72 L53.08,55.7828571 L26.92,55.7828571 L26.8971429,26.72 Z M29.08,20.9028571 L50.8971429,20.9028571 C52.0514487,20.8544434 53.0274986,21.74873 53.08,22.9028571 L53.08,23.8114286 L26.92,23.8114286 L26.92,22.9028571 C26.9725014,21.74873 27.9485513,20.8544434 29.1028571,20.9028571 L29.08,20.9028571 Z M50.8971429,61.6 L29.1028571,61.6 C27.9485513,61.6484137 26.9725014,60.7541271 26.92,59.6 L26.92,58.6914286 L53.08,58.6914286 L53.08,59.6 C53.0274986,60.7541271 52.0514487,61.6484137 50.8971429,61.6 Z" id="Shape" fill="#FFFFFF"></path>
                <path d="M46.7771429,33.6285714 C46.4900522,33.3705809 46.1117173,33.2381036 45.7263966,33.2606432 C45.3410758,33.2831829 44.9807671,33.4588678 44.7257143,33.7485714 L33.1028571,46.8571429 C32.7469184,47.2433115 32.6273553,47.7916368 32.7902177,48.2909307 C32.9530802,48.7902247 33.3729598,49.1625916 33.8881394,49.264614 C34.4033191,49.3666363 34.9334248,49.1823974 35.2742857,48.7828571 L46.8971429,35.6742857 C47.1548073,35.388152 47.2871442,35.0107437 47.2645962,34.6263545 C47.2420482,34.2419653 47.0664938,33.8826177 46.7771429,33.6285714 L46.7771429,33.6285714 Z" id="Path" fill="#FFFFFF"></path>
                <path d="M38.5485747,36.1657143 C38.5508825,34.1053855 37.3112436,32.2467517 35.4081893,31.4572301 C33.505135,30.6677084 31.3138358,31.1029461 29.8569624,32.5598195 C28.400089,34.0166929 27.9648513,36.2079921 28.7543729,38.1110464 C29.5438946,40.0141007 31.4025283,41.2537397 33.4628571,41.2514318 C36.2703141,41.2482794 38.5454223,38.9731713 38.5485747,36.1657143 Z M31.2799925,36.1657143 C31.2776874,35.2823147 31.8080548,34.4846137 32.6235468,34.1449476 C33.4390388,33.8052816 34.3788603,33.9906245 35.0043385,34.6144653 C35.6298166,35.2383061 35.8176224,36.1776385 35.4800951,36.9940181 C35.1425678,37.8103976 34.3462598,38.3428571 33.4628571,38.3428571 C32.2608214,38.339735 31.2862729,37.3677377 31.2799925,36.1657143 L31.2799925,36.1657143 Z" id="Shape" fill="#FFFFFF"></path>
                <path d="M46.5371429,41.2514286 C43.7291264,41.2545836 41.4550415,43.5329307 41.4571428,46.3409481 C41.4592471,49.1489655 43.7367418,51.4239041 46.5447598,51.4228539 C49.3527778,51.4218031 51.6285714,49.1451611 51.6285714,46.3371429 C51.625418,43.5274563 49.3468312,41.2514286 46.5371429,41.2514286 L46.5371429,41.2514286 Z M46.5371429,48.52 C45.6542596,48.52 44.8583106,47.9881639 44.5204458,47.1724861 C44.182581,46.3568083 44.369337,45.4179225 44.9936298,44.7936298 C45.6179225,44.169337 46.5568083,43.982581 47.3724861,44.3204458 C48.1881639,44.6583106 48.72,45.4542596 48.72,46.3371429 C48.72,47.5427016 47.7427016,48.52 46.5371429,48.52 Z" id="Shape" fill="#FFFFFF"></path>
            </g>
        </g>
    </g>
</svg>