<?xml version="1.0" encoding="UTF-8"?>
<svg width="81px" height="81px" viewBox="0 0 81 81" version="1.1" xmlns="http://www.w3.org/2000/svg" xmlns:xlink="http://www.w3.org/1999/xlink">
    <!-- Generator: Sketch 64 (93537) - https://sketch.com -->
    <title>img-04</title>
    <desc>Created with Sketch.</desc>
    <g id="Welcome" stroke="none" stroke-width="1" fill="none" fill-rule="evenodd">
        <g id="HOME---Aliados---Móvil-Éxito---Desktop-HD" transform="translate(-271.000000, -1210.000000)" fill-rule="nonzero">
            <g id="img-04" transform="translate(271.000000, 1210.000000)">
                <path d="M58.3487234,80.6495745 L22.3008511,80.6495745 C9.98425532,80.6495745 0,71.2742553 0,59.7446809 L0,20.933617 C0,9.36957447 9.98425532,0 22.3008511,0 L58.3487234,0 C70.6595745,0 80.6495745,9.36957447 80.6495745,20.933617 L80.6495745,59.7446809 C80.6495745,71.2742553 70.6595745,80.6495745 58.3487234,80.6495745 Z" id="Path" fill="#541F7F"></path>
                <polygon id="Path" fill="#FFFFFF" points="24.4665957 55.6602128 17.4465957 55.6602128 17.4465957 34.5944681 10.4208511 38.1906383 10.4208511 31.6991489 19.9053191 26.2531915 24.4665957 26.2531915"></polygon>
                <polygon id="Path" fill="#FFFFFF" points="40.6206383 45.6529787 34.5197872 55.6602128 25.9602128 55.6602128 35.1517021 40.913617 26.046383 26.2531915 34.6059574 26.2531915 40.6206383 36.1914894 46.6755319 26.2531915 55.2351064 26.2531915 46.1068085 40.913617 55.2982979 55.6602128 46.7617021 55.6602128"></polygon>
                <polygon id="Path" fill="#FFFFFF" points="68.0055319 55.6602128 60.9855319 55.6602128 60.9855319 34.5944681 53.9597872 38.1906383 53.9597872 31.6991489 63.4385106 26.2531915 68.0055319 26.2531915"></polygon>
            </g>
        </g>
    </g>
</svg>