<?xml version="1.0" encoding="UTF-8"?>
<svg width="116px" height="44px" viewBox="0 0 116 44" version="1.1" xmlns="http://www.w3.org/2000/svg" xmlns:xlink="http://www.w3.org/1999/xlink">
    <!-- Generator: Sketch 64 (93537) - https://sketch.com -->
    <title>appexito</title>
    <desc>Created with Sketch.</desc>
    <g id="Compra-y-Recoge" stroke="none" stroke-width="1" fill="none" fill-rule="evenodd">
        <g id="HOME---Servicios---Compra-y-Recoge-V2---Desktop-HD" transform="translate(-572.000000, -1843.000000)" fill-rule="nonzero">
            <g id="appexito" transform="translate(572.000000, 1843.000000)">
                <path d="M18.9601319,29.4703297 L13.610989,29.4703297 L13.610989,28.1358242 C12.1890361,29.4058129 10.3343564,30.0824128 8.42865934,30.0263736 C6.23600128,30.0601095 4.1328028,29.158161 2.6458022,27.5464176 C1.02215883,25.8144013 0.164357012,23.5015431 0.265934066,21.1296703 C0.186814556,18.7780059 1.04253028,16.4907657 2.6458022,14.7685275 C4.12111193,13.1338454 6.22679119,12.210586 8.42865934,12.232967 C10.3283441,12.1647306 12.182276,12.8251441 13.610989,14.079033 L13.610989,12.7445275 L18.949011,12.7445275 L18.9601319,29.4703297 Z M12.4099341,24.2212747 C13.2182185,23.3996375 13.6526083,22.281486 13.610989,21.1296703 C13.6483442,19.9764491 13.2100391,18.8585701 12.3988132,18.0380659 C11.6532693,17.2423522 10.6088802,16.7947569 9.51850549,16.8036484 C8.42085963,16.7669946 7.36151342,17.2094036 6.61595604,18.0158242 C5.85282686,18.8687064 5.45367998,19.9863176 5.50386813,21.1296703 C5.44777485,22.2805957 5.84731276,23.4072926 6.61595604,24.2657582 C7.366073,25.0643958 8.42339555,25.5019086 9.51850549,25.4668132 C10.6136013,25.471863 11.6613129,25.0205411 12.4099341,24.2212747 L12.4099341,24.2212747 Z" id="Shape" fill="#000000"></path>
                <path d="M39.189011,14.7462857 C40.7776197,16.4828774 41.6133733,18.7782009 41.5132747,21.1296703 C41.6147868,23.4746937 40.778443,25.7636347 39.189011,27.4908132 C37.6991024,29.137758 35.5711332,30.0619046 33.3505495,30.0263736 C31.4485702,30.1005356 29.5903243,29.4439819 28.1570989,28.1914286 L28.1570989,35.1864615 L22.8301978,35.1864615 L22.8301978,12.7445275 L28.1570989,12.7445275 L28.1570989,14.079033 C29.5886404,12.82246 31.4470709,12.1618616 33.3505495,12.232967 C35.568226,12.18885 37.6967962,13.1051487 39.189011,14.7462857 Z M35.1521319,24.2435165 C35.9207752,23.3850509 36.3203131,22.258354 36.2642198,21.1074286 C36.3144079,19.9640759 35.9152611,18.8464646 35.1521319,17.9935824 C34.4065745,17.1871618 33.3472283,16.7447529 32.2495824,16.7814066 C31.1592077,16.7725151 30.1148186,17.2201104 29.3692747,18.0158242 C28.5523254,18.8416975 28.1135533,19.9688187 28.1570989,21.1296703 C28.1122086,22.2907481 28.5511818,23.4183857 29.3692747,24.2435165 C30.1191087,25.0317457 31.1616961,25.4745435 32.2495824,25.4668132 C33.3481436,25.496201 34.406005,25.0503591 35.1521319,24.2435165 Z" id="Shape" fill="#000000"></path>
                <path d="M60.5855824,14.7462857 C62.1984358,16.4722682 63.0586456,18.7688282 62.9765714,21.1296703 C63.0586456,23.4905125 62.1984358,25.7870724 60.5855824,27.5130549 C59.1088396,29.1365865 57.0083862,30.0512348 54.8138462,30.0263736 C52.9084202,30.1011329 51.0464906,29.4446833 49.6092747,28.1914286 L49.6092747,35.1864615 L44.2823736,35.1864615 L44.2823736,12.7445275 L49.6092747,12.7445275 L49.6092747,14.079033 C51.0448096,12.8217595 52.906923,12.1612663 54.8138462,12.232967 C57.0089658,12.2052371 59.1105449,13.1203756 60.5855824,14.7462857 Z M56.6043077,24.2435165 C57.372951,23.3850509 57.7724889,22.258354 57.7163956,21.1074286 C57.7665838,19.9640759 57.3674369,18.8464646 56.6043077,17.9935824 C55.8630576,17.1876704 54.8072388,16.7450387 53.7128791,16.7814066 C52.6225044,16.7725151 51.5781153,17.2201104 50.8325714,18.0158242 C50.0126901,18.8405629 49.5700015,19.9674065 49.6092747,21.1296703 C49.5673143,22.2923946 50.010408,23.4202695 50.8325714,24.2435165 C51.5824054,25.0317457 52.6249928,25.4745435 53.7128791,25.4668132 C54.8081517,25.4958942 55.8624734,25.049835 56.6043077,24.2435165 Z" id="Shape" fill="#000000"></path>
                <rect id="Rectangle" fill="#FFEB00" x="71.3283516" y="0" width="43.7606593" height="43.7606593" rx="6.56"></rect>
                <path d="M93.2142418,36.1094945 C91.1673877,36.066715 89.5385794,34.3802893 89.5669513,32.3331849 C89.5953231,30.2860805 91.2702428,28.6454428 93.3174962,28.6594055 C95.3647496,28.6733683 97.0171354,30.336699 97.0175824,32.384 C97.011759,33.3838092 96.6066742,34.3398427 95.8924185,35.0394791 C95.1781627,35.7391156 94.2139577,36.1243457 93.2142418,36.1094945 L93.2142418,36.1094945 Z" id="Path" fill="#E32213"></path>
                <path d="M96.1612747,27.3796044 C96.1612747,27.3796044 96.1612747,27.6242637 95.9388571,27.6242637 L90.4896264,27.6242637 C90.2783297,27.6242637 90.2560879,27.3796044 90.2560879,27.3796044 L89.144,7.84021978 C89.144,7.84021978 89.144,7.65116484 89.3664176,7.65116484 L97.0620659,7.65116484 C97.2622418,7.65116484 97.2622418,7.87358242 97.2622418,7.87358242 L96.1612747,27.3796044 Z" id="Path" fill="#1D1D1B"></path>
            </g>
        </g>
    </g>
</svg>