<?xml version="1.0" encoding="UTF-8"?>
<svg width="120px" height="44px" viewBox="0 0 120 44" version="1.1" xmlns="http://www.w3.org/2000/svg" xmlns:xlink="http://www.w3.org/1999/xlink">
    <title>appexito</title>
    <g id="Compra-y-Recoge" stroke="none" stroke-width="1" fill="none" fill-rule="evenodd">
        <g id="HOME---Servicios---Compra-y-Recoge-V2---Desktop-HD-2" transform="translate(-560.000000, -1845.000000)">
            <g id="appexito" transform="translate(560.253968, 1845.000000)">
                <path d="M97.3664127,43.4726984 L21.5180952,43.4726984 C9.63390476,43.4726984 -7.94003311e-14,33.8380952 -7.94003311e-14,21.9532063 L-7.94003311e-14,21.5187937 C-7.94003311e-14,9.63460317 9.63390476,0 21.5180952,0 L97.3664127,0 C109.251302,0 118.885206,9.63460317 118.885206,21.5187937 L118.885206,21.9532063 C118.885206,33.8380952 109.251302,43.4726984 97.3664127,43.4726984" id="Fill-41" fill="#FFEB00"></path>
                <path d="M59.467746,22.1920635 C59.467746,20.4257778 58.1365714,19.2091429 56.6440635,19.2091429 C55.0370159,19.2091429 53.8657778,20.4257778 53.8657778,22.1920635 C53.8657778,23.9827937 55.0370159,25.176381 56.6440635,25.176381 C58.1365714,25.176381 59.467746,23.9827937 59.467746,22.1920635 L59.467746,22.1920635 Z M63.1406984,27.9539683 L59.467746,27.9539683 L59.467746,27.036254 C58.572381,27.8394286 57.3787937,28.2989841 55.8862857,28.2989841 C52.8335238,28.2989841 50.2619683,25.8426667 50.2619683,22.1920635 C50.2619683,18.5666032 52.8335238,16.0865397 55.8862857,16.0865397 C57.3787937,16.0865397 58.572381,16.5460952 59.467746,17.3492698 L59.467746,16.4315556 L63.1406984,16.4315556 L63.1406984,27.9539683 Z" id="Fill-42" fill="#2B2928"></path>
                <path d="M74.1560635,22.1920635 C74.1560635,20.4257778 72.9855238,19.2091429 71.3784762,19.2091429 C69.8866667,19.2091429 68.5547937,20.4257778 68.5547937,22.1920635 C68.5547937,23.9827937 69.8866667,25.176381 71.3784762,25.176381 C72.9855238,25.176381 74.1560635,23.9827937 74.1560635,22.1920635 M77.759873,22.1920635 C77.759873,25.8426667 75.1890159,28.2989841 72.1355556,28.2989841 C70.6444444,28.2989841 69.4508571,27.8394286 68.5547937,27.036254 L68.5547937,31.8566984 L64.8825397,31.8566984 L64.8825397,16.4315556 L68.5547937,16.4315556 L68.5547937,17.3492698 C69.4508571,16.5460952 70.6444444,16.0865397 72.1355556,16.0865397 C75.1890159,16.0865397 77.759873,18.5666032 77.759873,22.1920635" id="Fill-43" fill="#2B2928"></path>
                <path d="M88.0188571,22.1920635 C88.0188571,20.4257778 86.8483175,19.2091429 85.2412698,19.2091429 C83.7494603,19.2091429 82.4175873,20.4257778 82.4175873,22.1920635 C82.4175873,23.9827937 83.7494603,25.176381 85.2412698,25.176381 C86.8483175,25.176381 88.0188571,23.9827937 88.0188571,22.1920635 M91.6226667,22.1920635 C91.6226667,25.8426667 89.0518095,28.2989841 85.9983492,28.2989841 C84.5072381,28.2989841 83.3136508,27.8394286 82.4175873,27.036254 L82.4175873,31.8566984 L78.7453333,31.8566984 L78.7453333,16.4315556 L82.4175873,16.4315556 L82.4175873,17.3492698 C83.3136508,16.5460952 84.5072381,16.0865397 85.9983492,16.0865397 C89.0518095,16.0865397 91.6226667,18.5666032 91.6226667,22.1920635" id="Fill-44" fill="#2B2928"></path>
                <path d="M31.976127,24.6644444 C31.3454603,24.6644444 30.8328254,24.1594921 30.8328254,23.5365079 C30.8328254,22.9114286 31.3454603,22.4064762 31.976127,22.4064762 C32.6067937,22.4064762 33.1194286,22.9114286 33.1194286,23.5365079 C33.1194286,24.1594921 32.6067937,24.6644444 31.976127,24.6644444" id="Fill-45" fill="#0081A9"></path>
                <path d="M32.8714921,22.0174603 C32.8714921,22.0174603 32.8714921,22.0921905 32.8016508,22.0921905 L31.1499048,22.0921905 C31.0870476,22.0921905 31.0807619,22.0188571 31.0807619,22.0188571 L30.7448254,16.0907302 C30.7448254,16.0907302 30.732254,16.0348571 30.8139683,16.0348571 L33.1480635,16.0348571 C33.2088254,16.0348571 33.2081272,16.1012063 33.2081272,16.1012063 L32.8714921,22.0174603 Z" id="Fill-46" fill="#0081A9"></path>
                <path d="M38.6913651,34.1377143 L25.2608889,34.1377143 C24.5205714,34.1377143 23.9178413,33.5852698 23.9178413,32.9064127 L23.9178413,29.8424762 L40.0344127,29.8424762 L40.0344127,32.9064127 C40.0344127,33.5852698 39.432381,34.1377143 38.6913651,34.1377143 L38.6913651,34.1377143 Z M25.2608889,9.06749206 L38.6913651,9.06749206 C39.432381,9.06749206 40.0344127,9.61993651 40.0344127,10.2980952 L40.0344127,10.8575238 L23.9178413,10.8575238 L23.9178413,10.2980952 C23.9178413,9.61993651 24.5205714,9.06749206 25.2608889,9.06749206 L25.2608889,9.06749206 Z M23.9178413,12.648254 L40.0344127,12.648254 L40.0344127,28.0510476 L23.9178413,28.0510476 L23.9178413,12.648254 Z M38.6913651,7.27606349 L25.2608889,7.27606349 C23.5330159,7.27606349 22.1271111,8.63098413 22.1271111,10.2980952 L22.1271111,32.9064127 C22.1271111,34.5728254 23.5330159,35.927746 25.2608889,35.927746 L38.6913651,35.927746 C40.4192381,35.927746 41.8251429,34.5728254 41.8251429,32.9064127 L41.8251429,10.2980952 C41.8251429,8.63098413 40.4192381,7.27606349 38.6913651,7.27606349 L38.6913651,7.27606349 Z" id="Fill-47" fill="#0081A9"></path>
                <path d="M33.3729524,31.9621587 C33.3729524,32.7332063 32.7471746,33.3589841 31.976127,33.3589841 C31.2050794,33.3589841 30.5793016,32.7332063 30.5793016,31.9621587 C30.5793016,31.1911111 31.2050794,30.5646349 31.976127,30.5646349 C32.7471746,30.5646349 33.3729524,31.1911111 33.3729524,31.9621587" id="Fill-48" fill="#0081A9"></path>
            </g>
        </g>
    </g>
</svg>