<?xml version="1.0" encoding="UTF-8"?>
<svg width="1188px" height="125px" viewBox="0 0 1188 125" version="1.1" xmlns="http://www.w3.org/2000/svg" xmlns:xlink="http://www.w3.org/1999/xlink">
    <!-- Generator: Sketch 64 (93537) - https://sketch.com -->
    <title>banner</title>
    <desc>Created with Sketch.</desc>
    <defs>
        <rect id="path-1" x="0" y="0" width="1188" height="125" rx="10"></rect>
    </defs>
    <g id="Compra-y-Recoge" stroke="none" stroke-width="1" fill="none" fill-rule="evenodd">
        <g id="HOME---Servicios---Compra-y-Recoge-V2---Desktop-HD" transform="translate(-126.000000, -3234.000000)">
            <g id="banner" transform="translate(126.000000, 3234.000000)">
                <g id="footer-compra-y-recoge">
                    <g id="Group-8">
                        <g id="Rectangle">
                            <g id="Mask">
                                <mask id="mask-2" fill="white">
                                    <use xlink:href="#path-1"></use>
                                </mask>
                                <use fill="#000000" xlink:href="#path-1"></use>
                            </g>
                            <rect fill="#FFEB00" x="594" y="-16" width="621" height="165"></rect>
                        </g>
                        <path d="M116.684,54 L116.684,52.2 L109.868,52.2 L109.868,46.44 L115.964,46.44 L115.964,44.64 L109.868,44.64 L109.868,39.048 L116.684,39.048 L116.684,37.248 L107.684,37.248 L107.684,54 L116.684,54 Z M122.18,54 L122.18,46.728 C122.18,43.896 123.716,42.504 125.948,42.504 C128.156,42.504 129.62,43.872 129.62,46.56 L129.62,54 L131.78,54 L131.78,46.248 C131.78,42.48 129.452,40.608 126.404,40.608 C124.628,40.608 123.044,41.352 122.18,42.72 L122.18,40.848 L119.996,40.848 L119.996,54 L122.18,54 Z M140.948,54.216 C144.212,54.216 146.348,52.392 147.02,49.776 L144.668,49.776 C144.188,51.432 142.892,52.368 140.948,52.368 C138.548,52.368 136.772,50.664 136.772,47.4 C136.772,44.184 138.548,42.48 140.948,42.48 C142.892,42.48 144.212,43.488 144.668,45.072 L147.02,45.072 C146.348,42.312 144.212,40.632 140.948,40.632 C137.204,40.632 134.54,43.272 134.54,47.4 C134.54,51.576 137.204,54.216 140.948,54.216 Z M155.204,54.192 C156.956,54.192 158.564,53.424 159.404,52.056 L159.404,54 L161.588,54 L161.588,40.848 L159.404,40.848 L159.404,48.072 C159.404,50.904 157.892,52.296 155.636,52.296 C153.428,52.296 151.964,50.928 151.964,48.264 L151.964,40.848 L149.804,40.848 L149.804,48.552 C149.804,52.32 152.18,54.192 155.204,54.192 Z M170.972,54.216 C174.236,54.216 176.348,52.344 177.02,49.944 L174.668,49.944 C174.188,51.36 172.94,52.368 170.972,52.368 C168.74,52.368 166.868,50.904 166.7,48.24 L177.212,48.24 C177.26,47.784 177.284,47.4 177.284,46.92 C177.284,43.32 174.788,40.632 170.972,40.632 C167.132,40.632 164.468,43.248 164.468,47.4 C164.468,51.576 167.228,54.216 170.972,54.216 Z M175.028,46.464 L166.724,46.464 C166.964,43.896 168.74,42.48 170.876,42.48 C173.132,42.48 175.052,43.896 175.028,46.464 Z M182.348,54 L182.348,46.728 C182.348,43.896 183.884,42.504 186.116,42.504 C188.324,42.504 189.788,43.872 189.788,46.56 L189.788,54 L191.948,54 L191.948,46.248 C191.948,42.48 189.62,40.608 186.572,40.608 C184.796,40.608 183.212,41.352 182.348,42.72 L182.348,40.848 L180.164,40.848 L180.164,54 L182.348,54 Z M201.62,54 L201.62,52.152 L200.012,52.152 C198.668,52.152 198.188,51.696 198.188,50.4 L198.188,42.648 L201.62,42.648 L201.62,40.848 L198.188,40.848 L198.188,37.536 L196.004,37.536 L196.004,40.848 L194.3,40.848 L194.3,42.648 L196.004,42.648 L196.004,50.4 C196.004,53.04 197.324,54 199.652,54 L201.62,54 Z M206.444,54 L206.444,46.848 C206.444,43.8 208.028,42.864 210.116,42.864 L210.692,42.864 L210.692,40.608 C208.604,40.608 207.188,41.52 206.444,42.984 L206.444,40.848 L204.26,40.848 L204.26,54 L206.444,54 Z M218.612,54.216 C221.036,54.216 222.74,52.968 223.532,51.552 L223.532,54 L225.74,54 L225.74,40.848 L223.532,40.848 L223.532,43.248 C222.764,41.88 221.084,40.632 218.636,40.632 C215.108,40.632 212.396,43.272 212.396,47.376 C212.396,51.456 215.108,54.216 218.612,54.216 Z M219.068,52.296 C216.668,52.296 214.628,50.472 214.628,47.376 C214.628,44.28 216.668,42.528 219.068,42.528 C221.468,42.528 223.532,44.352 223.532,47.4 C223.532,50.496 221.468,52.296 219.068,52.296 Z M238.028,54 L238.028,46.752 C238.028,43.92 239.54,42.504 241.748,42.504 C243.908,42.504 245.348,43.872 245.348,46.56 L245.348,54 L247.508,54 L247.508,46.752 C247.508,43.92 249.02,42.504 251.228,42.504 C253.388,42.504 254.828,43.872 254.828,46.56 L254.828,54 L256.988,54 L256.988,46.248 C256.988,42.48 254.66,40.608 251.66,40.608 C249.644,40.608 247.772,41.64 247.004,43.536 C246.14,41.568 244.34,40.608 242.18,40.608 C240.452,40.608 238.892,41.352 238.028,42.744 L238.028,40.848 L235.844,40.848 L235.844,54 L238.028,54 Z M261.692,38.712 C262.484,38.712 263.132,38.064 263.132,37.224 C263.132,36.384 262.484,35.736 261.692,35.736 C260.852,35.736 260.204,36.384 260.204,37.224 C260.204,38.064 260.852,38.712 261.692,38.712 Z M262.748,54 L262.748,40.848 L260.564,40.848 L260.564,54 L262.748,54 Z M268.652,54 L268.652,36.24 L266.468,36.24 L266.468,54 L268.652,54 Z M278.06,54.216 C281.324,54.216 283.436,52.344 284.108,49.944 L281.756,49.944 C281.276,51.36 280.028,52.368 278.06,52.368 C275.828,52.368 273.956,50.904 273.788,48.24 L284.3,48.24 C284.348,47.784 284.372,47.4 284.372,46.92 C284.372,43.32 281.876,40.632 278.06,40.632 C274.22,40.632 271.556,43.248 271.556,47.4 C271.556,51.576 274.316,54.216 278.06,54.216 Z M282.116,46.464 L273.812,46.464 C274.052,43.896 275.828,42.48 277.964,42.48 C280.22,42.48 282.14,43.896 282.116,46.464 Z M291.908,54.216 C294.812,54.216 296.708,52.584 296.708,50.424 C296.612,45.72 288.98,47.424 288.98,44.304 C288.98,43.248 289.94,42.48 291.548,42.48 C293.3,42.48 294.308,43.44 294.404,44.76 L296.588,44.76 C296.444,42.192 294.524,40.632 291.62,40.632 C288.692,40.632 286.796,42.288 286.796,44.304 C286.796,49.2 294.572,47.496 294.572,50.424 C294.572,51.504 293.612,52.368 291.884,52.368 C290.036,52.368 288.908,51.408 288.788,50.136 L286.532,50.136 C286.676,52.536 288.836,54.216 291.908,54.216 Z M311.612,54.216 C314.012,54.216 315.716,52.992 316.508,51.528 L316.508,54 L318.716,54 L318.716,36.24 L316.508,36.24 L316.508,43.2 C315.596,41.688 313.7,40.632 311.636,40.632 C308.084,40.632 305.372,43.272 305.372,47.376 C305.372,51.456 308.084,54.216 311.612,54.216 Z M312.044,52.296 C309.644,52.296 307.604,50.472 307.604,47.376 C307.604,44.28 309.644,42.528 312.044,42.528 C314.444,42.528 316.508,44.352 316.508,47.4 C316.508,50.496 314.444,52.296 312.044,52.296 Z M328.1,54.216 C331.364,54.216 333.476,52.344 334.148,49.944 L331.796,49.944 C331.316,51.36 330.068,52.368 328.1,52.368 C325.868,52.368 323.996,50.904 323.828,48.24 L334.34,48.24 C334.388,47.784 334.412,47.4 334.412,46.92 C334.412,43.32 331.916,40.632 328.1,40.632 C324.26,40.632 321.596,43.248 321.596,47.4 C321.596,51.576 324.356,54.216 328.1,54.216 Z M332.156,46.464 L323.852,46.464 C324.092,43.896 325.868,42.48 328.004,42.48 C330.26,42.48 332.18,43.896 332.156,46.464 Z M345.884,60.24 L345.884,51.576 C346.7,52.92 348.404,54.216 350.804,54.216 C354.332,54.216 357.044,51.456 357.044,47.376 C357.044,43.272 354.332,40.632 350.804,40.632 C348.404,40.632 346.676,41.88 345.884,43.272 L345.884,40.848 L343.7,40.848 L343.7,60.24 L345.884,60.24 Z M350.348,52.296 C347.972,52.296 345.884,50.496 345.884,47.4 C345.884,44.352 347.972,42.528 350.348,42.528 C352.772,42.528 354.812,44.28 354.812,47.376 C354.812,50.472 352.772,52.296 350.348,52.296 Z M362.108,54 L362.108,46.848 C362.108,43.8 363.692,42.864 365.78,42.864 L366.356,42.864 L366.356,40.608 C364.268,40.608 362.852,41.52 362.108,42.984 L362.108,40.848 L359.924,40.848 L359.924,54 L362.108,54 Z M374.612,54.216 C378.356,54.216 381.356,51.576 381.356,47.4 C381.356,43.248 378.452,40.632 374.708,40.632 C370.988,40.632 368.06,43.248 368.06,47.4 C368.06,51.576 370.892,54.216 374.612,54.216 Z M374.612,52.296 C372.332,52.296 370.292,50.736 370.292,47.4 C370.292,44.088 372.38,42.528 374.684,42.528 C376.94,42.528 379.124,44.088 379.124,47.4 C379.124,50.736 376.892,52.296 374.612,52.296 Z M389.66,54.216 C392.06,54.216 393.764,52.992 394.556,51.528 L394.556,54 L396.764,54 L396.764,36.24 L394.556,36.24 L394.556,43.2 C393.644,41.688 391.748,40.632 389.684,40.632 C386.132,40.632 383.42,43.272 383.42,47.376 C383.42,51.456 386.132,54.216 389.66,54.216 Z M390.092,52.296 C387.692,52.296 385.652,50.472 385.652,47.376 C385.652,44.28 387.692,42.528 390.092,42.528 C392.492,42.528 394.556,44.352 394.556,47.4 C394.556,50.496 392.492,52.296 390.092,52.296 Z M405.74,54.192 C407.492,54.192 409.1,53.424 409.94,52.056 L409.94,54 L412.124,54 L412.124,40.848 L409.94,40.848 L409.94,48.072 C409.94,50.904 408.428,52.296 406.172,52.296 C403.964,52.296 402.5,50.928 402.5,48.264 L402.5,40.848 L400.34,40.848 L400.34,48.552 C400.34,52.32 402.716,54.192 405.74,54.192 Z M421.412,54.216 C424.676,54.216 426.812,52.392 427.484,49.776 L425.132,49.776 C424.652,51.432 423.356,52.368 421.412,52.368 C419.012,52.368 417.236,50.664 417.236,47.4 C417.236,44.184 419.012,42.48 421.412,42.48 C423.356,42.48 424.676,43.488 425.132,45.072 L427.484,45.072 C426.812,42.312 424.676,40.632 421.412,40.632 C417.668,40.632 415.004,43.272 415.004,47.4 C415.004,51.576 417.668,54.216 421.412,54.216 Z M436.484,54 L436.484,52.152 L434.876,52.152 C433.532,52.152 433.052,51.696 433.052,50.4 L433.052,42.648 L436.484,42.648 L436.484,40.848 L433.052,40.848 L433.052,37.536 L430.868,37.536 L430.868,40.848 L429.164,40.848 L429.164,42.648 L430.868,42.648 L430.868,50.4 C430.868,53.04 432.188,54 434.516,54 L436.484,54 Z M444.86,54.216 C448.604,54.216 451.604,51.576 451.604,47.4 C451.604,43.248 448.7,40.632 444.956,40.632 C441.236,40.632 438.308,43.248 438.308,47.4 C438.308,51.576 441.14,54.216 444.86,54.216 Z M444.86,52.296 C442.58,52.296 440.54,50.736 440.54,47.4 C440.54,44.088 442.628,42.528 444.932,42.528 C447.188,42.528 449.372,44.088 449.372,47.4 C449.372,50.736 447.14,52.296 444.86,52.296 Z M459.14,54.216 C462.044,54.216 463.94,52.584 463.94,50.424 C463.844,45.72 456.212,47.424 456.212,44.304 C456.212,43.248 457.172,42.48 458.78,42.48 C460.532,42.48 461.54,43.44 461.636,44.76 L463.82,44.76 C463.676,42.192 461.756,40.632 458.852,40.632 C455.924,40.632 454.028,42.288 454.028,44.304 C454.028,49.2 461.804,47.496 461.804,50.424 C461.804,51.504 460.844,52.368 459.116,52.368 C457.268,52.368 456.14,51.408 456.02,50.136 L453.764,50.136 C453.908,52.536 456.068,54.216 459.14,54.216 Z M65.72,87.12 C69.728,87.12 72.752,84.888 73.712,81.24 L69.2,81.24 C68.504,82.68 67.232,83.4 65.672,83.4 C63.152,83.4 61.424,81.528 61.424,78.552 C61.424,75.576 63.152,73.704 65.672,73.704 C67.232,73.704 68.504,74.424 69.2,75.864 L73.712,75.864 C72.752,72.216 69.728,69.96 65.72,69.96 C60.752,69.96 57.248,73.512 57.248,78.552 C57.248,83.592 60.752,87.12 65.72,87.12 Z M82.328,87.192 C86.264,87.192 89.336,84.552 89.336,80.304 C89.336,76.056 86.312,73.416 82.376,73.416 C78.464,73.416 75.416,76.056 75.416,80.304 C75.416,84.552 78.392,87.192 82.328,87.192 Z M82.328,83.64 C80.84,83.64 79.592,82.56 79.592,80.304 C79.592,78.024 80.888,76.968 82.376,76.968 C83.816,76.968 85.16,78.024 85.16,80.304 C85.16,82.56 83.792,83.64 82.328,83.64 Z M95.624,87 L95.624,79.728 C95.624,77.976 96.632,77.016 98.192,77.016 C99.752,77.016 100.76,77.976 100.76,79.728 L100.76,87 L104.84,87 L104.84,79.728 C104.84,77.976 105.848,77.016 107.408,77.016 C108.968,77.016 109.976,77.976 109.976,79.728 L109.976,87 L114.056,87 L114.056,79.176 C114.056,75.576 111.92,73.464 108.608,73.464 C106.664,73.464 104.984,74.544 104.096,75.96 C103.184,74.352 101.552,73.464 99.536,73.464 C97.784,73.464 96.416,74.208 95.624,75.288 L95.624,73.608 L91.52,73.608 L91.52,87 L95.624,87 Z M121.04,93.384 L121.04,85.128 C121.784,86.256 123.2,87.192 125.168,87.192 C128.456,87.192 131.072,84.504 131.072,80.28 C131.072,76.056 128.456,73.416 125.168,73.416 C123.2,73.416 121.784,74.328 121.04,75.504 L121.04,73.608 L116.936,73.608 L116.936,93.384 L121.04,93.384 Z M123.944,83.616 C122.408,83.616 121.016,82.44 121.016,80.304 C121.016,78.168 122.408,76.992 123.944,76.992 C125.504,76.992 126.896,78.144 126.896,80.28 C126.896,82.416 125.504,83.616 123.944,83.616 Z M137.336,87 L137.336,80.784 C137.336,78.48 138.464,77.808 140.408,77.808 L141.536,77.808 L141.536,73.464 C139.736,73.464 138.272,74.424 137.336,75.84 L137.336,73.608 L133.232,73.608 L133.232,87 L137.336,87 Z M148.568,87.192 C150.56,87.192 151.976,86.28 152.72,85.104 L152.72,87 L156.824,87 L156.824,73.608 L152.72,73.608 L152.72,75.504 C152,74.328 150.584,73.416 148.592,73.416 C145.304,73.416 142.688,76.056 142.688,80.28 C142.688,84.504 145.304,87.192 148.568,87.192 Z M149.792,83.616 C148.256,83.616 146.864,82.416 146.864,80.28 C146.864,78.144 148.256,76.992 149.792,76.992 C151.352,76.992 152.72,78.168 152.72,80.304 C152.72,82.44 151.352,83.616 149.792,83.616 Z M170.984,87.192 C174.92,87.192 177.992,84.552 177.992,80.304 C177.992,76.056 174.968,73.416 171.032,73.416 C167.12,73.416 164.072,76.056 164.072,80.304 C164.072,84.552 167.048,87.192 170.984,87.192 Z M170.984,83.64 C169.496,83.64 168.248,82.56 168.248,80.304 C168.248,78.024 169.544,76.968 171.032,76.968 C172.472,76.968 173.816,78.024 173.816,80.304 C173.816,82.56 172.448,83.64 170.984,83.64 Z M184.28,87 L184.28,79.728 C184.28,77.904 185.288,76.896 186.848,76.896 C188.408,76.896 189.416,77.904 189.416,79.728 L189.416,87 L193.496,87 L193.496,79.176 C193.496,75.576 191.432,73.464 188.336,73.464 C186.536,73.464 185.096,74.256 184.28,75.384 L184.28,73.608 L180.176,73.608 L180.176,87 L184.28,87 Z M200.456,87 L200.456,69.24 L196.352,69.24 L196.352,87 L200.456,87 Z M205.496,72.216 C206.936,72.216 207.92,71.232 207.92,70.008 C207.92,68.76 206.936,67.776 205.496,67.776 C204.032,67.776 203.048,68.76 203.048,70.008 C203.048,71.232 204.032,72.216 205.496,72.216 Z M207.536,87 L207.536,73.608 L203.432,73.608 L203.432,87 L207.536,87 Z M214.616,87 L214.616,79.728 C214.616,77.904 215.624,76.896 217.184,76.896 C218.744,76.896 219.752,77.904 219.752,79.728 L219.752,87 L223.832,87 L223.832,79.176 C223.832,75.576 221.768,73.464 218.672,73.464 C216.872,73.464 215.432,74.256 214.616,75.384 L214.616,73.608 L210.512,73.608 L210.512,87 L214.616,87 Z M232.64,87.192 C235.976,87.192 238.352,85.176 239,82.56 L234.632,82.56 C234.296,83.28 233.648,83.856 232.496,83.856 C231.176,83.856 230.096,83.04 229.952,81.288 L239.24,81.288 C239.288,80.88 239.312,80.472 239.312,80.088 C239.312,76.008 236.552,73.416 232.64,73.416 C228.656,73.416 225.872,76.056 225.872,80.304 C225.872,84.552 228.704,87.192 232.64,87.192 Z M235.112,79.008 L229.976,79.008 C230.216,77.52 231.248,76.704 232.592,76.704 C233.96,76.704 235.112,77.544 235.112,79.008 Z M251.624,87.192 C253.616,87.192 255.032,86.28 255.776,85.104 L255.776,87 L259.88,87 L259.88,73.608 L255.776,73.608 L255.776,75.504 C255.056,74.328 253.64,73.416 251.648,73.416 C248.36,73.416 245.744,76.056 245.744,80.28 C245.744,84.504 248.36,87.192 251.624,87.192 Z M252.848,83.616 C251.312,83.616 249.92,82.416 249.92,80.28 C249.92,78.144 251.312,76.992 252.848,76.992 C254.408,76.992 255.776,78.168 255.776,80.304 C255.776,82.44 254.408,83.616 252.848,83.616 Z M266.96,87 L266.96,79.728 C266.96,77.904 267.968,76.896 269.528,76.896 C271.088,76.896 272.096,77.904 272.096,79.728 L272.096,87 L276.176,87 L276.176,79.176 C276.176,75.576 274.136,73.464 271.088,73.464 C269.24,73.464 267.776,74.256 266.96,75.408 L266.96,69.24 L262.856,69.24 L262.856,87 L266.96,87 Z M285.128,87.192 C289.064,87.192 292.136,84.552 292.136,80.304 C292.136,76.056 289.112,73.416 285.176,73.416 C281.264,73.416 278.216,76.056 278.216,80.304 C278.216,84.552 281.192,87.192 285.128,87.192 Z M285.128,83.64 C283.64,83.64 282.392,82.56 282.392,80.304 C282.392,78.024 283.688,76.968 285.176,76.968 C286.616,76.968 287.96,78.024 287.96,80.304 C287.96,82.56 286.592,83.64 285.128,83.64 Z M298.424,87 L298.424,80.784 C298.424,78.48 299.552,77.808 301.496,77.808 L302.624,77.808 L302.624,73.464 C300.824,73.464 299.36,74.424 298.424,75.84 L298.424,73.608 L294.32,73.608 L294.32,87 L298.424,87 Z M309.656,87.192 C311.648,87.192 313.064,86.28 313.808,85.104 L313.808,87 L317.912,87 L317.912,73.608 L313.808,73.608 L313.808,75.504 C313.088,74.328 311.672,73.416 309.68,73.416 C306.392,73.416 303.776,76.056 303.776,80.28 C303.776,84.504 306.392,87.192 309.656,87.192 Z M310.88,83.616 C309.344,83.616 307.952,82.416 307.952,80.28 C307.952,78.144 309.344,76.992 310.88,76.992 C312.44,76.992 313.808,78.168 313.808,80.304 C313.808,82.44 312.44,83.616 310.88,83.616 Z M331.928,87.192 C335.264,87.192 337.64,85.176 338.288,82.56 L333.92,82.56 C333.584,83.28 332.936,83.856 331.784,83.856 C330.464,83.856 329.384,83.04 329.24,81.288 L338.528,81.288 C338.576,80.88 338.6,80.472 338.6,80.088 C338.6,76.008 335.84,73.416 331.928,73.416 C327.944,73.416 325.16,76.056 325.16,80.304 C325.16,84.552 327.992,87.192 331.928,87.192 Z M334.4,79.008 L329.264,79.008 C329.504,77.52 330.536,76.704 331.88,76.704 C333.248,76.704 334.4,77.544 334.4,79.008 Z M344.864,87 L344.864,79.728 C344.864,77.904 345.872,76.896 347.432,76.896 C348.992,76.896 350,77.904 350,79.728 L350,87 L354.08,87 L354.08,79.176 C354.08,75.576 352.016,73.464 348.92,73.464 C347.12,73.464 345.68,74.256 344.864,75.384 L344.864,73.608 L340.76,73.608 L340.76,87 L344.864,87 Z M369.488,87 L369.488,83.52 L368.024,83.52 C367.112,83.52 366.776,83.184 366.776,82.392 L366.776,77.016 L369.464,77.016 L369.464,73.608 L366.776,73.608 L366.776,70.344 L362.672,70.344 L362.672,73.608 L361.04,73.608 L361.04,77.016 L362.672,77.016 L362.672,82.344 C362.672,85.824 364.616,87 367.4,87 L369.488,87 Z M376.832,87.144 C378.632,87.144 380.072,86.328 380.888,85.176 L380.888,87 L384.992,87 L384.992,73.608 L380.888,73.608 L380.888,80.88 C380.888,82.704 379.88,83.712 378.296,83.712 C376.76,83.712 375.728,82.704 375.728,80.88 L375.728,73.608 L371.648,73.608 L371.648,81.432 C371.648,85.008 373.736,87.144 376.832,87.144 Z M398.984,87.192 C402.32,87.192 404.696,85.176 405.344,82.56 L400.976,82.56 C400.64,83.28 399.992,83.856 398.84,83.856 C397.52,83.856 396.44,83.04 396.296,81.288 L405.584,81.288 C405.632,80.88 405.656,80.472 405.656,80.088 C405.656,76.008 402.896,73.416 398.984,73.416 C395,73.416 392.216,76.056 392.216,80.304 C392.216,84.552 395.048,87.192 398.984,87.192 Z M401.456,79.008 L396.32,79.008 C396.56,77.52 397.592,76.704 398.936,76.704 C400.304,76.704 401.456,77.544 401.456,79.008 Z M411.008,87 L413.168,83.28 L415.736,87 L420.344,87 L415.736,80.352 L420.224,73.608 L415.784,73.608 L413.624,77.304 L411.056,73.608 L406.448,73.608 L410.984,80.16 L406.568,87 L411.008,87 Z M423.992,72.216 C425.432,72.216 426.416,71.232 426.416,70.008 C426.416,68.76 425.432,67.776 423.992,67.776 C422.528,67.776 421.544,68.76 421.544,70.008 C421.544,71.232 422.528,72.216 423.992,72.216 Z M426.032,87 L426.032,73.608 L421.928,73.608 L421.928,87 L426.032,87 Z M436.472,87 L436.472,83.52 L435.008,83.52 C434.096,83.52 433.76,83.184 433.76,82.392 L433.76,77.016 L436.448,77.016 L436.448,73.608 L433.76,73.608 L433.76,70.344 L429.656,70.344 L429.656,73.608 L428.024,73.608 L428.024,77.016 L429.656,77.016 L429.656,82.344 C429.656,85.824 431.6,87 434.384,87 L436.472,87 Z M444.848,87.192 C448.784,87.192 451.856,84.552 451.856,80.304 C451.856,76.056 448.832,73.416 444.896,73.416 C440.984,73.416 437.936,76.056 437.936,80.304 C437.936,84.552 440.912,87.192 444.848,87.192 Z M444.848,83.64 C443.36,83.64 442.112,82.56 442.112,80.304 C442.112,78.024 443.408,76.968 444.896,76.968 C446.336,76.968 447.68,78.024 447.68,80.304 C447.68,82.56 446.312,83.64 444.848,83.64 Z M455.96,87.192 C457.4,87.192 458.384,86.208 458.384,84.984 C458.384,83.712 457.4,82.728 455.96,82.728 C454.496,82.728 453.512,83.712 453.512,84.984 C453.512,86.208 454.496,87.192 455.96,87.192 Z M466.712,87.192 C470.072,87.192 472.448,85.248 473.144,82.152 L468.776,82.152 C468.416,83.136 467.768,83.688 466.64,83.688 C465.176,83.688 464.168,82.536 464.168,80.304 C464.168,78.072 465.176,76.92 466.64,76.92 C467.768,76.92 468.44,77.52 468.776,78.456 L473.144,78.456 C472.448,75.264 470.072,73.416 466.712,73.416 C462.776,73.416 459.992,76.08 459.992,80.304 C459.992,84.552 462.776,87.192 466.712,87.192 Z M481.424,87.192 C485.36,87.192 488.432,84.552 488.432,80.304 C488.432,76.056 485.408,73.416 481.472,73.416 C477.56,73.416 474.512,76.056 474.512,80.304 C474.512,84.552 477.488,87.192 481.424,87.192 Z M481.424,83.64 C479.936,83.64 478.688,82.56 478.688,80.304 C478.688,78.024 479.984,76.968 481.472,76.968 C482.912,76.968 484.256,78.024 484.256,80.304 C484.256,82.56 482.888,83.64 481.424,83.64 Z M494.72,87 L494.72,79.728 C494.72,77.976 495.728,77.016 497.288,77.016 C498.848,77.016 499.856,77.976 499.856,79.728 L499.856,87 L503.936,87 L503.936,79.728 C503.936,77.976 504.944,77.016 506.504,77.016 C508.064,77.016 509.072,77.976 509.072,79.728 L509.072,87 L513.152,87 L513.152,79.176 C513.152,75.576 511.016,73.464 507.704,73.464 C505.76,73.464 504.08,74.544 503.192,75.96 C502.28,74.352 500.648,73.464 498.632,73.464 C496.88,73.464 495.512,74.208 494.72,75.288 L494.72,73.608 L490.616,73.608 L490.616,87 L494.72,87 Z" id="EncuentramilesdeproductosCompraonlineahoraentuexito.com" fill="#FFFFFF" fill-rule="nonzero"></path>
                    </g>
                </g>
                <g id="head-exitopuntocom-copy-3" transform="translate(757.000000, 25.000000)" fill-rule="nonzero">
                    <rect id="Rectangle" fill="#FFEB00" x="0" y="0" width="248.769893" height="72.3196681" rx="23.4"></rect>
                    <path d="M43.5285919,32.1284753 C43.1108212,30.4400113 42.365155,28.8495164 41.333744,27.4468975 C40.3158161,26.0525011 38.9794559,24.91972 37.435203,24.1422543 C35.7119213,23.3046267 33.8108561,22.89519 31.8943632,22.948911 C30.1188833,22.9272997 28.3580228,23.2710486 26.7218894,23.958663 C23.6537895,25.2597919 21.25653,27.759977 20.0913,30.8739349 C19.4818495,32.5245559 19.1751138,34.2709597 19.1857334,36.0297902 C19.1611263,37.8282908 19.4627095,39.6164271 20.0759514,41.3080397 C20.6253374,42.8443109 21.4875718,44.2507067 22.6084682,45.4388437 C23.7308306,46.6202419 25.1051075,47.5352257 26.6297979,48.1162166 C28.307466,48.7657303 30.0947436,49.0877571 31.8943632,49.0647716 C34.4309764,49.1345547 36.932839,48.464572 39.0928503,47.1370631 C40.1360845,46.4518631 41.0332445,45.5679841 41.7328072,44.5361865 C42.5316145,43.3713622 43.1475232,42.0919117 43.559289,40.7419666 L43.7281235,40.2370905 C43.7281235,40.2370905 43.820215,40.0076014 43.5439405,40.0076014 L37.1589284,40.0076014 C36.8212595,40.0076014 36.7905623,40.206492 36.7905623,40.206492 L36.7905623,40.4053826 C36.6900396,40.7271986 36.5226947,41.0243241 36.2994075,41.2774412 C35.9981696,41.6223258 35.652369,41.9258585 35.2710522,42.1800983 C34.362157,42.778593 33.2902033,43.0831183 32.2013349,43.0521569 C31.4353357,43.0716756 30.671797,42.9577717 29.9450926,42.7155729 C29.3682673,42.533946 28.8424568,42.2194733 28.410234,41.7976165 C27.950148,41.3341053 27.6080628,40.7675438 27.4125758,40.1452949 C27.1929057,39.5078239 27.0587228,38.8442091 27.0135126,38.1716886 L43.896958,38.1716886 C44.1578839,38.1716886 44.1732325,37.8657031 44.1732325,37.8657031 L44.1732325,37.6515132 C44.1732325,37.2384328 44.1732325,36.8100532 44.1732325,36.3969728 C44.1380982,34.9528829 43.9215303,33.5188753 43.5285919,32.1284753 M27.9037306,30.5985479 C28.3010654,30.1157257 28.798479,29.7242924 29.3618464,29.4511024 C30.0951151,29.107503 30.9005656,28.9448315 31.7101801,28.9768249 C32.3515268,28.9652728 32.9901002,29.0635973 33.5980563,29.2675111 C34.0761855,29.4344308 34.5075983,29.7123749 34.8566404,30.0783726 C35.5315409,30.8921912 35.9953774,31.8589153 36.207316,32.893439 L26.9214211,32.893439 C26.9711888,32.609268 27.0378162,32.3282882 27.1209527,32.051979 C27.2739828,31.493938 27.5404186,30.9731933 27.9037306,30.5220516" id="Shape" fill="#000000"></path>
                    <path d="M67.8714504,48.1621145 L58.8464814,35.1883301 L66.9965809,23.6067797 C66.9965809,23.6067797 67.104021,23.4690863 66.8123979,23.4690863 L58.5702068,23.4690863 C58.441151,23.4523008 58.3127876,23.5046444 58.2325379,23.6067797 L54.5335285,29.1451169 L50.803822,23.6373783 C50.7004041,23.5279218 50.5555841,23.4668486 50.4047587,23.4690863 L41.9323389,23.4690863 C41.6867615,23.4690863 41.8095502,23.6373783 41.8095502,23.6373783 L42.3774479,24.4482398 L49.9443011,35.3260236 L41.1342123,48.192713 C41.1342123,48.192713 40.9653779,48.4375046 41.257001,48.4375046 L49.5298893,48.4375046 C49.7270523,48.438197 49.9067027,48.324784 49.9903469,48.1468152 L54.441437,41.4763317 L58.8771786,48.1468152 C58.9779938,48.3159853 59.1559999,48.4247354 59.3529848,48.4375046 L67.7333131,48.4375046 C68.0556334,48.4375046 67.8714504,48.1621145 67.8714504,48.1621145" id="Path" fill="#000000"></path>
                    <path d="M78.2777922,23.4690863 L68.7616684,23.4690863 C68.4239995,23.4690863 68.4700453,23.6985754 68.4700453,23.6985754 L69.8514181,48.1774137 C69.8514181,48.1774137 69.8514181,48.4833992 70.1276926,48.4833992 L76.8964194,48.4833992 C77.1880425,48.4833992 77.1880425,48.1621145 77.1880425,48.1621145 L78.5540667,23.790371 C78.5540667,23.790371 78.5540667,23.5149841 78.3084893,23.5149841" id="Path" fill="#000000"></path>
                    <path d="M96.4351702,29.0686205 C96.590208,29.0525269 96.7051386,28.9177488 96.6960962,28.7626351 L96.6960962,23.7138747 C96.7013844,23.6447062 96.6750011,23.5768652 96.6243237,23.5293221 C96.5736464,23.481779 96.5041141,23.4596365 96.4351702,23.4690863 L91.9226857,23.4690863 L91.9226857,16.6456101 C91.9272179,16.5712798 91.899569,16.4985784 91.8467429,16.445922 C91.7939167,16.3932656 91.720981,16.3657056 91.6464112,16.3702231 L84.4172268,16.3702231 C84.3452817,16.370099 84.2764777,16.399591 84.2270784,16.4517281 C84.1776791,16.5038652 84.1520687,16.5740202 84.1563009,16.6456101 L84.1563009,23.4843855 L80.4726401,23.4843855 C80.1349711,23.4843855 80.1656683,23.6985754 80.1656683,23.6985754 L80.1656683,28.8085329 C80.1562813,28.8813211 80.1801517,28.9544673 80.2307035,29.0078208 C80.2812552,29.0611742 80.3531546,29.0891055 80.4265943,29.0839198 L84.1256037,29.0839198 L84.1256037,42.440186 C84.0851096,43.5401231 84.3170547,44.6330682 84.8009415,45.622435 C85.2331768,46.4300108 85.8812953,47.1025238 86.6734691,47.5654428 C87.4787076,48.0210401 88.3647186,48.31716 89.2827288,48.4375014 C90.2687019,48.5811883 91.2639004,48.652776 92.2603546,48.6517034 L94.2556709,48.6517034 C94.8981171,48.6260207 95.538632,48.5647288 96.1742442,48.4680999 L96.4505188,48.4680999 C96.4505188,48.4680999 96.6960962,48.4680999 96.6960962,48.1468152 L96.6960962,42.3330911 C96.6960962,42.0271056 96.4351702,42.1189012 96.4351702,42.1189012 L95.9440154,42.2259962 L95.0537974,42.3483903 C94.7263609,42.3483903 94.388692,42.3483903 94.0407907,42.3483903 C93.6280793,42.3561428 93.2159026,42.3150575 92.8129038,42.2259962 C92.6198222,42.1933339 92.4393694,42.1086878 92.2910518,41.9812078 C92.1542842,41.8331993 92.0682806,41.645671 92.0454744,41.4457332 C91.9543469,41.0443153 91.9131076,40.6332473 91.9226857,40.2217913 L91.9226857,29.0686205 L96.4351702,29.0686205 Z" id="Path" fill="#000000"></path>
                    <path d="M122.098007,30.5985479 C120.960349,27.4536302 118.506592,24.9574989 115.375326,23.7597725 C111.950224,22.5155041 108.194555,22.5155041 104.769453,23.7597725 C103.233295,24.3532056 101.841523,25.2659029 100.686729,26.4371454 C99.5273052,27.6243163 98.6328664,29.0424783 98.0621204,30.5985479 C97.4362928,32.3190734 97.1294491,34.1386682 97.1565538,35.9685931 C97.1268364,37.7937289 97.4337876,39.6087753 98.0621204,41.323339 C98.636853,42.8729386 99.53093,44.2853152 100.686729,45.4694422 C101.843285,46.6311131 103.235174,47.533456 104.769453,48.1162166 C108.201626,49.3198971 111.943153,49.3198971 115.375326,48.1162166 C118.510537,46.9410603 120.968917,44.4514162 122.098007,41.3080397 C122.731569,39.5944545 123.043727,37.7793792 123.018922,35.9532938 C123.041111,34.1224293 122.729062,32.3028063 122.098007,30.5832487 M112.535838,42.3177918 C110.97854,43.0626461 109.166239,43.0626461 107.608941,42.3177918 C106.978501,41.9418826 106.451203,41.4162789 106.074083,40.7878644 C105.661211,40.1034209 105.370405,39.3528602 105.214562,38.5694697 C105.042679,37.6975872 104.955302,36.8112504 104.953636,35.9226953 C104.955314,35.024013 105.042682,34.1275239 105.214562,33.2453223 C105.359403,32.4587949 105.65095,31.7063224 106.074083,31.0269276 C106.461478,30.4065714 106.986586,29.8831508 107.608941,29.4970002 C108.372439,29.1318246 109.222179,28.9835978 110.064715,29.0686205 C110.92066,29.0407621 111.768516,29.241481 112.520489,29.649993 C113.147111,30.0307619 113.673351,30.5553114 114.055348,31.1799203 C114.47848,31.8593152 114.770027,32.6117876 114.914869,33.3983151 C115.099397,34.2788793 115.191982,35.1761188 115.191149,36.075688 C115.191964,36.9651388 115.099367,37.8522315 114.914869,38.7224624 C114.761766,39.5066424 114.470781,40.2576657 114.055348,40.9408571 C113.68685,41.5759228 113.157602,42.1034708 112.520489,42.4707845" id="Shape" fill="#000000"></path>
                    <path d="M78.2777922,54.388919 C78.2777922,51.8540523 76.2162533,49.7991368 73.6732161,49.7991368 C71.130179,49.7991368 69.0686401,51.8540523 69.0686401,54.388919 C69.0686401,56.9237857 71.130179,58.9787012 73.6732161,58.9787012 C76.2162533,58.9787012 78.2777922,56.9237857 78.2777922,54.388919" id="Path" fill="#CC2329"></path>
                    <path d="M131.660177,40.87966 C132.49354,41.6809213 132.964442,42.7853665 132.964807,43.9395148 C132.973823,45.0924727 132.507752,46.1985987 131.675525,46.9993696 C130.824421,47.8612587 129.649478,48.3275055 128.436973,48.2845086 C127.246738,48.3119324 126.095726,47.8596258 125.244467,47.0299682 C124.397405,46.2025188 123.935586,45.0599987 123.970535,43.8783177 C123.966303,42.7004496 124.437008,41.5702744 125.276895,40.741717 C126.116781,39.9131597 127.255416,39.4557029 128.436973,39.4721268 C129.661673,39.4708619 130.830819,39.9814133 131.660177,40.87966 Z" id="Path" fill="#000000"></path>
                    <path d="M152.242631,37.7127103 L159.471816,39.2426377 C158.901878,42.0398168 157.317067,44.5292365 155.020726,46.2344059 C152.695509,48.0208944 149.837016,48.9796412 146.901323,48.9576767 C143.355385,49.040674 139.919588,47.7268422 137.339154,45.3011502 C134.743069,42.8884542 133.321395,39.474009 133.440613,35.9379946 C133.325875,32.4072519 134.747176,28.999282 137.339154,26.5901382 C139.913506,24.1531313 143.35206,22.8327434 146.901323,22.9183124 C149.812751,22.8288522 152.670639,23.7120048 155.020726,25.4273933 C157.339205,27.0793648 158.975788,29.5154761 159.625302,32.2814681 L152.25798,34.0408846 C152.025174,32.7734623 151.364419,31.6235562 150.385452,30.7821392 C149.438554,30.0381579 148.260071,29.6483969 147.054809,29.6805915 C145.441271,29.6159057 143.878951,30.2522218 142.772553,31.4247087 C141.704256,32.6499578 141.154088,34.240317 141.237695,35.8614982 C141.14842,37.4880995 141.699049,39.0852823 142.772553,40.3135869 C143.890135,41.466415 145.44775,42.0896851 147.054809,42.0271056 C149.613017,42.0558622 151.812626,40.2265818 152.242631,37.7127103 Z" id="Path" fill="#000000"></path>
                    <path d="M183.185382,26.5595396 C185.788249,28.9442374 187.222307,32.3391817 187.11462,35.8614982 C187.221493,39.3970057 185.788687,42.8057229 183.185382,45.2093546 C180.583287,47.6051818 177.149268,48.8997726 173.607864,48.8199832 C170.027081,48.9156264 166.549042,47.6210377 163.907557,45.2093546 C161.284897,42.8180821 159.84357,39.4024359 159.962971,35.8614982 C159.846761,32.3344679 161.288689,28.9341741 163.907557,26.5595396 C166.549042,24.1478565 170.027081,22.8532678 173.607864,22.948911 C177.150377,22.8626459 180.586755,24.1581261 183.185382,26.5595396 L183.185382,26.5595396 Z M177.78268,40.4359811 C178.976039,39.2110768 179.613927,37.5523678 179.547767,35.8461989 C179.609446,34.1349416 178.959673,32.4742103 177.751983,31.2564167 C176.671394,30.126014 175.1743,29.4848848 173.607864,29.4817009 C172.002081,29.4675131 170.460374,30.1087481 169.340957,31.2564167 C168.112469,32.4627546 167.449603,34.1284767 167.514475,35.8461989 C167.450951,37.5577677 168.100999,39.2192038 169.31026,40.4359811 C170.434953,41.5944816 171.990759,42.2369591 173.607864,42.2106969 C175.186817,42.2250894 176.700112,41.5817872 177.78268,40.4359811 L177.78268,40.4359811 Z" id="Shape" fill="#000000"></path>
                    <path d="M226.882809,25.5956853 C228.714811,27.52795 229.688565,30.1144457 229.58416,32.7710448 L229.58416,48.0703188 L221.771729,48.0703188 L221.771729,34.3009722 C221.836523,33.0890182 221.417105,31.9008191 220.605237,30.9963291 C219.849893,30.1748077 218.77599,29.7176353 217.658308,29.7417886 C216.310713,29.6734764 215.009171,30.2400096 214.143482,31.271716 C213.195051,32.6080148 212.734605,34.2278991 212.838852,35.8614982 L212.838852,47.9020268 L204.980375,47.9020268 L204.980375,34.1326802 C205.040994,32.9185945 204.61596,31.7301217 203.798534,30.828037 C203.031348,29.9959441 201.938765,29.5379754 200.80556,29.5734966 C199.474557,29.5001434 198.189414,30.069483 197.352128,31.103424 C196.433208,32.4517239 195.990428,34.0664474 196.093544,35.6932062 L196.093544,47.7337348 L188.235067,47.7337348 L188.235067,23.5761812 L196.093544,23.5761812 L196.093544,25.8251745 C197.956596,23.8071059 200.62039,22.7147621 203.368774,22.841816 C206.611551,22.6398434 209.702639,24.2333424 211.411433,26.9879193 C213.466932,24.2567811 216.737555,22.7067966 220.160128,22.841816 C222.689546,22.7780958 225.129269,23.7775002 226.882809,25.5956853 L226.882809,25.5956853 Z" id="Path" fill="#000000"></path>
                </g>
            </g>
        </g>
    </g>
</svg>