<?xml version="1.0" encoding="UTF-8"?>
<svg width="568px" height="280px" viewBox="0 0 568 280" version="1.1" xmlns="http://www.w3.org/2000/svg" xmlns:xlink="http://www.w3.org/1999/xlink">
    <!-- Generator: Sketch 64 (93537) - https://sketch.com -->
    <title>banner-mobile</title>
    <desc>Created with Sketch.</desc>
    <defs>
        <rect id="path-1" x="0" y="0" width="568" height="280" rx="10"></rect>
    </defs>
    <g id="Compra-y-Recoge" stroke="none" stroke-width="1" fill="none" fill-rule="evenodd">
        <g id="banner-mobile">
            <g id="Rectangle">
                <g id="Mask">
                    <mask id="mask-2" fill="white">
                        <use xlink:href="#path-1"></use>
                    </mask>
                    <use fill="#000000" xlink:href="#path-1"></use>
                </g>
                <rect fill="#FFEB00" x="-27" y="140" width="646" height="370"></rect>
            </g>
            <path d="M115.436,63.264 L115.436,61.464 L108.62,61.464 L108.62,55.704 L114.716,55.704 L114.716,53.904 L108.62,53.904 L108.62,48.312 L115.436,48.312 L115.436,46.512 L106.436,46.512 L106.436,63.264 L115.436,63.264 Z M120.932,63.264 L120.932,55.992 C120.932,53.16 122.468,51.768 124.7,51.768 C126.908,51.768 128.372,53.136 128.372,55.824 L128.372,63.264 L130.532,63.264 L130.532,55.512 C130.532,51.744 128.204,49.872 125.156,49.872 C123.38,49.872 121.796,50.616 120.932,51.984 L120.932,50.112 L118.748,50.112 L118.748,63.264 L120.932,63.264 Z M139.7,63.48 C142.964,63.48 145.1,61.656 145.772,59.04 L143.42,59.04 C142.94,60.696 141.644,61.632 139.7,61.632 C137.3,61.632 135.524,59.928 135.524,56.664 C135.524,53.448 137.3,51.744 139.7,51.744 C141.644,51.744 142.964,52.752 143.42,54.336 L145.772,54.336 C145.1,51.576 142.964,49.896 139.7,49.896 C135.956,49.896 133.292,52.536 133.292,56.664 C133.292,60.84 135.956,63.48 139.7,63.48 Z M153.956,63.456 C155.708,63.456 157.316,62.688 158.156,61.32 L158.156,63.264 L160.34,63.264 L160.34,50.112 L158.156,50.112 L158.156,57.336 C158.156,60.168 156.644,61.56 154.388,61.56 C152.18,61.56 150.716,60.192 150.716,57.528 L150.716,50.112 L148.556,50.112 L148.556,57.816 C148.556,61.584 150.932,63.456 153.956,63.456 Z M169.724,63.48 C172.988,63.48 175.1,61.608 175.772,59.208 L173.42,59.208 C172.94,60.624 171.692,61.632 169.724,61.632 C167.492,61.632 165.62,60.168 165.452,57.504 L175.964,57.504 C176.012,57.048 176.036,56.664 176.036,56.184 C176.036,52.584 173.54,49.896 169.724,49.896 C165.884,49.896 163.22,52.512 163.22,56.664 C163.22,60.84 165.98,63.48 169.724,63.48 Z M173.78,55.728 L165.476,55.728 C165.716,53.16 167.492,51.744 169.628,51.744 C171.884,51.744 173.804,53.16 173.78,55.728 Z M181.1,63.264 L181.1,55.992 C181.1,53.16 182.636,51.768 184.868,51.768 C187.076,51.768 188.54,53.136 188.54,55.824 L188.54,63.264 L190.7,63.264 L190.7,55.512 C190.7,51.744 188.372,49.872 185.324,49.872 C183.548,49.872 181.964,50.616 181.1,51.984 L181.1,50.112 L178.916,50.112 L178.916,63.264 L181.1,63.264 Z M200.372,63.264 L200.372,61.416 L198.764,61.416 C197.42,61.416 196.94,60.96 196.94,59.664 L196.94,51.912 L200.372,51.912 L200.372,50.112 L196.94,50.112 L196.94,46.8 L194.756,46.8 L194.756,50.112 L193.052,50.112 L193.052,51.912 L194.756,51.912 L194.756,59.664 C194.756,62.304 196.076,63.264 198.404,63.264 L200.372,63.264 Z M205.196,63.264 L205.196,56.112 C205.196,53.064 206.78,52.128 208.868,52.128 L209.444,52.128 L209.444,49.872 C207.356,49.872 205.94,50.784 205.196,52.248 L205.196,50.112 L203.012,50.112 L203.012,63.264 L205.196,63.264 Z M217.364,63.48 C219.788,63.48 221.492,62.232 222.284,60.816 L222.284,63.264 L224.492,63.264 L224.492,50.112 L222.284,50.112 L222.284,52.512 C221.516,51.144 219.836,49.896 217.388,49.896 C213.86,49.896 211.148,52.536 211.148,56.64 C211.148,60.72 213.86,63.48 217.364,63.48 Z M217.82,61.56 C215.42,61.56 213.38,59.736 213.38,56.64 C213.38,53.544 215.42,51.792 217.82,51.792 C220.22,51.792 222.284,53.616 222.284,56.664 C222.284,59.76 220.22,61.56 217.82,61.56 Z M236.78,63.264 L236.78,56.016 C236.78,53.184 238.292,51.768 240.5,51.768 C242.66,51.768 244.1,53.136 244.1,55.824 L244.1,63.264 L246.26,63.264 L246.26,56.016 C246.26,53.184 247.772,51.768 249.98,51.768 C252.14,51.768 253.58,53.136 253.58,55.824 L253.58,63.264 L255.74,63.264 L255.74,55.512 C255.74,51.744 253.412,49.872 250.412,49.872 C248.396,49.872 246.524,50.904 245.756,52.8 C244.892,50.832 243.092,49.872 240.932,49.872 C239.204,49.872 237.644,50.616 236.78,52.008 L236.78,50.112 L234.596,50.112 L234.596,63.264 L236.78,63.264 Z M260.444,47.976 C261.236,47.976 261.884,47.328 261.884,46.488 C261.884,45.648 261.236,45 260.444,45 C259.604,45 258.956,45.648 258.956,46.488 C258.956,47.328 259.604,47.976 260.444,47.976 Z M261.5,63.264 L261.5,50.112 L259.316,50.112 L259.316,63.264 L261.5,63.264 Z M267.404,63.264 L267.404,45.504 L265.22,45.504 L265.22,63.264 L267.404,63.264 Z M276.812,63.48 C280.076,63.48 282.188,61.608 282.86,59.208 L280.508,59.208 C280.028,60.624 278.78,61.632 276.812,61.632 C274.58,61.632 272.708,60.168 272.54,57.504 L283.052,57.504 C283.1,57.048 283.124,56.664 283.124,56.184 C283.124,52.584 280.628,49.896 276.812,49.896 C272.972,49.896 270.308,52.512 270.308,56.664 C270.308,60.84 273.068,63.48 276.812,63.48 Z M280.868,55.728 L272.564,55.728 C272.804,53.16 274.58,51.744 276.716,51.744 C278.972,51.744 280.892,53.16 280.868,55.728 Z M290.66,63.48 C293.564,63.48 295.46,61.848 295.46,59.688 C295.364,54.984 287.732,56.688 287.732,53.568 C287.732,52.512 288.692,51.744 290.3,51.744 C292.052,51.744 293.06,52.704 293.156,54.024 L295.34,54.024 C295.196,51.456 293.276,49.896 290.372,49.896 C287.444,49.896 285.548,51.552 285.548,53.568 C285.548,58.464 293.324,56.76 293.324,59.688 C293.324,60.768 292.364,61.632 290.636,61.632 C288.788,61.632 287.66,60.672 287.54,59.4 L285.284,59.4 C285.428,61.8 287.588,63.48 290.66,63.48 Z M310.364,63.48 C312.764,63.48 314.468,62.256 315.26,60.792 L315.26,63.264 L317.468,63.264 L317.468,45.504 L315.26,45.504 L315.26,52.464 C314.348,50.952 312.452,49.896 310.388,49.896 C306.836,49.896 304.124,52.536 304.124,56.64 C304.124,60.72 306.836,63.48 310.364,63.48 Z M310.796,61.56 C308.396,61.56 306.356,59.736 306.356,56.64 C306.356,53.544 308.396,51.792 310.796,51.792 C313.196,51.792 315.26,53.616 315.26,56.664 C315.26,59.76 313.196,61.56 310.796,61.56 Z M326.852,63.48 C330.116,63.48 332.228,61.608 332.9,59.208 L330.548,59.208 C330.068,60.624 328.82,61.632 326.852,61.632 C324.62,61.632 322.748,60.168 322.58,57.504 L333.092,57.504 C333.14,57.048 333.164,56.664 333.164,56.184 C333.164,52.584 330.668,49.896 326.852,49.896 C323.012,49.896 320.348,52.512 320.348,56.664 C320.348,60.84 323.108,63.48 326.852,63.48 Z M330.908,55.728 L322.604,55.728 C322.844,53.16 324.62,51.744 326.756,51.744 C329.012,51.744 330.932,53.16 330.908,55.728 Z M344.636,69.504 L344.636,60.84 C345.452,62.184 347.156,63.48 349.556,63.48 C353.084,63.48 355.796,60.72 355.796,56.64 C355.796,52.536 353.084,49.896 349.556,49.896 C347.156,49.896 345.428,51.144 344.636,52.536 L344.636,50.112 L342.452,50.112 L342.452,69.504 L344.636,69.504 Z M349.1,61.56 C346.724,61.56 344.636,59.76 344.636,56.664 C344.636,53.616 346.724,51.792 349.1,51.792 C351.524,51.792 353.564,53.544 353.564,56.64 C353.564,59.736 351.524,61.56 349.1,61.56 Z M360.86,63.264 L360.86,56.112 C360.86,53.064 362.444,52.128 364.532,52.128 L365.108,52.128 L365.108,49.872 C363.02,49.872 361.604,50.784 360.86,52.248 L360.86,50.112 L358.676,50.112 L358.676,63.264 L360.86,63.264 Z M373.364,63.48 C377.108,63.48 380.108,60.84 380.108,56.664 C380.108,52.512 377.204,49.896 373.46,49.896 C369.74,49.896 366.812,52.512 366.812,56.664 C366.812,60.84 369.644,63.48 373.364,63.48 Z M373.364,61.56 C371.084,61.56 369.044,60 369.044,56.664 C369.044,53.352 371.132,51.792 373.436,51.792 C375.692,51.792 377.876,53.352 377.876,56.664 C377.876,60 375.644,61.56 373.364,61.56 Z M388.412,63.48 C390.812,63.48 392.516,62.256 393.308,60.792 L393.308,63.264 L395.516,63.264 L395.516,45.504 L393.308,45.504 L393.308,52.464 C392.396,50.952 390.5,49.896 388.436,49.896 C384.884,49.896 382.172,52.536 382.172,56.64 C382.172,60.72 384.884,63.48 388.412,63.48 Z M388.844,61.56 C386.444,61.56 384.404,59.736 384.404,56.64 C384.404,53.544 386.444,51.792 388.844,51.792 C391.244,51.792 393.308,53.616 393.308,56.664 C393.308,59.76 391.244,61.56 388.844,61.56 Z M404.492,63.456 C406.244,63.456 407.852,62.688 408.692,61.32 L408.692,63.264 L410.876,63.264 L410.876,50.112 L408.692,50.112 L408.692,57.336 C408.692,60.168 407.18,61.56 404.924,61.56 C402.716,61.56 401.252,60.192 401.252,57.528 L401.252,50.112 L399.092,50.112 L399.092,57.816 C399.092,61.584 401.468,63.456 404.492,63.456 Z M420.164,63.48 C423.428,63.48 425.564,61.656 426.236,59.04 L423.884,59.04 C423.404,60.696 422.108,61.632 420.164,61.632 C417.764,61.632 415.988,59.928 415.988,56.664 C415.988,53.448 417.764,51.744 420.164,51.744 C422.108,51.744 423.428,52.752 423.884,54.336 L426.236,54.336 C425.564,51.576 423.428,49.896 420.164,49.896 C416.42,49.896 413.756,52.536 413.756,56.664 C413.756,60.84 416.42,63.48 420.164,63.48 Z M435.236,63.264 L435.236,61.416 L433.628,61.416 C432.284,61.416 431.804,60.96 431.804,59.664 L431.804,51.912 L435.236,51.912 L435.236,50.112 L431.804,50.112 L431.804,46.8 L429.62,46.8 L429.62,50.112 L427.916,50.112 L427.916,51.912 L429.62,51.912 L429.62,59.664 C429.62,62.304 430.94,63.264 433.268,63.264 L435.236,63.264 Z M443.612,63.48 C447.356,63.48 450.356,60.84 450.356,56.664 C450.356,52.512 447.452,49.896 443.708,49.896 C439.988,49.896 437.06,52.512 437.06,56.664 C437.06,60.84 439.892,63.48 443.612,63.48 Z M443.612,61.56 C441.332,61.56 439.292,60 439.292,56.664 C439.292,53.352 441.38,51.792 443.684,51.792 C445.94,51.792 448.124,53.352 448.124,56.664 C448.124,60 445.892,61.56 443.612,61.56 Z M457.892,63.48 C460.796,63.48 462.692,61.848 462.692,59.688 C462.596,54.984 454.964,56.688 454.964,53.568 C454.964,52.512 455.924,51.744 457.532,51.744 C459.284,51.744 460.292,52.704 460.388,54.024 L462.572,54.024 C462.428,51.456 460.508,49.896 457.604,49.896 C454.676,49.896 452.78,51.552 452.78,53.568 C452.78,58.464 460.556,56.76 460.556,59.688 C460.556,60.768 459.596,61.632 457.868,61.632 C456.02,61.632 454.892,60.672 454.772,59.4 L452.516,59.4 C452.66,61.8 454.82,63.48 457.892,63.48 Z M64.472,96.384 C68.48,96.384 71.504,94.152 72.464,90.504 L67.952,90.504 C67.256,91.944 65.984,92.664 64.424,92.664 C61.904,92.664 60.176,90.792 60.176,87.816 C60.176,84.84 61.904,82.968 64.424,82.968 C65.984,82.968 67.256,83.688 67.952,85.128 L72.464,85.128 C71.504,81.48 68.48,79.224 64.472,79.224 C59.504,79.224 56,82.776 56,87.816 C56,92.856 59.504,96.384 64.472,96.384 Z M81.08,96.456 C85.016,96.456 88.088,93.816 88.088,89.568 C88.088,85.32 85.064,82.68 81.128,82.68 C77.216,82.68 74.168,85.32 74.168,89.568 C74.168,93.816 77.144,96.456 81.08,96.456 Z M81.08,92.904 C79.592,92.904 78.344,91.824 78.344,89.568 C78.344,87.288 79.64,86.232 81.128,86.232 C82.568,86.232 83.912,87.288 83.912,89.568 C83.912,91.824 82.544,92.904 81.08,92.904 Z M94.376,96.264 L94.376,88.992 C94.376,87.24 95.384,86.28 96.944,86.28 C98.504,86.28 99.512,87.24 99.512,88.992 L99.512,96.264 L103.592,96.264 L103.592,88.992 C103.592,87.24 104.6,86.28 106.16,86.28 C107.72,86.28 108.728,87.24 108.728,88.992 L108.728,96.264 L112.808,96.264 L112.808,88.44 C112.808,84.84 110.672,82.728 107.36,82.728 C105.416,82.728 103.736,83.808 102.848,85.224 C101.936,83.616 100.304,82.728 98.288,82.728 C96.536,82.728 95.168,83.472 94.376,84.552 L94.376,82.872 L90.272,82.872 L90.272,96.264 L94.376,96.264 Z M119.792,102.648 L119.792,94.392 C120.536,95.52 121.952,96.456 123.92,96.456 C127.208,96.456 129.824,93.768 129.824,89.544 C129.824,85.32 127.208,82.68 123.92,82.68 C121.952,82.68 120.536,83.592 119.792,84.768 L119.792,82.872 L115.688,82.872 L115.688,102.648 L119.792,102.648 Z M122.696,92.88 C121.16,92.88 119.768,91.704 119.768,89.568 C119.768,87.432 121.16,86.256 122.696,86.256 C124.256,86.256 125.648,87.408 125.648,89.544 C125.648,91.68 124.256,92.88 122.696,92.88 Z M136.088,96.264 L136.088,90.048 C136.088,87.744 137.216,87.072 139.16,87.072 L140.288,87.072 L140.288,82.728 C138.488,82.728 137.024,83.688 136.088,85.104 L136.088,82.872 L131.984,82.872 L131.984,96.264 L136.088,96.264 Z M147.32,96.456 C149.312,96.456 150.728,95.544 151.472,94.368 L151.472,96.264 L155.576,96.264 L155.576,82.872 L151.472,82.872 L151.472,84.768 C150.752,83.592 149.336,82.68 147.344,82.68 C144.056,82.68 141.44,85.32 141.44,89.544 C141.44,93.768 144.056,96.456 147.32,96.456 Z M148.544,92.88 C147.008,92.88 145.616,91.68 145.616,89.544 C145.616,87.408 147.008,86.256 148.544,86.256 C150.104,86.256 151.472,87.432 151.472,89.568 C151.472,91.704 150.104,92.88 148.544,92.88 Z M169.736,96.456 C173.672,96.456 176.744,93.816 176.744,89.568 C176.744,85.32 173.72,82.68 169.784,82.68 C165.872,82.68 162.824,85.32 162.824,89.568 C162.824,93.816 165.8,96.456 169.736,96.456 Z M169.736,92.904 C168.248,92.904 167,91.824 167,89.568 C167,87.288 168.296,86.232 169.784,86.232 C171.224,86.232 172.568,87.288 172.568,89.568 C172.568,91.824 171.2,92.904 169.736,92.904 Z M183.032,96.264 L183.032,88.992 C183.032,87.168 184.04,86.16 185.6,86.16 C187.16,86.16 188.168,87.168 188.168,88.992 L188.168,96.264 L192.248,96.264 L192.248,88.44 C192.248,84.84 190.184,82.728 187.088,82.728 C185.288,82.728 183.848,83.52 183.032,84.648 L183.032,82.872 L178.928,82.872 L178.928,96.264 L183.032,96.264 Z M199.208,96.264 L199.208,78.504 L195.104,78.504 L195.104,96.264 L199.208,96.264 Z M204.248,81.48 C205.688,81.48 206.672,80.496 206.672,79.272 C206.672,78.024 205.688,77.04 204.248,77.04 C202.784,77.04 201.8,78.024 201.8,79.272 C201.8,80.496 202.784,81.48 204.248,81.48 Z M206.288,96.264 L206.288,82.872 L202.184,82.872 L202.184,96.264 L206.288,96.264 Z M213.368,96.264 L213.368,88.992 C213.368,87.168 214.376,86.16 215.936,86.16 C217.496,86.16 218.504,87.168 218.504,88.992 L218.504,96.264 L222.584,96.264 L222.584,88.44 C222.584,84.84 220.52,82.728 217.424,82.728 C215.624,82.728 214.184,83.52 213.368,84.648 L213.368,82.872 L209.264,82.872 L209.264,96.264 L213.368,96.264 Z M231.392,96.456 C234.728,96.456 237.104,94.44 237.752,91.824 L233.384,91.824 C233.048,92.544 232.4,93.12 231.248,93.12 C229.928,93.12 228.848,92.304 228.704,90.552 L237.992,90.552 C238.04,90.144 238.064,89.736 238.064,89.352 C238.064,85.272 235.304,82.68 231.392,82.68 C227.408,82.68 224.624,85.32 224.624,89.568 C224.624,93.816 227.456,96.456 231.392,96.456 Z M233.864,88.272 L228.728,88.272 C228.968,86.784 230,85.968 231.344,85.968 C232.712,85.968 233.864,86.808 233.864,88.272 Z M250.376,96.456 C252.368,96.456 253.784,95.544 254.528,94.368 L254.528,96.264 L258.632,96.264 L258.632,82.872 L254.528,82.872 L254.528,84.768 C253.808,83.592 252.392,82.68 250.4,82.68 C247.112,82.68 244.496,85.32 244.496,89.544 C244.496,93.768 247.112,96.456 250.376,96.456 Z M251.6,92.88 C250.064,92.88 248.672,91.68 248.672,89.544 C248.672,87.408 250.064,86.256 251.6,86.256 C253.16,86.256 254.528,87.432 254.528,89.568 C254.528,91.704 253.16,92.88 251.6,92.88 Z M265.712,96.264 L265.712,88.992 C265.712,87.168 266.72,86.16 268.28,86.16 C269.84,86.16 270.848,87.168 270.848,88.992 L270.848,96.264 L274.928,96.264 L274.928,88.44 C274.928,84.84 272.888,82.728 269.84,82.728 C267.992,82.728 266.528,83.52 265.712,84.672 L265.712,78.504 L261.608,78.504 L261.608,96.264 L265.712,96.264 Z M283.88,96.456 C287.816,96.456 290.888,93.816 290.888,89.568 C290.888,85.32 287.864,82.68 283.928,82.68 C280.016,82.68 276.968,85.32 276.968,89.568 C276.968,93.816 279.944,96.456 283.88,96.456 Z M283.88,92.904 C282.392,92.904 281.144,91.824 281.144,89.568 C281.144,87.288 282.44,86.232 283.928,86.232 C285.368,86.232 286.712,87.288 286.712,89.568 C286.712,91.824 285.344,92.904 283.88,92.904 Z M297.176,96.264 L297.176,90.048 C297.176,87.744 298.304,87.072 300.248,87.072 L301.376,87.072 L301.376,82.728 C299.576,82.728 298.112,83.688 297.176,85.104 L297.176,82.872 L293.072,82.872 L293.072,96.264 L297.176,96.264 Z M308.408,96.456 C310.4,96.456 311.816,95.544 312.56,94.368 L312.56,96.264 L316.664,96.264 L316.664,82.872 L312.56,82.872 L312.56,84.768 C311.84,83.592 310.424,82.68 308.432,82.68 C305.144,82.68 302.528,85.32 302.528,89.544 C302.528,93.768 305.144,96.456 308.408,96.456 Z M309.632,92.88 C308.096,92.88 306.704,91.68 306.704,89.544 C306.704,87.408 308.096,86.256 309.632,86.256 C311.192,86.256 312.56,87.432 312.56,89.568 C312.56,91.704 311.192,92.88 309.632,92.88 Z M330.68,96.456 C334.016,96.456 336.392,94.44 337.04,91.824 L332.672,91.824 C332.336,92.544 331.688,93.12 330.536,93.12 C329.216,93.12 328.136,92.304 327.992,90.552 L337.28,90.552 C337.328,90.144 337.352,89.736 337.352,89.352 C337.352,85.272 334.592,82.68 330.68,82.68 C326.696,82.68 323.912,85.32 323.912,89.568 C323.912,93.816 326.744,96.456 330.68,96.456 Z M333.152,88.272 L328.016,88.272 C328.256,86.784 329.288,85.968 330.632,85.968 C332,85.968 333.152,86.808 333.152,88.272 Z M343.616,96.264 L343.616,88.992 C343.616,87.168 344.624,86.16 346.184,86.16 C347.744,86.16 348.752,87.168 348.752,88.992 L348.752,96.264 L352.832,96.264 L352.832,88.44 C352.832,84.84 350.768,82.728 347.672,82.728 C345.872,82.728 344.432,83.52 343.616,84.648 L343.616,82.872 L339.512,82.872 L339.512,96.264 L343.616,96.264 Z M368.24,96.264 L368.24,92.784 L366.776,92.784 C365.864,92.784 365.528,92.448 365.528,91.656 L365.528,86.28 L368.216,86.28 L368.216,82.872 L365.528,82.872 L365.528,79.608 L361.424,79.608 L361.424,82.872 L359.792,82.872 L359.792,86.28 L361.424,86.28 L361.424,91.608 C361.424,95.088 363.368,96.264 366.152,96.264 L368.24,96.264 Z M375.584,96.408 C377.384,96.408 378.824,95.592 379.64,94.44 L379.64,96.264 L383.744,96.264 L383.744,82.872 L379.64,82.872 L379.64,90.144 C379.64,91.968 378.632,92.976 377.048,92.976 C375.512,92.976 374.48,91.968 374.48,90.144 L374.48,82.872 L370.4,82.872 L370.4,90.696 C370.4,94.272 372.488,96.408 375.584,96.408 Z M397.736,96.456 C401.072,96.456 403.448,94.44 404.096,91.824 L399.728,91.824 C399.392,92.544 398.744,93.12 397.592,93.12 C396.272,93.12 395.192,92.304 395.048,90.552 L404.336,90.552 C404.384,90.144 404.408,89.736 404.408,89.352 C404.408,85.272 401.648,82.68 397.736,82.68 C393.752,82.68 390.968,85.32 390.968,89.568 C390.968,93.816 393.8,96.456 397.736,96.456 Z M400.208,88.272 L395.072,88.272 C395.312,86.784 396.344,85.968 397.688,85.968 C399.056,85.968 400.208,86.808 400.208,88.272 Z M409.76,96.264 L411.92,92.544 L414.488,96.264 L419.096,96.264 L414.488,89.616 L418.976,82.872 L414.536,82.872 L412.376,86.568 L409.808,82.872 L405.2,82.872 L409.736,89.424 L405.32,96.264 L409.76,96.264 Z M422.744,81.48 C424.184,81.48 425.168,80.496 425.168,79.272 C425.168,78.024 424.184,77.04 422.744,77.04 C421.28,77.04 420.296,78.024 420.296,79.272 C420.296,80.496 421.28,81.48 422.744,81.48 Z M424.784,96.264 L424.784,82.872 L420.68,82.872 L420.68,96.264 L424.784,96.264 Z M435.224,96.264 L435.224,92.784 L433.76,92.784 C432.848,92.784 432.512,92.448 432.512,91.656 L432.512,86.28 L435.2,86.28 L435.2,82.872 L432.512,82.872 L432.512,79.608 L428.408,79.608 L428.408,82.872 L426.776,82.872 L426.776,86.28 L428.408,86.28 L428.408,91.608 C428.408,95.088 430.352,96.264 433.136,96.264 L435.224,96.264 Z M443.6,96.456 C447.536,96.456 450.608,93.816 450.608,89.568 C450.608,85.32 447.584,82.68 443.648,82.68 C439.736,82.68 436.688,85.32 436.688,89.568 C436.688,93.816 439.664,96.456 443.6,96.456 Z M443.6,92.904 C442.112,92.904 440.864,91.824 440.864,89.568 C440.864,87.288 442.16,86.232 443.648,86.232 C445.088,86.232 446.432,87.288 446.432,89.568 C446.432,91.824 445.064,92.904 443.6,92.904 Z M454.712,96.456 C456.152,96.456 457.136,95.472 457.136,94.248 C457.136,92.976 456.152,91.992 454.712,91.992 C453.248,91.992 452.264,92.976 452.264,94.248 C452.264,95.472 453.248,96.456 454.712,96.456 Z M465.464,96.456 C468.824,96.456 471.2,94.512 471.896,91.416 L467.528,91.416 C467.168,92.4 466.52,92.952 465.392,92.952 C463.928,92.952 462.92,91.8 462.92,89.568 C462.92,87.336 463.928,86.184 465.392,86.184 C466.52,86.184 467.192,86.784 467.528,87.72 L471.896,87.72 C471.2,84.528 468.824,82.68 465.464,82.68 C461.528,82.68 458.744,85.344 458.744,89.568 C458.744,93.816 461.528,96.456 465.464,96.456 Z M480.176,96.456 C484.112,96.456 487.184,93.816 487.184,89.568 C487.184,85.32 484.16,82.68 480.224,82.68 C476.312,82.68 473.264,85.32 473.264,89.568 C473.264,93.816 476.24,96.456 480.176,96.456 Z M480.176,92.904 C478.688,92.904 477.44,91.824 477.44,89.568 C477.44,87.288 478.736,86.232 480.224,86.232 C481.664,86.232 483.008,87.288 483.008,89.568 C483.008,91.824 481.64,92.904 480.176,92.904 Z M493.472,96.264 L493.472,88.992 C493.472,87.24 494.48,86.28 496.04,86.28 C497.6,86.28 498.608,87.24 498.608,88.992 L498.608,96.264 L502.688,96.264 L502.688,88.992 C502.688,87.24 503.696,86.28 505.256,86.28 C506.816,86.28 507.824,87.24 507.824,88.992 L507.824,96.264 L511.904,96.264 L511.904,88.44 C511.904,84.84 509.768,82.728 506.456,82.728 C504.512,82.728 502.832,83.808 501.944,85.224 C501.032,83.616 499.4,82.728 497.384,82.728 C495.632,82.728 494.264,83.472 493.472,84.552 L493.472,82.872 L489.368,82.872 L489.368,96.264 L493.472,96.264 Z" id="EncuentramilesdeproductosCompraonlineahoraentuexito.com" fill="#FFFFFF" fill-rule="nonzero"></path>
            <g id="head-exitopuntocom-copy-4" transform="translate(159.000000, 173.000000)" fill-rule="nonzero">
                <rect id="Rectangle" fill="#FFEB00" x="0" y="0" width="248.769893" height="72.3196681" rx="23.4"></rect>
                <path d="M43.5285919,32.1284753 C43.1108212,30.4400113 42.365155,28.8495164 41.333744,27.4468975 C40.3158161,26.0525011 38.9794559,24.91972 37.435203,24.1422543 C35.7119213,23.3046267 33.8108561,22.89519 31.8943632,22.948911 C30.1188833,22.9272997 28.3580228,23.2710486 26.7218894,23.958663 C23.6537895,25.2597919 21.25653,27.759977 20.0913,30.8739349 C19.4818495,32.5245559 19.1751138,34.2709597 19.1857334,36.0297902 C19.1611263,37.8282908 19.4627095,39.6164271 20.0759514,41.3080397 C20.6253374,42.8443109 21.4875718,44.2507067 22.6084682,45.4388437 C23.7308306,46.6202419 25.1051075,47.5352257 26.6297979,48.1162166 C28.307466,48.7657303 30.0947436,49.0877571 31.8943632,49.0647716 C34.4309764,49.1345547 36.932839,48.464572 39.0928503,47.1370631 C40.1360845,46.4518631 41.0332445,45.5679841 41.7328072,44.5361865 C42.5316145,43.3713622 43.1475232,42.0919117 43.559289,40.7419666 L43.7281235,40.2370905 C43.7281235,40.2370905 43.820215,40.0076014 43.5439405,40.0076014 L37.1589284,40.0076014 C36.8212595,40.0076014 36.7905623,40.206492 36.7905623,40.206492 L36.7905623,40.4053826 C36.6900396,40.7271986 36.5226947,41.0243241 36.2994075,41.2774412 C35.9981696,41.6223258 35.652369,41.9258585 35.2710522,42.1800983 C34.362157,42.778593 33.2902033,43.0831183 32.2013349,43.0521569 C31.4353357,43.0716756 30.671797,42.9577717 29.9450926,42.7155729 C29.3682673,42.533946 28.8424568,42.2194733 28.410234,41.7976165 C27.950148,41.3341053 27.6080628,40.7675438 27.4125758,40.1452949 C27.1929057,39.5078239 27.0587228,38.8442091 27.0135126,38.1716886 L43.896958,38.1716886 C44.1578839,38.1716886 44.1732325,37.8657031 44.1732325,37.8657031 L44.1732325,37.6515132 C44.1732325,37.2384328 44.1732325,36.8100532 44.1732325,36.3969728 C44.1380982,34.9528829 43.9215303,33.5188753 43.5285919,32.1284753 M27.9037306,30.5985479 C28.3010654,30.1157257 28.798479,29.7242924 29.3618464,29.4511024 C30.0951151,29.107503 30.9005656,28.9448315 31.7101801,28.9768249 C32.3515268,28.9652728 32.9901002,29.0635973 33.5980563,29.2675111 C34.0761855,29.4344308 34.5075983,29.7123749 34.8566404,30.0783726 C35.5315409,30.8921912 35.9953774,31.8589153 36.207316,32.893439 L26.9214211,32.893439 C26.9711888,32.609268 27.0378162,32.3282882 27.1209527,32.051979 C27.2739828,31.493938 27.5404186,30.9731933 27.9037306,30.5220516" id="Shape" fill="#000000"></path>
                <path d="M67.8714504,48.1621145 L58.8464814,35.1883301 L66.9965809,23.6067797 C66.9965809,23.6067797 67.104021,23.4690863 66.8123979,23.4690863 L58.5702068,23.4690863 C58.441151,23.4523008 58.3127876,23.5046444 58.2325379,23.6067797 L54.5335285,29.1451169 L50.803822,23.6373783 C50.7004041,23.5279218 50.5555841,23.4668486 50.4047587,23.4690863 L41.9323389,23.4690863 C41.6867615,23.4690863 41.8095502,23.6373783 41.8095502,23.6373783 L42.3774479,24.4482398 L49.9443011,35.3260236 L41.1342123,48.192713 C41.1342123,48.192713 40.9653779,48.4375046 41.257001,48.4375046 L49.5298893,48.4375046 C49.7270523,48.438197 49.9067027,48.324784 49.9903469,48.1468152 L54.441437,41.4763317 L58.8771786,48.1468152 C58.9779938,48.3159853 59.1559999,48.4247354 59.3529848,48.4375046 L67.7333131,48.4375046 C68.0556334,48.4375046 67.8714504,48.1621145 67.8714504,48.1621145" id="Path" fill="#000000"></path>
                <path d="M78.2777922,23.4690863 L68.7616684,23.4690863 C68.4239995,23.4690863 68.4700453,23.6985754 68.4700453,23.6985754 L69.8514181,48.1774137 C69.8514181,48.1774137 69.8514181,48.4833992 70.1276926,48.4833992 L76.8964194,48.4833992 C77.1880425,48.4833992 77.1880425,48.1621145 77.1880425,48.1621145 L78.5540667,23.790371 C78.5540667,23.790371 78.5540667,23.5149841 78.3084893,23.5149841" id="Path" fill="#000000"></path>
                <path d="M96.4351702,29.0686205 C96.590208,29.0525269 96.7051386,28.9177488 96.6960962,28.7626351 L96.6960962,23.7138747 C96.7013844,23.6447062 96.6750011,23.5768652 96.6243237,23.5293221 C96.5736464,23.481779 96.5041141,23.4596365 96.4351702,23.4690863 L91.9226857,23.4690863 L91.9226857,16.6456101 C91.9272179,16.5712798 91.899569,16.4985784 91.8467429,16.445922 C91.7939167,16.3932656 91.720981,16.3657056 91.6464112,16.3702231 L84.4172268,16.3702231 C84.3452817,16.370099 84.2764777,16.399591 84.2270784,16.4517281 C84.1776791,16.5038652 84.1520687,16.5740202 84.1563009,16.6456101 L84.1563009,23.4843855 L80.4726401,23.4843855 C80.1349711,23.4843855 80.1656683,23.6985754 80.1656683,23.6985754 L80.1656683,28.8085329 C80.1562813,28.8813211 80.1801517,28.9544673 80.2307035,29.0078208 C80.2812552,29.0611742 80.3531546,29.0891055 80.4265943,29.0839198 L84.1256037,29.0839198 L84.1256037,42.440186 C84.0851096,43.5401231 84.3170547,44.6330682 84.8009415,45.622435 C85.2331768,46.4300108 85.8812953,47.1025238 86.6734691,47.5654428 C87.4787076,48.0210401 88.3647186,48.31716 89.2827288,48.4375014 C90.2687019,48.5811883 91.2639004,48.652776 92.2603546,48.6517034 L94.2556709,48.6517034 C94.8981171,48.6260207 95.538632,48.5647288 96.1742442,48.4680999 L96.4505188,48.4680999 C96.4505188,48.4680999 96.6960962,48.4680999 96.6960962,48.1468152 L96.6960962,42.3330911 C96.6960962,42.0271056 96.4351702,42.1189012 96.4351702,42.1189012 L95.9440154,42.2259962 L95.0537974,42.3483903 C94.7263609,42.3483903 94.388692,42.3483903 94.0407907,42.3483903 C93.6280793,42.3561428 93.2159026,42.3150575 92.8129038,42.2259962 C92.6198222,42.1933339 92.4393694,42.1086878 92.2910518,41.9812078 C92.1542842,41.8331993 92.0682806,41.645671 92.0454744,41.4457332 C91.9543469,41.0443153 91.9131076,40.6332473 91.9226857,40.2217913 L91.9226857,29.0686205 L96.4351702,29.0686205 Z" id="Path" fill="#000000"></path>
                <path d="M122.098007,30.5985479 C120.960349,27.4536302 118.506592,24.9574989 115.375326,23.7597725 C111.950224,22.5155041 108.194555,22.5155041 104.769453,23.7597725 C103.233295,24.3532056 101.841523,25.2659029 100.686729,26.4371454 C99.5273052,27.6243163 98.6328664,29.0424783 98.0621204,30.5985479 C97.4362928,32.3190734 97.1294491,34.1386682 97.1565538,35.9685931 C97.1268364,37.7937289 97.4337876,39.6087753 98.0621204,41.323339 C98.636853,42.8729386 99.53093,44.2853152 100.686729,45.4694422 C101.843285,46.6311131 103.235174,47.533456 104.769453,48.1162166 C108.201626,49.3198971 111.943153,49.3198971 115.375326,48.1162166 C118.510537,46.9410603 120.968917,44.4514162 122.098007,41.3080397 C122.731569,39.5944545 123.043727,37.7793792 123.018922,35.9532938 C123.041111,34.1224293 122.729062,32.3028063 122.098007,30.5832487 M112.535838,42.3177918 C110.97854,43.0626461 109.166239,43.0626461 107.608941,42.3177918 C106.978501,41.9418826 106.451203,41.4162789 106.074083,40.7878644 C105.661211,40.1034209 105.370405,39.3528602 105.214562,38.5694697 C105.042679,37.6975872 104.955302,36.8112504 104.953636,35.9226953 C104.955314,35.024013 105.042682,34.1275239 105.214562,33.2453223 C105.359403,32.4587949 105.65095,31.7063224 106.074083,31.0269276 C106.461478,30.4065714 106.986586,29.8831508 107.608941,29.4970002 C108.372439,29.1318246 109.222179,28.9835978 110.064715,29.0686205 C110.92066,29.0407621 111.768516,29.241481 112.520489,29.649993 C113.147111,30.0307619 113.673351,30.5553114 114.055348,31.1799203 C114.47848,31.8593152 114.770027,32.6117876 114.914869,33.3983151 C115.099397,34.2788793 115.191982,35.1761188 115.191149,36.075688 C115.191964,36.9651388 115.099367,37.8522315 114.914869,38.7224624 C114.761766,39.5066424 114.470781,40.2576657 114.055348,40.9408571 C113.68685,41.5759228 113.157602,42.1034708 112.520489,42.4707845" id="Shape" fill="#000000"></path>
                <path d="M78.2777922,54.388919 C78.2777922,51.8540523 76.2162533,49.7991368 73.6732161,49.7991368 C71.130179,49.7991368 69.0686401,51.8540523 69.0686401,54.388919 C69.0686401,56.9237857 71.130179,58.9787012 73.6732161,58.9787012 C76.2162533,58.9787012 78.2777922,56.9237857 78.2777922,54.388919" id="Path" fill="#CC2329"></path>
                <path d="M131.660177,40.87966 C132.49354,41.6809213 132.964442,42.7853665 132.964807,43.9395148 C132.973823,45.0924727 132.507752,46.1985987 131.675525,46.9993696 C130.824421,47.8612587 129.649478,48.3275055 128.436973,48.2845086 C127.246738,48.3119324 126.095726,47.8596258 125.244467,47.0299682 C124.397405,46.2025188 123.935586,45.0599987 123.970535,43.8783177 C123.966303,42.7004496 124.437008,41.5702744 125.276895,40.741717 C126.116781,39.9131597 127.255416,39.4557029 128.436973,39.4721268 C129.661673,39.4708619 130.830819,39.9814133 131.660177,40.87966 Z" id="Path" fill="#000000"></path>
                <path d="M152.242631,37.7127103 L159.471816,39.2426377 C158.901878,42.0398168 157.317067,44.5292365 155.020726,46.2344059 C152.695509,48.0208944 149.837016,48.9796412 146.901323,48.9576767 C143.355385,49.040674 139.919588,47.7268422 137.339154,45.3011502 C134.743069,42.8884542 133.321395,39.474009 133.440613,35.9379946 C133.325875,32.4072519 134.747176,28.999282 137.339154,26.5901382 C139.913506,24.1531313 143.35206,22.8327434 146.901323,22.9183124 C149.812751,22.8288522 152.670639,23.7120048 155.020726,25.4273933 C157.339205,27.0793648 158.975788,29.5154761 159.625302,32.2814681 L152.25798,34.0408846 C152.025174,32.7734623 151.364419,31.6235562 150.385452,30.7821392 C149.438554,30.0381579 148.260071,29.6483969 147.054809,29.6805915 C145.441271,29.6159057 143.878951,30.2522218 142.772553,31.4247087 C141.704256,32.6499578 141.154088,34.240317 141.237695,35.8614982 C141.14842,37.4880995 141.699049,39.0852823 142.772553,40.3135869 C143.890135,41.466415 145.44775,42.0896851 147.054809,42.0271056 C149.613017,42.0558622 151.812626,40.2265818 152.242631,37.7127103 Z" id="Path" fill="#000000"></path>
                <path d="M183.185382,26.5595396 C185.788249,28.9442374 187.222307,32.3391817 187.11462,35.8614982 C187.221493,39.3970057 185.788687,42.8057229 183.185382,45.2093546 C180.583287,47.6051818 177.149268,48.8997726 173.607864,48.8199832 C170.027081,48.9156264 166.549042,47.6210377 163.907557,45.2093546 C161.284897,42.8180821 159.84357,39.4024359 159.962971,35.8614982 C159.846761,32.3344679 161.288689,28.9341741 163.907557,26.5595396 C166.549042,24.1478565 170.027081,22.8532678 173.607864,22.948911 C177.150377,22.8626459 180.586755,24.1581261 183.185382,26.5595396 L183.185382,26.5595396 Z M177.78268,40.4359811 C178.976039,39.2110768 179.613927,37.5523678 179.547767,35.8461989 C179.609446,34.1349416 178.959673,32.4742103 177.751983,31.2564167 C176.671394,30.126014 175.1743,29.4848848 173.607864,29.4817009 C172.002081,29.4675131 170.460374,30.1087481 169.340957,31.2564167 C168.112469,32.4627546 167.449603,34.1284767 167.514475,35.8461989 C167.450951,37.5577677 168.100999,39.2192038 169.31026,40.4359811 C170.434953,41.5944816 171.990759,42.2369591 173.607864,42.2106969 C175.186817,42.2250894 176.700112,41.5817872 177.78268,40.4359811 L177.78268,40.4359811 Z" id="Shape" fill="#000000"></path>
                <path d="M226.882809,25.5956853 C228.714811,27.52795 229.688565,30.1144457 229.58416,32.7710448 L229.58416,48.0703188 L221.771729,48.0703188 L221.771729,34.3009722 C221.836523,33.0890182 221.417105,31.9008191 220.605237,30.9963291 C219.849893,30.1748077 218.77599,29.7176353 217.658308,29.7417886 C216.310713,29.6734764 215.009171,30.2400096 214.143482,31.271716 C213.195051,32.6080148 212.734605,34.2278991 212.838852,35.8614982 L212.838852,47.9020268 L204.980375,47.9020268 L204.980375,34.1326802 C205.040994,32.9185945 204.61596,31.7301217 203.798534,30.828037 C203.031348,29.9959441 201.938765,29.5379754 200.80556,29.5734966 C199.474557,29.5001434 198.189414,30.069483 197.352128,31.103424 C196.433208,32.4517239 195.990428,34.0664474 196.093544,35.6932062 L196.093544,47.7337348 L188.235067,47.7337348 L188.235067,23.5761812 L196.093544,23.5761812 L196.093544,25.8251745 C197.956596,23.8071059 200.62039,22.7147621 203.368774,22.841816 C206.611551,22.6398434 209.702639,24.2333424 211.411433,26.9879193 C213.466932,24.2567811 216.737555,22.7067966 220.160128,22.841816 C222.689546,22.7780958 225.129269,23.7775002 226.882809,25.5956853 L226.882809,25.5956853 Z" id="Path" fill="#000000"></path>
            </g>
        </g>
    </g>
</svg>