<?xml version="1.0" encoding="UTF-8"?>
<svg width="321px" height="109px" viewBox="0 0 321 109" version="1.1" xmlns="http://www.w3.org/2000/svg" xmlns:xlink="http://www.w3.org/1999/xlink">
    <!-- Generator: Sketch 64 (93537) - https://sketch.com -->
    <title>cyr</title>
    <desc>Created with Sketch.</desc>
    <g id="Compra-y-Recoge" stroke="none" stroke-width="1" fill="none" fill-rule="evenodd">
        <g id="HOME---Servicios---Compra-y-Recoge-V2---Desktop-HD" transform="translate(-834.000000, -262.000000)" fill-rule="nonzero">
            <g id="cyr" transform="translate(834.000000, 262.000000)">
                <path d="M86.34,26.32 C84.5046225,23.569842 81.4163541,21.918763 78.11,21.92 L45.51,21.92 C45.51,21.62 45.51,21.32 45.51,21.01 C44.7749732,8.86425608 34.4313845,-0.445379172 22.275563,0.098096106 C10.1197416,0.641571384 0.648211308,10.8371219 1,23 C1,23 0.72,25.08 2.52,31.23 C4.32,37.38 9.7,47.13 14.42,54.5 C16.42,57.65 18.59,60.72 20.72,63.8 L20.72,63.8 L20.27,63.15 L20.27,101 L89.47,101 L89.47,55.1 C92.5808823,53.2238684 94.4789954,49.8528195 94.4700318,46.22 L94.4700318,38.47 L86.34,26.32 Z M45.2,26.86 L78.11,26.86 C79.7616299,26.8601586 81.3039138,27.685712 82.22,29.06 L87.35,36.75 L41.87,36.75 C42.27,35.84 42.67,34.93 43.04,34 C44.0010291,31.6996813 44.724779,29.3072859 45.2,26.86 M74.66,41.69 L74.66,46.69 C74.66,49.4182867 72.4482867,51.63 69.72,51.63 C66.9917133,51.63 64.78,49.4182867 64.78,46.69 L64.78,41.69 L74.66,41.69 Z M59.83,41.69 L59.83,46.69 C59.83,49.4182867 57.6182867,51.63 54.89,51.63 C52.1617133,51.63 49.95,49.4182867 49.95,46.69 L49.95,41.69 L59.83,41.69 Z M45,41.69 L45,46.69 C44.993025,48.9916346 43.397456,50.9834758 41.1528351,51.4926391 C38.9082141,52.0018023 36.6093848,50.8933549 35.61,48.82 C36.99,46.5 38.3,44.14 39.52,41.74 L45,41.74 L45,41.69 Z M40.63,39.44 C40.72,39.25 40.81,39.07 40.89,38.88 C40.81,39.07 40.72,39.25 40.63,39.44 M7.82,31.44 C6.18,27.22 5.24,22.95 6.62,18.44 C9.11,10.11 17.74,4.65 26.07,6.2 C35.07,7.87 41.3,15.64 40.56,24.44 C40.22,28.58 38.51,32.35 36.76,36.07 C33.0182668,43.7371902 28.671159,51.0938342 23.76,58.07 L23.31,58.72 C22.43,57.47 21.69,56.47 21,55.43 C16,47.8 11.16,40.02 7.84,31.43 M45,96.07 L35.12,96.07 L35.12,71.35 L45,71.35 L45,96.07 Z M50,96.07 L50,66.41 L30.18,66.41 L30.18,96.07 L25.23,96.07 L25.23,64.39 C25.382624,64.2237151 25.5229919,64.0465842 25.65,63.86 C26.79,62.21 27.96,60.57 29.09,58.92 C30.36,57.06 31.61,55.18 32.82,53.28 C34.693906,55.3724097 37.379901,56.5539637 40.1885735,56.5213939 C42.9972459,56.488824 45.6551193,55.2453015 47.48,53.11 C49.3360997,55.2734269 52.0444698,56.5183434 54.895,56.5183434 C57.7455302,56.5183434 60.4539003,55.2734269 62.31,53.11 C64.1642651,55.2765224 66.8733131,56.5237117 69.725,56.5237117 C72.5766869,56.5237117 75.2857349,55.2765224 77.14,53.11 C77.34,53.34 77.52,53.6 77.74,53.82 C79.5757534,55.567474 82.0155206,56.5383652 84.55,56.53 L84.55,56.53 L84.55,96.07 L50,96.07 Z M89.49,46.22 C89.568212,48.9488444 87.5343909,51.2788108 84.82,51.57 C83.4654444,51.6441454 82.1400045,51.1579862 81.1546427,50.2255805 C80.1692808,49.2931747 79.6107184,47.9965832 79.61,46.64 L79.61,41.64 L89.49,41.64 L89.49,46.22 Z" id="Shape" fill="#E1231C"></path>
                <path d="M21.9,34 C22.3341188,34.19492 22.8041381,34.2970981 23.28,34.3001677 L23.28,34.3001677 C24.2041046,34.3093936 25.0882415,33.9237207 25.71,33.24 L26.12,32.82 L31.26,27.33 C31.8202557,26.8469009 32.3025992,26.2802315 32.69,25.65 C33.5734537,24.1819346 33.8395214,22.4237303 33.43,20.76 C32.850676,18.1358256 30.6197899,16.2015783 27.94,16 C26.3131317,15.887595 24.7146681,16.4688545 23.54,17.6 L23.28,17.85 C22.3671191,16.8872817 21.160896,16.2542784 19.85,16.05 C18.7159701,15.8787562 17.556634,16.0493492 16.52,16.54 C15.3021156,17.1055651 14.3091493,18.0633198 13.7,19.26 C13.0222507,20.5379654 12.7966946,22.0076042 13.06,23.43 C13.2889494,24.6931938 13.8835076,25.8614486 14.77,26.79 L18.25,30.47 L20.78,33.16 C21.0925752,33.5129801 21.473618,33.7987622 21.9,34" id="Path" fill="#E1231C"></path>
                <path d="M54.89,86.18 L79.61,86.18 L79.61,66.41 L54.89,66.41 L54.89,86.18 Z M59.83,71.35 L74.66,71.35 L74.66,81.24 L59.83,81.24 L59.83,71.35 Z" id="Shape" fill="#E1231C"></path>
                <path d="M126.15,42 L134,43.7 C133.383915,46.7483716 131.663917,49.4619076 129.17,51.32 C126.613784,53.259855 123.478347,54.2815142 120.27,54.22 C116.402434,54.3110567 112.654875,52.8738336 109.84,50.22 C107.029667,47.5775509 105.489187,43.855634 105.61,40 C105.492406,36.1330704 107.044379,32.4025065 109.87,29.76 C112.681338,27.100544 116.431305,25.6623978 120.3,25.76 C123.468182,25.7080882 126.563766,26.7106352 129.1,28.61 C131.561627,30.4108628 133.299292,33.0315457 134,36 L126,38 C125.761927,36.6160447 125.055901,35.3557879 124,34.43 C122.96346,33.6100295 121.671095,33.1816016 120.35,33.22 C118.593137,33.1504978 116.892699,33.8474585 115.69,35.13 C114.465059,36.4499347 113.810949,38.2002163 113.87,40 C113.793656,41.7963892 114.42979,43.5502499 115.64,44.88 C116.851838,46.1459654 118.548934,46.8306307 120.3,46.76 C123.3,46.76 125.3,45.18 126.15,42.04" id="Path" fill="#221F1F"></path>
                <path d="M159.93,29.76 C162.790038,32.3807692 164.357931,36.1232461 164.22,40 C164.349812,43.8752672 162.783283,47.6144864 159.93,50.24 C157.10433,52.8894648 153.352565,54.325547 149.48,54.24 C145.563054,54.3409835 141.76208,52.9052991 138.89,50.24 C136.021136,47.6231337 134.44242,43.8809913 134.57,40 C134.447693,36.1344909 136.026757,32.4098003 138.89,29.81 C141.76208,27.1447009 145.563054,25.7090165 149.48,25.81 C153.352565,25.724453 157.10433,27.1605352 159.93,29.81 M154,45 C155.325318,43.6789083 156.048615,41.8706648 156,40 C156.046246,38.1297604 155.323309,36.3224178 154,35 C152.832146,33.7405839 151.197473,33.017277 149.48,33 C147.722458,32.9854992 146.035349,33.6899664 144.81,34.95 C143.480626,36.2684083 142.756597,38.0784806 142.81,39.95 C142.744619,41.8139324 143.449954,43.622484 144.76,44.95 C145.981213,46.2400467 147.683664,46.9644938 149.46,46.95 C151.179388,46.9632344 152.8258,46.2560748 154,45" id="Shape" fill="#221F1F"></path>
                <path d="M208.74,28.7100059 C210.741127,30.8261782 211.804616,33.6597454 211.69,36.57 L211.69,53.41 L203.16,53.41 L203.16,38.41 C203.226705,37.0830691 202.762549,35.7841504 201.87,34.8 C201.046287,33.8977607 199.871271,33.3978314 198.65,33.43 C197.170539,33.3744003 195.751359,34.0191451 194.82,35.17 C193.776376,36.6457814 193.274739,38.4368385 193.4,40.24 L193.4,53.41 L184.82,53.41 L184.82,38.41 C184.886705,37.0830691 184.422549,35.7841504 183.53,34.8 C182.690054,33.8910147 181.497036,33.3911874 180.26,33.43 C178.792723,33.364418 177.384367,34.0127084 176.48,35.17 C175.471518,36.660299 174.989371,38.4445959 175.11,40.24 L175.11,53.41 L166.53,53.41 L166.53,26.49 L175.11,26.49 L175.11,29 C177.142316,26.7876165 180.048792,25.5869564 183.05,25.72 C187.05,25.72 189.98,27.24 191.84,30.28 C194.079955,27.2822537 197.650544,25.5773439 201.39,25.72 C204.152352,25.6447214 206.819286,26.7332657 208.74,28.72" id="Path" fill="#221F1F"></path>
                <path d="M241.64,29.71 C244.243756,32.4883236 245.623549,36.195391 245.47,40 C245.619259,43.7979539 244.239691,47.4972145 241.64,50.27 C239.247255,52.8614781 235.866887,54.3153999 232.34,54.27 C229.27983,54.3658289 226.297928,53.2932024 224,51.27 L224,62.53 L215.42,62.53 L215.42,26.53 L224,26.53 L224,28.67 C226.313112,26.6576649 229.306305,25.6027163 232.37,25.72 C235.897898,25.6695152 239.28025,27.1242905 241.67,29.72 M235.23,45 C236.471156,43.6378679 237.125122,41.8412572 237.05,40 C237.118649,38.1597544 236.465547,36.365518 235.23,35 C234.041297,33.6875628 232.340226,32.9574895 230.57,33 C228.812031,32.9900769 227.129875,33.7151441 225.93,35 C224.605688,36.321756 223.882572,38.129548 223.93,40 C223.874177,41.8719489 224.598577,43.6829492 225.93,45 C227.130592,46.2838371 228.812279,47.0087024 230.57,47 C232.33971,47.0398449 234.03972,46.3102271 235.23,45" id="Shape" fill="#221F1F"></path>
                <path d="M267.57,26.33 L267.2,34.91 L265.64,34.91 C259.46,34.91 256.366667,38.27 256.36,44.99 L256.36,53.41 L247.78,53.41 L247.78,26.49 L256.36,26.49 L256.36,31.64 C258.58,27.9466667 261.673333,26.1033333 265.64,26.11 C266.290073,26.1009165 266.938648,26.1748473 267.57,26.33" id="Path" fill="#221F1F"></path>
                <path d="M297.39,53.41 L288.81,53.41 L288.81,51.27 C286.497972,53.2831752 283.503118,54.3351313 280.44,54.21 C276.912608,54.2579374 273.531251,52.8035901 271.14,50.21 C268.552677,47.45305 267.170734,43.7786642 267.3,40 C267.163777,36.2112506 268.546134,32.5249661 271.14,29.76 C273.525969,27.1589593 276.910833,25.7031038 280.44,25.76 C283.503695,25.6427163 286.496888,26.6976649 288.81,28.71 L288.81,26.49 L297.39,26.49 L297.39,53.41 Z M286.85,45 C288.181423,43.6829492 288.905823,41.8719489 288.85,40 C288.899806,38.1291221 288.176327,36.3204248 286.85,35 C285.650125,33.7151441 283.967969,32.9900769 282.21,33 C280.447619,32.9447415 278.747795,33.6560411 277.55,34.95 C276.311751,36.3145186 275.655138,38.1085427 275.72,39.95 C275.64759,41.7926507 276.305215,43.5894426 277.55,44.95 C278.752928,46.2343763 280.451215,46.9377439 282.21,46.88 C283.967721,46.8887024 285.649408,46.1638371 286.85,44.88" id="Shape" fill="#221F1F"></path>
                <path d="M131.46,95.45 C128.341264,97.6975335 124.57307,98.8634614 120.73,98.77 C116.483333,98.77 113.033333,97.7433333 110.38,95.69 C107.790745,93.780242 106.297375,90.726301 106.38,87.51 C106.38,83.61 108.4,80.5533333 112.44,78.34 C110.861572,76.3172206 110.002929,73.8257482 110,71.26 C109.909286,68.458124 111.12935,65.7739831 113.3,64 C115.727387,62.0753557 118.764691,61.0853934 121.86,61.21 C125.36,61.21 128.113333,62.14 130.12,64 C132.171483,65.9649329 133.478943,68.5798541 133.82,71.4 L125.88,72.8 C125.633333,69.6533333 124.3,68.08 121.88,68.08 C120.924723,68.0383558 119.98785,68.3518345 119.25,68.96 C118.556946,69.600049 118.189547,70.5185482 118.25,71.46 C118.260602,72.4505215 118.559435,73.4165172 119.11,74.24 C120.011164,75.4998666 121.073542,76.6362077 122.27,77.62 L129.89,84.22 C130.111135,83.198323 130.218455,82.1553004 130.21,81.11 L130.21,78.72 L138,78.72 L138,81.13 C138.052112,84.1018546 137.447741,87.0485906 136.23,89.76 L141,94 L136,99.52 L131.46,95.45 Z M125.72,90.45 L117.41,83.21 C115.879525,83.9670604 114.888508,85.5035207 114.83,87.21 C114.804438,88.5457549 115.436059,89.8089967 116.52,90.59 C117.845991,91.5087096 119.438945,91.9623322 121.05,91.88 C122.710753,91.8846724 124.335711,91.3975328 125.72,90.48" id="Shape" fill="#221F1F"></path>
                <path d="M172.75,70.88 L172.38,79.47 L170.82,79.47 C164.64,79.47 161.546667,82.83 161.54,89.55 L161.54,98 L153,98 L153,71.05 L161.58,71.05 L161.58,76.2 C163.8,72.5133333 166.893333,70.67 170.86,70.67 C171.509431,70.6622747 172.157429,70.7327822 172.79,70.88" id="Path" fill="#221F1F"></path>
                <path d="M200.64,86.71 L180.9,86.71 C181.179563,88.1672223 181.914947,89.4979167 183,90.51 C184.00916,91.4322629 185.333093,91.9332107 186.7,91.91 C189.055742,92.0919784 191.298955,90.8744576 192.43,88.8 L200.05,90.35 C199.057768,92.9593979 197.238412,95.1721284 194.87,96.65 C192.400364,98.1112582 189.568552,98.8460736 186.7,98.77 C182.935622,98.8477233 179.298612,97.4058958 176.61,94.77 C173.849005,92.080682 172.349576,88.3520795 172.48,84.5 C172.357751,80.6552389 173.85634,76.93598 176.61,74.25 C179.310818,71.6015462 182.968414,70.1587073 186.75,70.25 C190.41862,70.1593363 193.964115,71.5760885 196.56,74.17 C199.269137,76.922758 200.742006,80.6590813 200.64,84.52 L200.64,86.71 Z M183.26,78.34 C182.190529,79.0925099 181.413467,80.1909926 181.06,81.45 L192.17,81.45 C191.873349,80.2035408 191.169572,79.0915725 190.17,78.29 C189.193591,77.5664684 188.005043,77.1866954 186.79,77.21 C185.537225,77.2130799 184.316835,77.6082203 183.3,78.34" id="Shape" fill="#221F1F"></path>
                <path d="M221.72,86.54 L229.6,88.26 C228.983915,91.3083716 227.263917,94.0219076 224.77,95.88 C222.212854,97.8169876 219.077284,98.8351668 215.87,98.77 C212.002434,98.8610567 208.254875,97.4238336 205.44,94.77 C202.607481,92.11975 201.054999,88.3770304 201.18,84.5 C201.062118,80.630103 202.613902,76.8963504 205.44,74.25 C208.250745,71.5896021 212.001116,70.1513008 215.87,70.25 C219.036456,70.1989936 222.130734,71.1976013 224.67,73.09 C227.162706,74.9192815 228.912907,77.5854096 229.6,80.6 L221.6,82.53 C221.359771,81.1496392 220.653923,79.893229 219.6,78.97 C218.56346,78.1500295 217.271095,77.7216016 215.95,77.76 C214.194461,77.6865937 212.493731,78.3800242 211.29,79.66 C208.928095,82.4771034 208.928095,86.5828966 211.29,89.4 C212.501838,90.6659654 214.198934,91.3506307 215.95,91.28 C218.95,91.28 220.9,89.7 221.8,86.55" id="Path" fill="#221F1F"></path>
                <path d="M255.5,74.32 C258.34653,76.9292694 259.913166,80.6504857 259.79,84.51 C259.918467,88.3850202 258.352164,92.1237013 255.5,94.75 C252.67433,97.3994648 248.922565,98.835547 245.05,98.75 C241.130888,98.8461565 237.328557,97.4113149 234.45,94.75 C231.589329,92.1281316 230.015287,88.388412 230.14,84.51 C230.019225,80.646832 231.593835,76.9240305 234.45,74.32 C237.328557,71.6586851 241.130888,70.2238435 245.05,70.32 C248.922565,70.234453 252.67433,71.6705352 255.5,74.32 M249.6,89.52 C252.169458,86.6818251 252.169458,82.3581749 249.6,79.52 C248.421139,78.2765221 246.783461,77.5715611 245.07,77.57 C243.312458,77.5554992 241.625349,78.2599664 240.4,79.52 C237.797483,82.3453511 237.797483,86.6946489 240.4,89.52 C241.621213,90.8100467 243.323664,91.5344938 245.1,91.52 C246.830502,91.5231707 248.482264,90.7971218 249.65,89.52" id="Shape" fill="#221F1F"></path>
                <path d="M289.83,95.29 C290.008469,98.9221253 288.467427,102.426514 285.67,104.75 C282.896667,107.023333 279.26,108.16 274.76,108.16 C268.36,108.16 263.853333,105.996667 261.24,101.67 L268.38,97.81 C269.177495,98.8559936 270.16886,99.7387159 271.3,100.41 C272.358197,100.922108 273.525054,101.169208 274.7,101.13 C276.480331,101.210973 278.222621,100.597945 279.56,99.42 C280.840701,98.149745 281.514421,96.3907883 281.41,94.59 L281.41,93.84 C279.113871,95.6560103 276.233096,96.5700342 273.31,96.41 C269.863749,96.4637483 266.547303,95.0966636 264.14,92.63 C261.618052,90.1587238 260.237786,86.7497201 260.33,83.22 C260.255638,79.7492584 261.637262,76.4058012 264.14,74 C266.560425,71.5586546 269.872678,70.2113587 273.31,70.27 C276.234367,70.112789 279.11528,71.0304132 281.41,72.85 L281.41,71.05 L289.83,71.05 L289.83,95.29 Z M279.58,87.64 C280.751907,86.477717 281.411092,84.8955356 281.411092,83.245 C281.411092,81.5944644 280.751907,80.012283 279.58,78.85 C278.388706,77.6987664 276.786228,77.0721795 275.13,77.11 C273.417925,77.0431344 271.749234,77.6581047 270.49,78.82 C268.083449,81.2675264 268.083449,85.1924736 270.49,87.64 C271.730032,88.8175881 273.3909,89.4480695 275.1,89.39 C276.758262,89.4285379 278.362199,88.797776 279.55,87.64" id="Shape" fill="#221F1F"></path>
                <path d="M320.34,86.71 L300.61,86.71 C300.886826,88.1659783 301.618626,89.4965229 302.7,90.51 C303.709701,91.4313827 305.033271,91.9321929 306.4,91.91 C308.759232,92.0960541 311.007434,90.8779517 312.14,88.8 L319.75,90.35 C318.758445,92.9568184 316.943209,95.1688085 314.58,96.65 C312.106625,98.1110631 309.27168,98.8457923 306.4,98.77 C302.639066,98.8450187 299.006168,97.4033926 296.32,94.77 C293.554765,92.0835255 292.054548,88.352963 292.19,84.5 C292.062761,80.6543551 293.562131,76.9331574 296.32,74.25 C299.018379,71.6040635 302.671855,70.1614274 306.45,70.25 C310.121218,70.1612842 313.66907,71.5775347 316.27,74.17 C318.972523,76.9263332 320.441188,80.6611447 320.34,84.52 L320.34,86.71 Z M303,78.34 C301.927566,79.0895346 301.149675,80.1891892 300.8,81.45 L311.9,81.45 C311.610625,80.2004865 310.905446,79.0863036 309.9,78.29 C308.924291,77.5651045 307.735264,77.1851787 306.52,77.21 C305.256978,77.2067903 304.025152,77.6022342 303,78.34" id="Shape" fill="#221F1F"></path>
            </g>
        </g>
    </g>
</svg>