<?xml version="1.0" encoding="UTF-8"?>
<svg width="150px" height="44px" viewBox="0 0 150 44" version="1.1" xmlns="http://www.w3.org/2000/svg" xmlns:xlink="http://www.w3.org/1999/xlink">
    <!-- Generator: Sketch 64 (93537) - https://sketch.com -->
    <title>exitopuntocom</title>
    <desc>Created with Sketch.</desc>
    <g id="Compra-y-Recoge" stroke="none" stroke-width="1" fill="none" fill-rule="evenodd">
        <g id="HOME---Servicios---Compra-y-Recoge-V2---Desktop-HD" transform="translate(-406.000000, -1843.000000)" fill-rule="nonzero">
            <g id="exitopuntocom" transform="translate(406.000000, 1843.000000)">
                <rect id="Rectangle" fill="#FFEB00" x="0" y="0" width="149.861381" height="43.5899369" rx="21.7949685"></rect>
                <path d="M26.2220433,19.3651084 C25.9703742,18.3474041 25.5211777,17.3887496 24.8998458,16.5433355 C24.2866362,15.7028774 23.4815999,15.0201052 22.5513271,14.5514958 C21.5132056,14.0466243 20.3679856,13.7998405 19.2134718,13.8322203 C18.1439056,13.8191943 17.0831463,14.0263855 16.0975238,14.440838 C14.2492708,15.22508 12.8051386,16.7320409 12.1031928,18.608947 C11.7360539,19.6038419 11.5512734,20.6564689 11.5576707,21.7165859 C11.5428472,22.8006136 11.7245238,23.8783944 12.0939466,24.8979965 C12.4249021,25.8239682 12.9443204,26.6716588 13.6195592,27.3877962 C14.2956811,28.0998718 15.1235587,28.6513689 16.0420469,29.0015552 C17.0526904,29.3930429 18.1293636,29.5871413 19.2134718,29.573287 C20.741552,29.615348 22.2486982,29.2115229 23.5499098,28.4113805 C24.1783642,27.9983832 24.718822,27.4656343 25.1402453,26.8437289 C25.6214545,26.141643 25.9924839,25.3704673 26.2405356,24.5568018 L26.3422431,24.2524929 C26.3422431,24.2524929 26.3977199,24.1141707 26.2312894,24.1141707 L22.3848966,24.1141707 C22.1814816,24.1141707 22.1629893,24.23405 22.1629893,24.23405 L22.1629893,24.3539292 C22.1024335,24.5479005 22.0016233,24.7269898 21.867113,24.8795536 C21.6856444,25.0874293 21.4773307,25.2703805 21.2476218,25.4236209 C20.7000946,25.7843574 20.0543393,25.9679069 19.3983945,25.9492453 C18.9369492,25.96101 18.4769862,25.8923555 18.0392124,25.7463727 C17.6917273,25.636899 17.374974,25.4473538 17.1145988,25.1930839 C16.8374386,24.9137073 16.6313632,24.5722182 16.5135999,24.197164 C16.3812685,23.8129349 16.3004354,23.4129479 16.2732004,23.0075931 L26.4439506,23.0075931 C26.6011349,23.0075931 26.610381,22.8231635 26.610381,22.8231635 L26.610381,22.6940628 C26.610381,22.4450828 26.610381,22.1868814 26.610381,21.9379014 C26.5892158,21.0674911 26.4587532,20.2031577 26.2220433,19.3651084 M16.8094763,18.4429604 C17.0488346,18.1519442 17.3484813,17.9160119 17.6878592,17.7513494 C18.1295874,17.5442484 18.6147986,17.4461998 19.1025181,17.4654835 C19.4888716,17.4585206 19.8735543,17.5177847 20.2397929,17.6406916 C20.5278226,17.7413008 20.7877098,17.9088287 20.9979761,18.1294301 C21.4045427,18.6199509 21.6839623,19.2026339 21.8116362,19.8261824 L16.2177235,19.8261824 C16.2477041,19.6549012 16.2878411,19.4855436 16.3379233,19.319001 C16.4301101,18.9826476 16.5906136,18.6687741 16.8094763,18.396853" id="Shape" fill="#000000"></path>
                <path d="M40.8864159,29.0292197 L35.4496876,21.2094045 L40.3593861,14.2287439 C40.3593861,14.2287439 40.4241091,14.1457506 40.2484325,14.1457506 L35.2832571,14.1457506 C35.2055126,14.1356334 35.1281853,14.1671829 35.0798421,14.2287439 L32.8515232,17.5669198 L30.604712,14.2471869 C30.5424121,14.1812132 30.4551711,14.1444019 30.3643125,14.1457506 L25.2604451,14.1457506 C25.1125069,14.1457506 25.186476,14.2471869 25.186476,14.2471869 L25.5285831,14.7359254 L30.0869284,21.2923978 L24.779646,29.0476626 C24.779646,29.0476626 24.6779385,29.1952082 24.8536151,29.1952082 L29.8372827,29.1952082 C29.9560556,29.1956256 30.0642787,29.127267 30.1146668,29.0199982 L32.7960464,24.9994328 L35.4681799,29.0199982 C35.5289119,29.1219638 35.6361445,29.1875117 35.7548101,29.1952082 L40.8032007,29.1952082 C40.9973695,29.1952082 40.8864159,29.0292197 40.8864159,29.0292197" id="Path" fill="#000000"></path>
                <path d="M47.1552965,14.1457506 L41.4226918,14.1457506 C41.2192768,14.1457506 41.2470152,14.2840728 41.2470152,14.2840728 L42.0791675,29.0384412 C42.0791675,29.0384412 42.0791675,29.2228708 42.245598,29.2228708 L46.3231442,29.2228708 C46.4988208,29.2228708 46.4988208,29.0292197 46.4988208,29.0292197 L47.3217269,14.3394017 C47.3217269,14.3394017 47.3217269,14.1734151 47.1737888,14.1734151" id="Path" fill="#000000"></path>
                <path d="M58.093476,17.5208124 C58.1868723,17.5111121 58.2561076,17.429876 58.2506604,17.3363828 L58.2506604,14.2932943 C58.2538461,14.2516037 58.2379525,14.2107133 58.2074239,14.1820572 C58.1768954,14.1534011 58.1350085,14.1400549 58.093476,14.1457506 L55.3751119,14.1457506 L55.3751119,10.0329705 C55.3778421,9.98816866 55.3611861,9.94434864 55.3293632,9.91261053 C55.2975402,9.88087242 55.253603,9.86426088 55.2086814,9.86698381 L50.8537511,9.86698381 C50.8104107,9.86690896 50.7689625,9.88468499 50.7392038,9.91611009 C50.7094452,9.94753519 50.6940173,9.98982037 50.6965668,10.0329705 L50.6965668,14.1549721 L48.477494,14.1549721 C48.274079,14.1549721 48.2925713,14.2840728 48.2925713,14.2840728 L48.2925713,17.3640472 C48.2869165,17.4079196 48.3012962,17.4520077 48.3317491,17.4841659 C48.362202,17.5163242 48.4055148,17.5331595 48.4497556,17.5300339 L50.6780745,17.5300339 L50.6780745,25.5803861 C50.6536805,26.2433618 50.7934065,26.9021233 51.0849045,27.498454 C51.3452872,27.985212 51.73572,28.3905623 52.2129332,28.6695819 C52.6980166,28.9441886 53.2317582,29.1226718 53.7847764,29.1952063 C54.3787361,29.2818121 54.9782533,29.3249609 55.5785269,29.3243144 L56.7805246,29.3243144 C57.1675404,29.3088344 57.5533928,29.2718914 57.9362917,29.2136493 L58.1027222,29.2136493 C58.1027222,29.2136493 58.2506604,29.2136493 58.2506604,29.0199982 L58.2506604,25.5158357 C58.2506604,25.3314061 58.093476,25.386735 58.093476,25.386735 L57.7975997,25.4512854 L57.2613237,25.5250572 C57.0640728,25.5250572 56.8606578,25.5250572 56.6510787,25.5250572 C56.4024574,25.5297299 56.1541582,25.5049662 55.9113878,25.4512854 C55.7950736,25.4315985 55.6863671,25.3805789 55.5970192,25.3037417 C55.514629,25.2145311 55.4628196,25.1015003 55.449081,24.9809899 C55.3941849,24.7390394 55.3693419,24.4912724 55.3751119,24.2432714 L55.3751119,17.5208124 L58.093476,17.5208124 Z" id="Path" fill="#000000"></path>
                <path d="M73.5530164,18.4429604 C72.86768,16.5473935 71.3895131,15.0428761 69.5032086,14.3209588 C67.439894,13.5709888 65.1774428,13.5709888 63.1141282,14.3209588 C62.1887319,14.6786445 61.3503154,15.2287634 60.6546559,15.9347178 C59.9562079,16.6502728 59.4173894,17.5050554 59.0735665,18.4429604 C58.6965619,19.4799894 58.5117163,20.5767315 58.5280445,21.6797 C58.5101424,22.7797818 58.6950528,23.8737824 59.0735665,24.907218 C59.419791,25.8412233 59.9583916,26.6925188 60.6546559,27.4062392 C61.3513763,28.1064243 62.1898638,28.6503022 63.1141282,29.0015552 C65.1817027,29.7270613 67.4356341,29.7270613 69.5032086,29.0015552 C71.39189,28.2932418 72.8728416,26.7926344 73.5530164,24.8979965 C73.9346798,23.8651507 74.1227272,22.7711327 74.1077846,21.6704785 C74.1211514,20.5669437 73.93317,19.4701846 73.5530164,18.4337389 M67.7926733,25.5066142 C66.8545423,25.9555675 65.7627944,25.9555675 64.8246635,25.5066142 C64.4448803,25.2800388 64.127231,24.9632366 63.9000498,24.5844662 C63.6513321,24.1719249 63.4761477,23.7195322 63.3822662,23.2473516 C63.2787226,22.7218334 63.2260856,22.187603 63.2250818,21.6520355 C63.2260928,21.110364 63.2787243,20.5700144 63.3822662,20.0382765 C63.4695201,19.5642051 63.6451506,19.1106601 63.9000498,18.7011618 C64.1334204,18.3272485 64.4497504,18.0117621 64.8246635,17.7790138 C65.2846016,17.558908 65.7964935,17.4695658 66.3040453,17.5208124 C66.8196747,17.504021 67.3304315,17.6250023 67.7834272,17.8712286 C68.1609104,18.1007332 68.4779226,18.4169 68.7080408,18.7933766 C68.96294,19.2028749 69.1385705,19.6564199 69.2258245,20.1304913 C69.3369859,20.6612423 69.3927599,21.2020442 69.3922583,21.7442503 C69.3927492,22.2803576 69.3369684,22.8150436 69.2258245,23.3395664 C69.1335942,23.8122228 68.9583019,24.2648944 68.7080408,24.676681 C68.4860542,25.0594603 68.1672299,25.3774344 67.7834272,25.598829" id="Shape" fill="#000000"></path>
                <path d="M47.1552965,32.7823621 C47.1552965,31.2544972 45.9134056,30.0159181 44.3814555,30.0159181 C42.8495054,30.0159181 41.6076145,31.2544972 41.6076145,32.7823621 C41.6076145,34.310227 42.8495054,35.5488062 44.3814555,35.5488062 C45.9134056,35.5488062 47.1552965,34.310227 47.1552965,32.7823621" id="Path" fill="#CC2329"></path>
                <path d="M79.3133595,24.6397951 C79.8153855,25.1227471 80.0990615,25.7884401 80.0992811,26.4840911 C80.1047124,27.1790246 79.8239472,27.8457307 79.3226056,28.3283872 C78.809892,28.847882 78.1020953,29.1289074 77.3716708,29.1029915 C76.6546616,29.1195209 75.9612806,28.8468977 75.4484744,28.3468301 C74.9381961,27.8480935 74.6599915,27.1594513 74.681045,26.4472052 C74.6784955,25.7372573 74.9620531,25.0560558 75.4680089,24.5566514 C75.9739647,24.0572469 76.6598892,23.7815196 77.3716708,23.7914189 C78.1094418,23.7906565 78.8137462,24.0983861 79.3133595,24.6397951 Z" id="Path" fill="#000000"></path>
                <path d="M91.7124286,22.7309487 L96.0673589,23.6530967 C95.7240228,25.3390676 94.7693173,26.8395398 93.3859793,27.8673132 C91.9852466,28.9441007 90.2632628,29.5219755 88.4947731,29.5087366 C86.3586655,29.5587624 84.2889084,28.7668638 82.73443,27.3048029 C81.1705236,25.8505751 80.3140935,23.7925534 80.3859113,21.661257 C80.3167925,19.5331381 81.1729974,17.4790193 82.73443,16.0269326 C84.2852444,14.5580518 86.3566628,13.7622015 88.4947731,13.8137773 C90.2486452,13.7598561 91.9702643,14.2921673 93.3859793,15.3261001 C94.7826538,16.3218089 95.768547,17.79015 96.1598203,19.4573232 L91.7216747,20.5177934 C91.58143,19.7538677 91.1833851,19.0607736 90.5936461,18.5536182 C90.0232251,18.1051911 89.3132958,17.8702666 88.5872344,17.8896716 C87.6152232,17.8506829 86.674067,18.2342159 86.0075623,18.9409203 C85.3640095,19.6794266 85.0325834,20.6379993 85.0829487,21.6151496 C85.0291686,22.5955668 85.3608729,23.5582524 86.0075623,24.2986003 C86.6808042,24.9934556 87.6191262,25.3691253 88.5872344,25.3314061 C90.1283234,25.3487389 91.4533889,24.2461589 91.7124286,22.7309487 Z" id="Path" fill="#000000"></path>
                <path d="M110.35264,16.0084896 C111.920632,17.4458417 112.784522,19.4921095 112.719651,21.6151496 C112.784032,23.7461404 111.920896,25.8007097 110.35264,27.249474 C108.785113,28.6935343 106.716427,29.4738356 104.583051,29.4257433 C102.425953,29.4833912 100.330748,28.7030912 98.7394924,27.249474 C97.1595764,25.8081591 96.2913074,23.7494134 96.3632353,21.6151496 C96.2932295,19.4892683 97.1618608,17.4397762 98.7394924,16.0084896 C100.330748,14.5548724 102.425953,13.7745724 104.583051,13.8322203 C106.717094,13.7802249 108.787202,14.5610623 110.35264,16.0084896 L110.35264,16.0084896 Z M107.098,24.3723722 C107.816891,23.6340737 108.201161,22.6343039 108.161306,21.6059281 C108.198462,20.5744853 107.807032,19.5734966 107.079508,18.839484 C106.42855,18.1581454 105.526687,17.7717114 104.583051,17.7697923 C103.615711,17.7612407 102.686973,18.1477386 102.012625,18.839484 C101.272572,19.5665918 100.873255,20.5705887 100.912334,21.6059281 C100.874067,22.6375586 101.265662,23.6389721 101.994132,24.3723722 C102.671658,25.0706465 103.608891,25.4578932 104.583051,25.4420639 C105.534227,25.4507388 106.445851,25.062995 107.098,24.3723722 L107.098,24.3723722 Z" id="Shape" fill="#000000"></path>
                <path d="M136.676391,15.4275364 C137.780007,16.5921891 138.366606,18.1511727 138.303711,19.7524106 L138.303711,28.9738908 L133.597427,28.9738908 L133.597427,20.6745586 C133.636459,19.9440658 133.383798,19.227891 132.894721,18.6827189 C132.439694,18.1875553 131.792765,17.9119993 131.119463,17.9265575 C130.307659,17.885383 129.523597,18.2268551 129.002097,18.8487055 C128.430754,19.6541459 128.153376,20.6305145 128.216176,21.6151496 L128.216176,28.8724545 L123.482154,28.8724545 L123.482154,20.5731223 C123.518671,19.8413446 123.262627,19.1250049 122.770201,18.5812826 C122.308041,18.0797471 121.649859,17.8037112 120.967205,17.8251212 C120.165396,17.7809084 119.391213,18.1240719 118.886824,18.7472692 C118.333258,19.5599432 118.066523,20.5332012 118.128641,21.5137133 L118.128641,28.7710182 L113.394619,28.7710182 L113.394619,14.210301 L118.128641,14.210301 L118.128641,15.5658586 C119.250961,14.3494885 120.855657,13.6910895 122.511309,13.7676699 C124.46479,13.645933 126.326891,14.6063981 127.356285,16.2666911 C128.594537,14.6205256 130.564792,13.6862884 132.626583,13.7676699 C134.150329,13.7292632 135.620041,14.331644 136.676391,15.4275364 L136.676391,15.4275364 Z" id="Path" fill="#000000"></path>
            </g>
        </g>
    </g>
</svg>