<?xml version="1.0" encoding="UTF-8"?>
<svg width="146px" height="44px" viewBox="0 0 146 44" version="1.1" xmlns="http://www.w3.org/2000/svg" xmlns:xlink="http://www.w3.org/1999/xlink">
    <title>exitopuntocom</title>
    <g id="Compra-y-Recoge" stroke="none" stroke-width="1" fill="none" fill-rule="evenodd">
        <g id="HOME---Servicios---Compra-y-Recoge-V2---Desktop-HD-2" transform="translate(-408.000000, -1845.000000)">
            <g id="exitopuntocom" transform="translate(408.000000, 1845.000000)">
                <path d="M123.220952,43.4726984 L21.5187937,43.4726984 C9.63390476,43.4726984 7.94003311e-14,33.8380952 7.94003311e-14,21.9532063 L7.94003311e-14,21.5187937 C7.94003311e-14,9.63460317 9.63390476,0 21.5187937,0 L123.220952,0 C135.105841,0 144.740444,9.63460317 144.740444,21.5187937 L144.740444,21.9532063 C144.740444,33.8380952 135.105841,43.4726984 123.220952,43.4726984" id="Fill-30" fill="#FFEB00"></path>
                <path d="M26.7499048,18.7181587 C26.9238095,18.4974603 27.1605714,18.3088889 27.4685714,18.1503492 C27.7549206,18.0008889 28.1355556,17.9205714 28.6195556,17.9205714 C28.9827302,17.9205714 29.2928254,17.9694603 29.5470476,18.0623492 C29.8005714,18.1559365 29.9989206,18.2851429 30.1595556,18.4611429 C30.4438095,18.7733333 30.6686984,19.2321905 30.820254,19.8412063 L26.2728889,19.8412063 C26.2959365,19.7154921 26.3273651,19.5772063 26.3699683,19.4319365 C26.4433016,19.184 26.567619,18.9458413 26.7499048,18.7181587 M34.4107937,19.4913016 C34.1900952,18.6301587 33.8353016,17.8605079 33.3394286,17.1858413 C32.8407619,16.5055873 32.2010159,15.9622222 31.427873,15.5606349 C30.644254,15.1555556 29.7335238,14.9544127 28.7075556,14.9544127 C27.7863492,14.9544127 26.9405714,15.1199365 26.1751111,15.4495873 C25.4138413,15.7792381 24.7531429,16.2332063 24.2027937,16.8100952 C23.6496508,17.3862857 23.2250159,18.0693333 22.9260952,18.8536508 C22.627873,19.6407619 22.4819048,20.4865397 22.4819048,21.3874921 C22.4819048,22.3177778 22.6236825,23.1789206 22.9142222,23.9632381 C23.2040635,24.7475556 23.6175238,25.4285079 24.1553016,25.9977143 C24.695873,26.5690159 25.3544762,27.0111111 26.1262222,27.3170159 C26.8972698,27.623619 27.7626032,27.7772698 28.7075556,27.7772698 C30.0708571,27.7772698 31.2581587,27.467873 32.2394286,26.831619 C32.7366984,26.5110476 33.1704127,26.0843175 33.5349841,25.5563175 C33.8995556,25.0339048 34.1942857,24.4088254 34.4268571,23.6894603 L34.5092698,23.4394286 C34.5092698,23.4394286 34.5539683,23.3290794 34.4177778,23.3290794 L31.2874921,23.3290794 C31.1247619,23.3290794 31.108,23.4219683 31.108,23.4219683 L31.0779683,23.5260317 C31.0395556,23.6657143 30.9620317,23.8026032 30.8384127,23.9485714 C30.7182857,24.0945397 30.5485714,24.2446984 30.3327619,24.3934603 C29.9151111,24.6777143 29.4213333,24.8229841 28.8193016,24.8229841 C28.3939683,24.8229841 28.0252063,24.7706032 27.7151111,24.6623492 C27.4022222,24.5596825 27.1486984,24.4074286 26.9405714,24.2048889 C26.7338413,24.0051429 26.5704127,23.7425397 26.4495873,23.3975238 C26.3539048,23.123746 26.2889524,22.800381 26.2547302,22.4267302 L34.4994921,22.4267302 C34.6314921,22.4267302 34.636381,22.275873 34.636381,22.275873 L34.6426667,22.1669206 C34.6559365,21.9629841 34.6622222,21.7576508 34.6622222,21.5551111 C34.6622222,20.8427302 34.5791111,20.1561905 34.4107937,19.4913016" id="Fill-31" fill="#000000"></path>
                <path d="M46.3431746,27.3756825 L41.9159365,21.0012698 L45.9150476,15.3092063 C45.9150476,15.3092063 45.9674286,15.2386667 45.8256508,15.2386667 L41.7818413,15.2386667 C41.6526349,15.2386667 41.6184127,15.3113016 41.6184127,15.3113016 L39.8039365,18.0337143 L37.9754921,15.3252698 C37.9754921,15.3252698 37.9112381,15.2386667 37.7820317,15.2386667 L33.6257778,15.2386667 C33.5056508,15.2386667 33.5678095,15.3189841 33.5678095,15.3189841 L33.8464762,15.7226667 L37.5571429,21.0711111 L33.2360635,27.3896508 C33.2360635,27.3896508 33.155746,27.508381 33.2989206,27.508381 L37.3539048,27.508381 C37.5194286,27.508381 37.5815873,27.3700952 37.5815873,27.3700952 L39.7592381,24.0854603 L41.9354921,27.3686984 C41.9354921,27.3686984 42.0206984,27.508381 42.1645714,27.508381 L46.2789206,27.508381 C46.4332698,27.508381 46.3431746,27.3756825 46.3431746,27.3756825" id="Fill-32" fill="#000000"></path>
                <path d="M51.4604444,15.2344762 L46.7915556,15.2344762 C46.6288254,15.2344762 46.6532698,15.3469206 46.6532698,15.3469206 L47.3258413,27.3582222 C47.3258413,27.3582222 47.3384127,27.508381 47.4648254,27.508381 L50.7690159,27.508381 C50.908,27.508381 50.908,27.3547302 50.908,27.3547302 L51.5805767,15.3692698 C51.5805767,15.3692698 51.5833651,15.2344762 51.4604444,15.2344762" id="Fill-33" fill="#000000"></path>
                <path d="M60.347746,17.9925079 C60.347746,17.9925079 60.4741906,17.9855238 60.4741906,17.8444444 L60.4741906,15.3587937 C60.4741906,15.3587937 60.479746,15.2386667 60.3428571,15.2386667 L58.1302857,15.2386667 L58.1302857,11.8772063 C58.1302857,11.8772063 58.1372698,11.739619 57.9968889,11.739619 L54.4419683,11.739619 C54.3001905,11.739619 54.3120635,11.8737143 54.3120635,11.8737143 L54.3120635,15.2386667 L52.5171429,15.2386667 C52.3544127,15.2386667 52.3725714,15.3462222 52.3725714,15.3462222 L52.3725714,17.8549206 C52.3725714,17.8549206 52.3565079,17.9925079 52.4940952,17.9925079 L54.3120635,17.9925079 L54.3120635,24.5596825 C54.3120635,25.1777778 54.4140317,25.7008889 54.6438095,26.124127 C54.8624127,26.5326984 55.1725079,26.8553651 55.5587302,27.0795556 C55.935873,27.2967619 56.3646984,27.4399365 56.8382222,27.5125714 C57.299873,27.5810159 57.7845714,27.6159365 58.2951111,27.6159365 C58.6149841,27.6159365 58.9404444,27.6110476 59.2777778,27.5935873 C59.6179048,27.5803175 59.9286984,27.5502857 60.2143492,27.5041905 L60.3526349,27.4811429 C60.3526349,27.4811429 60.4741906,27.4776508 60.4741906,27.324 L60.4741906,24.4619048 C60.4741906,24.3103492 60.347746,24.3613333 60.347746,24.3613333 L60.1046984,24.4088254 C59.9664127,24.4367619 59.8183492,24.4584127 59.664,24.472381 C59.5089524,24.487746 59.3455238,24.4947302 59.1730159,24.4947302 C58.9215873,24.4947302 58.7169524,24.4702857 58.572381,24.4367619 C58.4271111,24.3983492 58.3433016,24.3501587 58.3104762,24.3152381 C58.2727619,24.2789206 58.223873,24.1979048 58.1896508,24.0512381 C58.1512381,23.9066667 58.1302857,23.7048254 58.1302857,23.4506032 L58.1302857,17.9925079 L60.347746,17.9925079 Z" id="Fill-34" fill="#000000"></path>
                <path d="M68.235619,24.5184762 C67.924127,24.6972698 67.5239365,24.7936508 67.0245714,24.7936508 C66.5203175,24.7936508 66.1264127,24.6972698 65.8246984,24.5212698 C65.5062222,24.3340952 65.2568889,24.0910476 65.0620317,23.7781587 C64.8650794,23.4575873 64.7260952,23.0979048 64.6415873,22.6865397 C64.5549841,22.2626032 64.5109841,21.8302857 64.5109841,21.384 C64.5109841,20.9398095 64.5549841,20.5012063 64.6415873,20.0688889 C64.7260952,19.6512381 64.8650794,19.2901587 65.0613333,18.9786667 C65.2561905,18.6741587 65.5083175,18.4304127 65.8295873,18.2327619 C66.1292063,18.051873 66.5224127,17.9513016 67.0245714,17.9513016 C67.5239365,17.9513016 67.9213333,18.051873 68.2307302,18.2341587 C68.5617778,18.4318095 68.8153016,18.676254 69.0066667,18.9786667 C69.2029206,19.2901587 69.3446984,19.6512381 69.4271111,20.0688889 C69.5144127,20.5012063 69.5584127,20.9398095 69.5584127,21.384 C69.5584127,21.8302857 69.5144127,22.2626032 69.4271111,22.6865397 C69.3446984,23.0979048 69.2029206,23.4589841 69.0066667,23.7781587 C68.8139048,24.0896508 68.563873,24.3326984 68.235619,24.5184762 M72.9254603,18.7433016 C72.6265397,17.9464127 72.1984127,17.2612698 71.6389841,16.6976508 C71.0816508,16.1305397 70.4069841,15.6919365 69.6275556,15.3839365 C68.8439365,15.0752381 67.9730159,14.9236825 67.0245714,14.9236825 C66.0754286,14.9236825 65.2066032,15.0752381 64.4285714,15.3839365 C63.656127,15.6919365 62.9856508,16.1305397 62.4297143,16.6976508 C61.872381,17.2612698 61.4428571,17.9464127 61.1439365,18.7433016 C60.8443175,19.5394921 60.696254,20.4264762 60.696254,21.3874921 C60.696254,22.3513016 60.8443175,23.2333968 61.1439365,24.0219048 C61.4428571,24.8125079 61.872381,25.4927619 62.4297143,26.056381 C62.9891429,26.6220952 63.656127,27.0606984 64.4320635,27.3568254 C65.2073016,27.6599365 66.0768254,27.8059048 67.0245714,27.8059048 C67.9723175,27.8059048 68.8425397,27.6599365 69.6247619,27.3568254 C70.4048889,27.0606984 71.0816508,26.6220952 71.6389841,26.056381 C72.1984127,25.4927619 72.6265397,24.8125079 72.9254603,24.0219048 C73.2257778,23.2333968 73.3745397,22.3513016 73.3745397,21.3874921 C73.3745397,20.4264762 73.2257778,19.5394921 72.9254603,18.7433016" id="Fill-35" fill="#000000"></path>
                <path d="M51.4031746,30.4340317 C51.4031746,29.1685079 50.3779048,28.1439365 49.1165714,28.1439365 C47.8545397,28.1439365 46.8299683,29.1685079 46.8299683,30.4340317 C46.8299683,31.6974603 47.8545397,32.7199365 49.1165714,32.7199365 C50.3779048,32.7199365 51.4031746,31.6974603 51.4031746,30.4340317" id="Fill-36" fill="#E2241C"></path>
                <path d="M77.6090159,23.7900317 C78.0336508,24.2146667 78.2466667,24.7245079 78.2466667,25.3181587 C78.2466667,25.9285714 78.0378413,26.4419048 77.6215873,26.8595556 C77.2039365,27.2758095 76.6738413,27.4846349 76.032,27.4846349 C75.4069206,27.4846349 74.8852063,27.28 74.4675556,26.8707302 C74.0506032,26.4614603 73.8417778,25.9439365 73.8417778,25.3181587 C73.8417778,24.7245079 74.0506032,24.2146667 74.4675556,23.7900317 C74.8852063,23.3646984 75.4069206,23.152381 76.032,23.152381 C76.6584762,23.152381 77.1836825,23.3646984 77.6090159,23.7900317" id="Fill-37" fill="#1D7BA0"></path>
                <path d="M87.7017778,22.2374603 L91.2399365,23.0078095 C90.9354286,24.4193016 90.2132698,25.5591111 89.0741587,26.4251429 C87.9343492,27.291873 86.6024762,27.7248889 85.0778413,27.7248889 C83.2333333,27.7248889 81.672381,27.1270476 80.396381,25.9320635 C79.1210794,24.736381 78.4834286,23.199873 78.4834286,21.3225397 C78.4834286,19.4605714 79.1210794,17.9289524 80.396381,16.7248889 C81.672381,15.5222222 83.2333333,14.9194921 85.0778413,14.9194921 C86.5703492,14.9194921 87.8868571,15.3455238 89.0259683,16.1961905 C90.1650794,17.0461587 90.9033016,18.1699048 91.2399365,19.5653333 L87.6291429,20.4320635 C87.4692063,19.7259683 87.164,19.192381 86.7149206,18.8313016 C86.2651429,18.4702222 85.7196825,18.2900317 85.0778413,18.2900317 C84.2118095,18.2900317 83.5133968,18.5749841 82.984,19.1441905 C82.4546032,19.7140952 82.1892063,20.439746 82.1892063,21.3225397 C82.1892063,22.2213968 82.4546032,22.9512381 82.984,23.5127619 C83.5133968,24.0742857 84.2118095,24.3550476 85.0778413,24.3550476 C86.4264762,24.3550476 87.3008889,23.6489524 87.7017778,22.2374603" id="Fill-38" fill="#1D7BA0"></path>
                <path d="M100.217333,23.5728254 C100.794921,22.9868571 101.084063,22.2374603 101.084063,21.3225397 C101.084063,20.407619 100.791429,19.6582222 100.20546,19.072254 C99.6201905,18.4862857 98.9420317,18.1936508 98.1716825,18.1936508 C97.3692063,18.1936508 96.6714921,18.4862857 96.0771429,19.072254 C95.4841905,19.6582222 95.1873651,20.407619 95.1873651,21.3225397 C95.1873651,22.2374603 95.48,22.9868571 96.0659683,23.5728254 C96.6512381,24.1587937 97.3531429,24.4514286 98.1716825,24.4514286 C98.9573968,24.4514286 99.639746,24.1587937 100.217333,23.5728254 M102.865016,16.7486349 C104.149397,17.9366349 104.791238,19.4605714 104.791238,21.3225397 C104.791238,23.199873 104.149397,24.7321905 102.865016,25.9194921 C101.581333,27.1074921 100.016889,27.7011429 98.1716825,27.7011429 C96.2943492,27.7011429 94.7096508,27.1074921 93.4182857,25.9194921 C92.1262222,24.7321905 91.4801905,23.199873 91.4801905,21.3225397 C91.4801905,19.4605714 92.1262222,17.9366349 93.4182857,16.7486349 C94.7096508,15.5613333 96.2943492,14.968381 98.1716825,14.968381 C100.016889,14.968381 101.581333,15.5613333 102.865016,16.7486349" id="Fill-39" fill="#1D7BA0"></path>
                <path d="M124.287429,16.28 C125.170222,17.1865397 125.611619,18.3619683 125.611619,19.8062857 L125.611619,27.3645079 L121.783619,27.3645079 L121.783619,20.6248254 C121.783619,19.9508571 121.591556,19.4088889 121.206032,19.0003175 C120.821206,18.5910476 120.34,18.3864127 119.762413,18.3864127 C119.039556,18.3864127 118.466159,18.6469206 118.040825,19.1686349 C117.615492,19.6903492 117.403175,20.448127 117.403175,21.4433651 L117.403175,27.3645079 L113.552127,27.3645079 L113.552127,20.6248254 C113.552127,19.9508571 113.359365,19.4088889 112.97454,19.0003175 C112.589016,18.5910476 112.100127,18.3864127 111.505778,18.3864127 C110.783619,18.3864127 110.217905,18.6469206 109.809333,19.1686349 C109.400063,19.6903492 109.195429,20.448127 109.195429,21.4433651 L109.195429,27.3645079 L105.344381,27.3645079 L105.344381,15.2812698 L109.195429,15.2812698 L109.195429,16.388254 C110.077524,15.4097778 111.264825,14.9201905 112.757333,14.9201905 C114.538984,14.9201905 115.854794,15.6018413 116.70546,16.9658413 C117.74819,15.6018413 119.176444,14.9201905 120.989524,14.9201905 C122.305333,14.9201905 123.404635,15.3734603 124.287429,16.28" id="Fill-40" fill="#1D7BA0"></path>
            </g>
        </g>
    </g>
</svg>