<?xml version="1.0" encoding="UTF-8"?>
<svg width="46px" height="46px" viewBox="0 0 46 46" version="1.1" xmlns="http://www.w3.org/2000/svg" xmlns:xlink="http://www.w3.org/1999/xlink">
    <!-- Generator: Sketch 64 (93537) - https://sketch.com -->
    <title>Group 11</title>
    <desc>Created with Sketch.</desc>
    <g id="Compra-y-Recoge" stroke="none" stroke-width="1" fill="none" fill-rule="evenodd">
        <g id="HOME---Servicios---Compra-y-Recoge-V2---Desktop-HD" transform="translate(-838.000000, -2205.000000)" fill="#0094BF" fill-rule="nonzero">
            <g id="Group-29" transform="translate(838.000000, 2205.000000)">
                <g id="Group-11">
                    <path d="M41.9570312,0 L4.04296875,0 C1.81367578,0 0,1.81367578 0,4.04296875 L0,31.1757812 C0,33.4050742 1.81367578,35.21875 4.04296875,35.21875 L15.3389336,35.21875 L13.9912773,37.9140625 L12.1289062,37.9140625 C9.89961328,37.9140625 8.0859375,39.7277383 8.0859375,41.9570312 L8.0859375,44.6523438 C8.0859375,45.3966094 8.68932812,46 9.43359375,46 L36.5664062,46 C37.3106719,46 37.9140625,45.3966094 37.9140625,44.6523438 L37.9140625,41.9570312 C37.9140625,39.7277383 36.1003867,37.9140625 33.8710938,37.9140625 L32.0087227,37.9140625 L30.6610664,35.21875 L41.9570312,35.21875 C44.1863242,35.21875 46,33.4050742 46,31.1757812 L46,4.04296875 C46,1.81367578 44.1863242,0 41.9570312,0 Z M33.8710938,40.609375 C34.6141914,40.609375 35.21875,41.2139336 35.21875,41.9570312 L35.21875,43.3046875 L10.78125,43.3046875 L10.78125,41.9570312 C10.78125,41.2139336 11.3858086,40.609375 12.1289062,40.609375 C12.6614102,40.609375 32.9324961,40.609375 33.8710938,40.609375 Z M17.0048164,37.9140625 L18.3524727,35.21875 L27.6476172,35.21875 L28.9952734,37.9140625 L17.0048164,37.9140625 Z M43.3046875,31.1757812 C43.3046875,31.9188789 42.7001289,32.5234375 41.9570312,32.5234375 C41.4377344,32.5234375 4.5611875,32.5234375 4.04296875,32.5234375 C3.29987109,32.5234375 2.6953125,31.9188789 2.6953125,31.1757812 L2.6953125,29.828125 L43.3046875,29.828125 L43.3046875,31.1757812 Z M43.3046875,27.1328125 L2.6953125,27.1328125 L2.6953125,4.04296875 C2.6953125,3.29987109 3.29987109,2.6953125 4.04296875,2.6953125 L41.9570312,2.6953125 C42.7001289,2.6953125 43.3046875,3.29987109 43.3046875,4.04296875 L43.3046875,27.1328125 Z" id="Shape"></path>
                    <path d="M33.6764707,5 L33.0961472,5 C31.399206,5 29.9108531,6.11576316 29.3529413,7.76315789 L12.3235295,7.76315789 C11.8996472,7.76315789 11.5013531,7.97509211 11.2523531,8.33319737 C11.0033531,8.69139474 10.9338236,9.15228947 11.065206,9.57302632 L13.7122648,18.0467105 C13.8898825,18.6152763 14.3976766,19 14.9705884,19 L28.3823531,19 C28.9920589,19 29.5227942,18.5652632 29.6678531,17.9471447 L31.8121472,8.80965789 C31.9596766,8.19347368 32.4877648,7.76315789 33.0961472,7.76315789 L33.6764707,7.76315789 C34.4074119,7.76315789 35,7.14457895 35,6.38157895 C35,5.61857895 34.4074119,5 33.6764707,5 Z M27.3439119,16.2368421 L15.9311178,16.2368421 L14.1471766,10.5263158 L28.6839413,10.5263158 L27.3439119,16.2368421 Z" id="Shape"></path>
                    <circle id="Oval" cx="25.5" cy="23.5" r="1.5"></circle>
                    <circle id="Oval" cx="17.5" cy="23.5" r="1.5"></circle>
                </g>
            </g>
        </g>
    </g>
</svg>