<?xml version="1.0" encoding="UTF-8"?>
<svg width="475px" height="132px" viewBox="0 0 475 132" version="1.1" xmlns="http://www.w3.org/2000/svg" xmlns:xlink="http://www.w3.org/1999/xlink">
    <!-- Generator: Sketch 64 (93537) - https://sketch.com -->
    <title>head-comprayrecoje</title>
    <desc>Created with Sketch.</desc>
    <g id="Welcome" stroke="none" stroke-width="1" fill="none" fill-rule="evenodd">
        <g id="HOME---Servicios---Compra-y-Recoge---Desktop-HD" transform="translate(-834.000000, -211.000000)" fill="#FFFFFF" fill-rule="nonzero">
            <g id="head-comprayrecoje" transform="translate(834.000000, 211.000000)">
                <path d="M86.3089157,25.8546108 C84.4777163,23.1105626 81.3835554,21.4629021 78.0708434,21.4677844 L45.4048193,21.4677844 C45.4048193,21.1674251 45.4048193,20.8670659 45.3491566,20.5667066 C44.2092614,8.80532093 33.9992263,-0.00644792142 22.1241177,0.522340952 C10.249009,1.05112983 0.872525578,10.7350703 0.795180723,22.5506587 C0.795180723,22.5506587 0.51686747,24.6215569 2.32192771,30.7552096 C4.12698795,36.8888623 9.51831325,46.5635928 14.2496386,53.9223952 C16.2693976,57.0840719 18.4243373,60.1192814 20.5554217,63.1861078 L20.5554217,63.1861078 L20.1101205,62.5458683 L20.1101205,100.248862 L89.4578313,100.248862 L89.4578313,54.5389222 C92.5594376,52.6583734 94.4402262,49.2974272 94.4121248,45.6862275 L94.4121248,37.9401198 L86.3089157,25.8546108 Z M45.0946988,26.3920896 L78.0708434,26.3920896 C79.726264,26.3894884 81.2728681,27.2115811 82.1898795,28.5815569 L87.326747,36.2407186 L41.7549398,36.2407186 C42.1525301,35.3317365 42.5501205,34.4227545 42.9238554,33.5058683 C43.888251,31.2139083 44.6156089,28.8303836 45.0946988,26.3920896 L45.0946988,26.3920896 Z M74.6118072,41.1650299 L74.6118072,46.0893413 C74.6118072,48.8089634 72.3938367,51.0136527 69.6578313,51.0136527 C66.921826,51.0136527 64.7038554,48.8089634 64.7038554,46.0893413 L64.7038554,41.1650299 L74.6118072,41.1650299 Z M59.7578313,41.1650299 L59.7578313,46.0893413 C59.7578313,48.8089634 57.5398608,51.0136527 54.8038554,51.0136527 C52.0678501,51.0136527 49.8498795,48.8089634 49.8498795,46.0893413 L49.8498795,41.1650299 L59.7578313,41.1650299 Z M44.8959037,41.1650299 L44.8959037,46.0893413 C44.8964285,48.3893851 43.2950902,50.3834292 41.0385999,50.8925948 C38.7821097,51.4017603 36.4715866,50.2904078 35.473012,48.2155689 C36.8566265,45.9075449 38.1766265,43.56 39.4012048,41.1650299 L44.8959037,41.1650299 L44.8959037,41.1650299 Z M40.5542169,38.9123353 L40.8166265,38.3590419 L40.5542169,38.9123353 Z M7.62578313,30.9053892 C5.98771084,26.7082635 5.04144578,22.4479042 6.42506024,17.902994 C8.92192771,9.69844311 17.5575904,4.26826347 25.9149398,5.80958084 C34.9163855,7.46946108 41.1744578,15.2076647 40.4428916,23.9892216 C40.093012,28.1152096 38.3833735,31.8934132 36.6260241,35.5767665 C32.8666736,43.1944234 28.5032543,50.5025342 23.5771084,57.4318563 L23.1318072,58.08 C22.2491566,56.8232335 21.5414458,55.8352096 20.8178313,54.7997605 C15.7684337,47.1959281 10.9575904,39.4498204 7.62578313,30.9053892 Z M44.8959036,95.3245509 L34.9879518,95.3245509 L34.9879518,70.702994 L44.8959036,70.702994 L44.8959036,95.3245509 Z M49.8498795,95.3245509 L49.8498795,65.7786826 L30.0339759,65.7786826 L30.0339759,95.3245509 L25.08,95.3245509 L25.08,63.771018 C25.2324498,63.6042363 25.3732595,63.4272974 25.5014458,63.2414371 C26.6385542,61.5973653 27.8074699,59.9691018 28.9445783,58.3250299 C30.2168675,56.4649102 31.4626506,54.5916168 32.6819277,52.7051497 L32.6819277,52.7051497 C34.5597617,54.788609 37.2511583,55.9646498 40.0651228,55.9313328 C42.8790872,55.8980157 45.5415394,54.658586 47.3689157,52.5312575 C49.2271196,54.6895324 51.9420196,55.9319881 54.7998795,55.9319881 C57.6577395,55.9319881 60.3726395,54.6895324 62.2308434,52.5312575 C64.0890473,54.6895324 66.8039473,55.9319881 69.6618072,55.9319881 C72.5196672,55.9319881 75.2345672,54.6895324 77.0927711,52.5312575 C77.2839981,52.776518 77.4883912,53.0113499 77.7050602,53.2347305 C79.5399457,54.9771562 81.9821466,55.9459208 84.519759,55.9379641 L84.519759,55.9379641 L84.519759,95.3245509 L49.8498795,95.3245509 Z M89.4737349,45.6704192 C89.4737349,48.4764072 87.3744578,50.8713772 84.7901205,51.0057485 C83.4320465,51.0772419 82.1039757,50.591521 81.1163807,49.6621363 C80.1287857,48.7327516 79.5682388,47.4411727 79.5657831,46.0893413 L79.5657831,41.1650299 L89.4737349,41.1650299 L89.4737349,45.6704192 Z" id="Shape"></path>
                <path d="M21.740241,33.5216766 C22.1757498,33.714409 22.6471348,33.8140458 23.1238554,33.814298 L23.1238554,33.814298 C24.0483973,33.8234453 24.9332276,33.4411651 25.5571084,32.7628743 C25.6843373,32.6205988 25.8274699,32.4862275 25.9706024,32.3518563 L31.1233735,26.8742515 C31.6827576,26.3897852 32.1629521,25.8218022 32.546747,25.1906587 C33.4357359,23.7304556 33.7046172,21.9789758 33.2942169,20.3216766 C32.7174598,17.7048797 30.4792893,15.7758898 27.7915663,15.5791617 C26.1632654,15.455615 24.5596808,16.0310599 23.3862651,17.16 L23.1238554,17.4050299 C22.2077034,16.4458426 20.9962312,15.8173132 19.6807229,15.6186826 C18.5466089,15.4433321 17.3856544,15.6113373 16.3489157,16.1008383 C15.1217829,16.6686854 14.1240623,17.6325736 13.5180723,18.8356886 C12.2199657,21.3073433 12.6553131,24.3269811 14.5995181,26.3367665 L18.0824096,30.0359281 L20.6110843,32.7154491 C20.9316312,33.0540712 21.3150632,33.3278449 21.740241,33.5216766 Z" id="Path"></path>
                <path d="M54.8038554,85.4759281 L79.5657831,85.4759281 L79.5657831,65.7786826 L54.8038554,65.7786826 L54.8038554,85.4759281 Z M59.7578313,70.702994 L74.6118072,70.702994 L74.6118072,80.5516168 L59.7578313,80.5516168 L59.7578313,70.702994 Z" id="Shape"></path>
                <path d="M126.203133,41.457485 L134.107229,43.1647904 C133.489588,46.1991864 131.768281,48.9007652 129.27253,50.7528144 C126.709105,52.68356 123.566202,53.6998617 120.350602,53.6378443 C116.477629,53.7397951 112.720398,52.3197447 109.893976,49.6857485 C107.05252,47.0486074 105.49578,43.3198192 105.623855,39.4577246 C105.506661,35.6022172 107.061987,31.8825738 109.893976,29.245509 C112.708697,26.5869034 116.468897,25.1458344 120.350602,25.2380838 C123.521127,25.1891463 126.618895,26.1840561 129.161205,28.0677844 C131.660409,29.8883274 133.416256,32.5428045 134.107229,35.5451497 L126.044096,37.4737725 C125.796935,36.0912226 125.074616,34.8368295 124.000482,33.9247904 C122.96513,33.1069383 121.672551,32.6786588 120.350602,32.7154491 C118.589328,32.6455112 116.883938,33.3374206 115.67494,34.6124551 C114.470128,35.9323217 113.833545,37.6688936 113.901687,39.4498204 C113.838139,41.2229145 114.474524,42.950438 115.67494,44.2634731 C116.891182,45.5254177 118.593925,46.2076178 120.350602,46.1367665 C123.345783,46.1525749 125.296627,44.5928144 126.203133,41.457485 Z" id="Path"></path>
                <path d="M160.061928,29.245509 C162.916762,31.8426627 164.488076,35.5496597 164.363855,39.394491 C164.493758,43.2564373 162.922854,46.9826728 160.061928,49.5988024 C157.220839,52.2246998 153.459831,53.6429424 149.581446,53.5508982 C145.663706,53.6509406 141.86015,52.2338564 138.973735,49.5988024 C136.100422,46.9895024 134.519829,43.260959 134.647952,39.394491 C134.524406,35.5449183 136.105605,31.8351701 138.973735,29.245509 C141.857471,26.6061215 145.66286,25.1883544 149.581446,25.2934132 C153.460557,25.1971418 157.223117,26.6159693 160.061928,29.245509 Z M154.153735,44.4215569 C155.455547,43.0875866 156.153431,41.283382 156.086024,39.4261078 C156.154457,37.5626234 155.443419,35.7541815 154.121928,34.4306587 C152.944088,33.1852743 151.301048,32.478793 149.581446,32.4782305 C147.820432,32.4689184 146.131771,33.1740233 144.905783,34.4306587 C143.573919,35.7490968 142.85375,37.5587827 142.917831,39.4261078 C142.854165,41.2887852 143.56449,43.0954142 144.881928,44.4215569 C146.112852,45.6844056 147.812616,46.3876851 149.581446,46.365988 C151.311287,46.3782382 152.968078,45.6736641 154.153735,44.4215569 L154.153735,44.4215569 Z" id="Shape"></path>
                <path d="M208.973494,28.2337725 C210.982,30.3381498 212.048917,33.1605213 211.931566,36.0589222 L211.931566,52.8316168 L203.383373,52.8316168 L203.383373,37.8768862 C203.445951,36.5540397 202.983343,35.2596813 202.095181,34.2725749 C201.267108,33.3762487 200.090702,32.8779741 198.866747,32.9051497 C197.38118,32.8448255 195.955303,33.490404 195.026024,34.6440719 C194.08241,35.7980838 193.607952,37.4816766 193.602651,39.6948503 L193.602651,52.8316168 L185.006747,52.8316168 L185.006747,37.8768862 C185.059809,36.5497897 184.585688,35.255184 183.686747,34.2725749 C182.844547,33.3679527 181.650052,32.8693841 180.410602,32.9051497 C178.939126,32.836557 177.526454,33.4855632 176.625542,34.6440719 C175.713735,35.7980838 175.255181,37.4816766 175.24988,39.6948503 L175.24988,52.8316168 L166.677831,52.8316168 L166.677831,26.0205988 L175.273735,26.0205988 L175.273735,28.4550898 C177.308667,26.2521876 180.219829,25.057077 183.225542,25.1906587 C187.212048,25.1906587 190.151566,26.7056287 192.044096,29.7355689 C194.281478,26.7555233 197.84785,25.0568697 201.586265,25.1906587 C204.37072,25.1214636 207.054536,26.2270416 208.973494,28.2337725 Z" id="Path"></path>
                <path d="M241.941687,29.245509 C244.533327,32.0056556 245.914993,35.6765666 245.78241,39.4498204 C245.78241,43.6126946 244.502169,47.0220359 241.941687,49.6778443 C239.54093,52.2512162 236.152391,53.688182 232.622169,53.6299401 C229.554715,53.7488552 226.557171,52.7000605 224.240964,50.697485 L224.240964,61.9135329 L215.637108,61.9135329 L215.637108,26.0205988 L224.240964,26.0205988 L224.240964,28.1547305 C226.557999,26.147394 229.558888,25.0955966 232.63012,25.2143713 C236.170702,25.1745956 239.55942,26.6416299 241.941687,29.245509 L241.941687,29.245509 Z M235.524578,44.468982 C236.773328,43.0998713 237.427761,41.2960441 237.345542,39.4498204 C237.41884,37.6120788 236.765176,35.8188843 235.524578,34.4543713 C234.321936,33.1641711 232.617701,32.4525633 230.848916,32.5020359 C229.090176,32.4932012 227.406235,33.2085249 226.197108,34.4780838 C224.898685,35.7965818 224.192969,37.5816742 224.240964,39.4261078 C224.177298,41.2887852 224.887623,43.0954142 226.20506,44.4215569 C227.419663,45.6794699 229.102892,46.3830508 230.856867,46.365988 C232.617223,46.417184 234.315704,45.7182751 235.524578,44.4452695 L235.524578,44.468982 Z" id="Shape"></path>
                <path d="M267.928193,25.8546108 L267.554458,34.4069461 L265.964096,34.4069461 C259.761687,34.4069461 256.663133,37.7530539 256.668434,44.4452695 L256.668434,52.8316168 L248.096386,52.8316168 L248.096386,26.0205988 L256.700241,26.0205988 L256.700241,31.142515 C258.921446,27.4538922 262.02,25.6095808 265.995904,25.6095808 C266.647668,25.6122329 267.296633,25.6945269 267.928193,25.8546108 L267.928193,25.8546108 Z" id="Path"></path>
                <path d="M297.811084,52.8316168 L289.215181,52.8316168 L289.215181,50.697485 C286.898146,52.7048215 283.897256,53.7566189 280.826024,53.6378443 C277.295802,53.6960861 273.907263,52.2591204 271.506506,49.6857485 C268.899893,46.9247687 267.51387,43.2413523 267.657831,39.4577246 C267.525257,35.6806512 268.909989,32.0063513 271.506506,29.245509 C273.894914,26.6483282 277.28639,25.1899818 280.826024,25.2380838 C283.897256,25.1193092 286.898146,26.1711066 289.215181,28.1784431 L289.215181,26.0443114 L297.811084,26.0443114 L297.811084,52.8316168 Z M287.251084,44.4215569 C288.568522,43.0954142 289.278847,41.2887852 289.215181,39.4261078 C289.267587,37.572377 288.558451,35.7773347 287.251084,34.4543713 C286.041958,33.1848123 284.358017,32.4694886 282.599277,32.4783234 C280.830491,32.4288507 279.126256,33.1404586 277.923614,34.4306587 C276.683016,35.7951717 276.029353,37.5883662 276.102651,39.4261078 C276.020432,41.2723315 276.674864,43.0761588 277.923614,44.4452695 C279.13435,45.7203669 280.836181,46.4194632 282.599277,46.365988 C284.353253,46.3830508 286.036482,45.6794699 287.251084,44.4215569 L287.251084,44.4215569 Z" id="Shape"></path>
                <path d="M131.530843,94.708024 C128.406559,96.9471835 124.630496,98.1076443 120.78,98.011976 C116.539036,98.011976 113.093253,96.9870659 110.442651,94.9372455 C107.859743,93.0313808 106.375501,89.9921523 106.466747,86.7959281 C106.466747,82.9176048 108.491807,79.8718563 112.541928,77.6586826 C110.928963,75.6560429 110.038562,73.1733971 110.013253,70.6081437 C109.939397,67.8125412 111.183604,65.1431349 113.376867,63.3916168 C115.807864,61.476443 118.849548,60.4919922 121.948916,60.6172455 C125.458313,60.6172455 128.21759,61.5420359 130.226747,63.3916168 C132.281795,65.3505773 133.591133,67.9563658 133.932289,70.7662275 L125.980482,72.1573653 C125.726024,68.9956886 124.382169,67.4148503 121.948916,67.4148503 C120.971309,67.3761311 120.01569,67.709726 119.277108,68.3475449 C118.57385,68.977151 118.196459,69.8902608 118.251325,70.8294611 C118.258786,71.8177867 118.557344,72.7822913 119.11012,73.6038323 C120.018531,74.8589507 121.087795,75.9908986 122.290843,76.971018 L129.924578,83.5394012 C130.148018,82.5218471 130.254723,81.4824 130.242651,80.4409581 L130.242651,78.0697006 L138.035422,78.0697006 L138.035422,80.4409581 C138.08899,83.4024 137.483466,86.3390125 136.262169,89.0407186 L141.104819,93.2141317 L136.103133,98.7470659 L131.530843,94.708024 Z M125.773735,89.7441916 L117.448193,82.5276647 C115.730602,83.5947305 114.863855,84.8989222 114.863855,86.4797605 C114.834133,87.8113699 115.468052,89.0716163 116.55759,89.8469461 C117.887721,90.7595794 119.483961,91.2097413 121.098072,91.1274251 C122.759382,91.1321989 124.385412,90.6511592 125.773735,89.7441916 Z" id="Shape"></path>
                <path d="M172.912048,70.2445509 L172.554217,78.788982 L170.963855,78.788982 C164.761446,78.788982 161.660241,82.1377246 161.660241,88.8352096 L161.660241,97.2215569 L153.080241,97.2215569 L153.080241,70.4026347 L161.676145,70.4026347 L161.676145,75.5324551 C163.902651,71.8438323 167.003855,69.999521 170.979759,69.999521 C171.631524,70.0021731 172.280488,70.084467 172.912048,70.2445509 L172.912048,70.2445509 Z" id="Path"></path>
                <path d="M200.854699,85.9976048 L181.078554,85.9976048 C181.352807,87.4526459 182.088468,88.7822023 183.177831,89.7916168 C184.187247,90.7114718 185.514233,91.20965 186.883373,91.1827545 C189.571084,91.1827545 191.48747,90.1499401 192.63253,88.0843114 L200.266265,89.6651497 C199.268374,92.2605757 197.448751,94.4632276 195.081687,95.9410778 C192.592597,97.3820303 189.746574,98.0995452 186.86747,98.011976 C183.101026,98.0988597 179.458081,96.6743395 176.760723,94.0598802 C173.980524,91.3714516 172.477794,87.6371216 172.625783,83.7844311 C172.502193,79.9568823 174.002684,76.2539314 176.760723,73.5801198 C179.465324,70.9367237 183.131132,69.4940073 186.923133,69.5805988 C190.609908,69.493427 194.171248,70.9134329 196.775422,73.508982 C199.426024,76.1120958 200.785783,79.5372455 200.854699,83.7844311 L200.854699,85.9976048 Z M183.448193,77.6665868 C182.37092,78.4121046 181.589115,79.5079049 181.23759,80.7650299 L192.37012,80.7650299 C192.071998,79.5121253 191.354156,78.3972147 190.334458,77.6033533 C189.352916,76.8893275 188.163104,76.5145322 186.946988,76.5362874 C185.690292,76.5387543 184.466232,76.9341916 183.448193,77.6665868 Z" id="Shape"></path>
                <path d="M221.974699,85.839521 L229.878795,87.5468263 C229.263275,90.5820689 227.541523,93.2843447 225.044096,95.1348503 C222.479641,97.0627749 219.336831,98.0762621 216.122169,98.011976 C212.249783,98.1104996 208.493817,96.6909272 205.665542,94.0598802 C202.816585,91.4080954 201.259723,87.6617259 201.395422,83.7844311 C201.280531,79.9316493 202.835666,76.2153413 205.665542,73.5801198 C208.482954,70.9266261 212.242039,69.488826 216.122169,69.5805988 C219.293322,69.5274775 222.392415,70.5228129 224.932771,72.4102994 C227.431975,74.2308424 229.187822,76.8853194 229.878795,79.8876647 L221.855422,81.8320958 C221.604719,80.4326977 220.867314,79.1653536 219.772048,78.251497 C218.735608,77.4364764 217.443135,77.0110308 216.122169,77.0500599 C214.360895,76.980122 212.655505,77.6720314 211.446506,78.9470659 C209.082067,81.7497291 209.082067,85.8349415 211.446506,88.6376048 C212.662748,89.8995494 214.365492,90.5817496 216.122169,90.5108982 C219.127952,90.531976 221.078795,88.9748503 221.974699,85.839521 Z" id="Path"></path>
                <path d="M255.833494,73.6591617 C258.679246,76.2527202 260.249421,79.9483767 260.135422,83.7844311 C260.268542,87.6469644 258.697098,91.3744817 255.833494,93.9887425 C252.994846,96.6134344 249.236765,98.0316489 245.360964,97.9408383 C241.440499,98.042947 237.633711,96.6257214 234.745301,93.9887425 C231.869296,91.3813329 230.288153,87.6514946 230.419518,83.7844311 C230.299214,79.9354603 231.879862,76.2270067 234.745301,73.6354491 C237.633711,70.9984702 241.440499,69.5812446 245.360964,69.6833533 C249.240085,69.5989503 252.998603,71.0258402 255.833494,73.6591617 L255.833494,73.6591617 Z M249.925301,88.8035928 C252.521584,85.9732633 252.521584,81.6430242 249.925301,78.8126946 C248.749093,77.5706516 247.108806,76.8669775 245.392771,76.8682635 C243.630176,76.8546283 241.938404,77.5569775 240.709157,78.8126946 C238.074768,81.6282401 238.074768,85.9880473 240.709157,88.8035928 C241.939534,90.07295 243.643494,90.7796356 245.416627,90.7559281 C247.126155,90.7514525 248.75782,90.0449126 249.925301,88.8035928 Z" id="Shape"></path>
                <path d="M290.240964,94.5499401 C290.240964,98.5705389 288.852048,101.713772 286.074217,103.979641 C283.296386,106.245509 279.649157,107.375808 275.13253,107.370557 C268.712771,107.370557 264.206747,105.215329 261.614458,100.90491 L268.771084,97.0555689 C269.570071,98.0984356 270.563573,98.978646 271.697349,99.6481437 C272.758254,100.161358 273.929523,100.408322 275.108675,100.367425 C276.892284,100.447722 278.637415,99.8354814 279.975181,98.6601198 C281.25906,97.3974342 281.934082,95.6465515 281.827952,93.8543713 L281.827952,93.1034731 C279.802892,94.7949701 277.086024,95.6407186 273.677349,95.6407186 C270.224753,95.6918782 266.903158,94.3283171 264.493012,91.8704192 C261.964485,89.4092772 260.581456,86.0125048 260.676145,82.4960479 C260.592982,79.0280319 261.977693,75.6844812 264.493012,73.2797605 C266.92024,70.8544814 270.236238,69.5160479 273.677349,69.5726946 C277.086024,69.5726946 279.792289,70.4263473 281.796145,72.1336527 L281.796145,70.4026347 L290.240964,70.4026347 L290.240964,94.5499401 Z M279.967229,86.9461078 C281.178872,85.8005033 281.84375,84.1971107 281.796145,82.5355689 C281.836927,80.8914339 281.171874,79.3077374 279.967229,78.1803593 C278.772351,77.0345203 277.166107,76.4112386 275.506265,76.4493413 C273.791154,76.3797945 272.119212,76.9944812 270.86241,78.1566467 C269.661117,79.2943645 269.004576,80.8870777 269.057349,82.5355689 C269.009744,84.1971107 269.674622,85.8005033 270.886265,86.9461078 C272.132865,88.1117191 273.795793,88.7347835 275.506265,88.6771257 C277.166107,88.7152285 278.772351,88.0919468 279.967229,86.9461078 L279.967229,86.9461078 Z" id="Shape"></path>
                <path d="M320.815663,85.9976048 L301.039518,85.9976048 C301.314238,87.4507191 302.046622,88.7793854 303.130843,89.7916168 C304.143134,90.7119648 305.472749,91.2100611 306.844337,91.1827545 C309.532048,91.1827545 311.440482,90.1473054 312.593494,88.0843114 L320.219277,89.6651497 C319.223918,92.2620373 317.403698,94.4654127 315.034699,95.9410778 C312.557122,97.3927162 309.719367,98.1239236 306.844337,98.051497 C303.077733,98.1392788 299.434451,96.7146265 296.73759,94.0994012 C293.957391,91.4109725 292.454661,87.6766426 292.602651,83.8239521 C292.47906,79.9964033 293.979551,76.2934524 296.73759,73.6196407 C299.439748,70.9774624 303.102622,69.5347721 306.892048,69.6201198 C310.567849,69.5250188 314.122477,70.930358 316.728434,73.508982 C319.379036,76.1120958 320.741446,79.5372455 320.815663,83.7844311 L320.815663,85.9976048 Z M303.401205,77.6665868 C302.328802,78.415321 301.550454,79.510214 301.198554,80.7650299 L312.331084,80.7650299 C312.030279,79.5112747 311.309655,78.3963971 310.28747,77.6033533 C309.305928,76.8893275 308.116116,76.5145322 306.9,76.5362874 C305.643562,76.5403534 304.419982,76.9356354 303.401205,77.6665868 L303.401205,77.6665868 Z" id="Shape"></path>
                <path d="M407.96747,0 C381.123569,-0.00319692793 356.921253,16.0683118 346.647051,40.7197244 C336.37285,65.371137 342.050319,93.7472313 361.031823,112.615074 C380.013328,131.482916 408.560362,137.126389 433.360277,126.913709 C458.160192,116.70103 474.328517,92.6436377 474.325301,65.960479 C474.325301,48.4666723 467.33405,31.6893664 454.889542,19.319377 C442.445035,6.94938766 425.566661,0 407.96747,0 Z M362.363855,50.0888623 L366.339759,45.1329341 C366.45397,44.9891167 366.633199,44.9119156 366.816867,44.9274251 L374.323373,44.9274251 C374.633494,44.9274251 374.39494,45.1329341 374.39494,45.1329341 L367.723373,50.1837126 C367.553231,50.314739 367.342047,50.3819132 367.126988,50.3734132 L362.435422,50.3734132 C362.117349,50.3734132 362.363855,50.0888623 362.363855,50.0888623 Z M373.146506,78.1961677 C370.79523,79.6329614 368.072827,80.355504 365.313976,80.2749701 C363.358956,80.3019651 361.416421,79.9613752 359.588675,79.2711377 C357.934637,78.6313581 356.443735,77.6352765 355.223133,76.354491 C354.009517,75.0617022 353.073398,73.5368421 352.471807,71.8728144 C351.814233,70.0557108 351.488396,68.1364829 351.509639,66.205509 C351.493054,64.2985979 351.827218,62.4047294 352.495663,60.6172455 C353.125945,58.9420273 354.088636,57.409871 355.326506,56.1118563 C356.563488,54.8271919 358.051847,53.8077185 359.7,53.1161677 C361.476085,52.3731291 363.387141,52.0018167 365.313976,52.0253892 C367.404799,51.979535 369.475673,52.4378776 371.349398,53.3611976 C373.017866,54.2012625 374.466324,55.4164189 375.579759,56.9101796 C376.698435,58.4348333 377.508611,60.1609129 377.965301,61.9925749 C378.34047,63.4786029 378.527459,65.0053885 378.522047,66.537485 C378.522047,66.9801198 378.522047,67.4306587 378.474217,67.8811976 L378.474217,68.1262275 C378.474217,68.1262275 378.474217,68.4582036 378.164096,68.4582036 L359.87494,68.4582036 C359.933208,69.1871454 360.08006,69.9063921 360.312289,70.6002395 C360.527924,71.2666327 360.898405,71.8731835 361.393735,72.3707784 C361.877606,72.8384392 362.466286,73.1851975 363.111325,73.382515 C363.904885,73.6355529 364.735231,73.7557529 365.568434,73.7382036 C366.75646,73.7761375 367.926776,73.4445532 368.916145,72.7897006 C369.333246,72.5155412 369.710504,72.1857551 370.037349,71.8095808 C370.278983,71.5394082 370.46053,71.2215836 370.57012,70.8768862 L370.633735,70.6476647 C370.633735,70.6476647 370.633735,70.4421557 371.031325,70.4421557 L377.981205,70.4421557 C378.275422,70.4421557 378.18,70.6871856 378.18,70.6871856 L377.989157,71.240479 C377.542271,72.7008518 376.877525,74.0863276 376.017108,75.3506587 C375.261038,76.4802178 374.284963,77.4477604 373.146506,78.1961677 Z M404.26988,79.6821868 L395.141205,79.6821868 C394.935184,79.6621147 394.750153,79.5482576 394.640241,79.3738922 L389.821446,72.1415569 L384.986747,79.3817964 C384.890422,79.5681073 384.696507,79.6843715 384.485783,79.6821868 L375.492289,79.6821868 C375.174217,79.6821868 375.349157,79.4213174 375.349157,79.4213174 L384.931084,65.4941317 L376.708916,53.748503 L376.120482,52.8237126 C376.120482,52.8237126 375.985301,52.6498204 376.247711,52.6498204 L385.463855,52.6498204 C385.62814,52.6467808 385.785303,52.7163897 385.893253,52.839521 L389.940723,58.8071856 L393.964337,52.8158084 C394.044685,52.6959499 394.18638,52.63165 394.33012,52.6498204 L403.291807,52.6498204 C403.601928,52.6498204 403.490602,52.8079042 403.490602,52.8079042 L394.600482,65.3518563 L404.413012,79.3976048 C404.413012,79.3976048 404.611807,79.6821868 404.26988,79.6821868 Z M410.559759,91.1669461 C408.507097,91.1669461 406.656703,89.9374297 405.871928,88.0520662 C405.087153,86.1667027 405.522659,83.9970538 406.975248,82.5554256 C408.427838,81.1137975 410.611237,80.6843038 412.506725,81.467336 C414.402213,82.2503682 415.636229,84.0916076 415.633018,86.131976 C415.628625,88.9139913 413.358537,91.1669461 410.559759,91.1669461 L410.559759,91.1669461 Z M414.535663,79.3106587 C414.535663,79.3106587 414.535663,79.6505389 414.225542,79.6505389 L406.893976,79.6505389 C406.615663,79.6505389 406.583855,79.3264671 406.583855,79.3264671 L405.096867,52.8553293 C405.096867,52.8553293 405.041205,52.6102994 405.399036,52.6102994 L415.736386,52.6102994 C416.006747,52.6102994 415.99882,52.9106587 415.99882,52.9106587 L414.535663,79.3106587 Z M435.759036,58.3882635 C435.767931,58.4680119 435.744356,58.5479827 435.693567,58.6103465 C435.642778,58.6727103 435.568997,58.7122821 435.488675,58.7202395 L430.566506,58.7202395 L430.566506,70.7504192 C430.555121,71.1943351 430.600545,71.6378894 430.701687,72.0704192 C430.731715,72.2829675 430.825999,72.481432 430.972048,72.639521 C431.134177,72.7861568 431.335991,72.8823375 431.55253,72.9161677 C431.988242,73.0132191 432.434034,73.0583274 432.880482,73.0505389 C433.262169,73.0505389 433.627952,73.0505389 433.96988,73.0031138 C434.311807,72.9556886 434.637831,72.9161677 434.947952,72.8608383 L435.488675,72.7501796 C435.488675,72.7501796 435.759036,72.639521 435.759036,72.971497 L435.759036,79.2948503 C435.759036,79.6268263 435.496627,79.6347305 435.496627,79.6347305 L435.194458,79.6821557 C434.505037,79.7927946 433.809114,79.8588018 433.111084,79.8797605 C432.363614,79.8797605 431.64,79.9352399 430.940241,79.9352399 C429.856906,79.9391739 428.774879,79.8598952 427.703855,79.6979641 C426.708121,79.5637224 425.747315,79.2417944 424.873012,78.7494611 C424.001038,78.263396 423.2845,77.5429308 422.805542,76.6706587 C422.28096,75.5989665 422.02972,74.4154346 422.073976,73.2244311 L422.073976,58.7202395 L418.04241,58.7202395 C417.740241,58.7202395 417.78,58.411976 417.78,58.411976 L417.78,52.8790419 C417.78,52.8790419 417.732289,52.6419162 418.09012,52.6419162 L422.066024,52.6419162 L422.066024,45.2356886 C422.056382,45.1562784 422.082826,45.0767256 422.138168,45.0186592 C422.19351,44.9605927 422.271996,44.9300479 422.352289,44.9353293 L430.240482,44.9353293 C430.320724,44.934742 430.397399,44.9682639 430.451826,45.0268733 C430.506253,45.0854828 430.533434,45.1641082 430.526747,45.2435928 L430.526747,52.6498204 L435.433012,52.6498204 C435.507223,52.6404686 435.581815,52.6640495 435.636958,52.7142947 C435.692101,52.7645398 435.722209,52.8363584 435.719277,52.9106587 L435.759036,58.3882635 Z M463.335904,72.0071856 C462.714507,73.6829133 461.741377,75.2079647 460.481205,76.4809581 C459.224053,77.7511746 457.701032,78.730758 456.020241,79.3501796 C454.175004,80.0363056 452.217144,80.3740649 450.247229,80.3461078 C448.287594,80.3749673 446.339989,80.0371157 444.506024,79.3501796 C442.834351,78.7265322 441.319986,77.7472799 440.068916,76.4809581 C438.811399,75.2058697 437.838652,73.6814181 437.214217,72.0071856 C436.532449,70.1492219 436.198277,68.1829827 436.228193,66.205509 C436.198496,64.2177469 436.532603,62.2411778 437.214217,60.3722156 C438.449127,56.9672776 441.109409,54.262368 444.506024,52.9580838 C448.225108,51.5992546 452.309109,51.5992546 456.028193,52.9580838 C459.435304,54.2459739 462.107138,56.9479982 463.343855,60.3564072 C464.023938,62.2259809 464.360611,64.2017912 464.337831,66.1897006 C464.360505,68.1731318 464.021034,70.1442019 463.335904,72.0071856 L463.335904,72.0071856 Z M469.267952,58.1511377 C468.505724,58.5889018 467.599656,58.7074199 466.749443,58.4805713 C465.89923,58.2537227 465.174659,57.7001278 464.735422,56.9417964 C464.141672,55.9195501 464.141672,54.6600906 464.735422,53.6378443 C465.027988,53.1281048 465.45751,52.7093661 465.975904,52.428503 C467.001406,51.8380855 468.266304,51.8380855 469.291807,52.428503 C469.806653,52.7086427 470.23121,53.1279177 470.516386,53.6378443 C471.110135,54.6600906 471.110135,55.9195501 470.516386,56.9417964 C470.224768,57.4549963 469.791596,57.8746047 469.267952,58.1511377 Z" id="Shape"></path>
                <path d="M467.916145,54.2701796 C467.766781,54.1692384 467.587297,54.1218484 467.407229,54.1358084 L466.993735,54.1358084 L466.993735,55.028982 L467.36747,55.028982 C467.56014,55.0440086 467.752549,54.9968872 467.916145,54.8946108 C468.016428,54.8208852 468.0731,54.70229 468.067229,54.5784431 C468.070441,54.4573492 468.014055,54.3423037 467.916145,54.2701796 L467.916145,54.2701796 Z" id="Path"></path>
                <path d="M454.644578,60.8622754 C454.205441,60.2080939 453.616896,59.6664084 452.926988,59.2814371 C452.104626,58.8431275 451.179702,58.6303319 450.247229,58.6649102 C448.504487,58.5522988 446.839109,59.3951609 445.905542,60.8622754 C445.453902,61.5911909 445.13619,62.394096 444.967229,63.2335329 C444.775986,64.1914231 444.680101,65.1657049 444.680943,66.1422754 C444.679311,67.1031915 444.775219,68.0618206 444.967229,69.0035928 C445.138267,69.8573071 445.455659,70.6754461 445.905542,71.4222754 C446.325938,72.0931918 446.904579,72.6520898 447.591325,73.0505389 C448.408795,73.4775253 449.324379,73.6846143 450.247229,73.6512575 C451.181019,73.6829597 452.107105,73.4732508 452.93494,73.0426347 C453.627746,72.6645767 454.215218,72.1213634 454.644578,71.4617964 C455.099175,70.7172608 455.416896,69.8982738 455.582892,69.0431138 C455.774901,68.1013416 455.870809,67.1427125 455.869178,66.1817964 C455.870019,65.2052259 455.774135,64.230944 455.582892,63.2730539 C455.42208,62.418899 455.103975,61.6016039 454.644578,60.8622754 L454.644578,60.8622754 Z" id="Path"></path>
                <path d="M368.526506,59.7556886 C368.159314,59.3525367 367.693713,59.0503473 367.174699,58.8783234 C366.513542,58.647448 365.81575,58.537648 365.115181,58.5542515 C364.239098,58.525642 363.368224,58.6987738 362.570602,59.0601198 C361.956914,59.3623434 361.414825,59.790723 360.980241,60.3168862 C360.599769,60.7851477 360.313592,61.3218698 360.137349,61.8977246 C360.04988,62.2217964 359.970361,62.5221557 359.922651,62.8067066 L369.99759,62.8067066 C369.772118,61.6832559 369.266269,60.6341291 368.526506,59.7556886 L368.526506,59.7556886 Z" id="Path"></path>
                <path d="M467.613976,52.6182036 C466.898205,52.6112869 466.211032,52.8970853 465.713494,53.4086228 C465.20078,53.9077266 464.913818,54.5923112 464.918261,55.3056287 C464.918318,56.3869151 465.574021,57.3615799 466.579327,57.774628 C467.584632,58.1876761 468.741286,57.9576514 469.509336,57.1919346 C470.277387,56.4262178 470.505369,55.2758138 470.086856,54.2777565 C469.668342,53.2796992 468.685868,52.6308129 467.598072,52.634012 L467.613976,52.6182036 Z M468.130843,57.0603593 C467.932743,56.6412707 467.704186,56.2370868 467.446988,55.851018 C467.365379,55.7370911 467.237342,55.6647786 467.097108,55.6534132 L466.993735,55.6534132 L466.993735,57.0445509 L466.103133,57.0445509 L466.103133,53.5192814 L467.693494,53.5192814 C468.042522,53.4901273 468.390268,53.5884868 468.671566,53.7959281 C469.044916,54.1532941 469.076187,54.7369767 468.743133,55.1317365 C468.548106,55.330747 468.29488,55.4635167 468.019518,55.5111377 C468.125341,55.5535797 468.226578,55.6065434 468.321687,55.6692216 C468.426572,55.7807658 468.51982,55.9025853 468.6,56.0328144 L469.17253,57.0603593 L468.130843,57.0603593 Z" id="Shape"></path>
            </g>
        </g>
    </g>
</svg>