<?xml version="1.0" encoding="UTF-8"?>
<svg width="15px" height="15px" viewBox="0 0 15 15" version="1.1" xmlns="http://www.w3.org/2000/svg" xmlns:xlink="http://www.w3.org/1999/xlink">
    <!-- Generator: Sketch 64 (93537) - https://sketch.com -->
    <title>icon-01</title>
    <desc>Created with Sketch.</desc>
    <g id="icon-01" stroke="none" stroke-width="1" fill="none" fill-rule="evenodd">
        <g id="Group-18">
            <g id="Group-8" transform="translate(2.000000, 1.000000)" fill="#C3C3C3" fill-rule="nonzero">
                <path d="M10.1951752,2.43416797 C9.13833185,0.887332031 7.46339451,0 5.60016292,0 C3.73693134,0 2.061994,0.887332031 1.00515064,2.43416797 C-0.0465013871,3.97318359 -0.289331746,5.92161719 0.354286321,7.64304297 C0.526438743,8.11313672 0.800092686,8.56985938 1.16570365,8.99784375 L5.23165886,13.8276797 C5.32361589,13.937 5.4583474,14 5.60016292,14 C5.74197845,14 5.87670996,13.9370273 5.96866698,13.8276797 L10.0334866,8.99915625 C10.4007198,8.56871094 10.6740223,8.11248047 10.8447417,7.64616016 C11.4896576,5.92161719 11.2468272,3.97318359 10.1951752,2.43416797 Z M9.93831201,7.30332422 C9.80666286,7.66311328 9.59173595,8.01882812 9.29985824,8.36098047 C9.2990471,8.36180078 9.29823595,8.36262109 9.29758703,8.36360547 L5.60016292,12.7555039 L1.9004676,8.36084375 C1.60875212,8.01899219 1.39382522,7.66330469 1.26087823,7.30007031 C0.728603601,5.87641797 0.93060623,4.26543359 1.80139952,2.99091406 C2.67492367,1.71232031 4.05960559,0.979015625 5.60016292,0.979015625 C7.14069321,0.979015625 8.5252129,1.71229297 9.39876409,2.99091406 C10.2697196,4.26543359 10.4718845,5.87641797 9.93831201,7.30332422 Z" id="Shape"></path>
                <path d="M5.6,2.8 C4.05616247,2.8 2.8,4.05599489 2.8,5.6 C2.8,7.14400511 4.05599489,8.4 5.6,8.4 C7.14400511,8.4 8.4,7.14400511 8.4,5.6 C8.4,4.05616247 7.14383753,2.8 5.6,2.8 Z M5.6,7.39998005 C4.60749312,7.39998005 3.79999202,6.59247895 3.79999202,5.59997207 C3.79999202,4.60746519 4.60749312,3.79996409 5.6,3.79996409 C6.59250688,3.79996409 7.40000798,4.60746519 7.40000798,5.59997207 C7.40000798,6.59247895 6.59250688,7.39998005 5.6,7.39998005 Z" id="Shape"></path>
            </g>
            <rect id="Rectangle" fill-opacity="0" fill="#FFFFFF" x="0" y="0" width="15" height="15"></rect>
        </g>
    </g>
</svg>