<?xml version="1.0" encoding="UTF-8"?>
<svg width="15px" height="15px" viewBox="0 0 15 15" version="1.1" xmlns="http://www.w3.org/2000/svg" xmlns:xlink="http://www.w3.org/1999/xlink">
    <!-- Generator: Sketch 64 (93537) - https://sketch.com -->
    <title>icon-04</title>
    <desc>Created with Sketch.</desc>
    <g id="icon-04" stroke="none" stroke-width="1" fill="none" fill-rule="evenodd">
        <g id="Group-21">
            <g id="Group-13" transform="translate(1.000000, 1.000000)" fill="#C3C3C3" fill-rule="nonzero">
                <path d="M11.5,10 C10.6728853,10 10,10.6729088 10,11.5 C10,12.3270912 10.6729088,13 11.5,13 C12.3270912,13 13,12.3270912 13,11.5 C13,10.6729088 12.3270912,10 11.5,10 Z M11.5,12.1 C11.1691024,12.1 10.9,11.8308976 10.9,11.5 C10.9,11.1691024 11.1691024,10.9 11.5,10.9 C11.8308976,10.9 12.1,11.1691024 12.1,11.5 C12.1,11.8308976 11.8308976,12.1 11.5,12.1 Z" id="Shape"></path>
                <path d="M13.888714,2.70389347 C13.789565,2.57063692 13.6375055,2.4929111 13.4763951,2.4929111 L3.23259794,2.4929111 L2.76127083,0.422137005 C2.70488767,0.174689263 2.49417544,0 2.25188099,0 L0.52369071,0 C0.234446749,0 0,0.246155662 0,0.549880682 C0,0.853605702 0.234446749,1.09979008 0.52369071,1.09979008 L1.83852299,1.09979008 L3.54051779,8.57786299 C3.59690095,8.82551173 3.80761318,9 4.04990763,9 L12.2020865,9 C12.4428224,9 12.6526322,8.82769391 12.7104099,8.58242835 L13.9847459,3.17495725 C14.0233008,3.01074819 13.9878631,2.83715002 13.888714,2.70389347 Z M11.7923652,7.90020992 L4.46326564,7.90020992 L3.48290416,3.59272989 L12.8072621,3.59272989 L11.7923652,7.90020992 Z" id="Shape"></path>
                <path d="M4.5,10 C3.67288534,10 3,10.6729088 3,11.5 C3,12.3270912 3.67290883,13 4.5,13 C5.32709117,13 6,12.3270912 6,11.5 C6,10.6729088 5.32709117,10 4.5,10 Z M4.5,12.1 C4.16910244,12.1 3.9,11.8308976 3.9,11.5 C3.9,11.1691024 4.16910244,10.9 4.5,10.9 C4.83089756,10.9 5.1,11.1691024 5.1,11.5 C5.1,11.8308976 4.83089756,12.1 4.5,12.1 Z" id="Shape"></path>
            </g>
            <rect id="Rectangle-Copy-30" fill-opacity="0" fill="#FFFFFF" x="0" y="0" width="15" height="15"></rect>
        </g>
    </g>
</svg>