<?xml version="1.0" encoding="UTF-8"?>
<svg width="15px" height="15px" viewBox="0 0 15 15" version="1.1" xmlns="http://www.w3.org/2000/svg" xmlns:xlink="http://www.w3.org/1999/xlink">
    <!-- Generator: Sketch 64 (93537) - https://sketch.com -->
    <title>icon-02</title>
    <desc>Created with Sketch.</desc>
    <g id="icon-02" stroke="none" stroke-width="1" fill="none" fill-rule="evenodd">
        <g id="Group-19">
            <g id="Group-7" fill="#C3C3C3" fill-rule="nonzero">
                <path d="M11.3644791,9.24445565 C11.0698198,8.92204301 10.7144059,8.74966398 10.337728,8.74966398 C9.96408778,8.74966398 9.6056362,8.91885081 9.29882595,9.24126344 L8.33890476,10.2468078 C8.2599239,10.2021169 8.18094305,10.1606183 8.10499992,10.1191196 C7.99564181,10.0616599 7.89235915,10.0073925 7.80426511,9.9499328 C6.90509843,9.34979839 6.08795034,8.56770833 5.30421721,7.55577957 C4.92450156,7.05141129 4.66933263,6.62684812 4.48403139,6.19590054 C4.73312486,5.95648522 4.96399198,5.70749328 5.18878365,5.46807796 C5.27383996,5.37869624 5.35889627,5.28612231 5.44395258,5.19674059 C6.08187488,4.52637769 6.08187488,3.65809812 5.44395258,2.98773522 L4.61465358,2.11626344 C4.52048409,2.01730511 4.42327689,1.91515457 4.33214513,1.81300403 C4.14988161,1.61508737 3.95850492,1.41078629 3.76105278,1.21925403 C3.46639342,0.912802419 3.11401729,0.75 2.74341481,0.75 C2.37281233,0.75 2.01436074,0.912802419 1.71058822,1.21925403 C1.70755049,1.22244624 1.70755049,1.22244624 1.70451277,1.22563844 L0.671686174,2.32056452 C0.282857339,2.72916667 0.0611033945,3.22715054 0.0124997902,3.80493952 C-0.0604056164,4.73706317 0.200838757,5.60534274 0.401328625,6.17355511 C0.893440119,7.56854839 1.62856964,8.86139113 2.72518846,10.2468078 C4.05571213,11.9163306 5.65659335,13.234711 7.48530396,14.1636425 C8.18398077,14.5115927 9.11656243,14.9233871 10.1585022,14.9936156 C10.2222944,14.9968078 10.2891244,15 10.3498789,15 C11.0515934,15 11.6409121,14.735047 12.1026464,14.2083333 C12.1056841,14.2019489 12.1117596,14.1987567 12.1147973,14.1923723 C12.272759,13.9912634 12.4550225,13.8093078 12.6463992,13.6145833 C12.7770214,13.483703 12.9106813,13.3464382 13.0413035,13.202789 C13.3420383,12.8739919 13.5,12.4909274 13.5,12.0982863 C13.5,11.702453 13.3390006,11.3225806 13.0321903,11.0033602 L11.3644791,9.24445565 Z M12.4519848,12.6058468 C12.4489471,12.6058468 12.4489471,12.609039 12.4519848,12.6058468 C12.3335135,12.7399194 12.2120045,12.8612231 12.0813823,12.9952957 C11.8839302,13.1932124 11.6834403,13.4007056 11.4951013,13.6337366 C11.1882911,13.9784946 10.8268018,14.141297 10.3529166,14.141297 C10.3073507,14.141297 10.2587471,14.141297 10.2131813,14.1381048 C9.31097685,14.077453 8.47256467,13.7071573 7.84375554,13.391129 C6.12440304,12.5164651 4.61465358,11.2746976 3.36007304,9.70094086 C2.32420872,8.38894489 1.63160736,7.17590726 1.17291084,5.8734879 C0.890402394,5.07862903 0.787119735,4.4593414 0.832685614,3.87516801 C0.863062866,3.50168011 0.999760504,3.19203629 1.2518917,2.92708333 L2.28775602,1.83854167 C2.43660456,1.69170027 2.59456627,1.61189516 2.74949026,1.61189516 C2.94086695,1.61189516 3.09579094,1.73319892 3.19299815,1.83534946 C3.19603588,1.83854167 3.1990736,1.84173387 3.20211133,1.84492608 C3.38741257,2.02688172 3.56360063,2.21522177 3.74890188,2.41633065 C3.84307136,2.51848118 3.94027857,2.62063172 4.03748578,2.72597446 L4.86678478,3.59744624 C5.18878365,3.93581989 5.18878365,4.24865591 4.86678478,4.58702957 C4.77869074,4.67960349 4.69363444,4.77217742 4.6055404,4.86155914 C4.35037148,5.13608871 4.10735346,5.39146505 3.84307136,5.64045699 C3.83699591,5.6468414 3.83092046,5.6500336 3.82788273,5.65641801 C3.56663836,5.93094758 3.61524196,6.19909274 3.66992102,6.38104839 C3.67295874,6.390625 3.67599647,6.40020161 3.67903419,6.40977823 C3.89471269,6.95883737 4.19848522,7.47597446 4.66021946,8.09206989 L4.66325718,8.0952621 C5.50166936,9.18061156 6.38564741,10.0265457 7.36075722,10.6745632 C7.48530396,10.7575605 7.61288842,10.8245968 7.73439743,10.8884409 C7.84375554,10.9459005 7.9470382,11.000168 8.03513223,11.0576277 C8.04728314,11.0640121 8.05943404,11.0735887 8.07158494,11.0799731 C8.1748676,11.1342406 8.27207481,11.1597782 8.37231974,11.1597782 C8.62445094,11.1597782 8.78241265,10.9937836 8.83405398,10.9395161 L9.87295602,9.84778226 C9.97623868,9.73924731 10.1402758,9.60836694 10.3316525,9.60836694 C10.5199915,9.60836694 10.6749155,9.7328629 10.769085,9.84139785 C10.7721227,9.84459005 10.7721227,9.84459005 10.7751604,9.84778226 L12.4489471,11.6066868 C12.7618328,11.9322917 12.7618328,12.2674731 12.4519848,12.6058468 Z" id="Shape"></path>
                <path d="M7.85019277,3.09404467 C8.6758643,3.23271883 9.42590179,3.62352785 10.0246712,4.22234812 C10.6234406,4.82116839 11.0110651,5.57126957 11.1528789,6.39701121 C11.1875445,6.60502246 11.3671753,6.75 11.5720175,6.75 C11.5972288,6.75 11.6192887,6.74684831 11.6445001,6.74369663 C11.877705,6.7058764 12.0321245,6.48525841 11.9943075,6.25203367 C11.8241309,5.25294932 11.3514182,4.34211218 10.6297435,3.62037617 C9.90806875,2.89864016 8.99730894,2.42588731 7.99830942,2.25569629 C7.76510449,2.21787606 7.54765664,2.37230866 7.50668821,2.60238171 C7.46571977,2.83245476 7.61698784,3.05622444 7.85019277,3.09404467 Z" id="Path"></path>
                <path d="M14.9938169,6.9790874 C14.7264443,5.23603368 13.9874145,3.64992158 12.8518319,2.38771027 C11.7162494,1.12549896 10.2892608,0.304059853 8.72107548,0.0068725339 C8.50176986,-0.0365368498 8.29448099,0.130422318 8.25542657,0.374182704 C8.21937633,0.621282273 8.36658147,0.851685925 8.58889127,0.895095308 C9.98884219,1.15889079 11.2656215,1.89685032 12.2810365,3.02215511 C13.2964516,4.15079909 13.9573726,5.56995202 14.1947033,7.12601146 C14.2277494,7.34639757 14.398988,7.5 14.5942601,7.5 C14.6182936,7.5 14.6393229,7.49666082 14.6633564,7.49332163 C14.882662,7.45659062 15.0328714,7.22284778 14.9938169,6.9790874 Z" id="Path"></path>
            </g>
            <rect id="Rectangle-Copy-19" fill-opacity="0" fill="#FFFFFF" x="0" y="0" width="15" height="15"></rect>
        </g>
    </g>
</svg>