<?xml version="1.0" encoding="UTF-8"?>
<svg width="72px" height="64px" viewBox="0 0 72 64" version="1.1" xmlns="http://www.w3.org/2000/svg" xmlns:xlink="http://www.w3.org/1999/xlink">
    <!-- Generator: Sketch 64 (93537) - https://sketch.com -->
    <title>img-06</title>
    <desc>Created with Sketch.</desc>
    <g id="Welcome" stroke="none" stroke-width="1" fill="none" fill-rule="evenodd">
        <g id="HOME---Servicios---Compra-y-Recoge---Desktop-HD" transform="translate(-198.000000, -913.000000)" fill="#0094BF" fill-rule="nonzero">
            <g id="img-06" transform="translate(198.000000, 913.000000)">
                <path d="M37.116696,25.8626302 C36.9582255,25.8300782 36.7956387,25.8242187 36.6351102,25.8470052 C35.0263943,25.6692708 33.8128257,24.3776042 33.8100815,22.8411458 C33.8100815,22.1048177 33.1810016,21.5078125 32.4051134,21.5078125 C31.6292253,21.5078125 31.0001453,22.1048177 31.0001453,22.8411458 C31.0042615,25.406901 32.8126091,27.6542968 35.4194835,28.3333333 L35.4194835,29.6666667 C35.4194835,30.4029948 36.0485634,31 36.8244516,31 C37.6003398,31 38.2294197,30.4029948 38.2294197,29.6666667 L38.2294197,28.4140625 C41.2383017,27.8164063 43.283326,25.156901 42.9670711,22.2552083 C42.6501299,19.3535157 40.0741263,17.1484375 37.0000726,17.1477865 C35.2383743,17.1477865 33.8100815,15.7923177 33.8100815,14.1204427 C33.8100815,12.4485677 35.2383743,11.093099 37.0000726,11.093099 C38.7617709,11.093099 40.1900638,12.4485677 40.1900638,14.1204427 C40.1900638,14.8567708 40.8191437,15.453776 41.5950319,15.453776 C42.3709199,15.453776 43,14.8567708 43,14.1204427 C42.9958838,11.4264323 41.007113,9.10286467 38.2294197,8.546875 L38.2294197,7.33333333 C38.2294197,6.59700517 37.6003398,6 36.8244516,6 C36.0485634,6 35.4194835,6.59700517 35.4194835,7.33333333 L35.4194835,8.62825517 C32.5203647,9.37955733 30.6543914,12.0507813 31.0536549,14.8776042 C31.4529184,17.704427 33.9946209,19.8144532 37.0000726,19.813802 C38.7384462,19.813802 40.1564487,21.1347657 40.1880057,22.7838542 C40.2202485,24.4329427 38.8536975,25.8027343 37.116696,25.8626302 L37.116696,25.8626302 Z" id="Path"></path>
                <path d="M18,19.5 C18,30.2697151 26.5064314,39 37,39 C47.4935686,39 56,30.2697151 56,19.5 C56,8.73028491 47.4935686,0 37,0 C26.5115496,0.0118188937 18.0121557,8.73553778 18,19.5 Z M37,2.68947405 C46.0464004,2.68947405 53.3794868,10.2155364 53.3794868,19.5 C53.3794868,28.7844636 46.0464004,36.3105259 37,36.3105259 C27.9535996,36.3105259 20.6205132,28.7844636 20.6205132,19.5 C20.6307495,10.2201327 27.9580781,2.69997981 37,2.68947405 Z" id="Shape"></path>
                <path d="M62.884173,42.3333482 L52.383463,47.2877409 C50.9336672,44.594852 48.1525468,42.8810765 45.0919397,42.7947995 L35.3982717,42.5287788 C33.8633864,42.4849866 32.3573007,42.0967399 30.9925945,41.3927979 L30.0062099,40.8823256 C24.9558155,38.2534907 18.9360543,38.2600269 13.890896,40.8993194 L13.9524224,38.667882 C13.972713,37.9286447 13.389522,37.3129404 12.6492425,37.2926785 L2.01958916,37.0005131 C1.27930986,36.980251 0.663392006,37.562621 0.64310137,38.3018582 L0.000488474293,61.5953471 C-0.0192881935,62.3345844 0.563902639,62.9502885 1.30418211,62.9705506 L11.9338355,63.262716 L11.9704895,63.262716 C12.6970236,63.262716 13.2913418,62.685575 13.3109778,61.9607173 L13.341741,60.8463058 L16.1032255,59.3697922 C17.187136,58.7874222 18.4543163,58.6488561 19.6383706,58.9835064 L36.1287331,63.6052097 C36.1575326,63.6137066 36.1863322,63.6202428 36.2157864,63.6267789 C37.4076952,63.8758057 38.6225127,64.000646 39.8399484,64 C42.4188175,64.0012995 44.9675779,63.4463815 47.3114689,62.3718404 C47.369068,62.3456958 47.4247035,62.3149761 47.4777208,62.2803344 L71.387241,46.8367473 C71.9828682,46.4517688 72.1753015,45.6707003 71.8264342,45.0536888 C70.0513345,41.9084992 66.1143046,40.7104251 62.884173,42.3333482 L62.884173,42.3333482 Z M2.71797838,60.3312581 L3.28611502,39.7136641 L11.2354463,39.931971 L10.6673096,60.5502186 L2.71797838,60.3312581 Z M46.1038512,59.9809211 C43.1918236,61.2933777 39.9394377,61.6554796 36.8094498,61.016899 L20.3635958,56.4069608 C18.5125699,55.8847233 16.5312915,56.1010695 14.8380086,57.0102462 L13.4268305,57.7651702 L13.8044975,44.0569278 C18.2762827,41.0869066 24.011321,40.7816689 28.7737199,43.2595189 L29.7601046,43.7699913 C31.4841505,44.6589061 33.3855756,45.1491165 35.3249637,45.2053272 L45.0192862,45.4713481 C47.7421531,45.5497817 50.0546263,47.4857859 50.6070541,50.1499157 L36.1673507,49.7518649 C35.4270712,49.7316028 34.8111536,50.3146265 34.7902084,51.05321 C34.7699178,51.7924473 35.3537633,52.4081514 36.0933883,52.4284135 L52.0287048,52.8663348 L52.0660134,52.8663348 C52.791893,52.8656811 53.3855566,52.28854 53.4051926,51.5643361 C53.4215559,50.9826197 53.3783566,50.4002498 53.2755946,49.8276841 L64.045973,44.7458368 C64.0564456,44.7412615 64.0669181,44.7360326 64.0773907,44.7308037 C65.6050762,43.9588856 67.4521747,44.2170631 68.7088825,45.378535 L46.1038512,59.9809211 Z" id="Shape"></path>
            </g>
        </g>
    </g>
</svg>