<?xml version="1.0" encoding="UTF-8"?>
<svg width="68px" height="54px" viewBox="0 0 68 54" version="1.1" xmlns="http://www.w3.org/2000/svg" xmlns:xlink="http://www.w3.org/1999/xlink">
    <!-- Generator: Sketch 64 (93537) - https://sketch.com -->
    <title>img-04</title>
    <desc>Created with Sketch.</desc>
    <g id="Welcome" stroke="none" stroke-width="1" fill="none" fill-rule="evenodd">
        <g id="HOME---Servicios---Compra-y-Recoge---Desktop-HD" transform="translate(-761.000000, -690.000000)" fill="#FFEB00" fill-rule="nonzero">
            <g id="img-04" transform="translate(761.000000, 690.000000)">
                <path d="M19.5946031,37.6514479 L12.9100999,31.0130079 C11.6003012,29.7150458 9.86411381,29 8.01448234,29 L3.38456273,29 C2.62030798,29 2,29.6160454 2,30.3750483 C2,31.1340513 2.62030798,31.7499678 3.38456273,31.7499678 L8.01435254,31.7499678 C9.10531061,31.7499678 10.1769287,32.1899265 10.9494905,32.9571795 L15.271917,37.2499033 L3.38456273,37.2499033 C2.62030798,37.2499033 2,37.8659487 2,38.6249517 C2,39.3839546 2.62030798,40 3.38456273,40 L18.6142335,40 C19.1735361,40 19.6775445,39.6644557 19.8935295,39.1502467 C20.1095146,38.6360376 19.9904891,38.0447424 19.5946031,37.6514479 Z" id="Path"></path>
                <path d="M18.5834219,44.3750322 C17.8014219,44.3750322 17.1667109,44.9910704 17.1667109,45.7500645 L17.1667109,49.8750322 C17.1667109,50.6340263 16.5292109,51.2500645 15.75,51.2500645 L7.25,51.2500645 C6.47078906,51.2500645 5.83328906,50.6340263 5.83328906,49.8750322 L5.83328906,44.3750322 C5.83328906,43.6160382 5.19857813,43 4.41657812,43 C3.63457812,43 3,43.6160382 3,44.3750322 L3,49.8750322 C3,52.1493074 4.90678906,54 7.25,54 L15.75,54 C18.0932109,54 20,52.1493074 20,49.8750322 L20,45.7500645 C20,44.9910704 19.3654219,44.3750322 18.5834219,44.3750322 Z" id="Path"></path>
                <path d="M61.5712109,19.9787699 C57.6669219,17.9469077 48.9034219,17 34,17 C19.0965781,17 10.3332109,17.9469077 6.42878906,19.9787699 C1.9805,22.2896317 0,26.1505793 0,32.4999339 C0,38.6041071 1.40528906,43.9135541 1.46478906,44.1361461 C1.62907812,44.7533271 2.19007813,45.1817341 2.83328906,45.1817341 L15.249,45.1817341 L20.6152891,47.8505925 C20.8135781,47.9492728 21.0317891,48 21.25,48 L46.75,48 C46.9682109,48 47.1862891,47.9492728 47.3817891,47.8505925 L52.751,45.1817341 L65.1667109,45.1817341 C65.8099219,45.1817341 66.3709219,44.7533271 66.5352109,44.1361461 C66.5947109,43.9135541 68,38.6041071 68,32.4999339 C68,26.1505793 66.0195,22.2896317 61.5712109,19.9787699 Z M64.0475,42.3634682 L52.4195,42.3634682 C52.1985,42.3634682 51.9802891,42.4141954 51.7847891,42.5128757 L46.4155781,45.1817341 L21.5842891,45.1817341 L16.218,42.5128757 C16.0197109,42.4141954 15.8015,42.3634682 15.5832891,42.3634682 L3.95528906,42.3634682 C3.5615,40.568333 2.83328906,36.6904763 2.83328906,32.4998018 C2.83328906,27.193129 4.25557813,24.2876757 7.73778906,22.4754993 C11.1320781,20.711276 19.9665,19.8180017 34,19.8180017 C48.0335,19.8180017 56.8677891,20.7114081 60.2622109,22.4754993 C63.7444219,24.2875436 65.1667109,27.193129 65.1667109,32.4998018 C65.1667109,36.6904763 64.4385,40.568333 64.0475,42.3634682 Z" id="Shape"></path>
                <path d="M64.6152954,37.2499355 L52.7265931,37.2499355 L57.0467365,32.9572621 C57.8221036,32.190018 58.8911054,31.7500645 59.9850311,31.7500645 L64.6152954,31.7500645 C65.3796284,31.7500645 66,31.1340263 66,30.3750322 C66,29.6160382 65.3796284,29 64.6152954,29 L59.9850311,29 C58.1350803,29 56.398715,29.7150374 55.0889119,31.0129843 L48.4037236,37.6514754 C48.0105231,38.0447653 47.8913556,38.6359247 48.1046368,39.1502566 C48.3179179,39.6645886 48.8247039,40 49.3840639,40 L64.6152954,40 C65.3796284,40 66,39.3839618 66,38.6249678 C66,37.8658448 65.3796284,37.2499355 64.6152954,37.2499355 Z" id="Path"></path>
                <path d="M50.8662232,29.7920031 C50.6310197,29.3079582 50.1324575,29 49.582764,29 L18.417178,29 C17.8674845,29 17.3689223,29.3079582 17.1337188,29.7920031 C16.9014372,30.273212 16.9750129,30.8453002 17.3292126,31.2549658 L24.4122762,39.5049981 C24.6814786,39.8184993 25.0809659,40 25.5002416,40 L42.4997004,40 C42.9189762,40 43.3184634,39.8184993 43.5876658,39.5049981 L50.6707294,31.2549658 C51.0249291,30.8451713 51.0986377,30.273212 50.8662232,29.7920031 Z M41.8339326,37.2500322 L26.1632205,37.2500322 L21.4401599,31.7499678 L46.5568604,31.7499678 L41.8339326,37.2500322 Z" id="Shape"></path>
                <path d="M62.8833178,20.9903789 C61.261613,17.2298863 55.8352676,4.83578548 53.948511,3.21711872 C51.5972461,1.20170273 44.8626088,0 35.9249965,0 L33.0750229,0 C24.1374106,0 17.4027733,1.20170273 15.0515084,3.21428864 C13.1647518,4.8329554 7.73546735,17.2270562 6.11670159,20.9875489 C5.80609415,21.7178423 6.13660719,22.5630907 6.85775083,22.8792502 C7.57595539,23.1955445 8.41960529,22.8648303 8.73301822,22.1346716 C11.9506441,14.6626061 15.8866082,6.35957742 16.8983201,5.4079992 C17.9955325,4.46787604 22.6382121,2.87508423 33.0750229,2.87508423 L35.9249965,2.87508423 C46.3618074,2.87508423 51.0044869,4.46787604 52.0959547,5.40220429 C53.1134112,6.35957742 57.0492417,14.6596413 60.2670012,22.1346716 C60.5006581,22.6780456 61.027956,23 61.5751595,23 C61.7632607,23 61.9599119,22.96267 62.1422686,22.8820803 C62.8632786,22.5659208 63.1939253,21.7177076 62.8833178,20.9903789 Z" id="Path"></path>
                <path d="M63.5835546,43 C62.8015546,43 62.1668437,43.6160382 62.1668437,44.3750322 L62.1668437,49.8750322 C62.1668437,50.6340263 61.5293437,51.2500645 60.7501327,51.2500645 L52.2501328,51.2500645 C51.4709219,51.2500645 50.8334219,50.6340263 50.8334219,49.8750322 L50.8334219,45.7500645 C50.8334219,44.9910704 50.1987109,44.3750322 49.4167109,44.3750322 C48.6347109,44.3750322 48,44.9910704 48,45.7500645 L48,49.8750322 C48,52.1493074 49.9067891,54 52.25,54 L60.7499999,54 C63.0932109,54 65,52.1493074 65,49.8750322 L65,44.3750322 C65.0002655,43.6160382 64.3655546,43 63.5835546,43 Z" id="Path"></path>
            </g>
        </g>
    </g>
</svg>