<?xml version="1.0" encoding="UTF-8"?>
<svg width="50px" height="50px" viewBox="0 0 50 50" version="1.1" xmlns="http://www.w3.org/2000/svg" xmlns:xlink="http://www.w3.org/1999/xlink">
    <!-- Generator: Sketch 64 (93537) - https://sketch.com -->
    <title>img-06</title>
    <desc>Created with Sketch.</desc>
    <g id="Compra-y-Recoge" stroke="none" stroke-width="1" fill="none" fill-rule="evenodd">
        <g id="HOME---Servicios---Compra-y-Recoge-V2---Desktop-HD" transform="translate(-752.000000, -2612.000000)">
            <g id="img-06" transform="translate(752.000000, 2612.000000)">
                <g id="img-03-copy" fill="#FFEB00">
                    <g id="img-01-copy">
                        <rect id="Rectangle" x="0" y="0" width="50" height="50" rx="10"></rect>
                    </g>
                </g>
                <path d="M25.736,34.104 C29.818,34.104 32.21,31.504 32.21,27.734 C32.21,23.782 29.87,21.624 26.568,21.624 C24.826,21.624 23.292,22.352 22.538,23.574 C22.564,19.908 23.344,18.218 25.346,18.218 C26.672,18.218 27.296,18.894 27.556,20.142 L31.69,20.142 C31.456,17.334 29.636,14.63 25.554,14.63 C20.64,14.63 18.612,17.88 18.612,24.38 C18.612,30.048 20.016,34.104 25.736,34.104 Z M25.554,30.334 C23.864,30.334 22.902,29.346 22.902,27.682 C22.902,25.966 24.098,25.134 25.502,25.134 C27.166,25.134 28.024,26.174 28.024,27.76 C28.024,29.372 27.062,30.334 25.554,30.334 Z" id="6" fill="#000000" fill-rule="nonzero"></path>
            </g>
        </g>
    </g>
</svg>