<?xml version="1.0" encoding="UTF-8"?>
<svg width="64px" height="68px" viewBox="0 0 64 68" version="1.1" xmlns="http://www.w3.org/2000/svg" xmlns:xlink="http://www.w3.org/1999/xlink">
    <!-- Generator: Sketch 64 (93537) - https://sketch.com -->
    <title>img-03</title>
    <desc>Created with Sketch.</desc>
    <g id="Welcome" stroke="none" stroke-width="1" fill="none" fill-rule="evenodd">
        <g id="HOME---Servicios---Compra-y-Recoge---Desktop-HD" transform="translate(-164.000000, -678.000000)" fill="#FFEB00" fill-rule="nonzero">
            <g id="img-03" transform="translate(164.000000, 678.000000)">
                <path d="M58.4610678,17.2846745 C57.2094032,15.4140287 55.0944768,14.2908016 52.830166,14.2941299 L30.502227,14.2941299 C30.502227,14.0893719 30.502227,13.8846139 30.4641804,13.6798559 C29.6850371,5.6619985 22.7062558,-0.345074843 14.5893604,0.0154059641 C6.47246498,0.375886771 0.0634343239,6.97752849 0.0105674312,15.0323364 C0.0105674312,15.0323364 -0.179665739,16.444089 1.05413225,20.6254631 C2.28793024,24.8068371 5.97301851,31.4022003 9.20698241,36.4187715 C10.5875317,38.574119 12.06048,40.6432525 13.5171225,42.7339395 L13.5171225,42.7339395 L13.2127494,42.2974817 L13.2127494,68 L60.6134203,68 L60.6134203,36.8390643 C62.7334357,35.5570749 64.0189957,33.2658833 63.9997877,30.8040914 L63.9997877,25.5234902 L58.4610678,17.2846745 Z M30.2902529,17.6510794 L52.830166,17.6510794 C53.961682,17.6493061 55.0188196,18.2097351 55.6456169,19.1436617 L59.1567777,24.3649909 L28.0074549,24.3649909 C28.2792165,23.7453285 28.5509782,23.1256661 28.8064342,22.5006154 C29.4656195,20.9381627 29.9627845,19.3132895 30.2902529,17.6510794 L30.2902529,17.6510794 Z M50.4658394,27.7219446 L50.4658394,31.0788982 C50.4658394,32.9328925 48.9498082,34.4358519 47.079689,34.4358519 C45.2095698,34.4358519 43.6935386,32.9328925 43.6935386,31.0788982 L43.6935386,27.7219446 L50.4658394,27.7219446 Z M40.3128234,27.7219446 L40.3128234,31.0788982 C40.3128234,32.9328925 38.7967922,34.4358519 36.9266729,34.4358519 C35.0565537,34.4358519 33.5405225,32.9328925 33.5405225,31.0788982 L33.5405225,27.7219446 L40.3128234,27.7219446 Z M30.1543722,27.7219446 L30.1543722,31.0788982 C30.1547309,32.6468617 29.0601813,34.006222 27.517821,34.3533254 C25.9754607,34.7004288 24.3961679,33.9428084 23.7136204,32.5283694 C24.6593511,30.9549657 25.5615998,29.3546202 26.3986258,27.7219446 L30.1543722,27.7219446 L30.1543722,27.7219446 Z M27.1867346,26.1862595 L27.3660973,25.8090737 L27.1867346,26.1862595 Z M4.67943295,20.7278421 C3.55977487,17.8666183 2.91298209,14.9622877 3.8587127,11.8639757 C5.565376,6.27084907 11.4680395,2.56903983 17.1804699,3.61977171 C23.3331541,4.75132912 27.6106828,10.026542 27.1106413,16.0130195 C26.8714911,18.825748 25.7029159,21.4013882 24.5017293,23.9123679 C21.9321314,29.1054029 18.9496392,34.0874171 15.5825112,38.8112072 L15.2781382,39.2530534 C14.6748272,38.3963028 14.1910915,37.7227567 13.6964852,37.0168804 C10.245112,31.8332698 6.95679576,26.5526686 4.67943295,20.7278421 Z M30.1543721,64.6430463 L23.3820712,64.6430463 L23.3820712,47.8582781 L30.1543721,47.8582781 L30.1543721,64.6430463 Z M33.5405225,64.6430463 L33.5405225,44.5013244 L19.9959208,44.5013244 L19.9959208,64.6430463 L16.6097703,64.6430463 L16.6097703,43.1326788 C16.7139731,43.018982 16.8102196,42.898361 16.8978377,42.7716581 C17.6750761,41.6508774 18.4740554,40.5408735 19.2512938,39.4200928 C20.1209311,38.1520301 20.9724511,36.8749867 21.8058535,35.5889627 L21.8058535,35.5889627 C23.0893939,37.0092783 24.9290222,37.8109974 26.8524282,37.7882849 C28.7758341,37.7655723 30.5956782,36.9206404 31.8447297,35.4704186 C33.1148525,36.9417368 34.9705458,37.7887316 36.9239553,37.7887316 C38.8773648,37.7887316 40.7330581,36.9417368 42.003181,35.4704186 C43.2733038,36.9417368 45.1289971,37.7887316 47.0824066,37.7887316 C49.0358161,37.7887316 50.8915094,36.9417368 52.1616323,35.4704186 C52.2923401,35.6376152 52.4320472,35.7977026 52.5801452,35.9499834 C53.8343294,37.1378129 55.5036269,37.7982297 57.2381403,37.7928055 L57.2381403,37.7928055 L57.2381403,64.6430463 L33.5405225,64.6430463 Z M60.6242907,30.7933147 C60.6242907,32.7061855 59.1893891,34.3388612 57.4229382,34.4304635 C56.4946651,34.4792013 55.5868998,34.1480804 54.9118571,33.5145093 C54.2368144,32.8809381 53.8536684,32.0004556 53.8519899,31.0788982 L53.8519899,27.7219446 L60.6242907,27.7219446 L60.6242907,30.7933147 Z" id="Shape"></path>
                <path d="M37,58 L54,58 L54,45 L37,45 L37,58 Z M40.4010918,48.25 L50.5989082,48.25 L50.5989082,54.75 L40.4010918,54.75 L40.4010918,48.25 Z" id="Shape"></path>
                <path d="M14.0607688,21.8077299 C14.3552435,21.9343668 14.6739763,21.9998343 14.9963169,22 L14.9963169,22 C15.6214574,22.0060103 16.2197464,21.7548289 16.6415912,21.3091505 C16.7276186,21.2156669 16.8243995,21.1273768 16.9211803,21.0390867 L20.4052906,17.4399667 C20.7835252,17.1216429 21.1082146,16.7484434 21.3677223,16.3337437 C21.9688232,15.3743013 22.1506307,14.2234724 21.8731334,13.1345259 C21.483152,11.4151309 19.9697851,10.1476671 18.1524477,10.0184047 C17.0514518,9.93722705 15.9671681,10.3153294 15.1737484,11.0571118 L14.9963169,11.2181114 C14.3768493,10.5878669 13.5576973,10.1748848 12.6682,10.0443724 C11.9013547,9.92915642 11.1163608,10.039546 10.415357,10.361178 C9.58561593,10.7342882 8.91099476,11.3676214 8.50124705,12.1581413 C7.62351612,13.7821689 7.91788166,15.7662549 9.23248008,17.0868063 L11.5874806,19.5173808 L13.2972754,21.2779893 C13.5140172,21.5004846 13.7732795,21.6803707 14.0607688,21.8077299 Z" id="Path"></path>
            </g>
        </g>
    </g>
</svg>