<?xml version="1.0" encoding="UTF-8"?>
<svg width="50px" height="50px" viewBox="0 0 50 50" version="1.1" xmlns="http://www.w3.org/2000/svg" xmlns:xlink="http://www.w3.org/1999/xlink">
    <!-- Generator: Sketch 64 (93537) - https://sketch.com -->
    <title>img-05</title>
    <desc>Created with Sketch.</desc>
    <g id="Compra-y-Recoge" stroke="none" stroke-width="1" fill="none" fill-rule="evenodd">
        <g id="HOME---Servicios---Compra-y-Recoge-V2---Desktop-HD" transform="translate(-752.000000, -2524.000000)">
            <g id="img-05" transform="translate(752.000000, 2524.000000)">
                <g id="img-02-copy" fill="#FFEB00">
                    <g id="img-01">
                        <rect id="Rectangle" x="0" y="0" width="50" height="50" rx="10"></rect>
                    </g>
                </g>
                <path d="M26.074,34 C30.286,34 32.626,31.4 32.626,27.396 C32.626,24.328 31.04,21.182 26.906,21.182 C25.398,21.182 24.098,21.728 23.422,22.482 L23.422,18.894 L31.534,18.894 L31.534,14.994 L19.392,14.994 L19.392,26.304 L23.682,26.304 C23.916,25.42 24.644,24.744 25.892,24.744 C27.478,24.744 28.336,25.654 28.336,27.37 C28.336,29.008 27.608,30.23 25.918,30.23 C24.462,30.23 23.708,29.346 23.526,28.358 L19.184,28.358 C19.34,31.634 21.81,34 26.074,34 Z" id="5" fill="#000000" fill-rule="nonzero"></path>
            </g>
        </g>
    </g>
</svg>