<?xml version="1.0" encoding="UTF-8"?>
<svg width="35px" height="60px" viewBox="0 0 35 60" version="1.1" xmlns="http://www.w3.org/2000/svg" xmlns:xlink="http://www.w3.org/1999/xlink">
    <!-- Generator: Sketch 64 (93537) - https://sketch.com -->
    <title>img-07</title>
    <desc>Created with Sketch.</desc>
    <g id="Welcome" stroke="none" stroke-width="1" fill="none" fill-rule="evenodd">
        <g id="HOME---Servicios---Compra-y-Recoge---Desktop-HD" transform="translate(-450.000000, -916.000000)" fill="#0094BF" fill-rule="nonzero">
            <g id="img-07" transform="translate(450.000000, 916.000000)">
                <path d="M18,38 C18.5519531,38 19,37.5519531 19,37 C19,36.4480469 18.5519531,36 18,36 C17.4480469,36 17,36.4480469 17,37 C17,37.5519531 17.4480469,38 18,38 Z" id="Path"></path>
                <path d="M23.8797526,28.9732361 C26.5867839,27.321167 28.8276042,24.9957275 30.3606771,22.2477722 C31.8691406,19.5437623 32.6666667,16.4840698 32.6666667,13.3992005 L32.6666667,6.82983398 C34.0247396,6.34597781 35,5.04318234 35,3.515625 L35,1.171875 C35,0.524597109 34.4777344,0 33.8333333,0 L1.16666667,0 C0.522265567,0 0,0.524597109 0,1.171875 L0,3.515625 C0,5.04318234 0.975260417,6.34597781 2.33333333,6.82983398 L2.33333333,13.3992005 C2.33333333,16.4840698 3.13085943,19.5437623 4.63932292,22.2477722 C6.17239583,24.9957275 8.41367193,27.3216247 11.1207031,28.9732361 C11.4666015,29.1842651 11.6735026,29.5683288 11.6735026,30 C11.6735026,30.4321289 11.4666015,30.8157349 11.1207031,31.0272217 C8.41367193,32.678833 6.17239583,35.0042725 4.63932292,37.7522278 C3.13085943,40.4562377 2.33333333,43.5159302 2.33333333,46.6007995 L2.33333333,53.170166 C0.975260417,53.6540222 0,54.9568177 0,56.484375 L0,58.828125 C0,59.4754029 0.522265567,60 1.16666667,60 L33.8333333,60 C34.4777344,60 35,59.4754029 35,58.828125 L35,56.484375 C35,54.9568177 34.0247396,53.6540222 32.6666667,53.170166 L32.6666667,46.6007995 C32.6666667,43.5159302 31.8691406,40.4562377 30.3606771,37.7522278 C28.8276042,35.0042725 26.5863281,32.6783753 23.8792969,31.0267639 C23.5333985,30.8157349 23.3264974,30.4316712 23.3264974,30 C23.3264974,29.5678711 23.5333985,29.1842651 23.8797526,28.9732361 Z M2.33333333,2.34375 L32.6666667,2.34375 L32.6666667,3.515625 C32.6666667,4.1619873 32.1434896,4.6875 31.5,4.6875 L3.5,4.6875 C2.85651042,4.6875 2.33333333,4.1619873 2.33333333,3.515625 L2.33333333,2.34375 Z M32.6666667,57.65625 L2.33333333,57.65625 L2.33333333,56.484375 C2.33333333,55.8380127 2.85651042,55.3125 3.5,55.3125 L31.5,55.3125 C32.1434896,55.3125 32.6666667,55.8380127 32.6666667,56.484375 L32.6666667,57.65625 Z M22.6684244,33.0299378 C27.4677083,35.9587097 30.3333333,41.0321045 30.3333333,46.6007995 L30.3333333,52.96875 L4.66666667,52.96875 L4.66666667,46.6007995 C4.66666667,41.0321045 7.53229167,35.9587097 12.3315755,33.0299378 C13.380664,32.390442 14.006836,31.2574768 14.006836,30 C14.006836,28.7425232 13.380664,27.609558 12.3315755,26.9700622 C7.53229167,24.0412903 4.66666667,18.9678955 4.66666667,13.3992005 L4.66666667,7.03125 L30.3333333,7.03125 L30.3333333,13.3992005 C30.3333333,18.9678955 27.4677083,24.0412903 22.6684244,26.9700622 C21.619336,27.609558 20.993164,28.7425232 20.993164,30 C20.993164,31.2574768 21.619336,32.390442 22.6684244,33.0299378 Z" id="Shape"></path>
                <path d="M18.4296875,40.4467324 C18.2095703,40.1657795 17.8641276,40 17.4972656,40 C17.4972656,40 17.4968099,40 17.4963542,40 C17.1299479,40 16.7845053,40.164907 16.564388,40.4449872 C16.1246094,41.0051479 15.5768229,41.4811098 14.9365235,41.8610941 C13.6003256,42.631533 12.4067708,43.1131664 11.353125,43.5385219 C9.01705723,44.4817206 7,45.2962219 7,48.3919378 L7,48.883169 C7,49.5000437 7.52226557,50 8.16666667,50 L26.8333333,50 C27.4777344,50 28,49.5000437 28,48.883169 L28,48.3919378 C28,45.297967 25.9779297,44.4799756 23.6368489,43.5324143 C22.5745443,43.1022598 21.3705078,42.6153913 20.0174479,41.835791 C19.3972006,41.4671494 18.863086,40.9994764 18.4296875,40.4467324 L18.4296875,40.4467324 Z M25.6206381,47.766338 L9.37890625,47.766338 C9.55664057,46.7341418 10.2917318,46.3912398 12.2600261,45.5968066 C13.3314453,45.1640346 14.6644531,44.6261233 16.1469401,43.7710496 C16.150586,43.768432 16.1546875,43.7662508 16.1583333,43.7640694 C16.6423178,43.4774452 17.0893881,43.1498123 17.4954428,42.784661 C17.8914714,43.1410872 18.3253255,43.4595585 18.7942708,43.7378937 C18.7983724,43.740075 18.8024739,43.7426925 18.8065755,43.7448739 C20.305013,44.6086728 21.6485026,45.1526917 22.728125,45.5898264 C24.7046224,46.3894948 25.4424479,46.7341418 25.6206381,47.766338 Z" id="Shape"></path>
                <path d="M28,13.3156591 L28,11.1676296 C28,10.7430404 27.7698568,10.3521994 27.3988932,10.1465175 C27.0279297,9.94037969 26.5749349,9.95269327 26.2149089,10.1775294 C23.5990235,11.8138627 20.5857422,12.6785471 17.5,12.6785471 C14.4147136,12.6785471 11.4009765,11.8138627 8.78509112,10.1775294 C8.42506513,9.95269327 7.97207028,9.94083584 7.6011068,10.1465175 C7.2301432,10.3521994 7,10.7430404 7,11.1676296 L7,13.3156591 C7,15.3350803 7.77929693,17.508649 9.253125,19.6010394 C10.6813803,21.6286697 12.6624349,23.4396729 14.9825521,24.8393124 C15.4537761,25.1325572 15.9154297,25.5484814 16.3333333,26.0510564 L16.3333333,31.8324936 C16.3333333,32.4773585 16.8555989,33 17.5,33 C18.1439453,33 18.6666667,32.4773585 18.6666667,31.8324936 L18.6666667,26.0533367 C19.0923178,25.5448329 19.5694661,25.1193316 20.0634765,24.8128611 C24.8108072,21.9474537 28,17.3280503 28,13.3156591 Z M18.8530599,22.8162427 C18.849414,22.818979 18.8453125,22.8208033 18.8416667,22.8235397 C18.3763672,23.1113117 17.9256511,23.4674923 17.5041015,23.8770317 C17.0953125,23.4766136 16.6610026,23.1332024 16.2057292,22.850903 C16.2016276,22.8481667 16.1975261,22.8458864 16.1934245,22.84315 C12.090039,20.3699518 9.33333333,16.5413517 9.33333333,13.3156591 L9.33333333,13.1437255 C11.8722006,14.3714315 14.6594401,15.01356 17.5,15.01356 C20.3405599,15.01356 23.1277995,14.3714315 25.6666667,13.1437255 L25.6666667,13.3156591 C25.6666667,16.4907293 22.8648438,20.3973154 18.8530599,22.8162427 Z" id="Shape"></path>
            </g>
        </g>
    </g>
</svg>