<?xml version="1.0" encoding="UTF-8"?>
<svg width="33px" height="52px" viewBox="0 0 33 52" version="1.1" xmlns="http://www.w3.org/2000/svg" xmlns:xlink="http://www.w3.org/1999/xlink">
    <!-- Generator: Sketch 64 (93537) - https://sketch.com -->
    <title>item1</title>
    <desc>Created with Sketch.</desc>
    <g id="Compra-y-Recoge" stroke="none" stroke-width="1" fill="none" fill-rule="evenodd">
        <g id="HOME---Servicios---Compra-y-Recoge-V2---Desktop-HD" transform="translate(-663.000000, -2426.000000)" fill="#0094BF" fill-rule="nonzero">
            <g id="item1" transform="translate(663.000000, 2426.000000)">
                <g id="Group-26">
                    <path d="M28.05,0 L4.95,0 C2.2204,0 0,2.18675758 0,4.875 L0,47.125 C0,49.8132424 2.2204,52 4.95,52 L28.05,52 C30.7796,52 33,49.8132424 33,47.125 L33,4.875 C33,2.18675758 30.7796,0 28.05,0 Z M4.20138889,2.36363636 L28.7986111,2.36363636 C29.7680185,2.36363636 30.5555556,3.1341688 30.5555556,4.08264463 L30.5555556,40.1818182 L2.44444444,40.1818182 L2.44444444,4.08264463 C2.44444444,3.1341688 3.23198148,2.36363636 4.20138889,2.36363636 Z M28.7986111,49.6363636 L4.20138889,49.6363636 C3.23198148,49.6363636 2.44444444,48.8417521 2.44444444,47.8636364 L2.44444444,42.5454545 L30.5555556,42.5454545 L30.5555556,47.8636364 C30.5555556,48.8417521 29.7680185,49.6363636 28.7986111,49.6363636 Z" id="Shape"></path>
                    <path d="M17.5606497,45.4393503 C18.1464501,46.0251508 18.1464501,46.9748492 17.5606497,47.5606497 C16.9748492,48.1464501 16.0251508,48.1464501 15.4393503,47.5606497 C14.8535499,46.9748492 14.8535499,46.0251508 15.4393503,45.4393503 C16.0251508,44.8535499 16.9748492,44.8535499 17.5606497,45.4393503" id="Path"></path>
                </g>
                <path d="M21,11 C23.209139,11 25,12.790861 25,15 L25,25 C25,27.209139 23.209139,29 21,29 L12,29 C9.790861,29 8,27.209139 8,25 L8,15 C8,12.790861 9.790861,11 12,11 L21,11 Z M16.5102316,23.0000356 C15.6859445,22.9944135 15.0115704,23.6550205 15.000147,24.4792924 C14.9887236,25.3035643 15.6445319,25.982608 16.4686582,25.9998333 C16.8711745,26.0058132 17.2593931,25.8506993 17.5469744,25.5689888 C17.8345557,25.2872784 17.9976553,24.902329 18,24.4997533 C17.99982,23.6754022 17.3345187,23.0056578 16.5102316,23.0000356 Z M17.9260274,14 L15.0821918,14 C15,14 15,14.0757238 15,14.0757238 L15,14.0757238 L15.4109589,21.9020045 C15.4109589,21.9020045 15.4191781,22 15.4972603,22 L15.4972603,22 L17.5109589,22 C17.5931507,22 17.5931507,21.9020045 17.5931507,21.9020045 L17.5931507,21.9020045 L18,14.0890869 C18,14.0890869 18,14 17.9260274,14 L17.9260274,14 Z" id="Combined-Shape"></path>
            </g>
        </g>
    </g>
</svg>