<?xml version="1.0" encoding="UTF-8"?>
<svg width="56px" height="50px" viewBox="0 0 56 50" version="1.1" xmlns="http://www.w3.org/2000/svg" xmlns:xlink="http://www.w3.org/1999/xlink">
    <!-- Generator: Sketch 64 (93537) - https://sketch.com -->
    <title>item5</title>
    <desc>Created with Sketch.</desc>
    <g id="Compra-y-Recoge" stroke="none" stroke-width="1" fill="none" fill-rule="evenodd" stroke-linejoin="round">
        <g id="HOME---Servicios---Compra-y-Recoge-V2---Desktop-HD" transform="translate(-1166.000000, -2524.000000)" fill="#0094BF" fill-rule="nonzero" stroke="#0094BF" stroke-width="0.4">
            <g id="item5" transform="translate(1167.000000, 2525.000000)">
                <path d="M27.587522,20.0955989 C27.4686691,20.0708594 27.346729,20.0664062 27.2263327,20.0837239 C26.0197957,19.9486458 25.1096193,18.9669792 25.1075611,17.7992708 C25.1075611,17.2396614 24.6357512,16.7859375 24.053835,16.7859375 C23.471919,16.7859375 23.0001089,17.2396614 23.0001089,17.7992708 C23.0031961,19.7492448 24.3594568,21.4572656 26.3146126,21.9733333 L26.3146126,22.9866667 C26.3146126,23.5462761 26.7864226,24 27.3683387,24 C27.9502549,24 28.4220648,23.5462761 28.4220648,22.9866667 L28.4220648,22.0346875 C30.6787263,21.5804688 32.2124945,19.5592448 31.9753033,17.3539583 C31.7375974,15.1486719 29.8055948,13.4728125 27.5000545,13.4723177 C26.1787807,13.4723177 25.1075611,12.4421614 25.1075611,11.1715364 C25.1075611,9.90091143 26.1787807,8.87075524 27.5000545,8.87075524 C28.8213282,8.87075524 29.8925478,9.90091143 29.8925478,11.1715364 C29.8925478,11.7311458 30.3643578,12.1848698 30.9462739,12.1848698 C31.5281899,12.1848698 32,11.7311458 32,11.1715364 C31.9969128,9.12408857 30.5053347,7.35817715 28.4220648,6.935625 L28.4220648,6.01333333 C28.4220648,5.45372393 27.9502549,5 27.3683387,5 C26.7864226,5 26.3146126,5.45372393 26.3146126,6.01333333 L26.3146126,6.99747393 C24.1402735,7.56846357 22.7407935,9.59859381 23.0402412,11.7469792 C23.3396888,13.8953645 25.2459657,15.4989844 27.5000545,15.4984895 C28.8038346,15.4984895 29.8673365,16.5024219 29.8910043,17.7557292 C29.9151864,19.0090364 28.8902731,20.0500781 27.587522,20.0955989 L27.587522,20.0955989 Z" id="Path"></path>
                <path d="M13,14.5 C13,22.5082497 19.4917503,29 27.5,29 C35.5082497,29 42,22.5082497 42,14.5 C42,6.49175031 35.5082497,0 27.5,0 C19.4956562,0.00878840815 13.0092768,6.4956563 13,14.5 Z M27.5,1.99986532 C34.4038319,1.99986532 40.0001347,7.59616806 40.0001347,14.5 C40.0001347,21.4038319 34.4038319,27.0001347 27.5,27.0001347 C20.5961681,27.0001347 14.9998653,21.4038319 14.9998653,14.5 C15.0076773,7.59958583 20.5995859,2.00767729 27.5,1.99986532 Z" id="Shape"></path>
                <path d="M47.1631297,31.9506279 L39.2875972,35.6205481 C38.2002504,33.6258158 36.1144101,32.3563526 33.8189547,32.2924437 L26.5487038,32.0953913 C25.3975398,32.0629527 24.2679755,31.7753626 23.2444459,31.2539241 L22.5046574,30.8757964 C18.7168616,28.9285116 14.2020407,28.9333532 10.418172,30.8883845 L10.4643168,29.235468 C10.4795348,28.6878849 10.0421415,28.2318077 9.48693191,28.2167989 L1.51469187,28.0003801 C0.959482392,27.9853711 0.497544005,28.4167562 0.482326027,28.9643393 L0.00036635572,46.218774 C-0.0144661451,46.7663571 0.42292698,47.2224342 0.978136585,47.2374431 L8.95037662,47.4538619 L8.97786711,47.4538619 C9.52276769,47.4538619 9.96850636,47.0263501 9.98323334,46.4894185 L10.0063057,45.6639286 L12.0774191,44.5702149 C12.890352,44.1388298 13.8407372,44.0361882 14.728778,44.2840773 L27.0965498,47.7075609 C27.1181495,47.7138549 27.1397491,47.7186966 27.1618398,47.7235381 C28.0557714,47.9080024 28.9668845,48.0004767 29.8799613,48 C31.8141131,48.0009608 33.7256834,47.5899104 35.4836017,46.7939541 C35.526801,46.7745877 35.5685276,46.7518324 35.6082906,46.7261719 L53.5404307,35.2864788 C53.9871512,35.0013096 54.1314761,34.4227403 53.8698257,33.9656949 C52.5385009,31.635925 49.5857284,30.7484628 47.1631297,31.9506279 L47.1631297,31.9506279 Z M2.03848378,45.2824118 L2.46458627,30.0101213 L8.42658471,30.1718302 L8.00048223,45.4446048 L2.03848378,45.2824118 Z M34.5778884,45.022903 C32.3938677,45.9950929 29.9545783,46.2633165 27.6070874,45.7902939 L15.2726968,42.3755252 C13.8844274,41.9886826 12.3984686,42.1489391 11.1285065,42.8224032 L10.0701229,43.3816061 L10.3533731,33.2273534 C13.707212,31.027338 18.0084907,30.801236 21.5802899,32.6366803 L22.3200785,33.0148079 C23.6131129,33.6732632 25.0391817,34.036382 26.4937228,34.0780196 L33.7644646,34.2750721 C35.8066148,34.3331711 37.5409697,35.7672481 37.9552906,37.7406774 L27.125513,37.445825 C26.5703034,37.430816 26.1083652,37.8626854 26.0926563,38.4097842 C26.0774383,38.9573674 26.5153225,39.4134444 27.0700412,39.4284534 L39.0215286,39.7528395 L39.04951,39.7528395 C39.5939198,39.7523553 40.0391674,39.3248434 40.0538944,38.7883961 C40.0661669,38.3574951 40.0337675,37.92611 39.956696,37.5019873 L48.0344797,33.7376564 C48.0423342,33.7342672 48.0501886,33.730394 48.058043,33.7265207 C49.2038071,33.1547296 50.5891311,33.3459722 51.5316619,34.2063217 L34.5778884,45.022903 Z" id="Shape"></path>
            </g>
        </g>
    </g>
</svg>