<?xml version="1.0" encoding="UTF-8"?>
<svg width="50px" height="54px" viewBox="0 0 50 54" version="1.1" xmlns="http://www.w3.org/2000/svg" xmlns:xlink="http://www.w3.org/1999/xlink">
    <!-- Generator: Sketch 64 (93537) - https://sketch.com -->
    <title>item3</title>
    <desc>Created with Sketch.</desc>
    <g id="Compra-y-Recoge" stroke="none" stroke-width="1" fill="none" fill-rule="evenodd">
        <g id="HOME---Servicios---Compra-y-Recoge-V2---Desktop-HD" transform="translate(-653.000000, -2607.000000)" fill="#0094BF" fill-rule="nonzero">
            <g id="item3" transform="translate(653.000000, 2607.000000)">
                <path d="M45.6727092,13.7260651 C44.6948462,12.2405522 43.04256,11.3485778 41.2735672,11.3512208 L23.8298649,11.3512208 C23.8298649,11.1886189 23.8298649,11.0260169 23.8001409,10.863415 C23.1914353,4.49629293 17.7392624,-0.274030022 11.3979378,0.012234148 C5.05661326,0.298498318 0.0495580656,5.5409785 0.00825580559,11.9374437 C0.00825580559,11.9374437 -0.140363859,13.0585413 0.823540821,16.3790442 C1.7874455,19.6995471 4.66642071,24.9370414 7.19295501,28.9207891 C8.27150914,30.6323886 9.42224997,32.2755241 10.560252,33.9357755 L10.560252,33.9357755 L10.3224605,33.5891766 L10.3224605,54 L47.3542346,54 L47.3542346,29.254551 C49.0104967,28.2365006 50.0148404,26.417025 49.9998342,24.4620726 L49.9998342,20.2686539 L45.6727092,13.7260651 Z M23.6642601,14.0170336 L41.2735672,14.0170336 C42.1575641,14.0156254 42.9834528,14.460672 43.4731382,15.2023196 L46.2162326,19.3486692 L21.8808241,19.3486692 C22.0931379,18.8565844 22.3054517,18.3644996 22.5050267,17.8681357 C23.0200153,16.6273645 23.4084254,15.337024 23.6642601,14.0170336 L23.6642601,14.0170336 Z M39.4264371,22.0144854 L39.4264371,24.6803015 C39.4264371,26.1525911 38.2420377,27.3461177 36.781007,27.3461177 C35.3199764,27.3461177 34.135577,26.1525911 34.135577,24.6803015 L34.135577,22.0144854 L39.4264371,22.0144854 Z M31.4943933,22.0144854 L31.4943933,24.6803015 C31.4943933,26.1525911 30.3099939,27.3461177 28.8489632,27.3461177 C27.3879326,27.3461177 26.2035332,26.1525911 26.2035332,24.6803015 L26.2035332,22.0144854 L31.4943933,22.0144854 Z M23.5581033,22.0144854 L23.5581033,24.6803015 C23.5583835,25.925449 22.7032666,27.004941 21.4982977,27.280582 C20.2933287,27.5562229 19.0595062,26.9545831 18.526266,25.8313521 C19.265118,24.5818845 19.9699999,23.311022 20.6239264,22.0144854 L23.5581033,22.0144854 L23.5581033,22.0144854 Z M21.2396364,20.7949708 L21.3797635,20.4954409 L21.2396364,20.7949708 Z M3.65580699,16.4603452 C2.78107411,14.1881969 2.27576726,11.8818167 3.0146193,9.42139247 C4.34795,4.97979191 8.95940587,2.04011986 13.4222421,2.87452459 C18.2290266,3.7731143 21.570846,7.96225394 21.1801886,12.7162214 C20.9933524,14.9498587 20.080403,16.99522 19.141976,18.9892334 C17.1344776,23.1131141 14.8044056,27.0694195 12.1738369,30.8206645 L11.9360454,31.1715424 C11.4647088,30.4911816 11.0867902,29.9563068 10.7003791,29.395758 C8.00399374,25.2793613 5.43499669,21.0859427 3.65580699,16.4603452 Z M23.5581032,51.3341839 L18.2672431,51.3341839 L18.2672431,38.0051032 L23.5581032,38.0051032 L23.5581032,51.3341839 Z M26.2035332,51.3341839 L26.2035332,35.3392871 L15.6218131,35.3392871 L15.6218131,51.3341839 L12.9763831,51.3341839 L12.9763831,34.2524214 C13.0577915,34.1621328 13.1329841,34.0663455 13.2014357,33.9657285 C13.8086532,33.0756968 14.4328558,32.1942231 15.0400733,31.3041914 C15.7194775,30.2972004 16.3847274,29.2830777 17.0358231,28.2618234 L17.0358231,28.2618234 C18.038589,29.389721 19.4757986,30.0263803 20.9784595,30.0083439 C22.4811204,29.9903074 23.9028736,29.3193321 24.8786951,28.1676854 C25.8709785,29.3360851 27.3207389,30.0086986 28.8468401,30.0086986 C30.3729413,30.0086986 31.8227017,29.3360851 32.8149851,28.1676854 C33.8072686,29.3360851 35.257029,30.0086986 36.7831302,30.0086986 C38.3092314,30.0086986 39.7589917,29.3360851 40.7512752,28.1676854 C40.8533907,28.3004591 40.9625369,28.4275873 41.0782385,28.5485163 C42.0580699,29.4917926 43.3622085,30.0162412 44.7172971,30.0119338 L44.7172971,30.0119338 L44.7172971,51.3341839 L26.2035332,51.3341839 Z M47.3627271,24.4535146 C47.3627271,25.9725591 46.2417102,27.2690957 44.8616705,27.3418387 C44.1364571,27.3805422 43.4272655,27.1175932 42.8998883,26.6144632 C42.3725112,26.1113332 42.0731784,25.4121265 42.0718671,24.6803015 L42.0718671,22.0144854 L47.3627271,22.0144854 L47.3627271,24.4535146 Z" id="Shape"></path>
                <path d="M29,46 L42,46 L42,36 L29,36 L29,46 Z M31.6008349,38.5 L39.3991651,38.5 L39.3991651,43.5 L31.6008349,43.5 L31.6008349,38.5 Z" id="Shape"></path>
                <path d="M10.7620326,17.8397749 C10.9934056,17.9453057 11.2438385,17.9998619 11.4971061,18 L11.4971061,18 C11.988288,18.0050086 12.4583722,17.7956908 12.7898217,17.4242921 C12.8574146,17.3463891 12.9334567,17.272814 13.0094988,17.1992389 L15.7470141,14.1999723 C16.0441983,13.9347024 16.2993115,13.6237029 16.5032104,13.2781197 C16.975504,12.4785844 17.1183527,11.5195604 16.9003191,10.6121049 C16.5939051,9.17927577 15.4048312,8.12305592 13.9769232,8.01533726 C13.111855,7.94768921 12.2599178,8.26277447 11.6365166,8.88092649 L11.4971061,9.01509282 C11.0103816,8.48988906 10.3667622,8.1457373 9.66787141,8.03697699 C9.06535009,7.94096368 8.44856921,8.03295504 7.89778053,8.30098171 C7.24584108,8.61190683 6.7157816,9.1396845 6.39383697,9.79845106 C5.70419123,11.1518075 5.93547845,12.8052124 6.96837721,13.9056719 L8.81873473,15.9311507 L10.162145,17.3983244 C10.3324421,17.5837372 10.5361482,17.7336422 10.7620326,17.8397749 Z" id="Path"></path>
            </g>
        </g>
    </g>
</svg>