<?xml version="1.0" encoding="UTF-8"?>
<svg width="131px" height="131px" viewBox="0 0 131 131" version="1.1" xmlns="http://www.w3.org/2000/svg" xmlns:xlink="http://www.w3.org/1999/xlink">
    <!-- Generator: Sketch 64 (93537) - https://sketch.com -->
    <title>item-03</title>
    <desc>Created with Sketch.</desc>
    <g id="Compra-y-Recoge" stroke="none" stroke-width="1" fill="none" fill-rule="evenodd">
        <g id="HOME---Servicios---Compra-y-Recoge-V2---Desktop-HD" transform="translate(-997.000000, -1040.000000)">
            <g id="item-03" transform="translate(997.105263, 1040.000000)">
                <circle id="Oval" fill="#0094BF" cx="65.2565789" cy="65.2565789" r="65.2565789"></circle>
                <g id="Group" transform="translate(21.552632, 22.750000)" fill="#FFFFFF" fill-rule="nonzero">
                    <path d="M73.5852305,12.6252958 C65.4438923,4.48378927 54.6190831,0 43.1052632,0 C31.5914433,0 20.766634,4.48378927 12.6252958,12.6252958 C4.48362089,20.766634 0,31.5914433 0,43.1052632 C0,54.6190831 4.48362089,65.4438923 12.6252958,73.5852305 C20.766634,81.726737 31.5914433,86.2105263 43.1052632,86.2105263 C54.6190831,86.2105263 65.4438923,81.726737 73.5852305,73.5852305 C81.7269054,65.4438923 86.2105263,54.6190831 86.2105263,43.1052632 C86.2105263,31.5914433 81.7269054,20.766634 73.5852305,12.6252958 Z M43.1052632,81.0789794 C22.1665448,81.0789794 5.13154687,64.0439815 5.13154687,43.1052632 C5.13154687,22.1665448 22.1665448,5.13154688 43.1052632,5.13154688 C64.0439815,5.13154688 81.0789794,22.1665448 81.0789794,43.1052632 C81.0789794,64.0439815 64.0439815,81.0789794 43.1052632,81.0789794 Z" id="Shape"></path>
                    <path d="M33.9712551,31.7428246 C29.7645977,27.7346873 22.9196128,27.7350086 18.7129554,31.7428246 C17.7097166,32.6984814 17.7097166,34.2482516 18.7129554,35.2040691 C19.7163628,36.1597259 21.3430224,36.1597259 22.3460926,35.2040691 C24.5498126,33.1046757 28.1352408,33.1048363 30.3386236,35.2040691 C30.8403273,35.6820581 31.4976334,35.9210526 32.1549394,35.9210526 C32.8122454,35.9210526 33.4698886,35.6820581 33.9712551,35.2040691 C34.9744939,34.2482516 34.9744939,32.698642 33.9712551,31.7428246 Z" id="Path"></path>
                    <path d="M67.4975709,31.7428246 C63.2909135,27.7350086 56.4459286,27.7346873 52.2392712,31.7428246 C51.2360324,32.6984814 51.2360324,34.2482516 52.2392712,35.2040691 C53.2426786,36.1597259 54.8693382,36.1597259 55.8724084,35.2040691 C58.0757913,33.1046757 61.6612194,33.1045151 63.8649394,35.2040691 C64.3666431,35.6820581 65.0239491,35.9210526 65.6812552,35.9210526 C66.3385612,35.9210526 66.9962044,35.6820581 67.4975709,35.2040691 C68.5008097,34.2482516 68.5008097,32.698642 67.4975709,31.7428246 Z" id="Path"></path>
                    <path d="M65.7015594,45.5 L20.5089669,45.5 C19.1014544,45.5 17.9605263,46.634762 17.9605263,48.0342962 C17.9605263,61.8220781 29.2405286,73.0394737 43.1052632,73.0394737 C56.9699977,73.0394737 68.25,61.8220781 68.25,48.0342962 C68.25,46.6345956 67.1090719,45.5 65.7015594,45.5 Z M43.1052632,67.9708813 C32.913842,67.9708813 24.4741185,60.3698223 23.2186293,50.5685923 L62.9920643,50.5685923 C61.7364079,60.3698223 53.2966843,67.9708813 43.1052632,67.9708813 Z" id="Shape"></path>
                </g>
            </g>
        </g>
    </g>
</svg>