<?xml version="1.0" encoding="UTF-8"?>
<svg width="57px" height="57px" viewBox="0 0 57 57" version="1.1" xmlns="http://www.w3.org/2000/svg" xmlns:xlink="http://www.w3.org/1999/xlink">
    <!-- Generator: Sketch 64 (93537) - https://sketch.com -->
    <title>item2</title>
    <desc>Created with Sketch.</desc>
    <g id="Compra-y-Recoge" stroke="none" stroke-width="1" fill="none" fill-rule="evenodd">
        <g id="HOME---Servicios---Compra-y-Recoge-V2---Desktop-HD" transform="translate(-649.000000, -2521.000000)" fill="#0094BF" fill-rule="nonzero">
            <g id="item2" transform="translate(649.000000, 2521.000000)">
                <path d="M55.8776455,9 L30.9485809,9 C30.3287045,9 29.8262264,9.49141794 29.8262264,10.0976501 L29.8262264,14.2162527 C29.3092699,14.1649925 28.7879362,14.1367829 28.2677249,14.1367829 C19.8490561,14.1367829 13,20.8350828 13,29.0684463 C13,37.3018099 19.8490561,44 28.2677249,44 C34.6438208,44 40.3172105,40.1413209 42.5531652,34.3451796 L53.6329365,34.3451796 C55.4895353,34.3451796 57,32.8679621 57,31.0522293 L57,10.0976501 C57,9.49141794 56.4975219,9 55.8776455,9 Z M32.0709354,11.1953002 L34.3156443,11.1953002 L34.3156443,31.0522293 C34.3156443,31.4370654 34.384108,31.8063149 34.5086893,32.1498794 L33.1932899,32.1498794 C32.5744236,32.1498794 32.0709354,31.6574736 32.0709354,31.0522293 L32.0709354,11.1953002 Z M28.2677249,41.8046998 C21.0869008,41.8046998 15.244709,36.0912116 15.244709,29.0683366 C15.244709,22.0454615 21.0867886,16.3320831 28.2677249,16.3320831 C28.7886096,16.3320831 29.3109534,16.3633661 29.8262264,16.4232978 L29.8262264,31.0522293 C29.8262264,32.8679621 31.336691,34.3451796 33.1932899,34.3451796 L37.6827078,34.3451796 L40.122482,34.3451796 C38.0273829,38.8541066 33.4168629,41.8046998 28.2677249,41.8046998 Z M54.755291,31.0522293 C54.755291,31.6574736 54.2518028,32.1498794 53.6329365,32.1498794 L40.724513,32.1498794 L37.6827078,32.1498794 C37.0638416,32.1498794 36.5603533,31.6574736 36.5603533,31.0522293 L36.5603533,11.1953002 L54.755291,11.1953002 L54.755291,31.0522293 Z" id="Shape"></path>
                <path d="M49.8781005,15 C49.2584754,15 48.756201,15.5208708 48.756201,16.1634371 L48.756201,18.2963662 C48.756201,20.1583309 47.2953757,21.6731259 45.5,21.6731259 C43.7046243,21.6731259 42.243799,20.1582145 42.243799,18.2963662 L42.243799,16.1634371 C42.243799,15.5208708 41.7415246,15 41.1218995,15 C40.5022744,15 40,15.5208708 40,16.1634371 L40,18.2963662 C39.9998878,21.4413692 42.4672813,24 45.5,24 C48.5327187,24 51,21.4413692 51,18.2963662 L51,16.1634371 C51,15.5208708 50.4977256,15 49.8781005,15 Z" id="Path"></path>
                <path d="M46.5,0 C45.67155,0 45,0.473576204 45,1.05779809 L45,3.94220191 C45,4.5264238 45.6717,5 46.5,5 C47.32845,5 48,4.5264238 48,3.94220191 L48,1.05779809 C48,0.473576204 47.32845,0 46.5,0 Z" id="Path"></path>
                <path d="M51.6803155,3.31967364 C51.2540694,2.89344212 50.5629068,2.89344212 50.1366607,3.31967364 L48.3196845,5.13669698 C47.8934385,5.5629285 47.8934385,6.25406755 48.3196845,6.68029907 C48.5328622,6.89346941 48.812187,7 49.0915119,7 C49.3708368,7 49.6502708,6.89336026 49.8633393,6.68029907 L51.6803155,4.86327573 C52.1065615,4.43704421 52.1065615,3.74590516 51.6803155,3.31967364 Z" id="Path"></path>
                <path d="M42.6803242,5.13658783 L40.8633976,3.31967364 C40.4371632,2.89344212 39.7460194,2.89344212 39.3196758,3.31967364 C38.8934414,3.74590516 38.8934414,4.43704421 39.3196758,4.86338488 L41.1367116,6.68029907 C41.3498833,6.89346941 41.6292006,7 41.9085179,7 C42.1878351,7 42.4672615,6.89346941 42.6803242,6.68029907 C43.1065586,6.25406755 43.1065586,5.5629285 42.6803242,5.13658783 Z" id="Path"></path>
                <path d="M45.4418032,37.0160402 C44.9124168,36.711695 44.2399946,36.8997057 43.9394874,37.4359384 C40.7308811,43.1639032 34.703876,46.7220405 28.210407,46.7220405 C18.2452914,46.7220405 10.1380974,38.508292 10.1380974,28.4122028 C10.1380974,19.9154333 16.0682393,12.4013661 24.2385762,10.5457087 C24.8510511,10.4065986 25.4780721,10.2989725 26.1024484,10.2255099 C26.7069892,10.1545034 27.1401736,9.60029589 27.0699781,8.98780949 C26.9998928,8.37532309 26.4535361,7.93689179 25.8483341,8.00745166 C25.1477015,8.08984593 24.4438732,8.21075784 23.7565744,8.36683804 C19.3343684,9.37131128 15.3188996,11.8999669 12.4495898,15.487132 C9.53774405,19.1274404 7.93415716,23.7176274 7.93415716,28.4122028 C7.93415716,32.6019179 9.17960377,36.502025 11.3136791,39.7543658 L0.322739493,50.8897615 C-0.107579831,51.3257366 -0.107579831,52.032675 0.322739493,52.4687617 C0.537954253,52.6868051 0.819948402,52.795771 1.10194255,52.795771 C1.3839367,52.795771 1.66604104,52.6868051 1.88114561,52.4687617 L9.09849877,45.1565494 L11.6896713,47.7817782 L4.4723181,55.0939905 C4.04199877,55.5299656 4.04199877,56.236904 4.4723181,56.6729908 C4.68753286,56.8910341 4.96952701,57 5.25152116,57 C5.5335153,57 5.81561965,56.8910341 6.03072421,56.6729908 L17.0229861,45.5362552 C20.2317027,47.6951414 24.0782395,48.9549476 28.2102968,48.9549476 C35.4953109,48.9549476 42.2568893,44.9634029 45.856144,38.5381013 C46.1566512,38.001757 45.9710795,37.3202738 45.4418032,37.0160402 Z M13.2481876,46.202778 L10.6570151,43.5775492 L12.6458507,41.5625739 C13.4303432,42.5141272 14.2980345,43.3928878 15.2375742,44.1872445 L13.2481876,46.202778 Z" id="Shape"></path>
                <path d="M28.8417223,36.6736008 C25.5462886,36.6736008 22.5534826,34.7181459 21.2171955,31.6918495 C20.957883,31.10455 20.2737568,30.8398057 19.6888851,31.1001298 C19.104245,31.3605702 18.8404158,32.0476722 19.0997282,32.6349717 C20.8070904,36.5015635 24.6311091,39 28.8418382,39 C29.4814909,39 30,38.4792355 30,37.8368004 C30,37.1943652 29.4813751,36.6736008 28.8417223,36.6736008 Z" id="Path"></path>
                <path d="M19.5,27 C18.6715465,27 18,27.6607468 18,28.4758695 L18,28.5307719 C18.00375,29.3435332 18.6745465,30 19.4998422,30 C19.5020921,30 19.5044921,30 19.5067421,30 C20.3351878,29.9963103 21.0037343,29.3326118 21,28.5174891 L21,28.4758695 C21,27.6607468 20.3284378,27 19.5,27 Z" id="Path"></path>
            </g>
        </g>
    </g>
</svg>