<?xml version="1.0" encoding="UTF-8"?>
<svg width="40px" height="40px" viewBox="0 0 40 40" version="1.1" xmlns="http://www.w3.org/2000/svg" xmlns:xlink="http://www.w3.org/1999/xlink">
    <!-- Generator: Sketch 64 (93537) - https://sketch.com -->
    <title>item6</title>
    <desc>Created with Sketch.</desc>
    <g id="Compra-y-Recoge" stroke="none" stroke-width="1" fill="none" fill-rule="evenodd">
        <g id="HOME---Servicios---Compra-y-Recoge-V2---Desktop-HD" transform="translate(-1177.000000, -2615.000000)" fill="#0094BF" fill-rule="nonzero">
            <g id="item6" transform="translate(1177.000000, 2615.000000)">
                <path d="M34.1720591,5.81298825 C30.411879,2.06640625 25.4111437,0.0021972625 20.0836496,0 C9.10582748,0 0.171474824,8.89135744 0.167059132,19.8195801 C0.165587277,23.3129882 1.0825727,26.7231445 2.82553199,29.7290039 L-7.81597009e-14,40 L10.5580891,37.2436524 C13.4672732,38.8229981 16.7424666,39.6552734 20.0755542,39.65625 L20.0838949,39.65625 C31.0604905,39.65625 39.9958244,30.7641601 40,19.8354492 C40.0022025,14.5390625 37.9324844,9.55932619 34.1720591,5.81298825 Z M20.0836496,36.3088379 L20.0767808,36.3088379 C17.1065133,36.3076172 14.193404,35.5131836 11.6514556,34.0124512 L11.0472461,33.6552734 L4.78191477,35.2910156 L6.45422349,29.2116699 L6.06049374,28.5883789 C4.4033946,25.965332 3.5283579,22.9335938 3.52982791,19.8208008 C3.53326419,10.7375488 10.9594236,3.34765625 20.0902731,3.34765625 C24.5118209,3.34912113 28.6681838,5.06494138 31.7934901,8.17895506 C34.9187963,11.2929688 36.6389413,15.4321289 36.6374703,19.8342285 C36.6335444,28.9182129 29.2078757,36.3088379 20.0836496,36.3088379 L20.0836496,36.3088379 Z M29.1637191,23.9702149 C28.6662213,23.722168 26.2194549,22.5244141 25.76317,22.3588868 C25.3073757,22.1936035 24.9752199,22.1113281 24.6438001,22.6069336 C24.3118896,23.1025391 23.3583523,24.2182618 23.0679,24.548584 C22.7774477,24.8791504 22.487486,24.9206543 21.989743,24.6726074 C21.4919999,24.4248047 19.8886246,23.9016113 17.9876828,22.2143555 C16.5084367,20.9011231 15.5097615,19.2792969 15.2193091,18.7836914 C14.9293474,18.2875976 15.216856,18.0454101 15.437639,17.7729493 C15.9763496,17.1071778 16.5157961,16.4091797 16.6816286,16.0788574 C16.8477066,15.748291 16.764545,15.4589844 16.6399252,15.2111816 C16.5157961,14.9633789 15.5205553,12.5256348 15.1059738,11.5336914 C14.7016956,10.5683594 14.2917752,10.6987305 13.9861133,10.6835938 C13.6961517,10.6691894 13.3642412,10.6662598 13.0323307,10.6662598 C12.7006656,10.6662598 12.1614644,10.7900391 11.7051795,11.2861328 C11.2491399,11.7819824 9.96369214,12.9799805 9.96369214,15.4177246 C9.96369214,17.8554688 11.7468829,20.2104493 11.9956318,20.5410156 C12.2443807,20.871582 15.5048552,25.8740234 20.4967591,28.019043 C21.6840811,28.5297851 22.6108792,28.8342285 23.3338209,29.0625 C24.5260491,29.4394531 25.6105844,29.3862305 26.4682038,29.2587891 C27.4244395,29.1164551 29.4122226,28.0605469 29.8272947,26.9038086 C30.2418761,25.7468262 30.2418761,24.7553711 30.1172563,24.548584 C29.9931272,24.342041 29.6612168,24.2182618 29.1637191,23.9702149 L29.1637191,23.9702149 Z" id="Shape"></path>
            </g>
        </g>
    </g>
</svg>