<?xml version="1.0" encoding="UTF-8"?>
<svg width="131px" height="131px" viewBox="0 0 131 131" version="1.1" xmlns="http://www.w3.org/2000/svg" xmlns:xlink="http://www.w3.org/1999/xlink">
    <!-- Generator: Sketch 64 (93537) - https://sketch.com -->
    <title>item-02</title>
    <desc>Created with Sketch.</desc>
    <g id="Compra-y-Recoge" stroke="none" stroke-width="1" fill="none" fill-rule="evenodd">
        <g id="HOME---Servicios---Compra-y-Recoge-V2---Desktop-HD" transform="translate(-656.000000, -1040.000000)">
            <g id="item-02" transform="translate(655.986842, 1040.000000)">
                <circle id="Oval-Copy" fill="#0094BF" cx="65.2565789" cy="65.2565789" r="65.2565789"></circle>
                <g id="Group-5" transform="translate(16.763158, 15.565789)" fill="#FFFFFF" fill-rule="nonzero">
                    <path d="M83.2397059,66.4308153 C82.4719222,65.6633142 81.226756,65.6635108 80.4591689,66.4314049 L73.6381825,73.2528286 L66.8171961,66.4314049 C66.0498056,65.6635108 64.8046394,65.6631177 64.036659,66.4308153 C63.2686787,67.1981198 63.2684821,68.4424346 64.0360692,69.2103287 L70.8582353,76.0329316 L64.0360692,82.8555345 C63.2684821,83.6232321 63.2686787,84.8675469 64.036659,85.6350479 C64.4204526,86.0187002 64.9235918,86.2105263 65.4265343,86.2105263 C65.9298701,86.2105263 66.4332059,86.0185036 66.8169994,85.6344583 L73.6379859,78.8130347 L80.4589723,85.6344583 C80.8427658,86.0185036 81.3461016,86.2105263 81.8494374,86.2105263 C82.3525766,86.2105263 82.8555192,86.0187002 83.2393127,85.6350479 C84.007293,84.8677434 84.0074896,83.6234286 83.2399025,82.8555345 L76.4177364,76.0329316 L83.2399025,69.2103287 C84.0078828,68.4426311 84.0076862,67.1981198 83.2397059,66.4308153 L83.2397059,66.4308153 Z" id="Path"></path>
                    <path d="M90.2471412,59.6941665 C88.190582,57.621323 85.8386066,56.0244241 83.3270872,54.90017 L83.3270872,26.2881746 C83.3270872,21.2829922 79.2897956,17.2106767 74.3273796,17.2106767 C72.413621,17.2106767 70.6370818,17.8164773 69.1769364,18.8479494 L69.1769364,14.8105727 C69.1769364,9.80539032 65.1396448,5.73326894 60.1772288,5.73326894 C58.2011153,5.73326894 56.3720363,6.37886099 54.8857171,7.47205836 C54.1320688,3.23009542 50.4465824,0 46.0272705,0 C41.6079585,0 37.9222797,3.23009542 37.1686314,7.47205836 C35.6823122,6.37886099 33.8530408,5.73326894 31.8771197,5.73326894 C26.9148961,5.73326894 22.8776046,9.80539032 22.8776046,14.8105727 L22.8776046,43.8882252 C22.8776046,44.960071 23.7392193,45.3469398 24.8019481,45.3469398 C25.8646769,45.3469398 26.7266765,44.960071 26.7266765,43.8882252 L26.7266765,14.8105727 C26.7266765,11.9459764 29.037082,9.61536187 31.8771197,9.61536187 C34.7171575,9.61536187 37.0277553,11.9459764 37.0277553,14.8105727 L37.0277553,37.5289688 C37.0277553,38.6008146 37.8895626,39.4700152 38.9522913,39.4700152 C40.0150201,39.4700152 40.8768273,38.6008146 40.8768273,37.5289688 L40.8768273,9.07749789 C40.8768273,6.21270742 43.1874252,3.88209293 46.0274629,3.88209293 C48.8675007,3.88209293 51.1779061,6.21270742 51.1779061,9.07749789 L51.1779061,38.9760189 C51.1779061,40.0478647 52.0397133,40.9170654 53.1024421,40.9170654 C54.1651709,40.9170654 55.0269781,40.0478647 55.0269781,38.9760189 L55.0269781,14.8105727 C55.0269781,11.9459764 57.337576,9.61536187 60.1776137,9.61536187 C63.0176514,9.61536187 65.3282493,11.9459764 65.3282493,14.8105727 L65.3282493,38.9760189 C65.3282493,40.0478647 66.1900566,40.9170654 67.2527853,40.9170654 C68.3155141,40.9170654 69.1773213,40.0478647 69.1773213,38.9760189 L69.1773213,26.2881746 C69.1773213,23.4233841 71.4877267,21.0927696 74.3277645,21.0927696 C77.1678022,21.0927696 79.4784001,23.4233841 79.4784001,26.2881746 L79.4784001,53.5736588 C71.901502,51.6991902 63.5580612,53.739036 57.6499282,59.6941665 C52.1836686,65.2079031 50.0430073,72.8239871 51.2265969,79.9847016 L34.7735464,79.9847016 C28.3844718,79.9847016 27.3558073,78.8249264 23.0269486,73.9437768 C22.6662905,73.5369335 22.2863871,73.1085445 21.8828119,72.6578335 L5.25693808,54.0890067 C3.3029567,51.9035824 3.37589662,48.6614525 5.42302553,46.7081775 C7.46784501,44.7568435 10.7412883,44.8529253 12.7193263,46.9203339 L23.4164747,58.1116313 C23.9611183,58.6815226 24.7940575,58.8604871 25.5221095,58.5644775 C26.2497765,58.2682738 26.7264841,57.5561038 26.7264841,56.7645451 L26.7264841,42.0409313 C26.7264841,40.9690854 25.8646769,40.0998848 24.8019481,40.0998848 C23.7392193,40.0998848 22.8774121,40.9690854 22.8774121,42.0409313 L22.8774121,51.9544379 L15.4896959,44.2255791 C12.0520897,40.6321197 6.34949715,40.480524 2.77775083,43.8882252 C1.04239674,45.5437437 0.0568418703,47.7914755 0.00237750214,50.2172013 C-0.051124598,52.6029415 0.799905211,54.9013346 2.39919461,56.690203 L19.0260307,75.2601945 C19.4253719,75.706247 19.8010414,76.1297834 20.1578503,76.5321623 C24.6243134,81.5685955 26.6629744,83.8671828 34.7733539,83.8671828 L52.2140763,83.8671828 C53.3210694,87.0473933 55.1324426,90.0315581 57.6489659,92.5698646 C62.0043833,96.9622586 67.7928101,99.3815789 73.948246,99.3815789 C80.1036819,99.3815789 85.8923012,96.9622586 90.2473336,92.5694764 C99.233377,83.5057599 99.233377,68.7582712 90.2471412,59.6941665 Z M87.5256548,89.8244485 C83.8973272,93.4839034 79.0755947,95.499486 73.948246,95.499486 C68.8208972,95.499486 63.9991648,93.4839034 60.3708371,89.8244485 C52.8857393,82.2745541 52.8855469,69.9900593 60.3706447,62.4399709 C67.8574745,54.8933763 80.0392099,54.8933763 87.5256548,62.4397768 C95.0109451,69.9896711 95.0109451,82.27436 87.5256548,89.8244485 L87.5256548,89.8244485 Z" id="Shape"></path>
                </g>
            </g>
        </g>
    </g>
</svg>