<?xml version="1.0" encoding="UTF-8"?>
<svg width="46px" height="46px" viewBox="0 0 46 46" version="1.1" xmlns="http://www.w3.org/2000/svg" xmlns:xlink="http://www.w3.org/1999/xlink">
    <!-- Generator: Sketch 64 (93537) - https://sketch.com -->
    <title>item4</title>
    <desc>Created with Sketch.</desc>
    <g id="Compra-y-Recoge" stroke="none" stroke-width="1" fill="none" fill-rule="evenodd">
        <g id="HOME---Servicios---Compra-y-Recoge-V2---Desktop-HD" transform="translate(-1172.000000, -2429.000000)" fill="#0094BF" fill-rule="nonzero">
            <g id="item4" transform="translate(1172.000000, 2429.000000)">
                <path d="M23,46 C16.8564844,46 11.0806992,43.6075508 6.73648438,39.2635156 C2.39244922,34.9193008 0,29.1435156 0,23 C0,16.8564844 2.39244922,11.0806992 6.73648438,6.73648438 C11.0806992,2.39244922 16.8564844,0 23,0 C29.1435156,0 34.9193008,2.39244922 39.2635156,6.73648438 C43.6075508,11.0806992 46,16.8564844 46,23 C46,29.1435156 43.6075508,34.9193008 39.2635156,39.2635156 C34.9193008,43.6075508 29.1435156,46 23,46 Z M23,2.6953125 C17.5764023,2.6953125 12.4775,4.80735938 8.64242969,8.64242969 C4.80735937,12.4775 2.6953125,17.5764023 2.6953125,23 C2.6953125,28.4235977 4.80735937,33.5225 8.64242969,37.3575703 C12.4775,41.1926406 17.5764023,43.3046875 23,43.3046875 C28.4235977,43.3046875 33.5225,41.1926406 37.3575703,37.3575703 C41.1926406,33.5225 43.3046875,28.4235977 43.3046875,23 C43.3046875,17.5764023 41.1926406,12.4775 37.3575703,8.64242969 C33.5225,4.80735937 28.4235977,2.6953125 23,2.6953125 Z" id="Shape"></path>
                <polygon id="Path" points="22 6 24 6 24 9 22 9"></polygon>
                <polygon id="Path" transform="translate(34.172879, 11.824570) rotate(-45.000000) translate(-34.172879, -11.824570) " points="32.374838 10.4771172 35.9709198 10.4771172 35.9709198 13.1720226 32.374838 13.1720226"></polygon>
                <polygon id="Path" points="37 22 40 22 40 24 37 24"></polygon>
                <polygon id="Path" transform="translate(34.170489, 34.177820) rotate(-45.000000) translate(-34.170489, -34.177820) " points="32.823036 32.3797794 35.5179414 32.3797794 35.5179414 35.9758612 32.823036 35.9758612"></polygon>
                <polygon id="Path" points="22 37 24 37 24 40 22 40"></polygon>
                <polygon id="Path" transform="translate(11.817238, 34.175430) rotate(-45.000000) translate(-11.817238, -34.175430) " points="10.0191973 32.8279774 13.6152792 32.8279774 13.6152792 35.5228828 10.0191973 35.5228828"></polygon>
                <polygon id="Path" points="6 22 9 22 9 24 6 24"></polygon>
                <polygon id="Path" transform="translate(11.819628, 11.822180) rotate(-45.000000) translate(-11.819628, -11.822180) " points="10.4721757 10.0241388 13.1670812 10.0241388 13.1670812 13.6202206 10.4721757 13.6202206"></polygon>
                <polygon id="Path" points="32 24 22 24 22 14 24.4815538 14 24.4815538 21.5184462 32 21.5184462"></polygon>
            </g>
        </g>
    </g>
</svg>