<?xml version="1.0" encoding="UTF-8"?>
<svg width="132px" height="131px" viewBox="0 0 132 131" version="1.1" xmlns="http://www.w3.org/2000/svg" xmlns:xlink="http://www.w3.org/1999/xlink">
    <!-- Generator: Sketch 64 (93537) - https://sketch.com -->
    <title>item-01</title>
    <desc>Created with Sketch.</desc>
    <g id="Compra-y-Recoge" stroke="none" stroke-width="1" fill="none" fill-rule="evenodd">
        <g id="HOME---Servicios---Compra-y-Recoge-V2---Desktop-HD" transform="translate(-328.000000, -1040.000000)">
            <g id="item-01" transform="translate(328.815789, 1040.000000)">
                <circle id="Oval-Copy-2" fill="#0094BF" cx="65.2565789" cy="65.2565789" r="65.2565789"></circle>
                <g id="Group-4" transform="translate(16.763158, 25.144737)" fill="#FFFFFF" fill-rule="nonzero">
                    <path d="M92.125731,27.5824731 L90.0380117,25.3676723 L82.7105263,5.57801687 C81.4619883,2.23530823 78.2690058,0.0205074149 74.7076023,0 L22.371345,0 C18.8099415,0 15.6169591,2.23530823 14.3684211,5.57801687 L7.14327485,25.1215833 L4.13450292,27.9105917 C1.51461988,30.1459 0,33.4270864 0,36.8723321 L0,65.7057575 C0.0204678363,70.4224629 3.84795322,74.2368421 8.55555556,74.2368421 L13.9590643,74.2368421 C18.6666667,74.2368421 22.494152,70.4224629 22.5146199,65.7057575 L22.5146199,61.5222448 L73.2748538,61.5222448 L73.2748538,65.7057575 C73.2953216,70.4224629 77.122807,74.2368421 81.8304094,74.2368421 L87.2339181,74.2368421 C91.9415205,74.2368421 95.7690058,70.4224629 95.7894737,65.7057575 L95.7894737,36.1135577 C95.7690058,32.8938936 94.4590643,29.8177813 92.125731,27.5824731 Z M18.2163743,6.97252108 C18.871345,5.22939081 20.5292398,4.10148299 22.371345,4.10148299 L74.7280702,4.10148299 C76.5701754,4.10148299 78.2280702,5.24989823 78.8830409,6.97252108 L85.2690058,24.1987496 L80.5,24.1987496 C79.374269,16.508469 72.2309942,11.1970486 64.5555556,12.3454638 C58.4356725,13.2477901 53.625731,18.0670326 52.7251462,24.1987496 L11.8304094,24.1987496 L18.2163743,6.97252108 Z M76.3245614,24.1987496 L56.8596491,24.1987496 C57.9853801,18.8052995 63.2660819,15.3600538 68.6491228,16.4879616 C72.497076,17.3082582 75.505848,20.3228482 76.3245614,24.1987496 Z M18.4210526,65.7057575 C18.4005848,68.1666473 16.4152047,70.1353591 13.9590643,70.1353591 L8.55555556,70.1353591 C6.0994152,70.1353591 4.11403509,68.1666473 4.09356725,65.7057575 L4.09356725,60.3328148 C5.32163743,61.132604 6.93859649,61.5222448 8.55555556,61.5222448 L18.4210526,61.5222448 L18.4210526,65.7057575 Z M91.6959064,65.7057575 C91.6754386,68.1666473 89.6900585,70.1353591 87.2339181,70.1353591 L81.8304094,70.1353591 C79.374269,70.1353591 77.3888889,68.1461399 77.3684211,65.7057575 L77.3684211,61.5222448 L87.2339181,61.5222448 C88.8508772,61.5222448 90.4678363,61.132604 91.6959064,60.3328148 L91.6959064,65.7057575 Z M87.2339181,57.4209223 L8.55555556,57.4209223 C6.11988304,57.4412693 4.11403509,55.4930648 4.09356725,53.0321751 L4.09356725,36.8723321 C4.09356725,34.6165164 5.09649123,32.4632379 6.81578947,31.0072114 C6.83625731,30.986704 6.87719298,30.9456892 6.89766082,30.9251817 L9.68128655,28.3002326 L87.1929825,28.3002326 L89.1578947,30.4124964 C89.1783626,30.4535112 89.2397661,30.4740186 89.2602339,30.5150334 C90.7953216,31.9710599 91.6754386,34.001294 91.6754386,36.1135577 L91.6754386,53.0321751 L91.6959064,53.0321751 C91.6754386,55.4725574 89.6695906,57.4412693 87.2339181,57.4209223 Z" id="Shape"></path>
                    <path d="M26.7202216,37.1184211 L11.5955679,37.1184211 C10.4864266,37.1184211 9.57894737,38.0164474 9.57894737,39.1140351 L9.57894737,49.4912281 C9.57894737,50.5888158 10.4864266,51.4868421 11.5955679,51.4868421 L26.7202216,51.4868421 C27.8293629,51.4868421 28.7368421,50.5888158 28.7368421,49.4912281 L28.7368421,39.1140351 C28.7368421,38.0164474 27.8293629,37.1184211 26.7202216,37.1184211 Z M24.7036011,47.495614 L13.6121884,47.495614 L13.6121884,41.1096491 L24.7036011,41.1096491 L24.7036011,47.495614 Z" id="Shape"></path>
                    <path d="M84.1939058,37.1184211 L69.0692521,37.1184211 C67.9601108,37.1184211 67.0526316,38.0164474 67.0526316,39.1140351 L67.0526316,49.4912281 C67.0526316,50.5888158 67.9601108,51.4868421 69.0692521,51.4868421 L84.1939058,51.4868421 C85.3030471,51.4868421 86.2105263,50.5888158 86.2105263,49.4912281 L86.2105263,39.1140351 C86.2105263,38.0164474 85.3030471,37.1184211 84.1939058,37.1184211 Z M82.1772853,47.495614 L71.0858726,47.495614 L71.0858726,41.1096491 L82.1772853,41.1096491 L82.1772853,47.495614 Z" id="Shape"></path>
                    <path d="M57.8146159,45.5 L37.9748578,45.5 C36.845265,45.5 35.9210526,46.3082237 35.9210526,47.2960526 C35.9210526,48.2838816 36.845265,49.0921053 37.9748578,49.0921053 L57.8146159,49.0921053 C58.9442087,49.0921053 59.8684211,48.2838816 59.8684211,47.2960526 C59.8684211,46.3082237 58.9442087,45.5 57.8146159,45.5 Z" id="Path"></path>
                    <path d="M57.8146159,39.5131579 L37.9748578,39.5131579 C36.845265,39.5131579 35.9210526,40.3213816 35.9210526,41.3092105 C35.9210526,42.2970395 36.845265,43.1052632 37.9748578,43.1052632 L57.8146159,43.1052632 C58.9442087,43.1052632 59.8684211,42.2970395 59.8684211,41.3092105 C59.8684211,40.3213816 58.9442087,39.5131579 57.8146159,39.5131579 Z" id="Path"></path>
                </g>
            </g>
        </g>
    </g>
</svg>