<?xml version="1.0" encoding="UTF-8"?>
<svg width="480px" height="45px" viewBox="0 0 480 45" version="1.1" xmlns="http://www.w3.org/2000/svg" xmlns:xlink="http://www.w3.org/1999/xlink">
    <title>logos</title>
    <g id="Compra-y-Recoge" stroke="none" stroke-width="1" fill="none" fill-rule="evenodd">
        <g id="HOME---Servicios---Compra-y-Recoge-V2---Desktop-HD-2" transform="translate(-149.000000, -874.000000)">
            <g id="logos" transform="translate(149.000000, 874.000000)">
                <g id="Group-4">
                    <path d="M126.021429,44.4607143 L22.0078571,44.4607143 C9.85285714,44.4607143 8.12048841e-14,34.6071429 8.12048841e-14,22.4521429 L8.12048841e-14,22.0078571 C8.12048841e-14,9.85357143 9.85285714,0 22.0078571,0 L126.021429,0 C138.176429,0 148.03,9.85357143 148.03,22.0078571 L148.03,22.4521429 C148.03,34.6071429 138.176429,44.4607143 126.021429,44.4607143" id="Fill-30" fill="#FFEB00"></path>
                    <path d="M27.3578571,19.1435714 C27.5357143,18.9178571 27.7778571,18.725 28.0928571,18.5628571 C28.3857143,18.41 28.775,18.3278571 29.27,18.3278571 C29.6414286,18.3278571 29.9585714,18.3778571 30.2185714,18.4728571 C30.4778571,18.5685714 30.6807143,18.7007143 30.845,18.8807143 C31.1357143,19.2 31.3657143,19.6692857 31.5207143,20.2921429 L26.87,20.2921429 C26.8935714,20.1635714 26.9257143,20.0221429 26.9692857,19.8735714 C27.0442857,19.62 27.1714286,19.3764286 27.3578571,19.1435714 M35.1928571,19.9342857 C34.9671429,19.0535714 34.6042857,18.2664286 34.0971429,17.5764286 C33.5871429,16.8807143 32.9328571,16.325 32.1421429,15.9142857 C31.3407143,15.5 30.4092857,15.2942857 29.36,15.2942857 C28.4178571,15.2942857 27.5528571,15.4635714 26.77,15.8007143 C25.9914286,16.1378571 25.3157143,16.6021429 24.7528571,17.1921429 C24.1871429,17.7814286 23.7528571,18.48 23.4471429,19.2821429 C23.1421429,20.0871429 22.9928571,20.9521429 22.9928571,21.8735714 C22.9928571,22.825 23.1378571,23.7057143 23.435,24.5078571 C23.7314286,25.31 24.1542857,26.0064286 24.7042857,26.5885714 C25.2571429,27.1728571 25.9307143,27.625 26.72,27.9378571 C27.5085714,28.2514286 28.3935714,28.4085714 29.36,28.4085714 C30.7542857,28.4085714 31.9685714,28.0921429 32.9721429,27.4414286 C33.4807143,27.1135714 33.9242857,26.6771429 34.2971429,26.1371429 C34.67,25.6028571 34.9714286,24.9635714 35.2092857,24.2278571 L35.2935714,23.9721429 C35.2935714,23.9721429 35.3392857,23.8592857 35.2,23.8592857 L31.9985714,23.8592857 C31.8321429,23.8592857 31.815,23.9542857 31.815,23.9542857 L31.7842857,24.0607143 C31.745,24.2035714 31.6657143,24.3435714 31.5392857,24.4928571 C31.4164286,24.6421429 31.2428571,24.7957143 31.0221429,24.9478571 C30.595,25.2385714 30.09,25.3871429 29.4742857,25.3871429 C29.0392857,25.3871429 28.6621429,25.3335714 28.345,25.2228571 C28.025,25.1178571 27.7657143,24.9621429 27.5528571,24.755 C27.3414286,24.5507143 27.1742857,24.2821429 27.0507143,23.9292857 C26.9528571,23.6492857 26.8864286,23.3185714 26.8514286,22.9364286 L35.2835714,22.9364286 C35.4185714,22.9364286 35.4235714,22.7821429 35.4235714,22.7821429 L35.43,22.6707143 C35.4435714,22.4621429 35.45,22.2521429 35.45,22.045 C35.45,21.3164286 35.365,20.6142857 35.1928571,19.9342857" id="Fill-31" fill="#000000"></path>
                    <path d="M47.3964286,27.9978571 L42.8685714,21.4785714 L46.9585714,15.6571429 C46.9585714,15.6571429 47.0121429,15.585 46.8671429,15.585 L42.7314286,15.585 C42.5992857,15.585 42.5642857,15.6592857 42.5642857,15.6592857 L40.7085714,18.4435714 L38.8385714,15.6735714 C38.8385714,15.6735714 38.7728571,15.585 38.6407143,15.585 L34.39,15.585 C34.2671429,15.585 34.3307143,15.6671429 34.3307143,15.6671429 L34.6157143,16.08 L38.4107143,21.55 L33.9914286,28.0121429 C33.9914286,28.0121429 33.9092857,28.1335714 34.0557143,28.1335714 L38.2028571,28.1335714 C38.3721429,28.1335714 38.4357143,27.9921429 38.4357143,27.9921429 L40.6628571,24.6328571 L42.8885714,27.9907143 C42.8885714,27.9907143 42.9757143,28.1335714 43.1228571,28.1335714 L47.3307143,28.1335714 C47.4885714,28.1335714 47.3964286,27.9978571 47.3964286,27.9978571" id="Fill-32" fill="#000000"></path>
                    <path d="M52.63,15.5807143 L47.855,15.5807143 C47.6885714,15.5807143 47.7135714,15.6957143 47.7135714,15.6957143 L48.4014286,27.98 C48.4014286,27.98 48.4142857,28.1335714 48.5435714,28.1335714 L51.9228571,28.1335714 C52.065,28.1335714 52.065,27.9764286 52.065,27.9764286 L52.7528625,15.7185714 C52.7528625,15.7185714 52.7557143,15.5807143 52.63,15.5807143" id="Fill-33" fill="#000000"></path>
                    <path d="M61.7192857,18.4014286 C61.7192857,18.4014286 61.848604,18.3942857 61.848604,18.25 L61.848604,15.7078571 C61.848604,15.7078571 61.8542857,15.585 61.7142857,15.585 L59.4514286,15.585 L59.4514286,12.1471429 C59.4514286,12.1471429 59.4585714,12.0064286 59.315,12.0064286 L55.6792857,12.0064286 C55.5342857,12.0064286 55.5464286,12.1435714 55.5464286,12.1435714 L55.5464286,15.585 L53.7107143,15.585 C53.5442857,15.585 53.5628571,15.695 53.5628571,15.695 L53.5628571,18.2607143 C53.5628571,18.2607143 53.5464286,18.4014286 53.6871429,18.4014286 L55.5464286,18.4014286 L55.5464286,25.1178571 C55.5464286,25.75 55.6507143,26.285 55.8857143,26.7178571 C56.1092857,27.1357143 56.4264286,27.4657143 56.8214286,27.695 C57.2071429,27.9171429 57.6457143,28.0635714 58.13,28.1378571 C58.6021429,28.2078571 59.0978571,28.2435714 59.62,28.2435714 C59.9471429,28.2435714 60.28,28.2385714 60.625,28.2207143 C60.9728571,28.2071429 61.2907143,28.1764286 61.5828571,28.1292857 L61.7242857,28.1057143 C61.7242857,28.1057143 61.848604,28.1021429 61.848604,27.945 L61.848604,25.0178571 C61.848604,24.8628571 61.7192857,24.915 61.7192857,24.915 L61.4707143,24.9635714 C61.3292857,24.9921429 61.1778571,25.0142857 61.02,25.0285714 C60.8614286,25.0442857 60.6942857,25.0514286 60.5178571,25.0514286 C60.2607143,25.0514286 60.0514286,25.0264286 59.9035714,24.9921429 C59.755,24.9528571 59.6692857,24.9035714 59.6357143,24.8678571 C59.5971429,24.8307143 59.5471429,24.7478571 59.5121429,24.5978571 C59.4728571,24.45 59.4514286,24.2435714 59.4514286,23.9835714 L59.4514286,18.4014286 L61.7192857,18.4014286 Z" id="Fill-34" fill="#000000"></path>
                    <path d="M69.7864286,25.0757143 C69.4678571,25.2585714 69.0585714,25.3571429 68.5478571,25.3571429 C68.0321429,25.3571429 67.6292857,25.2585714 67.3207143,25.0785714 C66.995,24.8871429 66.74,24.6385714 66.5407143,24.3185714 C66.3392857,23.9907143 66.1971429,23.6228571 66.1107143,23.2021429 C66.0221429,22.7685714 65.9771429,22.3264286 65.9771429,21.87 C65.9771429,21.4157143 66.0221429,20.9671429 66.1107143,20.525 C66.1971429,20.0978571 66.3392857,19.7285714 66.54,19.41 C66.7392857,19.0985714 66.9971429,18.8492857 67.3257143,18.6471429 C67.6321429,18.4621429 68.0342857,18.3592857 68.5478571,18.3592857 C69.0585714,18.3592857 69.465,18.4621429 69.7814286,18.6485714 C70.12,18.8507143 70.3792857,19.1007143 70.575,19.41 C70.7757143,19.7285714 70.9207143,20.0978571 71.005,20.525 C71.0942857,20.9671429 71.1392857,21.4157143 71.1392857,21.87 C71.1392857,22.3264286 71.0942857,22.7685714 71.005,23.2021429 C70.9207143,23.6228571 70.7757143,23.9921429 70.575,24.3185714 C70.3778571,24.6371429 70.1221429,24.8857143 69.7864286,25.0757143 M74.5828571,19.1692857 C74.2771429,18.3542857 73.8392857,17.6535714 73.2671429,17.0771429 C72.6971429,16.4971429 72.0071429,16.0485714 71.21,15.7335714 C70.4085714,15.4178571 69.5178571,15.2628571 68.5478571,15.2628571 C67.5771429,15.2628571 66.6885714,15.4178571 65.8928571,15.7335714 C65.1028571,16.0485714 64.4171429,16.4971429 63.8485714,17.0771429 C63.2785714,17.6535714 62.8392857,18.3542857 62.5335714,19.1692857 C62.2271429,19.9835714 62.0757143,20.8907143 62.0757143,21.8735714 C62.0757143,22.8592857 62.2271429,23.7614286 62.5335714,24.5678571 C62.8392857,25.3764286 63.2785714,26.0721429 63.8485714,26.6485714 C64.4207143,27.2271429 65.1028571,27.6757143 65.8964286,27.9785714 C66.6892857,28.2885714 67.5785714,28.4378571 68.5478571,28.4378571 C69.5171429,28.4378571 70.4071429,28.2885714 71.2071429,27.9785714 C72.005,27.6757143 72.6971429,27.2271429 73.2671429,26.6485714 C73.8392857,26.0721429 74.2771429,25.3764286 74.5828571,24.5678571 C74.89,23.7614286 75.0421429,22.8592857 75.0421429,21.8735714 C75.0421429,20.8907143 74.89,19.9835714 74.5828571,19.1692857" id="Fill-35" fill="#000000"></path>
                    <path d="M52.5714286,31.1257143 C52.5714286,29.8314286 51.5228571,28.7835714 50.2328571,28.7835714 C48.9421429,28.7835714 47.8942857,29.8314286 47.8942857,31.1257143 C47.8942857,32.4178571 48.9421429,33.4635714 50.2328571,33.4635714 C51.5228571,33.4635714 52.5714286,32.4178571 52.5714286,31.1257143" id="Fill-36" fill="#E2241C"></path>
                    <path d="M79.3728571,24.3307143 C79.8071429,24.765 80.025,25.2864286 80.025,25.8935714 C80.025,26.5178571 79.8114286,27.0428571 79.3857143,27.47 C78.9585714,27.8957143 78.4164286,28.1092857 77.76,28.1092857 C77.1207143,28.1092857 76.5871429,27.9 76.16,27.4814286 C75.7335714,27.0628571 75.52,26.5335714 75.52,25.8935714 C75.52,25.2864286 75.7335714,24.765 76.16,24.3307143 C76.5871429,23.8957143 77.1207143,23.6785714 77.76,23.6785714 C78.4007143,23.6785714 78.9378571,23.8957143 79.3728571,24.3307143" id="Fill-37" fill="#1D7BA0"></path>
                    <path d="M89.695,22.7428571 L93.3135714,23.5307143 C93.0021429,24.9742857 92.2635714,26.14 91.0985714,27.0257143 C89.9328571,27.9121429 88.5707143,28.355 87.0114286,28.355 C85.125,28.355 83.5285714,27.7435714 82.2235714,26.5214286 C80.9192857,25.2985714 80.2671429,23.7271429 80.2671429,21.8071429 C80.2671429,19.9028571 80.9192857,18.3364286 82.2235714,17.105 C83.5285714,15.875 85.125,15.2585714 87.0114286,15.2585714 C88.5378571,15.2585714 89.8842857,15.6942857 91.0492857,16.5642857 C92.2142857,17.4335714 92.9692857,18.5828571 93.3135714,20.01 L89.6207143,20.8964286 C89.4571429,20.1742857 89.145,19.6285714 88.6857143,19.2592857 C88.2257143,18.89 87.6678571,18.7057143 87.0114286,18.7057143 C86.1257143,18.7057143 85.4114286,18.9971429 84.87,19.5792857 C84.3285714,20.1621429 84.0571429,20.9042857 84.0571429,21.8071429 C84.0571429,22.7264286 84.3285714,23.4728571 84.87,24.0471429 C85.4114286,24.6214286 86.1257143,24.9085714 87.0114286,24.9085714 C88.3907143,24.9085714 89.285,24.1864286 89.695,22.7428571" id="Fill-38" fill="#1D7BA0"></path>
                    <path d="M102.495,24.1085714 C103.085714,23.5092857 103.381429,22.7428571 103.381429,21.8071429 C103.381429,20.8714286 103.082143,20.105 102.482857,19.5057143 C101.884286,18.9064286 101.190714,18.6071429 100.402857,18.6071429 C99.5821429,18.6071429 98.8685714,18.9064286 98.2607143,19.5057143 C97.6542857,20.105 97.3507143,20.8714286 97.3507143,21.8071429 C97.3507143,22.7428571 97.65,23.5092857 98.2492857,24.1085714 C98.8478571,24.7078571 99.5657143,25.0071429 100.402857,25.0071429 C101.206429,25.0071429 101.904286,24.7078571 102.495,24.1085714 M105.202857,17.1292857 C106.516429,18.3442857 107.172857,19.9028571 107.172857,21.8071429 C107.172857,23.7271429 106.516429,25.2942857 105.202857,26.5085714 C103.89,27.7235714 102.29,28.3307143 100.402857,28.3307143 C98.4828571,28.3307143 96.8621429,27.7235714 95.5414286,26.5085714 C94.22,25.2942857 93.5592857,23.7271429 93.5592857,21.8071429 C93.5592857,19.9028571 94.22,18.3442857 95.5414286,17.1292857 C96.8621429,15.915 98.4828571,15.3085714 100.402857,15.3085714 C102.29,15.3085714 103.89,15.915 105.202857,17.1292857" id="Fill-39" fill="#1D7BA0"></path>
                    <path d="M127.112143,16.65 C128.015,17.5771429 128.466429,18.7792857 128.466429,20.2564286 L128.466429,27.9864286 L124.551429,27.9864286 L124.551429,21.0935714 C124.551429,20.4042857 124.355,19.85 123.960714,19.4321429 C123.567143,19.0135714 123.075,18.8042857 122.484286,18.8042857 C121.745,18.8042857 121.158571,19.0707143 120.723571,19.6042857 C120.288571,20.1378571 120.071429,20.9128571 120.071429,21.9307143 L120.071429,27.9864286 L116.132857,27.9864286 L116.132857,21.0935714 C116.132857,20.4042857 115.935714,19.85 115.542143,19.4321429 C115.147857,19.0135714 114.647857,18.8042857 114.04,18.8042857 C113.301429,18.8042857 112.722857,19.0707143 112.305,19.6042857 C111.886429,20.1378571 111.677143,20.9128571 111.677143,21.9307143 L111.677143,27.9864286 L107.738571,27.9864286 L107.738571,15.6285714 L111.677143,15.6285714 L111.677143,16.7607143 C112.579286,15.76 113.793571,15.2592857 115.32,15.2592857 C117.142143,15.2592857 118.487857,15.9564286 119.357857,17.3514286 C120.424286,15.9564286 121.885,15.2592857 123.739286,15.2592857 C125.085,15.2592857 126.209286,15.7228571 127.112143,16.65" id="Fill-40" fill="#1D7BA0"></path>
                </g>
                <g id="Group-3" transform="translate(155.714286, 0.000000)">
                    <path d="M99.5792857,44.4607143 L22.0071429,44.4607143 C9.85285714,44.4607143 -8.12048841e-14,34.6071429 -8.12048841e-14,22.4521429 L-8.12048841e-14,22.0078571 C-8.12048841e-14,9.85357143 9.85285714,0 22.0071429,0 L99.5792857,0 C111.734286,0 121.587143,9.85357143 121.587143,22.0078571 L121.587143,22.4521429 C121.587143,34.6071429 111.734286,44.4607143 99.5792857,44.4607143" id="Fill-41" fill="#FFEB00"></path>
                    <path d="M60.8192857,22.6964286 C60.8192857,20.89 59.4578571,19.6457143 57.9314286,19.6457143 C56.2878571,19.6457143 55.09,20.89 55.09,22.6964286 C55.09,24.5278571 56.2878571,25.7485714 57.9314286,25.7485714 C59.4578571,25.7485714 60.8192857,24.5278571 60.8192857,22.6964286 L60.8192857,22.6964286 Z M64.5757143,28.5892857 L60.8192857,28.5892857 L60.8192857,27.6507143 C59.9035714,28.4721429 58.6828571,28.9421429 57.1564286,28.9421429 C54.0342857,28.9421429 51.4042857,26.43 51.4042857,22.6964286 C51.4042857,18.9885714 54.0342857,16.4521429 57.1564286,16.4521429 C58.6828571,16.4521429 59.9035714,16.9221429 60.8192857,17.7435714 L60.8192857,16.805 L64.5757143,16.805 L64.5757143,28.5892857 Z" id="Fill-42" fill="#2B2928"></path>
                    <path d="M75.8414286,22.6964286 C75.8414286,20.89 74.6442857,19.6457143 73.0007143,19.6457143 C71.475,19.6457143 70.1128571,20.89 70.1128571,22.6964286 C70.1128571,24.5278571 71.475,25.7485714 73.0007143,25.7485714 C74.6442857,25.7485714 75.8414286,24.5278571 75.8414286,22.6964286 M79.5271429,22.6964286 C79.5271429,26.43 76.8978571,28.9421429 73.775,28.9421429 C72.25,28.9421429 71.0292857,28.4721429 70.1128571,27.6507143 L70.1128571,32.5807143 L66.3571429,32.5807143 L66.3571429,16.805 L70.1128571,16.805 L70.1128571,17.7435714 C71.0292857,16.9221429 72.25,16.4521429 73.775,16.4521429 C76.8978571,16.4521429 79.5271429,18.9885714 79.5271429,22.6964286" id="Fill-43" fill="#2B2928"></path>
                    <path d="M90.0192857,22.6964286 C90.0192857,20.89 88.8221429,19.6457143 87.1785714,19.6457143 C85.6528571,19.6457143 84.2907143,20.89 84.2907143,22.6964286 C84.2907143,24.5278571 85.6528571,25.7485714 87.1785714,25.7485714 C88.8221429,25.7485714 90.0192857,24.5278571 90.0192857,22.6964286 M93.705,22.6964286 C93.705,26.43 91.0757143,28.9421429 87.9528571,28.9421429 C86.4278571,28.9421429 85.2071429,28.4721429 84.2907143,27.6507143 L84.2907143,32.5807143 L80.535,32.5807143 L80.535,16.805 L84.2907143,16.805 L84.2907143,17.7435714 C85.2071429,16.9221429 86.4278571,16.4521429 87.9528571,16.4521429 C91.0757143,16.4521429 93.705,18.9885714 93.705,22.6964286" id="Fill-44" fill="#2B2928"></path>
                    <path d="M32.7028571,25.225 C32.0578571,25.225 31.5335714,24.7085714 31.5335714,24.0714286 C31.5335714,23.4321429 32.0578571,22.9157143 32.7028571,22.9157143 C33.3478571,22.9157143 33.8721429,23.4321429 33.8721429,24.0714286 C33.8721429,24.7085714 33.3478571,25.225 32.7028571,25.225" id="Fill-45" fill="#0081A9"></path>
                    <path d="M33.6185714,22.5178571 C33.6185714,22.5178571 33.6185714,22.5942857 33.5471429,22.5942857 L31.8578571,22.5942857 C31.7935714,22.5942857 31.7871429,22.5192857 31.7871429,22.5192857 L31.4435714,16.4564286 C31.4435714,16.4564286 31.4307143,16.3992857 31.5142857,16.3992857 L33.9014286,16.3992857 C33.9635714,16.3992857 33.9628573,16.4671429 33.9628573,16.4671429 L33.6185714,22.5178571 Z" id="Fill-46" fill="#0081A9"></path>
                    <path d="M39.5707143,34.9135714 L25.835,34.9135714 C25.0778571,34.9135714 24.4614286,34.3485714 24.4614286,33.6542857 L24.4614286,30.5207143 L40.9442857,30.5207143 L40.9442857,33.6542857 C40.9442857,34.3485714 40.3285714,34.9135714 39.5707143,34.9135714 L39.5707143,34.9135714 Z M25.835,9.27357143 L39.5707143,9.27357143 C40.3285714,9.27357143 40.9442857,9.83857143 40.9442857,10.5321429 L40.9442857,11.1042857 L24.4614286,11.1042857 L24.4614286,10.5321429 C24.4614286,9.83857143 25.0778571,9.27357143 25.835,9.27357143 L25.835,9.27357143 Z M24.4614286,12.9357143 L40.9442857,12.9357143 L40.9442857,28.6885714 L24.4614286,28.6885714 L24.4614286,12.9357143 Z M39.5707143,7.44142857 L25.835,7.44142857 C24.0678571,7.44142857 22.63,8.82714286 22.63,10.5321429 L22.63,33.6542857 C22.63,35.3585714 24.0678571,36.7442857 25.835,36.7442857 L39.5707143,36.7442857 C41.3378571,36.7442857 42.7757143,35.3585714 42.7757143,33.6542857 L42.7757143,10.5321429 C42.7757143,8.82714286 41.3378571,7.44142857 39.5707143,7.44142857 L39.5707143,7.44142857 Z" id="Fill-47" fill="#0081A9"></path>
                    <path d="M34.1314286,32.6885714 C34.1314286,33.4771429 33.4914286,34.1171429 32.7028571,34.1171429 C31.9142857,34.1171429 31.2742857,33.4771429 31.2742857,32.6885714 C31.2742857,31.9 31.9142857,31.2592857 32.7028571,31.2592857 C33.4914286,31.2592857 34.1314286,31.9 34.1314286,32.6885714" id="Fill-48" fill="#0081A9"></path>
                </g>
                <g id="Group" transform="translate(285.000000, 0.000000)">
                    <path d="M172.737143,44.4607143 L22.0078571,44.4607143 C9.85357143,44.4607143 0,34.6071429 0,22.4521429 L0,22.0078571 C0,9.85357143 9.85357143,0 22.0078571,0 L172.737143,0 C184.892143,0 194.745,9.85357143 194.745,22.0078571 L194.745,22.4521429 C194.745,34.6071429 184.892143,44.4607143 172.737143,44.4607143" id="Fill-208" fill="#FFEB00"></path>
                    <path d="M70.5164286,23.5778571 C70.5164286,21.7707143 69.1542857,20.5264286 67.6292857,20.5264286 C65.985,20.5264286 64.7871429,21.7707143 64.7871429,23.5778571 C64.7871429,25.4085714 65.985,26.63 67.6292857,26.63 C69.1542857,26.63 70.5164286,25.4085714 70.5164286,23.5778571 L70.5164286,23.5778571 Z M74.2728571,29.4707143 L70.5164286,29.4707143 L70.5164286,28.5321429 C69.6007143,29.3535714 68.38,29.8228571 66.8542857,29.8228571 C63.7314286,29.8228571 61.1021429,27.3114286 61.1021429,23.5778571 C61.1021429,19.8692857 63.7314286,17.3335714 66.8542857,17.3335714 C68.38,17.3335714 69.6007143,17.8028571 70.5164286,18.6242857 L70.5164286,12.5671429 L74.2728571,12.5671429 L74.2728571,29.4707143 Z" id="Fill-209" fill="#2B2928"></path>
                    <path d="M84.6464286,23.5778571 C84.6464286,21.7471429 83.2621429,20.5264286 81.8057143,20.5264286 C80.28,20.5264286 78.8942857,21.7471429 78.8942857,23.5778571 C78.8942857,25.4328571 80.28,26.63 81.8057143,26.63 C83.2621429,26.63 84.6464286,25.4328571 84.6464286,23.5778571 M88.2621429,23.5778571 C88.2621429,27.3114286 85.3042857,29.7992857 81.8057143,29.7992857 C78.2371429,29.7992857 75.2792857,27.3114286 75.2792857,23.5778571 C75.2792857,19.8692857 78.2371429,17.38 81.8057143,17.38 C85.3042857,17.38 88.2621429,19.8692857 88.2621429,23.5778571" id="Fill-210" fill="#2B2928"></path>
                    <path d="M109.036429,22.0992857 L109.036429,29.4707143 L105.302857,29.4707143 L105.302857,22.8971429 C105.302857,21.5592857 104.435,20.7142857 103.331429,20.7142857 C101.945714,20.7142857 101.030714,21.7235714 101.030714,23.6957143 L101.030714,29.4707143 L97.2742857,29.4707143 L97.2742857,22.8971429 C97.2742857,21.5592857 96.4057143,20.7142857 95.2785714,20.7142857 C93.9171429,20.7142857 93.025,21.7235714 93.025,23.6957143 L93.025,29.4707143 L89.2685714,29.4707143 L89.2685714,17.6857143 L93.025,17.6857143 L93.025,18.7657143 C93.8228571,17.8735714 94.9742857,17.3335714 96.4992857,17.3335714 C98.1428571,17.3335714 99.5514286,18.0371429 100.35,19.3292857 C101.288571,18.1078571 102.697143,17.3335714 104.528571,17.3335714 C107.040714,17.3335714 109.036429,19.235 109.036429,22.0992857" id="Fill-211" fill="#2B2928"></path>
                    <path d="M110.84,17.6857143 L114.596429,17.6857143 L114.596429,29.4707143 L110.84,29.4707143 L110.84,17.6857143 Z M114.901429,14.2107143 C114.901429,15.4085714 113.985714,16.3007143 112.718571,16.3007143 C111.45,16.3007143 110.557857,15.4085714 110.557857,14.2107143 C110.557857,13.0607143 111.45,12.075 112.718571,12.075 C113.985714,12.075 114.901429,13.0607143 114.901429,14.2107143 L114.901429,14.2107143 Z" id="Fill-212" fill="#2B2928"></path>
                    <path d="M124.784286,24.47 L128.235,25.2214286 C127.648571,28.015 125.159286,29.8228571 122.225,29.8228571 C118.703571,29.8228571 115.792143,27.3114286 115.792143,23.5778571 C115.792143,19.8692857 118.703571,17.3335714 122.225,17.3335714 C125.089286,17.3335714 127.577857,19.0942857 128.235,21.8642857 L124.713571,22.7092857 C124.385,21.2771429 123.422857,20.62 122.225,20.62 C120.535,20.62 119.407857,21.8642857 119.407857,23.5778571 C119.407857,25.3157143 120.535,26.5364286 122.225,26.5364286 C123.422857,26.5364286 124.385,25.9021429 124.784286,24.47" id="Fill-213" fill="#2B2928"></path>
                    <path d="M129.43,17.6857143 L133.186429,17.6857143 L133.186429,29.4707143 L129.43,29.4707143 L129.43,17.6857143 Z M133.492143,14.2107143 C133.492143,15.4085714 132.575714,16.3007143 131.308571,16.3007143 C130.040714,16.3007143 129.148571,15.4085714 129.148571,14.2107143 C129.148571,13.0607143 130.040714,12.075 131.308571,12.075 C132.575714,12.075 133.492143,13.0607143 133.492143,14.2107143 L133.492143,14.2107143 Z" id="Fill-214" fill="#2B2928"></path>
                    <polygon id="Fill-215" fill="#2B2928" points="135.157857 29.4707143 138.914286 29.4707143 138.914286 12.5671429 135.157857 12.5671429"></polygon>
                    <path d="M140.884286,17.6857143 L144.640714,17.6857143 L144.640714,29.4707143 L140.884286,29.4707143 L140.884286,17.6857143 Z M144.946429,14.2107143 C144.946429,15.4085714 144.030714,16.3007143 142.762857,16.3007143 C141.495,16.3007143 140.602857,15.4085714 140.602857,14.2107143 C140.602857,13.0607143 141.495,12.075 142.762857,12.075 C144.030714,12.075 144.946429,13.0607143 144.946429,14.2107143 L144.946429,14.2107143 Z" id="Fill-216" fill="#2B2928"></path>
                    <path d="M155.204286,23.5778571 C155.204286,21.7471429 153.82,20.5264286 152.363571,20.5264286 C150.837857,20.5264286 149.452143,21.7471429 149.452143,23.5778571 C149.452143,25.4328571 150.837857,26.63 152.363571,26.63 C153.82,26.63 155.204286,25.4328571 155.204286,23.5778571 M158.82,23.5778571 C158.82,27.3114286 155.862143,29.7992857 152.363571,29.7992857 C148.795,29.7992857 145.837143,27.3114286 145.837143,23.5778571 C145.837143,19.8692857 148.795,17.38 152.363571,17.38 C155.862143,17.38 158.82,19.8692857 158.82,23.5778571" id="Fill-217" fill="#2B2928"></path>
                    <path d="M162.691429,25.6442857 C162.855,26.6535714 163.770714,27.0292857 164.781429,27.0292857 C165.767143,27.0292857 166.307143,26.6071429 166.307143,26.09 C166.307143,25.6907143 166.002143,25.3864286 165.132143,25.2214286 L162.737857,24.7521429 C160.555,24.3528571 159.310714,23.1792857 159.310714,21.3242857 C159.310714,18.9064286 161.4,17.3335714 164.380714,17.3335714 C167.315714,17.3335714 169.265,18.6714286 169.733571,20.7142857 L166.307143,21.395 C166.188571,20.6671429 165.485,20.01 164.334286,20.01 C163.325714,20.01 162.996429,20.5028571 162.996429,20.9257143 C162.996429,21.2542857 163.137143,21.5821429 163.888571,21.7471429 L166.659286,22.3107143 C168.889286,22.78 169.921429,24.1178571 169.921429,25.8557143 C169.921429,28.4614286 167.667857,29.8235714 164.57,29.8235714 C161.798571,29.8235714 159.428571,28.8135714 159.029286,26.3957143 L162.691429,25.6442857 Z" id="Fill-218" fill="#2B2928"></path>
                    <path d="M30.635,15.6078571 C30.6407143,15.2164286 30.6342857,14.8771429 30.6514286,14.5392857 C30.7257143,13.0928571 31.4271429,12.2557143 32.8421429,11.9828571 C33.5214286,11.8514286 34.2128571,11.7771429 34.9021429,11.7121429 C37.16,11.5007143 39.3985714,11.6521429 41.6035714,12.1778571 C42.89,12.485 43.5435714,13.3607143 43.5707143,14.6942857 C43.5785714,15.0592857 43.4471429,15.54 43.6292857,15.76 C43.8292857,16.0007143 44.3157143,16.015 44.6828571,16.1014286 C46.07,16.4271429 47.46,16.7421429 48.925,17.0792857 C48.9342857,16.4364286 48.915,15.8714286 48.9578571,15.3121429 C48.9978571,14.7821429 48.8214286,14.3471429 48.5264286,13.9307143 C47.6578571,12.7028571 46.4564286,11.9292857 45.0585714,11.4621429 C40.3542857,9.88857143 35.5757143,9.72857143 30.745,10.7807143 C29.2564286,11.1057143 27.8542857,11.6107143 26.6164286,12.5635714 C25.25,13.6157143 25.0721429,14.995 25.305,16.6264286 C27.0671429,16.2892857 28.8257143,15.9528571 30.635,15.6078571 M33.1907143,14.4728571 C33.1857143,14.8342857 33.1857143,15.1707143 33.1757143,15.5071429 C33.1307143,16.9278571 32.4735714,17.75 31.0978571,18.0685714 C30.2578571,18.2635714 29.4142857,18.45 28.5635714,18.585 C28.1914286,18.6442857 28.0814286,18.8078571 28.03,19.1478571 C27.6442857,21.6657143 27.2421429,24.1814286 26.8478571,26.6978571 C26.7492857,27.3264286 26.5871429,27.9571429 26.5849819,28.5871429 C26.58,29.7464286 27.6092857,30.695 28.8057143,30.7135714 C31.2857143,30.7535714 33.765,30.785 36.2442857,30.82 C39.1342857,30.8607143 42.025,30.8878571 44.915,30.9471429 C46.3664286,30.9771429 47.3942857,29.6507143 47.2257143,28.455 C46.7971429,25.4142857 46.4335714,22.3642857 46.05,19.3164286 C46.0192857,19.0764286 45.9014286,18.9957143 45.6757143,18.9435714 C44.7257143,18.7214286 43.7742857,18.5014286 42.8364286,18.235 C41.76,17.9285714 41.1357143,17.2021429 41.0371429,16.0721429 C41.0078571,15.7357143 41.03,15.3928571 41.0471429,15.0542857 C41.0635714,14.7392857 40.9778571,14.565 40.6192857,14.5278571 C39.8171429,14.445 39.0228571,14.2921429 38.2207143,14.2171429 C36.5492857,14.0585714 34.8907143,14.1985714 33.1907143,14.4728571 M25.4692857,19.145 C25.1742857,19.115 24.8885714,19.1135714 24.6157143,19.0535714 C23.5914286,18.8278571 22.7907143,17.9728571 22.7292857,16.9064286 C22.6735714,15.9335714 22.6728571,14.9457143 22.7785714,13.9792857 C22.8821429,13.0407143 23.4414286,12.2742857 24.0542857,11.5742857 C25.395,10.0421429 27.1071429,9.11785714 29.05,8.60285714 C34.7414286,7.095 40.39,7.21857143 45.98,9.105 C47.3507143,9.56714286 48.5614286,10.315 49.6114286,11.3192857 C51.0142857,12.6621429 51.745,14.2535714 51.4821429,16.2328571 C51.4321429,16.61 51.4792857,17.0007143 51.4235714,17.3771429 C51.2364286,18.6314286 50.3928571,19.41 49.1185714,19.5414286 C48.9671429,19.5564286 48.815,19.5707143 48.6314286,19.5885714 C48.8421429,21.245 49.0507143,22.8835714 49.2592857,24.5221429 C49.4357143,25.9128571 49.6914286,27.2978571 49.7678571,28.6935714 C49.8692857,30.5271429 48.6864286,32.4421429 46.6614286,33.1571429 C46.0614286,33.3685714 45.3892857,33.4742857 44.7521429,33.4687913 C39.4814286,33.4207143 34.2107143,33.3378571 28.94,33.2607143 C26.1628571,33.2192857 24.125,31.2771429 24.0521429,28.4978571 C24.0292857,27.635 24.2742857,26.7628571 24.4092857,25.8971429 C24.7585714,23.6471429 25.115,21.3971429 25.4692857,19.145" id="Fill-219" fill="#0081A9"></path>
                    <path d="M33.4664286,23.2914286 C33.505,25.2792857 35.1021429,26.8614286 37.0135714,26.8064286 C38.9864286,26.7492857 40.5542857,25.1642857 40.5064286,23.2757143 C40.4542857,21.2128571 38.8978571,19.7314286 36.825,19.7692857 C34.9814286,19.8035714 33.4307143,21.43 33.4664286,23.2914286 M36.8721429,29.3164286 C33.485,29.2521429 30.8607143,26.5207143 30.9321429,23.1335714 C31.0028571,19.7785714 33.7678571,17.155 37.1585714,17.225 C40.4521429,17.2935714 43.09,20.0621429 43.0428571,23.4007143 C42.995,26.7285714 40.2285714,29.38 36.8721429,29.3164286" id="Fill-220" fill="#0081A9"></path>
                </g>
            </g>
        </g>
    </g>
</svg>