<?xml version="1.0" encoding="UTF-8"?>
<svg width="421px" height="56px" viewBox="0 0 421 56" version="1.1" xmlns="http://www.w3.org/2000/svg" xmlns:xlink="http://www.w3.org/1999/xlink">
    <!-- Generator: Sketch 64 (93537) - https://sketch.com -->
    <title>logos</title>
    <desc>Created with Sketch.</desc>
    <g id="Compra-y-Recoge" stroke="none" stroke-width="1" fill="none" fill-rule="evenodd">
        <g id="HOME---Servicios---Compra-y-Recoge-V2---Desktop-HD" transform="translate(-179.000000, -863.000000)" fill-rule="nonzero">
            <g id="logos" transform="translate(179.000000, 863.000000)">
                <g id="head-exitopuntocom-copy" transform="translate(0.000000, 9.000000)">
                    <rect id="Rectangle" fill="#FFEB00" x="0" y="0" width="101.905739" height="29.7204115" rx="14.8602058"></rect>
                    <path d="M17.8309894,13.203483 C17.6598545,12.5095937 17.3544008,11.8559656 16.9318951,11.2795469 C16.5149126,10.7065073 15.9674879,10.2409808 15.3349024,9.92147438 C14.6289798,9.57724387 13.8502302,9.40898219 13.0651608,9.4310593 C12.3378558,9.42217794 11.6165395,9.56344465 10.9463162,9.8460259 C9.68950414,10.3807364 8.70749422,11.4082097 8.23017108,12.6879184 C7.98051668,13.3662558 7.8548659,14.0839561 7.85921608,14.8067631 C7.84913609,15.5458729 7.97267618,16.2807235 8.22388371,16.9759067 C8.44893341,17.6072511 8.80213784,18.1852219 9.26130023,18.6734974 C9.72106314,19.1590035 10.2840199,19.5350243 10.9085919,19.7737877 C11.5958294,20.0407111 12.3279673,20.1730509 13.0651608,20.1636048 C14.1042554,20.1922828 15.1291148,19.9169474 16.0139387,19.3713958 C16.4412876,19.0898067 16.808799,18.7265688 17.0953668,18.3025424 C17.4225891,17.8238475 17.674889,17.2980459 17.8435642,16.7432739 L17.9127253,16.5357906 C17.9127253,16.5357906 17.9504495,16.44148 17.8372768,16.44148 L15.2217297,16.44148 C15.0834075,16.44148 15.0708328,16.5232159 15.0708328,16.5232159 L15.0708328,16.6049517 C15.0296548,16.7372049 14.9611038,16.8593113 14.8696368,16.963332 C14.7462382,17.1050654 14.6045849,17.2298049 14.4483828,17.334287 C14.0760643,17.5802437 13.6369508,17.7053911 13.1909083,17.6926672 C12.8771255,17.7006886 12.5643506,17.6538788 12.2666645,17.554345 C12.0303746,17.4797038 11.8149823,17.3504685 11.6379272,17.1771027 C11.4494582,16.9866186 11.3093269,16.7537851 11.2292479,16.4980664 C11.1392626,16.236092 11.0842961,15.9633736 11.0657762,15.6869953 L17.9818864,15.6869953 C18.0887717,15.6869953 18.0950591,15.5612478 18.0950591,15.5612478 L18.0950591,15.4732246 C18.0950591,15.3034656 18.0950591,15.1274191 18.0950591,14.95766 C18.0806667,14.3641984 17.9919522,13.7748803 17.8309894,13.203483 M11.4304439,12.5747457 C11.5932075,12.3763256 11.7969673,12.2154626 12.0277443,12.1031928 C12.3281194,11.9619875 12.658063,11.8951362 12.9897123,11.9082842 C13.2524327,11.9035368 13.5140169,11.9439441 13.7630592,12.0277443 C13.9589194,12.0963414 14.1356427,12.210565 14.2786238,12.3609751 C14.555089,12.695421 14.7450944,13.0927049 14.8319126,13.5178517 L11.028052,13.5178517 C11.0484388,13.401069 11.0757319,13.2855979 11.1097879,13.1720461 C11.1724749,12.9427142 11.2816173,12.7287096 11.4304439,12.5433089" id="Shape" fill="#000000"></path>
                    <path d="M27.8027628,19.7926498 L24.1057876,14.4609576 L27.4443826,9.70141633 C27.4443826,9.70141633 27.4883942,9.64482997 27.3689341,9.64482997 L23.9926148,9.64482997 C23.9397486,9.63793185 23.887166,9.65944291 23.8542926,9.70141633 L22.3390358,11.9774453 L20.8112042,9.71399107 C20.7688402,9.66900897 20.7095164,9.6439104 20.6477325,9.64482997 L17.1771027,9.64482997 C17.0765047,9.64482997 17.1268037,9.71399107 17.1268037,9.71399107 L17.3594365,10.0472218 L20.4591113,14.5175439 L16.8501593,19.8052245 C16.8501593,19.8052245 16.7809982,19.9058238 16.9004583,19.9058238 L20.2893522,19.9058238 C20.3701178,19.9061083 20.4437095,19.8595003 20.4779734,19.7863624 L22.3013115,17.0450678 L24.1183623,19.7863624 C24.1596601,19.8558844 24.2325783,19.9005762 24.3132709,19.9058238 L27.7461764,19.9058238 C27.8782113,19.9058238 27.8027628,19.7926498 27.8027628,19.7926498" id="Path" fill="#000000"></path>
                    <path d="M32.0656016,9.64482997 L28.1674304,9.64482997 C28.0291082,9.64482997 28.0479703,9.73914057 28.0479703,9.73914057 L28.6138339,19.7989371 C28.6138339,19.7989371 28.6138339,19.9246846 28.7270066,19.9246846 L31.499738,19.9246846 C31.6191981,19.9246846 31.6191981,19.7926498 31.6191981,19.7926498 L32.1787743,9.7768648 C32.1787743,9.7768648 32.1787743,9.66369209 32.0781764,9.66369209" id="Path" fill="#000000"></path>
                    <path d="M39.5035637,11.9460084 C39.5670732,11.9393946 39.6141532,11.8840064 39.610449,11.820261 L39.610449,9.74542794 C39.6126153,9.71700255 39.6018077,9.68912268 39.5810483,9.66958443 C39.5602889,9.65004618 39.5318058,9.64094651 39.5035637,9.64482997 L37.6550761,9.64482997 L37.6550761,6.84066168 C37.6569326,6.81011499 37.6456066,6.78023771 37.623967,6.75859809 C37.6023273,6.73695847 37.5724501,6.72563242 37.5419034,6.72748896 L34.5805508,6.72748896 C34.5510792,6.72743793 34.5228945,6.73955795 34.5026586,6.76098415 C34.4824228,6.78241036 34.4719317,6.81124116 34.4736654,6.84066168 L34.4736654,9.65111735 L32.9646959,9.65111735 C32.8263737,9.65111735 32.8389485,9.73914057 32.8389485,9.73914057 L32.8389485,11.8391231 C32.8351032,11.8690361 32.8448814,11.8990962 32.8655894,11.9210222 C32.8862973,11.9429483 32.9157501,11.9544269 32.9458338,11.9522958 L34.4610907,11.9522958 L34.4610907,17.4411723 C34.4445027,17.8932013 34.5395164,18.3423568 34.7377351,18.7489459 C34.9147953,19.0808263 35.1802896,19.3572016 35.5047946,19.5474422 C35.8346513,19.734674 36.1975956,19.8563671 36.5736479,19.9058225 C36.9775405,19.9648719 37.3852122,19.9942915 37.7933983,19.9938507 L38.6107568,19.9938507 C38.8739275,19.9832962 39.1363071,19.9581077 39.3966784,19.9183972 L39.5098511,19.9183972 C39.5098511,19.9183972 39.610449,19.9183972 39.610449,19.7863624 L39.610449,17.3971607 C39.610449,17.2714133 39.5035637,17.3091375 39.5035637,17.3091375 L39.3023678,17.3531491 L38.9377001,17.4034481 C38.8035695,17.4034481 38.6652473,17.4034481 38.5227335,17.4034481 C38.353671,17.406634 38.1848276,17.3897497 38.0197437,17.3531491 C37.9406501,17.3397263 37.8667296,17.3049402 37.805973,17.2525511 C37.7499477,17.1917257 37.7147174,17.1146593 37.7053751,17.0324931 C37.6680457,16.8675268 37.6511525,16.6985948 37.6550761,16.5295033 L37.6550761,11.9460084 L39.5035637,11.9460084 Z" id="Path" fill="#000000"></path>
                    <path d="M50.0160511,12.5747457 C49.5500224,11.2823138 48.5448689,10.2565064 47.2621818,9.76429006 C45.8591279,9.25294691 44.3206611,9.25294691 42.9176072,9.76429006 C42.2883377,10.0081667 41.7182144,10.3832478 41.245166,10.8645803 C40.7702214,11.3524588 40.4038248,11.9352651 40.1700252,12.5747457 C39.9136621,13.281811 39.7879671,14.0295897 39.7990702,14.7816136 C39.7868968,15.5316694 39.9126359,16.2775789 40.1700252,16.9821941 C40.4054579,17.6190159 40.7717063,18.1994446 41.245166,18.6860722 C41.7189359,19.1634711 42.2891074,19.534297 42.9176072,19.7737877 C44.3235578,20.2684509 45.8562312,20.2684509 47.2621818,19.7737877 C48.5464852,19.2908467 49.5535323,18.2677053 50.0160511,16.9759067 C50.2755823,16.2716936 50.4034545,15.5257723 50.3932935,14.7753262 C50.402383,14.0229162 50.2745556,13.2751259 50.0160511,12.5684584 M46.0990178,17.3908733 C45.4610888,17.6969779 44.7187002,17.6969779 44.0807711,17.3908733 C43.8225186,17.2363901 43.6065171,17.0203886 43.4520339,16.7621361 C43.2829058,16.4808579 43.1637805,16.1724083 43.099941,15.850467 C43.0295314,15.4921591 42.9937382,15.1279111 42.9930556,14.7627515 C42.9937431,14.39343 43.0295325,14.0250098 43.099941,13.6624612 C43.1592736,13.3392308 43.2787024,13.0299955 43.4520339,12.7507922 C43.6107259,12.4958513 43.8258302,12.2807469 44.0807711,12.1220549 C44.3935291,11.9719827 44.7416156,11.9110676 45.0867508,11.9460084 C45.4373788,11.9345598 45.7846934,12.017047 46.0927305,12.1849286 C46.3494191,12.341409 46.5649874,12.5569773 46.7214678,12.8136659 C46.8947992,13.0928692 47.014228,13.4021045 47.0735606,13.725335 C47.1491504,14.0872107 47.1870768,14.4559392 47.1867357,14.8256252 C47.1870694,15.1911529 47.1491385,15.5557116 47.0735606,15.9133407 C47.0108441,16.2356065 46.8916453,16.5442462 46.7214678,16.8250098 C46.5705169,17.0859957 46.3537163,17.3027962 46.0927305,17.4537471" id="Shape" fill="#000000"></path>
                    <path d="M32.0656016,22.3516105 C32.0656016,21.3098845 31.2211158,20.4653987 30.1793897,20.4653987 C29.1376637,20.4653987 28.2931779,21.3098845 28.2931779,22.3516105 C28.2931779,23.3933366 29.1376637,24.2378224 30.1793897,24.2378224 C31.2211158,24.2378224 32.0656016,23.3933366 32.0656016,22.3516105" id="Path" fill="#CC2329"></path>
                    <path d="M53.9330844,16.7998603 C54.2744622,17.1291457 54.4673618,17.5830273 54.4675111,18.0573349 C54.4712044,18.5311532 54.2802841,18.9857255 53.9393718,19.3148094 C53.5907265,19.6690104 53.1094248,19.8606187 52.6127361,19.8429488 C52.1251699,19.8542188 51.6536708,19.6683394 51.3049626,19.3273842 C50.9579733,18.9873365 50.7687942,18.5178077 50.7831106,18.0321854 C50.7813769,17.54813 50.9741961,17.0836744 51.3182461,16.7431714 C51.662296,16.4026684 52.1287247,16.2146724 52.6127361,16.221422 C53.1144205,16.2209022 53.5933474,16.4307178 53.9330844,16.7998603 Z" id="Path" fill="#000000"></path>
                    <path d="M62.3644514,15.4983741 L65.3258041,16.1271114 C65.0923355,17.276637 64.4431358,18.2996863 63.5024659,19.0004408 C62.5499677,19.7346141 61.3790187,20.1286197 60.1764457,20.1195932 C58.7238925,20.1537016 57.3164577,19.6137708 56.2594124,18.6169111 C55.1959561,17.6253921 54.6135836,16.2221955 54.6624197,14.7690389 C54.6154189,13.3180487 55.1976382,11.9175132 56.2594124,10.927454 C57.3139662,9.92594438 58.7225307,9.38331922 60.1764457,9.41848455 C61.3690787,9.38172009 62.5397797,9.74465952 63.5024659,10.4496137 C64.4522046,11.1285061 65.1226119,12.1296477 65.3886778,13.2663567 L62.3707388,13.9894046 C62.2753724,13.4685461 62.0047019,12.995982 61.6036793,12.6501942 C61.2157931,12.3444484 60.7330411,12.1842727 60.2393194,12.1975034 C59.5783518,12.1709202 58.9383656,12.4324199 58.4851424,12.9142639 C58.0475265,13.4177909 57.8221567,14.0713632 57.8564051,14.737602 C57.8198346,15.4060683 58.0453936,16.0624448 58.4851424,16.5672275 C58.9429468,17.0409925 59.5810058,17.2971309 60.2393194,17.2714133 C61.2872599,17.2832311 62.1883045,16.531472 62.3644514,15.4983741 Z" id="Path" fill="#000000"></path>
                    <path d="M75.0397951,10.9148793 C76.1060297,11.8948921 76.693475,13.2900747 76.6493626,14.737602 C76.6931415,16.1905503 76.1062091,17.591393 75.0397951,18.5791868 C73.9738766,19.5637734 72.5671701,20.095797 71.1164745,20.0630068 C69.6496478,20.1023122 68.2249089,19.5702895 67.1428548,18.5791868 C66.068512,17.5964721 65.4780891,16.1927819 65.527,14.737602 C65.4793961,13.2881375 66.0700654,11.8907565 67.1428548,10.9148793 C68.2249089,9.92377665 69.6496478,9.3917539 71.1164745,9.4310593 C72.5676242,9.39560789 73.9752972,9.92799702 75.0397951,10.9148793 L75.0397951,10.9148793 Z M72.8266399,16.6175265 C73.3154859,16.1141411 73.5767894,15.4324799 73.5496878,14.7313146 C73.5749539,14.0280582 73.3087819,13.3455659 72.8140651,12.8451028 C72.3714143,12.3805537 71.7581472,12.117076 71.1164745,12.1157675 C70.4586836,12.1099369 69.8271413,12.3734581 69.3685848,12.8451028 C68.8653489,13.3408581 68.5938134,14.0254014 68.6203874,14.7313146 C68.5943653,15.4346991 68.8606503,16.117481 69.3560101,16.6175265 C69.8167276,17.0936226 70.4540458,17.3576544 71.1164745,17.3468617 C71.7632745,17.3527765 72.3831784,17.0884057 72.8266399,16.6175265 L72.8266399,16.6175265 Z" id="Shape" fill="#000000"></path>
                    <path d="M92.9399457,10.5187748 C93.6904047,11.3128562 94.0892918,12.3757996 94.0465233,13.4675527 L94.0465233,19.7549255 L90.8462505,19.7549255 L90.8462505,14.09629 C90.8727924,13.5982267 90.7009827,13.1099257 90.3684102,12.7382174 C90.0589921,12.4006059 89.6190801,12.2127268 89.1612346,12.2226528 C88.6092078,12.1945793 88.0760458,12.4274012 87.7214262,12.8513901 C87.3329126,13.400554 87.1442959,14.0662599 87.1869995,14.737602 L87.1869995,19.6857644 L83.9678646,19.6857644 L83.9678646,14.0271289 C83.9926964,13.5281895 83.818586,13.0397761 83.4837369,12.6690563 C83.1694677,12.3271003 82.7219038,12.138894 82.2576992,12.1534917 C81.712469,12.1233466 81.1860249,12.3573218 80.8430403,12.782229 C80.4666154,13.3363249 80.2852355,13.9999099 80.3274757,14.6684409 L80.3274757,19.6166033 L77.1083408,19.6166033 L77.1083408,9.68884158 L80.3274757,9.68884158 L80.3274757,10.6130854 C81.0906538,9.78374215 82.1818465,9.33483376 83.3076904,9.38704769 C84.6360572,9.30404525 85.9022859,9.95890782 86.6022738,11.0909257 C87.4442853,9.96854018 88.7840586,9.33156026 90.1860764,9.38704769 C91.2222237,9.36086129 92.2216281,9.77157543 92.9399457,10.5187748 L92.9399457,10.5187748 Z" id="Path" fill="#000000"></path>
                </g>
                <g id="head-app-copy" transform="translate(117.000000, 9.000000)">
                    <path d="M12.9273626,20.0934066 L9.28021978,20.0934066 L9.28021978,19.1835165 C8.3107064,20.0494179 7.04615208,20.510736 5.74681319,20.4725275 C4.25181905,20.4955292 2.81782009,19.8805643 1.80395604,18.7816484 C0.696926475,17.6007281 0.112061599,16.0237794 0.181318681,14.4065934 C0.127373561,12.8031858 0.710816103,11.2437039 1.80395604,10.0694505 C2.80984904,8.95489459 4.24553944,8.32539957 5.74681319,8.34065934 C7.04205279,8.29413447 8.30609724,8.7444164 9.28021978,9.59934066 L9.28021978,8.68945055 L12.9197802,8.68945055 L12.9273626,20.0934066 Z M8.46131868,16.5145055 C9.01242173,15.9542983 9.30859658,15.1919223 9.28021978,14.4065934 C9.30568921,13.6203062 9.00684484,12.858116 8.45373626,12.2986813 C7.94541088,11.7561492 7.23332742,11.4509706 6.48989011,11.457033 C5.7414952,11.4320418 5.01921369,11.7336843 4.51087912,12.2835165 C3.99056377,12.8650271 3.71841817,13.6270348 3.75263736,14.4065934 C3.71439195,15.1913153 3.98680416,15.9595177 4.51087912,16.5448352 C5.0223225,17.0893608 5.74322424,17.387665 6.48989011,17.3637363 C7.23654637,17.3671793 7.95089516,17.0594599 8.46131868,16.5145055 L8.46131868,16.5145055 Z" id="Shape" fill="#FFFFFF"></path>
                    <path d="M26.7197802,10.0542857 C27.8029225,11.2383255 28.3727545,12.8033188 28.3045055,14.4065934 C28.3737183,16.005473 27.8034838,17.5661146 26.7197802,18.7437363 C25.7039335,19.8666532 24.2530454,20.4967531 22.739011,20.4725275 C21.442207,20.5230925 20.1752211,20.0754422 19.198022,19.2214286 L19.198022,23.9907692 L15.566044,23.9907692 L15.566044,8.68945055 L19.198022,8.68945055 L19.198022,9.59934066 C20.174073,8.74258638 21.4411847,8.29217838 22.739011,8.34065934 C24.2510632,8.31057952 25.702361,8.93532867 26.7197802,10.0542857 Z M23.9673626,16.5296703 C24.4914376,15.9443529 24.7638498,15.1761504 24.7256044,14.3914286 C24.7598236,13.6118699 24.487678,12.8498622 23.9673626,12.2683516 C23.4590281,11.7185194 22.7367466,11.416877 21.9883516,11.4418681 C21.2449143,11.4358058 20.5328309,11.7409844 20.0245055,12.2835165 C19.4674946,12.8466119 19.1683318,13.6151036 19.198022,14.4065934 C19.167415,15.1982373 19.4667149,15.9670812 20.0245055,16.5296703 C20.5357559,17.0670993 21.246611,17.3690069 21.9883516,17.3637363 C22.7373706,17.3837734 23.4586398,17.0797903 23.9673626,16.5296703 Z" id="Shape" fill="#FFFFFF"></path>
                    <path d="M41.3083516,10.0542857 C42.4080244,11.231092 42.9945311,12.7969283 42.9385714,14.4065934 C42.9945311,16.0162585 42.4080244,17.5820948 41.3083516,18.7589011 C40.3014815,19.8658544 38.8693543,20.4894783 37.3730769,20.4725275 C36.0739229,20.5234997 34.8044254,20.0759205 33.8245055,19.2214286 L33.8245055,23.9907692 L30.1925275,23.9907692 L30.1925275,8.68945055 L33.8245055,8.68945055 L33.8245055,9.59934066 C34.8032792,8.74210877 36.0729021,8.29177247 37.3730769,8.34065934 C38.8697494,8.32175256 40.3026443,8.94571062 41.3083516,10.0542857 Z M38.5938462,16.5296703 C39.1179211,15.9443529 39.3903333,15.1761504 39.3520879,14.3914286 C39.3863071,13.6118699 39.1141615,12.8498622 38.5938462,12.2683516 C38.0884484,11.7188662 37.3685719,11.4170718 36.6224176,11.4418681 C35.8789803,11.4358058 35.1668968,11.7409844 34.6585714,12.2835165 C34.0995614,12.8458384 33.7977283,13.6141408 33.8245055,14.4065934 C33.7958961,15.1993599 34.0980054,15.9683656 34.6585714,16.5296703 C35.1698219,17.0670993 35.8806769,17.3690069 36.6224176,17.3637363 C37.3691943,17.3835642 38.08805,17.0794329 38.5938462,16.5296703 Z" id="Shape" fill="#FFFFFF"></path>
                    <rect id="Rectangle" fill="#FFEB00" x="48.632967" y="0" width="29.8368132" height="29.8368132" rx="6.56"></rect>
                    <path d="M63.5551648,24.6201099 C62.1595826,24.5909421 61.0490314,23.4411064 61.0683759,22.0453534 C61.0877203,20.6496004 62.229711,19.5309837 63.6255656,19.5405038 C65.0214202,19.5500238 66.1480469,20.684113 66.1483516,22.08 C66.1443812,22.7616881 65.8681869,23.4135291 65.3811944,23.890554 C64.8942019,24.3675788 64.2367893,24.6302357 63.5551648,24.6201099 L63.5551648,24.6201099 Z" id="Path" fill="#E32213"></path>
                    <path d="M65.5645055,18.6679121 C65.5645055,18.6679121 65.5645055,18.8347253 65.4128571,18.8347253 L61.6974725,18.8347253 C61.5534066,18.8347253 61.5382418,18.6679121 61.5382418,18.6679121 L60.78,5.3456044 C60.78,5.3456044 60.78,5.2167033 60.9316484,5.2167033 L66.1786813,5.2167033 C66.3151648,5.2167033 66.3151648,5.36835165 66.3151648,5.36835165 L65.5645055,18.6679121 Z" id="Path" fill="#1D1D1B"></path>
                </g>
                <g id="head-domicilios" transform="translate(214.000000, 0.000000)" fill="#FFFFFF">
                    <path d="M30.5384431,15.9633333 L23.4126946,15.9633333 C22.8496949,15.9633333 22.3932934,16.4170181 22.3932934,16.9766667 C22.3932934,17.5363152 22.8496949,17.99 23.4126946,17.99 L30.5384431,17.99 L30.5384431,21.0233333 L2.0354491,21.0233333 L2.0354491,18 L9.1611976,18 C9.72419735,18 10.1805988,17.5463152 10.1805988,16.9866667 C10.1805988,16.4270181 9.72419735,15.9733333 9.1611976,15.9733333 L2.0354491,15.9733333 C0.910759398,15.9751721 0,16.8820034 0,18 L0,21.0333333 C0,22.1507895 0.911301604,23.0566667 2.0354491,23.0566667 L3.19904192,23.0566667 L5.10035928,35.3333333 C5.17102952,35.8303496 5.60140968,36.1982734 6.10634733,36.1934307 L26.4675449,36.1934307 C26.9724825,36.1982734 27.4028627,35.8303496 27.4735329,35.3333333 L29.3748503,23.0466667 L30.5384431,23.0466667 C31.6625906,23.0466667 32.5739415,22.1407895 32.5739415,21.0233333 L32.5739415,18 C32.5765667,17.4613412 32.3634066,16.9437843 31.9814923,16.5616416 C31.5995781,16.1794988 31.0803333,15.9642127 30.5384431,15.9633333 L30.5384431,15.9633333 Z M25.5923353,34.18 L6.98155688,34.18 L5.25796408,23.0466667 L27.3159281,23.0466667 L25.5923353,34.18 Z" id="Shape"></path>
                    <path d="M16.2869461,20 C18.5305565,19.9981765 20.3504587,18.1935776 20.3578443,15.9633333 L20.3578443,7.87 C20.3578443,5.63508775 18.5352411,3.82333342 16.2869461,3.82333342 C14.0386512,3.82333342 12.2160479,5.63508775 12.2160479,7.87 L12.2160479,15.9633333 C12.2234335,18.1935776 14.0433357,19.9981765 16.2869461,20 Z M14.251497,7.87 C14.251497,6.75254387 15.1627987,5.84666674 16.2869461,5.84666674 C17.4110936,5.84666674 18.3223952,6.75254387 18.3223952,7.87 L18.3223952,15.9633333 C18.3223952,17.0807895 17.4110936,17.9866667 16.2869461,17.9866667 C15.1627986,17.9866667 14.251497,17.0807895 14.251497,15.9633333 L14.251497,7.87 Z" id="Shape"></path>
                    <path d="M16.2869461,13.94 L16.2869461,13.94 C15.7313543,13.94 15.2809581,14.3877152 15.2809581,14.94 L15.2809581,14.94 C15.2809581,15.4922848 15.7313543,15.94 16.2869461,15.94 L16.2869461,15.94 C16.8425379,15.94 17.2929341,15.4922848 17.2929341,14.94 L17.2929341,14.94 C17.2929341,14.3877152 16.8425379,13.94 16.2869461,13.94 L16.2869461,13.94 Z" id="Path"></path>
                    <path d="M14.251497,32.1533333 C14.8070888,32.1533333 15.257485,31.7056181 15.257485,31.1533333 L15.257485,26.0833333 C15.257485,25.5246053 14.8018342,25.0716667 14.2397605,25.0716667 C13.6776867,25.0716667 13.2220359,25.5246053 13.2220359,26.0833333 L13.2220359,31.1433333 C13.2192346,31.4143727 13.3272379,31.674932 13.5213096,31.8653351 C13.7153814,32.0557381 13.9788948,32.1596722 14.251497,32.1533333 L14.251497,32.1533333 Z" id="Path"></path>
                    <path d="M10.1805988,32.1533333 C10.7361907,32.1533333 11.1865868,31.7056181 11.1865868,31.1533333 L11.1865868,26.0833333 C11.1865868,25.5246053 10.730936,25.0716667 10.1688623,25.0716667 C9.60678855,25.0716667 9.15113773,25.5246053 9.15113773,26.0833333 L9.15113773,31.1433333 C9.14833638,31.4143727 9.25633966,31.674932 9.45041141,31.8653351 C9.6444832,32.0557381 9.90799659,32.1596722 10.1805988,32.1533333 L10.1805988,32.1533333 Z" id="Path"></path>
                    <path d="M18.3223952,32.1533333 C18.8779871,32.1533333 19.3283832,31.7056181 19.3283832,31.1533333 L19.3283832,26.0833333 C19.3283832,25.5246053 18.8727324,25.0716667 18.3106587,25.0716667 C17.7485849,25.0716667 17.2929341,25.5246053 17.2929341,26.0833333 L17.2929341,31.1433333 C17.2901328,31.4143727 17.3981361,31.674932 17.5922078,31.8653351 C17.7862796,32.0557381 18.049793,32.1596722 18.3223952,32.1533333 L18.3223952,32.1533333 Z" id="Path"></path>
                    <path d="M22.3932934,32.1533333 C22.9488853,32.1533333 23.3992814,31.7056181 23.3992814,31.1533333 L23.3992814,26.0833333 C23.3992814,25.5246053 22.9436307,25.0716667 22.3815569,25.0716667 C21.8194832,25.0716667 21.3638323,25.5246053 21.3638323,26.0833333 L21.3638323,31.1433333 C21.361031,31.4143727 21.4690343,31.674932 21.663106,31.8653351 C21.8571778,32.0557381 22.1206912,32.1596722 22.3932934,32.1533333 L22.3932934,32.1533333 Z" id="Path"></path>
                    <path d="M48.3343714,33.5833333 L44.6893415,33.5833333 L44.6893415,32.6666667 C43.7075903,33.5172505 42.4361979,33.9631659 41.1348503,33.9133333 C39.6367476,33.9350773 38.2002013,33.3216939 37.1846707,32.2266667 C36.0805573,31.0568461 35.4936431,29.4962558 35.5549701,27.8933333 C35.4958973,26.2907729 36.0824976,24.7310172 37.1846707,23.56 C38.1973869,22.4598578 39.6348491,21.8424443 41.1348503,21.8633333 C42.4357992,21.8122437 43.7072581,22.2569903 44.6893415,23.1066667 L44.6893415,17.28 L48.3343714,17.28 L48.3343714,33.5833333 Z M43.8577246,30.0166667 C44.9667368,28.8247096 44.9667368,26.9852904 43.8577246,25.7933333 C43.3460227,25.2541589 42.6316472,24.9510281 41.885988,24.9566667 C41.1359272,24.9328485 40.4125512,25.2345903 39.9041916,25.7833333 C38.8708213,27.0112771 38.8708213,28.7987229 39.9041916,30.0266667 C40.4164205,30.5687832 41.1381444,30.8661942 41.885988,30.8433333 C42.6301322,30.851568 43.3442796,30.552156 43.8577246,30.0166667 Z" id="Shape"></path>
                    <path d="M60.0876648,23.5966667 C61.2978392,24.6981102 61.9640724,26.2697781 61.9118564,27.9 C61.9702594,29.5400681 61.3037263,31.1234053 60.0876648,32.2333333 C58.8817962,33.3433603 57.2875192,33.9413933 55.6445507,33.9 C53.9849192,33.9451261 52.3725676,33.3475296 51.1477844,32.2333333 C49.9261069,31.1265674 49.2554042,29.5420636 49.3135331,27.9 C49.2620602,26.2678642 49.9323836,24.6952201 51.1477844,23.5966667 C52.3725676,22.4824704 53.9849192,21.8848739 55.6445507,21.93 C57.2875192,21.8886067 58.8817962,22.4866397 60.0876648,23.5966667 Z M57.5827545,30.0166667 C58.6851095,28.8182891 58.6851095,26.9817109 57.5827545,25.7833333 C57.0825044,25.2548557 56.3846055,24.9556406 55.6546109,24.9566667 C54.9010425,24.945313 54.1763655,25.2445595 53.6526947,25.7833333 C52.5374657,26.976713 52.5374657,28.823287 53.6526947,30.0166667 C54.1737293,30.5532254 54.8943848,30.8523144 55.6445507,30.8433333 C56.3781217,30.8475354 57.0803507,30.5480264 57.5827545,30.0166667 L57.5827545,30.0166667 Z" id="Shape"></path>
                    <path d="M80.8143714,23.1566667 C81.6700084,24.0526485 82.1226724,25.255776 82.0685032,26.49 L82.0685032,33.6 L78.4670657,33.6 L78.4670657,27.2666667 C78.4923213,26.7053618 78.2962139,26.1564195 77.9204792,25.7366667 C77.5686943,25.3583515 77.0704632,25.1483492 76.5523352,25.16 C75.9230695,25.1385437 75.3199848,25.4111535 74.9226345,25.8966667 C74.5202396,26.3855555 74.3190421,27.0988889 74.3190421,28.0366667 L74.3190421,33.6066667 L70.6572455,33.6066667 L70.6572455,27.2733333 C70.6839423,26.7118155 70.4876472,26.162348 70.1106585,25.7433333 C69.7526619,25.3618875 69.2469785,25.1518333 68.7223954,25.1666667 C68.0986838,25.1397547 67.5003478,25.4141704 67.1161676,25.9033333 C66.7316568,26.3922222 66.5382834,27.1055555 66.536048,28.0433333 L66.536048,33.6133333 L62.8910181,33.6133333 L62.8910181,22.2166667 L66.536048,22.2166667 L66.536048,23.2566667 C67.3992935,22.3245619 68.6328707,21.8194266 69.9061078,21.8766667 C71.5916964,21.8766667 72.8368863,22.5177778 73.6416766,23.8 C74.5925242,22.535028 76.1084379,21.8158586 77.6958084,21.8766667 C78.8701962,21.8481851 80.002312,22.3128568 80.8143714,23.1566667 L80.8143714,23.1566667 Z" id="Path"></path>
                    <path d="M87.1621558,17.4166667 C87.5528244,17.7972748 87.7707533,18.3195977 87.7657486,18.8633333 C87.7782017,19.4065358 87.5589398,19.9296315 87.1621558,20.3033333 C86.7549263,20.689451 86.2089747,20.8971666 85.6464669,20.88 C85.0877819,20.8981064 84.5456345,20.6899965 84.1441916,20.3033333 C83.7525128,19.9269344 83.5372653,19.4047115 83.5506585,18.8633333 C83.5702303,18.0218185 84.0918522,17.2726555 84.8772602,16.9580425 C85.6626686,16.6434296 86.5610926,16.8237612 87.1621558,17.4166667 L87.1621558,17.4166667 Z M83.8088623,33.5833333 L83.8088623,22.2166667 L87.4538922,22.2166667 L87.4538922,33.5833333 L83.8088623,33.5833333 Z" id="Shape"></path>
                    <path d="M97.3561676,28.76 L100.709461,29.4833333 C100.447017,30.7701059 99.7163057,31.9154316 98.6572455,32.7 C97.5719613,33.5190083 96.2404173,33.9500356 94.8780838,33.9233333 C93.234712,33.9627814 91.6419238,33.3567651 90.4450299,32.2366667 C89.2399091,31.1201616 88.579608,29.5400102 88.6342514,27.9033333 C88.5831377,26.2672978 89.2428573,24.6885384 90.4450299,23.57 C91.6391322,22.4443848 93.2329171,21.8343941 94.8780838,21.8733333 C96.2225078,21.8516906 97.5362206,22.2737026 98.6136526,23.0733333 C99.6726859,23.8453982 100.416662,24.9706942 100.709461,26.2433333 L97.2924552,27.0566667 C97.1843566,26.4723699 96.8792067,25.9421242 96.4273053,25.5533333 C95.9867794,25.2084846 95.4385971,25.0280243 94.8780838,25.0433333 C94.1274724,25.0101041 93.3997752,25.3048086 92.8862274,25.85 C91.8841996,27.0389521 91.8841996,28.7710479 92.8862274,29.96 C93.401128,30.4957183 94.123336,30.7848256 94.868024,30.7533333 C96.1467465,30.7533333 96.9761276,30.0888889 97.3561676,28.76 Z" id="Path"></path>
                    <path d="M105.202874,17.4166667 C105.593543,17.7972748 105.811472,18.3195977 105.806467,18.8633333 C105.81892,19.4065358 105.599659,19.9296315 105.202874,20.3033333 C104.796675,20.6889375 104.25196,20.8966417 103.690539,20.88 C103.13077,20.8986333 102.587384,20.6905125 102.18491,20.3033333 C101.799194,19.9239548 101.589118,19.4024963 101.60479,18.8633333 C101.622543,18.0217132 102.143394,17.2716771 102.928761,16.9567881 C103.714128,16.6418991 104.612723,16.8228156 105.212934,17.4166667 L105.202874,17.4166667 Z M101.849581,33.5833333 L101.849581,22.2166667 L105.494611,22.2166667 L105.494611,33.5833333 L101.849581,33.5833333 Z" id="Shape"></path>
                    <polygon id="Path" points="107.426108 33.5833333 107.426108 17.28 111.071138 17.28 111.071138 33.5833333"></polygon>
                    <path d="M116.319042,17.4166667 C116.709711,17.7972748 116.92764,18.3195977 116.922635,18.8633333 C116.935088,19.4065358 116.715826,19.9296315 116.319042,20.3033333 C115.912843,20.6889375 115.368128,20.8966417 114.806707,20.88 C114.247068,20.8978645 113.703973,20.6898553 113.301078,20.3033333 C112.911669,19.9256636 112.697861,19.4039865 112.710898,18.8633333 C112.728651,18.0217132 113.249501,17.2716771 114.034869,16.9567881 C114.820236,16.6418991 115.718831,16.8228156 116.319042,17.4166667 L116.319042,17.4166667 Z M112.982515,33.5833333 L112.982515,22.2166667 L116.627545,22.2166667 L116.627545,33.5833333 L112.982515,33.5833333 Z" id="Shape"></path>
                    <path d="M128.565269,23.5966667 C129.77308,24.6995054 130.437826,26.2705517 130.386108,27.9 C130.444458,29.5393787 129.779337,31.1222699 128.565269,32.2333333 C127.359021,33.3427486 125.765003,33.9406842 124.122156,33.9 C122.461492,33.945295 120.848035,33.347734 119.622036,32.2333333 C118.402739,31.1251553 117.73353,29.5412859 117.791138,27.9 C117.740176,26.2686437 118.409006,24.6966277 119.622036,23.5966667 C120.848035,22.482266 122.461492,21.884705 124.122156,21.93 C125.765003,21.8893158 127.359021,22.4872514 128.565269,23.5966667 L128.565269,23.5966667 Z M126.057006,30.0166667 C127.159361,28.8182891 127.159361,26.9817109 126.057006,25.7833333 C125.558261,25.2546998 124.861293,24.9553633 124.132216,24.9566667 C123.385611,24.950836 122.669271,25.2496428 122.150419,25.7833333 C121.03519,26.976713 121.03519,28.823287 122.150419,30.0166667 C122.671224,30.5535602 123.392032,30.8527124 124.142275,30.8433333 C124.867939,30.842271 125.560889,30.5430966 126.057006,30.0166667 L126.057006,30.0166667 Z" id="Shape"></path>
                    <path d="M134.131736,29.8933333 C134.283752,30.7822222 134.954411,31.2266667 136.143712,31.2266667 C136.522443,31.2458903 136.898659,31.1555799 137.226827,30.9666667 C137.473614,30.8477132 137.636488,30.6054948 137.652695,30.3333333 C137.652695,29.9088889 137.273773,29.6288889 136.515928,29.4933333 L134.192096,29.04 C131.974451,28.6333333 130.865629,27.5322222 130.865629,25.7366667 C130.833553,24.6380054 131.344611,23.593336 132.233773,22.94 C133.142515,22.2366667 134.329581,21.8866667 135.78491,21.8866667 C137.004663,21.8392698 138.211877,22.1462267 139.258922,22.77 C140.133966,23.2963357 140.75522,24.1546541 140.979162,25.1466667 L137.652695,25.8133333 C137.587758,25.4290336 137.370288,25.0867547 137.049102,24.8633333 C136.668196,24.5942062 136.20827,24.4582219 135.741317,24.4766667 C135.385687,24.4433318 135.029589,24.5353662 134.735329,24.7366667 C134.54284,24.8869392 134.430361,25.1167016 134.43018,25.36 C134.43018,25.7666667 134.718563,26.0266667 135.295329,26.1533333 L137.977964,26.6966667 C138.88062,26.8450342 139.711591,27.2773244 140.348742,27.93 C140.887135,28.5239471 141.181536,29.2972056 141.173653,30.0966667 C141.223121,31.223159 140.681071,32.294497 139.741796,32.9266667 C138.782755,33.5933333 137.529741,33.9266667 135.982755,33.9266667 C134.719507,33.9688646 133.466911,33.6839987 132.347784,33.1 C131.400853,32.5982797 130.752658,31.6763826 130.604072,30.62 L134.131736,29.8933333 Z" id="Path"></path>
                    <path d="M203.323593,23 C203.260606,22.9574314 203.184917,22.9374461 203.108982,22.9433333 L202.931258,22.9433333 L202.931258,23.3333333 L203.088862,23.3333333 C203.171211,23.34016 203.253567,23.3202782 203.323593,23.2766667 C203.363475,23.2437357 203.386546,23.1948709 203.386546,23.1433333 C203.386546,23.0917958 203.363475,23.042931 203.323593,23.01 L203.323593,23 Z" id="Path"></path>
                    <path d="M197.70012,25.81 C197.515542,25.5233813 197.264958,25.2845728 196.969102,25.1133333 C196.621091,24.9285176 196.229979,24.8387985 195.835688,24.8533333 C195.445576,24.8377648 195.058514,24.9276184 194.715688,25.1133333 C194.421979,25.2838557 194.174516,25.5229811 193.994731,25.81 C193.802764,26.1166446 193.668674,26.4555235 193.599042,26.81 C193.5158,27.214752 193.474228,27.6268769 193.474902,28.04 C193.473552,28.4487459 193.515135,28.8565187 193.599042,29.2566667 C193.669683,29.6181659 193.803611,29.9645328 193.994731,30.28 C194.166842,30.5768542 194.412787,30.8247783 194.708982,31 C195.055535,31.1816537 195.444225,31.2690483 195.835688,31.2533333 C196.230272,31.2680039 196.621939,31.1807191 196.972455,31 C197.269164,30.8340049 197.519328,30.596789 197.70012,30.31 C197.891239,29.9945328 198.025168,29.6481659 198.095808,29.2866667 C198.176956,28.8861563 198.217399,28.4785519 198.216554,28.07 C198.216722,27.6570684 198.17629,27.2451076 198.095808,26.84 C198.029739,26.4751265 197.895531,26.1257747 197.70012,25.81 L197.70012,25.81 Z" id="Path"></path>
                    <path d="M177.912335,-3.97974762e-07 C166.533887,-0.00134819945 156.275144,6.81120505 151.920173,17.2606891 C147.565203,27.7101731 149.97174,39.7385095 158.017518,47.7363958 C166.063296,55.7342821 178.163658,58.1264943 188.675714,53.7974467 C199.18777,49.4683992 206.041117,39.2707191 206.039761,27.96 C206.04065,20.5442759 203.077519,13.4320267 197.802411,8.18831789 C192.527302,2.94460905 185.372465,-0.000884245415 177.912335,-3.97974762e-07 Z M158.583952,21.23 L160.260599,19.13 C160.30982,19.0688049 160.386653,19.0362515 160.46515,19.0433333 L163.640719,19.0433333 C163.77485,19.0433333 163.674251,19.13 163.674251,19.13 L160.844072,21.27 C160.773068,21.3269733 160.683767,21.3565634 160.592575,21.3533333 L158.610779,21.3533333 C158.48,21.3533333 158.583952,21.23 158.583952,21.23 Z M163.151138,33.1466667 C162.155645,33.7551906 161.002873,34.0610754 159.834731,34.0266667 C159.00556,34.0389195 158.181627,33.8941187 157.406946,33.6 C156.706696,33.328272 156.074866,32.907284 155.555928,32.3666667 C155.041851,31.8181753 154.644885,31.1718426 154.388982,30.4666667 C154.111638,29.6957582 153.974255,28.8820072 153.983234,28.0633333 C153.975365,27.2544499 154.117456,26.4510451 154.402395,25.6933333 C154.93433,24.2600424 156.038723,23.109141 157.453892,22.5133333 C158.207583,22.2000113 159.017845,22.0434611 159.834731,22.0533333 C160.72007,22.0336723 161.596959,22.2281392 162.38994,22.62 C163.099269,22.978785 163.713807,23.4983177 164.183952,24.1366667 C164.65555,24.7834091 164.997128,25.5145613 165.18994,26.29 C165.348155,26.9200797 165.427003,27.5672592 165.424769,28.2166667 C165.424769,28.4066667 165.424769,28.5966667 165.407904,28.7866667 L165.407904,28.89 C165.407904,28.89 165.407904,29.0333333 165.277126,29.0333333 L157.531018,29.0333333 C157.552939,29.3408136 157.613778,29.6443188 157.712096,29.9366667 C157.804019,30.220725 157.962642,30.4789528 158.17485,30.69 C158.379548,30.8871344 158.627495,31.0343326 158.899162,31.12 C159.236125,31.2266597 159.588479,31.2773399 159.942036,31.27 C160.444861,31.2838798 160.939892,31.1442814 161.360479,30.87 C161.538396,30.753104 161.698718,30.6116933 161.836647,30.45 C161.93922,30.3365459 162.015866,30.2023609 162.061317,30.0566667 L162.088144,29.96 C162.088144,29.96 162.10491,29.8733333 162.255808,29.8733333 L165.203353,29.8733333 C165.327425,29.8733333 165.287186,29.9766667 165.287186,29.9766667 L165.206707,30.21 C165.016015,30.8293114 164.733466,31.4168867 164.368383,31.9533333 C164.046748,32.4278194 163.63288,32.833557 163.151138,33.1466667 L163.151138,33.1466667 Z M176.346347,33.7766667 L172.476647,33.7766667 C172.389037,33.7677541 172.310167,33.7199784 172.262036,33.6466667 L170.21988,30.58 L168.171018,33.6666667 C168.130397,33.7452372 168.048623,33.7942678 167.95976,33.7933592 L164.147066,33.7933592 C164.012934,33.7933592 164.09006,33.6833333 164.09006,33.6833333 L168.150898,27.78 L164.663473,22.78 L164.401916,22.4066667 C164.401916,22.4066667 164.34491,22.33 164.452216,22.33 L168.362156,22.33 C168.431435,22.3287927 168.497711,22.3580734 168.543234,22.41 L170.26012,24.94 L171.963593,22.4 C171.998477,22.3506363 172.057472,22.3238639 172.117844,22.33 L175.917126,22.33 C176.051258,22.33 176.000958,22.3966667 176.000958,22.3966667 L172.245269,27.7 L176.406707,33.6666667 C176.406707,33.6666667 176.490539,33.7766667 176.346347,33.7766667 Z M179.028982,38.6466667 C178.157641,38.6480148 177.371406,38.1271152 177.037332,37.3271501 C176.703257,36.5271851 176.88723,35.6059251 177.503362,34.9934608 C178.119493,34.3809963 179.04627,34.198119 179.851025,34.530205 C180.655781,34.8622909 181.179799,35.6438456 181.178449,36.51 C181.178449,37.0795788 180.9497,37.6255894 180.542964,38.0267747 C180.136229,38.42796 179.585187,38.6511096 179.012216,38.6466667 L179.028982,38.6466667 Z M180.705629,33.6466667 C180.705629,33.6466667 180.705629,33.79 180.578204,33.79 L177.473054,33.79 C177.352335,33.79 177.342275,33.6533333 177.342275,33.6533333 L176.711856,22.43 C176.711856,22.43 176.68503,22.3266667 176.839281,22.3266667 L181.211976,22.3266667 C181.329341,22.3266667 181.326008,22.4533333 181.326008,22.4533333 L180.705629,33.6466667 Z M189.695808,24.7633333 C189.701648,24.8340094 189.64943,24.8962981 189.578443,24.9033333 L187.492695,24.9033333 L187.492695,30 C187.488147,30.1882987 187.507297,30.376424 187.549701,30.56 C187.56347,30.6502931 187.603043,30.7347538 187.663712,30.8033333 C187.733816,30.8625661 187.818147,30.9027577 187.908503,30.92 C188.093845,30.9576462 188.282698,30.9755252 188.471856,30.9733333 C188.632814,30.9733333 188.787066,30.9666667 188.934611,30.9533333 C189.073124,30.9410778 189.210829,30.9210458 189.347066,30.8933333 L189.578443,30.8466667 C189.578443,30.8466667 189.695808,30.8 189.695808,30.9433333 L189.695808,33.61 C189.695808,33.7533333 189.581796,33.7533333 189.581796,33.7533333 L189.454371,33.7766667 C189.160972,33.8199931 188.865467,33.84781 188.569102,33.86 C188.253892,33.8766667 187.948742,33.8834552 187.650299,33.8834552 C187.191229,33.8850539 186.732707,33.8516216 186.278803,33.7833333 C185.856492,33.7259531 185.449059,33.5890648 185.078323,33.38 C184.712129,33.1688763 184.41339,32.8592051 184.216527,32.4866667 C183.992272,32.0332763 183.885097,31.5315206 183.904671,31.0266667 L183.904671,24.89 L182.184431,24.89 C182.150661,24.8915854 182.118015,24.8777388 182.095799,24.8524074 C182.073583,24.8270759 182.064235,24.7930391 182.070419,24.76 L182.070419,22.4266667 C182.070419,22.4266667 182.050299,22.3266667 182.204551,22.3266667 L183.881197,22.3266667 L183.881197,19.1766667 C183.877131,19.143178 183.888283,19.1096292 183.911621,19.0851416 C183.934958,19.060654 183.968056,19.0477727 184.001916,19.05 L187.35521,19.05 C187.389627,19.0489288 187.422865,19.0625183 187.446565,19.08735 C187.470264,19.1121816 187.482168,19.1458918 187.479281,19.18 L187.479281,22.3333333 L189.558323,22.3333333 C189.590263,22.3305207 189.621917,22.3412075 189.645528,22.3627741 C189.669138,22.3843407 189.68252,22.4147932 189.682395,22.4466667 L189.695808,24.7633333 Z M201.395449,30.5366667 C201.130232,31.2455151 200.719066,31.8915178 200.188264,32.4333333 C199.652031,32.96953 199.005815,33.3845121 198.293653,33.65 C197.511581,33.9377349 196.68296,34.0801009 195.849102,34.07 C195.01844,34.0810894 194.192936,33.9386728 193.414611,33.65 C192.706909,33.383472 192.065285,32.9685006 191.533413,32.4333333 C191.000464,31.8925696 190.588007,31.2463344 190.322874,30.5366667 C189.764018,28.9391397 189.764018,27.2008603 190.322874,25.6033333 C190.847609,24.1630342 191.973939,23.0190951 193.411258,22.4666667 C194.987637,21.8934193 196.717273,21.8934193 198.293653,22.4666667 C199.739838,23.0101635 200.873577,24.1566479 201.395449,25.6033333 C201.954305,27.2008603 201.954305,28.9391397 201.395449,30.5366667 L201.395449,30.5366667 Z M203.897006,24.6666667 C203.68508,24.7917081 203.442595,24.8562934 203.196168,24.8533333 C202.948776,24.8555461 202.705411,24.7910349 202.491976,24.6666667 C202.27539,24.5463284 202.096628,24.3686301 201.975569,24.1533333 C201.725361,23.7198065 201.725361,23.1868601 201.975569,22.7533333 C202.096628,22.5380365 202.27539,22.3603383 202.491976,22.24 C202.705411,22.1156317 202.948776,22.0511205 203.196168,22.0533333 C203.442595,22.0503733 203.68508,22.1149586 203.897006,22.24 C204.115027,22.3584429 204.294261,22.5366101 204.413413,22.7533333 C204.668507,23.1855533 204.668507,23.7211133 204.413413,24.1533333 C204.294261,24.3700565 204.115027,24.5482237 203.897006,24.6666667 Z" id="Shape"></path>
                    <path d="M161.196168,25.3333333 C161.041184,25.1604037 160.843558,25.0305863 160.622755,24.9566667 C160.342776,24.8593334 160.047422,24.8130357 159.750898,24.82 C159.378847,24.8068245 159.008914,24.881056 158.671138,25.0366667 C158.411324,25.162518 158.182404,25.3434261 158.000479,25.5666667 C157.839027,25.7634785 157.718236,25.9900292 157.64503,26.2333333 C157.60479,26.37 157.574611,26.5 157.551138,26.6166667 L161.826587,26.6166667 C161.724582,26.1442853 161.508187,25.7037724 161.196168,25.3333333 L161.196168,25.3333333 Z" id="Path"></path>
                    <path d="M203.209581,22.3033333 C202.906501,22.2990977 202.615176,22.4197603 202.40479,22.6366667 C201.962843,23.0808309 201.962843,23.7958358 202.40479,24.24 C202.729936,24.5639977 203.219571,24.6610564 203.644868,24.4858168 C204.070165,24.3105771 204.347139,23.8976452 204.346387,23.44 C204.348138,23.1394574 204.229054,22.8506611 204.015578,22.6378289 C203.802101,22.4249967 203.511927,22.3057722 203.209581,22.3066667 L203.209581,22.3033333 Z M203.427545,24.1866667 C203.344542,24.0079348 203.246971,23.8362512 203.135808,23.6733333 C203.102054,23.6245673 203.047685,23.59386 202.988264,23.59 L202.944671,23.59 L202.944671,24.1766667 L202.569102,24.1766667 L202.569102,22.6766667 L203.23976,22.6766667 C203.388156,22.6625765 203.536485,22.7041943 203.655569,22.7933333 C203.743917,22.8701464 203.79106,22.9836007 203.782994,23.1 C203.783417,23.1955299 203.748851,23.287948 203.685749,23.36 C203.601552,23.4431109 203.493988,23.4988973 203.377245,23.52 C203.422705,23.5375072 203.46557,23.5610546 203.504671,23.59 C203.549914,23.6361814 203.589326,23.6876722 203.622036,23.7433333 L203.866827,24.1766667 L203.427545,24.1866667 Z" id="Shape"></path>
                </g>
            </g>
        </g>
    </g>
</svg>