<?xml version="1.0" encoding="UTF-8"?>
<svg width="44px" height="44px" viewBox="0 0 44 44" version="1.1" xmlns="http://www.w3.org/2000/svg" xmlns:xlink="http://www.w3.org/1999/xlink">
    <!-- Generator: Sketch 64 (93537) - https://sketch.com -->
    <title>mercado</title>
    <desc>Created with Sketch.</desc>
    <g id="Compra-y-Recoge" stroke="none" stroke-width="1" fill="none" fill-rule="evenodd">
        <g id="HOME---Servicios---Compra-y-Recoge-V2---Desktop-HD" transform="translate(-306.000000, -2207.000000)" fill="#0094BF" fill-rule="nonzero">
            <g id="Group-16" transform="translate(306.000000, 2207.000000)">
                <g id="mercado">
                    <path d="M41.3287188,10.6745547 C41.1088047,9.362375 40.4989922,8.13879687 39.5543672,7.1506875 C38.6782344,6.23416406 37.6003203,5.61300781 36.4301094,5.33053125 C36.9098984,3.74 38.3879375,2.578125 40.1328125,2.578125 C40.8447187,2.578125 41.421875,2.00096875 41.421875,1.2890625 C41.421875,0.57715625 40.8447187,0 40.1328125,0 C36.9801094,0 34.3506797,2.27596875 33.7967266,5.27080469 C32.8239141,5.45926562 31.9080781,5.87898437 31.109375,6.50615625 L31.109375,5.15625 C31.109375,2.31309375 28.7962812,0 25.953125,0 C24.0349141,0 22.3410859,1.03632031 21.4221563,2.578125 L16.84375,2.578125 C14.7113828,2.578125 12.9765625,4.31294531 12.9765625,6.4453125 L12.9765625,10.484375 L11.6875,10.484375 C11.6697109,10.484375 11.6521797,10.4854922 11.6343906,10.48575 L10.7019688,5.68691406 C10.3829687,4.09191406 9.09588281,2.88500781 7.52992969,2.62917188 C7.01241406,1.10232031 5.56660156,0 3.8671875,0 C1.73482031,0 0,1.73482031 0,3.8671875 C0,5.99955469 1.73482031,7.734375 3.8671875,7.734375 C5.49991406,7.734375 6.89846094,6.71678906 7.46478906,5.28300781 C7.82142969,5.45376562 8.09204688,5.78316406 8.17257031,6.18560938 L9.18671875,11.4052813 C8.35157812,12.115125 7.8203125,13.1721563 7.8203125,14.3515625 L7.8203125,16.9296875 C7.8203125,17.6415937 8.39746875,18.21875 9.109375,18.21875 L10.5954922,18.21875 L12.7926563,31.4015625 C11.3889531,31.9820703 10.3984375,33.3655781 10.3984375,34.9765625 C10.3984375,36.7574453 11.6088672,38.2601484 13.2499297,38.7074531 C13.0742734,39.1489141 12.9765625,39.6294766 12.9765625,40.1328125 C12.9765625,42.2651797 14.7113828,44 16.84375,44 C18.9761172,44 20.7109375,42.2651797 20.7109375,40.1328125 C20.7109375,39.6809531 20.6323047,39.2386328 20.4892187,38.8351562 L31.3310937,38.8351562 C31.1880078,39.2386328 31.109375,39.6809531 31.109375,40.1328125 C31.109375,42.2651797 32.8441953,44 34.9765625,44 C37.1089297,44 38.84375,42.2651797 38.84375,40.1328125 C38.84375,38.0004453 37.1089297,36.265625 34.9765625,36.265625 L14.265625,36.265625 C13.5548359,36.265625 12.9765625,35.6873516 12.9765625,34.9765625 C12.9765625,34.2657734 13.5548359,33.6875 14.265625,33.6875 L37.5546875,33.6875 C38.1767891,33.6875 38.7216328,33.2341797 38.8262188,32.6103594 L41.2248203,18.21875 L42.7109375,18.21875 C43.4228437,18.21875 44,17.6415937 44,16.9296875 L44,14.3515625 C44,12.6365078 42.8773984,11.1795234 41.3287188,10.6745547 Z M3.8671875,5.15625 C3.15639844,5.15625 2.578125,4.57797656 2.578125,3.8671875 C2.578125,3.15639844 3.15639844,2.578125 3.8671875,2.578125 C4.57797656,2.578125 5.15625,3.15639844 5.15625,3.8671875 C5.15625,4.57797656 4.57797656,5.15625 3.8671875,5.15625 Z M34.9765625,38.84375 C35.6873516,38.84375 36.265625,39.4220234 36.265625,40.1328125 C36.265625,40.8436016 35.6873516,41.421875 34.9765625,41.421875 C34.2657734,41.421875 33.6875,40.8436016 33.6875,40.1328125 C33.6875,39.4220234 34.2657734,38.84375 34.9765625,38.84375 Z M16.84375,38.84375 C17.5545391,38.84375 18.1328125,39.4220234 18.1328125,40.1328125 C18.1328125,40.8436016 17.5545391,41.421875 16.84375,41.421875 C16.1329609,41.421875 15.5546875,40.8436016 15.5546875,40.1328125 C15.5546875,39.4220234 16.1329609,38.84375 16.84375,38.84375 Z M34.9765625,7.734375 C36.6434922,7.734375 38.1035703,8.90441406 38.6322578,10.484375 L31.3209531,10.484375 C31.8495547,8.90441406 33.3096328,7.734375 34.9765625,7.734375 Z M23.2890625,5.15625 C23.2890625,3.75882031 24.5090312,2.578125 25.953125,2.578125 C27.3747031,2.578125 28.53125,3.73467188 28.53125,5.15625 L28.53125,10.484375 L23.2890625,10.484375 L23.2890625,5.15625 Z M15.5546875,6.4453125 C15.5546875,5.73452344 16.1329609,5.15625 16.84375,5.15625 L20.7109375,5.15625 L20.7109375,10.484375 L15.5546875,10.484375 L15.5546875,6.4453125 Z M36.4626797,31.109375 L15.3576328,31.109375 L14.9279453,28.53125 L19.421875,28.53125 C20.1337812,28.53125 20.7109375,27.9540937 20.7109375,27.2421875 C20.7109375,26.5302813 20.1337812,25.953125 19.421875,25.953125 L14.4982578,25.953125 L14.0685703,23.375 L24.578125,23.375 C25.2900312,23.375 25.8671875,22.7978437 25.8671875,22.0859375 C25.8671875,21.3740313 25.2900312,20.796875 24.578125,20.796875 L13.6388828,20.796875 L13.2091953,18.21875 L38.6111172,18.21875 L36.4626797,31.109375 Z M41.421875,15.640625 C39.7317422,15.640625 11.6489141,15.640625 10.3984375,15.640625 L10.3984375,14.3515625 C10.3984375,13.6407734 10.9767109,13.0625 11.6875,13.0625 C12.9450234,13.0625 38.8933359,13.0625 40.1328125,13.0625 C40.8436016,13.0625 41.421875,13.6407734 41.421875,14.3515625 L41.421875,15.640625 Z" id="Shape"></path>
                </g>
            </g>
        </g>
    </g>
</svg>