<?xml version="1.0" encoding="UTF-8"?>
<svg width="53px" height="53px" viewBox="0 0 53 53" version="1.1" xmlns="http://www.w3.org/2000/svg" xmlns:xlink="http://www.w3.org/1999/xlink">
    <!-- Generator: Sketch 64 (93537) - https://sketch.com -->
    <title>wapp</title>
    <desc>Created with Sketch.</desc>
    <defs>
        <linearGradient x1="50.0010789%" y1="100%" x2="50.0010789%" y2="0%" id="linearGradient-1">
            <stop stop-color="#00B125" offset="0%"></stop>
            <stop stop-color="#00D662" offset="100%"></stop>
        </linearGradient>
    </defs>
    <g id="Compra-y-Recoge" stroke="none" stroke-width="1" fill="none" fill-rule="evenodd">
        <g id="HOME---Servicios---Compra-y-Recoge-V2---Desktop-HD" transform="translate(-958.000000, -1837.000000)">
            <g id="Group-29" transform="translate(798.000000, 1837.000000)">
                <g id="wapp" transform="translate(160.000000, 0.000000)">
                    <rect id="Rectangle" fill="url(#linearGradient-1)" fill-rule="nonzero" x="0" y="0" width="52.9348922" height="52.9348922" rx="13"></rect>
                    <path d="M44.5142888,26.003125 C44.5142888,35.7121767 36.5814224,43.5845043 26.7958405,43.5845043 C23.8014107,43.5899288 20.8543122,42.8374363 18.2290302,41.3971121 L8.42060345,44.5142888 L11.6188793,35.0816595 C9.95263293,32.3469253 9.07320448,29.2054883 9.07739224,26.003125 C9.07739224,16.2940733 17.0102586,8.42060345 26.7969828,8.42060345 C36.5837069,8.42060345 44.515431,16.292931 44.515431,26.003125 L44.5142888,26.003125 Z M26.7958405,11.2213793 C18.5796983,11.2213793 11.8987242,17.8463793 11.8987242,26.003125 C11.896347,29.1206499 12.8900528,32.1573956 14.7349138,34.6704526 L12.8742026,40.1589224 L18.5979741,38.3404741 C21.0325282,39.9390015 23.8822548,40.7888364 26.7946983,40.7848845 C35.0096983,40.7848845 41.6918103,34.1530172 41.6918103,26.003125 C41.6918103,17.8532328 35.0096983,11.2213793 26.7958405,11.2213793 Z M35.7441595,30.0523707 C35.6299353,29.8730388 35.344375,29.7656681 34.9114655,29.5497845 C34.478556,29.3339009 32.3402802,28.293319 31.9416379,28.1482543 C31.5429957,28.0031897 31.2562931,27.9323707 30.9650216,28.3629957 C30.67375,28.7936207 29.8433405,29.7656681 29.5840517,30.0523707 C29.3247629,30.3390733 29.079181,30.3767672 28.6451293,30.1608836 C28.2110776,29.945 26.8095474,29.4892457 25.1510129,28.0226078 C23.8602802,26.8803664 22.98875,25.468556 22.7340302,25.037931 C22.4793103,24.607306 22.7089009,24.3742888 22.9247845,24.1595474 C23.1201078,23.9653664 23.3588362,23.655819 23.5758621,23.4056681 C23.754512,23.1869515 23.9010523,22.9438714 24.011056,22.6837716 C24.1288922,22.442824 24.1150975,22.1583099 23.9745043,21.9298922 C23.8602802,21.7151509 22.9967457,19.5940086 22.6346552,18.7316164 C22.2725647,17.8692241 21.9116164,17.9023491 21.6568966,17.9023491 C21.4153845,17.9134535 21.1747249,17.9386255 20.9361422,17.9777371 C20.9361422,17.9777371 20.0657543,18.0851078 19.6682543,18.516875 C19.2707543,18.9486422 18.147931,19.9903664 18.147931,22.1103664 C18.147931,24.2303664 19.7036638,26.2806897 19.9206897,26.5651078 C20.1377155,26.8495259 22.9247845,31.3476724 27.3452586,33.0758836 C31.7657328,34.8040948 31.7611638,34.222694 32.5538793,34.1530172 C33.3465948,34.0833405 35.1227802,33.1112931 35.4860129,32.1049784 C35.8492457,31.0986638 35.8481034,30.2351293 35.7407328,30.0557974 L35.7441595,30.0523707 Z" id="Shape" fill="#FFFFFF"></path>
                </g>
            </g>
        </g>
    </g>
</svg>