<?xml version="1.0" encoding="UTF-8"?>
<svg width="22px" height="22px" viewBox="0 0 22 22" version="1.1" xmlns="http://www.w3.org/2000/svg" xmlns:xlink="http://www.w3.org/1999/xlink">
    <!-- Generator: Sketch 64 (93537) - https://sketch.com -->
    <title>whatsapp</title>
    <desc>Created with Sketch.</desc>
    <defs>
        <linearGradient x1="49.9997673%" y1="100.000253%" x2="49.9997673%" y2="-0.000112938258%" id="linearGradient-1">
            <stop stop-color="#20B038" offset="0%"></stop>
            <stop stop-color="#60D66A" offset="100%"></stop>
        </linearGradient>
    </defs>
    <g id="Compra-y-Recoge" stroke="none" stroke-width="1" fill="none" fill-rule="evenodd">
        <g id="HOME---Servicios---Compra-y-Recoge-V2---Desktop-HD-2" transform="translate(-202.000000, -2494.000000)">
            <g id="Group-30" transform="translate(-16.000000, 2156.000000)">
                <g id="Group-23" transform="translate(144.000000, 206.000000)">
                    <g id="Group-22">
                        <g id="Group-21" transform="translate(74.000000, 132.000000)">
                            <g id="whatsapp">
                                <path d="M0.536585366,21.4634146 L2.01493359,16.0898303 C1.10289242,14.5172431 0.623420903,12.7330743 0.623956891,10.9056821 C0.626369041,5.18817767 5.30047945,0.536585366 11.0436854,0.536585366 C13.8309989,0.537919406 16.4473215,1.61770571 18.4142536,3.5777033 C20.3817218,5.53796761 21.4644859,8.14311546 21.4634146,10.9139533 C21.4610018,16.6314577 16.7863554,21.2835837 11.0439534,21.2835837 C11.0436854,21.2835837 11.0442214,21.2835837 11.0439534,21.2835837 L11.0393972,21.2835837 C9.29571816,21.28305 7.58232437,20.8473468 6.06029035,20.0215651 L0.536585366,21.4634146 Z" id="Path" fill="url(#linearGradient-1)" fill-rule="nonzero"></path>
                                <g id="Group" fill="#FFFFFF">
                                    <path d="M18.793389,3.21265723 C16.7254499,1.15637286 13.9757219,0.0232409937 11.0459602,0.0218897233 C5.00912284,0.0218897233 0.0962717215,4.90222091 0.0938241519,10.9010908 C0.0930083418,12.8187401 0.597211234,14.6904481 1.55557753,16.3402859 L0.00163175949,21.9781103 L5.80758012,20.4652859 C7.40748619,21.3322278 9.2083663,21.7889397 11.041337,21.7897504 L11.0459602,21.7897504 C17.0819818,21.7897504 21.9956487,16.9083383 21.9980971,10.9097386 C21.9991841,8.00272699 20.8610562,5.26921184 18.793389,3.21265723 Z M11.0459602,19.9523634 L11.0424248,19.9523634 C9.40879646,19.9512824 7.80671476,19.5153794 6.40941456,18.6914062 L6.07681466,18.4954796 L2.63142801,19.3932291 L3.55117678,16.0562599 L3.33442937,15.7141313 C2.42311119,14.2742728 1.94202431,12.6103823 1.94283915,10.9019015 C1.94474389,5.91590509 6.02813492,1.85954696 11.0494957,1.85954696 C13.4810374,1.8603577 15.7662678,2.80242725 17.4852898,4.51144854 C19.2040398,6.22073999 20.1496242,8.49267882 20.1490805,10.9091981 C20.1469046,15.8951945 16.0632417,19.9523634 11.0459602,19.9523634 L11.0459602,19.9523634 Z" id="Shape"></path>
                                    <path d="M16.0390378,13.1795155 C15.765452,13.0435829 14.4200949,12.3855395 14.1690813,12.2947376 C13.9183396,12.204206 13.7358584,12.158805 13.5533772,12.4312107 C13.370896,12.7030759 12.8465685,13.3154481 12.6869314,13.4967817 C12.5272943,13.6783854 12.3676572,13.7010859 12.0940714,13.5651533 C11.8204855,13.4286802 10.9390823,13.1419517 9.89341873,12.2155562 C9.08000396,11.4948163 8.53065665,10.6046334 8.37101956,10.332498 C8.21138248,10.0603626 8.35388651,9.91307976 8.49122332,9.77741745 C8.61387457,9.65580775 8.76480912,9.46015137 8.90160206,9.301248 C9.03812299,9.14261499 9.08381128,9.02911264 9.17518786,8.84777909 C9.26629251,8.66617531 9.22060422,8.50754224 9.15234378,8.37160964 C9.08381128,8.23540681 8.55214104,6.8906741 8.30874209,6.35288915 C8.10368872,5.90023092 7.88775712,5.89104267 7.69276604,5.88320555 C7.53340089,5.87644947 7.35064773,5.87671822 7.16843851,5.87671822 C6.98595728,5.87671822 6.68952733,5.94482118 6.4387856,6.21695655 C6.18777194,6.48909198 5.48069124,7.14686521 5.48069124,8.48484177 C5.48069124,9.8228184 6.46162975,11.1156643 6.59815075,11.2972681 C6.73521562,11.4786016 8.49149525,14.3118367 11.2730419,15.4019998 C13.5846519,16.3078567 14.0551325,16.1276042 14.5568879,16.0822033 C15.0586432,16.0368023 16.1758307,15.4247003 16.4040002,14.7896276 C16.6318977,14.154825 16.6318977,13.6105542 16.5636372,13.4967817 C16.4951049,13.3835495 16.3126236,13.3154481 16.0390378,13.1795155 Z" id="Path"></path>
                                </g>
                            </g>
                        </g>
                    </g>
                </g>
            </g>
        </g>
    </g>
</svg>