<?xml version="1.0" encoding="UTF-8"?>
<svg width="318px" height="135px" viewBox="0 0 318 135" version="1.1" xmlns="http://www.w3.org/2000/svg" xmlns:xlink="http://www.w3.org/1999/xlink">
    <!-- Generator: Sketch 64 (93537) - https://sketch.com -->
    <title>header-puntos</title>
    <desc>Created with Sketch.</desc>
    <defs>
        <linearGradient x1="9.44944102%" y1="89.0630319%" x2="77.1171066%" y2="12.6419365%" id="linearGradient-1">
            <stop stop-color="#0060AC" offset="1%"></stop>
            <stop stop-color="#234799" offset="17%"></stop>
            <stop stop-color="#5D3A87" offset="36%"></stop>
            <stop stop-color="#9A2C74" offset="58%"></stop>
            <stop stop-color="#C62267" offset="76%"></stop>
            <stop stop-color="#E21C5E" offset="91%"></stop>
            <stop stop-color="#EC1A5B" offset="99%"></stop>
        </linearGradient>
        <radialGradient cx="166.585136%" cy="83.2286713%" fx="166.585136%" fy="83.2286713%" r="65.6555426%" gradientTransform="translate(1.665851,0.832287),scale(0.885318,1.000000),rotate(38.500654),translate(-1.665851,-0.832287)" id="radialGradient-2">
            <stop stop-color="#FFFFFF" stop-opacity="0.2" offset="0%"></stop>
            <stop stop-color="#FFFFFF" stop-opacity="0.1" offset="37%"></stop>
            <stop stop-color="#FFFFFF" stop-opacity="0.03" offset="74%"></stop>
            <stop stop-color="#FFFFFF" stop-opacity="0" offset="100%"></stop>
        </radialGradient>
        <radialGradient cx="-19938.9201%" cy="-15091.3934%" fx="-19938.9201%" fy="-15091.3934%" r="58.4682182%" gradientTransform="translate(-199.389201,-150.913934),scale(0.884115,1.000000),translate(199.389201,150.913934)" id="radialGradient-3">
            <stop stop-color="#FFFFFF" stop-opacity="0.2" offset="0%"></stop>
            <stop stop-color="#FFFFFF" stop-opacity="0.1" offset="37%"></stop>
            <stop stop-color="#FFFFFF" stop-opacity="0.03" offset="74%"></stop>
            <stop stop-color="#FFFFFF" stop-opacity="0" offset="100%"></stop>
        </radialGradient>
        <radialGradient cx="40.0606471%" cy="46.0876919%" fx="40.0606471%" fy="46.0876919%" r="65.2121931%" gradientTransform="translate(0.400606,0.460877),scale(0.901020,1.000000),rotate(39.610688),translate(-0.400606,-0.460877)" id="radialGradient-4">
            <stop stop-color="#FFFFFF" stop-opacity="0.5" offset="0%"></stop>
            <stop stop-color="#FFFFFF" stop-opacity="0.39" offset="16%"></stop>
            <stop stop-color="#FFFFFF" stop-opacity="0.22" offset="42%"></stop>
            <stop stop-color="#FFFFFF" stop-opacity="0.1" offset="66%"></stop>
            <stop stop-color="#FFFFFF" stop-opacity="0.03" offset="86%"></stop>
            <stop stop-color="#FFFFFF" stop-opacity="0" offset="100%"></stop>
        </radialGradient>
        <linearGradient x1="80.2034133%" y1="19.995305%" x2="37.3774059%" y2="63.4940388%" id="linearGradient-5">
            <stop stop-color="#FFFFFF" stop-opacity="0.5" offset="0%"></stop>
            <stop stop-color="#FFFFFF" stop-opacity="0.39" offset="16%"></stop>
            <stop stop-color="#FFFFFF" stop-opacity="0.22" offset="42%"></stop>
            <stop stop-color="#FFFFFF" stop-opacity="0.1" offset="66%"></stop>
            <stop stop-color="#FFFFFF" stop-opacity="0.03" offset="86%"></stop>
            <stop stop-color="#FFFFFF" stop-opacity="0" offset="100%"></stop>
        </linearGradient>
        <linearGradient x1="225.744432%" y1="281.177082%" x2="206.870597%" y2="249.354803%" id="linearGradient-6">
            <stop stop-color="#FFFFFF" stop-opacity="0.5" offset="0%"></stop>
            <stop stop-color="#FFFFFF" stop-opacity="0.39" offset="8%"></stop>
            <stop stop-color="#FFFFFF" stop-opacity="0.22" offset="21%"></stop>
            <stop stop-color="#FFFFFF" stop-opacity="0.1" offset="33%"></stop>
            <stop stop-color="#FFFFFF" stop-opacity="0.03" offset="44%"></stop>
            <stop stop-color="#FFFFFF" stop-opacity="0" offset="51%"></stop>
        </linearGradient>
    </defs>
    <g id="Welcome" stroke="none" stroke-width="1" fill="none" fill-rule="evenodd">
        <g id="HOME---Aliados---Puntos-Colombia---Desktop-HD" transform="translate(-995.000000, -214.000000)" fill-rule="nonzero">
            <g id="header-puntos" transform="translate(994.000000, 210.000000)">
                <rect id="Rectangle" fill="#6E7072" opacity="0" x="2.944" y="0.5988" width="316.512" height="141.8024"></rect>
                <path d="M150.5554,72.9444 C152.251,72.9444 155.6108,73.5096 155.6108,75.6448 C155.6278,76.0529523 155.481788,76.4511108 155.204952,76.7515083 C154.928115,77.0519058 154.54318,77.2298802 154.135,77.2462 C153.193,77.2462 152.5336,76.3984 150.5554,76.3984 C147.6352,76.3984 146.128,78.9418 146.128,81.8934 C146.128,84.845 147.6666,87.2314 150.5554,87.2314 C152.5336,87.2314 153.3186,86.1952 154.292,86.1952 C155.143096,86.2738816 155.802573,86.9737343 155.8306,87.828 C155.8306,90.1516 152.2824,90.6854 150.5554,90.6854 C148.265885,90.6653255 146.086629,89.6991981 144.534378,88.0161059 C142.982127,86.3330136 142.19513,84.0828596 142.36,81.7992 C142.185211,79.5161593 142.969808,77.2635615 144.525107,75.5831236 C146.080406,73.9026858 148.265679,72.9464583 150.5554,72.9444 L150.5554,72.9444 Z" id="Path" fill="#FFFFFF"></path>
                <path d="M163.869,81.7992 C163.69528,79.5323877 164.467354,77.294743 166.00197,75.6173725 C167.536585,73.940002 169.696914,72.9724624 171.9702,72.9444 C174.228821,73.0079 176.364505,73.9871814 177.88648,75.6572087 C179.408456,77.3272361 180.185842,79.5443984 180.04,81.7992 C180.310082,84.8637718 178.827769,87.8184268 176.209694,89.4340468 C173.591619,91.0496667 170.285981,91.0496667 167.667906,89.4340468 C165.049831,87.8184268 163.567518,84.8637718 163.8376,81.7992 L163.869,81.7992 Z M176.429,81.7992 C176.429,78.879 174.9532,76.2728 172.0016,76.2728 C169.05,76.2728 167.48,78.879 167.48,81.7992 C167.48,84.7194 168.9244,87.357 171.9074,87.357 C174.8904,87.357 176.3976,84.7508 176.3976,81.7992 L176.429,81.7992 Z" id="Shape" fill="#FFFFFF"></path>
                <path d="M188.5808,74.954 C188.5808,73.9828625 189.368062,73.1956 190.3392,73.1956 C191.310338,73.1956 192.0976,73.9828625 192.0976,74.954 L192.0976,87.2 L196.2738,87.2 C196.737317,87.1711797 197.190517,87.3450004 197.51588,87.6763885 C197.841243,88.0077765 198.00672,88.4640893 197.9694,88.927 C197.93533,89.8338095 197.181075,90.5461615 196.2738,90.5284 L190.402,90.5284 C189.884123,90.5510416 189.382642,90.344024 189.031544,89.9626591 C188.680447,89.5812942 188.515509,89.0644431 188.5808,88.5502 L188.5808,74.954 Z" id="Path" fill="#FFFFFF"></path>
                <path d="M204.9716,81.7992 C204.79788,79.5323877 205.569954,77.294743 207.10457,75.6173725 C208.639185,73.940002 210.799514,72.9724624 213.0728,72.9444 C215.336943,72.999517 217.480797,73.9751567 219.009577,75.6461486 C220.538357,77.3171404 221.319961,79.5390945 221.174,81.7992 C221.444082,84.8637718 219.961769,87.8184268 217.343694,89.4340468 C214.725619,91.0496667 211.419981,91.0496667 208.801906,89.4340468 C206.183831,87.8184268 204.701518,84.8637718 204.9716,81.7992 L204.9716,81.7992 Z M217.5316,81.7992 C217.5316,78.879 216.0558,76.2728 213.1042,76.2728 C210.1526,76.2728 208.6768,78.879 208.6768,81.7992 C208.6768,84.7194 210.1212,87.357 213.1042,87.357 C216.0872,87.357 217.5002,84.7508 217.5002,81.7992 L217.5316,81.7992 Z" id="Shape" fill="#FFFFFF"></path>
                <path d="M231.4104,74.9226 C231.645875,73.8441861 232.598784,73.0740263 233.7026,73.07 C234.772808,73.0927298 235.71424,73.7831132 236.0576,74.797 L238.8208,84.374 L238.8208,84.374 L241.584,74.797 C241.92736,73.7831132 242.868792,73.0927298 243.939,73.07 C245.042816,73.0740263 245.995725,73.8441861 246.2312,74.9226 L248.4292,88.3932 C248.443504,88.5288907 248.443504,88.6657093 248.4292,88.8014 C248.455545,89.264365 248.287533,89.7173277 247.965653,90.0511296 C247.643773,90.3849314 247.197217,90.5692983 246.7336,90.5598 C245.5404,90.5598 245.0694,89.9946 244.9124,88.8642 L243.4994,79.036 L243.4994,79.036 L240.6734,89.1468 C240.450107,90.0044926 239.675682,90.6031163 238.7894,90.6031163 C237.903118,90.6031163 237.128693,90.0044926 236.9054,89.1468 L234.0794,79.036 L234.0794,79.036 L232.6664,88.8642 C232.6664,89.9946 232.0384,90.5598 230.8452,90.5598 C230.381583,90.5692983 229.935027,90.3849314 229.613147,90.0511296 C229.291267,89.7173277 229.123255,89.264365 229.1496,88.8014 C229.135296,88.6657093 229.135296,88.5288907 229.1496,88.3932 L231.4104,74.9226 Z" id="Path" fill="#FFFFFF"></path>
                <path d="M257.1898,75.0168 C257.170585,74.525347 257.361822,74.0490149 257.715541,73.7072865 C258.06926,73.3655581 258.551901,73.1908552 259.0424,73.227 L263.564,73.227 C264.717669,73.1752498 265.841898,73.5999483 266.673196,74.4015564 C267.504493,75.2031644 267.969778,76.3112121 267.96,77.466 C268.064022,78.9977025 267.179742,80.425183 265.762,81.0142 L265.762,81.0142 C267.804325,81.2952894 269.329617,83.0346571 269.3416,85.0962 C269.442315,86.5492083 268.895355,87.9723835 267.847446,88.9839486 C266.799538,89.9955137 265.35795,90.4919189 263.9094,90.34 L259.0738,90.34 C258.57497,90.3760912 258.084372,90.1980579 257.724782,89.8504536 C257.365191,89.5028493 257.170634,89.0185668 257.1898,88.5188 L257.1898,75.0168 Z M260.738,80.0408 L262.5592,80.0408 C263.077883,80.0786769 263.587392,79.8890739 263.955133,79.5213329 C264.322874,79.1535919 264.512477,78.6440831 264.4746,78.1254 C264.477541,77.6327791 264.269964,77.1623497 263.904094,76.8324666 C263.538224,76.5025834 263.048889,76.3446498 262.5592,76.3984 L260.738,76.3984 L260.738,80.0408 Z M260.738,87.2314 L263.5012,87.2314 C264.082784,87.286944 264.65975,87.0866436 265.081809,86.6826733 C265.503867,86.2787029 265.729232,85.7110583 265.6992,85.1276 C265.6992,83.9972 264.8514,83.2122 263.2186,83.2122 L260.738,83.2122 L260.738,87.2314 Z" id="Shape" fill="#FFFFFF"></path>
                <path d="M277.7568,74.954 C277.7568,73.9828625 278.544062,73.1956 279.5152,73.1956 C280.486338,73.1956 281.2736,73.9828625 281.2736,74.954 L281.2736,88.6758 C281.2736,89.6469375 280.486338,90.4342 279.5152,90.4342 C278.544062,90.4342 277.7568,89.6469375 277.7568,88.6758 L277.7568,74.954 Z" id="Path" fill="#FFFFFF"></path>
                <path d="M294.336,74.9226 C294.668058,73.7965088 295.675444,73.0031922 296.848,72.9444 C298.035127,72.9632747 299.063331,73.7729848 299.36,74.9226 L303.9758,88.0478 C304.078274,88.3417544 304.141618,88.6479162 304.1642,88.9584 C304.1642,89.3886145 303.991261,89.8007687 303.684114,90.1020086 C303.376968,90.4032485 302.961532,90.5682356 302.5314,90.5598 C301.735247,90.6116232 301.018231,90.0805003 300.8358,89.3038 L300.1136,87.0116 L293.5824,87.0116 L292.8602,89.2724 C292.690931,90.0616672 291.970326,90.6087936 291.1646,90.5598 C290.709483,90.5682295 290.27009,90.3933147 289.945279,90.0744098 C289.620469,89.7555049 289.437522,89.3193947 289.4376,88.8642 C289.394182,88.5937984 289.394182,88.3182016 289.4376,88.0478 L294.336,74.9226 Z M294.5872,83.6832 L299.046,83.6832 L296.8794,76.681 L296.8794,76.681 L294.5872,83.6832 Z" id="Shape" fill="#FFFFFF"></path>
                <path d="M142.517,39.4092 C142.46501,38.5442858 142.772733,37.6963314 143.367327,37.0660628 C143.96192,36.4357941 144.790526,36.0792389 145.657,36.0808 L153.6012,36.0808 C156.243134,35.9888339 158.802133,37.0112074 160.653393,38.8982979 C162.504653,40.7853884 163.477789,43.3635142 163.3352,46.0032 C163.563344,48.6040642 162.660215,51.1771823 160.856627,53.0649369 C159.05304,54.9526915 156.52376,55.972162 153.9152,55.8628 L148.9854,55.8628 L148.9854,62.08 C148.9854,63.8661993 147.537399,65.3142 145.7512,65.3142 C143.965001,65.3142 142.517,63.8661993 142.517,62.08 L142.517,39.4092 Z M148.9854,49.9596 L152.4394,49.9596 C153.541959,50.0473871 154.630926,49.6696401 155.442281,48.9179441 C156.253635,48.1662481 156.713289,47.1092428 156.7098,46.0032 C156.784522,44.8707377 156.34907,43.764168 155.522618,42.9863307 C154.696166,42.2084933 153.56526,41.8408444 152.4394,41.984 L148.9854,41.984 L148.9854,49.9596 Z" id="Shape" fill="#FFFFFF"></path>
                <path d="M174.859,53.5078 C174.859,56.7333639 177.473836,59.3482 180.6994,59.3482 C183.924964,59.3482 186.5398,56.7333639 186.5398,53.5078 L186.5398,39.3778 C186.5398,37.5916007 187.987801,36.1436 189.774,36.1436 C191.560199,36.1436 193.0082,37.5916007 193.0082,39.3778 L193.0082,53.5078 C193.237731,58.0479383 190.946173,62.3449605 187.048104,64.6838916 C183.150035,67.0228228 178.280165,67.0228228 174.382096,64.6838916 C170.484027,62.3449605 168.192469,58.0479383 168.422,53.5078 L168.422,39.3778 C168.422,37.6436259 169.827826,36.2378 171.562,36.2378 C173.296174,36.2378 174.702,37.6436259 174.702,39.3778 L174.859,53.5078 Z" id="Path" fill="#FFFFFF"></path>
                <path d="M199.1312,39.3778 C199.022889,38.4819274 199.305246,37.5827598 199.906256,36.9096284 C200.507266,36.2364971 201.368827,35.8544763 202.2712,35.8609178 C203.9668,35.8609178 204.5634,36.6146 206.73,39.4092 L217.4374,53.1938 L217.4374,53.1938 L217.4374,39.3778 C217.4374,37.5916007 218.885401,36.1436 220.6716,36.1436 C222.457799,36.1436 223.9058,37.5916007 223.9058,39.3778 L223.9058,62.08 C224.014111,62.9758726 223.731754,63.8750402 223.130744,64.5481716 C222.529734,65.2213029 221.668173,65.6033237 220.7658,65.5968822 C219.0388,65.5968822 218.4108,64.8118 216.307,62.0486 L205.5682,48.2326 L205.5682,48.2326 L205.5682,62.08 C205.5682,63.8141741 204.162374,65.22 202.4282,65.22 C200.694026,65.22 199.2882,63.8141741 199.2882,62.08 L199.1312,39.3778 Z" id="Path" fill="#FFFFFF"></path>
                <path d="M234.8644,42.2352 L231.222,42.2352 C230.342351,42.3507862 229.457367,42.0645532 228.812016,41.4557311 C228.166664,40.8469089 227.829408,39.9800855 227.8936,39.0952 C227.817286,38.2070846 228.150788,37.3327491 228.799178,36.7210604 C229.447568,36.1093717 230.339832,35.8273247 231.222,35.9552 L244.9438,35.9552 C246.677974,35.9552 248.0838,37.3610259 248.0838,39.0952 C248.0838,40.8293741 246.677974,42.2352 244.9438,42.2352 L241.3328,42.2352 L241.3328,62.08 C241.3328,63.8661993 239.884799,65.3142 238.0986,65.3142 C236.312401,65.3142 234.8644,63.8661993 234.8644,62.08 L234.8644,42.2352 Z" id="Path" fill="#FFFFFF"></path>
                <path d="M279.2954,50.6504 C279.2954,59.9134 273.7376,65.8794 265.3224,65.8794 C256.9072,65.8794 251.3808,59.9134 251.3808,50.6504 C251.3808,41.3874 256.9072,35.4528 265.3224,35.4528 C273.7376,35.4528 279.2954,41.4188 279.2954,50.6504 Z M258.3202,50.6504 C258.3202,55.2662 260.3298,59.725 265.3224,59.725 C270.315,59.725 272.356,55.2662 272.356,50.6504 C272.356,46.0346 270.315,41.5758 265.3224,41.5758 C260.3298,41.5758 258.3202,46.0346 258.3202,50.6504 Z" id="Shape" fill="#FFFFFF"></path>
                <path d="M286.5488,57.5584 C288.1502,57.5584 290.2226,59.254 293.5196,59.254 C296.0316,59.254 296.9736,57.9352 296.9736,56.5222 C296.9736,54.2928 294.493,53.8532 290.6936,52.6286 C286.8942,51.404 283.8798,50.0538 283.8798,44.7786 C283.8798,38.4986 288.684,35.3586 294.0848,35.3586 C299.4856,35.3586 302.1232,37.1798 302.1232,39.7232 C302.203265,40.528674 301.937949,41.3303125 301.393161,41.9289813 C300.848372,42.52765 300.075234,42.8671695 299.2658,42.8632 C297.1934,42.8632 296.5026,41.7642 293.7708,41.7642 C292.0124,41.7642 290.8192,42.7062 290.8192,44.1192 C290.8192,45.5322 292.4206,46.0032 296.8794,47.5418 C301.00106,48.2484349 303.957998,51.9042859 303.7874,56.0826 C303.7874,62.8022 298.9518,65.8166 292.923,65.8166 C289.1236,65.8166 283.503,64.3094 283.503,61.0124 C283.415333,60.142863 283.694023,59.2761293 284.272047,58.6206383 C284.85007,57.9651473 285.675127,57.5802102 286.5488,57.5584 Z" id="Path" fill="#FFFFFF"></path>
                <path d="M304.6666,29.5496 C304.659592,28.6193926 304.852334,27.6985176 305.2318,26.8492 C305.57886,26.0382848 306.080068,25.3024694 306.7076,24.6826 C307.332961,24.0471303 308.080697,23.5450794 308.9056,23.2068 C309.7431,22.8250948 310.654265,22.6321422 311.5746,22.6416 C312.494332,22.6381056 313.404234,22.8307908 314.2436,23.2068 C315.068503,23.5450794 315.816239,24.0471303 316.4416,24.6826 C317.049219,25.3188199 317.547833,26.0508283 317.9174,26.8492 C318.62744,28.5685792 318.62744,30.4992208 317.9174,32.2186 C317.555257,33.0211564 317.055831,33.7543554 316.4416,34.3852 C315.809252,35.0201745 315.063784,35.5313529 314.2436,35.8924 C313.397652,36.2439842 312.490699,36.4253748 311.5746,36.4262115 C310.658254,36.427874 309.750814,36.2463861 308.9056,35.8924 C308.085416,35.5313529 307.339948,35.0201745 306.7076,34.3852 C305.417568,33.104633 304.684242,31.3672149 304.6666,29.5496 L304.6666,29.5496 Z M305.891186,29.5496 C305.889438,30.3074946 306.050041,31.0569743 306.3622,31.7476 C306.636654,32.4177712 307.04234,33.0262999 307.5554,33.5374 C308.068054,34.0709663 308.689051,34.488533 309.3766,34.762 C310.78332,35.3481333 312.36588,35.3481333 313.7726,34.762 C315.189949,34.1667256 316.317326,33.0393495 316.9126,31.622 C317.2149,30.9292851 317.364818,30.1796985 317.3522,29.424 C317.367813,28.6680331 317.217769,27.9178106 316.9126,27.226 C316.647396,26.5341267 316.228689,25.9114333 315.688,25.4048 C315.170326,24.8917707 314.563917,24.4768594 313.8982,24.1802 C312.49148,23.5940667 310.90892,23.5940667 309.5022,24.1802 C308.827961,24.4783396 308.211482,24.892868 307.681,25.4048 C306.645408,26.4907369 306.052012,27.9238433 306.0168,29.424 L305.891186,29.5496 Z M309.0312,25.5618 L312.1712,25.5618 C312.921298,25.5021671 313.66787,25.7138815 314.275,26.1584 C314.743909,26.6202462 314.99496,27.259284 314.9658,27.9168 C315.003105,28.4902137 314.811091,29.0549608 314.432,29.4868 C314.058744,29.8271394 313.58475,30.0365789 313.0818,30.0834 L315.1228,33.4432 L313.6156,33.4432 L311.6374,30.3032 L310.5698,30.3032 L310.5698,33.4432 L308.78,33.4432 L309.0312,25.5618 Z M310.4756,28.9844 L312.2026,28.9844 C312.399843,29.0203369 312.601957,29.0203369 312.7992,28.9844 C312.976355,28.9147287 313.129193,28.7946416 313.2388,28.639 C313.37009,28.4686256 313.436832,28.2572762 313.4272,28.0424 C313.441627,27.8172602 313.374774,27.5944195 313.2388,27.4144 C313.136107,27.2590032 312.979503,27.1471432 312.7992,27.1004 C312.611856,27.0113424 312.409513,26.9580943 312.2026,26.9434 L310.4756,26.9434 L310.4756,28.9844 Z" id="Shape" fill="#FFFFFF"></path>
                <path d="M62.3214,5.7798 C31.1557107,5.63571552 5.46726546,30.186153 4.19947379,61.3264 C4.19947379,61.766 4.19947379,62.2056 4.19947379,62.6766 L4.19947379,116.9986 C4.12092469,128.245281 12.963769,137.534022 24.2007416,138.00787 C35.4377143,138.481718 45.031163,129.970412 45.8992,118.757 C51.2349394,120.311953 56.7637079,121.104797 62.3214,121.112 C83.2443106,121.600266 102.79026,110.717208 113.395208,92.6744349 C124.000157,74.631662 124.000157,52.260138 113.395208,34.2173651 C102.79026,16.1745921 83.2443106,5.29153433 62.3214,5.7798 L62.3214,5.7798 Z" id="Path" fill="url(#linearGradient-1)"></path>
                <path d="M25.081,138.9786 C12.9417812,138.9786 3.101,129.137819 3.101,116.9986 L3.101,62.6766 C3.101,62.1742 3.101,61.7032 3.101,61.2322 C3.61776781,46.0144541 10.0634842,31.601742 21.0618,21.0716 C38.1927005,4.65600279 63.438593,-0.0135702461 85.3078168,9.18842067 C107.177041,18.3904116 121.489454,39.7050735 121.7302,63.4302 C121.557221,96.0927179 94.98426,122.455005 62.3214,122.368 C57.1382074,122.359238 51.977668,121.68383 46.9668,120.3584 C45.214062,131.086249 35.9510824,138.967091 25.081,138.9786 Z M62.3214,7.0986 C31.8354654,6.92312571 6.70387876,30.9572025 5.5188,61.4206 C5.5188,61.8916 5.5188,62.2998 5.5188,62.7394 L5.5188,117.0614 C5.83227243,127.364655 14.0634892,135.669377 24.3635497,136.074436 C34.6636102,136.479494 43.5215786,128.846818 44.6432,118.6 L44.6432,117.0928 L46.119,117.501 C63.251567,122.594169 81.781837,119.335851 96.1493185,108.703792 C110.5168,98.0717318 119.049441,81.3032622 119.1868,63.4302 C119.013841,32.1723647 93.5795927,6.9487813 62.3214,7.03557552 L62.3214,7.0986 Z" id="Shape" fill="#FFFFFF"></path>
                <path d="M64.9276,34.9818 C71.812264,34.9738276 78.4807682,37.3856033 83.7676,41.7956 C87.6087294,44.2595342 90.0905651,48.3650008 90.4872,52.9112 C90.5928539,55.9940894 89.0339682,58.896015 86.4052,60.51 C84.8922646,61.5250208 83.1088352,62.0611438 81.287,62.0486 C79.7873356,62.0498935 78.3102459,61.6833165 76.9852,60.981 C75.4148953,59.770966 73.9827779,58.3915 72.7148,56.8676 C70.6905872,54.7085605 67.8771859,53.4629292 64.9180227,53.4155826 C61.9588594,53.368236 59.1070483,54.5232239 57.0148,56.6164 C52.9078747,60.9228825 52.9078747,67.6959175 57.0148,72.0024 C59.0235076,74.0650893 61.797854,75.2021166 64.6764,75.1424 C67.2438805,75.1299318 69.7283459,74.2315313 71.71,72.599 C73.0602,71.343 74.379,70.0556 75.6978,68.7682 C77.2219295,67.5119085 79.1566195,66.8632841 81.13,66.947 C83.571412,66.9215404 85.9221502,67.870877 87.6612,69.5846 C89.4358711,71.1879668 90.4412666,73.4729566 90.4244,75.8646 C90.0135136,80.012779 87.8114559,83.7746275 84.3956,86.1638 C79.0298198,90.9635604 72.063688,93.5842595 64.8648,93.5114 C60.3809019,93.5259926 55.9503408,92.5390395 51.8966,90.6226 C46.8839722,88.251956 42.6479966,84.5060032 39.682,79.821 C32.1307455,67.9072609 34.208127,52.2938208 44.6118,42.769 C50.1101037,37.6248534 57.3996011,34.8307338 64.9276,34.9818 Z" id="Path" fill="#FFFFFF"></path>
                <g id="Group" transform="translate(0.275000, 7.915000)">
                    <path d="M77.872,56.991 C75.7682,59.5972 70.3046,58.6866 65.626,54.95 C60.9474,51.2134 58.875,46.158 60.9788,43.5518 C63.0826,40.9456 68.5462,41.8876 73.1934,45.5928 C77.8406,49.298 79.9758,54.4162 77.872,56.991 Z" id="Path" fill="url(#radialGradient-2)"></path>
                    <path d="M68.7974,69.2684 C66.725,71.8746 61.23,70.9326 56.5514,67.2274 C51.8728,63.5222 49.8004,58.404 51.9042,55.8292 C54.008,53.2544 59.4716,54.165 64.1188,57.8702 C68.766,61.5754 70.9012,66.725 68.7974,69.2684 Z" id="Path" fill="url(#radialGradient-3)"></path>
                    <path d="M74.418,118.0012 C65.4376,128.74 42.4842,124.5638 23.1418,108.5812 C3.7994,92.5986 -4.5844,71.0896 4.3018,60.3194 C13.188,49.5492 36.2356,53.7568 55.578,69.7394 C74.9204,85.722 83.3984,107.2624 74.418,118.0012 Z" id="Path" fill="url(#radialGradient-4)" style="mix-blend-mode: overlay;"></path>
                    <path d="M97.0888,84.2148 C106.373859,75.044335 111.598577,62.5366773 111.595601,49.4864 C111.408598,29.0396683 98.6962239,10.8020357 79.5772249,3.55167789 C60.458226,-3.69867987 38.8493394,1.52355285 25.1514,16.7048 C76.8986,17.4898 48.5444,74.2924 97.0888,84.2148 Z" id="Path" fill="url(#linearGradient-5)" style="mix-blend-mode: overlay;"></path>
                    <path d="M12.3088,116.965 C13.5954574,121.530393 17.1634074,125.098343 21.7288,126.385 C26.8227576,128.001827 32.3777426,127.178311 36.783536,124.153163 C41.1893293,121.128015 43.9532048,116.239556 44.274,110.9048 C44.3213152,109.732213 43.6620944,108.645217 42.6004077,108.145197 C41.538721,107.645177 40.2808515,107.829285 39.407,108.6126 C31.2744,115.395 22.3882,104.0596 13.345,115.6776 L12.3088,116.965 Z" id="Path" fill="url(#linearGradient-6)" style="mix-blend-mode: overlay;"></path>
                </g>
            </g>
        </g>
    </g>
</svg>