<?xml version="1.0" encoding="UTF-8"?>
<svg width="96px" height="113px" viewBox="0 0 96 113" version="1.1" xmlns="http://www.w3.org/2000/svg" xmlns:xlink="http://www.w3.org/1999/xlink">
    <title>s-extra-puntos</title>
    <defs>
        <path d="M0.0526027397,46.7425 C0.0526027397,47.1034722 0.0526027397,47.4801389 0.0526027397,47.8881944 L0.0526027397,93.5276389 C-0.0337054797,103.014001 7.44580588,110.793638 16.8013699,110.948472 C25.5827736,110.808267 32.8012161,103.884806 33.4263014,95.0029167 C37.7039123,96.3102614 42.1470674,96.9764739 46.6147945,96.9804167 C72.3416438,96.9804167 93.2079452,75.275 93.2079452,48.5159722 C93.2079452,21.7569444 72.3416438,0.0515277778 46.6147945,0.0515277778 C21.4452055,0.0515277778 0.950410959,20.7995833 0.0526027397,46.7425 Z" id="path-1"></path>
    </defs>
    <g id="Welcome" stroke="none" stroke-width="1" fill="none" fill-rule="evenodd">
        <g id="HOME---Aliados---Puntos-Colombia---Desktop-HD" transform="translate(-948.000000, -1410.000000)">
            <g id="Group-5" transform="translate(932.000000, 1396.000000)">
                <g id="s-extra-puntos" transform="translate(16.000000, 14.000000)">
                    <g id="Rectangle" transform="translate(1.000000, 1.000000)">
                        <mask id="mask-2" fill="white">
                            <use xlink:href="#path-1"></use>
                        </mask>
                        <use id="Mask" fill="#E02B88" fill-rule="nonzero" xlink:href="#path-1"></use>
                        <rect fill="#6C2679" mask="url(#mask-2)" x="-8" y="-11" width="109" height="62"></rect>
                    </g>
                    <path d="M17.7549315,113 C7.82421219,112.862208 -0.120485431,104.596487 3.91447291e-13,94.5276389 L3.91447291e-13,48.8881944 C3.91447291e-13,48.459213 3.91447291e-13,48.0511574 3.91447291e-13,47.6640278 C0.415993203,34.9422164 5.61650846,22.8637566 14.5352055,13.9052778 C23.3042669,5.00224178 35.20497,0 47.6147945,0 C73.929863,0 95.2141096,22.2076389 95.2141096,49.5159722 C95.2141096,76.8243056 73.8524658,99.0319444 47.6147945,99.0319444 C43.430131,99.0404155 39.26388,98.4701599 35.2312329,97.3369444 C33.9805994,106.195721 26.5797879,112.828664 17.7549315,113 M47.6147945,2.10305556 C22.9560274,2.10305556 2.95657534,22.1605556 2.07424658,47.7738889 C2.07424658,48.16625 2.07424658,48.5115278 2.07424658,48.8881944 L2.07424658,94.5276389 C1.97073629,103.428161 8.97705121,110.74216 17.7549315,110.896944 C26.0100731,110.750569 32.7979729,104.256025 33.420137,95.90875 L33.5130137,94.6218056 L34.7049315,94.9827778 C38.8907503,96.2701057 43.2406442,96.9258351 47.6147945,96.9288889 C72.7534247,96.9288889 93.1863014,75.6629167 93.1863014,49.5159722 C93.1863014,23.3690278 72.7534247,2.10305556 47.6147945,2.10305556" id="Shape" fill="#FFFFFF" fill-rule="nonzero"></path>
                    <path d="M21.5628767,70.3875 C22.1665753,70.3875 23.3584932,70.6072222 23.3584932,71.3605556 C23.3669214,71.5089107 23.3157069,71.6543985 23.216537,71.7638175 C23.1173671,71.8732365 22.9787041,71.9372502 22.8321918,71.94125 C22.4916438,71.94125 22.2594521,71.6430556 21.5628767,71.6430556 C20.5257534,71.6430556 20.0149315,72.5533333 20.0149315,73.6205556 C20.0149315,74.6877778 20.5567123,75.5352778 21.5628767,75.5352778 C22.2594521,75.5352778 22.5380822,75.1743056 22.8941096,75.1743056 C23.1948531,75.1983706 23.4288867,75.4492137 23.4358904,75.755 C23.4358904,76.5868056 22.1820548,76.7908333 21.5628767,76.7908333 C19.8188674,76.7908333 18.4050685,75.3573983 18.4050685,73.5891667 C18.4050685,71.820935 19.8188674,70.3875 21.5628767,70.3875" id="Path" fill="#FFFFFF" fill-rule="nonzero"></path>
                    <path d="M26.3150685,73.5891667 C26.2686077,72.7837999 26.5476917,71.9939877 27.0879999,71.4017579 C27.6283082,70.8095282 28.3832258,70.4659753 29.1787671,70.4502778 C29.9727032,70.4747295 30.7239505,70.8203803 31.2648804,71.4101038 C31.8058103,71.9998272 32.0914073,72.7845474 32.0579452,73.5891667 C32.1370149,74.6803052 31.6076693,75.7246679 30.686616,76.2947052 C29.7655627,76.8647424 28.607451,76.8647424 27.6863977,76.2947052 C26.7653444,75.7246679 26.2359988,74.6803052 26.3150685,73.5891667 M30.7576712,73.5891667 C30.7576712,72.5376389 30.2313699,71.5959722 29.209726,71.5959722 C28.1880822,71.5959722 27.6617808,72.5376389 27.6617808,73.5891667 C27.6617808,74.6406944 28.1726027,75.5823611 29.209726,75.5823611 C30.2468493,75.5823611 30.7576712,74.6406944 30.7576712,73.5891667" id="Shape" fill="#FFFFFF" fill-rule="nonzero"></path>
                    <path d="M35.0609589,71.1251389 C35.0219499,70.8742127 35.1321919,70.6235022 35.3423499,70.4852038 C35.552508,70.3469054 35.8232454,70.3469054 36.0334035,70.4852038 C36.2435616,70.6235022 36.3538035,70.8742127 36.3147945,71.1251389 L36.3147945,75.4881944 L37.8627397,75.4881944 C38.0728902,75.4881944 38.2670773,75.6018655 38.3721525,75.7863889 C38.4772278,75.9709122 38.4772278,76.1982544 38.3721525,76.3827778 C38.2670773,76.5673012 38.0728902,76.6809722 37.8627397,76.6809722 L35.7110959,76.6809722 C35.5288026,76.6863719 35.3530276,76.6120023 35.2285925,76.4768273 C35.1041574,76.3416522 35.0430888,76.1587364 35.0609589,75.9747222 L35.0609589,71.1251389 Z" id="Path" fill="#FFFFFF" fill-rule="nonzero"></path>
                    <path d="M40.8812329,73.5891667 C40.8391339,72.7822711 41.1218049,71.9925971 41.6645412,71.4009042 C42.2072776,70.8092113 42.96361,70.4661606 43.760411,70.4502778 C44.5529329,70.4788921 45.3017168,70.825806 45.8417764,71.4145806 C46.381836,72.0033552 46.6688539,72.7856758 46.639589,73.5891667 C46.7537985,74.7043617 46.2313617,75.7880887 45.2933178,76.3818311 C44.3552739,76.9755734 43.165548,76.9755734 42.2275041,76.3818311 C41.2894602,75.7880887 40.7670235,74.7043617 40.8812329,73.5891667 M45.3238356,73.5891667 C45.3238356,72.5376389 44.7975342,71.5959722 43.7758904,71.5959722 C42.7542466,71.5959722 42.2279452,72.5376389 42.2279452,73.5891667 C42.2279452,74.6406944 42.7232877,75.5823611 43.7758904,75.5823611 C44.8284932,75.5823611 45.3238356,74.6406944 45.3238356,73.5891667" id="Shape" fill="#FFFFFF" fill-rule="nonzero"></path>
                    <path d="M50.2617808,71.1094444 C50.34891,70.7218189 50.6900818,70.4477013 51.0821918,70.4502598 C51.4601189,70.4555737 51.7943027,70.7002809 51.9180822,71.0623611 L52.9087671,74.5151389 L52.9087671,74.5151389 L53.8839726,71.0623611 C54.0077521,70.7002809 54.3419358,70.4555737 54.719863,70.4502598 C55.111973,70.4477013 55.4531448,70.7218189 55.540274,71.1094444 L56.3142466,75.9590278 C56.3210235,76.0058604 56.3210235,76.0534451 56.3142466,76.1002778 C56.3229546,76.2665785 56.2626851,76.428996 56.1480196,76.548235 C56.0333542,76.6674741 55.8747384,76.7326723 55.7105479,76.7280556 C55.2926027,76.7280556 55.1223288,76.5397222 55.060411,76.1316667 L54.5650685,72.5847222 L54.5650685,72.5847222 L53.5743836,76.1944444 C53.506099,76.5060766 53.2227937,76.7198367 52.9087671,76.6966667 C52.5966792,76.7132173 52.3171323,76.502293 52.2431507,76.1944444 L51.2369863,72.5847222 L51.2369863,72.5847222 L50.7261644,76.1944444 C50.738135,76.3675041 50.6710257,76.5365461 50.5441428,76.6529393 C50.4172599,76.7693325 50.244671,76.8201725 50.0760274,76.7908333 C49.9118369,76.79545 49.7532212,76.7302518 49.6385557,76.6110128 C49.5238902,76.4917738 49.4636207,76.3293563 49.4723288,76.1630556 C49.4655518,76.1162229 49.4655518,76.0686382 49.4723288,76.0218056 L50.2617808,71.1094444 Z" id="Path" fill="#FFFFFF" fill-rule="nonzero"></path>
                    <path d="M59.4256164,71.1408333 C59.4161547,70.9646209 59.4821668,70.7928425 59.6067168,70.6695693 C59.7312667,70.5462962 59.9022332,70.4835253 60.0757534,70.4973611 L61.6236986,70.4973611 C62.4786052,70.4973611 63.1716438,71.2000253 63.1716438,72.0668056 C63.2143427,72.6201174 62.9023725,73.1388545 62.3976712,73.35375 L62.3976712,73.35375 C63.1085057,73.4849035 63.63531,74.0971886 63.6669863,74.8290278 C63.7021112,75.3526899 63.5066497,75.8652285 63.1332007,76.2287189 C62.7597517,76.5922092 62.2466804,76.7693093 61.7320548,76.7123611 L60.0912329,76.7123611 C59.9136068,76.7261608 59.7387246,76.6617226 59.6112826,76.5355155 C59.4838407,76.4093085 59.4161884,76.2335623 59.4256164,76.0531944 L59.4256164,71.1408333 Z M60.6794521,72.9456944 L61.329589,72.9456944 C61.5141853,72.9599727 61.6957284,72.8918169 61.8266369,72.7590902 C61.9575454,72.6263635 62.0247676,72.4422989 62.0106849,72.2551389 C62.0121255,72.0782464 61.9380128,71.9093725 61.8074447,71.7920344 C61.6768767,71.6746962 61.5026237,71.6203702 61.329589,71.6430556 L60.6794521,71.6430556 L60.6794521,72.9456944 Z M60.6794521,75.5352778 L61.6546575,75.5352778 C61.8620261,75.5585299 62.0690198,75.4884037 62.2209463,75.3434282 C62.3728727,75.1984527 62.4544449,74.9932152 62.4441096,74.7819444 C62.4441096,74.3738889 62.15,74.0913889 61.5617808,74.0913889 L60.6794521,74.0913889 L60.6794521,75.5352778 Z" id="Shape" fill="#FFFFFF" fill-rule="nonzero"></path>
                    <path d="M66.7164384,71.1251389 C66.6979961,70.9466234 66.7577666,70.7688972 66.8799329,70.638992 C67.0020993,70.5090868 67.1743476,70.4400964 67.3510959,70.4502778 C67.5252081,70.444809 67.6931637,70.51586 67.8118091,70.6451752 C67.9304544,70.7744905 67.9882237,70.949464 67.970274,71.1251389 L67.970274,76.0531944 C67.9882237,76.2288694 67.9304544,76.4038429 67.8118091,76.5331581 C67.6931637,76.6624733 67.5252081,76.7335243 67.3510959,76.7280556 C67.1743476,76.7382369 67.0020993,76.6692465 66.8799329,76.5393413 C66.7577666,76.4094361 66.6979961,76.23171 66.7164384,76.0531944 L66.7164384,71.1251389 Z" id="Path" fill="#FFFFFF" fill-rule="nonzero"></path>
                    <path d="M72.6141096,71.1094444 C72.7299007,70.7050792 73.0821541,70.4168562 73.4964384,70.3875 C73.920115,70.4007239 74.2850596,70.6941827 74.3942466,71.1094444 L76.0350685,75.8177778 C76.0507354,75.9270647 76.0507354,76.0380742 76.0350685,76.1473611 C76.0351266,76.2999677 75.9742953,76.4461083 75.8664165,76.5525293 C75.7585377,76.6589503 75.6127868,76.7166002 75.4623288,76.7123611 C75.1798412,76.7311934 74.9223887,76.5484736 74.8431507,76.2729167 L74.5954795,75.4411111 L72.2735616,75.4411111 L72.0258904,76.2572222 C71.9649191,76.5404495 71.7072656,76.7346989 71.4221918,76.7123611 C71.2620662,76.7165773 71.106852,76.6561 70.9907219,76.5442442 C70.8745918,76.4323883 70.8070669,76.2783245 70.8030137,76.1159722 C70.785631,76.0173553 70.785631,75.9163947 70.8030137,75.8177778 L72.6141096,71.1094444 Z M72.6915068,74.2483333 L74.2394521,74.2483333 L73.4654795,71.7372222 L73.4654795,71.7372222 L72.6915068,74.2483333 Z" id="Shape" fill="#FFFFFF" fill-rule="nonzero"></path>
                    <path d="M18.7146575,58.3184722 C18.6971837,58.0025244 18.8111755,57.6936241 19.0289081,57.4669009 C19.2466408,57.2401778 19.5481621,57.116408 19.860137,57.1256944 L22.6773973,57.1256944 C23.6145069,57.0887918 24.5234801,57.4544696 25.1806959,58.1327657 C25.8379116,58.8110617 26.1823649,59.7390144 26.1293151,60.6883333 C26.2165467,61.6353741 25.892049,62.5738905 25.2406932,63.2584172 C24.5893373,63.942944 23.6759102,64.3053949 22.7393151,64.2509722 L21.0056164,64.2509722 L21.0056164,66.4325 C21.0056164,67.0739174 20.4927678,67.5938889 19.860137,67.5938889 C19.2275062,67.5938889 18.7146575,67.0739174 18.7146575,66.4325 L18.7146575,58.3184722 Z M21.0056164,62.0694444 L22.2284932,62.0694444 C22.6255727,62.1094626 23.0207614,61.9768518 23.3158908,61.704554 C23.6110202,61.4322561 23.7783952,61.0458237 23.7764384,60.64125 C23.7997787,60.2300513 23.6387981,59.830142 23.3383431,59.5529305 C23.0378881,59.275719 22.6300673,59.15083 22.2284932,59.2130556 L21.0056164,59.2130556 L21.0056164,62.0694444 Z" id="Shape" fill="#FFFFFF" fill-rule="nonzero"></path>
                    <path d="M30.200411,63.4034722 C30.160242,63.9742031 30.3620186,64.5352193 30.7551151,64.9457621 C31.1482116,65.3563049 31.6953225,65.5774132 32.2591781,65.5536111 C32.8268844,65.5815661 33.3794391,65.3629123 33.7783753,64.9524431 C34.1773115,64.5419739 34.3848214,63.97859 34.3489041,63.4034722 L34.3489041,58.3027778 C34.3489041,57.6613604 34.8617527,57.1413889 35.4943836,57.1413889 C36.1270144,57.1413889 36.639863,57.6613604 36.639863,58.3027778 L36.639863,63.4034722 C36.7177905,64.6053113 36.2818969,65.783038 35.4433834,66.6362017 C34.6048698,67.4893654 33.4448211,67.9354645 32.2591781,67.8606944 C31.0695685,67.945491 29.9021305,67.503195 29.0588732,66.6482258 C28.2156159,65.7932565 27.7793788,64.6096042 27.8630137,63.4034722 L27.8630137,58.3027778 C27.8114977,57.8527045 28.0193476,57.4126052 28.3974732,57.1711184 C28.7755989,56.9296316 29.2568668,56.9296316 29.6349925,57.1711184 C30.0131182,57.4126052 30.2209681,57.8527045 30.1694521,58.3027778 L30.200411,63.4034722 Z" id="Path" fill="#FFFFFF" fill-rule="nonzero"></path>
                    <path d="M38.8069863,58.3027778 C38.7652842,57.9752652 38.8690077,57.6458687 39.0901764,57.4034466 C39.311345,57.1610246 39.6271742,57.0305509 39.9524658,57.0472222 C40.5561644,57.0472222 40.7728767,57.3297222 41.500411,58.3184722 L45.3083562,63.2936111 L45.3083562,63.2936111 L45.3083562,58.3027778 C45.3083562,57.6613604 45.8212048,57.1413889 46.4538356,57.1413889 C47.0864664,57.1413889 47.5993151,57.6613604 47.5993151,58.3027778 L47.5993151,66.4325 C47.6460816,66.7625105 47.5446473,67.0964144 47.3228546,67.3425593 C47.101062,67.5887042 46.7822159,67.7212263 46.4538356,67.70375 C45.850137,67.70375 45.6179452,67.42125 44.9058904,66.4168056 L41.0979452,61.4573611 L41.0979452,61.4573611 L41.0979452,66.4325 C41.0979452,67.0739174 40.5850966,67.5938889 39.9524658,67.5938889 C39.3198349,67.5938889 38.8069863,67.0739174 38.8069863,66.4325 L38.8069863,58.3027778 Z" id="Path" fill="#FFFFFF" fill-rule="nonzero"></path>
                    <path d="M51.500137,59.3386111 L50.199863,59.3386111 C49.7789446,59.3895281 49.3666677,59.1904717 49.1403545,58.8270571 C48.9140413,58.4636425 48.9140413,58.0006631 49.1403545,57.6372485 C49.3666677,57.2738339 49.7789446,57.0747775 50.199863,57.1256944 L55.0758904,57.1256944 C55.4968088,57.0747775 55.9090857,57.2738339 56.1353989,57.6372485 C56.3617122,58.0006631 56.3617122,58.4636425 56.1353989,58.8270571 C55.9090857,59.1904717 55.4968088,59.3895281 55.0758904,59.3386111 L53.7910959,59.3386111 L53.7910959,66.4325 C53.7910959,67.0739174 53.2782473,67.5938889 52.6456164,67.5938889 C52.0129856,67.5938889 51.500137,67.0739174 51.500137,66.4325 L51.500137,59.3386111 Z" id="Path" fill="#FFFFFF" fill-rule="nonzero"></path>
                    <path d="M67.2736986,62.3676389 C67.2736986,65.7105556 65.2923288,67.8606944 62.3047945,67.8606944 C59.3172603,67.8606944 57.3513699,65.7105556 57.3513699,62.3676389 C57.3513699,59.0247222 59.3172603,56.8902778 62.3047945,56.8902778 C63.7090554,56.8599241 65.0584254,57.4430742 66.0092771,58.4912245 C66.9601289,59.5393748 67.4206985,60.9513715 67.2736986,62.3676389 M59.8126027,62.3676389 C59.8126027,64.03125 60.540137,65.6477778 62.3047945,65.6477778 C64.0694521,65.6477778 64.7969863,64.0783333 64.7969863,62.3676389 C64.7969863,60.6569444 64.0849315,59.1031944 62.3047945,59.1031944 C60.5246575,59.1031944 59.8126027,60.6726389 59.8126027,62.3676389" id="Shape" fill="#FFFFFF" fill-rule="nonzero"></path>
                    <path d="M69.8432877,64.8630556 C70.4160274,64.8630556 71.1435616,65.4594444 72.32,65.4594444 C73.2178082,65.4594444 73.5428767,64.9886111 73.5428767,64.4863889 C73.5428767,63.6859722 72.6605479,63.5290278 71.360274,63.0895833 C70.06,62.6501389 68.9454795,62.1479167 68.9454795,60.2488889 C68.9315528,59.2977983 69.3197786,58.3861413 70.0120874,57.7442106 C70.7043962,57.1022799 71.6345819,56.791464 72.5676712,56.8902778 C74.409726,56.8902778 75.4313699,57.5651389 75.4313699,58.4597222 C75.4529556,58.747766 75.3549254,59.0318636 75.1609408,59.2434424 C74.9669561,59.4550212 74.6946417,59.574858 74.409726,59.5740278 C73.6667123,59.5740278 73.4345205,59.1816667 72.4438356,59.1816667 C71.8246575,59.1816667 71.4067123,59.51125 71.4067123,60.0291667 C71.4067123,60.5470833 71.9639726,60.7040278 73.5583562,61.2533333 C75.0397877,61.5210084 76.0901492,62.8690463 76.0041096,64.3922222 C76.031004,65.4034164 75.6191877,66.3757061 74.8774515,67.0522384 C74.1357153,67.7287707 73.1386765,68.0414876 72.149726,67.9077778 C70.8030137,67.9077778 68.7752055,67.3584722 68.7752055,66.1813889 C68.7406533,65.8670837 68.8357772,65.5522771 69.0380463,65.3115328 C69.2403155,65.0707885 69.5317376,64.9255215 69.8432877,64.9101389" id="Path" fill="#FFFFFF" fill-rule="nonzero"></path>
                    <g id="Group-9" transform="translate(18.358630, 31.516139)" fill="#FFFFFF" fill-rule="nonzero">
                        <polygon id="Path" points="4.05009359e-13 0.00038840727 9.10191781 0.00038840727 9.10191781 2.76261063 2.95657534 2.76261063 2.95657534 5.30511063 8.76136986 5.30511063 8.76136986 8.06733285 2.95657534 8.06733285 2.95657534 10.8295551 9.44246575 10.8295551 9.44246575 13.6074717 4.05009359e-13 13.6074717"></polygon>
                        <polygon id="Path" points="15.1543836 6.49788841 10.7272603 0.00038840727 14.4268493 0.00038840727 17.2905479 4.75580507 20.0458904 0.00038840727 23.6216438 0.00038840727 19.2873973 6.43511063 24.1324658 13.6074717 20.4173973 13.6074717 17.1357534 8.13011063 13.9624658 13.6074717 10.4486301 13.6074717"></polygon>
                        <polygon id="Path" points="28.0952055 2.65274952 24.2717808 2.65274952 24.2717808 0.00038840727 34.8906849 0.00038840727 34.8906849 2.65274952 31.0517808 2.65274952 31.0517808 13.6074717 28.0952055 13.6074717"></polygon>
                        <path d="M36.3767123,0.000388407271 L41.5778082,0.000388407271 C42.2283116,-0.00582902086 42.8774193,0.0626157871 43.5127397,0.204416185 C44.0674188,0.324143854 44.5934098,0.553461314 45.0606849,0.879277296 C45.5273147,1.19514001 45.9058236,1.62755239 46.159726,2.13483285 C46.483085,2.74817754 46.6531658,3.43256078 46.6550685,4.1280273 C46.6798049,5.00479159 46.4186443,5.86535185 45.9120548,6.57636063 C45.3809779,7.27330821 44.604256,7.73456388 43.7449315,7.86330507 L47.1658904,13.6074717 L43.5591781,13.6074717 L40.7573973,8.16149952 L39.2868493,8.16149952 L39.2868493,13.6074717 L36.3767123,13.6074717 L36.3767123,0.000388407271 Z M39.3332877,5.63469396 L41.0824658,5.63469396 L41.9183562,5.63469396 C42.1942834,5.62305041 42.4663469,5.56469918 42.7232877,5.46205507 C43.2677262,5.26972387 43.6126326,4.72575113 43.5591781,4.14372174 C43.5756491,3.85228915 43.5055531,3.56254406 43.3579452,3.31191619 C43.2203829,3.11618408 43.0403207,2.95509905 42.8316438,2.84108285 C42.5960877,2.73089515 42.3456765,2.65684416 42.0886301,2.62136063 C41.8153593,2.60638512 41.5414901,2.60638512 41.2682192,2.62136063 L39.3332877,2.62136063 L39.3332877,5.63469396 Z" id="Shape"></path>
                        <path d="M53.0790411,0.00038840727 L55.5247945,0.00038840727 L61.3605479,13.6074717 L58.0169863,13.6074717 L56.8715068,10.719694 L51.6549315,10.719694 L50.540411,13.6074717 L47.2742466,13.6074717 L53.0790411,0.00038840727 Z M54.2090411,3.95538841 L52.5836986,8.17719396 L55.9427397,8.17719396 L54.2090411,3.95538841 Z" id="Shape"></path>
                    </g>
                </g>
            </g>
        </g>
    </g>
</svg>