<?xml version="1.0" encoding="UTF-8"?>
<svg width="96px" height="113px" viewBox="0 0 96 113" version="1.1" xmlns="http://www.w3.org/2000/svg" xmlns:xlink="http://www.w3.org/1999/xlink">
    <!-- Generator: Sketch 64 (93537) - https://sketch.com -->
    <title>s-plata-y-puntos</title>
    <desc>Created with Sketch.</desc>
    <g id="Welcome" stroke="none" stroke-width="1" fill="none" fill-rule="evenodd">
        <g id="HOME---Aliados---Puntos-Colombia---Desktop-HD" transform="translate(-143.000000, -1410.000000)" fill-rule="nonzero">
            <g id="Group-8" transform="translate(126.000000, 1396.000000)">
                <g id="s-plata-y-puntos" transform="translate(17.000000, 14.000000)">
                    <path d="M47.6147945,1.05152778 C22.4452055,1.05152778 1.95041096,21.7995833 1.05186325,47.7425 C1.05186325,48.1034722 1.05186325,48.4801389 1.05186325,48.8881944 L1.05186325,94.5276389 C0.96629452,104.014001 8.44580588,111.793638 17.8013699,111.948472 C26.5827736,111.808267 33.8012161,104.884806 34.4263014,96.0029167 C38.7039123,97.3102614 43.1470674,97.9764739 47.6147945,97.9804167 C73.3416438,97.9804167 94.2079452,76.275 94.2079452,49.5159722 C94.2079452,22.7569444 73.3416438,1.05152778 47.6147945,1.05152778" id="Path" fill="#743189"></path>
                    <path d="M17.7549315,113 C7.82421219,112.862208 -0.120485431,104.596487 7.47015297e-16,94.5276389 L7.47015297e-16,48.8881944 C7.47015297e-16,48.459213 7.47015297e-16,48.0511574 7.47015297e-16,47.6640278 C0.415993203,34.9422164 5.61650846,22.8637566 14.5352055,13.9052778 C23.3042669,5.00224178 35.20497,0 47.6147945,0 C73.929863,0 95.2141096,22.2076389 95.2141096,49.5159722 C95.2141096,76.8243056 73.8524658,99.0319444 47.6147945,99.0319444 C43.430131,99.0404155 39.26388,98.4701599 35.2312329,97.3369444 C33.9805994,106.195721 26.5797879,112.828664 17.7549315,113 M47.6147945,2.10305556 C22.9560274,2.10305556 2.95657534,22.1605556 2.07424658,47.7738889 C2.07424658,48.16625 2.07424658,48.5115278 2.07424658,48.8881944 L2.07424658,94.5276389 C1.97073629,103.428161 8.97705121,110.74216 17.7549315,110.896944 C26.0100731,110.750569 32.7979729,104.256025 33.420137,95.90875 L33.5130137,94.6218056 L34.7049315,94.9827778 C38.8907503,96.2701057 43.2406442,96.9258351 47.6147945,96.9288889 C72.7534247,96.9288889 93.1863014,75.6629167 93.1863014,49.5159722 C93.1863014,23.3690278 72.7534247,2.10305556 47.6147945,2.10305556" id="Shape" fill="#FFFFFF"></path>
                    <path d="M21.5628767,65.9166667 C22.1665753,65.9166667 23.3584932,66.1206944 23.3584932,66.8897222 C23.3669214,67.0380774 23.3157069,67.1835651 23.216537,67.2929842 C23.1173671,67.4024032 22.9787041,67.4664168 22.8321918,67.4704167 C22.4916438,67.4704167 22.2594521,67.1565278 21.5628767,67.1565278 C20.5257534,67.1565278 20.0149315,68.0825 20.0149315,69.1340278 C20.0149315,70.1855556 20.5567123,71.04875 21.5628767,71.04875 C22.2594521,71.04875 22.5380822,70.6877778 22.8941096,70.6877778 C23.200712,70.7123947 23.4368503,70.9723343 23.4358933,71.2841667 C23.4358933,72.1159722 22.1820548,72.3043056 21.5628767,72.3043056 C19.8231419,72.3043056 18.4128082,70.8743839 18.4128082,69.1104861 C18.4128082,67.3465883 19.8231419,65.9166667 21.5628767,65.9166667" id="Path" fill="#FFFFFF"></path>
                    <path d="M26.3150685,69.0555556 C26.2641134,68.24905 26.5416671,67.4566543 27.0829232,66.8633856 C27.6241793,66.2701169 28.3817564,65.9279098 29.1787671,65.9166667 C29.9741295,65.9368755 30.7278923,66.2812388 31.2697142,66.8719347 C31.8115361,67.4626306 32.0956845,68.2498013 32.0579452,69.0555556 C32.1370149,70.1466941 31.6076693,71.1910568 30.686616,71.761094 C29.7655627,72.3311313 28.607451,72.3311313 27.6863977,71.761094 C26.7653444,71.1910568 26.2359988,70.1466941 26.3150685,69.0555556 M30.7576712,69.0555556 C30.7576712,68.0040278 30.2313699,67.0623611 29.209726,67.0623611 C28.1880822,67.0623611 27.6617808,68.0040278 27.6617808,69.0555556 C27.6617808,70.1070833 28.1726027,71.0644444 29.209726,71.0644444 C30.2468493,71.0644444 30.7576712,70.1227778 30.7576712,69.0555556" id="Shape" fill="#FFFFFF"></path>
                    <path d="M35.0609589,66.5601389 C35.0219499,66.3092127 35.1321919,66.0585022 35.3423499,65.9202038 C35.552508,65.7819054 35.8232454,65.7819054 36.0334035,65.9202038 C36.2435616,66.0585022 36.3538035,66.3092127 36.3147945,66.5601389 L36.3147945,70.9231944 L37.8627397,70.9231944 C38.1876042,70.9231944 38.4509589,71.1902068 38.4509589,71.5195833 C38.4509589,71.8489598 38.1876042,72.1159722 37.8627397,72.1159722 L35.7110959,72.1159722 C35.5272355,72.1268132 35.348158,72.0541067 35.2224947,71.9175976 C35.0968315,71.7810884 35.0376269,71.5949466 35.0609589,71.4097222 L35.0609589,66.5601389 Z" id="Path" fill="#FFFFFF"></path>
                    <path d="M40.8812329,69.0555556 C40.8346889,68.2475123 41.1158527,67.4552804 41.6595269,66.862565 C42.2032012,66.2698497 42.962159,65.9281378 43.760411,65.9166667 C44.554347,65.9411184 45.3055943,66.2867692 45.8465242,66.8764926 C46.3874541,67.4662161 46.6730512,68.2509363 46.639589,69.0555556 C46.7537985,70.1707506 46.2313617,71.2544776 45.2933178,71.8482199 C44.3552739,72.4419623 43.165548,72.4419623 42.2275041,71.8482199 C41.2894602,71.2544776 40.7670235,70.1707506 40.8812329,69.0555556 M45.3238356,69.0555556 C45.3238356,68.0040278 44.7975342,67.0623611 43.7758904,67.0623611 C42.7542466,67.0623611 42.2279452,68.0040278 42.2279452,69.0555556 C42.2279452,70.1070833 42.7232877,71.0644444 43.7758904,71.0644444 C44.8284932,71.0644444 45.3238356,70.1227778 45.3238356,69.0555556" id="Shape" fill="#FFFFFF"></path>
                    <path d="M50.2617808,66.5601389 C50.3550576,66.1787542 50.694662,65.9123926 51.0821918,65.916616 C51.4641861,65.9242796 51.7995831,66.1761724 51.9180822,66.5444444 L52.9087671,69.9815278 L52.9087671,69.9815278 L53.8839726,66.5444444 C54.0024717,66.1761724 54.3378687,65.9242796 54.719863,65.916616 C55.1166526,65.9156817 55.4594474,66.197661 55.540274,66.5915278 L56.3142466,71.4254167 C56.3210655,71.4775031 56.3210655,71.5302747 56.3142466,71.5823611 C56.3184236,71.7432347 56.2582996,71.898992 56.1475311,72.0142544 C56.0367626,72.1295167 55.8847522,72.1945002 55.7260274,72.1944444 C55.3080822,72.1944444 55.1378082,71.9904167 55.0758904,71.5823611 L54.5805479,68.0511111 L54.5805479,68.0511111 L53.5743836,71.6922222 C53.506099,72.0038544 53.2227937,72.2176145 52.9087671,72.1944444 C52.5966792,72.2109951 52.3171323,72.0000708 52.2431507,71.6922222 L51.2369863,68.0511111 L51.2369863,68.0511111 L50.7416438,71.5823611 C50.7416438,71.9904167 50.5249315,72.1944444 50.0915068,72.1944444 C49.9286776,72.1944987 49.7727312,72.1278616 49.6590601,72.0096566 C49.5453889,71.8914516 49.4836331,71.7317032 49.4878082,71.5666667 C49.4809893,71.5145803 49.4809893,71.4618086 49.4878082,71.4097222 L50.2617808,66.5601389 Z" id="Path" fill="#FFFFFF"></path>
                    <path d="M59.4256164,66.5915278 C59.4114347,66.412684 59.4753622,66.2365372 59.600494,66.1096675 C59.7256258,65.9827978 59.8993595,65.9179824 60.0757534,65.9323611 L61.6236986,65.9323611 C62.4786052,65.9323611 63.1716438,66.6350253 63.1716438,67.5018056 C63.2174175,68.0520058 62.9032953,68.5679516 62.3976712,68.7730556 L62.3976712,68.7730556 C63.1085057,68.904209 63.63531,69.5164941 63.6669863,70.2483333 C63.7182391,70.7675429 63.5413691,71.283289 63.1834667,71.6582581 C62.8255642,72.0332272 62.3229539,72.2293625 61.8094521,72.1944444 L60.0912329,72.1944444 C59.9136068,72.2082441 59.7387246,72.1438059 59.6112826,72.0175988 C59.4838407,71.8913918 59.4161884,71.7156457 59.4256164,71.5352778 L59.4256164,66.5915278 Z M60.6794521,68.3806944 L61.329589,68.3806944 C61.5113209,68.3944599 61.6901201,68.328355 61.8204546,68.1992136 C61.9507891,68.0700721 62.0200811,67.890357 62.0106849,67.7058333 C62.011565,67.527866 61.9379018,67.3578831 61.8080189,67.2381678 C61.678136,67.1184525 61.5042406,67.0602564 61.329589,67.0780556 L60.6794521,67.0780556 L60.6794521,68.3806944 Z M60.6794521,70.9702778 L61.6546575,70.9702778 C61.8620261,70.9935299 62.0690198,70.9234037 62.2209463,70.7784282 C62.3728727,70.6334527 62.4544449,70.4282152 62.4441096,70.2169444 C62.4441096,69.8088889 62.15,69.5263889 61.5617808,69.5263889 L60.6794521,69.5263889 L60.6794521,70.9702778 Z" id="Shape" fill="#FFFFFF"></path>
                    <path d="M66.7164384,66.5601389 C66.7032207,66.3828813 66.7647423,66.2082522 66.885732,66.0795982 C67.0067217,65.9509441 67.1758356,65.8803278 67.3510959,65.8852778 C67.5252081,65.879809 67.6931637,65.95086 67.8118091,66.0801752 C67.9304544,66.2094905 67.9882237,66.384464 67.970274,66.5601389 L67.970274,71.5038889 C67.9882237,71.6795638 67.9304544,71.8545373 67.8118091,71.9838525 C67.6931637,72.1131678 67.5252081,72.1842187 67.3510959,72.17875 C67.1758356,72.1836999 67.0067217,72.1130837 66.885732,71.9844296 C66.7647423,71.8557756 66.7032207,71.6811464 66.7164384,71.5038889 L66.7164384,66.5601389 Z" id="Path" fill="#FFFFFF"></path>
                    <path d="M72.6141096,66.5601389 C72.7258528,66.1530589 73.0803918,65.8629658 73.4964384,65.8381944 C73.9219848,65.8461858 74.289659,66.1418396 74.3942466,66.5601389 L76.0350685,71.2684722 C76.0503274,71.37253 76.0503274,71.4783034 76.0350685,71.5823611 C76.0393861,71.7376715 75.9804316,71.8879305 75.872072,71.9977952 C75.7637123,72.1076598 75.6155116,72.1674331 75.4623288,72.1630556 C75.1753872,72.1801386 74.9163579,71.9897341 74.8431507,71.7079167 L74.5954795,70.8918056 L72.2735616,70.8918056 L72.0258904,71.6922222 C71.9716467,71.9817443 71.7121077,72.1841625 71.4221918,72.1630556 C71.0861842,72.163162 70.8114139,71.8915401 70.8030137,71.5509722 C70.7833567,71.4578601 70.7833567,71.3615844 70.8030137,71.2684722 L72.6141096,66.5601389 Z M72.6915068,69.6990278 L74.2394521,69.6990278 L73.4654795,67.1722222 L73.4654795,67.1722222 L72.6915068,69.6990278 Z" id="Shape" fill="#FFFFFF"></path>
                    <path d="M18.7146575,53.7691667 C18.6971837,53.4532188 18.8111755,53.1443185 19.0289081,52.9175954 C19.2466408,52.6908722 19.5481621,52.5671024 19.860137,52.5763889 L22.6773973,52.5763889 C23.6145069,52.5394862 24.5234801,52.9051641 25.1806959,53.5834601 C25.8379116,54.2617562 26.1823649,55.1897088 26.1293151,56.1390278 C26.1975505,57.0756689 25.8645937,57.9967297 25.2155358,58.6668218 C24.566478,59.336914 23.6642091,59.6911093 22.7393151,59.6388889 L21.0056164,59.6388889 L21.0056164,61.8361111 C21.0056164,62.4775285 20.4927678,62.9975 19.860137,62.9975 C19.2275062,62.9975 18.7146575,62.4775285 18.7146575,61.8361111 L18.7146575,53.7691667 Z M21.0056164,57.5672222 L22.2284932,57.5672222 C22.6255727,57.6072403 23.0207614,57.4746296 23.3158908,57.2023317 C23.6110202,56.9300339 23.7783952,56.5436014 23.7764384,56.1390278 C23.8046956,55.7251779 23.6458536,55.3207473 23.3447419,55.0398769 C23.0436301,54.7590065 22.6329083,54.6321608 22.2284932,54.6951389 L21.0056164,54.6951389 L21.0056164,57.5672222 Z" id="Shape" fill="#FFFFFF"></path>
                    <path d="M30.200411,58.8541667 C30.160242,59.4248975 30.3620186,59.9859137 30.7551151,60.3964566 C31.1482116,60.8069994 31.6953225,61.0281077 32.2591781,61.0043056 C32.8268844,61.0322606 33.3794391,60.8136067 33.7783753,60.4031375 C34.1773115,59.9926683 34.3848214,59.4292844 34.3489041,58.8541667 L34.3489041,53.7534722 C34.3489041,53.1120549 34.8617527,52.5920833 35.4943836,52.5920833 C36.1270144,52.5920833 36.639863,53.1120549 36.639863,53.7534722 L36.639863,58.8541667 C36.713145,60.0533712 36.2751948,61.226778 35.4372413,62.0763697 C34.5992879,62.9259614 33.4419552,63.3699942 32.2591781,63.2956944 C31.0724466,63.3799726 29.9077608,62.9397315 29.0650766,62.0883518 C28.2223925,61.2369721 27.7840765,60.0576704 27.8630137,58.8541667 L27.8630137,53.7534722 C27.8114977,53.3033989 28.0193476,52.8632996 28.3974732,52.6218128 C28.7755989,52.380326 29.2568668,52.380326 29.6349925,52.6218128 C30.0131182,52.8632996 30.2209681,53.3033989 30.1694521,53.7534722 L30.200411,58.8541667 Z" id="Path" fill="#FFFFFF"></path>
                    <path d="M38.8069863,53.7534722 C38.7602198,53.4234617 38.8616541,53.0895578 39.0834467,52.8434129 C39.3052394,52.5972681 39.6240855,52.4647459 39.9524658,52.4822222 C40.5561644,52.4822222 40.7728767,52.7647222 41.500411,53.7691667 L45.3083562,58.7286111 L45.3083562,58.7286111 L45.3083562,53.7534722 C45.3083562,53.1120549 45.8212048,52.5920833 46.4538356,52.5920833 C47.0864664,52.5920833 47.5993151,53.1120549 47.5993151,53.7534722 L47.5993151,61.8831944 C47.640391,62.212049 47.5369795,62.5426048 47.316463,62.7873334 C47.0959465,63.032062 46.7805675,63.1662788 46.4538356,63.1544444 C45.850137,63.1544444 45.6179452,62.8719444 44.9058904,61.8675 L41.0979452,56.9080556 L41.0979452,56.9080556 L41.0979452,61.8831944 C41.0979452,62.5246118 40.5850966,63.0445833 39.9524658,63.0445833 C39.3198349,63.0445833 38.8069863,62.5246118 38.8069863,61.8831944 L38.8069863,53.7534722 Z" id="Path" fill="#FFFFFF"></path>
                    <path d="M51.500137,54.7893056 L50.199863,54.7893056 C49.8903529,54.8261416 49.5804119,54.7240869 49.3513073,54.5099006 C49.1222027,54.2957142 48.9967872,53.9907608 49.0079452,53.675 C48.9903729,53.3585804 49.1144937,53.0510025 49.3457837,52.8378185 C49.5770737,52.6246346 49.8908599,52.5285861 50.199863,52.5763889 L55.0758904,52.5763889 C55.3848935,52.5285861 55.6986797,52.6246346 55.9299697,52.8378185 C56.1612597,53.0510025 56.2853806,53.3585804 56.2678082,53.675 C56.2789662,53.9907608 56.1535507,54.2957142 55.9244461,54.5099006 C55.6953415,54.7240869 55.3854005,54.8261416 55.0758904,54.7893056 L53.7910959,54.7893056 L53.7910959,61.8831944 C53.7910959,62.2981188 53.5727688,62.6815246 53.2183562,62.8889868 C52.8639436,63.096449 52.4272893,63.096449 52.0728767,62.8889868 C51.7184641,62.6815246 51.500137,62.2981188 51.500137,61.8831944 L51.500137,54.7893056 Z" id="Path" fill="#FFFFFF"></path>
                    <path d="M67.2736986,57.8183333 C67.4206985,59.2346008 66.9601289,60.6465975 66.0092771,61.6947477 C65.0584254,62.742898 63.7090554,63.3260481 62.3047945,63.2956944 C59.3172603,63.2956944 57.3513699,61.1455556 57.3513699,57.8183333 C57.3513699,54.4911111 59.3172603,52.3409722 62.3047945,52.3409722 C63.7090554,52.3106185 65.0584254,52.8937687 66.0092771,53.9419189 C66.9601289,54.9900692 67.4206985,56.4020659 67.2736986,57.8183333 M59.8126027,57.8183333 C59.8126027,59.4819444 60.540137,61.0827778 62.3047945,61.0827778 C64.0694521,61.0827778 64.7969863,59.5133333 64.7969863,57.8183333 C64.7969863,56.1233333 64.0849315,54.5538889 62.3047945,54.5538889 C60.5246575,54.5538889 59.8126027,56.1233333 59.8126027,57.8183333" id="Shape" fill="#FFFFFF"></path>
                    <path d="M69.8432877,60.2980556 C70.4160274,60.2980556 71.1435616,60.9101389 72.32,60.9101389 C73.2178082,60.9101389 73.5428767,60.4393056 73.5428767,59.9213889 C73.5428767,59.1209722 72.6605479,58.9640278 71.360274,58.5245833 C70.06,58.0851389 68.9454795,57.5986111 68.9454795,55.6995833 C68.9264955,54.746884 69.3132048,53.8320644 70.0067498,53.1889875 C70.7002947,52.5459106 71.6334522,52.2369079 72.5676712,52.3409722 C74.409726,52.3409722 75.4313699,53.0001389 75.4313699,53.9104167 C75.4575402,54.2010522 75.3615711,54.4893961 75.1670662,54.7045303 C74.9725614,54.9196645 74.6975699,55.0416254 74.409726,55.0404167 C73.6667123,55.0404167 73.4345205,54.6323611 72.4438356,54.6323611 C71.8246575,54.6323611 71.4067123,54.9776389 71.4067123,55.4955556 C71.4067123,56.0134722 71.9639726,56.1704167 73.5583562,56.7197222 C75.0397877,56.9873973 76.0901492,58.3354352 76.0041096,59.8586111 C76.0317643,60.8688055 75.6195345,61.8401489 74.8770348,62.5143542 C74.1345351,63.1885595 73.1370164,63.4972974 72.149726,63.3584722 C70.8030137,63.3584722 68.7752055,62.8091667 68.7752055,61.6320833 C68.7406533,61.3177781 68.8357772,61.0029716 69.0380463,60.7622273 C69.2403155,60.521483 69.5317376,60.3762159 69.8432877,60.3608333" id="Path" fill="#FFFFFF"></path>
                    <path d="M13.250411,33.0681944 L18.2347945,33.0681944 C18.8954879,33.0629085 19.5547498,33.1313293 20.2006849,33.2722222 C20.7530732,33.3909266 21.2783031,33.614587 21.7486301,33.9313889 C22.2115063,34.2581979 22.5887596,34.694563 22.8476712,35.2026389 C23.1361489,35.8307365 23.274056,36.5190932 23.250137,37.2115278 C23.3028228,37.9015848 23.1968467,38.594624 22.9405479,39.2361111 C22.7151615,39.7517763 22.3568959,40.1963406 21.9034247,40.5230556 C21.4381949,40.8526128 20.9114298,41.0822678 20.3554795,41.1979167 C19.7099319,41.3412777 19.050396,41.4097269 18.389589,41.4019444 L16.2069863,41.4019444 L16.2069863,46.7066667 L13.250411,46.7066667 L13.250411,33.0681944 Z M16.2069863,38.84375 L18.1728767,38.84375 C18.4276181,38.8425674 18.6816431,38.8162865 18.9313699,38.7652778 C19.1664628,38.7149304 19.3914931,38.6247294 19.5969863,38.4984722 C19.797224,38.3761322 19.9626012,38.2030493 20.0768493,37.99625 C20.2051718,37.7555635 20.2692065,37.4850463 20.2626027,37.2115278 C20.2727074,36.9092933 20.185797,36.6118968 20.0149315,36.3640278 C19.8574034,36.152812 19.6497258,35.9854421 19.4112329,35.8775 C19.1504307,35.762221 18.8737526,35.6881212 18.5908219,35.6577778 L17.7084932,35.6577778 L16.1605479,35.6577778 L16.2069863,38.84375 Z" id="Shape" fill="#FFFFFF"></path>
                    <polygon id="Path" fill="#FFFFFF" points="25.2934247 33.0681944 28.25 33.0681944 28.25 43.9130556 33.729726 43.9130556 33.729726 46.6752778 25.2934247 46.6752778"></polygon>
                    <path d="M39.7821918,33.0681944 L42.2279452,33.0681944 L48.0636986,46.6752778 L44.720137,46.6752778 L43.5591781,43.7875 L38.3580822,43.7875 L37.2435616,46.6752778 L34.0547945,46.6752778 L39.7821918,33.0681944 Z M40.9121918,37.0388889 L39.2868493,41.2606944 L42.5684932,41.2606944 L40.9121918,37.0388889 Z" id="Shape" fill="#FFFFFF"></path>
                    <polygon id="Path" fill="#FFFFFF" points="50.2617808 35.7205556 46.4228767 35.7205556 46.4228767 33.0681944 57.0417808 33.0681944 57.0417808 35.7205556 53.2183562 35.7205556 53.2183562 46.6752778 50.2617808 46.6752778"></polygon>
                    <path d="M61.2057534,33.0681944 L63.6515068,33.0681944 L69.4872603,46.6752778 L66.1591781,46.6752778 L65.0136986,43.7875 L59.7971233,43.7875 L58.6671233,46.6752778 L55.4164384,46.6752778 L61.2057534,33.0681944 Z M62.3512329,37.0388889 L60.7258904,41.2606944 L63.9920548,41.2606944 L62.3512329,37.0388889 Z" id="Shape" fill="#FFFFFF"></path>
                    <path d="M76.2982192,32.346233 C73.3792608,32.3398991 70.7442374,34.117771 69.6228574,36.8501714 C68.5014774,39.5825717 69.1148006,42.730857 71.1766025,44.8257905 C73.2384043,46.9207241 76.3422377,47.5493275 79.0396106,46.4182452 C81.7369836,45.287163 83.4961811,42.6193674 83.4961811,39.6598611 C83.5002756,37.7216154 82.7437381,35.8613273 81.3934157,34.4893061 C80.0430933,33.117285 78.209918,32.346233 76.2982192,32.346233 M77.2115068,40.8055556 L77.2115068,44.4309722 L75.3694521,44.4309722 L75.3694521,40.8055556 L72.2735616,35.9245833 L74.58,35.9245833 L76.360137,39.0634722 L78.2331507,35.9245833 L80.4312329,35.9245833 L77.2115068,40.8055556 Z" id="Shape" fill="#FFFFFF"></path>
                </g>
            </g>
        </g>
    </g>
</svg>