<?xml version="1.0" encoding="UTF-8"?>
<svg width="96px" height="113px" viewBox="0 0 96 113" version="1.1" xmlns="http://www.w3.org/2000/svg" xmlns:xlink="http://www.w3.org/1999/xlink">
    <!-- Generator: Sketch 64 (93537) - https://sketch.com -->
    <title>s-solo-puntos</title>
    <desc>Created with Sketch.</desc>
    <g id="Welcome" stroke="none" stroke-width="1" fill="none" fill-rule="evenodd">
        <g id="HOME---Aliados---Puntos-Colombia---Desktop-HD" transform="translate(-546.000000, -1410.000000)" fill-rule="nonzero">
            <g id="Group-7" transform="translate(529.000000, 1396.000000)">
                <g id="s-solo-puntos" transform="translate(17.000000, 14.000000)">
                    <path d="M47.6147945,1.05152778 C22.4452055,1.05152778 1.95041096,21.7995833 1.05186325,47.7425 C1.05186325,48.1034722 1.05186325,48.4801389 1.05186325,48.8881944 L1.05186325,94.5276389 C0.96629452,104.014001 8.44580588,111.793638 17.8013699,111.948472 C26.5827736,111.808267 33.8012161,104.884806 34.4263014,96.0029167 C38.7039123,97.3102614 43.1470674,97.9764739 47.6147945,97.9804167 C73.3416438,97.9804167 94.2079452,76.275 94.2079452,49.5159722 C94.2079452,22.7569444 73.3416438,1.05152778 47.6147945,1.05152778" id="Path" fill="#E02B88"></path>
                    <path d="M17.7549315,113 C7.82421219,112.862208 -0.120485431,104.596487 7.47015297e-16,94.5276389 L7.47015297e-16,48.8881944 C7.47015297e-16,48.459213 7.47015297e-16,48.0511574 7.47015297e-16,47.6640278 C0.415993203,34.9422164 5.61650846,22.8637566 14.5352055,13.9052778 C23.3042669,5.00224178 35.20497,0 47.6147945,0 C73.929863,0 95.2141096,22.2076389 95.2141096,49.5159722 C95.2141096,76.8243056 73.8524658,99.0319444 47.6147945,99.0319444 C43.430131,99.0404155 39.26388,98.4701599 35.2312329,97.3369444 C33.9805994,106.195721 26.5797879,112.828664 17.7549315,113 M47.6147945,2.10305556 C22.9560274,2.10305556 2.95657534,22.1605556 2.07424658,47.7738889 C2.07424658,48.16625 2.07424658,48.5115278 2.07424658,48.8881944 L2.07424658,94.5276389 C1.97073629,103.428161 8.97705121,110.74216 17.7549315,110.896944 C26.0100731,110.750569 32.7979729,104.256025 33.420137,95.90875 L33.5130137,94.6218056 L34.7049315,94.9827778 C38.8907503,96.2701057 43.2406442,96.9258351 47.6147945,96.9288889 C72.7534247,96.9288889 93.1863014,75.6629167 93.1863014,49.5159722 C93.1863014,23.3690278 72.7534247,2.10305556 47.6147945,2.10305556" id="Shape" fill="#FFFFFF"></path>
                    <path d="M18.7146575,53.7691667 C18.6971837,53.4532188 18.8111755,53.1443185 19.0289081,52.9175954 C19.2466408,52.6908722 19.5481621,52.5671024 19.860137,52.5763889 L22.6773973,52.5763889 C23.6145069,52.5394862 24.5234801,52.9051641 25.1806959,53.5834601 C25.8379116,54.2617562 26.1823649,55.1897088 26.1293151,56.1390278 C26.1975505,57.0756689 25.8645937,57.9967297 25.2155358,58.6668218 C24.566478,59.336914 23.6642091,59.6911093 22.7393151,59.6388889 L21.0056164,59.6388889 L21.0056164,61.8361111 C21.0056164,62.4775285 20.4927678,62.9975 19.860137,62.9975 C19.2275062,62.9975 18.7146575,62.4775285 18.7146575,61.8361111 L18.7146575,53.7691667 Z M21.0056164,57.5672222 L22.2284932,57.5672222 C22.6255727,57.6072403 23.0207614,57.4746296 23.3158908,57.2023317 C23.6110202,56.9300339 23.7783952,56.5436014 23.7764384,56.1390278 C23.8046956,55.7251779 23.6458536,55.3207473 23.3447419,55.0398769 C23.0436301,54.7590065 22.6329083,54.6321608 22.2284932,54.6951389 L21.0056164,54.6951389 L21.0056164,57.5672222 Z" id="Shape" fill="#FFFFFF"></path>
                    <path d="M30.200411,58.8541667 C30.160242,59.4248975 30.3620186,59.9859137 30.7551151,60.3964566 C31.1482116,60.8069994 31.6953225,61.0281077 32.2591781,61.0043056 C32.8268844,61.0322606 33.3794391,60.8136067 33.7783753,60.4031375 C34.1773115,59.9926683 34.3848214,59.4292844 34.3489041,58.8541667 L34.3489041,53.7534722 C34.3489041,53.1120549 34.8617527,52.5920833 35.4943836,52.5920833 C36.1270144,52.5920833 36.639863,53.1120549 36.639863,53.7534722 L36.639863,58.8541667 C36.713145,60.0533712 36.2751948,61.226778 35.4372413,62.0763697 C34.5992879,62.9259614 33.4419552,63.3699942 32.2591781,63.2956944 C31.0724466,63.3799726 29.9077608,62.9397315 29.0650766,62.0883518 C28.2223925,61.2369721 27.7840765,60.0576704 27.8630137,58.8541667 L27.8630137,53.7534722 C27.8114977,53.3033989 28.0193476,52.8632996 28.3974732,52.6218128 C28.7755989,52.380326 29.2568668,52.380326 29.6349925,52.6218128 C30.0131182,52.8632996 30.2209681,53.3033989 30.1694521,53.7534722 L30.200411,58.8541667 Z" id="Path" fill="#FFFFFF"></path>
                    <path d="M38.8069863,53.7534722 C38.7602198,53.4234617 38.8616541,53.0895578 39.0834467,52.8434129 C39.3052394,52.5972681 39.6240855,52.4647459 39.9524658,52.4822222 C40.5561644,52.4822222 40.7728767,52.7647222 41.500411,53.7691667 L45.3083562,58.7286111 L45.3083562,58.7286111 L45.3083562,53.7534722 C45.3083562,53.1120549 45.8212048,52.5920833 46.4538356,52.5920833 C47.0864664,52.5920833 47.5993151,53.1120549 47.5993151,53.7534722 L47.5993151,61.8831944 C47.640391,62.212049 47.5369795,62.5426048 47.316463,62.7873334 C47.0959465,63.032062 46.7805675,63.1662788 46.4538356,63.1544444 C45.850137,63.1544444 45.6179452,62.8719444 44.9058904,61.8675 L41.0979452,56.9080556 L41.0979452,56.9080556 L41.0979452,61.8831944 C41.0979452,62.5246118 40.5850966,63.0445833 39.9524658,63.0445833 C39.3198349,63.0445833 38.8069863,62.5246118 38.8069863,61.8831944 L38.8069863,53.7534722 Z" id="Path" fill="#FFFFFF"></path>
                    <path d="M51.500137,54.7893056 L50.199863,54.7893056 C49.8903529,54.8261416 49.5804119,54.7240869 49.3513073,54.5099006 C49.1222027,54.2957142 48.9967872,53.9907608 49.0079452,53.675 C48.9903729,53.3585804 49.1144937,53.0510025 49.3457837,52.8378185 C49.5770737,52.6246346 49.8908599,52.5285861 50.199863,52.5763889 L55.0758904,52.5763889 C55.3848935,52.5285861 55.6986797,52.6246346 55.9299697,52.8378185 C56.1612597,53.0510025 56.2853806,53.3585804 56.2678082,53.675 C56.2789662,53.9907608 56.1535507,54.2957142 55.9244461,54.5099006 C55.6953415,54.7240869 55.3854005,54.8261416 55.0758904,54.7893056 L53.7910959,54.7893056 L53.7910959,61.8831944 C53.7910959,62.2981188 53.5727688,62.6815246 53.2183562,62.8889868 C52.8639436,63.096449 52.4272893,63.096449 52.0728767,62.8889868 C51.7184641,62.6815246 51.500137,62.2981188 51.500137,61.8831944 L51.500137,54.7893056 Z" id="Path" fill="#FFFFFF"></path>
                    <path d="M67.2736986,57.8183333 C67.4206985,59.2346008 66.9601289,60.6465975 66.0092771,61.6947477 C65.0584254,62.742898 63.7090554,63.3260481 62.3047945,63.2956944 C59.3172603,63.2956944 57.3513699,61.1455556 57.3513699,57.8183333 C57.3513699,54.4911111 59.3172603,52.3409722 62.3047945,52.3409722 C63.7090554,52.3106185 65.0584254,52.8937687 66.0092771,53.9419189 C66.9601289,54.9900692 67.4206985,56.4020659 67.2736986,57.8183333 M59.8126027,57.8183333 C59.8126027,59.4819444 60.540137,61.0827778 62.3047945,61.0827778 C64.0694521,61.0827778 64.7969863,59.5133333 64.7969863,57.8183333 C64.7969863,56.1233333 64.0849315,54.5538889 62.3047945,54.5538889 C60.5246575,54.5538889 59.8126027,56.1233333 59.8126027,57.8183333" id="Shape" fill="#FFFFFF"></path>
                    <path d="M69.8432877,60.2980556 C70.4160274,60.2980556 71.1435616,60.9101389 72.32,60.9101389 C73.2178082,60.9101389 73.5428767,60.4393056 73.5428767,59.9213889 C73.5428767,59.1209722 72.6605479,58.9640278 71.360274,58.5245833 C70.06,58.0851389 68.9454795,57.5986111 68.9454795,55.6995833 C68.9264955,54.746884 69.3132048,53.8320644 70.0067498,53.1889875 C70.7002947,52.5459106 71.6334522,52.2369079 72.5676712,52.3409722 C74.409726,52.3409722 75.4313699,53.0001389 75.4313699,53.9104167 C75.4575402,54.2010522 75.3615711,54.4893961 75.1670662,54.7045303 C74.9725614,54.9196645 74.6975699,55.0416254 74.409726,55.0404167 C73.6667123,55.0404167 73.4345205,54.6323611 72.4438356,54.6323611 C71.8246575,54.6323611 71.4067123,54.9776389 71.4067123,55.4955556 C71.4067123,56.0134722 71.9639726,56.1704167 73.5583562,56.7197222 C75.0397877,56.9873973 76.0901492,58.3354352 76.0041096,59.8586111 C76.0317643,60.8688055 75.6195345,61.8401489 74.8770348,62.5143542 C74.1345351,63.1885595 73.1370164,63.4972974 72.149726,63.3584722 C70.8030137,63.3584722 68.7752055,62.8091667 68.7752055,61.6320833 C68.7406533,61.3177781 68.8357772,61.0029716 69.0380463,60.7622273 C69.2403155,60.521483 69.5317376,60.3762159 69.8432877,60.3608333" id="Path" fill="#FFFFFF"></path>
                    <path d="M29.0394521,36.3954167 C28.7780347,36.0808816 28.4347874,35.8470593 28.0487671,35.7205556 C27.6785511,35.5750152 27.2848793,35.5005092 26.8878082,35.5008333 C26.6664935,35.4782814 26.4435065,35.4782814 26.2221918,35.5008333 C26.0023645,35.5612033 25.789586,35.6453921 25.5875342,35.7519444 C25.3930989,35.8536413 25.2237852,35.9984839 25.0921918,36.1756944 C24.9662671,36.371461 24.9015282,36.6011939 24.9064384,36.8348611 C24.8837201,37.2066725 25.0538657,37.563587 25.3553425,37.7765278 C25.7055014,38.0209781 26.0923108,38.2064695 26.5008219,38.3258333 L28.0487671,38.7966667 C28.5916403,38.9374714 29.1125976,39.1540304 29.5967123,39.4401389 C30.6305443,40.0846415 31.2266719,41.2571914 31.1446575,42.4848611 C31.1600228,43.1681185 31.0168621,43.8454805 30.7267123,44.4623611 C30.4648005,45.0123427 30.0774435,45.491159 29.5967123,45.8591667 C29.105163,46.2461599 28.5419074,46.5290306 27.940411,46.6909722 C27.2997822,46.8683994 26.6386206,46.9581305 25.9745205,46.9577778 C25.1467514,46.9719559 24.3233165,46.8336969 23.5442466,46.5497222 C22.7663091,46.2667199 22.0547397,45.8231603 21.4545205,45.2470833 L23.559726,42.9086111 C23.8611672,43.3114665 24.2541418,43.6345198 24.7052055,43.8502778 C25.1504986,44.0816269 25.6444626,44.2001015 26.1447945,44.1955556 C26.3901294,44.1935058 26.6343542,44.1618951 26.8723288,44.1013889 C27.1057963,44.0535227 27.3304035,43.9687872 27.5379452,43.8502778 C27.7174735,43.7332095 27.8747718,43.5843586 28.0023288,43.4108333 C28.1279321,43.220763 28.1927864,42.9960999 28.1880822,42.7673611 C28.1980213,42.3858612 28.0249211,42.0231523 27.7236986,41.7943056 C27.3669068,41.530704 26.9693278,41.3291536 26.5472603,41.1979167 C26.0828767,41.0252778 25.5875342,40.8683333 24.9993151,40.6956944 C24.4574436,40.5374986 23.9373722,40.3107619 23.4513699,40.0208333 C22.9787726,39.7476489 22.5758633,39.366019 22.2749315,38.9065278 C21.9402744,38.3620516 21.7782052,37.7266804 21.8105479,37.0859722 C21.7946017,36.4159846 21.9435638,35.7525271 22.2439726,35.1555556 C22.519476,34.6189444 22.9047156,34.1480959 23.3739726,33.7744444 C23.8744766,33.4058286 24.4351582,33.1295634 25.030274,32.9583333 C25.6529581,32.7692064 26.2997044,32.6740199 26.949726,32.6758079 C27.6945214,32.6740769 28.4353953,32.7851645 29.1478082,33.0054167 C29.8596541,33.2237416 30.5151051,33.5988933 31.0672603,34.1040278 L29.0394521,36.3954167 Z" id="Path" fill="#FFFFFF"></path>
                    <path d="M32.5068493,39.8795833 C32.4937433,38.8643699 32.6778353,37.8564666 33.0486301,36.9133333 C33.4040885,36.0591124 33.9312853,35.289405 34.5965753,34.6533333 C35.2643341,34.0268584 36.0483708,33.5413667 36.9030137,33.2251389 C38.7761924,32.5550157 40.8191501,32.5550157 42.6923288,33.2251389 C43.544063,33.5377986 44.3237015,34.0238288 44.9832877,34.6533333 C45.6524791,35.2859895 46.1802938,36.056599 46.5312329,36.9133333 C47.25376,38.8175777 47.25376,40.9258945 46.5312329,42.8301389 C46.1864314,43.69026 45.6577529,44.4621306 44.9832877,45.0901389 C44.3278633,45.7251357 43.5470186,46.2119179 42.6923288,46.5183333 C40.8191501,47.1884565 38.7761924,47.1884565 36.9030137,46.5183333 C36.045389,46.2084088 35.260165,45.7221818 34.5965753,45.0901389 C33.9247921,44.4597625 33.396557,43.6885392 33.0486301,42.8301389 C32.6794419,41.8920128 32.495372,40.8895623 32.5068493,39.8795833 M35.6027397,39.8795833 C35.5931491,40.4788751 35.6928595,41.074805 35.8968493,41.6373611 C36.0738025,42.1535495 36.358976,42.6247313 36.7327397,43.0184722 C37.1049027,43.4104253 37.5528243,43.7203109 38.0484932,43.92875 C39.1518309,44.3742729 40.3815937,44.3742729 41.4849315,43.92875 C41.9806004,43.7203109 42.428522,43.4104253 42.8006849,43.0184722 C43.1744487,42.6247313 43.4596222,42.1535495 43.6365753,41.6373611 C43.8405652,41.074805 43.9402755,40.4788751 43.9306849,39.8795833 C43.9375022,39.2805087 43.8378764,38.685084 43.6365753,38.1218056 C43.4633198,37.6038496 43.1776776,37.1318935 42.8006849,36.7406944 C42.4291211,36.3441156 41.9813197,36.0289717 41.4849315,35.8147222 C40.3766462,35.3961686 39.1567785,35.3961686 38.0484932,35.8147222 C37.552105,36.0289717 37.1043035,36.3441156 36.7327397,36.7406944 C36.355747,37.1318935 36.0701048,37.6038496 35.8968493,38.1218056 C35.6955483,38.685084 35.5959224,39.2805087 35.6027397,39.8795833" id="Shape" fill="#FFFFFF"></path>
                    <polygon id="Path" fill="#FFFFFF" points="49.1627397 33.0681944 52.1193151 33.0681944 52.1193151 43.9130556 57.5990411 43.9130556 57.5990411 46.6752778 49.1627397 46.6752778"></polygon>
                    <path d="M58.4968493,39.8795833 C58.4837433,38.8643699 58.6678353,37.8564666 59.0386301,36.9133333 C59.729768,35.1886844 61.1157353,33.8463024 62.8465753,33.2251389 C64.719754,32.5550157 66.7627117,32.5550157 68.6358904,33.2251389 C69.492373,33.5374851 70.2771358,34.0234265 70.9423288,34.6533333 C71.6076188,35.289405 72.1348156,36.0591124 72.490274,36.9133333 C73.2128011,38.8175777 73.2128011,40.9258945 72.490274,42.8301389 C72.1423471,43.6885392 71.614112,44.4597625 70.9423288,45.0901389 C70.2812398,45.7255008 69.4952854,46.21218 68.6358904,46.5183333 C66.7627117,47.1884565 64.719754,47.1884565 62.8465753,46.5183333 C61.9918855,46.2119179 61.2110408,45.7251357 60.5556164,45.0901389 C59.8845827,44.4591023 59.35647,43.6880577 59.0076712,42.8301389 C58.638483,41.8920128 58.4544131,40.8895623 58.4658904,39.8795833 M61.5617808,39.8795833 C61.571935,40.4828225 61.6926638,41.0788849 61.9178082,41.6373611 C62.1006385,42.1507045 62.3850985,42.6207072 62.7536986,43.0184722 C63.1258616,43.4104253 63.5737832,43.7203109 64.0694521,43.92875 C65.1727898,44.3742729 66.4025527,44.3742729 67.5058904,43.92875 C68.0015593,43.7203109 68.4494809,43.4104253 68.8216438,43.0184722 C69.1951081,42.6215871 69.4848029,42.1516378 69.6730137,41.6373611 C69.8643627,41.0719046 69.9586065,40.477354 69.9516438,39.8795833 C69.9509428,39.2811309 69.8515352,38.6870106 69.6575342,38.1218056 C69.4729827,37.6057134 69.1828417,37.1350402 68.8061644,36.7406944 C68.4346006,36.3441156 67.9867991,36.0289717 67.490411,35.8147222 C66.3821256,35.3961686 65.1622579,35.3961686 64.0539726,35.8147222 C63.5575844,36.0289717 63.109783,36.3441156 62.7382192,36.7406944 C62.366367,37.1359309 62.0814628,37.6066677 61.9023288,38.1218056 C61.7010277,38.685084 61.6014019,39.2805087 61.6082192,39.8795833" id="Shape" fill="#FFFFFF"></path>
                    <path d="M21.949863,64.9593056 C22.5535616,64.9593056 23.73,65.1633333 23.73,65.9166667 C23.7428727,66.0634616 23.6952934,66.2091182 23.5985429,66.3191028 C23.5017923,66.4290873 23.3644861,66.4936056 23.2191781,66.4973611 C22.8786301,66.4973611 22.6464384,66.1991667 21.949863,66.1991667 C20.9282192,66.1991667 20.4019178,67.1094444 20.4019178,68.1609722 C20.4019178,69.2125 20.9436986,70.06 21.949863,70.06 C22.6464384,70.06 22.9250685,69.6990278 23.2656164,69.6990278 C23.5692248,69.7224129 23.808137,69.9713721 23.8228767,70.2797222 C23.8228767,71.1115278 22.5690411,71.2998611 21.949863,71.2998611 C20.24005,71.2998611 18.8539726,69.8945327 18.8539726,68.1609722 C18.8539726,66.4274118 20.24005,65.0220833 21.949863,65.0220833" id="Path" fill="#FFFFFF"></path>
                    <path d="M26.6556164,68.1295833 C26.6047603,67.3257549 26.8802394,66.5357898 27.4181246,65.9430117 C27.9560098,65.3502337 28.7095359,65.0061803 29.5038356,64.9906944 C30.2937485,65.0191506 31.0395345,65.3671048 31.5746876,65.956872 C32.1098407,66.5466391 32.3897978,67.3291083 32.3520548,68.1295833 C32.4656901,69.2331747 31.9490293,70.3059319 31.0207998,70.8937057 C30.0925702,71.4814794 28.9151011,71.4814794 27.9868715,70.8937057 C27.0586419,70.3059319 26.5419811,69.2331747 26.6556164,68.1295833 M31.0517808,68.1295833 C31.0517808,67.09375 30.5409589,66.1520833 29.5038356,66.1520833 C28.4667123,66.1520833 27.9558904,67.09375 27.9558904,68.1295833 C27.9558904,69.1654167 28.4667123,70.1070833 29.5038356,70.1070833 C30.5409589,70.1070833 31.0517808,69.1811111 31.0517808,68.1295833" id="Shape" fill="#FFFFFF"></path>
                    <path d="M35.3550685,65.68125 C35.3550685,65.3345379 35.632284,65.0534722 35.9742466,65.0534722 C36.3162092,65.0534722 36.5934247,65.3345379 36.5934247,65.68125 L36.5934247,70.0129167 L38.0639726,70.0129167 C38.2318221,69.994097 38.3993081,70.0513398 38.5216663,70.1693457 C38.6440244,70.2873517 38.7087816,70.4540914 38.6986301,70.625 C38.6821336,70.9507273 38.4166198,71.2061236 38.0949315,71.2056944 L35.989726,71.2056944 C35.8085032,71.2117449 35.6337716,71.1369522 35.5116537,71.0010588 C35.3895357,70.8651654 35.3323051,70.6818294 35.3550685,70.4994444 L35.3550685,65.68125 Z" id="Path" fill="#FFFFFF"></path>
                    <path d="M41.1289041,68.1295833 C41.077949,67.3230778 41.3555027,66.5306821 41.8967588,65.9374134 C42.4380149,65.3441446 43.195592,65.0019376 43.9926027,64.9906944 C44.7825156,65.0191506 45.5283016,65.3671048 46.0634547,65.956872 C46.5986078,66.5466391 46.8785649,67.3291083 46.8408219,68.1295833 C46.9196885,69.2149773 46.3932489,70.2539438 45.4770684,70.8210495 C44.5608879,71.3881552 43.4088381,71.3881552 42.4926576,70.8210495 C41.5764771,70.2539438 41.0500376,69.2149773 41.1289041,68.1295833 M45.5405479,68.1295833 C45.5405479,67.09375 45.029726,66.1520833 43.9926027,66.1520833 C42.9554795,66.1520833 42.4446575,67.09375 42.4446575,68.1295833 C42.4446575,69.1654167 42.9554795,70.1070833 43.9926027,70.1070833 C45.029726,70.1070833 45.5405479,69.1811111 45.5405479,68.1295833" id="Shape" fill="#FFFFFF"></path>
                    <path d="M50.4475342,65.6655556 C50.5333599,65.2836356 50.8661519,65.0111088 51.2524658,65.0063889 C51.6344601,65.0140018 51.9698571,65.2658946 52.0883562,65.6341667 L53.0635616,69.0555556 L53.0635616,69.0555556 L54.0387671,65.6498611 C54.1572662,65.2815891 54.4926632,65.0296963 54.8746575,65.0220833 C55.2609714,65.0268033 55.5937633,65.29933 55.679589,65.68125 L56.4535616,70.4994444 C56.4603386,70.5462771 56.4603386,70.5938618 56.4535616,70.6406944 C56.4622697,70.8069952 56.4020002,70.9694127 56.2873347,71.0886517 C56.1726692,71.2078907 56.0140535,71.2730889 55.849863,71.2684722 C55.4319178,71.2684722 55.2616438,71.0644444 55.199726,70.6563889 L54.719863,67.1565278 L54.719863,67.1565278 L53.7136986,70.76625 C53.633898,71.0681282 53.3640734,71.2780335 53.0558219,71.2780335 C52.7475704,71.2780335 52.4777458,71.0681282 52.3979452,70.76625 L51.3917808,67.1565278 L51.3917808,67.1565278 L50.9119178,70.625 C50.9119178,71.0330556 50.679726,71.2370833 50.2617808,71.2370833 C50.0975903,71.2417 49.9389746,71.1765018 49.8243091,71.0572628 C49.7096437,70.9380238 49.6493741,70.7756063 49.6580822,70.6093056 C49.6513052,70.5624729 49.6513052,70.5148882 49.6580822,70.4680556 L50.4475342,65.6655556 Z" id="Path" fill="#FFFFFF"></path>
                    <path d="M59.5339726,65.7126389 C59.5197909,65.5337951 59.5837184,65.3576483 59.7088501,65.2307786 C59.8339819,65.1039089 60.0077157,65.0390935 60.1841096,65.0534722 L61.7320548,65.0534722 C62.5869613,65.0534722 63.28,65.7561364 63.28,66.6229167 C63.3158249,67.1706601 63.0050263,67.6811467 62.5060274,67.8941667 L62.5060274,67.8941667 C63.2053493,68.0303678 63.7228011,68.6327306 63.759863,69.35375 C63.7874464,69.8557439 63.6016952,70.3456852 63.2495752,70.6996957 C62.8974551,71.0537062 62.4126751,71.2378961 61.9178082,71.2056944 L60.2150685,71.2056944 C60.0374424,71.2194941 59.8625602,71.1550559 59.7351182,71.0288488 C59.6076763,70.9026418 59.540024,70.7268957 59.5494521,70.5465278 L59.5339726,65.7126389 Z M60.7723288,67.4861111 L61.4224658,67.4861111 C61.6029607,67.5004382 61.7805982,67.4339522 61.908618,67.3041544 C62.0366377,67.1743566 62.102213,66.9942518 62.0880822,66.81125 C62.094159,66.6357841 62.0236692,66.4665182 61.8953997,66.3485649 C61.7671302,66.2306116 61.5941149,66.1759567 61.4224658,66.1991667 L60.7723288,66.1991667 L60.7723288,67.4861111 Z M60.7723288,70.06 L61.7630137,70.06 C61.9678475,70.0783635 62.1705102,70.0060482 62.3188513,69.861663 C62.4671923,69.7172777 62.5467261,69.5149217 62.5369863,69.3066667 C62.5369863,68.8986111 62.2428767,68.6318056 61.6546575,68.6318056 L60.7723288,68.6318056 L60.7723288,70.06 Z" id="Shape" fill="#FFFFFF"></path>
                    <path d="M66.7783562,65.68125 C66.7783562,65.3345379 67.0555716,65.0534722 67.3975342,65.0534722 C67.7394969,65.0534722 68.0167123,65.3345379 68.0167123,65.68125 L68.0167123,70.625 C68.0167123,70.9717121 67.7394969,71.2527778 67.3975342,71.2527778 C67.0555716,71.2527778 66.7783562,70.9717121 66.7783562,70.625 L66.7783562,65.68125 Z" id="Path" fill="#FFFFFF"></path>
                    <path d="M72.6141096,65.6655556 C72.7372354,65.262222 73.0959917,64.9800106 73.5119178,64.9593056 C73.9272604,64.9722353 74.2854486,65.258943 74.3942466,65.6655556 L75.9421918,70.3738889 C75.9578587,70.4831758 75.9578587,70.5941853 75.9421918,70.7034722 C75.9422499,70.8560788 75.8814186,71.0022194 75.7735398,71.1086404 C75.665661,71.2150614 75.5199101,71.2727113 75.3694521,71.2684722 C75.0863261,71.2841136 74.8324891,71.0927414 74.7657534,70.8133333 L74.5180822,70.0129167 L72.3509589,70.0129167 L72.1032877,70.8133333 C72.0491843,71.0941828 71.796529,71.2896767 71.5150685,71.2684722 C71.3522928,71.2727053 71.1947327,71.2100918 71.0781469,71.0948419 C70.9615611,70.979592 70.8958369,70.8214797 70.8958904,70.6563889 C70.8800035,70.562911 70.8800035,70.4673667 70.8958904,70.3738889 L72.6141096,65.6655556 Z M72.7069863,68.8044444 L74.2549315,68.8044444 L73.4809589,66.3090278 L73.4809589,66.3090278 L72.7069863,68.8044444 Z" id="Shape" fill="#FFFFFF"></path>
                </g>
            </g>
        </g>
    </g>
</svg>