<?xml version="1.0" encoding="UTF-8"?>
<svg width="307px" height="73px" viewBox="0 0 307 73" version="1.1" xmlns="http://www.w3.org/2000/svg" xmlns:xlink="http://www.w3.org/1999/xlink">
    <!-- Generator: Sketch 64 (93537) - https://sketch.com -->
    <title>head-clickam</title>
    <desc>Created with Sketch.</desc>
    <g id="Welcome" stroke="none" stroke-width="1" fill="none" fill-rule="evenodd">
        <g id="HOME---Dónde-Comprar---Clickam---Desktop-HD" transform="translate(-1008.000000, -240.000000)">
            <g id="head-clickam" transform="translate(1008.000000, 237.000000)">
                <g id="Group" transform="translate(99.167486, 12.140541)" fill-rule="nonzero">
                    <g>
                        <path d="M15.0040845,20.4302703 C19.0742557,20.3574705 22.9394587,22.2124824 25.4291127,25.4335135 C25.6672737,25.7340944 25.765059,26.1224099 25.6976619,26.4999498 C25.6302648,26.8774896 25.4041614,27.2079755 25.0767113,27.4075676 L21.8337535,30.5059459 C21.2002958,31.0702703 20.5646761,30.7221622 20.0739085,30.2897297 C18.8433474,28.8875599 17.0789607,28.0688689 15.2137958,28.0345946 C11.3290096,28.1243954 8.24539292,31.3338411 8.31061972,35.2194595 C8.25248515,37.0810188 8.94234455,38.8883043 10.2260827,40.2375669 C11.5098209,41.5868295 13.2804647,42.3656359 15.1424507,42.4 C17.3274334,42.3978245 19.396164,41.4153488 20.7787113,39.7232432 C21.2211027,39.206788 21.9843241,39.1130179 22.5385563,39.507027 L25.5653169,42.1145946 C26.2701197,42.6767568 26.5511761,43.3859459 26.0582465,44.0864865 C23.6797953,47.913377 19.432962,50.1718977 14.9305775,50.0043243 C6.72246587,50.0426273 0.0371480391,43.4196402 -0.00216197183,35.2108108 C0.152876704,27.0244443 6.81702642,20.4605287 15.0040845,20.4302703 L15.0040845,20.4302703 Z" id="Path" fill="#3D2F59"></path>
                        <path d="M32.1917606,1.33837838 C32.2152531,0.609998865 32.7995827,0.0246722449 33.5278592,1.96647503e-12 L39.4451761,1.96647503e-12 C40.1742968,0.0235584016 40.7598803,0.609193489 40.7834366,1.33837838 L40.7834366,47.9718919 C40.7609376,48.7015344 40.1747544,49.2877693 39.4451761,49.3102703 L33.5278592,49.3102703 C32.7995827,49.285598 32.2152531,48.7002714 32.1917606,47.9718919 L32.1917606,1.33837838 Z" id="Path" fill="#3D2F59"></path>
                        <path d="M49.2367447,22.4713514 C49.2361694,22.1164132 49.3770483,21.7758778 49.6282085,21.5251012 C49.8793688,21.2743247 50.2201015,21.1339841 50.575007,21.1351281 L56.412331,21.1351281 C56.7674349,21.1339858 57.1083887,21.2742578 57.3598918,21.5249716 C57.6113949,21.7756855 57.7527535,22.1162143 57.7527535,22.4713514 L57.7527535,47.9848649 C57.7269696,48.7135544 57.1410359,49.2976494 56.412331,49.3210811 L50.575007,49.3210811 C49.8466916,49.2975865 49.2614166,48.7132054 49.2367447,47.9848649 L49.2367447,22.4713514 Z" id="Path" fill="#3D2F59"></path>
                        <path d="M79.0330423,20.4302703 C83.102608,20.3574692 86.9671553,22.2125511 89.4559085,25.4335135 C89.693571,25.7340659 89.7912694,26.1219637 89.724331,26.4992483 C89.6573927,26.8765329 89.4322169,27.2071358 89.105669,27.4075676 L85.8627113,30.5059459 C85.2292535,31.0702703 84.5957958,30.7221622 84.1007042,30.2897297 C82.8696394,28.8870086 81.1043522,28.068264 79.2384296,28.0345946 C75.3536434,28.1243954 72.2700267,31.3338411 72.3352535,35.2194595 C72.277118,37.0813868 72.9672714,38.8889984 74.2514763,40.2383245 C75.5356812,41.5876507 77.3068821,42.3662071 79.1692465,42.4 C81.3535411,42.3974834 83.4214713,41.4150111 84.8033451,39.7232432 C85.2462527,39.2077513 86.0086902,39.1140775 86.5631901,39.507027 L89.5899507,42.1145946 C90.2925915,42.6767568 90.5758099,43.3859459 90.0807183,44.0864865 C87.7022672,47.913377 83.4554338,50.1718977 78.9530493,50.0043243 C70.7449377,50.0426273 64.0596199,43.4196402 64.0203099,35.2108108 C64.1765485,27.0224224 70.8439316,20.4581593 79.0330423,20.4302703 L79.0330423,20.4302703 Z" id="Path" fill="#3D2F59"></path>
                        <path d="M96.2207183,1.33837838 C96.2442746,0.609193489 96.8298582,0.0235584016 97.5589789,0 L103.547641,0 C104.276762,0.0235584016 104.862345,0.609193489 104.885901,1.33837838 L104.885901,31.8421622 L114.614775,21.9783784 C115.070187,21.4798309 115.70084,21.1768738 116.37462,21.132973 L122.782704,21.132973 C123.277316,21.1058173 123.737611,21.3859679 123.940748,21.8377967 C124.143886,22.2896256 124.047948,22.8198965 123.69938,23.1718919 L113.203007,33.8810811 L125.742444,47.3362162 C126.092146,47.6775937 126.188512,48.2024415 125.982894,48.6457985 C125.777276,49.0891554 125.314395,49.3545925 124.82793,49.3081081 L117.217789,49.3081081 C116.760585,49.2863171 116.330662,49.0841653 116.022218,48.7459459 L104.892387,36.067027 L104.892387,47.9718919 C104.868831,48.7010768 104.283247,49.2867119 103.554127,49.3102703 L97.5654648,49.3102703 C96.8363441,49.2867119 96.2507606,48.7010768 96.2272042,47.9718919 L96.2207183,1.33837838 Z" id="Path" fill="#3D2F59"></path>
                        <path d="M139.609331,31.4918919 C141.351535,31.5010781 143.083228,31.7625299 144.7505,32.2681081 C144.824007,28.6745946 143.695458,27.4075676 141.090282,27.4075676 C138.427761,27.4487531 135.779263,27.8021592 133.199085,28.4605405 C132.215387,28.7459459 131.722458,28.1102703 131.579768,27.1935135 L130.94631,23.532973 C130.831154,23.1683951 130.871709,22.7724369 131.058378,22.4387775 C131.245047,22.105118 131.561247,21.8633999 131.932169,21.7708108 C135.055159,20.9135839 138.275711,20.4630158 141.514028,20.4302703 C150.317577,20.4302703 152.362803,25.0097297 152.362803,32.6897297 L152.362803,47.9762162 C152.338195,48.7049451 151.753207,49.2899848 151.024542,49.3145946 L148.488549,49.3145946 C147.997782,49.3145946 147.643218,49.0983784 147.290817,48.3264865 L146.447648,46.4259459 C144.17685,48.7220202 141.08298,50.0157223 137.85381,50.0194595 C135.260765,50.1787984 132.725636,49.2081646 130.90193,47.357769 C129.078223,45.5073734 128.144383,42.9582693 128.341134,40.3675676 C128.341134,35.3664865 132.427261,31.4918919 139.609331,31.4918919 Z M139.752021,44.0324324 C141.701961,43.8929215 143.485791,42.8838218 144.609972,41.2843243 L144.609972,37.4097297 C143.358555,36.8881429 142.021771,36.6015593 140.666535,36.5643243 C137.918669,36.5643243 136.087479,38.1145946 136.087479,40.3675676 C136.044696,41.3524246 136.417326,42.3100012 137.114526,43.0068516 C137.811726,43.7037019 138.769438,44.0757999 139.754183,44.0324324 L139.752021,44.0324324 Z" id="Shape" fill="#3D2F59"></path>
                        <path d="M160.461549,22.4756757 C160.461549,22.1203407 160.60284,21.7795909 160.854281,21.528534 C161.105721,21.2774771 161.446669,21.1367233 161.801972,21.1372973 L164.396338,21.1372973 C164.922591,21.1028869 165.409229,21.4173849 165.59407,21.9113514 L166.57993,24.5881081 C169.005941,21.942007 172.429374,20.433243 176.019099,20.4281081 C179.596927,20.3237029 183.005684,21.9505519 185.175049,24.7978378 C187.787822,22.0982962 191.353979,20.5296701 195.10931,20.4281081 C204.124732,20.4281081 207.432549,27.1308108 207.432549,34.5210811 L207.432549,47.9762162 C207.432549,48.7153822 206.83339,49.3145946 206.094289,49.3145946 L200.388845,49.3145946 C199.649744,49.3145946 199.050585,48.7153822 199.050585,47.9762162 L199.050585,34.0302703 C199.050585,30.3675676 197.290739,28.0410811 193.768887,28.0410811 C191.429266,27.9901619 189.215167,29.0969044 187.85157,30.9989189 C187.85157,30.9989189 187.920754,32.4043243 187.920754,33.6735135 L187.920754,47.9740541 C187.896146,48.702783 187.311158,49.2878226 186.582493,49.3124324 L181.300796,49.3124324 C180.945691,49.3130076 180.604965,49.1721849 180.353868,48.9210655 C180.10277,48.6699461 179.96196,48.3291901 179.962535,47.9740541 L179.962535,34.0281081 C179.962535,30.3654054 178.343218,28.0389189 174.750021,28.0389189 C172.017718,28.0573998 169.617651,29.8576083 168.834866,32.4756757 L168.834866,47.9740541 C168.810194,48.7035881 168.223952,49.2889354 167.494444,49.3124324 L161.789,49.3124324 C161.059946,49.2878865 160.474298,48.7031321 160.448577,47.9740541 L160.461549,22.4756757 Z" id="Path" fill="#3D2F59"></path>
                        <path d="M56.6804155,4.86054054 L48.2898028,9.70594595 C47.8709422,9.95223962 47.6678682,10.4477642 47.7934104,10.9172023 C47.9189526,11.3866403 48.3422576,11.7146224 48.8281338,11.7189189 L53.1758592,11.7189189 C53.5612758,11.7197001 53.9171231,11.9256483 54.109831,12.2594595 L56.2847746,16.0216216 C56.5299347,16.4424105 57.0261577,16.647317 57.496748,16.5220846 C57.9673382,16.3968521 58.2961073,15.9724005 58.2997324,15.4854054 L58.2997324,5.79243243 C58.2977434,5.40764515 58.0913938,5.05291733 57.7579067,4.86100067 C57.4244196,4.66908401 57.0140663,4.66890877 56.6804155,4.86054054 Z" id="Path" fill="#F21905"></path>
                    </g>
                </g>
                <g id="Group">
                    <g transform="translate(0.000000, 3.680000)" fill-rule="nonzero" id="Path">
                        <path d="M65.388838,65.0659459 L65.388838,45.7621622 C63.8941948,43.2353153 62.3995516,40.7127928 60.9049085,38.1945946 C60.4966925,37.5192947 59.7632961,37.1086223 58.9742676,37.1135135 L49.9955986,37.1135135 C48.9949806,37.1483492 48.101356,36.4915324 47.8358271,35.5260749 C47.5702982,34.5606173 48.0023427,33.5391388 48.8800211,33.0572973 L65.388838,23.76 L65.388838,6.54702703 C65.333438,4.18336096 64.0369551,2.0237223 61.9769785,0.863663526 C59.917002,-0.296395247 57.3982797,-0.28525786 55.3486408,0.892972973 L3.35321831,30.1491892 C0.738500387,31.6076458 -0.542174193,34.6633799 0.251298061,37.5504789 C1.04477031,40.4375778 3.70719386,42.4094246 6.6999507,42.3264865 L33.6316338,42.3264865 C36.0045141,42.315271 38.2074893,43.5561458 39.4278803,45.5913514 C43.9175751,53.169009 48.4065493,60.7488288 52.8948028,68.3308108 C54.4282491,70.8989547 57.4735938,72.1453437 60.3673709,71.3891595 C63.261148,70.6329754 65.3075794,68.0560347 65.388838,65.0659459 Z" fill="#3D2F59"></path>
                        <path d="M82.8445986,21.7297297 L65.5142324,31.4854054 C64.6339998,31.9660999 64.19989,32.9890893 64.4657352,33.9562123 C64.7315805,34.9233353 65.6275734,35.5806383 66.6298099,35.5437838 L75.6084789,35.5437838 C76.3981648,35.5385622 77.1323591,35.9492216 77.5412817,36.6248649 C79.0373662,39.1531532 80.5334507,41.68 82.0295352,44.2054054 C82.5389164,45.0619571 83.5528796,45.4789393 84.5174116,45.2285196 C85.4819435,44.9780998 86.1650502,44.1205104 86.193493,43.1243243 L86.193493,23.6172973 C86.1781484,22.8274674 85.7463612,22.1046228 85.058216,21.7167573 C84.3700708,21.3288918 83.5281515,21.3338257 82.8445986,21.7297297 L82.8445986,21.7297297 Z" fill="#F21905"></path>
                    </g>
                    <rect id="Rectangle" x="0" y="0" width="306.578415" height="78.2291892"></rect>
                </g>
            </g>
        </g>
    </g>
</svg>