<?xml version="1.0" encoding="UTF-8"?>
<svg width="54px" height="59px" viewBox="0 0 54 59" version="1.1" xmlns="http://www.w3.org/2000/svg" xmlns:xlink="http://www.w3.org/1999/xlink">
    <!-- Generator: Sketch 64 (93537) - https://sketch.com -->
    <title>img-08</title>
    <desc>Created with Sketch.</desc>
    <g id="Welcome" stroke="none" stroke-width="1" fill="none" fill-rule="evenodd">
        <g id="HOME---Dónde-Comprar---Clickam---Desktop-HD" transform="translate(-696.000000, -1504.000000)" fill="#3D2F59" fill-rule="nonzero">
            <g id="img-08" transform="translate(696.000000, 1504.000000)">
                <path d="M48.2425541,24.3389645 L48.0967976,24.3389645 L48.0967976,20.768279 C48.0967976,9.29828842 38.7986487,6.03961325e-13 27.3285186,6.03961325e-13 C15.8583886,6.03961325e-13 6.56023968,9.29828842 6.56023968,20.768279 L6.56023968,24.3389645 L5.68584015,24.3389645 C2.47947609,24.3389645 0.00189452534,27.1808676 0.00189452534,30.4601797 L0.00189452534,39.5690544 C-0.0788643399,42.747383 2.43233188,45.3894113 5.61066048,45.4701702 C5.63576687,45.4708676 5.66073377,45.4712861 5.68584015,45.471565 L11.0782728,45.471565 C11.8420647,45.4357187 12.4322042,44.7872766 12.3962184,44.0234846 C12.3949631,43.9960071 12.3928709,43.9685296 12.3899418,43.9411915 L12.3899418,26.0877636 C12.3899418,25.2133641 11.8798638,24.3388251 11.0782728,24.3388251 L9.47509074,24.3388251 L9.47509074,20.7681395 C9.47509074,10.908026 17.4684052,2.91471158 27.3285186,2.91471158 C37.1886321,2.91471158 45.1819465,10.908026 45.1819465,20.7681395 L45.1819465,24.3388251 L43.5787645,24.3388251 C42.7771735,24.3388251 42.2670955,25.2132246 42.2670955,26.0877636 L42.2670955,43.9411915 C42.1857787,44.7014965 42.7361664,45.3838322 43.4964714,45.4651489 C43.5238094,45.468078 43.551287,45.4701702 43.5787645,45.4714255 L45.254755,45.4714255 L45.1089985,45.6899905 C42.9223721,48.5960544 39.4911664,50.2981277 35.8543673,50.2808322 C35.058216,46.3769291 31.247904,43.8575035 27.3440009,44.6537943 C24.0055494,45.3345957 21.5985446,48.2583735 21.571625,51.6654492 C21.6115163,55.6615485 24.8625139,58.8796288 28.8587527,58.8796288 C30.8369962,58.8475485 32.722625,58.0357754 34.1054288,56.6206123 C35.0384099,55.6651749 35.6497503,54.4423546 35.8543673,53.1227352 C40.4086652,53.1400307 44.7036699,51.0059882 47.4408236,47.3659811 L48.8254406,45.3255296 C51.9588567,45.1069645 53.9263602,43.139461 53.9263602,40.2974184 L53.9263602,31.1885437 C53.9263602,28.0554066 51.5946747,24.3389645 48.2425541,24.3389645 Z M9.47509074,42.5567139 L5.68584015,42.5567139 C4.11669122,42.5184965 2.87559902,41.2156147 2.91381651,39.6464657 C2.91451391,39.6206619 2.91549027,39.5948582 2.91674559,39.5689149 L2.91674559,30.4600402 C2.91674559,28.7840496 4.08265812,27.2536761 5.68584015,27.2536761 L9.47509074,27.2536761 L9.47509074,42.5567139 L9.47509074,42.5567139 Z M31.9923082,54.5804397 C31.1847196,55.4560946 30.0500506,55.9575248 28.8588922,55.9650567 C26.4880127,55.9273972 24.5640269,54.0354917 24.4866152,51.6655887 C24.4856392,49.2910827 26.4097645,47.3654232 28.7842704,47.3644464 C31.1587763,47.3634704 33.0844359,49.2875957 33.0854123,51.6621017 C33.0854123,51.6632175 33.0854123,51.6644728 33.0854123,51.6655887 C33.146086,52.7475343 32.7494052,53.8052104 31.9923082,54.5804397 Z M51.0116487,40.2976974 C51.0116487,42.2652009 49.1169536,42.5567139 48.2425541,42.5567139 L45.1819465,42.5567139 L45.1819465,27.2538156 L48.2425541,27.2538156 C49.8457361,27.2538156 51.0116487,29.5128322 51.0116487,31.1888227 L51.0116487,40.2976974 Z" id="Shape"></path>
            </g>
        </g>
    </g>
</svg>