<?xml version="1.0" encoding="UTF-8"?>
<svg width="52px" height="52px" viewBox="0 0 52 52" version="1.1" xmlns="http://www.w3.org/2000/svg" xmlns:xlink="http://www.w3.org/1999/xlink">
    <!-- Generator: Sketch 64 (93537) - https://sketch.com -->
    <title>img-05</title>
    <desc>Created with Sketch.</desc>
    <g id="Welcome" stroke="none" stroke-width="1" fill="none" fill-rule="evenodd">
        <g id="HOME---Dónde-Comprar---Clickam---Desktop-HD" transform="translate(-542.000000, -1168.000000)">
            <g id="img-05" transform="translate(543.000000, 1169.000000)">
                <g id="img-01" fill="#3D2F59" stroke="#3D2F59">
                    <rect id="Rectangle" x="0" y="0" width="50" height="50" rx="10"></rect>
                </g>
                <path d="M24.624,35 C28.836,35 31.176,32.4 31.176,28.396 C31.176,25.328 29.59,22.182 25.456,22.182 C23.948,22.182 22.648,22.728 21.972,23.482 L21.972,19.894 L30.084,19.894 L30.084,15.994 L17.942,15.994 L17.942,27.304 L22.232,27.304 C22.466,26.42 23.194,25.744 24.442,25.744 C26.028,25.744 26.886,26.654 26.886,28.37 C26.886,30.008 26.158,31.23 24.468,31.23 C23.012,31.23 22.258,30.346 22.076,29.358 L17.734,29.358 C17.89,32.634 20.36,35 24.624,35 Z" id="5" fill="#FFFFFF" fill-rule="nonzero"></path>
            </g>
        </g>
    </g>
</svg>