<?xml version="1.0" encoding="UTF-8"?>
<svg width="43px" height="43px" viewBox="0 0 43 43" version="1.1" xmlns="http://www.w3.org/2000/svg" xmlns:xlink="http://www.w3.org/1999/xlink">
    <!-- Generator: Sketch 64 (93537) - https://sketch.com -->
    <title>img-07</title>
    <desc>Created with Sketch.</desc>
    <g id="Welcome" stroke="none" stroke-width="1" fill="none" fill-rule="evenodd">
        <g id="HOME---Dónde-Comprar---Clickam---Desktop-HD" transform="translate(-457.000000, -1512.000000)" fill="#3D2F59" fill-rule="nonzero">
            <g id="img-07" transform="translate(457.000000, 1512.000000)">
                <path d="M17.7919415,32.710846 L12.7349571,37.7678304 C10.6384347,39.8643528 7.24327875,39.8643528 5.14851657,37.7682495 C3.05333528,35.6730682 3.05333528,32.277577 5.14809747,30.1828148 L15.2638265,20.0670858 C17.3585887,17.9722398 20.7540799,17.9722398 22.8488421,20.0670858 C23.547152,20.7653957 24.6794016,20.7653957 25.3777115,20.0670858 C26.0760214,19.3687758 26.0760214,18.2365263 25.3777115,17.5382164 C21.8862456,14.0467505 16.226423,14.0467505 12.7349571,17.5382164 L2.61931189,27.6539454 C-0.872153996,31.1454113 -0.872153996,36.8052339 2.61931189,40.2966998 C6.11035867,43.7900097 11.7706004,43.7900097 15.2639103,40.2966998 L20.3208947,35.2397154 C21.0192047,34.5414055 21.0192047,33.4091559 20.3208947,32.710846 C19.6225848,32.0125361 18.4902515,32.0125361 17.7919415,32.710846 Z" id="Path"></path>
                <path d="M40.2970351,15.2620663 C43.788501,11.7706004 43.788501,6.11077778 40.2970351,2.61931189 C36.805653,-0.872070175 31.1460819,-0.872070175 27.6528558,2.61889279 L21.5851618,8.68658674 C20.8868519,9.38489669 20.8868519,10.5171462 21.5851618,11.2154561 C22.2834717,11.9137661 23.4157212,11.9137661 24.1140312,11.2154561 L30.181306,5.14818129 C32.2774932,3.05333528 35.6733197,3.05333528 37.7681657,5.14818129 C39.8629279,7.24294347 39.8629279,10.6384347 37.7681657,12.7331969 L26.6421462,23.8592164 C24.5473002,25.9540624 21.1518928,25.9540624 19.0571306,23.8592164 C18.3588207,23.1609064 17.2265712,23.1609064 16.5282612,23.8592164 C15.8299513,24.5575263 15.8299513,25.6897758 16.5282612,26.3880858 C20.0197271,29.8795517 25.6795497,29.8795517 29.1710156,26.3880858 L40.2970351,15.2620663 Z" id="Path"></path>
                <path d="M33.4524912,30.9236218 C32.7541813,30.2253119 31.6219318,30.2253119 30.9236218,30.9236218 C30.2253119,31.6219318 30.2253119,32.7541813 30.9236218,33.4524912 L36.286384,38.8152534 C36.984694,39.5135634 38.1169435,39.5135634 38.8152534,38.8152534 C39.5135634,38.1169435 39.5135634,36.984694 38.8152534,36.286384 L33.4524912,30.9236218 Z" id="Path"></path>
                <path d="M9.46695712,11.9958265 C10.1652671,12.6941365 11.2975166,12.6941365 11.9958265,11.9958265 C12.6941365,11.2975166 12.6941365,10.1652671 11.9958265,9.46695712 L6.62769981,4.09883041 C5.92938986,3.40052047 4.79714035,3.40052047 4.09883041,4.09883041 C3.40052047,4.79714035 3.40052047,5.92938986 4.09883041,6.62769981 L9.46695712,11.9958265 Z" id="Path"></path>
                <path d="M41.1280331,26.8226121 L35.7635107,26.8226121 C34.7759357,26.8226121 33.9753645,27.6231832 33.9753645,28.6107583 C33.9753645,29.5983333 34.7759357,30.3989045 35.7635107,30.3989045 L41.1280331,30.3989045 C42.1156082,30.3989045 42.9161793,29.5983333 42.9161793,28.6107583 C42.9161793,27.6231832 42.1156082,26.8226121 41.1280331,26.8226121 Z" id="Path"></path>
                <path d="M14.3054211,8.94089864 C15.2929961,8.94089864 16.0935673,8.14032749 16.0935673,7.15275244 L16.0935673,1.78823002 C16.0935673,0.80057115 15.2929961,-9.86766224e-13 14.3054211,-9.86766224e-13 C13.317846,-9.86766224e-13 12.5172749,0.80057115 12.5172749,1.7881462 L12.5172749,7.15266862 C12.517191,8.14024366 13.317846,8.94089864 14.3054211,8.94089864 Z" id="Path"></path>
                <path d="M1.7881462,16.0935673 L7.15266862,16.0935673 C8.14024366,16.0935673 8.94081481,15.2929961 8.94081481,14.3054211 C8.94081481,13.317846 8.14024366,12.5172749 7.15266862,12.5172749 L1.7881462,12.5172749 C0.80057115,12.5172749 -3.65929509e-13,13.317846 -3.65929509e-13,14.3054211 C-3.65929509e-13,15.2929961 0.80057115,16.0935673 1.7881462,16.0935673 Z" id="Path"></path>
                <path d="M28.6107583,33.9752807 C27.6231832,33.9752807 26.8226121,34.7758519 26.8226121,35.7634269 L26.8226121,41.1279493 C26.8226121,42.1155244 27.6231832,42.9160955 28.6107583,42.9160955 C29.5983333,42.9160955 30.3989045,42.1155244 30.3989045,41.1279493 L30.3989045,35.7634269 C30.3989883,34.7759357 29.5983333,33.9752807 28.6107583,33.9752807 Z" id="Path"></path>
            </g>
        </g>
    </g>
</svg>