<?xml version="1.0" encoding="UTF-8"?>
<svg width="65px" height="53px" viewBox="0 0 65 53" version="1.1" xmlns="http://www.w3.org/2000/svg" xmlns:xlink="http://www.w3.org/1999/xlink">
    <!-- Generator: Sketch 64 (93537) - https://sketch.com -->
    <title>img-10</title>
    <desc>Created with Sketch.</desc>
    <g id="Welcome" stroke="none" stroke-width="1" fill="none" fill-rule="evenodd">
        <g id="HOME---Dónde-Comprar---Clickam---Desktop-HD" transform="translate(-1165.000000, -1507.000000)" fill="#3D2F59" fill-rule="nonzero">
            <g id="img-10" transform="translate(1165.000000, 1507.000000)">
                <ellipse id="Oval" cx="34.988284" cy="38.1784238" rx="1.45779819" ry="1.46835238"></ellipse>
                <ellipse id="Oval" cx="10.2049632" cy="46.9887905" rx="1.45779819" ry="1.46835238"></ellipse>
                <path d="M59.7716049,-4.65196509e-13 L10.2049632,-4.65196509e-13 C7.72660601,-4.65196509e-13 5.83144331,1.90888333 5.83144331,4.40518333 L5.83144331,19.0892119 C5.83144331,19.9702738 6.41463776,20.5575643 7.2892415,20.5575643 C8.16384524,20.5575643 8.74703968,19.9701476 8.74703968,19.0892119 L8.74703968,4.40530952 C8.74703968,3.52424762 9.33023413,2.93695714 10.2048379,2.93695714 L59.7714796,2.93695714 C60.6462086,2.93695714 61.2292778,3.52437381 61.2292778,4.40530952 L61.2292778,39.6469024 C61.2292778,40.5279643 60.6460833,41.1152548 59.7714796,41.1152548 L24.7833209,41.1152548 C23.9085918,41.1152548 23.3255227,41.7026714 23.3255227,42.5836071 C23.3255227,43.4645429 23.9087171,44.0519595 24.7833209,44.0519595 L27.6990425,44.0519595 L27.6990425,48.4571429 C27.6990425,49.3382048 27.1158481,49.9254952 26.2412443,49.9254952 L24.7834461,49.9254952 C23.9087171,49.9254952 23.325648,50.5129119 23.325648,51.3938476 C23.325648,52.2747833 23.9088424,52.8622 24.7834461,52.8622 L45.1932472,52.8622 C46.0679762,52.8622 46.6510454,52.2747833 46.6510454,51.3938476 C46.6510454,50.5129119 46.0678509,49.9254952 45.1932472,49.9254952 L43.735449,49.9254952 C42.86072,49.9254952 42.2776508,49.3380786 42.2776508,48.4571429 L42.2776508,44.0519595 L59.7717302,44.0519595 C62.2500873,44.0519595 64.14525,42.1430762 64.14525,39.6467762 L64.14525,4.40530952 C64.14525,1.90900952 62.249962,-4.65196509e-13 59.7716049,-4.65196509e-13 Z M30.3231043,49.9256214 C30.4689342,49.4850905 30.6146389,49.0445595 30.6146389,48.457269 L30.6146389,44.0520857 L39.3616786,44.0520857 L39.3616786,48.457269 C39.3616786,49.0446857 39.5075085,49.4850905 39.6532132,49.9256214 L30.3231043,49.9256214 Z" id="Shape"></path>
                <path d="M56.8558832,32.3047619 L24.7833209,32.3047619 C23.9085918,32.3047619 23.3255227,32.8921786 23.3255227,33.7731143 C23.3255227,34.65405 23.9087171,35.2414667 24.7833209,35.2414667 L56.8558832,35.2414667 C57.7306122,35.2414667 58.3136814,34.65405 58.3136814,33.7731143 C58.3136814,32.8921786 57.7306122,32.3047619 56.8558832,32.3047619 Z" id="Path"></path>
                <path d="M16.0362812,23.4943952 L4.37351984,23.4943952 C1.8951627,23.4943952 1.11797696e-13,25.4034048 1.11797696e-13,27.8995786 L1.11797696e-13,48.4571429 C1.11797696e-13,50.9534429 1.8951627,52.8623262 4.37351984,52.8623262 L16.0362812,52.8623262 C18.5146383,52.8623262 20.409801,50.9534429 20.409801,48.4571429 L20.409801,27.8995786 C20.409801,25.4034048 18.5146383,23.4943952 16.0362812,23.4943952 Z M17.4940794,48.4571429 C17.4940794,49.3382048 16.9108849,49.9254952 16.0362812,49.9254952 L4.37351984,49.9254952 C3.49879082,49.9254952 2.91572166,49.3380786 2.91572166,48.4571429 L2.91572166,27.8995786 C2.91572166,27.0185167 3.4989161,26.4312262 4.37351984,26.4312262 L16.0362812,26.4312262 C16.9110102,26.4312262 17.4940794,27.0186429 17.4940794,27.8995786 L17.4940794,48.4571429 Z" id="Shape"></path>
            </g>
        </g>
    </g>
</svg>