<?xml version="1.0" encoding="UTF-8"?>
<svg width="70px" height="68px" viewBox="0 0 70 68" version="1.1" xmlns="http://www.w3.org/2000/svg" xmlns:xlink="http://www.w3.org/1999/xlink">
    <!-- Generator: Sketch 64 (93537) - https://sketch.com -->
    <title>img-09</title>
    <desc>Created with Sketch.</desc>
    <g id="Welcome" stroke="none" stroke-width="1" fill="none" fill-rule="evenodd">
        <g id="HOME---Dónde-Comprar---Clickam---Desktop-HD" transform="translate(-928.000000, -1498.000000)" fill="#3D2F59" fill-rule="nonzero">
            <g id="img-09" transform="translate(928.000000, 1498.000000)">
                <path d="M69.1525424,24.2033898 L69.1525424,21.8983051 L64.5423729,21.8983051 L64.5423729,5.76271186 C64.542517,5.12636441 64.0267543,4.61031356 63.3904068,4.61016949 C63.3902627,4.61016949 63.3899746,4.61016949 63.3898305,4.61016949 L38.0338983,4.61016949 C37.3975509,4.61002542 36.8815,5.12578814 36.881356,5.76213559 C36.881356,5.76227966 36.881356,5.7625678 36.881356,5.76271186 L36.881356,21.8983051 L33.4237288,21.8983051 L33.4237288,5.76271186 C33.4238729,5.12636441 32.9081102,4.61031356 32.2717627,4.61016949 C32.2716187,4.61016949 32.2713305,4.61016949 32.2711865,4.61016949 L6.91525427,4.61016949 C6.27890681,4.61002542 5.76285596,5.12578814 5.76271189,5.76213559 C5.76271189,5.76227966 5.76271189,5.7625678 5.76271189,5.76271186 L5.76271189,21.8983051 L2.30508478,21.8983051 L2.30508478,0 L2.13162821e-13,0 L2.13162821e-13,66.8474576 C2.13162821e-13,67.4838051 0.515618674,68 1.15196613,68 C1.1521102,68 1.15239834,68 1.1525424,68 L69.1525424,68 L69.1525424,65.6949153 L64.5423729,65.6949153 L64.5423729,49.559322 C64.542517,48.9229746 64.0267543,48.4069237 63.3904068,48.4067797 C63.3902627,48.4067797 63.3899746,48.4067797 63.3898305,48.4067797 L38.0338983,48.4067797 C37.3975509,48.4066356 36.8815,48.9223983 36.881356,49.5587458 C36.881356,49.5588898 36.881356,49.559178 36.881356,49.559322 L36.881356,65.6949153 L33.4237288,65.6949153 L33.4237288,49.559322 C33.4238729,48.9229746 32.9081102,48.4069237 32.2717627,48.4067797 C32.2716187,48.4067797 32.2713305,48.4067797 32.2711865,48.4067797 L6.91525427,48.4067797 C6.27890681,48.4066356 5.76285596,48.9223983 5.76271189,49.5587458 C5.76271189,49.5588898 5.76271189,49.559178 5.76271189,49.559322 L5.76271189,65.6949153 L2.30508478,65.6949153 L2.30508478,46.1016949 L69.1525424,46.1016949 L69.1525424,43.7966102 L64.5423729,43.7966102 L64.5423729,27.6610169 C64.542517,27.0246695 64.0267543,26.5086186 63.3904068,26.5084746 C63.3902627,26.5084746 63.3899746,26.5084746 63.3898305,26.5084746 L38.0338983,26.5084746 C37.3975509,26.5083305 36.8815,27.0240932 36.881356,27.6604407 C36.881356,27.6605847 36.881356,27.6608729 36.881356,27.6610169 L36.881356,43.7966102 L33.4237288,43.7966102 L33.4237288,27.6610169 C33.4238729,27.0246695 32.9081102,26.5086186 32.2717627,26.5084746 C32.2716187,26.5084746 32.2713305,26.5084746 32.2711865,26.5084746 L6.91525427,26.5084746 C6.27890681,26.5083305 5.76285596,27.0240932 5.76271189,27.6604407 C5.76271189,27.6605847 5.76271189,27.6608729 5.76271189,27.6610169 L5.76271189,43.7966102 L2.30508478,43.7966102 L2.30508478,24.2033898 L69.1525424,24.2033898 Z M48.4067797,6.91525424 L53.0169492,6.91525424 L53.0169492,11.5254237 L48.4067797,11.5254237 L48.4067797,6.91525424 Z M39.1864407,6.91525424 L46.1016949,6.91525424 L46.1016949,12.6779661 C46.1015509,13.3143136 46.6173136,13.8303644 47.253661,13.8305085 C47.2538051,13.8305085 47.2540933,13.8305085 47.2542373,13.8305085 L54.1694916,13.8305085 C54.805839,13.8306525 55.3218899,13.3148898 55.3220339,12.6785424 C55.3220339,12.6783983 55.3220339,12.6781102 55.3220339,12.6779661 L55.3220339,6.91525424 L62.2372882,6.91525424 L62.2372882,21.8983051 L39.1864407,21.8983051 L39.1864407,6.91525424 Z M17.2881356,6.91525424 L21.8983051,6.91525424 L21.8983051,11.5254237 L17.2881356,11.5254237 L17.2881356,6.91525424 Z M8.06779664,6.91525424 L14.9830509,6.91525424 L14.9830509,12.6779661 C14.9829068,13.3143136 15.4986695,13.8303644 16.135017,13.8305085 C16.135161,13.8305085 16.1354492,13.8305085 16.1355933,13.8305085 L23.0508475,13.8305085 C23.6871949,13.8306525 24.2032458,13.3148898 24.2033899,12.6785424 C24.2033899,12.6783983 24.2033899,12.6781102 24.2033899,12.6779661 L24.2033899,6.91525424 L31.1186441,6.91525424 L31.1186441,21.8983051 L8.06779664,21.8983051 L8.06779664,6.91525424 Z M48.4067797,50.7118644 L53.0169492,50.7118644 L53.0169492,55.3220339 L48.4067797,55.3220339 L48.4067797,50.7118644 Z M39.1864407,50.7118644 L46.1016949,50.7118644 L46.1016949,56.4745763 C46.1015509,57.1109237 46.6173136,57.6269746 47.253661,57.6271186 C47.2538051,57.6271186 47.2540933,57.6271186 47.2542373,57.6271186 L54.1694916,57.6271186 C54.805839,57.6272627 55.3218899,57.1115 55.3220339,56.4751525 C55.3220339,56.4750085 55.3220339,56.4747203 55.3220339,56.4745763 L55.3220339,50.7118644 L62.2372882,50.7118644 L62.2372882,65.6949153 L39.1864407,65.6949153 L39.1864407,50.7118644 Z M17.2881356,50.7118644 L21.8983051,50.7118644 L21.8983051,55.3220339 L17.2881356,55.3220339 L17.2881356,50.7118644 Z M8.06779664,50.7118644 L14.9830509,50.7118644 L14.9830509,56.4745763 C14.9829068,57.1109237 15.4986695,57.6269746 16.135017,57.6271186 C16.135161,57.6271186 16.1354492,57.6271186 16.1355933,57.6271186 L23.0508475,57.6271186 C23.6871949,57.6272627 24.2032458,57.1115 24.2033899,56.4751525 C24.2033899,56.4750085 24.2033899,56.4747203 24.2033899,56.4745763 L24.2033899,50.7118644 L31.1186441,50.7118644 L31.1186441,65.6949153 L8.06779664,65.6949153 L8.06779664,50.7118644 Z M48.4067797,29.9661017 L53.0169492,29.9661017 L53.0169492,34.5762712 L48.4067797,34.5762712 L48.4067797,29.9661017 Z M39.1864407,28.8135593 L46.1016949,28.8135593 L46.1016949,35.7288136 C46.1015509,36.365161 46.6173136,36.8812119 47.253661,36.8813559 C47.2538051,36.8813559 47.2540933,36.8813559 47.2542373,36.8813559 L54.1694916,36.8813559 C54.805839,36.8815 55.3218899,36.3657373 55.3220339,35.7293898 C55.3220339,35.7292458 55.3220339,35.7289576 55.3220339,35.7288136 L55.3220339,28.8135593 L62.2372882,28.8135593 L62.2372882,43.7966102 L39.1864407,43.7966102 L39.1864407,28.8135593 Z M17.2881356,28.8135593 L21.8983051,28.8135593 L21.8983051,33.4237288 L17.2881356,33.4237288 L17.2881356,28.8135593 Z M8.06779664,28.8135593 L14.9830509,28.8135593 L14.9830509,34.5762712 C14.9829068,35.2126186 15.4986695,35.7286695 16.135017,35.7288136 C16.135161,35.7288136 16.1354492,35.7288136 16.1355933,35.7288136 L23.0508475,35.7288136 C23.6871949,35.7289576 24.2032458,35.2131949 24.2033899,34.5768475 C24.2033899,34.5767034 24.2033899,34.5764153 24.2033899,34.5762712 L24.2033899,28.8135593 L31.1186441,28.8135593 L31.1186441,43.7966102 L8.06779664,43.7966102 L8.06779664,28.8135593 Z" id="Shape"></path>
            </g>
        </g>
    </g>
</svg>